M48
;DRILL file {KiCad 5.0.0-rc2-unknown-03fa645~65~ubuntu16.04.1} date Fri Jun 29 10:26:43 2018
;FORMAT={-:-/ absolute / inch / decimal}
FMAT,2
INCH,TZ
T1C0.0118
T2C0.0157
T3C0.0315
T4C0.0319
T5C0.0394
T6C0.0413
T7C0.0598
T8C0.0906
%
G90
G05
M72
T1
X5.6593Y-5.0961
X5.6593Y-5.1548
X5.6597Y-5.0708
X5.6597Y-5.1802
X5.8193Y-5.0961
X5.8193Y-5.1548
X5.8568Y-5.0961
X5.8568Y-5.1548
X5.8943Y-5.0961
X5.8943Y-5.1548
T2
X4.1063Y-4.7461
X4.311Y-4.8504
X4.311Y-4.8839
X4.311Y-4.9193
X4.4587Y-4.2697
X4.4764Y-4.8366
X4.4764Y-4.8701
X4.4764Y-4.9055
X4.872Y-5.7657
X4.8976Y-5.8012
X4.9075Y-4.4961
X4.9803Y-5.7677
X5.0098Y-3.9413
X5.0138Y-5.8012
X5.0236Y-4.0846
X5.4626Y-5.9547
X5.4646Y-5.3504
X5.4646Y-5.4764
X5.689Y-5.7677
X5.689Y-5.8031
X5.689Y-5.8465
X5.6969Y-4.2657
X5.6969Y-6.5689
X5.7283Y-5.7677
X5.7283Y-5.8031
X5.7283Y-5.8465
X5.7547Y-5.3504
X5.7677Y-5.7677
X5.7677Y-5.8031
X5.7677Y-5.8465
X5.9355Y-4.2495
X5.9862Y-4.2126
X6.0906Y-4.2323
X6.1339Y-4.2933
T3
X4.9402Y-5.374
X4.9402Y-5.474
X4.9402Y-5.574
X4.9402Y-5.674
X5.2402Y-5.374
X5.2402Y-5.474
X5.2402Y-5.574
X5.2402Y-5.674
T4
X6.1467Y-5.5339
X6.1467Y-5.6339
X6.2254Y-5.5339
X6.2254Y-5.6339
T5
X5.9717Y-6.3789
X5.9717Y-6.4789
X5.9717Y-6.5589
X5.9717Y-6.6589
X4.4882Y-5.3937
X4.4882Y-5.4921
X4.4882Y-5.5906
X4.4882Y-5.689
X4.2717Y-4.0339
X4.2717Y-4.1339
X4.3717Y-4.0339
X4.3717Y-4.1339
X4.4717Y-4.0339
X4.4717Y-4.1339
X4.5717Y-4.0339
X4.5717Y-4.1339
X4.6717Y-4.0339
X4.6717Y-4.1339
X4.7717Y-4.0339
X4.7717Y-4.1339
X4.8717Y-4.0339
X4.8717Y-4.1339
X4.9717Y-4.0339
X4.9717Y-4.1339
X5.0717Y-4.0339
X5.0717Y-4.1339
X5.1717Y-4.0339
X5.1717Y-4.1339
X5.2717Y-4.0339
X5.2717Y-4.1339
X5.3717Y-4.0339
X5.3717Y-4.1339
X5.4717Y-4.0339
X5.4717Y-4.1339
X5.5717Y-4.0339
X5.5717Y-4.1339
X5.6717Y-4.0339
X5.6717Y-4.1339
X5.7717Y-4.0339
X5.7717Y-4.1339
X5.8717Y-4.0339
X5.8717Y-4.1339
X5.9717Y-4.0339
X5.9717Y-4.1339
X6.0717Y-4.0339
X6.0717Y-4.1339
X6.1717Y-4.0339
X6.1717Y-4.1339
X4.7106Y-4.3957
X4.8091Y-4.3957
X4.9075Y-4.3957
X5.0059Y-4.3957
X5.1043Y-4.3957
X5.2028Y-4.3957
X5.3012Y-4.3957
X5.3996Y-4.3957
X5.9331Y-4.5827
X5.9331Y-4.7795
T6
X4.1142Y-4.6201
X4.2126Y-4.6201
T7
X6.3445Y-4.3256
X6.3445Y-4.5256
T8
X6.3317Y-5.3476
X6.3317Y-5.8201
X6.0768Y-6.2589
X6.0768Y-6.799
T5
X6.1608Y-5.1227G85X6.1608Y-5.0439
G05
X6.3183Y-4.8983G85X6.2395Y-4.8983
G05
X6.397Y-5.1227G85X6.397Y-5.0439
G05
T0
M30
