G04 #@! TF.GenerationSoftware,KiCad,Pcbnew,5.0.0-rc2-unknown-03fa645~65~ubuntu16.04.1*
G04 #@! TF.CreationDate,2018-06-29T10:26:33+12:00*
G04 #@! TF.ProjectId,pi-hat,70692D6861742E6B696361645F706362,rev?*
G04 #@! TF.SameCoordinates,Original*
G04 #@! TF.FileFunction,Soldermask,Bot*
G04 #@! TF.FilePolarity,Negative*
%FSLAX46Y46*%
G04 Gerber Fmt 4.6, Leading zero omitted, Abs format (unit mm)*
G04 Created by KiCad (PCBNEW 5.0.0-rc2-unknown-03fa645~65~ubuntu16.04.1) date Fri Jun 29 10:26:33 2018*
%MOMM*%
%LPD*%
G01*
G04 APERTURE LIST*
%ADD10C,1.700000*%
%ADD11C,1.400000*%
%ADD12C,2.400000*%
%ADD13R,2.400000X2.400000*%
%ADD14C,3.400000*%
%ADD15R,3.400000X3.400000*%
%ADD16R,3.900000X3.900000*%
%ADD17O,2.000000X2.000000*%
%ADD18R,2.000000X2.000000*%
%ADD19C,2.150000*%
%ADD20R,2.150000X2.150000*%
%ADD21O,2.100000X2.100000*%
%ADD22R,2.100000X2.100000*%
%ADD23C,1.900000*%
%ADD24R,1.900000X1.900000*%
%ADD25C,1.920000*%
%ADD26C,3.100000*%
%ADD27C,6.000000*%
G04 APERTURE END LIST*
D10*
G04 #@! TO.C,BT2*
X130900000Y-152300000D03*
D11*
X130900000Y-159800000D03*
G04 #@! TD*
D12*
G04 #@! TO.C,C11*
X150700000Y-116400000D03*
D13*
X150700000Y-121400000D03*
G04 #@! TD*
D14*
G04 #@! TO.C,J6*
X161150000Y-109870000D03*
D15*
X161150000Y-114950000D03*
G04 #@! TD*
D16*
G04 #@! TO.C,J3*
X159484000Y-124416000D03*
X162484000Y-129116000D03*
X156484000Y-129116000D03*
G04 #@! TD*
D17*
G04 #@! TO.C,U5*
X133100000Y-136500000D03*
X125480000Y-144120000D03*
X133100000Y-139040000D03*
X125480000Y-141580000D03*
X133100000Y-141580000D03*
X125480000Y-139040000D03*
X133100000Y-144120000D03*
D18*
X125480000Y-136500000D03*
G04 #@! TD*
D19*
G04 #@! TO.C,J9*
X107000000Y-117350000D03*
D20*
X104500000Y-117350000D03*
G04 #@! TD*
D21*
G04 #@! TO.C,J1*
X156760000Y-102460000D03*
X156760000Y-105000000D03*
X154220000Y-102460000D03*
X154220000Y-105000000D03*
X151680000Y-102460000D03*
X151680000Y-105000000D03*
X149140000Y-102460000D03*
X149140000Y-105000000D03*
X146600000Y-102460000D03*
X146600000Y-105000000D03*
X144060000Y-102460000D03*
X144060000Y-105000000D03*
X141520000Y-102460000D03*
X141520000Y-105000000D03*
X138980000Y-102460000D03*
X138980000Y-105000000D03*
X136440000Y-102460000D03*
X136440000Y-105000000D03*
X133900000Y-102460000D03*
X133900000Y-105000000D03*
X131360000Y-102460000D03*
X131360000Y-105000000D03*
X128820000Y-102460000D03*
X128820000Y-105000000D03*
X126280000Y-102460000D03*
X126280000Y-105000000D03*
X123740000Y-102460000D03*
X123740000Y-105000000D03*
X121200000Y-102460000D03*
X121200000Y-105000000D03*
X118660000Y-102460000D03*
X118660000Y-105000000D03*
X116120000Y-102460000D03*
X116120000Y-105000000D03*
X113580000Y-102460000D03*
X113580000Y-105000000D03*
X111040000Y-102460000D03*
X111040000Y-105000000D03*
X108500000Y-102460000D03*
D22*
X108500000Y-105000000D03*
G04 #@! TD*
D19*
G04 #@! TO.C,J4*
X119650000Y-111650000D03*
X122150000Y-111650000D03*
X124650000Y-111650000D03*
X127150000Y-111650000D03*
X129650000Y-111650000D03*
X132150000Y-111650000D03*
X134650000Y-111650000D03*
D20*
X137150000Y-111650000D03*
G04 #@! TD*
D19*
G04 #@! TO.C,J2*
X114000000Y-137000000D03*
X114000000Y-139500000D03*
X114000000Y-142000000D03*
D20*
X114000000Y-144500000D03*
G04 #@! TD*
D23*
G04 #@! TO.C,J7*
X151680000Y-162025000D03*
X151680000Y-164565000D03*
X151680000Y-166595000D03*
D24*
X151680000Y-169135000D03*
D14*
X154350000Y-158975000D03*
X154350000Y-172695000D03*
G04 #@! TD*
D25*
G04 #@! TO.C,J5*
X156125000Y-143100000D03*
X156125000Y-140560000D03*
X158125000Y-140560000D03*
X158125000Y-143100000D03*
D26*
X160825000Y-147830000D03*
X160825000Y-135830000D03*
G04 #@! TD*
D27*
G04 #@! TO.C,REF\002A\002A*
X161700000Y-152700000D03*
G04 #@! TD*
G04 #@! TO.C,REF\002A\002A*
X103600000Y-152700000D03*
G04 #@! TD*
M02*
