G04 #@! TF.GenerationSoftware,KiCad,Pcbnew,5.0.0-rc2-unknown-03fa645~65~ubuntu16.04.1*
G04 #@! TF.CreationDate,2018-06-29T10:26:33+12:00*
G04 #@! TF.ProjectId,pi-hat,70692D6861742E6B696361645F706362,rev?*
G04 #@! TF.SameCoordinates,Original*
G04 #@! TF.FileFunction,Copper,L1,Top,Signal*
G04 #@! TF.FilePolarity,Positive*
%FSLAX46Y46*%
G04 Gerber Fmt 4.6, Leading zero omitted, Abs format (unit mm)*
G04 Created by KiCad (PCBNEW 5.0.0-rc2-unknown-03fa645~65~ubuntu16.04.1) date Fri Jun 29 10:26:33 2018*
%MOMM*%
%LPD*%
G01*
G04 APERTURE LIST*
G04 #@! TA.AperFunction,SMDPad,CuDef*
%ADD10R,1.600000X1.000000*%
G04 #@! TD*
G04 #@! TA.AperFunction,SMDPad,CuDef*
%ADD11R,2.800000X1.900000*%
G04 #@! TD*
G04 #@! TA.AperFunction,Conductor*
%ADD12C,0.100000*%
G04 #@! TD*
G04 #@! TA.AperFunction,Conductor*
%ADD13C,0.350000*%
G04 #@! TD*
G04 #@! TA.AperFunction,Conductor*
%ADD14C,0.700000*%
G04 #@! TD*
G04 #@! TA.AperFunction,SMDPad,CuDef*
%ADD15C,0.250000*%
G04 #@! TD*
G04 #@! TA.AperFunction,SMDPad,CuDef*
%ADD16R,2.600000X3.660000*%
G04 #@! TD*
G04 #@! TA.AperFunction,SMDPad,CuDef*
%ADD17R,2.600000X3.540000*%
G04 #@! TD*
G04 #@! TA.AperFunction,SMDPad,CuDef*
%ADD18R,2.850000X1.430000*%
G04 #@! TD*
G04 #@! TA.AperFunction,SMDPad,CuDef*
%ADD19R,0.900000X1.200000*%
G04 #@! TD*
G04 #@! TA.AperFunction,SMDPad,CuDef*
%ADD20R,1.250000X1.500000*%
G04 #@! TD*
G04 #@! TA.AperFunction,ComponentPad*
%ADD21C,2.000000*%
G04 #@! TD*
G04 #@! TA.AperFunction,ComponentPad*
%ADD22R,2.000000X2.000000*%
G04 #@! TD*
G04 #@! TA.AperFunction,SMDPad,CuDef*
%ADD23R,1.500000X1.250000*%
G04 #@! TD*
G04 #@! TA.AperFunction,SMDPad,CuDef*
%ADD24R,0.750000X1.200000*%
G04 #@! TD*
G04 #@! TA.AperFunction,SMDPad,CuDef*
%ADD25R,1.200000X0.900000*%
G04 #@! TD*
G04 #@! TA.AperFunction,SMDPad,CuDef*
%ADD26R,1.000000X1.000000*%
G04 #@! TD*
G04 #@! TA.AperFunction,ComponentPad*
%ADD27C,3.000000*%
G04 #@! TD*
G04 #@! TA.AperFunction,ComponentPad*
%ADD28R,3.000000X3.000000*%
G04 #@! TD*
G04 #@! TA.AperFunction,SMDPad,CuDef*
%ADD29R,0.900000X0.900000*%
G04 #@! TD*
G04 #@! TA.AperFunction,SMDPad,CuDef*
%ADD30O,0.300000X0.750000*%
G04 #@! TD*
G04 #@! TA.AperFunction,SMDPad,CuDef*
%ADD31O,0.750000X0.300000*%
G04 #@! TD*
G04 #@! TA.AperFunction,ComponentPad*
%ADD32R,3.500000X3.500000*%
G04 #@! TD*
G04 #@! TA.AperFunction,SMDPad,CuDef*
%ADD33R,2.000000X1.500000*%
G04 #@! TD*
G04 #@! TA.AperFunction,SMDPad,CuDef*
%ADD34R,2.000000X3.800000*%
G04 #@! TD*
G04 #@! TA.AperFunction,ComponentPad*
%ADD35O,1.600000X1.600000*%
G04 #@! TD*
G04 #@! TA.AperFunction,ComponentPad*
%ADD36R,1.600000X1.600000*%
G04 #@! TD*
G04 #@! TA.AperFunction,ComponentPad*
%ADD37C,1.750000*%
G04 #@! TD*
G04 #@! TA.AperFunction,ComponentPad*
%ADD38R,1.750000X1.750000*%
G04 #@! TD*
G04 #@! TA.AperFunction,SMDPad,CuDef*
%ADD39R,0.600000X1.550000*%
G04 #@! TD*
G04 #@! TA.AperFunction,ComponentPad*
%ADD40O,1.700000X1.700000*%
G04 #@! TD*
G04 #@! TA.AperFunction,ComponentPad*
%ADD41R,1.700000X1.700000*%
G04 #@! TD*
G04 #@! TA.AperFunction,SMDPad,CuDef*
%ADD42R,0.800000X1.800000*%
G04 #@! TD*
G04 #@! TA.AperFunction,ComponentPad*
%ADD43C,1.500000*%
G04 #@! TD*
G04 #@! TA.AperFunction,ComponentPad*
%ADD44R,1.500000X1.500000*%
G04 #@! TD*
G04 #@! TA.AperFunction,ComponentPad*
%ADD45C,1.520000*%
G04 #@! TD*
G04 #@! TA.AperFunction,ComponentPad*
%ADD46C,2.700000*%
G04 #@! TD*
G04 #@! TA.AperFunction,ViaPad*
%ADD47C,0.800000*%
G04 #@! TD*
G04 #@! TA.AperFunction,ViaPad*
%ADD48C,0.600000*%
G04 #@! TD*
G04 #@! TA.AperFunction,Conductor*
%ADD49C,0.250000*%
G04 #@! TD*
G04 #@! TA.AperFunction,Conductor*
%ADD50C,0.350000*%
G04 #@! TD*
G04 #@! TA.AperFunction,Conductor*
%ADD51C,0.400000*%
G04 #@! TD*
G04 #@! TA.AperFunction,Conductor*
%ADD52C,2.000000*%
G04 #@! TD*
G04 #@! TA.AperFunction,Conductor*
%ADD53C,0.500000*%
G04 #@! TD*
G04 #@! TA.AperFunction,Conductor*
%ADD54C,1.000000*%
G04 #@! TD*
G04 #@! TA.AperFunction,Conductor*
%ADD55C,0.254000*%
G04 #@! TD*
G04 APERTURE END LIST*
D10*
G04 #@! TO.P,SW1,3*
G04 #@! TO.N,N/C*
X146250000Y-156050000D03*
G04 #@! TO.P,SW1,2*
G04 #@! TO.N,Net-(D4-Pad1)*
X148550000Y-154300000D03*
G04 #@! TO.P,SW1,1*
G04 #@! TO.N,+5V*
X146250000Y-152550000D03*
G04 #@! TD*
D11*
G04 #@! TO.P,L2,1*
G04 #@! TO.N,Net-(L2-Pad1)*
X148835568Y-127729229D03*
G04 #@! TO.P,L2,2*
G04 #@! TO.N,Net-(L2-Pad2)*
X148835568Y-132629229D03*
G04 #@! TD*
D12*
G04 #@! TO.N,Net-(L2-Pad2)*
G04 #@! TO.C,U7*
G36*
X143718929Y-130512565D02*
X143725724Y-130513573D01*
X143732388Y-130515242D01*
X143738856Y-130517556D01*
X143745066Y-130520494D01*
X143750958Y-130524025D01*
X143756476Y-130528117D01*
X143761565Y-130532731D01*
X143766179Y-130537820D01*
X143770271Y-130543338D01*
X143773802Y-130549230D01*
X143776740Y-130555440D01*
X143779054Y-130561908D01*
X143780723Y-130568572D01*
X143781731Y-130575367D01*
X143782068Y-130582228D01*
X143782068Y-130792228D01*
X143781731Y-130799089D01*
X143780723Y-130805884D01*
X143779054Y-130812548D01*
X143776740Y-130819016D01*
X143773802Y-130825226D01*
X143770271Y-130831118D01*
X143766179Y-130836636D01*
X143761565Y-130841725D01*
X143756476Y-130846339D01*
X143750958Y-130850431D01*
X143745066Y-130853962D01*
X143738856Y-130856900D01*
X143732388Y-130859214D01*
X143725724Y-130860883D01*
X143718929Y-130861891D01*
X143712068Y-130862228D01*
X142402068Y-130862228D01*
X142395207Y-130861891D01*
X142388412Y-130860883D01*
X142381748Y-130859214D01*
X142375280Y-130856900D01*
X142369070Y-130853962D01*
X142363178Y-130850431D01*
X142357660Y-130846339D01*
X142352571Y-130841725D01*
X142347957Y-130836636D01*
X142343865Y-130831118D01*
X142340334Y-130825226D01*
X142337396Y-130819016D01*
X142335082Y-130812548D01*
X142333413Y-130805884D01*
X142332405Y-130799089D01*
X142332068Y-130792228D01*
X142332068Y-130582228D01*
X142332405Y-130575367D01*
X142333413Y-130568572D01*
X142335082Y-130561908D01*
X142337396Y-130555440D01*
X142340334Y-130549230D01*
X142343865Y-130543338D01*
X142347957Y-130537820D01*
X142352571Y-130532731D01*
X142357660Y-130528117D01*
X142363178Y-130524025D01*
X142369070Y-130520494D01*
X142375280Y-130517556D01*
X142381748Y-130515242D01*
X142388412Y-130513573D01*
X142395207Y-130512565D01*
X142402068Y-130512228D01*
X143712068Y-130512228D01*
X143718929Y-130512565D01*
X143718929Y-130512565D01*
G37*
D13*
X143057068Y-130687228D03*
D12*
G04 #@! TO.N,VCC*
G36*
X143187240Y-128437467D02*
X143192065Y-128438183D01*
X143196796Y-128439368D01*
X143201388Y-128441011D01*
X143205797Y-128443096D01*
X143209980Y-128445604D01*
X143213898Y-128448509D01*
X143217511Y-128451785D01*
X143220787Y-128455398D01*
X143223692Y-128459316D01*
X143226200Y-128463499D01*
X143228285Y-128467908D01*
X143229928Y-128472500D01*
X143231113Y-128477231D01*
X143231829Y-128482056D01*
X143232068Y-128486927D01*
X143232068Y-129087529D01*
X143231829Y-129092400D01*
X143231113Y-129097225D01*
X143229928Y-129101956D01*
X143228285Y-129106548D01*
X143226200Y-129110957D01*
X143223692Y-129115140D01*
X143220787Y-129119058D01*
X143217511Y-129122671D01*
X143213898Y-129125947D01*
X143209980Y-129128852D01*
X143205797Y-129131360D01*
X143201388Y-129133445D01*
X143196796Y-129135088D01*
X143192065Y-129136273D01*
X143187240Y-129136989D01*
X143182369Y-129137228D01*
X142431767Y-129137228D01*
X142426896Y-129136989D01*
X142422071Y-129136273D01*
X142417340Y-129135088D01*
X142412748Y-129133445D01*
X142408339Y-129131360D01*
X142404156Y-129128852D01*
X142400238Y-129125947D01*
X142396625Y-129122671D01*
X142393349Y-129119058D01*
X142390444Y-129115140D01*
X142387936Y-129110957D01*
X142385851Y-129106548D01*
X142384208Y-129101956D01*
X142383023Y-129097225D01*
X142382307Y-129092400D01*
X142382068Y-129087529D01*
X142382068Y-128486927D01*
X142382307Y-128482056D01*
X142383023Y-128477231D01*
X142384208Y-128472500D01*
X142385851Y-128467908D01*
X142387936Y-128463499D01*
X142390444Y-128459316D01*
X142393349Y-128455398D01*
X142396625Y-128451785D01*
X142400238Y-128448509D01*
X142404156Y-128445604D01*
X142408339Y-128443096D01*
X142412748Y-128441011D01*
X142417340Y-128439368D01*
X142422071Y-128438183D01*
X142426896Y-128437467D01*
X142431767Y-128437228D01*
X143182369Y-128437228D01*
X143187240Y-128437467D01*
X143187240Y-128437467D01*
G37*
D14*
X142807068Y-128787228D03*
D12*
G04 #@! TO.N,+5V*
G36*
X143187240Y-131237467D02*
X143192065Y-131238183D01*
X143196796Y-131239368D01*
X143201388Y-131241011D01*
X143205797Y-131243096D01*
X143209980Y-131245604D01*
X143213898Y-131248509D01*
X143217511Y-131251785D01*
X143220787Y-131255398D01*
X143223692Y-131259316D01*
X143226200Y-131263499D01*
X143228285Y-131267908D01*
X143229928Y-131272500D01*
X143231113Y-131277231D01*
X143231829Y-131282056D01*
X143232068Y-131286927D01*
X143232068Y-131887529D01*
X143231829Y-131892400D01*
X143231113Y-131897225D01*
X143229928Y-131901956D01*
X143228285Y-131906548D01*
X143226200Y-131910957D01*
X143223692Y-131915140D01*
X143220787Y-131919058D01*
X143217511Y-131922671D01*
X143213898Y-131925947D01*
X143209980Y-131928852D01*
X143205797Y-131931360D01*
X143201388Y-131933445D01*
X143196796Y-131935088D01*
X143192065Y-131936273D01*
X143187240Y-131936989D01*
X143182369Y-131937228D01*
X142431767Y-131937228D01*
X142426896Y-131936989D01*
X142422071Y-131936273D01*
X142417340Y-131935088D01*
X142412748Y-131933445D01*
X142408339Y-131931360D01*
X142404156Y-131928852D01*
X142400238Y-131925947D01*
X142396625Y-131922671D01*
X142393349Y-131919058D01*
X142390444Y-131915140D01*
X142387936Y-131910957D01*
X142385851Y-131906548D01*
X142384208Y-131901956D01*
X142383023Y-131897225D01*
X142382307Y-131892400D01*
X142382068Y-131887529D01*
X142382068Y-131286927D01*
X142382307Y-131282056D01*
X142383023Y-131277231D01*
X142384208Y-131272500D01*
X142385851Y-131267908D01*
X142387936Y-131263499D01*
X142390444Y-131259316D01*
X142393349Y-131255398D01*
X142396625Y-131251785D01*
X142400238Y-131248509D01*
X142404156Y-131245604D01*
X142408339Y-131243096D01*
X142412748Y-131241011D01*
X142417340Y-131239368D01*
X142422071Y-131238183D01*
X142426896Y-131237467D01*
X142431767Y-131237228D01*
X143182369Y-131237228D01*
X143187240Y-131237467D01*
X143187240Y-131237467D01*
G37*
D14*
X142807068Y-131587228D03*
D12*
G04 #@! TO.N,/Always_On/Ground*
G36*
X141636969Y-128487469D02*
X141641823Y-128488189D01*
X141646582Y-128489381D01*
X141651202Y-128491034D01*
X141655638Y-128493132D01*
X141659847Y-128495655D01*
X141663788Y-128498577D01*
X141667423Y-128501873D01*
X141670719Y-128505508D01*
X141673641Y-128509449D01*
X141676164Y-128513658D01*
X141678262Y-128518094D01*
X141679915Y-128522714D01*
X141681107Y-128527473D01*
X141681827Y-128532327D01*
X141682068Y-128537228D01*
X141682068Y-129037228D01*
X141681827Y-129042129D01*
X141681107Y-129046983D01*
X141679915Y-129051742D01*
X141678262Y-129056362D01*
X141676164Y-129060798D01*
X141673641Y-129065007D01*
X141670719Y-129068948D01*
X141667423Y-129072583D01*
X141663788Y-129075879D01*
X141659847Y-129078801D01*
X141655638Y-129081324D01*
X141651202Y-129083422D01*
X141646582Y-129085075D01*
X141641823Y-129086267D01*
X141636969Y-129086987D01*
X141632068Y-129087228D01*
X141482068Y-129087228D01*
X141477167Y-129086987D01*
X141472313Y-129086267D01*
X141467554Y-129085075D01*
X141462934Y-129083422D01*
X141458498Y-129081324D01*
X141454289Y-129078801D01*
X141450348Y-129075879D01*
X141446713Y-129072583D01*
X141443417Y-129068948D01*
X141440495Y-129065007D01*
X141437972Y-129060798D01*
X141435874Y-129056362D01*
X141434221Y-129051742D01*
X141433029Y-129046983D01*
X141432309Y-129042129D01*
X141432068Y-129037228D01*
X141432068Y-128537228D01*
X141432309Y-128532327D01*
X141433029Y-128527473D01*
X141434221Y-128522714D01*
X141435874Y-128518094D01*
X141437972Y-128513658D01*
X141440495Y-128509449D01*
X141443417Y-128505508D01*
X141446713Y-128501873D01*
X141450348Y-128498577D01*
X141454289Y-128495655D01*
X141458498Y-128493132D01*
X141462934Y-128491034D01*
X141467554Y-128489381D01*
X141472313Y-128488189D01*
X141477167Y-128487469D01*
X141482068Y-128487228D01*
X141632068Y-128487228D01*
X141636969Y-128487469D01*
X141636969Y-128487469D01*
G37*
D15*
G04 #@! TD*
G04 #@! TO.P,U7,15*
G04 #@! TO.N,/Always_On/Ground*
X141557068Y-128787228D03*
D12*
G04 #@! TO.N,Net-(R18-Pad2)*
G04 #@! TO.C,U7*
G36*
X142136969Y-128487469D02*
X142141823Y-128488189D01*
X142146582Y-128489381D01*
X142151202Y-128491034D01*
X142155638Y-128493132D01*
X142159847Y-128495655D01*
X142163788Y-128498577D01*
X142167423Y-128501873D01*
X142170719Y-128505508D01*
X142173641Y-128509449D01*
X142176164Y-128513658D01*
X142178262Y-128518094D01*
X142179915Y-128522714D01*
X142181107Y-128527473D01*
X142181827Y-128532327D01*
X142182068Y-128537228D01*
X142182068Y-129037228D01*
X142181827Y-129042129D01*
X142181107Y-129046983D01*
X142179915Y-129051742D01*
X142178262Y-129056362D01*
X142176164Y-129060798D01*
X142173641Y-129065007D01*
X142170719Y-129068948D01*
X142167423Y-129072583D01*
X142163788Y-129075879D01*
X142159847Y-129078801D01*
X142155638Y-129081324D01*
X142151202Y-129083422D01*
X142146582Y-129085075D01*
X142141823Y-129086267D01*
X142136969Y-129086987D01*
X142132068Y-129087228D01*
X141982068Y-129087228D01*
X141977167Y-129086987D01*
X141972313Y-129086267D01*
X141967554Y-129085075D01*
X141962934Y-129083422D01*
X141958498Y-129081324D01*
X141954289Y-129078801D01*
X141950348Y-129075879D01*
X141946713Y-129072583D01*
X141943417Y-129068948D01*
X141940495Y-129065007D01*
X141937972Y-129060798D01*
X141935874Y-129056362D01*
X141934221Y-129051742D01*
X141933029Y-129046983D01*
X141932309Y-129042129D01*
X141932068Y-129037228D01*
X141932068Y-128537228D01*
X141932309Y-128532327D01*
X141933029Y-128527473D01*
X141934221Y-128522714D01*
X141935874Y-128518094D01*
X141937972Y-128513658D01*
X141940495Y-128509449D01*
X141943417Y-128505508D01*
X141946713Y-128501873D01*
X141950348Y-128498577D01*
X141954289Y-128495655D01*
X141958498Y-128493132D01*
X141962934Y-128491034D01*
X141967554Y-128489381D01*
X141972313Y-128488189D01*
X141977167Y-128487469D01*
X141982068Y-128487228D01*
X142132068Y-128487228D01*
X142136969Y-128487469D01*
X142136969Y-128487469D01*
G37*
D15*
G04 #@! TD*
G04 #@! TO.P,U7,14*
G04 #@! TO.N,Net-(R18-Pad2)*
X142057068Y-128787228D03*
D12*
G04 #@! TO.N,Net-(L2-Pad1)*
G04 #@! TO.C,U7*
G36*
X143718929Y-129512565D02*
X143725724Y-129513573D01*
X143732388Y-129515242D01*
X143738856Y-129517556D01*
X143745066Y-129520494D01*
X143750958Y-129524025D01*
X143756476Y-129528117D01*
X143761565Y-129532731D01*
X143766179Y-129537820D01*
X143770271Y-129543338D01*
X143773802Y-129549230D01*
X143776740Y-129555440D01*
X143779054Y-129561908D01*
X143780723Y-129568572D01*
X143781731Y-129575367D01*
X143782068Y-129582228D01*
X143782068Y-129792228D01*
X143781731Y-129799089D01*
X143780723Y-129805884D01*
X143779054Y-129812548D01*
X143776740Y-129819016D01*
X143773802Y-129825226D01*
X143770271Y-129831118D01*
X143766179Y-129836636D01*
X143761565Y-129841725D01*
X143756476Y-129846339D01*
X143750958Y-129850431D01*
X143745066Y-129853962D01*
X143738856Y-129856900D01*
X143732388Y-129859214D01*
X143725724Y-129860883D01*
X143718929Y-129861891D01*
X143712068Y-129862228D01*
X142402068Y-129862228D01*
X142395207Y-129861891D01*
X142388412Y-129860883D01*
X142381748Y-129859214D01*
X142375280Y-129856900D01*
X142369070Y-129853962D01*
X142363178Y-129850431D01*
X142357660Y-129846339D01*
X142352571Y-129841725D01*
X142347957Y-129836636D01*
X142343865Y-129831118D01*
X142340334Y-129825226D01*
X142337396Y-129819016D01*
X142335082Y-129812548D01*
X142333413Y-129805884D01*
X142332405Y-129799089D01*
X142332068Y-129792228D01*
X142332068Y-129582228D01*
X142332405Y-129575367D01*
X142333413Y-129568572D01*
X142335082Y-129561908D01*
X142337396Y-129555440D01*
X142340334Y-129549230D01*
X142343865Y-129543338D01*
X142347957Y-129537820D01*
X142352571Y-129532731D01*
X142357660Y-129528117D01*
X142363178Y-129524025D01*
X142369070Y-129520494D01*
X142375280Y-129517556D01*
X142381748Y-129515242D01*
X142388412Y-129513573D01*
X142395207Y-129512565D01*
X142402068Y-129512228D01*
X143712068Y-129512228D01*
X143718929Y-129512565D01*
X143718929Y-129512565D01*
G37*
D13*
X143057068Y-129687228D03*
D12*
G04 #@! TO.N,/Always_On/Ground*
G36*
X143718929Y-130012565D02*
X143725724Y-130013573D01*
X143732388Y-130015242D01*
X143738856Y-130017556D01*
X143745066Y-130020494D01*
X143750958Y-130024025D01*
X143756476Y-130028117D01*
X143761565Y-130032731D01*
X143766179Y-130037820D01*
X143770271Y-130043338D01*
X143773802Y-130049230D01*
X143776740Y-130055440D01*
X143779054Y-130061908D01*
X143780723Y-130068572D01*
X143781731Y-130075367D01*
X143782068Y-130082228D01*
X143782068Y-130292228D01*
X143781731Y-130299089D01*
X143780723Y-130305884D01*
X143779054Y-130312548D01*
X143776740Y-130319016D01*
X143773802Y-130325226D01*
X143770271Y-130331118D01*
X143766179Y-130336636D01*
X143761565Y-130341725D01*
X143756476Y-130346339D01*
X143750958Y-130350431D01*
X143745066Y-130353962D01*
X143738856Y-130356900D01*
X143732388Y-130359214D01*
X143725724Y-130360883D01*
X143718929Y-130361891D01*
X143712068Y-130362228D01*
X142052068Y-130362228D01*
X142045207Y-130361891D01*
X142038412Y-130360883D01*
X142031748Y-130359214D01*
X142025280Y-130356900D01*
X142019070Y-130353962D01*
X142013178Y-130350431D01*
X142007660Y-130346339D01*
X142002571Y-130341725D01*
X141997957Y-130336636D01*
X141993865Y-130331118D01*
X141990334Y-130325226D01*
X141987396Y-130319016D01*
X141985082Y-130312548D01*
X141983413Y-130305884D01*
X141982405Y-130299089D01*
X141982068Y-130292228D01*
X141982068Y-130082228D01*
X141982405Y-130075367D01*
X141983413Y-130068572D01*
X141985082Y-130061908D01*
X141987396Y-130055440D01*
X141990334Y-130049230D01*
X141993865Y-130043338D01*
X141997957Y-130037820D01*
X142002571Y-130032731D01*
X142007660Y-130028117D01*
X142013178Y-130024025D01*
X142019070Y-130020494D01*
X142025280Y-130017556D01*
X142031748Y-130015242D01*
X142038412Y-130013573D01*
X142045207Y-130012565D01*
X142052068Y-130012228D01*
X143712068Y-130012228D01*
X143718929Y-130012565D01*
X143718929Y-130012565D01*
G37*
D13*
X142882068Y-130187228D03*
D12*
G36*
X142136969Y-131287469D02*
X142141823Y-131288189D01*
X142146582Y-131289381D01*
X142151202Y-131291034D01*
X142155638Y-131293132D01*
X142159847Y-131295655D01*
X142163788Y-131298577D01*
X142167423Y-131301873D01*
X142170719Y-131305508D01*
X142173641Y-131309449D01*
X142176164Y-131313658D01*
X142178262Y-131318094D01*
X142179915Y-131322714D01*
X142181107Y-131327473D01*
X142181827Y-131332327D01*
X142182068Y-131337228D01*
X142182068Y-131837228D01*
X142181827Y-131842129D01*
X142181107Y-131846983D01*
X142179915Y-131851742D01*
X142178262Y-131856362D01*
X142176164Y-131860798D01*
X142173641Y-131865007D01*
X142170719Y-131868948D01*
X142167423Y-131872583D01*
X142163788Y-131875879D01*
X142159847Y-131878801D01*
X142155638Y-131881324D01*
X142151202Y-131883422D01*
X142146582Y-131885075D01*
X142141823Y-131886267D01*
X142136969Y-131886987D01*
X142132068Y-131887228D01*
X141982068Y-131887228D01*
X141977167Y-131886987D01*
X141972313Y-131886267D01*
X141967554Y-131885075D01*
X141962934Y-131883422D01*
X141958498Y-131881324D01*
X141954289Y-131878801D01*
X141950348Y-131875879D01*
X141946713Y-131872583D01*
X141943417Y-131868948D01*
X141940495Y-131865007D01*
X141937972Y-131860798D01*
X141935874Y-131856362D01*
X141934221Y-131851742D01*
X141933029Y-131846983D01*
X141932309Y-131842129D01*
X141932068Y-131837228D01*
X141932068Y-131337228D01*
X141932309Y-131332327D01*
X141933029Y-131327473D01*
X141934221Y-131322714D01*
X141935874Y-131318094D01*
X141937972Y-131313658D01*
X141940495Y-131309449D01*
X141943417Y-131305508D01*
X141946713Y-131301873D01*
X141950348Y-131298577D01*
X141954289Y-131295655D01*
X141958498Y-131293132D01*
X141962934Y-131291034D01*
X141967554Y-131289381D01*
X141972313Y-131288189D01*
X141977167Y-131287469D01*
X141982068Y-131287228D01*
X142132068Y-131287228D01*
X142136969Y-131287469D01*
X142136969Y-131287469D01*
G37*
D15*
G04 #@! TD*
G04 #@! TO.P,U7,6*
G04 #@! TO.N,/Always_On/Ground*
X142057068Y-131587228D03*
D12*
G04 #@! TO.N,+5V*
G04 #@! TO.C,U7*
G36*
X141636969Y-131287469D02*
X141641823Y-131288189D01*
X141646582Y-131289381D01*
X141651202Y-131291034D01*
X141655638Y-131293132D01*
X141659847Y-131295655D01*
X141663788Y-131298577D01*
X141667423Y-131301873D01*
X141670719Y-131305508D01*
X141673641Y-131309449D01*
X141676164Y-131313658D01*
X141678262Y-131318094D01*
X141679915Y-131322714D01*
X141681107Y-131327473D01*
X141681827Y-131332327D01*
X141682068Y-131337228D01*
X141682068Y-131837228D01*
X141681827Y-131842129D01*
X141681107Y-131846983D01*
X141679915Y-131851742D01*
X141678262Y-131856362D01*
X141676164Y-131860798D01*
X141673641Y-131865007D01*
X141670719Y-131868948D01*
X141667423Y-131872583D01*
X141663788Y-131875879D01*
X141659847Y-131878801D01*
X141655638Y-131881324D01*
X141651202Y-131883422D01*
X141646582Y-131885075D01*
X141641823Y-131886267D01*
X141636969Y-131886987D01*
X141632068Y-131887228D01*
X141482068Y-131887228D01*
X141477167Y-131886987D01*
X141472313Y-131886267D01*
X141467554Y-131885075D01*
X141462934Y-131883422D01*
X141458498Y-131881324D01*
X141454289Y-131878801D01*
X141450348Y-131875879D01*
X141446713Y-131872583D01*
X141443417Y-131868948D01*
X141440495Y-131865007D01*
X141437972Y-131860798D01*
X141435874Y-131856362D01*
X141434221Y-131851742D01*
X141433029Y-131846983D01*
X141432309Y-131842129D01*
X141432068Y-131837228D01*
X141432068Y-131337228D01*
X141432309Y-131332327D01*
X141433029Y-131327473D01*
X141434221Y-131322714D01*
X141435874Y-131318094D01*
X141437972Y-131313658D01*
X141440495Y-131309449D01*
X141443417Y-131305508D01*
X141446713Y-131301873D01*
X141450348Y-131298577D01*
X141454289Y-131295655D01*
X141458498Y-131293132D01*
X141462934Y-131291034D01*
X141467554Y-131289381D01*
X141472313Y-131288189D01*
X141477167Y-131287469D01*
X141482068Y-131287228D01*
X141632068Y-131287228D01*
X141636969Y-131287469D01*
X141636969Y-131287469D01*
G37*
D15*
G04 #@! TD*
G04 #@! TO.P,U7,5*
G04 #@! TO.N,+5V*
X141557068Y-131587228D03*
D12*
G04 #@! TO.N,/Always_On/Ground*
G04 #@! TO.C,U7*
G36*
X141386969Y-130812469D02*
X141391823Y-130813189D01*
X141396582Y-130814381D01*
X141401202Y-130816034D01*
X141405638Y-130818132D01*
X141409847Y-130820655D01*
X141413788Y-130823577D01*
X141417423Y-130826873D01*
X141420719Y-130830508D01*
X141423641Y-130834449D01*
X141426164Y-130838658D01*
X141428262Y-130843094D01*
X141429915Y-130847714D01*
X141431107Y-130852473D01*
X141431827Y-130857327D01*
X141432068Y-130862228D01*
X141432068Y-131012228D01*
X141431827Y-131017129D01*
X141431107Y-131021983D01*
X141429915Y-131026742D01*
X141428262Y-131031362D01*
X141426164Y-131035798D01*
X141423641Y-131040007D01*
X141420719Y-131043948D01*
X141417423Y-131047583D01*
X141413788Y-131050879D01*
X141409847Y-131053801D01*
X141405638Y-131056324D01*
X141401202Y-131058422D01*
X141396582Y-131060075D01*
X141391823Y-131061267D01*
X141386969Y-131061987D01*
X141382068Y-131062228D01*
X140882068Y-131062228D01*
X140877167Y-131061987D01*
X140872313Y-131061267D01*
X140867554Y-131060075D01*
X140862934Y-131058422D01*
X140858498Y-131056324D01*
X140854289Y-131053801D01*
X140850348Y-131050879D01*
X140846713Y-131047583D01*
X140843417Y-131043948D01*
X140840495Y-131040007D01*
X140837972Y-131035798D01*
X140835874Y-131031362D01*
X140834221Y-131026742D01*
X140833029Y-131021983D01*
X140832309Y-131017129D01*
X140832068Y-131012228D01*
X140832068Y-130862228D01*
X140832309Y-130857327D01*
X140833029Y-130852473D01*
X140834221Y-130847714D01*
X140835874Y-130843094D01*
X140837972Y-130838658D01*
X140840495Y-130834449D01*
X140843417Y-130830508D01*
X140846713Y-130826873D01*
X140850348Y-130823577D01*
X140854289Y-130820655D01*
X140858498Y-130818132D01*
X140862934Y-130816034D01*
X140867554Y-130814381D01*
X140872313Y-130813189D01*
X140877167Y-130812469D01*
X140882068Y-130812228D01*
X141382068Y-130812228D01*
X141386969Y-130812469D01*
X141386969Y-130812469D01*
G37*
D15*
G04 #@! TD*
G04 #@! TO.P,U7,4*
G04 #@! TO.N,/Always_On/Ground*
X141132068Y-130937228D03*
D12*
G04 #@! TO.N,Net-(C16-Pad1)*
G04 #@! TO.C,U7*
G36*
X141386969Y-130312469D02*
X141391823Y-130313189D01*
X141396582Y-130314381D01*
X141401202Y-130316034D01*
X141405638Y-130318132D01*
X141409847Y-130320655D01*
X141413788Y-130323577D01*
X141417423Y-130326873D01*
X141420719Y-130330508D01*
X141423641Y-130334449D01*
X141426164Y-130338658D01*
X141428262Y-130343094D01*
X141429915Y-130347714D01*
X141431107Y-130352473D01*
X141431827Y-130357327D01*
X141432068Y-130362228D01*
X141432068Y-130512228D01*
X141431827Y-130517129D01*
X141431107Y-130521983D01*
X141429915Y-130526742D01*
X141428262Y-130531362D01*
X141426164Y-130535798D01*
X141423641Y-130540007D01*
X141420719Y-130543948D01*
X141417423Y-130547583D01*
X141413788Y-130550879D01*
X141409847Y-130553801D01*
X141405638Y-130556324D01*
X141401202Y-130558422D01*
X141396582Y-130560075D01*
X141391823Y-130561267D01*
X141386969Y-130561987D01*
X141382068Y-130562228D01*
X140882068Y-130562228D01*
X140877167Y-130561987D01*
X140872313Y-130561267D01*
X140867554Y-130560075D01*
X140862934Y-130558422D01*
X140858498Y-130556324D01*
X140854289Y-130553801D01*
X140850348Y-130550879D01*
X140846713Y-130547583D01*
X140843417Y-130543948D01*
X140840495Y-130540007D01*
X140837972Y-130535798D01*
X140835874Y-130531362D01*
X140834221Y-130526742D01*
X140833029Y-130521983D01*
X140832309Y-130517129D01*
X140832068Y-130512228D01*
X140832068Y-130362228D01*
X140832309Y-130357327D01*
X140833029Y-130352473D01*
X140834221Y-130347714D01*
X140835874Y-130343094D01*
X140837972Y-130338658D01*
X140840495Y-130334449D01*
X140843417Y-130330508D01*
X140846713Y-130326873D01*
X140850348Y-130323577D01*
X140854289Y-130320655D01*
X140858498Y-130318132D01*
X140862934Y-130316034D01*
X140867554Y-130314381D01*
X140872313Y-130313189D01*
X140877167Y-130312469D01*
X140882068Y-130312228D01*
X141382068Y-130312228D01*
X141386969Y-130312469D01*
X141386969Y-130312469D01*
G37*
D15*
G04 #@! TD*
G04 #@! TO.P,U7,3*
G04 #@! TO.N,Net-(C16-Pad1)*
X141132068Y-130437228D03*
D12*
G04 #@! TO.N,Net-(R17-Pad2)*
G04 #@! TO.C,U7*
G36*
X141386969Y-129812469D02*
X141391823Y-129813189D01*
X141396582Y-129814381D01*
X141401202Y-129816034D01*
X141405638Y-129818132D01*
X141409847Y-129820655D01*
X141413788Y-129823577D01*
X141417423Y-129826873D01*
X141420719Y-129830508D01*
X141423641Y-129834449D01*
X141426164Y-129838658D01*
X141428262Y-129843094D01*
X141429915Y-129847714D01*
X141431107Y-129852473D01*
X141431827Y-129857327D01*
X141432068Y-129862228D01*
X141432068Y-130012228D01*
X141431827Y-130017129D01*
X141431107Y-130021983D01*
X141429915Y-130026742D01*
X141428262Y-130031362D01*
X141426164Y-130035798D01*
X141423641Y-130040007D01*
X141420719Y-130043948D01*
X141417423Y-130047583D01*
X141413788Y-130050879D01*
X141409847Y-130053801D01*
X141405638Y-130056324D01*
X141401202Y-130058422D01*
X141396582Y-130060075D01*
X141391823Y-130061267D01*
X141386969Y-130061987D01*
X141382068Y-130062228D01*
X140882068Y-130062228D01*
X140877167Y-130061987D01*
X140872313Y-130061267D01*
X140867554Y-130060075D01*
X140862934Y-130058422D01*
X140858498Y-130056324D01*
X140854289Y-130053801D01*
X140850348Y-130050879D01*
X140846713Y-130047583D01*
X140843417Y-130043948D01*
X140840495Y-130040007D01*
X140837972Y-130035798D01*
X140835874Y-130031362D01*
X140834221Y-130026742D01*
X140833029Y-130021983D01*
X140832309Y-130017129D01*
X140832068Y-130012228D01*
X140832068Y-129862228D01*
X140832309Y-129857327D01*
X140833029Y-129852473D01*
X140834221Y-129847714D01*
X140835874Y-129843094D01*
X140837972Y-129838658D01*
X140840495Y-129834449D01*
X140843417Y-129830508D01*
X140846713Y-129826873D01*
X140850348Y-129823577D01*
X140854289Y-129820655D01*
X140858498Y-129818132D01*
X140862934Y-129816034D01*
X140867554Y-129814381D01*
X140872313Y-129813189D01*
X140877167Y-129812469D01*
X140882068Y-129812228D01*
X141382068Y-129812228D01*
X141386969Y-129812469D01*
X141386969Y-129812469D01*
G37*
D15*
G04 #@! TD*
G04 #@! TO.P,U7,2*
G04 #@! TO.N,Net-(R17-Pad2)*
X141132068Y-129937228D03*
D12*
G04 #@! TO.N,Net-(R18-Pad2)*
G04 #@! TO.C,U7*
G36*
X141386969Y-129312469D02*
X141391823Y-129313189D01*
X141396582Y-129314381D01*
X141401202Y-129316034D01*
X141405638Y-129318132D01*
X141409847Y-129320655D01*
X141413788Y-129323577D01*
X141417423Y-129326873D01*
X141420719Y-129330508D01*
X141423641Y-129334449D01*
X141426164Y-129338658D01*
X141428262Y-129343094D01*
X141429915Y-129347714D01*
X141431107Y-129352473D01*
X141431827Y-129357327D01*
X141432068Y-129362228D01*
X141432068Y-129512228D01*
X141431827Y-129517129D01*
X141431107Y-129521983D01*
X141429915Y-129526742D01*
X141428262Y-129531362D01*
X141426164Y-129535798D01*
X141423641Y-129540007D01*
X141420719Y-129543948D01*
X141417423Y-129547583D01*
X141413788Y-129550879D01*
X141409847Y-129553801D01*
X141405638Y-129556324D01*
X141401202Y-129558422D01*
X141396582Y-129560075D01*
X141391823Y-129561267D01*
X141386969Y-129561987D01*
X141382068Y-129562228D01*
X140882068Y-129562228D01*
X140877167Y-129561987D01*
X140872313Y-129561267D01*
X140867554Y-129560075D01*
X140862934Y-129558422D01*
X140858498Y-129556324D01*
X140854289Y-129553801D01*
X140850348Y-129550879D01*
X140846713Y-129547583D01*
X140843417Y-129543948D01*
X140840495Y-129540007D01*
X140837972Y-129535798D01*
X140835874Y-129531362D01*
X140834221Y-129526742D01*
X140833029Y-129521983D01*
X140832309Y-129517129D01*
X140832068Y-129512228D01*
X140832068Y-129362228D01*
X140832309Y-129357327D01*
X140833029Y-129352473D01*
X140834221Y-129347714D01*
X140835874Y-129343094D01*
X140837972Y-129338658D01*
X140840495Y-129334449D01*
X140843417Y-129330508D01*
X140846713Y-129326873D01*
X140850348Y-129323577D01*
X140854289Y-129320655D01*
X140858498Y-129318132D01*
X140862934Y-129316034D01*
X140867554Y-129314381D01*
X140872313Y-129313189D01*
X140877167Y-129312469D01*
X140882068Y-129312228D01*
X141382068Y-129312228D01*
X141386969Y-129312469D01*
X141386969Y-129312469D01*
G37*
D15*
G04 #@! TD*
G04 #@! TO.P,U7,1*
G04 #@! TO.N,Net-(R18-Pad2)*
X141132068Y-129437228D03*
D16*
G04 #@! TO.P,BT2,2*
G04 #@! TO.N,/Always_On/Ground*
X130900000Y-163870000D03*
D17*
G04 #@! TO.P,BT2,1*
G04 #@! TO.N,Net-(BT2-Pad1)*
X130900000Y-148070000D03*
G04 #@! TD*
D18*
G04 #@! TO.P,Y2,4*
G04 #@! TO.N,Net-(U6-Pad2)*
X121050000Y-157370000D03*
G04 #@! TO.P,Y2,3*
G04 #@! TO.N,Net-(Y2-Pad3)*
X121050000Y-163000000D03*
G04 #@! TO.P,Y2,2*
G04 #@! TO.N,Net-(Y2-Pad2)*
X116900000Y-163000000D03*
G04 #@! TO.P,Y2,1*
G04 #@! TO.N,Net-(U6-Pad1)*
X116900000Y-157370000D03*
G04 #@! TD*
D19*
G04 #@! TO.P,R16,2*
G04 #@! TO.N,Net-(C12-Pad1)*
X113950000Y-150849999D03*
G04 #@! TO.P,R16,1*
G04 #@! TO.N,+5V*
X113950000Y-153049999D03*
G04 #@! TD*
D20*
G04 #@! TO.P,C1,2*
G04 #@! TO.N,/Always_On/Ground*
X122200000Y-143200000D03*
G04 #@! TO.P,C1,1*
G04 #@! TO.N,Net-(C1-Pad1)*
X122200000Y-140700000D03*
G04 #@! TD*
D21*
G04 #@! TO.P,C11,2*
G04 #@! TO.N,/Always_On/Ground*
X150700000Y-116400000D03*
D22*
G04 #@! TO.P,C11,1*
G04 #@! TO.N,VCC*
X150700000Y-121400000D03*
G04 #@! TD*
D23*
G04 #@! TO.P,C13,2*
G04 #@! TO.N,/Always_On/Ground*
X144477568Y-137103228D03*
G04 #@! TO.P,C13,1*
G04 #@! TO.N,+5V*
X141977568Y-137103228D03*
G04 #@! TD*
G04 #@! TO.P,C14,2*
G04 #@! TO.N,/Always_On/Ground*
X144477569Y-135134728D03*
G04 #@! TO.P,C14,1*
G04 #@! TO.N,+5V*
X141977569Y-135134728D03*
G04 #@! TD*
G04 #@! TO.P,C15,2*
G04 #@! TO.N,/Always_On/Ground*
X144477569Y-139071728D03*
G04 #@! TO.P,C15,1*
G04 #@! TO.N,+5V*
X141977569Y-139071728D03*
G04 #@! TD*
D20*
G04 #@! TO.P,C16,2*
G04 #@! TO.N,/Always_On/Ground*
X138800000Y-134500000D03*
G04 #@! TO.P,C16,1*
G04 #@! TO.N,Net-(C16-Pad1)*
X138800000Y-132000000D03*
G04 #@! TD*
D24*
G04 #@! TO.P,C17,2*
G04 #@! TO.N,/Always_On/Ground*
X144644568Y-131197728D03*
G04 #@! TO.P,C17,1*
G04 #@! TO.N,+5V*
X144644568Y-133097728D03*
G04 #@! TD*
G04 #@! TO.P,C18,2*
G04 #@! TO.N,/Always_On/Ground*
X144644569Y-129160728D03*
G04 #@! TO.P,C18,1*
G04 #@! TO.N,VCC*
X144644569Y-127260728D03*
G04 #@! TD*
D23*
G04 #@! TO.P,C19,2*
G04 #@! TO.N,/Always_On/Ground*
X144414068Y-125228729D03*
G04 #@! TO.P,C19,1*
G04 #@! TO.N,VCC*
X141914068Y-125228729D03*
G04 #@! TD*
G04 #@! TO.P,C20,2*
G04 #@! TO.N,/Always_On/Ground*
X144300000Y-123200000D03*
G04 #@! TO.P,C20,1*
G04 #@! TO.N,VCC*
X141800000Y-123200000D03*
G04 #@! TD*
D25*
G04 #@! TO.P,D1,2*
G04 #@! TO.N,/LED1*
X104300000Y-126500000D03*
G04 #@! TO.P,D1,1*
G04 #@! TO.N,Net-(D1-Pad1)*
X106500000Y-126500000D03*
G04 #@! TD*
D19*
G04 #@! TO.P,D2,2*
G04 #@! TO.N,Net-(D2-Pad2)*
X136300000Y-141400000D03*
G04 #@! TO.P,D2,1*
G04 #@! TO.N,Net-(D2-Pad1)*
X136300000Y-143600000D03*
G04 #@! TD*
D26*
G04 #@! TO.P,D3,2*
G04 #@! TO.N,Net-(D3-Pad2)*
X122100000Y-138300000D03*
G04 #@! TO.P,D3,1*
G04 #@! TO.N,VCC*
X122100000Y-135800000D03*
G04 #@! TD*
G04 #@! TO.P,D4,2*
G04 #@! TO.N,Net-(D4-Pad2)*
X140200000Y-152500000D03*
G04 #@! TO.P,D4,1*
G04 #@! TO.N,Net-(D4-Pad1)*
X142700000Y-152500000D03*
G04 #@! TD*
D27*
G04 #@! TO.P,J6,2*
G04 #@! TO.N,Net-(J6-Pad2)*
X161150000Y-109870000D03*
D28*
G04 #@! TO.P,J6,1*
G04 #@! TO.N,Net-(J6-Pad1)*
X161150000Y-114950000D03*
G04 #@! TD*
D19*
G04 #@! TO.P,R1,2*
G04 #@! TO.N,Net-(C1-Pad1)*
X120000000Y-138100000D03*
G04 #@! TO.P,R1,1*
G04 #@! TO.N,Net-(D3-Pad2)*
X120000000Y-135900000D03*
G04 #@! TD*
D25*
G04 #@! TO.P,R2,2*
G04 #@! TO.N,GND*
X104300000Y-122500000D03*
G04 #@! TO.P,R2,1*
G04 #@! TO.N,Net-(J9-Pad2)*
X106500000Y-122500000D03*
G04 #@! TD*
G04 #@! TO.P,R3,2*
G04 #@! TO.N,GND*
X104300000Y-124400000D03*
G04 #@! TO.P,R3,1*
G04 #@! TO.N,Net-(D1-Pad1)*
X106500000Y-124400000D03*
G04 #@! TD*
D19*
G04 #@! TO.P,R4,2*
G04 #@! TO.N,/Always_On/Ground*
X120100000Y-143000000D03*
G04 #@! TO.P,R4,1*
G04 #@! TO.N,Net-(C1-Pad1)*
X120100000Y-140800000D03*
G04 #@! TD*
G04 #@! TO.P,R6,2*
G04 #@! TO.N,/Always_On/Ground*
X138400000Y-140800001D03*
G04 #@! TO.P,R6,1*
G04 #@! TO.N,Net-(D2-Pad1)*
X138400000Y-143000001D03*
G04 #@! TD*
D25*
G04 #@! TO.P,R7,2*
G04 #@! TO.N,GND*
X147000000Y-108050000D03*
G04 #@! TO.P,R7,1*
G04 #@! TO.N,Net-(R7-Pad1)*
X149200000Y-108050000D03*
G04 #@! TD*
G04 #@! TO.P,R8,2*
G04 #@! TO.N,GND*
X112942500Y-110150000D03*
G04 #@! TO.P,R8,1*
G04 #@! TO.N,/THERMAL_POWER*
X115142500Y-110150000D03*
G04 #@! TD*
D19*
G04 #@! TO.P,R9,2*
G04 #@! TO.N,/Always_On/Ground*
X152000000Y-146400000D03*
G04 #@! TO.P,R9,1*
G04 #@! TO.N,Net-(D4-Pad1)*
X152000000Y-148600000D03*
G04 #@! TD*
G04 #@! TO.P,R12,2*
G04 #@! TO.N,+5V*
X142800000Y-112350000D03*
G04 #@! TO.P,R12,1*
G04 #@! TO.N,Net-(R12-Pad1)*
X142800000Y-110150000D03*
G04 #@! TD*
D25*
G04 #@! TO.P,R15,2*
G04 #@! TO.N,GND*
X146300000Y-166800000D03*
G04 #@! TO.P,R15,1*
G04 #@! TO.N,/USB_POWER*
X148500000Y-166800000D03*
G04 #@! TD*
G04 #@! TO.P,R17,2*
G04 #@! TO.N,Net-(R17-Pad2)*
X139500000Y-130000000D03*
G04 #@! TO.P,R17,1*
G04 #@! TO.N,+5V*
X137300000Y-130000000D03*
G04 #@! TD*
D19*
G04 #@! TO.P,R18,2*
G04 #@! TO.N,Net-(R18-Pad2)*
X138600000Y-127600000D03*
G04 #@! TO.P,R18,1*
G04 #@! TO.N,VCC*
X138600000Y-125400000D03*
G04 #@! TD*
D29*
G04 #@! TO.P,U2,17*
G04 #@! TO.N,N/C*
X152350000Y-109450000D03*
X152350000Y-110350000D03*
X153250000Y-109450000D03*
X153250000Y-110350000D03*
D30*
G04 #@! TO.P,U2,16*
G04 #@! TO.N,/I2S_BCLK*
X152050000Y-108425000D03*
G04 #@! TO.P,U2,15*
G04 #@! TO.N,GND*
X152550000Y-108425000D03*
G04 #@! TO.P,U2,14*
G04 #@! TO.N,/I2S_LRCLK*
X153050000Y-108425000D03*
G04 #@! TO.P,U2,13*
G04 #@! TO.N,Net-(U2-Pad13)*
X153550000Y-108425000D03*
D31*
G04 #@! TO.P,U2,12*
G04 #@! TO.N,Net-(U2-Pad12)*
X154275000Y-109150000D03*
G04 #@! TO.P,U2,11*
G04 #@! TO.N,GND*
X154275000Y-109650000D03*
G04 #@! TO.P,U2,10*
G04 #@! TO.N,Net-(J6-Pad2)*
X154275000Y-110150000D03*
G04 #@! TO.P,U2,9*
G04 #@! TO.N,Net-(J6-Pad1)*
X154275000Y-110650000D03*
D30*
G04 #@! TO.P,U2,8*
G04 #@! TO.N,+5V*
X153550000Y-111375000D03*
G04 #@! TO.P,U2,7*
X153050000Y-111375000D03*
G04 #@! TO.P,U2,6*
G04 #@! TO.N,Net-(U2-Pad6)*
X152550000Y-111375000D03*
G04 #@! TO.P,U2,5*
G04 #@! TO.N,Net-(U2-Pad5)*
X152050000Y-111375000D03*
D31*
G04 #@! TO.P,U2,4*
G04 #@! TO.N,Net-(R12-Pad1)*
X151325000Y-110650000D03*
G04 #@! TO.P,U2,3*
G04 #@! TO.N,GND*
X151325000Y-110150000D03*
G04 #@! TO.P,U2,2*
G04 #@! TO.N,Net-(R7-Pad1)*
X151325000Y-109650000D03*
G04 #@! TO.P,U2,1*
G04 #@! TO.N,/I2S_DIN*
X151325000Y-109150000D03*
G04 #@! TD*
D32*
G04 #@! TO.P,J3,3*
G04 #@! TO.N,/Always_On/Ground*
X159484000Y-124416000D03*
G04 #@! TO.P,J3,2*
X162484000Y-129116000D03*
G04 #@! TO.P,J3,1*
G04 #@! TO.N,VCC*
X156484000Y-129116000D03*
G04 #@! TD*
D33*
G04 #@! TO.P,Q3,1*
G04 #@! TO.N,Net-(D4-Pad1)*
X148650000Y-149800000D03*
G04 #@! TO.P,Q3,3*
G04 #@! TO.N,/Always_On/Ground*
X148650000Y-145200000D03*
G04 #@! TO.P,Q3,2*
G04 #@! TO.N,GND*
X148650000Y-147500000D03*
D34*
G04 #@! TO.P,Q3,4*
X142350000Y-147500000D03*
G04 #@! TD*
D35*
G04 #@! TO.P,U5,8*
G04 #@! TO.N,+5V*
X133100000Y-136500000D03*
G04 #@! TO.P,U5,4*
G04 #@! TO.N,/Always_On/Ground*
X125480000Y-144120000D03*
G04 #@! TO.P,U5,7*
G04 #@! TO.N,/SCL*
X133100000Y-139040000D03*
G04 #@! TO.P,U5,3*
G04 #@! TO.N,Net-(C1-Pad1)*
X125480000Y-141580000D03*
G04 #@! TO.P,U5,6*
G04 #@! TO.N,Net-(D2-Pad2)*
X133100000Y-141580000D03*
G04 #@! TO.P,U5,2*
G04 #@! TO.N,Net-(D4-Pad2)*
X125480000Y-139040000D03*
G04 #@! TO.P,U5,5*
G04 #@! TO.N,/SDA*
X133100000Y-144120000D03*
D36*
G04 #@! TO.P,U5,1*
G04 #@! TO.N,Net-(U5-Pad1)*
X125480000Y-136500000D03*
G04 #@! TD*
D20*
G04 #@! TO.P,C12,2*
G04 #@! TO.N,/Always_On/Ground*
X116100000Y-153150000D03*
G04 #@! TO.P,C12,1*
G04 #@! TO.N,Net-(C12-Pad1)*
X116100000Y-150650000D03*
G04 #@! TD*
D37*
G04 #@! TO.P,J9,2*
G04 #@! TO.N,Net-(J9-Pad2)*
X107000000Y-117350000D03*
D38*
G04 #@! TO.P,J9,1*
G04 #@! TO.N,/LED1*
X104500000Y-117350000D03*
G04 #@! TD*
D39*
G04 #@! TO.P,U6,8*
G04 #@! TO.N,Net-(C12-Pad1)*
X118290000Y-149100000D03*
G04 #@! TO.P,U6,7*
G04 #@! TO.N,Net-(U6-Pad7)*
X119560000Y-149100000D03*
G04 #@! TO.P,U6,6*
G04 #@! TO.N,/SCL*
X120830000Y-149100000D03*
G04 #@! TO.P,U6,5*
G04 #@! TO.N,/SDA*
X122100000Y-149100000D03*
G04 #@! TO.P,U6,4*
G04 #@! TO.N,/Always_On/Ground*
X122100000Y-154500000D03*
G04 #@! TO.P,U6,3*
G04 #@! TO.N,Net-(BT2-Pad1)*
X120830000Y-154500000D03*
G04 #@! TO.P,U6,2*
G04 #@! TO.N,Net-(U6-Pad2)*
X119560000Y-154500000D03*
G04 #@! TO.P,U6,1*
G04 #@! TO.N,Net-(U6-Pad1)*
X118290000Y-154500000D03*
G04 #@! TD*
D40*
G04 #@! TO.P,J1,40*
G04 #@! TO.N,/I2S_DIN*
X156760000Y-102460000D03*
G04 #@! TO.P,J1,39*
G04 #@! TO.N,GND*
X156760000Y-105000000D03*
G04 #@! TO.P,J1,38*
G04 #@! TO.N,/LED1*
X154220000Y-102460000D03*
G04 #@! TO.P,J1,37*
G04 #@! TO.N,Net-(J1-Pad37)*
X154220000Y-105000000D03*
G04 #@! TO.P,J1,36*
G04 #@! TO.N,Net-(J1-Pad36)*
X151680000Y-102460000D03*
G04 #@! TO.P,J1,35*
G04 #@! TO.N,/I2S_LRCLK*
X151680000Y-105000000D03*
G04 #@! TO.P,J1,34*
G04 #@! TO.N,GND*
X149140000Y-102460000D03*
G04 #@! TO.P,J1,33*
G04 #@! TO.N,Net-(J1-Pad33)*
X149140000Y-105000000D03*
G04 #@! TO.P,J1,32*
G04 #@! TO.N,Net-(J1-Pad32)*
X146600000Y-102460000D03*
G04 #@! TO.P,J1,31*
G04 #@! TO.N,Net-(J1-Pad31)*
X146600000Y-105000000D03*
G04 #@! TO.P,J1,30*
G04 #@! TO.N,GND*
X144060000Y-102460000D03*
G04 #@! TO.P,J1,29*
G04 #@! TO.N,Net-(J1-Pad29)*
X144060000Y-105000000D03*
G04 #@! TO.P,J1,28*
G04 #@! TO.N,Net-(J1-Pad28)*
X141520000Y-102460000D03*
G04 #@! TO.P,J1,27*
G04 #@! TO.N,Net-(J1-Pad27)*
X141520000Y-105000000D03*
G04 #@! TO.P,J1,26*
G04 #@! TO.N,Net-(J1-Pad26)*
X138980000Y-102460000D03*
G04 #@! TO.P,J1,25*
G04 #@! TO.N,GND*
X138980000Y-105000000D03*
G04 #@! TO.P,J1,24*
G04 #@! TO.N,/SPI_CEO*
X136440000Y-102460000D03*
G04 #@! TO.P,J1,23*
G04 #@! TO.N,/SPI_SCLK*
X136440000Y-105000000D03*
G04 #@! TO.P,J1,22*
G04 #@! TO.N,Net-(J1-Pad22)*
X133900000Y-102460000D03*
G04 #@! TO.P,J1,21*
G04 #@! TO.N,/SPI_MISO*
X133900000Y-105000000D03*
G04 #@! TO.P,J1,20*
G04 #@! TO.N,GND*
X131360000Y-102460000D03*
G04 #@! TO.P,J1,19*
G04 #@! TO.N,/SPI_MOSI*
X131360000Y-105000000D03*
G04 #@! TO.P,J1,18*
G04 #@! TO.N,Net-(J1-Pad18)*
X128820000Y-102460000D03*
G04 #@! TO.P,J1,17*
G04 #@! TO.N,Net-(J1-Pad17)*
X128820000Y-105000000D03*
G04 #@! TO.P,J1,16*
G04 #@! TO.N,/THERMAL_POWER*
X126280000Y-102460000D03*
G04 #@! TO.P,J1,15*
G04 #@! TO.N,/USB_POWER*
X126280000Y-105000000D03*
G04 #@! TO.P,J1,14*
G04 #@! TO.N,GND*
X123740000Y-102460000D03*
G04 #@! TO.P,J1,13*
G04 #@! TO.N,Net-(J1-Pad13)*
X123740000Y-105000000D03*
G04 #@! TO.P,J1,12*
G04 #@! TO.N,/I2S_BCLK*
X121200000Y-102460000D03*
G04 #@! TO.P,J1,11*
G04 #@! TO.N,Net-(J1-Pad11)*
X121200000Y-105000000D03*
G04 #@! TO.P,J1,10*
G04 #@! TO.N,Net-(J1-Pad10)*
X118660000Y-102460000D03*
G04 #@! TO.P,J1,9*
G04 #@! TO.N,GND*
X118660000Y-105000000D03*
G04 #@! TO.P,J1,8*
G04 #@! TO.N,Net-(J1-Pad8)*
X116120000Y-102460000D03*
G04 #@! TO.P,J1,7*
G04 #@! TO.N,Net-(J1-Pad7)*
X116120000Y-105000000D03*
G04 #@! TO.P,J1,6*
G04 #@! TO.N,GND*
X113580000Y-102460000D03*
G04 #@! TO.P,J1,5*
G04 #@! TO.N,/SCL*
X113580000Y-105000000D03*
G04 #@! TO.P,J1,4*
G04 #@! TO.N,+5V*
X111040000Y-102460000D03*
G04 #@! TO.P,J1,3*
G04 #@! TO.N,/SDA*
X111040000Y-105000000D03*
G04 #@! TO.P,J1,2*
G04 #@! TO.N,+5V*
X108500000Y-102460000D03*
D41*
G04 #@! TO.P,J1,1*
G04 #@! TO.N,Net-(J1-Pad1)*
X108500000Y-105000000D03*
G04 #@! TD*
D37*
G04 #@! TO.P,J4,8*
G04 #@! TO.N,/SCL*
X119650000Y-111650000D03*
G04 #@! TO.P,J4,7*
G04 #@! TO.N,/SDA*
X122150000Y-111650000D03*
G04 #@! TO.P,J4,6*
G04 #@! TO.N,+5V*
X124650000Y-111650000D03*
G04 #@! TO.P,J4,5*
G04 #@! TO.N,Net-(J4-Pad5)*
X127150000Y-111650000D03*
G04 #@! TO.P,J4,4*
G04 #@! TO.N,/SPI_SCLK*
X129650000Y-111650000D03*
G04 #@! TO.P,J4,3*
G04 #@! TO.N,/SPI_MISO*
X132150000Y-111650000D03*
G04 #@! TO.P,J4,2*
G04 #@! TO.N,/SPI_MOSI*
X134650000Y-111650000D03*
D38*
G04 #@! TO.P,J4,1*
G04 #@! TO.N,/SPI_CEO*
X137150000Y-111650000D03*
G04 #@! TD*
D42*
G04 #@! TO.P,Q1,3*
G04 #@! TO.N,Net-(J4-Pad5)*
X113950000Y-115800000D03*
G04 #@! TO.P,Q1,2*
G04 #@! TO.N,GND*
X113000000Y-112500000D03*
G04 #@! TO.P,Q1,1*
G04 #@! TO.N,/THERMAL_POWER*
X114900000Y-112500000D03*
G04 #@! TD*
G04 #@! TO.P,Q5,3*
G04 #@! TO.N,Net-(J7-Pad4)*
X147282000Y-172458000D03*
G04 #@! TO.P,Q5,2*
G04 #@! TO.N,GND*
X146332000Y-169158000D03*
G04 #@! TO.P,Q5,1*
G04 #@! TO.N,/USB_POWER*
X148232000Y-169158000D03*
G04 #@! TD*
D37*
G04 #@! TO.P,J2,4*
G04 #@! TO.N,/SCL*
X114000000Y-137000000D03*
G04 #@! TO.P,J2,3*
G04 #@! TO.N,/SDA*
X114000000Y-139500000D03*
G04 #@! TO.P,J2,2*
G04 #@! TO.N,+5V*
X114000000Y-142000000D03*
D38*
G04 #@! TO.P,J2,1*
G04 #@! TO.N,GND*
X114000000Y-144500000D03*
G04 #@! TD*
D43*
G04 #@! TO.P,J7,4*
G04 #@! TO.N,Net-(J7-Pad4)*
X151680000Y-162025000D03*
G04 #@! TO.P,J7,3*
G04 #@! TO.N,Net-(J5-Pad3)*
X151680000Y-164565000D03*
G04 #@! TO.P,J7,2*
G04 #@! TO.N,Net-(J5-Pad2)*
X151680000Y-166595000D03*
D44*
G04 #@! TO.P,J7,1*
G04 #@! TO.N,Net-(J5-Pad1)*
X151680000Y-169135000D03*
D27*
G04 #@! TO.P,J7,5*
G04 #@! TO.N,Net-(J7-Pad4)*
X154350000Y-158975000D03*
X154350000Y-172695000D03*
G04 #@! TD*
D45*
G04 #@! TO.P,J5,2*
G04 #@! TO.N,Net-(J5-Pad2)*
X156125000Y-143100000D03*
G04 #@! TO.P,J5,1*
G04 #@! TO.N,Net-(J5-Pad1)*
X156125000Y-140560000D03*
G04 #@! TO.P,J5,4*
G04 #@! TO.N,GND*
X158125000Y-140560000D03*
G04 #@! TO.P,J5,3*
G04 #@! TO.N,Net-(J5-Pad3)*
X158125000Y-143100000D03*
D46*
G04 #@! TO.P,J5,5*
G04 #@! TO.N,GND*
X160825000Y-147830000D03*
X160825000Y-135830000D03*
G04 #@! TD*
D20*
G04 #@! TO.P,C2,1*
G04 #@! TO.N,+5V*
X136300000Y-136750000D03*
G04 #@! TO.P,C2,2*
G04 #@! TO.N,/Always_On/Ground*
X136300000Y-139250000D03*
G04 #@! TD*
G04 #@! TO.P,C3,2*
G04 #@! TO.N,GND*
X146700000Y-109899999D03*
G04 #@! TO.P,C3,1*
G04 #@! TO.N,+5V*
X146700000Y-112399999D03*
G04 #@! TD*
G04 #@! TO.P,C4,1*
G04 #@! TO.N,+5V*
X144750000Y-112399999D03*
G04 #@! TO.P,C4,2*
G04 #@! TO.N,GND*
X144750000Y-109899999D03*
G04 #@! TD*
G04 #@! TO.P,C5,1*
G04 #@! TO.N,+5V*
X148750000Y-112400000D03*
G04 #@! TO.P,C5,2*
G04 #@! TO.N,GND*
X148750000Y-109900000D03*
G04 #@! TD*
D47*
G04 #@! TO.N,GND*
X145500000Y-147400000D03*
X146500000Y-147400000D03*
X144500000Y-147400000D03*
G04 #@! TO.N,+5V*
X113699999Y-123700000D03*
X113699999Y-124600000D03*
X113699999Y-122850000D03*
X109499999Y-123200000D03*
X109499999Y-124050000D03*
X109499999Y-124950000D03*
X124650000Y-114200000D03*
G04 #@! TO.N,GND*
X155800000Y-109050000D03*
X152050000Y-107000000D03*
X144700000Y-108350000D03*
X113250000Y-108450000D03*
X104300000Y-120550000D03*
X144700000Y-166850000D03*
X146500000Y-146500000D03*
X144500000Y-146500000D03*
X145500000Y-146500000D03*
X146500000Y-148500000D03*
X145500000Y-148500000D03*
X144500000Y-148500000D03*
G04 #@! TO.N,/Always_On/Ground*
X138800000Y-135900000D03*
X146168568Y-135900000D03*
X138800000Y-139100000D03*
G04 #@! TO.N,Net-(D4-Pad2)*
X138750000Y-151250000D03*
G04 #@! TO.N,/SDA*
X127350000Y-147350000D03*
X124400000Y-147350000D03*
G04 #@! TO.N,/SCL*
X126500000Y-146500000D03*
X123750000Y-146450000D03*
G04 #@! TO.N,/USB_POWER*
X127600000Y-103750000D03*
X127250000Y-100109989D03*
G04 #@! TO.N,/I2S_DIN*
X150762347Y-107937653D03*
X154700000Y-107500000D03*
D48*
G04 #@! TO.N,Net-(L2-Pad1)*
X143755568Y-128798229D03*
X143747279Y-129441518D03*
X149716278Y-129441518D03*
X148763779Y-129441518D03*
X147811279Y-129441518D03*
G04 #@! TO.N,Net-(L2-Pad2)*
X143747279Y-130932938D03*
X143755569Y-131576228D03*
X147811279Y-130932938D03*
X148763779Y-130932938D03*
X149716278Y-130932938D03*
G04 #@! TD*
D49*
G04 #@! TO.N,Net-(D1-Pad1)*
X106500000Y-124400000D02*
X106500000Y-126500000D01*
G04 #@! TO.N,Net-(D2-Pad1)*
X136899999Y-143000001D02*
X136300000Y-143600000D01*
X138400000Y-143000001D02*
X136899999Y-143000001D01*
G04 #@! TO.N,Net-(D4-Pad1)*
X152000000Y-148750000D02*
X152000000Y-148600000D01*
X150950000Y-149800000D02*
X152000000Y-148750000D01*
X148650000Y-149800000D02*
X150950000Y-149800000D01*
X148550000Y-149900000D02*
X148650000Y-149800000D01*
X148550000Y-154300000D02*
X148550000Y-149900000D01*
X145250000Y-154300000D02*
X147500000Y-154300000D01*
X147500000Y-154300000D02*
X148550000Y-154300000D01*
X143450000Y-152500000D02*
X145250000Y-154300000D01*
X142700000Y-152500000D02*
X143450000Y-152500000D01*
D50*
G04 #@! TO.N,+5V*
X141977569Y-135039728D02*
X141977569Y-137103228D01*
X141977569Y-137103228D02*
X141977569Y-139071729D01*
D49*
X141557068Y-131987228D02*
X141500000Y-132044296D01*
X141500000Y-132044296D02*
X141500000Y-132600000D01*
X141500000Y-132600000D02*
X141794296Y-132600000D01*
X142807068Y-132692932D02*
X142800000Y-132700000D01*
X142807068Y-131587228D02*
X142807068Y-132692932D01*
X143211864Y-133097728D02*
X142807068Y-132692932D01*
X144644568Y-133097728D02*
X143211864Y-133097728D01*
X142807068Y-131587228D02*
X142557068Y-131587228D01*
X142557068Y-131987228D02*
X142557068Y-131587228D01*
X142432058Y-132112238D02*
X142557068Y-131987228D01*
X141682078Y-132112238D02*
X142432058Y-132112238D01*
X141557068Y-131987228D02*
X141682078Y-132112238D01*
X141557068Y-131587228D02*
X141557068Y-131987228D01*
X137300000Y-130700000D02*
X137300000Y-130000000D01*
X137300000Y-135325002D02*
X137300000Y-130700000D01*
X141977568Y-137103228D02*
X139078226Y-137103228D01*
X133350000Y-136750000D02*
X133100000Y-136500000D01*
X136300000Y-136750000D02*
X133350000Y-136750000D01*
X137399998Y-135525002D02*
X137500000Y-135525002D01*
X136300000Y-136750000D02*
X136300000Y-136625000D01*
X139078226Y-137103228D02*
X137500000Y-135525002D01*
X136300000Y-136625000D02*
X137399998Y-135525002D01*
X137500000Y-135525002D02*
X137300000Y-135325002D01*
X146250000Y-151800000D02*
X144750000Y-150300000D01*
X146250000Y-152550000D02*
X146250000Y-151800000D01*
X141977569Y-139946728D02*
X141977569Y-139071728D01*
X141024999Y-140899298D02*
X141977569Y-139946728D01*
X141664998Y-150300000D02*
X141024999Y-149660001D01*
X144750000Y-150300000D02*
X141664998Y-150300000D01*
X153050000Y-111771765D02*
X152421765Y-112400000D01*
X153050000Y-111375000D02*
X153050000Y-111771765D01*
X153550000Y-111600000D02*
X153550000Y-111375000D01*
X152750000Y-112400000D02*
X153550000Y-111600000D01*
X152421765Y-112400000D02*
X152750000Y-112400000D01*
D51*
X148750000Y-112400000D02*
X152421765Y-112400000D01*
X144700001Y-112350000D02*
X144750000Y-112399999D01*
X142800000Y-112350000D02*
X144700001Y-112350000D01*
X145775001Y-112400000D02*
X148750000Y-112400000D01*
X144750000Y-112399999D02*
X145775001Y-112400000D01*
D49*
X108500000Y-102460000D02*
X111040000Y-102460000D01*
X141024999Y-141100000D02*
X141024999Y-140899298D01*
D52*
X141024999Y-140899298D02*
X141024999Y-143725001D01*
X141024999Y-143725001D02*
X136400000Y-148350000D01*
X136400000Y-148350000D02*
X133700000Y-151050000D01*
X133700000Y-151050000D02*
X133700000Y-152350000D01*
X133700000Y-152350000D02*
X133700000Y-153050000D01*
X115299998Y-165700000D02*
X110000000Y-160400002D01*
X123500000Y-165700000D02*
X115299998Y-165700000D01*
X110000000Y-160400002D02*
X110000000Y-154150000D01*
X110000000Y-154150000D02*
X109499999Y-153649999D01*
X109499999Y-110649999D02*
X105900000Y-107050000D01*
X105900000Y-107050000D02*
X105900000Y-102700000D01*
D53*
X107057919Y-102700000D02*
X105900000Y-102700000D01*
X107297919Y-102460000D02*
X107057919Y-102700000D01*
X108500000Y-102460000D02*
X107297919Y-102460000D01*
D52*
X133700000Y-152350000D02*
X133700000Y-167100000D01*
X124900000Y-167100000D02*
X123500000Y-165700000D01*
X133700000Y-167100000D02*
X124900000Y-167100000D01*
X109499999Y-123200000D02*
X109499999Y-110649999D01*
X113700000Y-120050000D02*
X119025010Y-114724990D01*
X113700000Y-124050000D02*
X113700000Y-120050000D01*
X109499999Y-123200000D02*
X109499999Y-124950000D01*
D53*
X143874990Y-114724990D02*
X144125010Y-114724990D01*
X144125010Y-114724990D02*
X144750000Y-114100000D01*
X144750000Y-114100000D02*
X144750000Y-112400000D01*
D50*
X111100001Y-153049999D02*
X113950000Y-153049999D01*
X110000000Y-154150000D02*
X111100001Y-153049999D01*
X114000000Y-142000000D02*
X109449999Y-142000000D01*
D52*
X109499999Y-143250000D02*
X109499999Y-124950000D01*
X109499999Y-153649999D02*
X109499999Y-143250000D01*
X124650000Y-114724990D02*
X143874990Y-114724990D01*
X119025010Y-114724990D02*
X124650000Y-114724990D01*
D49*
X137710001Y-149660001D02*
X136400000Y-148350000D01*
X141024999Y-149660001D02*
X137710001Y-149660001D01*
G04 #@! TO.N,GND*
X118660000Y-105000000D02*
X119835001Y-103824999D01*
X119835001Y-103824999D02*
X122375001Y-103824999D01*
X122375001Y-103824999D02*
X122890001Y-103309999D01*
X122890001Y-103309999D02*
X123740000Y-102460000D01*
X138980000Y-105000000D02*
X140155001Y-103824999D01*
X143210001Y-103309999D02*
X144060000Y-102460000D01*
X140155001Y-103824999D02*
X142695001Y-103824999D01*
X142695001Y-103824999D02*
X143210001Y-103309999D01*
D54*
X142350000Y-147500000D02*
X144100000Y-147500000D01*
X144100000Y-147500000D02*
X145100000Y-147500000D01*
X146100000Y-147500000D02*
X146500000Y-147500000D01*
D49*
X146332000Y-166832000D02*
X146300000Y-166800000D01*
X146332000Y-169158000D02*
X146332000Y-166832000D01*
X148290001Y-103309999D02*
X149140000Y-102460000D01*
X145235001Y-103635001D02*
X147964999Y-103635001D01*
X147964999Y-103635001D02*
X148290001Y-103309999D01*
X144060000Y-102460000D02*
X145235001Y-103635001D01*
X151325000Y-110150000D02*
X150400000Y-110150000D01*
D51*
X150150000Y-109900000D02*
X148750000Y-109900000D01*
X150400000Y-110150000D02*
X150150000Y-109900000D01*
X146700001Y-109900000D02*
X146700000Y-109899999D01*
X148750000Y-109900000D02*
X146700001Y-109900000D01*
X146700000Y-109899999D02*
X144750000Y-109899999D01*
D49*
X155200000Y-109650000D02*
X155800000Y-109050000D01*
X154275000Y-109650000D02*
X155200000Y-109650000D01*
X152550000Y-107500000D02*
X152050000Y-107000000D01*
X152550000Y-108425000D02*
X152550000Y-107500000D01*
X144750000Y-108400000D02*
X144700000Y-108350000D01*
X144750000Y-109899999D02*
X144750000Y-108400000D01*
X146700000Y-108350000D02*
X147000000Y-108050000D01*
X146700000Y-109899999D02*
X146700000Y-108350000D01*
X112942500Y-112442500D02*
X113000000Y-112500000D01*
X112942501Y-110150000D02*
X112942500Y-112442500D01*
X104300000Y-124400000D02*
X104300000Y-122500000D01*
X112942500Y-108757500D02*
X113250000Y-108450000D01*
X112942500Y-110150000D02*
X112942500Y-108757500D01*
D50*
X104300000Y-122500000D02*
X104300000Y-120550000D01*
D49*
X144750000Y-166800000D02*
X144700000Y-166850000D01*
X146300000Y-166800000D02*
X144750000Y-166800000D01*
D54*
X146500000Y-147500000D02*
X148650000Y-147500000D01*
D49*
G04 #@! TO.N,Net-(J4-Pad5)*
X114600000Y-115800000D02*
X117050000Y-113350000D01*
X113950000Y-115800000D02*
X114600000Y-115800000D01*
X125450000Y-113350000D02*
X127150000Y-111650000D01*
X117050000Y-113350000D02*
X125450000Y-113350000D01*
G04 #@! TO.N,Net-(J5-Pad2)*
X158645801Y-142014999D02*
X159600000Y-142969198D01*
X157210001Y-142014999D02*
X158645801Y-142014999D01*
X156125000Y-143100000D02*
X157210001Y-142014999D01*
X159600000Y-142969198D02*
X159600000Y-143500000D01*
X152429999Y-165845001D02*
X151680000Y-166595000D01*
X156625011Y-161649989D02*
X152429999Y-165845001D01*
X156625011Y-146474989D02*
X156625011Y-161649989D01*
X159600000Y-143500000D02*
X156625011Y-146474989D01*
G04 #@! TO.N,Net-(J5-Pad1)*
X151815000Y-168000000D02*
X151680000Y-168135000D01*
X153100000Y-168000000D02*
X151815000Y-168000000D01*
X157075021Y-164024979D02*
X153100000Y-168000000D01*
X151680000Y-168135000D02*
X151680000Y-169135000D01*
X157075021Y-146924979D02*
X157075021Y-164024979D01*
X156125000Y-140560000D02*
X157210001Y-139474999D01*
X160050010Y-143949990D02*
X157075021Y-146924979D01*
X157210001Y-139474999D02*
X158645801Y-139474999D01*
X158645801Y-139474999D02*
X160050010Y-140879208D01*
X160050010Y-140879208D02*
X160050010Y-143949990D01*
G04 #@! TO.N,Net-(J5-Pad3)*
X152429999Y-163815001D02*
X151680000Y-164565000D01*
X156175001Y-160069999D02*
X152429999Y-163815001D01*
X156175001Y-146124801D02*
X156175001Y-160069999D01*
X158125000Y-144174802D02*
X156175001Y-146124801D01*
X158125000Y-143100000D02*
X158125000Y-144174802D01*
D53*
G04 #@! TO.N,Net-(J7-Pad4)*
X148182000Y-172458000D02*
X150000000Y-170640000D01*
X147282000Y-172458000D02*
X148182000Y-172458000D01*
X150000000Y-163705000D02*
X151680000Y-162025000D01*
X150000000Y-170640000D02*
X150000000Y-163705000D01*
X151680000Y-161645000D02*
X154350000Y-158975000D01*
X151680000Y-162025000D02*
X151680000Y-161645000D01*
X152295000Y-170640000D02*
X154350000Y-172695000D01*
X150000000Y-170640000D02*
X152295000Y-170640000D01*
D50*
G04 #@! TO.N,/Always_On/Ground*
X144279068Y-130187229D02*
X145612569Y-130187229D01*
D51*
X144644569Y-131197728D02*
X144644568Y-130197729D01*
X144644568Y-130197729D02*
X144644569Y-129165728D01*
D54*
X145612569Y-130187229D02*
X146105068Y-130679729D01*
X145612569Y-130187229D02*
X145612569Y-130166228D01*
X145612569Y-130166228D02*
X146168568Y-129610228D01*
X146168569Y-130616228D02*
X146105068Y-130679729D01*
X146168568Y-129610228D02*
X146168569Y-130616228D01*
D50*
X146105068Y-135134728D02*
X146168568Y-135071228D01*
X144477568Y-135134728D02*
X146105068Y-135134728D01*
D54*
X146168569Y-130689728D02*
X146168568Y-135071228D01*
D50*
X145577568Y-137103228D02*
X146168568Y-137103228D01*
X144477569Y-137103228D02*
X145577568Y-137103228D01*
X145577568Y-139071729D02*
X146168569Y-139071728D01*
D54*
X146168569Y-139071728D02*
X146168569Y-139653228D01*
D50*
X144477569Y-139071729D02*
X145577568Y-139071729D01*
D54*
X146168568Y-137103228D02*
X146168569Y-139071728D01*
D50*
X144414069Y-125228728D02*
X146168569Y-125228728D01*
D54*
X146168569Y-125228728D02*
X146168569Y-123196728D01*
X146168568Y-129610228D02*
X146168569Y-125228728D01*
D50*
X144414069Y-123196728D02*
X146168569Y-123196728D01*
D54*
X159484000Y-126116000D02*
X162484000Y-129116000D01*
X159484000Y-124416000D02*
X159484000Y-126116000D01*
D49*
X141532068Y-130937228D02*
X141132068Y-130937228D01*
X142057068Y-131187228D02*
X141807068Y-130937228D01*
X142057068Y-131587228D02*
X142057068Y-131187228D01*
X141657078Y-130894306D02*
X141700000Y-130937228D01*
X141657078Y-128887238D02*
X141657078Y-130894306D01*
X141557068Y-128787228D02*
X141657078Y-128887238D01*
X141807068Y-130937228D02*
X141700000Y-130937228D01*
X141700000Y-130937228D02*
X141532068Y-130937228D01*
X140936358Y-131132938D02*
X140667062Y-131132938D01*
X141132068Y-130937228D02*
X140936358Y-131132938D01*
X140667062Y-131132938D02*
X139800000Y-132000000D01*
X138800000Y-134375000D02*
X138800000Y-134500000D01*
X139800000Y-133375000D02*
X138800000Y-134375000D01*
X139800000Y-132000000D02*
X139800000Y-133375000D01*
D50*
X138800000Y-134500000D02*
X138800000Y-135900000D01*
D54*
X146168568Y-135071228D02*
X146168568Y-135900000D01*
X159484000Y-120284000D02*
X159484000Y-124416000D01*
D49*
X122000000Y-143000000D02*
X122200000Y-143200000D01*
X120100000Y-143000000D02*
X122000000Y-143000000D01*
X124560000Y-143200000D02*
X125480000Y-144120000D01*
X122200000Y-143200000D02*
X124560000Y-143200000D01*
X136450000Y-139100000D02*
X136300000Y-139250000D01*
X138800000Y-139100000D02*
X136450000Y-139100000D01*
X131685001Y-137914999D02*
X126279999Y-143320001D01*
X134089999Y-137914999D02*
X131685001Y-137914999D01*
X126279999Y-143320001D02*
X125480000Y-144120000D01*
X135425000Y-139250000D02*
X134089999Y-137914999D01*
X136300000Y-139250000D02*
X135425000Y-139250000D01*
X138400000Y-139500000D02*
X138800000Y-139100000D01*
X138400000Y-140800001D02*
X138400000Y-139500000D01*
D54*
X148650000Y-145200000D02*
X148650000Y-139050000D01*
D49*
X148628272Y-139071728D02*
X148650000Y-139050000D01*
X146168569Y-139071728D02*
X148628272Y-139071728D01*
X148650000Y-146200000D02*
X148650000Y-145200000D01*
X148850000Y-146400000D02*
X148650000Y-146200000D01*
X152000000Y-146400000D02*
X148850000Y-146400000D01*
X116100000Y-153150000D02*
X116975000Y-153150000D01*
X116975000Y-153150000D02*
X117925000Y-152200000D01*
X122100000Y-152400000D02*
X122100000Y-154500000D01*
X121900000Y-152200000D02*
X122100000Y-152400000D01*
X130900000Y-163775000D02*
X130900000Y-163870000D01*
X122100000Y-154500000D02*
X122100000Y-154975000D01*
X125480000Y-148620000D02*
X125480000Y-144120000D01*
X121900000Y-152200000D02*
X125480000Y-148620000D01*
D54*
X156599999Y-117399999D02*
X159484000Y-120284000D01*
X151699999Y-117399999D02*
X156599999Y-117399999D01*
X150700000Y-116400000D02*
X151699999Y-117399999D01*
D49*
X120185001Y-152285001D02*
X120100000Y-152200000D01*
X120720009Y-156050011D02*
X120185001Y-155515003D01*
X120185001Y-155515003D02*
X120185001Y-152285001D01*
X123610011Y-156050011D02*
X120720009Y-156050011D01*
X130900000Y-163340000D02*
X123610011Y-156050011D01*
X130900000Y-163870000D02*
X130900000Y-163340000D01*
X117925000Y-152200000D02*
X120100000Y-152200000D01*
X120100000Y-152200000D02*
X121900000Y-152200000D01*
X146168568Y-135900000D02*
X146168568Y-137103228D01*
X143882068Y-130187228D02*
X142882068Y-130187228D01*
X144279068Y-130187229D02*
X143882068Y-130187228D01*
X142882068Y-130187228D02*
X142452772Y-130187228D01*
X142452772Y-130187228D02*
X142450000Y-130190000D01*
X142450000Y-130190000D02*
X142450000Y-130210000D01*
X142450000Y-130210000D02*
X142460000Y-130210000D01*
X142460000Y-130210000D02*
X142480000Y-130190000D01*
X142480000Y-130190000D02*
X142490000Y-130200000D01*
X142490000Y-130200000D02*
X143060000Y-130200000D01*
G04 #@! TO.N,Net-(BT2-Pad1)*
X120830000Y-154500000D02*
X120830000Y-154975000D01*
X120830000Y-154975000D02*
X121455001Y-155600001D01*
X121455001Y-155600001D02*
X123839999Y-155600001D01*
X130900000Y-148540000D02*
X130900000Y-148070000D01*
X123839999Y-155600001D02*
X130900000Y-148540000D01*
G04 #@! TO.N,Net-(C1-Pad1)*
X120000000Y-140700000D02*
X120100000Y-140800000D01*
X120000000Y-138100000D02*
X120000000Y-140700000D01*
X122100000Y-140800000D02*
X122200000Y-140700000D01*
X120100000Y-140800000D02*
X122100000Y-140800000D01*
X124600000Y-140700000D02*
X125480000Y-141580000D01*
X122200000Y-140700000D02*
X124600000Y-140700000D01*
D50*
G04 #@! TO.N,VCC*
X141914069Y-125255228D02*
X141914068Y-123196728D01*
D54*
X140930729Y-126830729D02*
X140300000Y-126200000D01*
D49*
X144333568Y-127260728D02*
X144644569Y-127260728D01*
X139500000Y-125400000D02*
X140300000Y-126200000D01*
X138600000Y-125400000D02*
X139500000Y-125400000D01*
X138600000Y-125550000D02*
X138600000Y-125400000D01*
X135800000Y-128350000D02*
X138600000Y-125550000D01*
X135800000Y-131900000D02*
X135800000Y-128350000D01*
X122100000Y-135800000D02*
X122100000Y-135050000D01*
X122100000Y-135050000D02*
X123650000Y-133500000D01*
X123650000Y-133500000D02*
X134200000Y-133500000D01*
X134200000Y-133500000D02*
X135800000Y-131900000D01*
X154484000Y-129116000D02*
X156484000Y-129116000D01*
X149300000Y-123932000D02*
X154484000Y-129116000D01*
D53*
X142807068Y-128337228D02*
X142800000Y-128330160D01*
X142807068Y-128787228D02*
X142807068Y-128337228D01*
X143769569Y-127260728D02*
X144644569Y-127260728D01*
X142800000Y-128230297D02*
X143769569Y-127260728D01*
X142800000Y-128330160D02*
X142800000Y-128230297D01*
X141400432Y-126830729D02*
X140930729Y-126830729D01*
X142800000Y-128230297D02*
X141400432Y-126830729D01*
D49*
G04 #@! TO.N,Net-(C16-Pad1)*
X139675000Y-131000000D02*
X140000000Y-131000000D01*
X138800000Y-131875000D02*
X139675000Y-131000000D01*
X138800000Y-132000000D02*
X138800000Y-131875000D01*
X140562772Y-130437228D02*
X141132068Y-130437228D01*
X140000000Y-131000000D02*
X140562772Y-130437228D01*
G04 #@! TO.N,/LED1*
X104500000Y-118475000D02*
X104500000Y-117350000D01*
X105225001Y-119200001D02*
X104500000Y-118475000D01*
X105225001Y-125724999D02*
X105225001Y-119200001D01*
X104450000Y-126500000D02*
X105225001Y-125724999D01*
X104300000Y-126500000D02*
X104450000Y-126500000D01*
X104500000Y-116225000D02*
X104500000Y-117350000D01*
X105891164Y-100834989D02*
X104500000Y-102226153D01*
X152594989Y-100834989D02*
X105891164Y-100834989D01*
X104500000Y-102226153D02*
X104500000Y-116225000D01*
X154220000Y-102460000D02*
X152594989Y-100834989D01*
G04 #@! TO.N,Net-(D2-Pad2)*
X133280000Y-141400000D02*
X133100000Y-141580000D01*
X136300000Y-141400000D02*
X133280000Y-141400000D01*
G04 #@! TO.N,Net-(D3-Pad2)*
X122100000Y-138150000D02*
X122100000Y-138300000D01*
X120000000Y-136050000D02*
X122100000Y-138150000D01*
X120000000Y-135900000D02*
X120000000Y-136050000D01*
G04 #@! TO.N,Net-(D4-Pad2)*
X140000000Y-152500000D02*
X138750000Y-151250000D01*
X140200000Y-152500000D02*
X140000000Y-152500000D01*
G04 #@! TO.N,/SDA*
X130580000Y-144120000D02*
X127350000Y-147350000D01*
X133100000Y-144120000D02*
X130580000Y-144120000D01*
X123834315Y-147350000D02*
X124400000Y-147350000D01*
X123375000Y-147350000D02*
X123834315Y-147350000D01*
X122100000Y-148625000D02*
X123375000Y-147350000D01*
X122100000Y-149100000D02*
X122100000Y-148625000D01*
X120185001Y-150115003D02*
X120185001Y-146885001D01*
X120269999Y-150200001D02*
X120185001Y-150115003D01*
X121474999Y-150200001D02*
X120269999Y-150200001D01*
X122100000Y-149575000D02*
X121474999Y-150200001D01*
X122100000Y-149100000D02*
X122100000Y-149575000D01*
X114944999Y-104625997D02*
X114944999Y-106394999D01*
X114144001Y-103824999D02*
X114944999Y-104625997D01*
X112215001Y-103824999D02*
X114144001Y-103824999D01*
X111040000Y-105000000D02*
X112215001Y-103824999D01*
X116894999Y-106394999D02*
X122150000Y-111650000D01*
X114944999Y-106394999D02*
X116894999Y-106394999D01*
X120185001Y-146885001D02*
X120185001Y-145685001D01*
X110725009Y-136225009D02*
X110725009Y-105274991D01*
X120185001Y-145685001D02*
X110725009Y-136225009D01*
X110725009Y-105274991D02*
X111000000Y-105000000D01*
G04 #@! TO.N,/SCL*
X126500000Y-145640000D02*
X126500000Y-146500000D01*
X133100000Y-139040000D02*
X126500000Y-145640000D01*
X120830000Y-148625000D02*
X120830000Y-149100000D01*
X123750000Y-146450000D02*
X123005000Y-146450000D01*
X122305000Y-147150000D02*
X122300000Y-147150000D01*
X122305000Y-147150000D02*
X120830000Y-148625000D01*
X111750000Y-106830000D02*
X113580000Y-105000000D01*
X113580000Y-106830000D02*
X113580000Y-105000000D01*
X117525001Y-110775001D02*
X113580000Y-106830000D01*
X118775001Y-110775001D02*
X117525001Y-110775001D01*
X119650000Y-111650000D02*
X118775001Y-110775001D01*
X122500000Y-146955000D02*
X116500000Y-140955000D01*
X123005000Y-146450000D02*
X122500000Y-146955000D01*
X122500000Y-146955000D02*
X122305000Y-147150000D01*
X116500000Y-140955000D02*
X116500000Y-139500000D01*
X116500000Y-139500000D02*
X114000000Y-137000000D01*
X114000000Y-137000000D02*
X111075019Y-134075019D01*
X111075019Y-107504981D02*
X111750000Y-106830000D01*
X111075019Y-134075019D02*
X111075019Y-107504981D01*
G04 #@! TO.N,/I2S_BCLK*
X122375001Y-101284999D02*
X122049999Y-101610001D01*
X150315001Y-106465001D02*
X150315001Y-101895999D01*
X122049999Y-101610001D02*
X121200000Y-102460000D01*
X152050000Y-108200000D02*
X150315001Y-106465001D01*
X152050000Y-108425000D02*
X152050000Y-108200000D01*
X150315001Y-101895999D02*
X149704001Y-101284999D01*
X149704001Y-101284999D02*
X122375001Y-101284999D01*
G04 #@! TO.N,/USB_POWER*
X148232000Y-167068000D02*
X148500000Y-166800000D01*
X148232000Y-169158000D02*
X148232000Y-167068000D01*
X126350000Y-105000000D02*
X127600000Y-103750000D01*
X126280000Y-105000000D02*
X126350000Y-105000000D01*
X105640011Y-100109989D02*
X127250000Y-100109989D01*
X139650000Y-165750000D02*
X136974990Y-168425010D01*
X147300000Y-165750000D02*
X139650000Y-165750000D01*
X148350000Y-166800000D02*
X147300000Y-165750000D01*
X148500000Y-166800000D02*
X148350000Y-166800000D01*
X102650000Y-103100000D02*
X105640011Y-100109989D01*
X136974990Y-168425010D02*
X115475010Y-168425010D01*
X115475010Y-168425010D02*
X108050000Y-161000000D01*
X108050000Y-161000000D02*
X108050000Y-136050000D01*
X108050000Y-136050000D02*
X102650000Y-130650000D01*
X102650000Y-130650000D02*
X102650000Y-103100000D01*
G04 #@! TO.N,/THERMAL_POWER*
X115142500Y-112257500D02*
X114900000Y-112500000D01*
X115142501Y-110150000D02*
X115142500Y-112257500D01*
X114900000Y-113000000D02*
X114900000Y-112500000D01*
X123350001Y-112226001D02*
X122726001Y-112850001D01*
X123350001Y-111173997D02*
X123350001Y-112226001D01*
X125104999Y-103635001D02*
X125104999Y-109418999D01*
X125104999Y-109418999D02*
X123350001Y-111173997D01*
X126280000Y-102460000D02*
X125104999Y-103635001D01*
X115550000Y-112500000D02*
X114900000Y-112500000D01*
X115900001Y-112850001D02*
X115550000Y-112500000D01*
X122726001Y-112850001D02*
X115900001Y-112850001D01*
G04 #@! TO.N,/SPI_MOSI*
X135075001Y-104435999D02*
X135075001Y-109987563D01*
X135075001Y-109987563D02*
X134650000Y-110412564D01*
X134464001Y-103824999D02*
X135075001Y-104435999D01*
X134650000Y-110412564D02*
X134650000Y-111650000D01*
X132535001Y-103824999D02*
X134464001Y-103824999D01*
X131360000Y-105000000D02*
X132535001Y-103824999D01*
G04 #@! TO.N,/SPI_MISO*
X133900000Y-109900000D02*
X132150000Y-111650000D01*
X133900000Y-105000000D02*
X133900000Y-109900000D01*
G04 #@! TO.N,/SPI_SCLK*
X130524999Y-112524999D02*
X129650000Y-111650000D01*
X135226001Y-112850001D02*
X130850001Y-112850001D01*
X135850001Y-112226001D02*
X135226001Y-112850001D01*
X135850001Y-106792080D02*
X135850001Y-112226001D01*
X130850001Y-112850001D02*
X130524999Y-112524999D01*
X136440000Y-106202081D02*
X135850001Y-106792080D01*
X136440000Y-105000000D02*
X136440000Y-106202081D01*
G04 #@! TO.N,/SPI_CEO*
X137804999Y-109870001D02*
X137150000Y-110525000D01*
X137150000Y-110525000D02*
X137150000Y-111650000D01*
X137804999Y-103824999D02*
X137804999Y-109870001D01*
X136440000Y-102460000D02*
X137804999Y-103824999D01*
G04 #@! TO.N,/I2S_LRCLK*
X153050000Y-106370000D02*
X151680000Y-105000000D01*
X153050000Y-108425000D02*
X153050000Y-106370000D01*
G04 #@! TO.N,/I2S_DIN*
X151325000Y-108500306D02*
X150762347Y-107937653D01*
X151325000Y-109150000D02*
X151325000Y-108500306D01*
X155910001Y-103309999D02*
X156760000Y-102460000D01*
X155584999Y-103635001D02*
X155910001Y-103309999D01*
X155584999Y-106615001D02*
X155584999Y-103635001D01*
X154700000Y-107500000D02*
X155584999Y-106615001D01*
G04 #@! TO.N,Net-(J6-Pad1)*
X161150000Y-113200000D02*
X161150000Y-114950000D01*
X158600000Y-110650000D02*
X161150000Y-113200000D01*
X154275000Y-110650000D02*
X158600000Y-110650000D01*
G04 #@! TO.N,Net-(J6-Pad2)*
X160870000Y-110150000D02*
X161150000Y-109870000D01*
X154275000Y-110150000D02*
X160870000Y-110150000D01*
D50*
G04 #@! TO.N,Net-(L2-Pad1)*
X143302779Y-129441518D02*
X143747279Y-129441518D01*
X143747279Y-129441518D02*
X143747279Y-129441518D01*
D51*
X149716278Y-129441518D02*
X149716278Y-128456438D01*
X148763779Y-129441518D02*
X148763779Y-128392938D01*
X147811279Y-129441518D02*
X147811279Y-129017254D01*
X147811279Y-129017254D02*
X147811279Y-128202438D01*
D49*
X143148798Y-129612238D02*
X143311149Y-129449887D01*
X143073808Y-129687228D02*
X143148798Y-129612238D01*
X143057068Y-129687228D02*
X143073808Y-129687228D01*
D50*
X143057068Y-129687229D02*
X143311149Y-129449887D01*
X143311149Y-129449887D02*
X143302779Y-129441518D01*
D49*
X143501569Y-129687228D02*
X143747279Y-129441518D01*
X143057068Y-129687228D02*
X143501569Y-129687228D01*
D50*
G04 #@! TO.N,Net-(L2-Pad2)*
X143302779Y-130932938D02*
X143747279Y-130932938D01*
X143057069Y-130687228D02*
X143302779Y-130932938D01*
X143747279Y-130932938D02*
X143747279Y-130932938D01*
D51*
X147811279Y-130932938D02*
X147811278Y-132075939D01*
X148763779Y-130932938D02*
X148763779Y-132012438D01*
X149716278Y-130932938D02*
X149716278Y-131357202D01*
X149716278Y-131357202D02*
X149716278Y-132012438D01*
D49*
X143302778Y-130932938D02*
X143057068Y-130687228D01*
X143302779Y-130932938D02*
X143302778Y-130932938D01*
G04 #@! TO.N,Net-(J9-Pad2)*
X106500000Y-117850000D02*
X107000000Y-117350000D01*
X106500000Y-122500000D02*
X106500000Y-117850000D01*
G04 #@! TO.N,Net-(R7-Pad1)*
X149350000Y-108050000D02*
X149200000Y-108050000D01*
X150050000Y-108750000D02*
X149350000Y-108050000D01*
X150050000Y-109000000D02*
X150050000Y-108750000D01*
X150700000Y-109650000D02*
X150050000Y-109000000D01*
X151325000Y-109650000D02*
X150700000Y-109650000D01*
G04 #@! TO.N,Net-(R12-Pad1)*
X142800000Y-110300000D02*
X142800000Y-110150000D01*
X143500000Y-111000000D02*
X142800000Y-110300000D01*
X150350000Y-111000000D02*
X143500000Y-111000000D01*
X150700000Y-110650000D02*
X150350000Y-111000000D01*
X151325000Y-110650000D02*
X150700000Y-110650000D01*
G04 #@! TO.N,Net-(C12-Pad1)*
X117525000Y-149100000D02*
X117740000Y-149100000D01*
X117740000Y-149100000D02*
X118290000Y-149100000D01*
X116100000Y-150525000D02*
X117525000Y-149100000D01*
X116100000Y-150650000D02*
X116100000Y-150525000D01*
X115900001Y-150849999D02*
X116100000Y-150650000D01*
X113950000Y-150849999D02*
X115900001Y-150849999D01*
G04 #@! TO.N,Net-(R17-Pad2)*
X139562772Y-129937228D02*
X139500000Y-130000000D01*
X141132068Y-129937228D02*
X139562772Y-129937228D01*
G04 #@! TO.N,Net-(R18-Pad2)*
X138600000Y-127750000D02*
X138600000Y-127600000D01*
X139300000Y-128450000D02*
X138600000Y-127750000D01*
X139450000Y-128450000D02*
X139300000Y-128450000D01*
X141132068Y-129437228D02*
X140437228Y-129437228D01*
X142057068Y-128387228D02*
X141769840Y-128100000D01*
X142057068Y-128787228D02*
X142057068Y-128387228D01*
X141769840Y-128100000D02*
X139800000Y-128100000D01*
X139700000Y-128200000D02*
X139450000Y-128450000D01*
X139700000Y-128700000D02*
X139700000Y-128200000D01*
X139700000Y-128700000D02*
X139450000Y-128450000D01*
X140437228Y-129437228D02*
X139700000Y-128700000D01*
X139800000Y-128100000D02*
X139700000Y-128200000D01*
G04 #@! TO.N,Net-(U6-Pad1)*
X118700000Y-156005000D02*
X118700000Y-157370000D01*
X118700000Y-157370000D02*
X116830000Y-157370000D01*
X118290000Y-155595000D02*
X118290000Y-154500000D01*
X118700000Y-156005000D02*
X118290000Y-155595000D01*
G04 #@! TO.N,Net-(U6-Pad2)*
X119250000Y-157370000D02*
X120970000Y-157370000D01*
X119250000Y-157370000D02*
X119250000Y-156000000D01*
X119560000Y-155690000D02*
X119560000Y-154500000D01*
X119250000Y-156000000D02*
X119560000Y-155690000D01*
G04 #@! TD*
D55*
G04 #@! TO.N,VCC*
G36*
X156973000Y-122652606D02*
X156973000Y-126731000D01*
X156769750Y-126731000D01*
X156611000Y-126889750D01*
X156611000Y-127604051D01*
X156357000Y-127919011D01*
X156357000Y-126889750D01*
X156198250Y-126731000D01*
X154607691Y-126731000D01*
X154374302Y-126827673D01*
X154195673Y-127006301D01*
X154099000Y-127239690D01*
X154099000Y-128830250D01*
X154257750Y-128989000D01*
X155494106Y-128989000D01*
X155289267Y-129243000D01*
X154257750Y-129243000D01*
X154099000Y-129401750D01*
X154099000Y-129619394D01*
X146589803Y-122110197D01*
X146548601Y-122082667D01*
X146500000Y-122073000D01*
X143600000Y-122073000D01*
X143551399Y-122082667D01*
X143510197Y-122110197D01*
X143482667Y-122151399D01*
X143473000Y-122200000D01*
X143473000Y-122256910D01*
X143422411Y-122266973D01*
X143314246Y-122339246D01*
X143241973Y-122447411D01*
X143216594Y-122575000D01*
X143216594Y-123825000D01*
X143241973Y-123952589D01*
X143314246Y-124060754D01*
X143422411Y-124133027D01*
X143473000Y-124143090D01*
X143473000Y-124338117D01*
X143428314Y-124367975D01*
X143356041Y-124476140D01*
X143330662Y-124603729D01*
X143330662Y-125853729D01*
X143356041Y-125981318D01*
X143428314Y-126089483D01*
X143473000Y-126119341D01*
X143473000Y-127673000D01*
X141940043Y-127673000D01*
X141814358Y-127648000D01*
X141769840Y-127639145D01*
X141725322Y-127648000D01*
X139844516Y-127648000D01*
X139799999Y-127639145D01*
X139755483Y-127648000D01*
X139755482Y-127648000D01*
X139629797Y-127673000D01*
X139383406Y-127673000D01*
X139383406Y-127000000D01*
X139358027Y-126872411D01*
X139285754Y-126764246D01*
X139177589Y-126691973D01*
X139050000Y-126666594D01*
X138150000Y-126666594D01*
X138022411Y-126691973D01*
X137914246Y-126764246D01*
X137841973Y-126872411D01*
X137816594Y-127000000D01*
X137816594Y-127673000D01*
X137427000Y-127673000D01*
X137427000Y-125685750D01*
X137515000Y-125685750D01*
X137515000Y-126126309D01*
X137611673Y-126359698D01*
X137790301Y-126538327D01*
X138023690Y-126635000D01*
X138314250Y-126635000D01*
X138473000Y-126476250D01*
X138473000Y-125527000D01*
X138727000Y-125527000D01*
X138727000Y-126476250D01*
X138885750Y-126635000D01*
X139176310Y-126635000D01*
X139409699Y-126538327D01*
X139588327Y-126359698D01*
X139685000Y-126126309D01*
X139685000Y-125685750D01*
X139526250Y-125527000D01*
X138727000Y-125527000D01*
X138473000Y-125527000D01*
X137673750Y-125527000D01*
X137515000Y-125685750D01*
X137427000Y-125685750D01*
X137427000Y-125514479D01*
X140529068Y-125514479D01*
X140529068Y-125980039D01*
X140625741Y-126213428D01*
X140804370Y-126392056D01*
X141037759Y-126488729D01*
X141628318Y-126488729D01*
X141787068Y-126329979D01*
X141787068Y-125355729D01*
X142041068Y-125355729D01*
X142041068Y-126329979D01*
X142199818Y-126488729D01*
X142790377Y-126488729D01*
X143023766Y-126392056D01*
X143202395Y-126213428D01*
X143299068Y-125980039D01*
X143299068Y-125514479D01*
X143140318Y-125355729D01*
X142041068Y-125355729D01*
X141787068Y-125355729D01*
X140687818Y-125355729D01*
X140529068Y-125514479D01*
X137427000Y-125514479D01*
X137427000Y-124673691D01*
X137515000Y-124673691D01*
X137515000Y-125114250D01*
X137673750Y-125273000D01*
X138473000Y-125273000D01*
X138473000Y-124323750D01*
X138727000Y-124323750D01*
X138727000Y-125273000D01*
X139526250Y-125273000D01*
X139685000Y-125114250D01*
X139685000Y-124673691D01*
X139588327Y-124440302D01*
X139409699Y-124261673D01*
X139176310Y-124165000D01*
X138885750Y-124165000D01*
X138727000Y-124323750D01*
X138473000Y-124323750D01*
X138314250Y-124165000D01*
X138023690Y-124165000D01*
X137790301Y-124261673D01*
X137611673Y-124440302D01*
X137515000Y-124673691D01*
X137427000Y-124673691D01*
X137427000Y-123485750D01*
X140415000Y-123485750D01*
X140415000Y-123951310D01*
X140511673Y-124184699D01*
X140609709Y-124282735D01*
X140529068Y-124477419D01*
X140529068Y-124942979D01*
X140687818Y-125101729D01*
X141787068Y-125101729D01*
X141787068Y-124127479D01*
X141673000Y-124013411D01*
X141673000Y-123327000D01*
X141927000Y-123327000D01*
X141927000Y-124301250D01*
X142041068Y-124415318D01*
X142041068Y-125101729D01*
X143140318Y-125101729D01*
X143299068Y-124942979D01*
X143299068Y-124477419D01*
X143202395Y-124244030D01*
X143104359Y-124145994D01*
X143185000Y-123951310D01*
X143185000Y-123485750D01*
X143026250Y-123327000D01*
X141927000Y-123327000D01*
X141673000Y-123327000D01*
X140573750Y-123327000D01*
X140415000Y-123485750D01*
X137427000Y-123485750D01*
X137427000Y-122448690D01*
X140415000Y-122448690D01*
X140415000Y-122914250D01*
X140573750Y-123073000D01*
X141673000Y-123073000D01*
X141673000Y-122098750D01*
X141927000Y-122098750D01*
X141927000Y-123073000D01*
X143026250Y-123073000D01*
X143185000Y-122914250D01*
X143185000Y-122448690D01*
X143088327Y-122215301D01*
X142909698Y-122036673D01*
X142676309Y-121940000D01*
X142085750Y-121940000D01*
X141927000Y-122098750D01*
X141673000Y-122098750D01*
X141514250Y-121940000D01*
X140923691Y-121940000D01*
X140690302Y-122036673D01*
X140511673Y-122215301D01*
X140415000Y-122448690D01*
X137427000Y-122448690D01*
X137427000Y-121685750D01*
X149065000Y-121685750D01*
X149065000Y-122526309D01*
X149161673Y-122759698D01*
X149340301Y-122938327D01*
X149573690Y-123035000D01*
X150414250Y-123035000D01*
X150573000Y-122876250D01*
X150573000Y-121527000D01*
X150827000Y-121527000D01*
X150827000Y-122876250D01*
X150985750Y-123035000D01*
X151826310Y-123035000D01*
X152059699Y-122938327D01*
X152238327Y-122759698D01*
X152335000Y-122526309D01*
X152335000Y-121685750D01*
X152176250Y-121527000D01*
X150827000Y-121527000D01*
X150573000Y-121527000D01*
X149223750Y-121527000D01*
X149065000Y-121685750D01*
X137427000Y-121685750D01*
X137427000Y-120752606D01*
X137905915Y-120273691D01*
X149065000Y-120273691D01*
X149065000Y-121114250D01*
X149223750Y-121273000D01*
X150573000Y-121273000D01*
X150573000Y-119923750D01*
X150827000Y-119923750D01*
X150827000Y-121273000D01*
X152176250Y-121273000D01*
X152335000Y-121114250D01*
X152335000Y-120273691D01*
X152238327Y-120040302D01*
X152059699Y-119861673D01*
X151826310Y-119765000D01*
X150985750Y-119765000D01*
X150827000Y-119923750D01*
X150573000Y-119923750D01*
X150414250Y-119765000D01*
X149573690Y-119765000D01*
X149340301Y-119861673D01*
X149161673Y-120040302D01*
X149065000Y-120273691D01*
X137905915Y-120273691D01*
X138552606Y-119627000D01*
X153947394Y-119627000D01*
X156973000Y-122652606D01*
X156973000Y-122652606D01*
G37*
X156973000Y-122652606D02*
X156973000Y-126731000D01*
X156769750Y-126731000D01*
X156611000Y-126889750D01*
X156611000Y-127604051D01*
X156357000Y-127919011D01*
X156357000Y-126889750D01*
X156198250Y-126731000D01*
X154607691Y-126731000D01*
X154374302Y-126827673D01*
X154195673Y-127006301D01*
X154099000Y-127239690D01*
X154099000Y-128830250D01*
X154257750Y-128989000D01*
X155494106Y-128989000D01*
X155289267Y-129243000D01*
X154257750Y-129243000D01*
X154099000Y-129401750D01*
X154099000Y-129619394D01*
X146589803Y-122110197D01*
X146548601Y-122082667D01*
X146500000Y-122073000D01*
X143600000Y-122073000D01*
X143551399Y-122082667D01*
X143510197Y-122110197D01*
X143482667Y-122151399D01*
X143473000Y-122200000D01*
X143473000Y-122256910D01*
X143422411Y-122266973D01*
X143314246Y-122339246D01*
X143241973Y-122447411D01*
X143216594Y-122575000D01*
X143216594Y-123825000D01*
X143241973Y-123952589D01*
X143314246Y-124060754D01*
X143422411Y-124133027D01*
X143473000Y-124143090D01*
X143473000Y-124338117D01*
X143428314Y-124367975D01*
X143356041Y-124476140D01*
X143330662Y-124603729D01*
X143330662Y-125853729D01*
X143356041Y-125981318D01*
X143428314Y-126089483D01*
X143473000Y-126119341D01*
X143473000Y-127673000D01*
X141940043Y-127673000D01*
X141814358Y-127648000D01*
X141769840Y-127639145D01*
X141725322Y-127648000D01*
X139844516Y-127648000D01*
X139799999Y-127639145D01*
X139755483Y-127648000D01*
X139755482Y-127648000D01*
X139629797Y-127673000D01*
X139383406Y-127673000D01*
X139383406Y-127000000D01*
X139358027Y-126872411D01*
X139285754Y-126764246D01*
X139177589Y-126691973D01*
X139050000Y-126666594D01*
X138150000Y-126666594D01*
X138022411Y-126691973D01*
X137914246Y-126764246D01*
X137841973Y-126872411D01*
X137816594Y-127000000D01*
X137816594Y-127673000D01*
X137427000Y-127673000D01*
X137427000Y-125685750D01*
X137515000Y-125685750D01*
X137515000Y-126126309D01*
X137611673Y-126359698D01*
X137790301Y-126538327D01*
X138023690Y-126635000D01*
X138314250Y-126635000D01*
X138473000Y-126476250D01*
X138473000Y-125527000D01*
X138727000Y-125527000D01*
X138727000Y-126476250D01*
X138885750Y-126635000D01*
X139176310Y-126635000D01*
X139409699Y-126538327D01*
X139588327Y-126359698D01*
X139685000Y-126126309D01*
X139685000Y-125685750D01*
X139526250Y-125527000D01*
X138727000Y-125527000D01*
X138473000Y-125527000D01*
X137673750Y-125527000D01*
X137515000Y-125685750D01*
X137427000Y-125685750D01*
X137427000Y-125514479D01*
X140529068Y-125514479D01*
X140529068Y-125980039D01*
X140625741Y-126213428D01*
X140804370Y-126392056D01*
X141037759Y-126488729D01*
X141628318Y-126488729D01*
X141787068Y-126329979D01*
X141787068Y-125355729D01*
X142041068Y-125355729D01*
X142041068Y-126329979D01*
X142199818Y-126488729D01*
X142790377Y-126488729D01*
X143023766Y-126392056D01*
X143202395Y-126213428D01*
X143299068Y-125980039D01*
X143299068Y-125514479D01*
X143140318Y-125355729D01*
X142041068Y-125355729D01*
X141787068Y-125355729D01*
X140687818Y-125355729D01*
X140529068Y-125514479D01*
X137427000Y-125514479D01*
X137427000Y-124673691D01*
X137515000Y-124673691D01*
X137515000Y-125114250D01*
X137673750Y-125273000D01*
X138473000Y-125273000D01*
X138473000Y-124323750D01*
X138727000Y-124323750D01*
X138727000Y-125273000D01*
X139526250Y-125273000D01*
X139685000Y-125114250D01*
X139685000Y-124673691D01*
X139588327Y-124440302D01*
X139409699Y-124261673D01*
X139176310Y-124165000D01*
X138885750Y-124165000D01*
X138727000Y-124323750D01*
X138473000Y-124323750D01*
X138314250Y-124165000D01*
X138023690Y-124165000D01*
X137790301Y-124261673D01*
X137611673Y-124440302D01*
X137515000Y-124673691D01*
X137427000Y-124673691D01*
X137427000Y-123485750D01*
X140415000Y-123485750D01*
X140415000Y-123951310D01*
X140511673Y-124184699D01*
X140609709Y-124282735D01*
X140529068Y-124477419D01*
X140529068Y-124942979D01*
X140687818Y-125101729D01*
X141787068Y-125101729D01*
X141787068Y-124127479D01*
X141673000Y-124013411D01*
X141673000Y-123327000D01*
X141927000Y-123327000D01*
X141927000Y-124301250D01*
X142041068Y-124415318D01*
X142041068Y-125101729D01*
X143140318Y-125101729D01*
X143299068Y-124942979D01*
X143299068Y-124477419D01*
X143202395Y-124244030D01*
X143104359Y-124145994D01*
X143185000Y-123951310D01*
X143185000Y-123485750D01*
X143026250Y-123327000D01*
X141927000Y-123327000D01*
X141673000Y-123327000D01*
X140573750Y-123327000D01*
X140415000Y-123485750D01*
X137427000Y-123485750D01*
X137427000Y-122448690D01*
X140415000Y-122448690D01*
X140415000Y-122914250D01*
X140573750Y-123073000D01*
X141673000Y-123073000D01*
X141673000Y-122098750D01*
X141927000Y-122098750D01*
X141927000Y-123073000D01*
X143026250Y-123073000D01*
X143185000Y-122914250D01*
X143185000Y-122448690D01*
X143088327Y-122215301D01*
X142909698Y-122036673D01*
X142676309Y-121940000D01*
X142085750Y-121940000D01*
X141927000Y-122098750D01*
X141673000Y-122098750D01*
X141514250Y-121940000D01*
X140923691Y-121940000D01*
X140690302Y-122036673D01*
X140511673Y-122215301D01*
X140415000Y-122448690D01*
X137427000Y-122448690D01*
X137427000Y-121685750D01*
X149065000Y-121685750D01*
X149065000Y-122526309D01*
X149161673Y-122759698D01*
X149340301Y-122938327D01*
X149573690Y-123035000D01*
X150414250Y-123035000D01*
X150573000Y-122876250D01*
X150573000Y-121527000D01*
X150827000Y-121527000D01*
X150827000Y-122876250D01*
X150985750Y-123035000D01*
X151826310Y-123035000D01*
X152059699Y-122938327D01*
X152238327Y-122759698D01*
X152335000Y-122526309D01*
X152335000Y-121685750D01*
X152176250Y-121527000D01*
X150827000Y-121527000D01*
X150573000Y-121527000D01*
X149223750Y-121527000D01*
X149065000Y-121685750D01*
X137427000Y-121685750D01*
X137427000Y-120752606D01*
X137905915Y-120273691D01*
X149065000Y-120273691D01*
X149065000Y-121114250D01*
X149223750Y-121273000D01*
X150573000Y-121273000D01*
X150573000Y-119923750D01*
X150827000Y-119923750D01*
X150827000Y-121273000D01*
X152176250Y-121273000D01*
X152335000Y-121114250D01*
X152335000Y-120273691D01*
X152238327Y-120040302D01*
X152059699Y-119861673D01*
X151826310Y-119765000D01*
X150985750Y-119765000D01*
X150827000Y-119923750D01*
X150573000Y-119923750D01*
X150414250Y-119765000D01*
X149573690Y-119765000D01*
X149340301Y-119861673D01*
X149161673Y-120040302D01*
X149065000Y-120273691D01*
X137905915Y-120273691D01*
X138552606Y-119627000D01*
X153947394Y-119627000D01*
X156973000Y-122652606D01*
G04 #@! TO.N,/Always_On/Ground*
G36*
X160099000Y-127239690D02*
X160099000Y-128830250D01*
X160257750Y-128989000D01*
X162357000Y-128989000D01*
X162357000Y-128969000D01*
X162611000Y-128969000D01*
X162611000Y-128989000D01*
X162631000Y-128989000D01*
X162631000Y-129243000D01*
X162611000Y-129243000D01*
X162611000Y-131342250D01*
X162769750Y-131501000D01*
X164360309Y-131501000D01*
X164573000Y-131412900D01*
X164573000Y-133130701D01*
X162093099Y-134726463D01*
X161774944Y-134408308D01*
X161158576Y-134153000D01*
X160491424Y-134153000D01*
X159875056Y-134408308D01*
X159403308Y-134880056D01*
X159148000Y-135496424D01*
X159148000Y-136163576D01*
X159297784Y-136525187D01*
X153162670Y-140473000D01*
X144727000Y-140473000D01*
X144727000Y-140295409D01*
X144763319Y-140331728D01*
X145353878Y-140331728D01*
X145587267Y-140235055D01*
X145765896Y-140056427D01*
X145862569Y-139823038D01*
X145862569Y-139357478D01*
X145703819Y-139198728D01*
X144727000Y-139198728D01*
X144727000Y-138944728D01*
X145703819Y-138944728D01*
X145862569Y-138785978D01*
X145862569Y-138320418D01*
X145766081Y-138087477D01*
X145862568Y-137854538D01*
X145862568Y-137388978D01*
X145703818Y-137230228D01*
X144727000Y-137230228D01*
X144727000Y-136976228D01*
X145703818Y-136976228D01*
X145862568Y-136817478D01*
X145862568Y-136351918D01*
X145766081Y-136118979D01*
X145862569Y-135886038D01*
X145862569Y-135420478D01*
X145703819Y-135261728D01*
X144727000Y-135261728D01*
X144727000Y-135007728D01*
X145703819Y-135007728D01*
X145862569Y-134848978D01*
X145862569Y-134383418D01*
X145765896Y-134150029D01*
X145587267Y-133971401D01*
X145353878Y-133874728D01*
X145294580Y-133874728D01*
X145327595Y-133825317D01*
X145352974Y-133697728D01*
X145352974Y-132497728D01*
X145327595Y-132370139D01*
X145320959Y-132360207D01*
X145379267Y-132336055D01*
X145557895Y-132157426D01*
X145654568Y-131924037D01*
X145654568Y-131679229D01*
X147102162Y-131679229D01*
X147102162Y-133579229D01*
X147127541Y-133706818D01*
X147199814Y-133814983D01*
X147307979Y-133887256D01*
X147435568Y-133912635D01*
X150235568Y-133912635D01*
X150363157Y-133887256D01*
X150471322Y-133814983D01*
X150543595Y-133706818D01*
X150568974Y-133579229D01*
X150568974Y-131679229D01*
X150543595Y-131551640D01*
X150471322Y-131443475D01*
X150363157Y-131371202D01*
X150243278Y-131347357D01*
X150243278Y-131292650D01*
X150247823Y-131288105D01*
X150343278Y-131057656D01*
X150343278Y-130808220D01*
X150247823Y-130577771D01*
X150071445Y-130401393D01*
X149840996Y-130305938D01*
X149591560Y-130305938D01*
X149361111Y-130401393D01*
X149240029Y-130522476D01*
X149118946Y-130401393D01*
X148888497Y-130305938D01*
X148639061Y-130305938D01*
X148408612Y-130401393D01*
X148287529Y-130522476D01*
X148166446Y-130401393D01*
X147935997Y-130305938D01*
X147686561Y-130305938D01*
X147456112Y-130401393D01*
X147279734Y-130577771D01*
X147184279Y-130808220D01*
X147184279Y-131057656D01*
X147279734Y-131288105D01*
X147284279Y-131292650D01*
X147284279Y-131387038D01*
X147199814Y-131443475D01*
X147127541Y-131551640D01*
X147102162Y-131679229D01*
X145654568Y-131679229D01*
X145654568Y-131483478D01*
X145495818Y-131324728D01*
X144771568Y-131324728D01*
X144771568Y-131344728D01*
X144727000Y-131344728D01*
X144727000Y-131050728D01*
X144771568Y-131050728D01*
X144771568Y-131070728D01*
X145495818Y-131070728D01*
X145654568Y-130911978D01*
X145654568Y-130471419D01*
X145557895Y-130238030D01*
X145499094Y-130179229D01*
X145557896Y-130120426D01*
X145654569Y-129887037D01*
X145654569Y-129446478D01*
X145495819Y-129287728D01*
X144771569Y-129287728D01*
X144771569Y-129307728D01*
X144727000Y-129307728D01*
X144727000Y-129013728D01*
X144771569Y-129013728D01*
X144771569Y-129033728D01*
X145495819Y-129033728D01*
X145654569Y-128874978D01*
X145654569Y-128434419D01*
X145610075Y-128327000D01*
X147102162Y-128327000D01*
X147102162Y-128679229D01*
X147127541Y-128806818D01*
X147199814Y-128914983D01*
X147284279Y-128971420D01*
X147284279Y-129081806D01*
X147279734Y-129086351D01*
X147184279Y-129316800D01*
X147184279Y-129566236D01*
X147279734Y-129796685D01*
X147456112Y-129973063D01*
X147686561Y-130068518D01*
X147935997Y-130068518D01*
X148166446Y-129973063D01*
X148287529Y-129851980D01*
X148408612Y-129973063D01*
X148639061Y-130068518D01*
X148888497Y-130068518D01*
X149118946Y-129973063D01*
X149240029Y-129851981D01*
X149361111Y-129973063D01*
X149591560Y-130068518D01*
X149840996Y-130068518D01*
X150071445Y-129973063D01*
X150247823Y-129796685D01*
X150343278Y-129566236D01*
X150343278Y-129316800D01*
X150247823Y-129086351D01*
X150243278Y-129081806D01*
X150243278Y-129011101D01*
X150363157Y-128987256D01*
X150471322Y-128914983D01*
X150543595Y-128806818D01*
X150568974Y-128679229D01*
X150568974Y-128327000D01*
X151347394Y-128327000D01*
X155410197Y-132389803D01*
X155451399Y-132417333D01*
X155500000Y-132427000D01*
X158500000Y-132427000D01*
X158548601Y-132417333D01*
X158589803Y-132389803D01*
X158989803Y-131989803D01*
X159017333Y-131948601D01*
X159027000Y-131900000D01*
X159027000Y-129401750D01*
X160099000Y-129401750D01*
X160099000Y-130992310D01*
X160195673Y-131225699D01*
X160374302Y-131404327D01*
X160607691Y-131501000D01*
X162198250Y-131501000D01*
X162357000Y-131342250D01*
X162357000Y-129243000D01*
X160257750Y-129243000D01*
X160099000Y-129401750D01*
X159027000Y-129401750D01*
X159027000Y-127227000D01*
X160104256Y-127227000D01*
X160099000Y-127239690D01*
X160099000Y-127239690D01*
G37*
X160099000Y-127239690D02*
X160099000Y-128830250D01*
X160257750Y-128989000D01*
X162357000Y-128989000D01*
X162357000Y-128969000D01*
X162611000Y-128969000D01*
X162611000Y-128989000D01*
X162631000Y-128989000D01*
X162631000Y-129243000D01*
X162611000Y-129243000D01*
X162611000Y-131342250D01*
X162769750Y-131501000D01*
X164360309Y-131501000D01*
X164573000Y-131412900D01*
X164573000Y-133130701D01*
X162093099Y-134726463D01*
X161774944Y-134408308D01*
X161158576Y-134153000D01*
X160491424Y-134153000D01*
X159875056Y-134408308D01*
X159403308Y-134880056D01*
X159148000Y-135496424D01*
X159148000Y-136163576D01*
X159297784Y-136525187D01*
X153162670Y-140473000D01*
X144727000Y-140473000D01*
X144727000Y-140295409D01*
X144763319Y-140331728D01*
X145353878Y-140331728D01*
X145587267Y-140235055D01*
X145765896Y-140056427D01*
X145862569Y-139823038D01*
X145862569Y-139357478D01*
X145703819Y-139198728D01*
X144727000Y-139198728D01*
X144727000Y-138944728D01*
X145703819Y-138944728D01*
X145862569Y-138785978D01*
X145862569Y-138320418D01*
X145766081Y-138087477D01*
X145862568Y-137854538D01*
X145862568Y-137388978D01*
X145703818Y-137230228D01*
X144727000Y-137230228D01*
X144727000Y-136976228D01*
X145703818Y-136976228D01*
X145862568Y-136817478D01*
X145862568Y-136351918D01*
X145766081Y-136118979D01*
X145862569Y-135886038D01*
X145862569Y-135420478D01*
X145703819Y-135261728D01*
X144727000Y-135261728D01*
X144727000Y-135007728D01*
X145703819Y-135007728D01*
X145862569Y-134848978D01*
X145862569Y-134383418D01*
X145765896Y-134150029D01*
X145587267Y-133971401D01*
X145353878Y-133874728D01*
X145294580Y-133874728D01*
X145327595Y-133825317D01*
X145352974Y-133697728D01*
X145352974Y-132497728D01*
X145327595Y-132370139D01*
X145320959Y-132360207D01*
X145379267Y-132336055D01*
X145557895Y-132157426D01*
X145654568Y-131924037D01*
X145654568Y-131679229D01*
X147102162Y-131679229D01*
X147102162Y-133579229D01*
X147127541Y-133706818D01*
X147199814Y-133814983D01*
X147307979Y-133887256D01*
X147435568Y-133912635D01*
X150235568Y-133912635D01*
X150363157Y-133887256D01*
X150471322Y-133814983D01*
X150543595Y-133706818D01*
X150568974Y-133579229D01*
X150568974Y-131679229D01*
X150543595Y-131551640D01*
X150471322Y-131443475D01*
X150363157Y-131371202D01*
X150243278Y-131347357D01*
X150243278Y-131292650D01*
X150247823Y-131288105D01*
X150343278Y-131057656D01*
X150343278Y-130808220D01*
X150247823Y-130577771D01*
X150071445Y-130401393D01*
X149840996Y-130305938D01*
X149591560Y-130305938D01*
X149361111Y-130401393D01*
X149240029Y-130522476D01*
X149118946Y-130401393D01*
X148888497Y-130305938D01*
X148639061Y-130305938D01*
X148408612Y-130401393D01*
X148287529Y-130522476D01*
X148166446Y-130401393D01*
X147935997Y-130305938D01*
X147686561Y-130305938D01*
X147456112Y-130401393D01*
X147279734Y-130577771D01*
X147184279Y-130808220D01*
X147184279Y-131057656D01*
X147279734Y-131288105D01*
X147284279Y-131292650D01*
X147284279Y-131387038D01*
X147199814Y-131443475D01*
X147127541Y-131551640D01*
X147102162Y-131679229D01*
X145654568Y-131679229D01*
X145654568Y-131483478D01*
X145495818Y-131324728D01*
X144771568Y-131324728D01*
X144771568Y-131344728D01*
X144727000Y-131344728D01*
X144727000Y-131050728D01*
X144771568Y-131050728D01*
X144771568Y-131070728D01*
X145495818Y-131070728D01*
X145654568Y-130911978D01*
X145654568Y-130471419D01*
X145557895Y-130238030D01*
X145499094Y-130179229D01*
X145557896Y-130120426D01*
X145654569Y-129887037D01*
X145654569Y-129446478D01*
X145495819Y-129287728D01*
X144771569Y-129287728D01*
X144771569Y-129307728D01*
X144727000Y-129307728D01*
X144727000Y-129013728D01*
X144771569Y-129013728D01*
X144771569Y-129033728D01*
X145495819Y-129033728D01*
X145654569Y-128874978D01*
X145654569Y-128434419D01*
X145610075Y-128327000D01*
X147102162Y-128327000D01*
X147102162Y-128679229D01*
X147127541Y-128806818D01*
X147199814Y-128914983D01*
X147284279Y-128971420D01*
X147284279Y-129081806D01*
X147279734Y-129086351D01*
X147184279Y-129316800D01*
X147184279Y-129566236D01*
X147279734Y-129796685D01*
X147456112Y-129973063D01*
X147686561Y-130068518D01*
X147935997Y-130068518D01*
X148166446Y-129973063D01*
X148287529Y-129851980D01*
X148408612Y-129973063D01*
X148639061Y-130068518D01*
X148888497Y-130068518D01*
X149118946Y-129973063D01*
X149240029Y-129851981D01*
X149361111Y-129973063D01*
X149591560Y-130068518D01*
X149840996Y-130068518D01*
X150071445Y-129973063D01*
X150247823Y-129796685D01*
X150343278Y-129566236D01*
X150343278Y-129316800D01*
X150247823Y-129086351D01*
X150243278Y-129081806D01*
X150243278Y-129011101D01*
X150363157Y-128987256D01*
X150471322Y-128914983D01*
X150543595Y-128806818D01*
X150568974Y-128679229D01*
X150568974Y-128327000D01*
X151347394Y-128327000D01*
X155410197Y-132389803D01*
X155451399Y-132417333D01*
X155500000Y-132427000D01*
X158500000Y-132427000D01*
X158548601Y-132417333D01*
X158589803Y-132389803D01*
X158989803Y-131989803D01*
X159017333Y-131948601D01*
X159027000Y-131900000D01*
X159027000Y-129401750D01*
X160099000Y-129401750D01*
X160099000Y-130992310D01*
X160195673Y-131225699D01*
X160374302Y-131404327D01*
X160607691Y-131501000D01*
X162198250Y-131501000D01*
X162357000Y-131342250D01*
X162357000Y-129243000D01*
X160257750Y-129243000D01*
X160099000Y-129401750D01*
X159027000Y-129401750D01*
X159027000Y-127227000D01*
X160104256Y-127227000D01*
X160099000Y-127239690D01*
G04 #@! TO.N,+5V*
G36*
X140797068Y-131872978D02*
X140797068Y-132013538D01*
X140893741Y-132246927D01*
X141072370Y-132425555D01*
X141305759Y-132522228D01*
X141335818Y-132522228D01*
X141494568Y-132363478D01*
X141494568Y-131827000D01*
X141598662Y-131827000D01*
X141598662Y-131837228D01*
X141619568Y-131942330D01*
X141619568Y-132363478D01*
X141778318Y-132522228D01*
X141808377Y-132522228D01*
X141992696Y-132445881D01*
X142022370Y-132475555D01*
X142255759Y-132572228D01*
X142521318Y-132572228D01*
X142680068Y-132413478D01*
X142680068Y-131827000D01*
X142934068Y-131827000D01*
X142934068Y-132413478D01*
X143092818Y-132572228D01*
X143358377Y-132572228D01*
X143591766Y-132475555D01*
X143634568Y-132432753D01*
X143634568Y-132811978D01*
X143773000Y-132950410D01*
X143773000Y-133245046D01*
X143634568Y-133383478D01*
X143634568Y-133824037D01*
X143731241Y-134057426D01*
X143773000Y-134099185D01*
X143773000Y-134176322D01*
X143727569Y-134176322D01*
X143599980Y-134201701D01*
X143491815Y-134273974D01*
X143419542Y-134382139D01*
X143394163Y-134509728D01*
X143394163Y-135759728D01*
X143419542Y-135887317D01*
X143491815Y-135995482D01*
X143599980Y-136067755D01*
X143727569Y-136093134D01*
X143773000Y-136093134D01*
X143773000Y-136144822D01*
X143727568Y-136144822D01*
X143599979Y-136170201D01*
X143491814Y-136242474D01*
X143419541Y-136350639D01*
X143394162Y-136478228D01*
X143394162Y-137728228D01*
X143419541Y-137855817D01*
X143491814Y-137963982D01*
X143599979Y-138036255D01*
X143727568Y-138061634D01*
X143773000Y-138061634D01*
X143773000Y-138113322D01*
X143727569Y-138113322D01*
X143599980Y-138138701D01*
X143491815Y-138210974D01*
X143419542Y-138319139D01*
X143394163Y-138446728D01*
X143394163Y-139696728D01*
X143419542Y-139824317D01*
X143491815Y-139932482D01*
X143599980Y-140004755D01*
X143727569Y-140030134D01*
X143773000Y-140030134D01*
X143773000Y-141047394D01*
X143547394Y-141273000D01*
X140352606Y-141273000D01*
X140127000Y-141047394D01*
X140127000Y-139357478D01*
X140592569Y-139357478D01*
X140592569Y-139823038D01*
X140689242Y-140056427D01*
X140867871Y-140235055D01*
X141101260Y-140331728D01*
X141691819Y-140331728D01*
X141850569Y-140172978D01*
X141850569Y-139198728D01*
X142104569Y-139198728D01*
X142104569Y-140172978D01*
X142263319Y-140331728D01*
X142853878Y-140331728D01*
X143087267Y-140235055D01*
X143265896Y-140056427D01*
X143362569Y-139823038D01*
X143362569Y-139357478D01*
X143203819Y-139198728D01*
X142104569Y-139198728D01*
X141850569Y-139198728D01*
X140751319Y-139198728D01*
X140592569Y-139357478D01*
X140127000Y-139357478D01*
X140127000Y-137388978D01*
X140592568Y-137388978D01*
X140592568Y-137854538D01*
X140689056Y-138087479D01*
X140592569Y-138320418D01*
X140592569Y-138785978D01*
X140751319Y-138944728D01*
X141850569Y-138944728D01*
X141850569Y-137970478D01*
X141850568Y-137970477D01*
X141850568Y-137230228D01*
X142104568Y-137230228D01*
X142104568Y-138204478D01*
X142104569Y-138204479D01*
X142104569Y-138944728D01*
X143203819Y-138944728D01*
X143362569Y-138785978D01*
X143362569Y-138320418D01*
X143266081Y-138087477D01*
X143362568Y-137854538D01*
X143362568Y-137388978D01*
X143203818Y-137230228D01*
X142104568Y-137230228D01*
X141850568Y-137230228D01*
X140751318Y-137230228D01*
X140592568Y-137388978D01*
X140127000Y-137388978D01*
X140127000Y-136351918D01*
X140592568Y-136351918D01*
X140592568Y-136817478D01*
X140751318Y-136976228D01*
X141850568Y-136976228D01*
X141850568Y-136235979D01*
X141850569Y-136235978D01*
X141850569Y-136001978D01*
X142104568Y-136001978D01*
X142104568Y-136976228D01*
X143203818Y-136976228D01*
X143362568Y-136817478D01*
X143362568Y-136351918D01*
X143266081Y-136118979D01*
X143362569Y-135886038D01*
X143362569Y-135420478D01*
X143203819Y-135261728D01*
X142104569Y-135261728D01*
X142104569Y-136001977D01*
X142104568Y-136001978D01*
X141850569Y-136001978D01*
X141850569Y-135261728D01*
X140751319Y-135261728D01*
X140592569Y-135420478D01*
X140592569Y-135886038D01*
X140689056Y-136118977D01*
X140592568Y-136351918D01*
X140127000Y-136351918D01*
X140127000Y-134383418D01*
X140592569Y-134383418D01*
X140592569Y-134848978D01*
X140751319Y-135007728D01*
X141850569Y-135007728D01*
X141850569Y-134033478D01*
X142104569Y-134033478D01*
X142104569Y-135007728D01*
X143203819Y-135007728D01*
X143362569Y-134848978D01*
X143362569Y-134383418D01*
X143265896Y-134150029D01*
X143087267Y-133971401D01*
X142853878Y-133874728D01*
X142263319Y-133874728D01*
X142104569Y-134033478D01*
X141850569Y-134033478D01*
X141691819Y-133874728D01*
X141101260Y-133874728D01*
X140867871Y-133971401D01*
X140689242Y-134150029D01*
X140592569Y-134383418D01*
X140127000Y-134383418D01*
X140127000Y-133699189D01*
X140225775Y-133551362D01*
X140252000Y-133419518D01*
X140260855Y-133375000D01*
X140252000Y-133330482D01*
X140252000Y-132265699D01*
X140448186Y-131991039D01*
X140612224Y-131827000D01*
X140843046Y-131827000D01*
X140797068Y-131872978D01*
X140797068Y-131872978D01*
G37*
X140797068Y-131872978D02*
X140797068Y-132013538D01*
X140893741Y-132246927D01*
X141072370Y-132425555D01*
X141305759Y-132522228D01*
X141335818Y-132522228D01*
X141494568Y-132363478D01*
X141494568Y-131827000D01*
X141598662Y-131827000D01*
X141598662Y-131837228D01*
X141619568Y-131942330D01*
X141619568Y-132363478D01*
X141778318Y-132522228D01*
X141808377Y-132522228D01*
X141992696Y-132445881D01*
X142022370Y-132475555D01*
X142255759Y-132572228D01*
X142521318Y-132572228D01*
X142680068Y-132413478D01*
X142680068Y-131827000D01*
X142934068Y-131827000D01*
X142934068Y-132413478D01*
X143092818Y-132572228D01*
X143358377Y-132572228D01*
X143591766Y-132475555D01*
X143634568Y-132432753D01*
X143634568Y-132811978D01*
X143773000Y-132950410D01*
X143773000Y-133245046D01*
X143634568Y-133383478D01*
X143634568Y-133824037D01*
X143731241Y-134057426D01*
X143773000Y-134099185D01*
X143773000Y-134176322D01*
X143727569Y-134176322D01*
X143599980Y-134201701D01*
X143491815Y-134273974D01*
X143419542Y-134382139D01*
X143394163Y-134509728D01*
X143394163Y-135759728D01*
X143419542Y-135887317D01*
X143491815Y-135995482D01*
X143599980Y-136067755D01*
X143727569Y-136093134D01*
X143773000Y-136093134D01*
X143773000Y-136144822D01*
X143727568Y-136144822D01*
X143599979Y-136170201D01*
X143491814Y-136242474D01*
X143419541Y-136350639D01*
X143394162Y-136478228D01*
X143394162Y-137728228D01*
X143419541Y-137855817D01*
X143491814Y-137963982D01*
X143599979Y-138036255D01*
X143727568Y-138061634D01*
X143773000Y-138061634D01*
X143773000Y-138113322D01*
X143727569Y-138113322D01*
X143599980Y-138138701D01*
X143491815Y-138210974D01*
X143419542Y-138319139D01*
X143394163Y-138446728D01*
X143394163Y-139696728D01*
X143419542Y-139824317D01*
X143491815Y-139932482D01*
X143599980Y-140004755D01*
X143727569Y-140030134D01*
X143773000Y-140030134D01*
X143773000Y-141047394D01*
X143547394Y-141273000D01*
X140352606Y-141273000D01*
X140127000Y-141047394D01*
X140127000Y-139357478D01*
X140592569Y-139357478D01*
X140592569Y-139823038D01*
X140689242Y-140056427D01*
X140867871Y-140235055D01*
X141101260Y-140331728D01*
X141691819Y-140331728D01*
X141850569Y-140172978D01*
X141850569Y-139198728D01*
X142104569Y-139198728D01*
X142104569Y-140172978D01*
X142263319Y-140331728D01*
X142853878Y-140331728D01*
X143087267Y-140235055D01*
X143265896Y-140056427D01*
X143362569Y-139823038D01*
X143362569Y-139357478D01*
X143203819Y-139198728D01*
X142104569Y-139198728D01*
X141850569Y-139198728D01*
X140751319Y-139198728D01*
X140592569Y-139357478D01*
X140127000Y-139357478D01*
X140127000Y-137388978D01*
X140592568Y-137388978D01*
X140592568Y-137854538D01*
X140689056Y-138087479D01*
X140592569Y-138320418D01*
X140592569Y-138785978D01*
X140751319Y-138944728D01*
X141850569Y-138944728D01*
X141850569Y-137970478D01*
X141850568Y-137970477D01*
X141850568Y-137230228D01*
X142104568Y-137230228D01*
X142104568Y-138204478D01*
X142104569Y-138204479D01*
X142104569Y-138944728D01*
X143203819Y-138944728D01*
X143362569Y-138785978D01*
X143362569Y-138320418D01*
X143266081Y-138087477D01*
X143362568Y-137854538D01*
X143362568Y-137388978D01*
X143203818Y-137230228D01*
X142104568Y-137230228D01*
X141850568Y-137230228D01*
X140751318Y-137230228D01*
X140592568Y-137388978D01*
X140127000Y-137388978D01*
X140127000Y-136351918D01*
X140592568Y-136351918D01*
X140592568Y-136817478D01*
X140751318Y-136976228D01*
X141850568Y-136976228D01*
X141850568Y-136235979D01*
X141850569Y-136235978D01*
X141850569Y-136001978D01*
X142104568Y-136001978D01*
X142104568Y-136976228D01*
X143203818Y-136976228D01*
X143362568Y-136817478D01*
X143362568Y-136351918D01*
X143266081Y-136118979D01*
X143362569Y-135886038D01*
X143362569Y-135420478D01*
X143203819Y-135261728D01*
X142104569Y-135261728D01*
X142104569Y-136001977D01*
X142104568Y-136001978D01*
X141850569Y-136001978D01*
X141850569Y-135261728D01*
X140751319Y-135261728D01*
X140592569Y-135420478D01*
X140592569Y-135886038D01*
X140689056Y-136118977D01*
X140592568Y-136351918D01*
X140127000Y-136351918D01*
X140127000Y-134383418D01*
X140592569Y-134383418D01*
X140592569Y-134848978D01*
X140751319Y-135007728D01*
X141850569Y-135007728D01*
X141850569Y-134033478D01*
X142104569Y-134033478D01*
X142104569Y-135007728D01*
X143203819Y-135007728D01*
X143362569Y-134848978D01*
X143362569Y-134383418D01*
X143265896Y-134150029D01*
X143087267Y-133971401D01*
X142853878Y-133874728D01*
X142263319Y-133874728D01*
X142104569Y-134033478D01*
X141850569Y-134033478D01*
X141691819Y-133874728D01*
X141101260Y-133874728D01*
X140867871Y-133971401D01*
X140689242Y-134150029D01*
X140592569Y-134383418D01*
X140127000Y-134383418D01*
X140127000Y-133699189D01*
X140225775Y-133551362D01*
X140252000Y-133419518D01*
X140260855Y-133375000D01*
X140252000Y-133330482D01*
X140252000Y-132265699D01*
X140448186Y-131991039D01*
X140612224Y-131827000D01*
X140843046Y-131827000D01*
X140797068Y-131872978D01*
G04 #@! TO.N,GND*
G36*
X146973000Y-146452606D02*
X146973000Y-148647394D01*
X146747394Y-148873000D01*
X144352606Y-148873000D01*
X144027000Y-148547394D01*
X144027000Y-146352606D01*
X144252606Y-146127000D01*
X146647394Y-146127000D01*
X146973000Y-146452606D01*
X146973000Y-146452606D01*
G37*
X146973000Y-146452606D02*
X146973000Y-148647394D01*
X146747394Y-148873000D01*
X144352606Y-148873000D01*
X144027000Y-148547394D01*
X144027000Y-146352606D01*
X144252606Y-146127000D01*
X146647394Y-146127000D01*
X146973000Y-146452606D01*
G04 #@! TD*
M02*
