G04 #@! TF.GenerationSoftware,KiCad,Pcbnew,5.0.0-rc2-unknown-03fa645~65~ubuntu16.04.1*
G04 #@! TF.CreationDate,2018-06-29T10:26:33+12:00*
G04 #@! TF.ProjectId,pi-hat,70692D6861742E6B696361645F706362,rev?*
G04 #@! TF.SameCoordinates,Original*
G04 #@! TF.FileFunction,Soldermask,Top*
G04 #@! TF.FilePolarity,Negative*
%FSLAX46Y46*%
G04 Gerber Fmt 4.6, Leading zero omitted, Abs format (unit mm)*
G04 Created by KiCad (PCBNEW 5.0.0-rc2-unknown-03fa645~65~ubuntu16.04.1) date Fri Jun 29 10:26:33 2018*
%MOMM*%
%LPD*%
G01*
G04 APERTURE LIST*
%ADD10R,2.000000X1.400000*%
%ADD11R,3.200000X2.300000*%
%ADD12C,0.100000*%
%ADD13C,0.250000*%
%ADD14C,0.350000*%
%ADD15R,3.000000X4.060000*%
%ADD16R,3.000000X3.940000*%
%ADD17C,1.700000*%
%ADD18C,1.400000*%
%ADD19R,3.250000X1.830000*%
%ADD20R,1.300000X1.600000*%
%ADD21R,1.650000X1.900000*%
%ADD22C,2.400000*%
%ADD23R,2.400000X2.400000*%
%ADD24R,1.900000X1.650000*%
%ADD25R,1.150000X1.600000*%
%ADD26R,1.600000X1.300000*%
%ADD27R,1.400000X1.400000*%
%ADD28C,3.400000*%
%ADD29R,3.400000X3.400000*%
%ADD30R,1.300000X1.300000*%
%ADD31O,0.700000X1.150000*%
%ADD32O,1.150000X0.700000*%
%ADD33R,3.900000X3.900000*%
%ADD34R,2.400000X1.900000*%
%ADD35R,2.400000X4.200000*%
%ADD36O,2.000000X2.000000*%
%ADD37R,2.000000X2.000000*%
%ADD38C,2.150000*%
%ADD39R,2.150000X2.150000*%
%ADD40R,1.000000X1.950000*%
%ADD41O,2.100000X2.100000*%
%ADD42R,2.100000X2.100000*%
%ADD43R,1.200000X2.200000*%
%ADD44C,1.900000*%
%ADD45R,1.900000X1.900000*%
%ADD46C,1.920000*%
%ADD47C,3.100000*%
%ADD48C,6.000000*%
G04 APERTURE END LIST*
D10*
G04 #@! TO.C,SW1*
X146250000Y-156050000D03*
X148550000Y-154300000D03*
X146250000Y-152550000D03*
G04 #@! TD*
D11*
G04 #@! TO.C,L2*
X148835568Y-127729229D03*
X148835568Y-132629229D03*
G04 #@! TD*
D12*
G04 #@! TO.C,U7*
G36*
X143686969Y-129562469D02*
X143691823Y-129563189D01*
X143696582Y-129564381D01*
X143701202Y-129566034D01*
X143705638Y-129568132D01*
X143709847Y-129570655D01*
X143713788Y-129573577D01*
X143717423Y-129576873D01*
X143720719Y-129580508D01*
X143723641Y-129584449D01*
X143726164Y-129588658D01*
X143728262Y-129593094D01*
X143729915Y-129597714D01*
X143731107Y-129602473D01*
X143731827Y-129607327D01*
X143732068Y-129612228D01*
X143732068Y-129762228D01*
X143731827Y-129767129D01*
X143731107Y-129771983D01*
X143729915Y-129776742D01*
X143728262Y-129781362D01*
X143726164Y-129785798D01*
X143723641Y-129790007D01*
X143720719Y-129793948D01*
X143717423Y-129797583D01*
X143713788Y-129800879D01*
X143709847Y-129803801D01*
X143705638Y-129806324D01*
X143701202Y-129808422D01*
X143696582Y-129810075D01*
X143691823Y-129811267D01*
X143686969Y-129811987D01*
X143682068Y-129812228D01*
X142432068Y-129812228D01*
X142427167Y-129811987D01*
X142422313Y-129811267D01*
X142417554Y-129810075D01*
X142412934Y-129808422D01*
X142408498Y-129806324D01*
X142404289Y-129803801D01*
X142400348Y-129800879D01*
X142396713Y-129797583D01*
X142393417Y-129793948D01*
X142390495Y-129790007D01*
X142387972Y-129785798D01*
X142385874Y-129781362D01*
X142384221Y-129776742D01*
X142383029Y-129771983D01*
X142382309Y-129767129D01*
X142382068Y-129762228D01*
X142382068Y-129612228D01*
X142382309Y-129607327D01*
X142383029Y-129602473D01*
X142384221Y-129597714D01*
X142385874Y-129593094D01*
X142387972Y-129588658D01*
X142390495Y-129584449D01*
X142393417Y-129580508D01*
X142396713Y-129576873D01*
X142400348Y-129573577D01*
X142404289Y-129570655D01*
X142408498Y-129568132D01*
X142412934Y-129566034D01*
X142417554Y-129564381D01*
X142422313Y-129563189D01*
X142427167Y-129562469D01*
X142432068Y-129562228D01*
X143682068Y-129562228D01*
X143686969Y-129562469D01*
X143686969Y-129562469D01*
G37*
D13*
X143057068Y-129687228D03*
D12*
G36*
X143686969Y-130062469D02*
X143691823Y-130063189D01*
X143696582Y-130064381D01*
X143701202Y-130066034D01*
X143705638Y-130068132D01*
X143709847Y-130070655D01*
X143713788Y-130073577D01*
X143717423Y-130076873D01*
X143720719Y-130080508D01*
X143723641Y-130084449D01*
X143726164Y-130088658D01*
X143728262Y-130093094D01*
X143729915Y-130097714D01*
X143731107Y-130102473D01*
X143731827Y-130107327D01*
X143732068Y-130112228D01*
X143732068Y-130262228D01*
X143731827Y-130267129D01*
X143731107Y-130271983D01*
X143729915Y-130276742D01*
X143728262Y-130281362D01*
X143726164Y-130285798D01*
X143723641Y-130290007D01*
X143720719Y-130293948D01*
X143717423Y-130297583D01*
X143713788Y-130300879D01*
X143709847Y-130303801D01*
X143705638Y-130306324D01*
X143701202Y-130308422D01*
X143696582Y-130310075D01*
X143691823Y-130311267D01*
X143686969Y-130311987D01*
X143682068Y-130312228D01*
X142082068Y-130312228D01*
X142077167Y-130311987D01*
X142072313Y-130311267D01*
X142067554Y-130310075D01*
X142062934Y-130308422D01*
X142058498Y-130306324D01*
X142054289Y-130303801D01*
X142050348Y-130300879D01*
X142046713Y-130297583D01*
X142043417Y-130293948D01*
X142040495Y-130290007D01*
X142037972Y-130285798D01*
X142035874Y-130281362D01*
X142034221Y-130276742D01*
X142033029Y-130271983D01*
X142032309Y-130267129D01*
X142032068Y-130262228D01*
X142032068Y-130112228D01*
X142032309Y-130107327D01*
X142033029Y-130102473D01*
X142034221Y-130097714D01*
X142035874Y-130093094D01*
X142037972Y-130088658D01*
X142040495Y-130084449D01*
X142043417Y-130080508D01*
X142046713Y-130076873D01*
X142050348Y-130073577D01*
X142054289Y-130070655D01*
X142058498Y-130068132D01*
X142062934Y-130066034D01*
X142067554Y-130064381D01*
X142072313Y-130063189D01*
X142077167Y-130062469D01*
X142082068Y-130062228D01*
X143682068Y-130062228D01*
X143686969Y-130062469D01*
X143686969Y-130062469D01*
G37*
D13*
X142882068Y-130187228D03*
D12*
G36*
X142636969Y-128487469D02*
X142641823Y-128488189D01*
X142646582Y-128489381D01*
X142651202Y-128491034D01*
X142655638Y-128493132D01*
X142659847Y-128495655D01*
X142663788Y-128498577D01*
X142667423Y-128501873D01*
X142670719Y-128505508D01*
X142673641Y-128509449D01*
X142676164Y-128513658D01*
X142678262Y-128518094D01*
X142679915Y-128522714D01*
X142681107Y-128527473D01*
X142681827Y-128532327D01*
X142682068Y-128537228D01*
X142682068Y-129037228D01*
X142681827Y-129042129D01*
X142681107Y-129046983D01*
X142679915Y-129051742D01*
X142678262Y-129056362D01*
X142676164Y-129060798D01*
X142673641Y-129065007D01*
X142670719Y-129068948D01*
X142667423Y-129072583D01*
X142663788Y-129075879D01*
X142659847Y-129078801D01*
X142655638Y-129081324D01*
X142651202Y-129083422D01*
X142646582Y-129085075D01*
X142641823Y-129086267D01*
X142636969Y-129086987D01*
X142632068Y-129087228D01*
X142482068Y-129087228D01*
X142477167Y-129086987D01*
X142472313Y-129086267D01*
X142467554Y-129085075D01*
X142462934Y-129083422D01*
X142458498Y-129081324D01*
X142454289Y-129078801D01*
X142450348Y-129075879D01*
X142446713Y-129072583D01*
X142443417Y-129068948D01*
X142440495Y-129065007D01*
X142437972Y-129060798D01*
X142435874Y-129056362D01*
X142434221Y-129051742D01*
X142433029Y-129046983D01*
X142432309Y-129042129D01*
X142432068Y-129037228D01*
X142432068Y-128537228D01*
X142432309Y-128532327D01*
X142433029Y-128527473D01*
X142434221Y-128522714D01*
X142435874Y-128518094D01*
X142437972Y-128513658D01*
X142440495Y-128509449D01*
X142443417Y-128505508D01*
X142446713Y-128501873D01*
X142450348Y-128498577D01*
X142454289Y-128495655D01*
X142458498Y-128493132D01*
X142462934Y-128491034D01*
X142467554Y-128489381D01*
X142472313Y-128488189D01*
X142477167Y-128487469D01*
X142482068Y-128487228D01*
X142632068Y-128487228D01*
X142636969Y-128487469D01*
X142636969Y-128487469D01*
G37*
D13*
X142557068Y-128787228D03*
D12*
G36*
X143136969Y-128487469D02*
X143141823Y-128488189D01*
X143146582Y-128489381D01*
X143151202Y-128491034D01*
X143155638Y-128493132D01*
X143159847Y-128495655D01*
X143163788Y-128498577D01*
X143167423Y-128501873D01*
X143170719Y-128505508D01*
X143173641Y-128509449D01*
X143176164Y-128513658D01*
X143178262Y-128518094D01*
X143179915Y-128522714D01*
X143181107Y-128527473D01*
X143181827Y-128532327D01*
X143182068Y-128537228D01*
X143182068Y-129037228D01*
X143181827Y-129042129D01*
X143181107Y-129046983D01*
X143179915Y-129051742D01*
X143178262Y-129056362D01*
X143176164Y-129060798D01*
X143173641Y-129065007D01*
X143170719Y-129068948D01*
X143167423Y-129072583D01*
X143163788Y-129075879D01*
X143159847Y-129078801D01*
X143155638Y-129081324D01*
X143151202Y-129083422D01*
X143146582Y-129085075D01*
X143141823Y-129086267D01*
X143136969Y-129086987D01*
X143132068Y-129087228D01*
X142982068Y-129087228D01*
X142977167Y-129086987D01*
X142972313Y-129086267D01*
X142967554Y-129085075D01*
X142962934Y-129083422D01*
X142958498Y-129081324D01*
X142954289Y-129078801D01*
X142950348Y-129075879D01*
X142946713Y-129072583D01*
X142943417Y-129068948D01*
X142940495Y-129065007D01*
X142937972Y-129060798D01*
X142935874Y-129056362D01*
X142934221Y-129051742D01*
X142933029Y-129046983D01*
X142932309Y-129042129D01*
X142932068Y-129037228D01*
X142932068Y-128537228D01*
X142932309Y-128532327D01*
X142933029Y-128527473D01*
X142934221Y-128522714D01*
X142935874Y-128518094D01*
X142937972Y-128513658D01*
X142940495Y-128509449D01*
X142943417Y-128505508D01*
X142946713Y-128501873D01*
X142950348Y-128498577D01*
X142954289Y-128495655D01*
X142958498Y-128493132D01*
X142962934Y-128491034D01*
X142967554Y-128489381D01*
X142972313Y-128488189D01*
X142977167Y-128487469D01*
X142982068Y-128487228D01*
X143132068Y-128487228D01*
X143136969Y-128487469D01*
X143136969Y-128487469D01*
G37*
D13*
X143057068Y-128787228D03*
D12*
G36*
X143061969Y-128837469D02*
X143066823Y-128838189D01*
X143071582Y-128839381D01*
X143076202Y-128841034D01*
X143080638Y-128843132D01*
X143084847Y-128845655D01*
X143088788Y-128848577D01*
X143092423Y-128851873D01*
X143095719Y-128855508D01*
X143098641Y-128859449D01*
X143101164Y-128863658D01*
X143103262Y-128868094D01*
X143104915Y-128872714D01*
X143106107Y-128877473D01*
X143106827Y-128882327D01*
X143107068Y-128887228D01*
X143107068Y-129037228D01*
X143106827Y-129042129D01*
X143106107Y-129046983D01*
X143104915Y-129051742D01*
X143103262Y-129056362D01*
X143101164Y-129060798D01*
X143098641Y-129065007D01*
X143095719Y-129068948D01*
X143092423Y-129072583D01*
X143088788Y-129075879D01*
X143084847Y-129078801D01*
X143080638Y-129081324D01*
X143076202Y-129083422D01*
X143071582Y-129085075D01*
X143066823Y-129086267D01*
X143061969Y-129086987D01*
X143057068Y-129087228D01*
X142557068Y-129087228D01*
X142552167Y-129086987D01*
X142547313Y-129086267D01*
X142542554Y-129085075D01*
X142537934Y-129083422D01*
X142533498Y-129081324D01*
X142529289Y-129078801D01*
X142525348Y-129075879D01*
X142521713Y-129072583D01*
X142518417Y-129068948D01*
X142515495Y-129065007D01*
X142512972Y-129060798D01*
X142510874Y-129056362D01*
X142509221Y-129051742D01*
X142508029Y-129046983D01*
X142507309Y-129042129D01*
X142507068Y-129037228D01*
X142507068Y-128887228D01*
X142507309Y-128882327D01*
X142508029Y-128877473D01*
X142509221Y-128872714D01*
X142510874Y-128868094D01*
X142512972Y-128863658D01*
X142515495Y-128859449D01*
X142518417Y-128855508D01*
X142521713Y-128851873D01*
X142525348Y-128848577D01*
X142529289Y-128845655D01*
X142533498Y-128843132D01*
X142537934Y-128841034D01*
X142542554Y-128839381D01*
X142547313Y-128838189D01*
X142552167Y-128837469D01*
X142557068Y-128837228D01*
X143057068Y-128837228D01*
X143061969Y-128837469D01*
X143061969Y-128837469D01*
G37*
D13*
X142807068Y-128962228D03*
D12*
G36*
X143061969Y-131287469D02*
X143066823Y-131288189D01*
X143071582Y-131289381D01*
X143076202Y-131291034D01*
X143080638Y-131293132D01*
X143084847Y-131295655D01*
X143088788Y-131298577D01*
X143092423Y-131301873D01*
X143095719Y-131305508D01*
X143098641Y-131309449D01*
X143101164Y-131313658D01*
X143103262Y-131318094D01*
X143104915Y-131322714D01*
X143106107Y-131327473D01*
X143106827Y-131332327D01*
X143107068Y-131337228D01*
X143107068Y-131487228D01*
X143106827Y-131492129D01*
X143106107Y-131496983D01*
X143104915Y-131501742D01*
X143103262Y-131506362D01*
X143101164Y-131510798D01*
X143098641Y-131515007D01*
X143095719Y-131518948D01*
X143092423Y-131522583D01*
X143088788Y-131525879D01*
X143084847Y-131528801D01*
X143080638Y-131531324D01*
X143076202Y-131533422D01*
X143071582Y-131535075D01*
X143066823Y-131536267D01*
X143061969Y-131536987D01*
X143057068Y-131537228D01*
X142557068Y-131537228D01*
X142552167Y-131536987D01*
X142547313Y-131536267D01*
X142542554Y-131535075D01*
X142537934Y-131533422D01*
X142533498Y-131531324D01*
X142529289Y-131528801D01*
X142525348Y-131525879D01*
X142521713Y-131522583D01*
X142518417Y-131518948D01*
X142515495Y-131515007D01*
X142512972Y-131510798D01*
X142510874Y-131506362D01*
X142509221Y-131501742D01*
X142508029Y-131496983D01*
X142507309Y-131492129D01*
X142507068Y-131487228D01*
X142507068Y-131337228D01*
X142507309Y-131332327D01*
X142508029Y-131327473D01*
X142509221Y-131322714D01*
X142510874Y-131318094D01*
X142512972Y-131313658D01*
X142515495Y-131309449D01*
X142518417Y-131305508D01*
X142521713Y-131301873D01*
X142525348Y-131298577D01*
X142529289Y-131295655D01*
X142533498Y-131293132D01*
X142537934Y-131291034D01*
X142542554Y-131289381D01*
X142547313Y-131288189D01*
X142552167Y-131287469D01*
X142557068Y-131287228D01*
X143057068Y-131287228D01*
X143061969Y-131287469D01*
X143061969Y-131287469D01*
G37*
D13*
X142807068Y-131412228D03*
D12*
G36*
X141668929Y-128437565D02*
X141675724Y-128438573D01*
X141682388Y-128440242D01*
X141688856Y-128442556D01*
X141695066Y-128445494D01*
X141700958Y-128449025D01*
X141706476Y-128453117D01*
X141711565Y-128457731D01*
X141716179Y-128462820D01*
X141720271Y-128468338D01*
X141723802Y-128474230D01*
X141726740Y-128480440D01*
X141729054Y-128486908D01*
X141730723Y-128493572D01*
X141731731Y-128500367D01*
X141732068Y-128507228D01*
X141732068Y-129067228D01*
X141731731Y-129074089D01*
X141730723Y-129080884D01*
X141729054Y-129087548D01*
X141726740Y-129094016D01*
X141723802Y-129100226D01*
X141720271Y-129106118D01*
X141716179Y-129111636D01*
X141711565Y-129116725D01*
X141706476Y-129121339D01*
X141700958Y-129125431D01*
X141695066Y-129128962D01*
X141688856Y-129131900D01*
X141682388Y-129134214D01*
X141675724Y-129135883D01*
X141668929Y-129136891D01*
X141662068Y-129137228D01*
X141452068Y-129137228D01*
X141445207Y-129136891D01*
X141438412Y-129135883D01*
X141431748Y-129134214D01*
X141425280Y-129131900D01*
X141419070Y-129128962D01*
X141413178Y-129125431D01*
X141407660Y-129121339D01*
X141402571Y-129116725D01*
X141397957Y-129111636D01*
X141393865Y-129106118D01*
X141390334Y-129100226D01*
X141387396Y-129094016D01*
X141385082Y-129087548D01*
X141383413Y-129080884D01*
X141382405Y-129074089D01*
X141382068Y-129067228D01*
X141382068Y-128507228D01*
X141382405Y-128500367D01*
X141383413Y-128493572D01*
X141385082Y-128486908D01*
X141387396Y-128480440D01*
X141390334Y-128474230D01*
X141393865Y-128468338D01*
X141397957Y-128462820D01*
X141402571Y-128457731D01*
X141407660Y-128453117D01*
X141413178Y-128449025D01*
X141419070Y-128445494D01*
X141425280Y-128442556D01*
X141431748Y-128440242D01*
X141438412Y-128438573D01*
X141445207Y-128437565D01*
X141452068Y-128437228D01*
X141662068Y-128437228D01*
X141668929Y-128437565D01*
X141668929Y-128437565D01*
G37*
D14*
X141557068Y-128787228D03*
D12*
G36*
X142168929Y-128437565D02*
X142175724Y-128438573D01*
X142182388Y-128440242D01*
X142188856Y-128442556D01*
X142195066Y-128445494D01*
X142200958Y-128449025D01*
X142206476Y-128453117D01*
X142211565Y-128457731D01*
X142216179Y-128462820D01*
X142220271Y-128468338D01*
X142223802Y-128474230D01*
X142226740Y-128480440D01*
X142229054Y-128486908D01*
X142230723Y-128493572D01*
X142231731Y-128500367D01*
X142232068Y-128507228D01*
X142232068Y-129067228D01*
X142231731Y-129074089D01*
X142230723Y-129080884D01*
X142229054Y-129087548D01*
X142226740Y-129094016D01*
X142223802Y-129100226D01*
X142220271Y-129106118D01*
X142216179Y-129111636D01*
X142211565Y-129116725D01*
X142206476Y-129121339D01*
X142200958Y-129125431D01*
X142195066Y-129128962D01*
X142188856Y-129131900D01*
X142182388Y-129134214D01*
X142175724Y-129135883D01*
X142168929Y-129136891D01*
X142162068Y-129137228D01*
X141952068Y-129137228D01*
X141945207Y-129136891D01*
X141938412Y-129135883D01*
X141931748Y-129134214D01*
X141925280Y-129131900D01*
X141919070Y-129128962D01*
X141913178Y-129125431D01*
X141907660Y-129121339D01*
X141902571Y-129116725D01*
X141897957Y-129111636D01*
X141893865Y-129106118D01*
X141890334Y-129100226D01*
X141887396Y-129094016D01*
X141885082Y-129087548D01*
X141883413Y-129080884D01*
X141882405Y-129074089D01*
X141882068Y-129067228D01*
X141882068Y-128507228D01*
X141882405Y-128500367D01*
X141883413Y-128493572D01*
X141885082Y-128486908D01*
X141887396Y-128480440D01*
X141890334Y-128474230D01*
X141893865Y-128468338D01*
X141897957Y-128462820D01*
X141902571Y-128457731D01*
X141907660Y-128453117D01*
X141913178Y-128449025D01*
X141919070Y-128445494D01*
X141925280Y-128442556D01*
X141931748Y-128440242D01*
X141938412Y-128438573D01*
X141945207Y-128437565D01*
X141952068Y-128437228D01*
X142162068Y-128437228D01*
X142168929Y-128437565D01*
X142168929Y-128437565D01*
G37*
D14*
X142057068Y-128787228D03*
D12*
G36*
X143686969Y-130562469D02*
X143691823Y-130563189D01*
X143696582Y-130564381D01*
X143701202Y-130566034D01*
X143705638Y-130568132D01*
X143709847Y-130570655D01*
X143713788Y-130573577D01*
X143717423Y-130576873D01*
X143720719Y-130580508D01*
X143723641Y-130584449D01*
X143726164Y-130588658D01*
X143728262Y-130593094D01*
X143729915Y-130597714D01*
X143731107Y-130602473D01*
X143731827Y-130607327D01*
X143732068Y-130612228D01*
X143732068Y-130762228D01*
X143731827Y-130767129D01*
X143731107Y-130771983D01*
X143729915Y-130776742D01*
X143728262Y-130781362D01*
X143726164Y-130785798D01*
X143723641Y-130790007D01*
X143720719Y-130793948D01*
X143717423Y-130797583D01*
X143713788Y-130800879D01*
X143709847Y-130803801D01*
X143705638Y-130806324D01*
X143701202Y-130808422D01*
X143696582Y-130810075D01*
X143691823Y-130811267D01*
X143686969Y-130811987D01*
X143682068Y-130812228D01*
X142432068Y-130812228D01*
X142427167Y-130811987D01*
X142422313Y-130811267D01*
X142417554Y-130810075D01*
X142412934Y-130808422D01*
X142408498Y-130806324D01*
X142404289Y-130803801D01*
X142400348Y-130800879D01*
X142396713Y-130797583D01*
X142393417Y-130793948D01*
X142390495Y-130790007D01*
X142387972Y-130785798D01*
X142385874Y-130781362D01*
X142384221Y-130776742D01*
X142383029Y-130771983D01*
X142382309Y-130767129D01*
X142382068Y-130762228D01*
X142382068Y-130612228D01*
X142382309Y-130607327D01*
X142383029Y-130602473D01*
X142384221Y-130597714D01*
X142385874Y-130593094D01*
X142387972Y-130588658D01*
X142390495Y-130584449D01*
X142393417Y-130580508D01*
X142396713Y-130576873D01*
X142400348Y-130573577D01*
X142404289Y-130570655D01*
X142408498Y-130568132D01*
X142412934Y-130566034D01*
X142417554Y-130564381D01*
X142422313Y-130563189D01*
X142427167Y-130562469D01*
X142432068Y-130562228D01*
X143682068Y-130562228D01*
X143686969Y-130562469D01*
X143686969Y-130562469D01*
G37*
D13*
X143057068Y-130687228D03*
D12*
G36*
X143136969Y-131287469D02*
X143141823Y-131288189D01*
X143146582Y-131289381D01*
X143151202Y-131291034D01*
X143155638Y-131293132D01*
X143159847Y-131295655D01*
X143163788Y-131298577D01*
X143167423Y-131301873D01*
X143170719Y-131305508D01*
X143173641Y-131309449D01*
X143176164Y-131313658D01*
X143178262Y-131318094D01*
X143179915Y-131322714D01*
X143181107Y-131327473D01*
X143181827Y-131332327D01*
X143182068Y-131337228D01*
X143182068Y-131837228D01*
X143181827Y-131842129D01*
X143181107Y-131846983D01*
X143179915Y-131851742D01*
X143178262Y-131856362D01*
X143176164Y-131860798D01*
X143173641Y-131865007D01*
X143170719Y-131868948D01*
X143167423Y-131872583D01*
X143163788Y-131875879D01*
X143159847Y-131878801D01*
X143155638Y-131881324D01*
X143151202Y-131883422D01*
X143146582Y-131885075D01*
X143141823Y-131886267D01*
X143136969Y-131886987D01*
X143132068Y-131887228D01*
X142982068Y-131887228D01*
X142977167Y-131886987D01*
X142972313Y-131886267D01*
X142967554Y-131885075D01*
X142962934Y-131883422D01*
X142958498Y-131881324D01*
X142954289Y-131878801D01*
X142950348Y-131875879D01*
X142946713Y-131872583D01*
X142943417Y-131868948D01*
X142940495Y-131865007D01*
X142937972Y-131860798D01*
X142935874Y-131856362D01*
X142934221Y-131851742D01*
X142933029Y-131846983D01*
X142932309Y-131842129D01*
X142932068Y-131837228D01*
X142932068Y-131337228D01*
X142932309Y-131332327D01*
X142933029Y-131327473D01*
X142934221Y-131322714D01*
X142935874Y-131318094D01*
X142937972Y-131313658D01*
X142940495Y-131309449D01*
X142943417Y-131305508D01*
X142946713Y-131301873D01*
X142950348Y-131298577D01*
X142954289Y-131295655D01*
X142958498Y-131293132D01*
X142962934Y-131291034D01*
X142967554Y-131289381D01*
X142972313Y-131288189D01*
X142977167Y-131287469D01*
X142982068Y-131287228D01*
X143132068Y-131287228D01*
X143136969Y-131287469D01*
X143136969Y-131287469D01*
G37*
D13*
X143057068Y-131587228D03*
D12*
G36*
X142636969Y-131287469D02*
X142641823Y-131288189D01*
X142646582Y-131289381D01*
X142651202Y-131291034D01*
X142655638Y-131293132D01*
X142659847Y-131295655D01*
X142663788Y-131298577D01*
X142667423Y-131301873D01*
X142670719Y-131305508D01*
X142673641Y-131309449D01*
X142676164Y-131313658D01*
X142678262Y-131318094D01*
X142679915Y-131322714D01*
X142681107Y-131327473D01*
X142681827Y-131332327D01*
X142682068Y-131337228D01*
X142682068Y-131837228D01*
X142681827Y-131842129D01*
X142681107Y-131846983D01*
X142679915Y-131851742D01*
X142678262Y-131856362D01*
X142676164Y-131860798D01*
X142673641Y-131865007D01*
X142670719Y-131868948D01*
X142667423Y-131872583D01*
X142663788Y-131875879D01*
X142659847Y-131878801D01*
X142655638Y-131881324D01*
X142651202Y-131883422D01*
X142646582Y-131885075D01*
X142641823Y-131886267D01*
X142636969Y-131886987D01*
X142632068Y-131887228D01*
X142482068Y-131887228D01*
X142477167Y-131886987D01*
X142472313Y-131886267D01*
X142467554Y-131885075D01*
X142462934Y-131883422D01*
X142458498Y-131881324D01*
X142454289Y-131878801D01*
X142450348Y-131875879D01*
X142446713Y-131872583D01*
X142443417Y-131868948D01*
X142440495Y-131865007D01*
X142437972Y-131860798D01*
X142435874Y-131856362D01*
X142434221Y-131851742D01*
X142433029Y-131846983D01*
X142432309Y-131842129D01*
X142432068Y-131837228D01*
X142432068Y-131337228D01*
X142432309Y-131332327D01*
X142433029Y-131327473D01*
X142434221Y-131322714D01*
X142435874Y-131318094D01*
X142437972Y-131313658D01*
X142440495Y-131309449D01*
X142443417Y-131305508D01*
X142446713Y-131301873D01*
X142450348Y-131298577D01*
X142454289Y-131295655D01*
X142458498Y-131293132D01*
X142462934Y-131291034D01*
X142467554Y-131289381D01*
X142472313Y-131288189D01*
X142477167Y-131287469D01*
X142482068Y-131287228D01*
X142632068Y-131287228D01*
X142636969Y-131287469D01*
X142636969Y-131287469D01*
G37*
D13*
X142557068Y-131587228D03*
D12*
G36*
X142168929Y-131237565D02*
X142175724Y-131238573D01*
X142182388Y-131240242D01*
X142188856Y-131242556D01*
X142195066Y-131245494D01*
X142200958Y-131249025D01*
X142206476Y-131253117D01*
X142211565Y-131257731D01*
X142216179Y-131262820D01*
X142220271Y-131268338D01*
X142223802Y-131274230D01*
X142226740Y-131280440D01*
X142229054Y-131286908D01*
X142230723Y-131293572D01*
X142231731Y-131300367D01*
X142232068Y-131307228D01*
X142232068Y-131867228D01*
X142231731Y-131874089D01*
X142230723Y-131880884D01*
X142229054Y-131887548D01*
X142226740Y-131894016D01*
X142223802Y-131900226D01*
X142220271Y-131906118D01*
X142216179Y-131911636D01*
X142211565Y-131916725D01*
X142206476Y-131921339D01*
X142200958Y-131925431D01*
X142195066Y-131928962D01*
X142188856Y-131931900D01*
X142182388Y-131934214D01*
X142175724Y-131935883D01*
X142168929Y-131936891D01*
X142162068Y-131937228D01*
X141952068Y-131937228D01*
X141945207Y-131936891D01*
X141938412Y-131935883D01*
X141931748Y-131934214D01*
X141925280Y-131931900D01*
X141919070Y-131928962D01*
X141913178Y-131925431D01*
X141907660Y-131921339D01*
X141902571Y-131916725D01*
X141897957Y-131911636D01*
X141893865Y-131906118D01*
X141890334Y-131900226D01*
X141887396Y-131894016D01*
X141885082Y-131887548D01*
X141883413Y-131880884D01*
X141882405Y-131874089D01*
X141882068Y-131867228D01*
X141882068Y-131307228D01*
X141882405Y-131300367D01*
X141883413Y-131293572D01*
X141885082Y-131286908D01*
X141887396Y-131280440D01*
X141890334Y-131274230D01*
X141893865Y-131268338D01*
X141897957Y-131262820D01*
X141902571Y-131257731D01*
X141907660Y-131253117D01*
X141913178Y-131249025D01*
X141919070Y-131245494D01*
X141925280Y-131242556D01*
X141931748Y-131240242D01*
X141938412Y-131238573D01*
X141945207Y-131237565D01*
X141952068Y-131237228D01*
X142162068Y-131237228D01*
X142168929Y-131237565D01*
X142168929Y-131237565D01*
G37*
D14*
X142057068Y-131587228D03*
D12*
G36*
X141668929Y-131237565D02*
X141675724Y-131238573D01*
X141682388Y-131240242D01*
X141688856Y-131242556D01*
X141695066Y-131245494D01*
X141700958Y-131249025D01*
X141706476Y-131253117D01*
X141711565Y-131257731D01*
X141716179Y-131262820D01*
X141720271Y-131268338D01*
X141723802Y-131274230D01*
X141726740Y-131280440D01*
X141729054Y-131286908D01*
X141730723Y-131293572D01*
X141731731Y-131300367D01*
X141732068Y-131307228D01*
X141732068Y-131867228D01*
X141731731Y-131874089D01*
X141730723Y-131880884D01*
X141729054Y-131887548D01*
X141726740Y-131894016D01*
X141723802Y-131900226D01*
X141720271Y-131906118D01*
X141716179Y-131911636D01*
X141711565Y-131916725D01*
X141706476Y-131921339D01*
X141700958Y-131925431D01*
X141695066Y-131928962D01*
X141688856Y-131931900D01*
X141682388Y-131934214D01*
X141675724Y-131935883D01*
X141668929Y-131936891D01*
X141662068Y-131937228D01*
X141452068Y-131937228D01*
X141445207Y-131936891D01*
X141438412Y-131935883D01*
X141431748Y-131934214D01*
X141425280Y-131931900D01*
X141419070Y-131928962D01*
X141413178Y-131925431D01*
X141407660Y-131921339D01*
X141402571Y-131916725D01*
X141397957Y-131911636D01*
X141393865Y-131906118D01*
X141390334Y-131900226D01*
X141387396Y-131894016D01*
X141385082Y-131887548D01*
X141383413Y-131880884D01*
X141382405Y-131874089D01*
X141382068Y-131867228D01*
X141382068Y-131307228D01*
X141382405Y-131300367D01*
X141383413Y-131293572D01*
X141385082Y-131286908D01*
X141387396Y-131280440D01*
X141390334Y-131274230D01*
X141393865Y-131268338D01*
X141397957Y-131262820D01*
X141402571Y-131257731D01*
X141407660Y-131253117D01*
X141413178Y-131249025D01*
X141419070Y-131245494D01*
X141425280Y-131242556D01*
X141431748Y-131240242D01*
X141438412Y-131238573D01*
X141445207Y-131237565D01*
X141452068Y-131237228D01*
X141662068Y-131237228D01*
X141668929Y-131237565D01*
X141668929Y-131237565D01*
G37*
D14*
X141557068Y-131587228D03*
D12*
G36*
X141418929Y-130762565D02*
X141425724Y-130763573D01*
X141432388Y-130765242D01*
X141438856Y-130767556D01*
X141445066Y-130770494D01*
X141450958Y-130774025D01*
X141456476Y-130778117D01*
X141461565Y-130782731D01*
X141466179Y-130787820D01*
X141470271Y-130793338D01*
X141473802Y-130799230D01*
X141476740Y-130805440D01*
X141479054Y-130811908D01*
X141480723Y-130818572D01*
X141481731Y-130825367D01*
X141482068Y-130832228D01*
X141482068Y-131042228D01*
X141481731Y-131049089D01*
X141480723Y-131055884D01*
X141479054Y-131062548D01*
X141476740Y-131069016D01*
X141473802Y-131075226D01*
X141470271Y-131081118D01*
X141466179Y-131086636D01*
X141461565Y-131091725D01*
X141456476Y-131096339D01*
X141450958Y-131100431D01*
X141445066Y-131103962D01*
X141438856Y-131106900D01*
X141432388Y-131109214D01*
X141425724Y-131110883D01*
X141418929Y-131111891D01*
X141412068Y-131112228D01*
X140852068Y-131112228D01*
X140845207Y-131111891D01*
X140838412Y-131110883D01*
X140831748Y-131109214D01*
X140825280Y-131106900D01*
X140819070Y-131103962D01*
X140813178Y-131100431D01*
X140807660Y-131096339D01*
X140802571Y-131091725D01*
X140797957Y-131086636D01*
X140793865Y-131081118D01*
X140790334Y-131075226D01*
X140787396Y-131069016D01*
X140785082Y-131062548D01*
X140783413Y-131055884D01*
X140782405Y-131049089D01*
X140782068Y-131042228D01*
X140782068Y-130832228D01*
X140782405Y-130825367D01*
X140783413Y-130818572D01*
X140785082Y-130811908D01*
X140787396Y-130805440D01*
X140790334Y-130799230D01*
X140793865Y-130793338D01*
X140797957Y-130787820D01*
X140802571Y-130782731D01*
X140807660Y-130778117D01*
X140813178Y-130774025D01*
X140819070Y-130770494D01*
X140825280Y-130767556D01*
X140831748Y-130765242D01*
X140838412Y-130763573D01*
X140845207Y-130762565D01*
X140852068Y-130762228D01*
X141412068Y-130762228D01*
X141418929Y-130762565D01*
X141418929Y-130762565D01*
G37*
D14*
X141132068Y-130937228D03*
D12*
G36*
X141418929Y-130262565D02*
X141425724Y-130263573D01*
X141432388Y-130265242D01*
X141438856Y-130267556D01*
X141445066Y-130270494D01*
X141450958Y-130274025D01*
X141456476Y-130278117D01*
X141461565Y-130282731D01*
X141466179Y-130287820D01*
X141470271Y-130293338D01*
X141473802Y-130299230D01*
X141476740Y-130305440D01*
X141479054Y-130311908D01*
X141480723Y-130318572D01*
X141481731Y-130325367D01*
X141482068Y-130332228D01*
X141482068Y-130542228D01*
X141481731Y-130549089D01*
X141480723Y-130555884D01*
X141479054Y-130562548D01*
X141476740Y-130569016D01*
X141473802Y-130575226D01*
X141470271Y-130581118D01*
X141466179Y-130586636D01*
X141461565Y-130591725D01*
X141456476Y-130596339D01*
X141450958Y-130600431D01*
X141445066Y-130603962D01*
X141438856Y-130606900D01*
X141432388Y-130609214D01*
X141425724Y-130610883D01*
X141418929Y-130611891D01*
X141412068Y-130612228D01*
X140852068Y-130612228D01*
X140845207Y-130611891D01*
X140838412Y-130610883D01*
X140831748Y-130609214D01*
X140825280Y-130606900D01*
X140819070Y-130603962D01*
X140813178Y-130600431D01*
X140807660Y-130596339D01*
X140802571Y-130591725D01*
X140797957Y-130586636D01*
X140793865Y-130581118D01*
X140790334Y-130575226D01*
X140787396Y-130569016D01*
X140785082Y-130562548D01*
X140783413Y-130555884D01*
X140782405Y-130549089D01*
X140782068Y-130542228D01*
X140782068Y-130332228D01*
X140782405Y-130325367D01*
X140783413Y-130318572D01*
X140785082Y-130311908D01*
X140787396Y-130305440D01*
X140790334Y-130299230D01*
X140793865Y-130293338D01*
X140797957Y-130287820D01*
X140802571Y-130282731D01*
X140807660Y-130278117D01*
X140813178Y-130274025D01*
X140819070Y-130270494D01*
X140825280Y-130267556D01*
X140831748Y-130265242D01*
X140838412Y-130263573D01*
X140845207Y-130262565D01*
X140852068Y-130262228D01*
X141412068Y-130262228D01*
X141418929Y-130262565D01*
X141418929Y-130262565D01*
G37*
D14*
X141132068Y-130437228D03*
D12*
G36*
X141418929Y-129762565D02*
X141425724Y-129763573D01*
X141432388Y-129765242D01*
X141438856Y-129767556D01*
X141445066Y-129770494D01*
X141450958Y-129774025D01*
X141456476Y-129778117D01*
X141461565Y-129782731D01*
X141466179Y-129787820D01*
X141470271Y-129793338D01*
X141473802Y-129799230D01*
X141476740Y-129805440D01*
X141479054Y-129811908D01*
X141480723Y-129818572D01*
X141481731Y-129825367D01*
X141482068Y-129832228D01*
X141482068Y-130042228D01*
X141481731Y-130049089D01*
X141480723Y-130055884D01*
X141479054Y-130062548D01*
X141476740Y-130069016D01*
X141473802Y-130075226D01*
X141470271Y-130081118D01*
X141466179Y-130086636D01*
X141461565Y-130091725D01*
X141456476Y-130096339D01*
X141450958Y-130100431D01*
X141445066Y-130103962D01*
X141438856Y-130106900D01*
X141432388Y-130109214D01*
X141425724Y-130110883D01*
X141418929Y-130111891D01*
X141412068Y-130112228D01*
X140852068Y-130112228D01*
X140845207Y-130111891D01*
X140838412Y-130110883D01*
X140831748Y-130109214D01*
X140825280Y-130106900D01*
X140819070Y-130103962D01*
X140813178Y-130100431D01*
X140807660Y-130096339D01*
X140802571Y-130091725D01*
X140797957Y-130086636D01*
X140793865Y-130081118D01*
X140790334Y-130075226D01*
X140787396Y-130069016D01*
X140785082Y-130062548D01*
X140783413Y-130055884D01*
X140782405Y-130049089D01*
X140782068Y-130042228D01*
X140782068Y-129832228D01*
X140782405Y-129825367D01*
X140783413Y-129818572D01*
X140785082Y-129811908D01*
X140787396Y-129805440D01*
X140790334Y-129799230D01*
X140793865Y-129793338D01*
X140797957Y-129787820D01*
X140802571Y-129782731D01*
X140807660Y-129778117D01*
X140813178Y-129774025D01*
X140819070Y-129770494D01*
X140825280Y-129767556D01*
X140831748Y-129765242D01*
X140838412Y-129763573D01*
X140845207Y-129762565D01*
X140852068Y-129762228D01*
X141412068Y-129762228D01*
X141418929Y-129762565D01*
X141418929Y-129762565D01*
G37*
D14*
X141132068Y-129937228D03*
D12*
G36*
X141418929Y-129262565D02*
X141425724Y-129263573D01*
X141432388Y-129265242D01*
X141438856Y-129267556D01*
X141445066Y-129270494D01*
X141450958Y-129274025D01*
X141456476Y-129278117D01*
X141461565Y-129282731D01*
X141466179Y-129287820D01*
X141470271Y-129293338D01*
X141473802Y-129299230D01*
X141476740Y-129305440D01*
X141479054Y-129311908D01*
X141480723Y-129318572D01*
X141481731Y-129325367D01*
X141482068Y-129332228D01*
X141482068Y-129542228D01*
X141481731Y-129549089D01*
X141480723Y-129555884D01*
X141479054Y-129562548D01*
X141476740Y-129569016D01*
X141473802Y-129575226D01*
X141470271Y-129581118D01*
X141466179Y-129586636D01*
X141461565Y-129591725D01*
X141456476Y-129596339D01*
X141450958Y-129600431D01*
X141445066Y-129603962D01*
X141438856Y-129606900D01*
X141432388Y-129609214D01*
X141425724Y-129610883D01*
X141418929Y-129611891D01*
X141412068Y-129612228D01*
X140852068Y-129612228D01*
X140845207Y-129611891D01*
X140838412Y-129610883D01*
X140831748Y-129609214D01*
X140825280Y-129606900D01*
X140819070Y-129603962D01*
X140813178Y-129600431D01*
X140807660Y-129596339D01*
X140802571Y-129591725D01*
X140797957Y-129586636D01*
X140793865Y-129581118D01*
X140790334Y-129575226D01*
X140787396Y-129569016D01*
X140785082Y-129562548D01*
X140783413Y-129555884D01*
X140782405Y-129549089D01*
X140782068Y-129542228D01*
X140782068Y-129332228D01*
X140782405Y-129325367D01*
X140783413Y-129318572D01*
X140785082Y-129311908D01*
X140787396Y-129305440D01*
X140790334Y-129299230D01*
X140793865Y-129293338D01*
X140797957Y-129287820D01*
X140802571Y-129282731D01*
X140807660Y-129278117D01*
X140813178Y-129274025D01*
X140819070Y-129270494D01*
X140825280Y-129267556D01*
X140831748Y-129265242D01*
X140838412Y-129263573D01*
X140845207Y-129262565D01*
X140852068Y-129262228D01*
X141412068Y-129262228D01*
X141418929Y-129262565D01*
X141418929Y-129262565D01*
G37*
D14*
X141132068Y-129437228D03*
G04 #@! TD*
D15*
G04 #@! TO.C,BT2*
X130900000Y-163870000D03*
D16*
X130900000Y-148070000D03*
D17*
X130900000Y-152300000D03*
D18*
X130900000Y-159800000D03*
G04 #@! TD*
D19*
G04 #@! TO.C,Y2*
X121050000Y-157370000D03*
X121050000Y-163000000D03*
X116900000Y-163000000D03*
X116900000Y-157370000D03*
G04 #@! TD*
D20*
G04 #@! TO.C,R16*
X113950000Y-150849999D03*
X113950000Y-153049999D03*
G04 #@! TD*
D21*
G04 #@! TO.C,C1*
X122200000Y-143200000D03*
X122200000Y-140700000D03*
G04 #@! TD*
D22*
G04 #@! TO.C,C11*
X150700000Y-116400000D03*
D23*
X150700000Y-121400000D03*
G04 #@! TD*
D24*
G04 #@! TO.C,C13*
X144477568Y-137103228D03*
X141977568Y-137103228D03*
G04 #@! TD*
G04 #@! TO.C,C14*
X144477569Y-135134728D03*
X141977569Y-135134728D03*
G04 #@! TD*
G04 #@! TO.C,C15*
X144477569Y-139071728D03*
X141977569Y-139071728D03*
G04 #@! TD*
D21*
G04 #@! TO.C,C16*
X138800000Y-134500000D03*
X138800000Y-132000000D03*
G04 #@! TD*
D25*
G04 #@! TO.C,C17*
X144644568Y-131197728D03*
X144644568Y-133097728D03*
G04 #@! TD*
G04 #@! TO.C,C18*
X144644569Y-129160728D03*
X144644569Y-127260728D03*
G04 #@! TD*
D24*
G04 #@! TO.C,C19*
X144414068Y-125228729D03*
X141914068Y-125228729D03*
G04 #@! TD*
G04 #@! TO.C,C20*
X144300000Y-123200000D03*
X141800000Y-123200000D03*
G04 #@! TD*
D26*
G04 #@! TO.C,D1*
X104300000Y-126500000D03*
X106500000Y-126500000D03*
G04 #@! TD*
D20*
G04 #@! TO.C,D2*
X136300000Y-141400000D03*
X136300000Y-143600000D03*
G04 #@! TD*
D27*
G04 #@! TO.C,D3*
X122100000Y-138300000D03*
X122100000Y-135800000D03*
G04 #@! TD*
G04 #@! TO.C,D4*
X140200000Y-152500000D03*
X142700000Y-152500000D03*
G04 #@! TD*
D28*
G04 #@! TO.C,J6*
X161150000Y-109870000D03*
D29*
X161150000Y-114950000D03*
G04 #@! TD*
D20*
G04 #@! TO.C,R1*
X120000000Y-138100000D03*
X120000000Y-135900000D03*
G04 #@! TD*
D26*
G04 #@! TO.C,R2*
X104300000Y-122500000D03*
X106500000Y-122500000D03*
G04 #@! TD*
G04 #@! TO.C,R3*
X104300000Y-124400000D03*
X106500000Y-124400000D03*
G04 #@! TD*
D20*
G04 #@! TO.C,R4*
X120100000Y-143000000D03*
X120100000Y-140800000D03*
G04 #@! TD*
G04 #@! TO.C,R6*
X138400000Y-140800001D03*
X138400000Y-143000001D03*
G04 #@! TD*
D26*
G04 #@! TO.C,R7*
X147000000Y-108050000D03*
X149200000Y-108050000D03*
G04 #@! TD*
G04 #@! TO.C,R8*
X112942500Y-110150000D03*
X115142500Y-110150000D03*
G04 #@! TD*
D20*
G04 #@! TO.C,R9*
X152000000Y-146400000D03*
X152000000Y-148600000D03*
G04 #@! TD*
G04 #@! TO.C,R12*
X142800000Y-112350000D03*
X142800000Y-110150000D03*
G04 #@! TD*
D26*
G04 #@! TO.C,R15*
X146300000Y-166800000D03*
X148500000Y-166800000D03*
G04 #@! TD*
G04 #@! TO.C,R17*
X139500000Y-130000000D03*
X137300000Y-130000000D03*
G04 #@! TD*
D20*
G04 #@! TO.C,R18*
X138600000Y-127600000D03*
X138600000Y-125400000D03*
G04 #@! TD*
D30*
G04 #@! TO.C,U2*
X152350000Y-109450000D03*
X152350000Y-110350000D03*
X153250000Y-109450000D03*
X153250000Y-110350000D03*
D31*
X152050000Y-108425000D03*
X152550000Y-108425000D03*
X153050000Y-108425000D03*
X153550000Y-108425000D03*
D32*
X154275000Y-109150000D03*
X154275000Y-109650000D03*
X154275000Y-110150000D03*
X154275000Y-110650000D03*
D31*
X153550000Y-111375000D03*
X153050000Y-111375000D03*
X152550000Y-111375000D03*
X152050000Y-111375000D03*
D32*
X151325000Y-110650000D03*
X151325000Y-110150000D03*
X151325000Y-109650000D03*
X151325000Y-109150000D03*
G04 #@! TD*
D33*
G04 #@! TO.C,J3*
X159484000Y-124416000D03*
X162484000Y-129116000D03*
X156484000Y-129116000D03*
G04 #@! TD*
D34*
G04 #@! TO.C,Q3*
X148650000Y-149800000D03*
X148650000Y-145200000D03*
X148650000Y-147500000D03*
D35*
X142350000Y-147500000D03*
G04 #@! TD*
D36*
G04 #@! TO.C,U5*
X133100000Y-136500000D03*
X125480000Y-144120000D03*
X133100000Y-139040000D03*
X125480000Y-141580000D03*
X133100000Y-141580000D03*
X125480000Y-139040000D03*
X133100000Y-144120000D03*
D37*
X125480000Y-136500000D03*
G04 #@! TD*
D21*
G04 #@! TO.C,C12*
X116100000Y-153150000D03*
X116100000Y-150650000D03*
G04 #@! TD*
D38*
G04 #@! TO.C,J9*
X107000000Y-117350000D03*
D39*
X104500000Y-117350000D03*
G04 #@! TD*
D40*
G04 #@! TO.C,U6*
X118290000Y-149100000D03*
X119560000Y-149100000D03*
X120830000Y-149100000D03*
X122100000Y-149100000D03*
X122100000Y-154500000D03*
X120830000Y-154500000D03*
X119560000Y-154500000D03*
X118290000Y-154500000D03*
G04 #@! TD*
D41*
G04 #@! TO.C,J1*
X156760000Y-102460000D03*
X156760000Y-105000000D03*
X154220000Y-102460000D03*
X154220000Y-105000000D03*
X151680000Y-102460000D03*
X151680000Y-105000000D03*
X149140000Y-102460000D03*
X149140000Y-105000000D03*
X146600000Y-102460000D03*
X146600000Y-105000000D03*
X144060000Y-102460000D03*
X144060000Y-105000000D03*
X141520000Y-102460000D03*
X141520000Y-105000000D03*
X138980000Y-102460000D03*
X138980000Y-105000000D03*
X136440000Y-102460000D03*
X136440000Y-105000000D03*
X133900000Y-102460000D03*
X133900000Y-105000000D03*
X131360000Y-102460000D03*
X131360000Y-105000000D03*
X128820000Y-102460000D03*
X128820000Y-105000000D03*
X126280000Y-102460000D03*
X126280000Y-105000000D03*
X123740000Y-102460000D03*
X123740000Y-105000000D03*
X121200000Y-102460000D03*
X121200000Y-105000000D03*
X118660000Y-102460000D03*
X118660000Y-105000000D03*
X116120000Y-102460000D03*
X116120000Y-105000000D03*
X113580000Y-102460000D03*
X113580000Y-105000000D03*
X111040000Y-102460000D03*
X111040000Y-105000000D03*
X108500000Y-102460000D03*
D42*
X108500000Y-105000000D03*
G04 #@! TD*
D38*
G04 #@! TO.C,J4*
X119650000Y-111650000D03*
X122150000Y-111650000D03*
X124650000Y-111650000D03*
X127150000Y-111650000D03*
X129650000Y-111650000D03*
X132150000Y-111650000D03*
X134650000Y-111650000D03*
D39*
X137150000Y-111650000D03*
G04 #@! TD*
D43*
G04 #@! TO.C,Q1*
X113950000Y-115800000D03*
X113000000Y-112500000D03*
X114900000Y-112500000D03*
G04 #@! TD*
G04 #@! TO.C,Q5*
X147282000Y-172458000D03*
X146332000Y-169158000D03*
X148232000Y-169158000D03*
G04 #@! TD*
D38*
G04 #@! TO.C,J2*
X114000000Y-137000000D03*
X114000000Y-139500000D03*
X114000000Y-142000000D03*
D39*
X114000000Y-144500000D03*
G04 #@! TD*
D44*
G04 #@! TO.C,J7*
X151680000Y-162025000D03*
X151680000Y-164565000D03*
X151680000Y-166595000D03*
D45*
X151680000Y-169135000D03*
D28*
X154350000Y-158975000D03*
X154350000Y-172695000D03*
G04 #@! TD*
D46*
G04 #@! TO.C,J5*
X156125000Y-143100000D03*
X156125000Y-140560000D03*
X158125000Y-140560000D03*
X158125000Y-143100000D03*
D47*
X160825000Y-147830000D03*
X160825000Y-135830000D03*
G04 #@! TD*
D21*
G04 #@! TO.C,C2*
X136300000Y-136750000D03*
X136300000Y-139250000D03*
G04 #@! TD*
G04 #@! TO.C,C3*
X146700000Y-109899999D03*
X146700000Y-112399999D03*
G04 #@! TD*
G04 #@! TO.C,C4*
X144750000Y-112399999D03*
X144750000Y-109899999D03*
G04 #@! TD*
G04 #@! TO.C,C5*
X148750000Y-112400000D03*
X148750000Y-109900000D03*
G04 #@! TD*
D48*
G04 #@! TO.C,REF\002A\002A*
X161700000Y-152700000D03*
G04 #@! TD*
G04 #@! TO.C,REF\002A\002A*
X103600000Y-152700000D03*
G04 #@! TD*
M02*
