G04 #@! TF.GenerationSoftware,KiCad,Pcbnew,5.0.0-rc2-unknown-03fa645~65~ubuntu16.04.1*
G04 #@! TF.CreationDate,2018-06-29T10:26:33+12:00*
G04 #@! TF.ProjectId,pi-hat,70692D6861742E6B696361645F706362,rev?*
G04 #@! TF.SameCoordinates,Original*
G04 #@! TF.FileFunction,Paste,Top*
G04 #@! TF.FilePolarity,Positive*
%FSLAX46Y46*%
G04 Gerber Fmt 4.6, Leading zero omitted, Abs format (unit mm)*
G04 Created by KiCad (PCBNEW 5.0.0-rc2-unknown-03fa645~65~ubuntu16.04.1) date Fri Jun 29 10:26:33 2018*
%MOMM*%
%LPD*%
G01*
G04 APERTURE LIST*
%ADD10R,1.600000X1.000000*%
%ADD11R,2.800000X1.900000*%
%ADD12C,0.100000*%
%ADD13C,0.250000*%
%ADD14R,2.600000X3.660000*%
%ADD15R,2.600000X3.540000*%
%ADD16R,2.850000X1.430000*%
%ADD17R,0.900000X1.200000*%
%ADD18R,1.250000X1.500000*%
%ADD19R,1.500000X1.250000*%
%ADD20R,0.750000X1.200000*%
%ADD21R,1.200000X0.900000*%
%ADD22R,1.000000X1.000000*%
%ADD23R,0.540000X0.540000*%
%ADD24O,0.300000X0.750000*%
%ADD25O,0.750000X0.300000*%
%ADD26R,2.000000X1.500000*%
%ADD27R,2.000000X3.800000*%
%ADD28R,0.600000X1.550000*%
%ADD29R,0.800000X1.800000*%
G04 APERTURE END LIST*
D10*
G04 #@! TO.C,SW1*
X146250000Y-156050000D03*
X148550000Y-154300000D03*
X146250000Y-152550000D03*
G04 #@! TD*
D11*
G04 #@! TO.C,L2*
X148835568Y-127729229D03*
X148835568Y-132629229D03*
G04 #@! TD*
D12*
G04 #@! TO.C,U7*
G36*
X143685469Y-130562469D02*
X143690323Y-130563189D01*
X143695082Y-130564381D01*
X143699702Y-130566034D01*
X143704138Y-130568132D01*
X143708347Y-130570655D01*
X143712288Y-130573577D01*
X143715923Y-130576873D01*
X143719219Y-130580508D01*
X143722141Y-130584449D01*
X143724664Y-130588658D01*
X143726762Y-130593094D01*
X143728415Y-130597714D01*
X143729607Y-130602473D01*
X143730327Y-130607327D01*
X143730568Y-130612228D01*
X143730568Y-130762228D01*
X143730327Y-130767129D01*
X143729607Y-130771983D01*
X143728415Y-130776742D01*
X143726762Y-130781362D01*
X143724664Y-130785798D01*
X143722141Y-130790007D01*
X143719219Y-130793948D01*
X143715923Y-130797583D01*
X143712288Y-130800879D01*
X143708347Y-130803801D01*
X143704138Y-130806324D01*
X143699702Y-130808422D01*
X143695082Y-130810075D01*
X143690323Y-130811267D01*
X143685469Y-130811987D01*
X143680568Y-130812228D01*
X143205568Y-130812228D01*
X143200667Y-130811987D01*
X143195813Y-130811267D01*
X143191054Y-130810075D01*
X143186434Y-130808422D01*
X143181998Y-130806324D01*
X143177789Y-130803801D01*
X143173848Y-130800879D01*
X143170213Y-130797583D01*
X143166917Y-130793948D01*
X143163995Y-130790007D01*
X143161472Y-130785798D01*
X143159374Y-130781362D01*
X143157721Y-130776742D01*
X143156529Y-130771983D01*
X143155809Y-130767129D01*
X143155568Y-130762228D01*
X143155568Y-130612228D01*
X143155809Y-130607327D01*
X143156529Y-130602473D01*
X143157721Y-130597714D01*
X143159374Y-130593094D01*
X143161472Y-130588658D01*
X143163995Y-130584449D01*
X143166917Y-130580508D01*
X143170213Y-130576873D01*
X143173848Y-130573577D01*
X143177789Y-130570655D01*
X143181998Y-130568132D01*
X143186434Y-130566034D01*
X143191054Y-130564381D01*
X143195813Y-130563189D01*
X143200667Y-130562469D01*
X143205568Y-130562228D01*
X143680568Y-130562228D01*
X143685469Y-130562469D01*
X143685469Y-130562469D01*
G37*
D13*
X143443068Y-130687228D03*
D12*
G36*
X142912469Y-130562469D02*
X142917323Y-130563189D01*
X142922082Y-130564381D01*
X142926702Y-130566034D01*
X142931138Y-130568132D01*
X142935347Y-130570655D01*
X142939288Y-130573577D01*
X142942923Y-130576873D01*
X142946219Y-130580508D01*
X142949141Y-130584449D01*
X142951664Y-130588658D01*
X142953762Y-130593094D01*
X142955415Y-130597714D01*
X142956607Y-130602473D01*
X142957327Y-130607327D01*
X142957568Y-130612228D01*
X142957568Y-130762228D01*
X142957327Y-130767129D01*
X142956607Y-130771983D01*
X142955415Y-130776742D01*
X142953762Y-130781362D01*
X142951664Y-130785798D01*
X142949141Y-130790007D01*
X142946219Y-130793948D01*
X142942923Y-130797583D01*
X142939288Y-130800879D01*
X142935347Y-130803801D01*
X142931138Y-130806324D01*
X142926702Y-130808422D01*
X142922082Y-130810075D01*
X142917323Y-130811267D01*
X142912469Y-130811987D01*
X142907568Y-130812228D01*
X142432568Y-130812228D01*
X142427667Y-130811987D01*
X142422813Y-130811267D01*
X142418054Y-130810075D01*
X142413434Y-130808422D01*
X142408998Y-130806324D01*
X142404789Y-130803801D01*
X142400848Y-130800879D01*
X142397213Y-130797583D01*
X142393917Y-130793948D01*
X142390995Y-130790007D01*
X142388472Y-130785798D01*
X142386374Y-130781362D01*
X142384721Y-130776742D01*
X142383529Y-130771983D01*
X142382809Y-130767129D01*
X142382568Y-130762228D01*
X142382568Y-130612228D01*
X142382809Y-130607327D01*
X142383529Y-130602473D01*
X142384721Y-130597714D01*
X142386374Y-130593094D01*
X142388472Y-130588658D01*
X142390995Y-130584449D01*
X142393917Y-130580508D01*
X142397213Y-130576873D01*
X142400848Y-130573577D01*
X142404789Y-130570655D01*
X142408998Y-130568132D01*
X142413434Y-130566034D01*
X142418054Y-130564381D01*
X142422813Y-130563189D01*
X142427667Y-130562469D01*
X142432568Y-130562228D01*
X142907568Y-130562228D01*
X142912469Y-130562469D01*
X142912469Y-130562469D01*
G37*
D13*
X142670068Y-130687228D03*
D12*
G36*
X142912469Y-129562469D02*
X142917323Y-129563189D01*
X142922082Y-129564381D01*
X142926702Y-129566034D01*
X142931138Y-129568132D01*
X142935347Y-129570655D01*
X142939288Y-129573577D01*
X142942923Y-129576873D01*
X142946219Y-129580508D01*
X142949141Y-129584449D01*
X142951664Y-129588658D01*
X142953762Y-129593094D01*
X142955415Y-129597714D01*
X142956607Y-129602473D01*
X142957327Y-129607327D01*
X142957568Y-129612228D01*
X142957568Y-129762228D01*
X142957327Y-129767129D01*
X142956607Y-129771983D01*
X142955415Y-129776742D01*
X142953762Y-129781362D01*
X142951664Y-129785798D01*
X142949141Y-129790007D01*
X142946219Y-129793948D01*
X142942923Y-129797583D01*
X142939288Y-129800879D01*
X142935347Y-129803801D01*
X142931138Y-129806324D01*
X142926702Y-129808422D01*
X142922082Y-129810075D01*
X142917323Y-129811267D01*
X142912469Y-129811987D01*
X142907568Y-129812228D01*
X142432568Y-129812228D01*
X142427667Y-129811987D01*
X142422813Y-129811267D01*
X142418054Y-129810075D01*
X142413434Y-129808422D01*
X142408998Y-129806324D01*
X142404789Y-129803801D01*
X142400848Y-129800879D01*
X142397213Y-129797583D01*
X142393917Y-129793948D01*
X142390995Y-129790007D01*
X142388472Y-129785798D01*
X142386374Y-129781362D01*
X142384721Y-129776742D01*
X142383529Y-129771983D01*
X142382809Y-129767129D01*
X142382568Y-129762228D01*
X142382568Y-129612228D01*
X142382809Y-129607327D01*
X142383529Y-129602473D01*
X142384721Y-129597714D01*
X142386374Y-129593094D01*
X142388472Y-129588658D01*
X142390995Y-129584449D01*
X142393917Y-129580508D01*
X142397213Y-129576873D01*
X142400848Y-129573577D01*
X142404789Y-129570655D01*
X142408998Y-129568132D01*
X142413434Y-129566034D01*
X142418054Y-129564381D01*
X142422813Y-129563189D01*
X142427667Y-129562469D01*
X142432568Y-129562228D01*
X142907568Y-129562228D01*
X142912469Y-129562469D01*
X142912469Y-129562469D01*
G37*
D13*
X142670068Y-129687228D03*
D12*
G36*
X143685469Y-129562469D02*
X143690323Y-129563189D01*
X143695082Y-129564381D01*
X143699702Y-129566034D01*
X143704138Y-129568132D01*
X143708347Y-129570655D01*
X143712288Y-129573577D01*
X143715923Y-129576873D01*
X143719219Y-129580508D01*
X143722141Y-129584449D01*
X143724664Y-129588658D01*
X143726762Y-129593094D01*
X143728415Y-129597714D01*
X143729607Y-129602473D01*
X143730327Y-129607327D01*
X143730568Y-129612228D01*
X143730568Y-129762228D01*
X143730327Y-129767129D01*
X143729607Y-129771983D01*
X143728415Y-129776742D01*
X143726762Y-129781362D01*
X143724664Y-129785798D01*
X143722141Y-129790007D01*
X143719219Y-129793948D01*
X143715923Y-129797583D01*
X143712288Y-129800879D01*
X143708347Y-129803801D01*
X143704138Y-129806324D01*
X143699702Y-129808422D01*
X143695082Y-129810075D01*
X143690323Y-129811267D01*
X143685469Y-129811987D01*
X143680568Y-129812228D01*
X143205568Y-129812228D01*
X143200667Y-129811987D01*
X143195813Y-129811267D01*
X143191054Y-129810075D01*
X143186434Y-129808422D01*
X143181998Y-129806324D01*
X143177789Y-129803801D01*
X143173848Y-129800879D01*
X143170213Y-129797583D01*
X143166917Y-129793948D01*
X143163995Y-129790007D01*
X143161472Y-129785798D01*
X143159374Y-129781362D01*
X143157721Y-129776742D01*
X143156529Y-129771983D01*
X143155809Y-129767129D01*
X143155568Y-129762228D01*
X143155568Y-129612228D01*
X143155809Y-129607327D01*
X143156529Y-129602473D01*
X143157721Y-129597714D01*
X143159374Y-129593094D01*
X143161472Y-129588658D01*
X143163995Y-129584449D01*
X143166917Y-129580508D01*
X143170213Y-129576873D01*
X143173848Y-129573577D01*
X143177789Y-129570655D01*
X143181998Y-129568132D01*
X143186434Y-129566034D01*
X143191054Y-129564381D01*
X143195813Y-129563189D01*
X143200667Y-129562469D01*
X143205568Y-129562228D01*
X143680568Y-129562228D01*
X143685469Y-129562469D01*
X143685469Y-129562469D01*
G37*
D13*
X143443068Y-129687228D03*
D12*
G36*
X143656969Y-130062469D02*
X143661823Y-130063189D01*
X143666582Y-130064381D01*
X143671202Y-130066034D01*
X143675638Y-130068132D01*
X143679847Y-130070655D01*
X143683788Y-130073577D01*
X143687423Y-130076873D01*
X143690719Y-130080508D01*
X143693641Y-130084449D01*
X143696164Y-130088658D01*
X143698262Y-130093094D01*
X143699915Y-130097714D01*
X143701107Y-130102473D01*
X143701827Y-130107327D01*
X143702068Y-130112228D01*
X143702068Y-130262228D01*
X143701827Y-130267129D01*
X143701107Y-130271983D01*
X143699915Y-130276742D01*
X143698262Y-130281362D01*
X143696164Y-130285798D01*
X143693641Y-130290007D01*
X143690719Y-130293948D01*
X143687423Y-130297583D01*
X143683788Y-130300879D01*
X143679847Y-130303801D01*
X143675638Y-130306324D01*
X143671202Y-130308422D01*
X143666582Y-130310075D01*
X143661823Y-130311267D01*
X143656969Y-130311987D01*
X143652068Y-130312228D01*
X143032068Y-130312228D01*
X143027167Y-130311987D01*
X143022313Y-130311267D01*
X143017554Y-130310075D01*
X143012934Y-130308422D01*
X143008498Y-130306324D01*
X143004289Y-130303801D01*
X143000348Y-130300879D01*
X142996713Y-130297583D01*
X142993417Y-130293948D01*
X142990495Y-130290007D01*
X142987972Y-130285798D01*
X142985874Y-130281362D01*
X142984221Y-130276742D01*
X142983029Y-130271983D01*
X142982309Y-130267129D01*
X142982068Y-130262228D01*
X142982068Y-130112228D01*
X142982309Y-130107327D01*
X142983029Y-130102473D01*
X142984221Y-130097714D01*
X142985874Y-130093094D01*
X142987972Y-130088658D01*
X142990495Y-130084449D01*
X142993417Y-130080508D01*
X142996713Y-130076873D01*
X143000348Y-130073577D01*
X143004289Y-130070655D01*
X143008498Y-130068132D01*
X143012934Y-130066034D01*
X143017554Y-130064381D01*
X143022313Y-130063189D01*
X143027167Y-130062469D01*
X143032068Y-130062228D01*
X143652068Y-130062228D01*
X143656969Y-130062469D01*
X143656969Y-130062469D01*
G37*
D13*
X143342068Y-130187228D03*
D12*
G36*
X142736969Y-130062469D02*
X142741823Y-130063189D01*
X142746582Y-130064381D01*
X142751202Y-130066034D01*
X142755638Y-130068132D01*
X142759847Y-130070655D01*
X142763788Y-130073577D01*
X142767423Y-130076873D01*
X142770719Y-130080508D01*
X142773641Y-130084449D01*
X142776164Y-130088658D01*
X142778262Y-130093094D01*
X142779915Y-130097714D01*
X142781107Y-130102473D01*
X142781827Y-130107327D01*
X142782068Y-130112228D01*
X142782068Y-130262228D01*
X142781827Y-130267129D01*
X142781107Y-130271983D01*
X142779915Y-130276742D01*
X142778262Y-130281362D01*
X142776164Y-130285798D01*
X142773641Y-130290007D01*
X142770719Y-130293948D01*
X142767423Y-130297583D01*
X142763788Y-130300879D01*
X142759847Y-130303801D01*
X142755638Y-130306324D01*
X142751202Y-130308422D01*
X142746582Y-130310075D01*
X142741823Y-130311267D01*
X142736969Y-130311987D01*
X142732068Y-130312228D01*
X142112068Y-130312228D01*
X142107167Y-130311987D01*
X142102313Y-130311267D01*
X142097554Y-130310075D01*
X142092934Y-130308422D01*
X142088498Y-130306324D01*
X142084289Y-130303801D01*
X142080348Y-130300879D01*
X142076713Y-130297583D01*
X142073417Y-130293948D01*
X142070495Y-130290007D01*
X142067972Y-130285798D01*
X142065874Y-130281362D01*
X142064221Y-130276742D01*
X142063029Y-130271983D01*
X142062309Y-130267129D01*
X142062068Y-130262228D01*
X142062068Y-130112228D01*
X142062309Y-130107327D01*
X142063029Y-130102473D01*
X142064221Y-130097714D01*
X142065874Y-130093094D01*
X142067972Y-130088658D01*
X142070495Y-130084449D01*
X142073417Y-130080508D01*
X142076713Y-130076873D01*
X142080348Y-130073577D01*
X142084289Y-130070655D01*
X142088498Y-130068132D01*
X142092934Y-130066034D01*
X142097554Y-130064381D01*
X142102313Y-130063189D01*
X142107167Y-130062469D01*
X142112068Y-130062228D01*
X142732068Y-130062228D01*
X142736969Y-130062469D01*
X142736969Y-130062469D01*
G37*
D13*
X142422068Y-130187228D03*
D12*
G36*
X142636969Y-128487469D02*
X142641823Y-128488189D01*
X142646582Y-128489381D01*
X142651202Y-128491034D01*
X142655638Y-128493132D01*
X142659847Y-128495655D01*
X142663788Y-128498577D01*
X142667423Y-128501873D01*
X142670719Y-128505508D01*
X142673641Y-128509449D01*
X142676164Y-128513658D01*
X142678262Y-128518094D01*
X142679915Y-128522714D01*
X142681107Y-128527473D01*
X142681827Y-128532327D01*
X142682068Y-128537228D01*
X142682068Y-129037228D01*
X142681827Y-129042129D01*
X142681107Y-129046983D01*
X142679915Y-129051742D01*
X142678262Y-129056362D01*
X142676164Y-129060798D01*
X142673641Y-129065007D01*
X142670719Y-129068948D01*
X142667423Y-129072583D01*
X142663788Y-129075879D01*
X142659847Y-129078801D01*
X142655638Y-129081324D01*
X142651202Y-129083422D01*
X142646582Y-129085075D01*
X142641823Y-129086267D01*
X142636969Y-129086987D01*
X142632068Y-129087228D01*
X142482068Y-129087228D01*
X142477167Y-129086987D01*
X142472313Y-129086267D01*
X142467554Y-129085075D01*
X142462934Y-129083422D01*
X142458498Y-129081324D01*
X142454289Y-129078801D01*
X142450348Y-129075879D01*
X142446713Y-129072583D01*
X142443417Y-129068948D01*
X142440495Y-129065007D01*
X142437972Y-129060798D01*
X142435874Y-129056362D01*
X142434221Y-129051742D01*
X142433029Y-129046983D01*
X142432309Y-129042129D01*
X142432068Y-129037228D01*
X142432068Y-128537228D01*
X142432309Y-128532327D01*
X142433029Y-128527473D01*
X142434221Y-128522714D01*
X142435874Y-128518094D01*
X142437972Y-128513658D01*
X142440495Y-128509449D01*
X142443417Y-128505508D01*
X142446713Y-128501873D01*
X142450348Y-128498577D01*
X142454289Y-128495655D01*
X142458498Y-128493132D01*
X142462934Y-128491034D01*
X142467554Y-128489381D01*
X142472313Y-128488189D01*
X142477167Y-128487469D01*
X142482068Y-128487228D01*
X142632068Y-128487228D01*
X142636969Y-128487469D01*
X142636969Y-128487469D01*
G37*
D13*
X142557068Y-128787228D03*
D12*
G36*
X143136969Y-128487469D02*
X143141823Y-128488189D01*
X143146582Y-128489381D01*
X143151202Y-128491034D01*
X143155638Y-128493132D01*
X143159847Y-128495655D01*
X143163788Y-128498577D01*
X143167423Y-128501873D01*
X143170719Y-128505508D01*
X143173641Y-128509449D01*
X143176164Y-128513658D01*
X143178262Y-128518094D01*
X143179915Y-128522714D01*
X143181107Y-128527473D01*
X143181827Y-128532327D01*
X143182068Y-128537228D01*
X143182068Y-129037228D01*
X143181827Y-129042129D01*
X143181107Y-129046983D01*
X143179915Y-129051742D01*
X143178262Y-129056362D01*
X143176164Y-129060798D01*
X143173641Y-129065007D01*
X143170719Y-129068948D01*
X143167423Y-129072583D01*
X143163788Y-129075879D01*
X143159847Y-129078801D01*
X143155638Y-129081324D01*
X143151202Y-129083422D01*
X143146582Y-129085075D01*
X143141823Y-129086267D01*
X143136969Y-129086987D01*
X143132068Y-129087228D01*
X142982068Y-129087228D01*
X142977167Y-129086987D01*
X142972313Y-129086267D01*
X142967554Y-129085075D01*
X142962934Y-129083422D01*
X142958498Y-129081324D01*
X142954289Y-129078801D01*
X142950348Y-129075879D01*
X142946713Y-129072583D01*
X142943417Y-129068948D01*
X142940495Y-129065007D01*
X142937972Y-129060798D01*
X142935874Y-129056362D01*
X142934221Y-129051742D01*
X142933029Y-129046983D01*
X142932309Y-129042129D01*
X142932068Y-129037228D01*
X142932068Y-128537228D01*
X142932309Y-128532327D01*
X142933029Y-128527473D01*
X142934221Y-128522714D01*
X142935874Y-128518094D01*
X142937972Y-128513658D01*
X142940495Y-128509449D01*
X142943417Y-128505508D01*
X142946713Y-128501873D01*
X142950348Y-128498577D01*
X142954289Y-128495655D01*
X142958498Y-128493132D01*
X142962934Y-128491034D01*
X142967554Y-128489381D01*
X142972313Y-128488189D01*
X142977167Y-128487469D01*
X142982068Y-128487228D01*
X143132068Y-128487228D01*
X143136969Y-128487469D01*
X143136969Y-128487469D01*
G37*
D13*
X143057068Y-128787228D03*
D12*
G36*
X143061969Y-128837469D02*
X143066823Y-128838189D01*
X143071582Y-128839381D01*
X143076202Y-128841034D01*
X143080638Y-128843132D01*
X143084847Y-128845655D01*
X143088788Y-128848577D01*
X143092423Y-128851873D01*
X143095719Y-128855508D01*
X143098641Y-128859449D01*
X143101164Y-128863658D01*
X143103262Y-128868094D01*
X143104915Y-128872714D01*
X143106107Y-128877473D01*
X143106827Y-128882327D01*
X143107068Y-128887228D01*
X143107068Y-129037228D01*
X143106827Y-129042129D01*
X143106107Y-129046983D01*
X143104915Y-129051742D01*
X143103262Y-129056362D01*
X143101164Y-129060798D01*
X143098641Y-129065007D01*
X143095719Y-129068948D01*
X143092423Y-129072583D01*
X143088788Y-129075879D01*
X143084847Y-129078801D01*
X143080638Y-129081324D01*
X143076202Y-129083422D01*
X143071582Y-129085075D01*
X143066823Y-129086267D01*
X143061969Y-129086987D01*
X143057068Y-129087228D01*
X142557068Y-129087228D01*
X142552167Y-129086987D01*
X142547313Y-129086267D01*
X142542554Y-129085075D01*
X142537934Y-129083422D01*
X142533498Y-129081324D01*
X142529289Y-129078801D01*
X142525348Y-129075879D01*
X142521713Y-129072583D01*
X142518417Y-129068948D01*
X142515495Y-129065007D01*
X142512972Y-129060798D01*
X142510874Y-129056362D01*
X142509221Y-129051742D01*
X142508029Y-129046983D01*
X142507309Y-129042129D01*
X142507068Y-129037228D01*
X142507068Y-128887228D01*
X142507309Y-128882327D01*
X142508029Y-128877473D01*
X142509221Y-128872714D01*
X142510874Y-128868094D01*
X142512972Y-128863658D01*
X142515495Y-128859449D01*
X142518417Y-128855508D01*
X142521713Y-128851873D01*
X142525348Y-128848577D01*
X142529289Y-128845655D01*
X142533498Y-128843132D01*
X142537934Y-128841034D01*
X142542554Y-128839381D01*
X142547313Y-128838189D01*
X142552167Y-128837469D01*
X142557068Y-128837228D01*
X143057068Y-128837228D01*
X143061969Y-128837469D01*
X143061969Y-128837469D01*
G37*
D13*
X142807068Y-128962228D03*
D12*
G36*
X143061969Y-131287469D02*
X143066823Y-131288189D01*
X143071582Y-131289381D01*
X143076202Y-131291034D01*
X143080638Y-131293132D01*
X143084847Y-131295655D01*
X143088788Y-131298577D01*
X143092423Y-131301873D01*
X143095719Y-131305508D01*
X143098641Y-131309449D01*
X143101164Y-131313658D01*
X143103262Y-131318094D01*
X143104915Y-131322714D01*
X143106107Y-131327473D01*
X143106827Y-131332327D01*
X143107068Y-131337228D01*
X143107068Y-131487228D01*
X143106827Y-131492129D01*
X143106107Y-131496983D01*
X143104915Y-131501742D01*
X143103262Y-131506362D01*
X143101164Y-131510798D01*
X143098641Y-131515007D01*
X143095719Y-131518948D01*
X143092423Y-131522583D01*
X143088788Y-131525879D01*
X143084847Y-131528801D01*
X143080638Y-131531324D01*
X143076202Y-131533422D01*
X143071582Y-131535075D01*
X143066823Y-131536267D01*
X143061969Y-131536987D01*
X143057068Y-131537228D01*
X142557068Y-131537228D01*
X142552167Y-131536987D01*
X142547313Y-131536267D01*
X142542554Y-131535075D01*
X142537934Y-131533422D01*
X142533498Y-131531324D01*
X142529289Y-131528801D01*
X142525348Y-131525879D01*
X142521713Y-131522583D01*
X142518417Y-131518948D01*
X142515495Y-131515007D01*
X142512972Y-131510798D01*
X142510874Y-131506362D01*
X142509221Y-131501742D01*
X142508029Y-131496983D01*
X142507309Y-131492129D01*
X142507068Y-131487228D01*
X142507068Y-131337228D01*
X142507309Y-131332327D01*
X142508029Y-131327473D01*
X142509221Y-131322714D01*
X142510874Y-131318094D01*
X142512972Y-131313658D01*
X142515495Y-131309449D01*
X142518417Y-131305508D01*
X142521713Y-131301873D01*
X142525348Y-131298577D01*
X142529289Y-131295655D01*
X142533498Y-131293132D01*
X142537934Y-131291034D01*
X142542554Y-131289381D01*
X142547313Y-131288189D01*
X142552167Y-131287469D01*
X142557068Y-131287228D01*
X143057068Y-131287228D01*
X143061969Y-131287469D01*
X143061969Y-131287469D01*
G37*
D13*
X142807068Y-131412228D03*
D12*
G36*
X141636969Y-128487469D02*
X141641823Y-128488189D01*
X141646582Y-128489381D01*
X141651202Y-128491034D01*
X141655638Y-128493132D01*
X141659847Y-128495655D01*
X141663788Y-128498577D01*
X141667423Y-128501873D01*
X141670719Y-128505508D01*
X141673641Y-128509449D01*
X141676164Y-128513658D01*
X141678262Y-128518094D01*
X141679915Y-128522714D01*
X141681107Y-128527473D01*
X141681827Y-128532327D01*
X141682068Y-128537228D01*
X141682068Y-129037228D01*
X141681827Y-129042129D01*
X141681107Y-129046983D01*
X141679915Y-129051742D01*
X141678262Y-129056362D01*
X141676164Y-129060798D01*
X141673641Y-129065007D01*
X141670719Y-129068948D01*
X141667423Y-129072583D01*
X141663788Y-129075879D01*
X141659847Y-129078801D01*
X141655638Y-129081324D01*
X141651202Y-129083422D01*
X141646582Y-129085075D01*
X141641823Y-129086267D01*
X141636969Y-129086987D01*
X141632068Y-129087228D01*
X141482068Y-129087228D01*
X141477167Y-129086987D01*
X141472313Y-129086267D01*
X141467554Y-129085075D01*
X141462934Y-129083422D01*
X141458498Y-129081324D01*
X141454289Y-129078801D01*
X141450348Y-129075879D01*
X141446713Y-129072583D01*
X141443417Y-129068948D01*
X141440495Y-129065007D01*
X141437972Y-129060798D01*
X141435874Y-129056362D01*
X141434221Y-129051742D01*
X141433029Y-129046983D01*
X141432309Y-129042129D01*
X141432068Y-129037228D01*
X141432068Y-128537228D01*
X141432309Y-128532327D01*
X141433029Y-128527473D01*
X141434221Y-128522714D01*
X141435874Y-128518094D01*
X141437972Y-128513658D01*
X141440495Y-128509449D01*
X141443417Y-128505508D01*
X141446713Y-128501873D01*
X141450348Y-128498577D01*
X141454289Y-128495655D01*
X141458498Y-128493132D01*
X141462934Y-128491034D01*
X141467554Y-128489381D01*
X141472313Y-128488189D01*
X141477167Y-128487469D01*
X141482068Y-128487228D01*
X141632068Y-128487228D01*
X141636969Y-128487469D01*
X141636969Y-128487469D01*
G37*
D13*
X141557068Y-128787228D03*
D12*
G36*
X142136969Y-128487469D02*
X142141823Y-128488189D01*
X142146582Y-128489381D01*
X142151202Y-128491034D01*
X142155638Y-128493132D01*
X142159847Y-128495655D01*
X142163788Y-128498577D01*
X142167423Y-128501873D01*
X142170719Y-128505508D01*
X142173641Y-128509449D01*
X142176164Y-128513658D01*
X142178262Y-128518094D01*
X142179915Y-128522714D01*
X142181107Y-128527473D01*
X142181827Y-128532327D01*
X142182068Y-128537228D01*
X142182068Y-129037228D01*
X142181827Y-129042129D01*
X142181107Y-129046983D01*
X142179915Y-129051742D01*
X142178262Y-129056362D01*
X142176164Y-129060798D01*
X142173641Y-129065007D01*
X142170719Y-129068948D01*
X142167423Y-129072583D01*
X142163788Y-129075879D01*
X142159847Y-129078801D01*
X142155638Y-129081324D01*
X142151202Y-129083422D01*
X142146582Y-129085075D01*
X142141823Y-129086267D01*
X142136969Y-129086987D01*
X142132068Y-129087228D01*
X141982068Y-129087228D01*
X141977167Y-129086987D01*
X141972313Y-129086267D01*
X141967554Y-129085075D01*
X141962934Y-129083422D01*
X141958498Y-129081324D01*
X141954289Y-129078801D01*
X141950348Y-129075879D01*
X141946713Y-129072583D01*
X141943417Y-129068948D01*
X141940495Y-129065007D01*
X141937972Y-129060798D01*
X141935874Y-129056362D01*
X141934221Y-129051742D01*
X141933029Y-129046983D01*
X141932309Y-129042129D01*
X141932068Y-129037228D01*
X141932068Y-128537228D01*
X141932309Y-128532327D01*
X141933029Y-128527473D01*
X141934221Y-128522714D01*
X141935874Y-128518094D01*
X141937972Y-128513658D01*
X141940495Y-128509449D01*
X141943417Y-128505508D01*
X141946713Y-128501873D01*
X141950348Y-128498577D01*
X141954289Y-128495655D01*
X141958498Y-128493132D01*
X141962934Y-128491034D01*
X141967554Y-128489381D01*
X141972313Y-128488189D01*
X141977167Y-128487469D01*
X141982068Y-128487228D01*
X142132068Y-128487228D01*
X142136969Y-128487469D01*
X142136969Y-128487469D01*
G37*
D13*
X142057068Y-128787228D03*
D12*
G36*
X143136969Y-131287469D02*
X143141823Y-131288189D01*
X143146582Y-131289381D01*
X143151202Y-131291034D01*
X143155638Y-131293132D01*
X143159847Y-131295655D01*
X143163788Y-131298577D01*
X143167423Y-131301873D01*
X143170719Y-131305508D01*
X143173641Y-131309449D01*
X143176164Y-131313658D01*
X143178262Y-131318094D01*
X143179915Y-131322714D01*
X143181107Y-131327473D01*
X143181827Y-131332327D01*
X143182068Y-131337228D01*
X143182068Y-131837228D01*
X143181827Y-131842129D01*
X143181107Y-131846983D01*
X143179915Y-131851742D01*
X143178262Y-131856362D01*
X143176164Y-131860798D01*
X143173641Y-131865007D01*
X143170719Y-131868948D01*
X143167423Y-131872583D01*
X143163788Y-131875879D01*
X143159847Y-131878801D01*
X143155638Y-131881324D01*
X143151202Y-131883422D01*
X143146582Y-131885075D01*
X143141823Y-131886267D01*
X143136969Y-131886987D01*
X143132068Y-131887228D01*
X142982068Y-131887228D01*
X142977167Y-131886987D01*
X142972313Y-131886267D01*
X142967554Y-131885075D01*
X142962934Y-131883422D01*
X142958498Y-131881324D01*
X142954289Y-131878801D01*
X142950348Y-131875879D01*
X142946713Y-131872583D01*
X142943417Y-131868948D01*
X142940495Y-131865007D01*
X142937972Y-131860798D01*
X142935874Y-131856362D01*
X142934221Y-131851742D01*
X142933029Y-131846983D01*
X142932309Y-131842129D01*
X142932068Y-131837228D01*
X142932068Y-131337228D01*
X142932309Y-131332327D01*
X142933029Y-131327473D01*
X142934221Y-131322714D01*
X142935874Y-131318094D01*
X142937972Y-131313658D01*
X142940495Y-131309449D01*
X142943417Y-131305508D01*
X142946713Y-131301873D01*
X142950348Y-131298577D01*
X142954289Y-131295655D01*
X142958498Y-131293132D01*
X142962934Y-131291034D01*
X142967554Y-131289381D01*
X142972313Y-131288189D01*
X142977167Y-131287469D01*
X142982068Y-131287228D01*
X143132068Y-131287228D01*
X143136969Y-131287469D01*
X143136969Y-131287469D01*
G37*
D13*
X143057068Y-131587228D03*
D12*
G36*
X142636969Y-131287469D02*
X142641823Y-131288189D01*
X142646582Y-131289381D01*
X142651202Y-131291034D01*
X142655638Y-131293132D01*
X142659847Y-131295655D01*
X142663788Y-131298577D01*
X142667423Y-131301873D01*
X142670719Y-131305508D01*
X142673641Y-131309449D01*
X142676164Y-131313658D01*
X142678262Y-131318094D01*
X142679915Y-131322714D01*
X142681107Y-131327473D01*
X142681827Y-131332327D01*
X142682068Y-131337228D01*
X142682068Y-131837228D01*
X142681827Y-131842129D01*
X142681107Y-131846983D01*
X142679915Y-131851742D01*
X142678262Y-131856362D01*
X142676164Y-131860798D01*
X142673641Y-131865007D01*
X142670719Y-131868948D01*
X142667423Y-131872583D01*
X142663788Y-131875879D01*
X142659847Y-131878801D01*
X142655638Y-131881324D01*
X142651202Y-131883422D01*
X142646582Y-131885075D01*
X142641823Y-131886267D01*
X142636969Y-131886987D01*
X142632068Y-131887228D01*
X142482068Y-131887228D01*
X142477167Y-131886987D01*
X142472313Y-131886267D01*
X142467554Y-131885075D01*
X142462934Y-131883422D01*
X142458498Y-131881324D01*
X142454289Y-131878801D01*
X142450348Y-131875879D01*
X142446713Y-131872583D01*
X142443417Y-131868948D01*
X142440495Y-131865007D01*
X142437972Y-131860798D01*
X142435874Y-131856362D01*
X142434221Y-131851742D01*
X142433029Y-131846983D01*
X142432309Y-131842129D01*
X142432068Y-131837228D01*
X142432068Y-131337228D01*
X142432309Y-131332327D01*
X142433029Y-131327473D01*
X142434221Y-131322714D01*
X142435874Y-131318094D01*
X142437972Y-131313658D01*
X142440495Y-131309449D01*
X142443417Y-131305508D01*
X142446713Y-131301873D01*
X142450348Y-131298577D01*
X142454289Y-131295655D01*
X142458498Y-131293132D01*
X142462934Y-131291034D01*
X142467554Y-131289381D01*
X142472313Y-131288189D01*
X142477167Y-131287469D01*
X142482068Y-131287228D01*
X142632068Y-131287228D01*
X142636969Y-131287469D01*
X142636969Y-131287469D01*
G37*
D13*
X142557068Y-131587228D03*
D12*
G36*
X142136969Y-131287469D02*
X142141823Y-131288189D01*
X142146582Y-131289381D01*
X142151202Y-131291034D01*
X142155638Y-131293132D01*
X142159847Y-131295655D01*
X142163788Y-131298577D01*
X142167423Y-131301873D01*
X142170719Y-131305508D01*
X142173641Y-131309449D01*
X142176164Y-131313658D01*
X142178262Y-131318094D01*
X142179915Y-131322714D01*
X142181107Y-131327473D01*
X142181827Y-131332327D01*
X142182068Y-131337228D01*
X142182068Y-131837228D01*
X142181827Y-131842129D01*
X142181107Y-131846983D01*
X142179915Y-131851742D01*
X142178262Y-131856362D01*
X142176164Y-131860798D01*
X142173641Y-131865007D01*
X142170719Y-131868948D01*
X142167423Y-131872583D01*
X142163788Y-131875879D01*
X142159847Y-131878801D01*
X142155638Y-131881324D01*
X142151202Y-131883422D01*
X142146582Y-131885075D01*
X142141823Y-131886267D01*
X142136969Y-131886987D01*
X142132068Y-131887228D01*
X141982068Y-131887228D01*
X141977167Y-131886987D01*
X141972313Y-131886267D01*
X141967554Y-131885075D01*
X141962934Y-131883422D01*
X141958498Y-131881324D01*
X141954289Y-131878801D01*
X141950348Y-131875879D01*
X141946713Y-131872583D01*
X141943417Y-131868948D01*
X141940495Y-131865007D01*
X141937972Y-131860798D01*
X141935874Y-131856362D01*
X141934221Y-131851742D01*
X141933029Y-131846983D01*
X141932309Y-131842129D01*
X141932068Y-131837228D01*
X141932068Y-131337228D01*
X141932309Y-131332327D01*
X141933029Y-131327473D01*
X141934221Y-131322714D01*
X141935874Y-131318094D01*
X141937972Y-131313658D01*
X141940495Y-131309449D01*
X141943417Y-131305508D01*
X141946713Y-131301873D01*
X141950348Y-131298577D01*
X141954289Y-131295655D01*
X141958498Y-131293132D01*
X141962934Y-131291034D01*
X141967554Y-131289381D01*
X141972313Y-131288189D01*
X141977167Y-131287469D01*
X141982068Y-131287228D01*
X142132068Y-131287228D01*
X142136969Y-131287469D01*
X142136969Y-131287469D01*
G37*
D13*
X142057068Y-131587228D03*
D12*
G36*
X141636969Y-131287469D02*
X141641823Y-131288189D01*
X141646582Y-131289381D01*
X141651202Y-131291034D01*
X141655638Y-131293132D01*
X141659847Y-131295655D01*
X141663788Y-131298577D01*
X141667423Y-131301873D01*
X141670719Y-131305508D01*
X141673641Y-131309449D01*
X141676164Y-131313658D01*
X141678262Y-131318094D01*
X141679915Y-131322714D01*
X141681107Y-131327473D01*
X141681827Y-131332327D01*
X141682068Y-131337228D01*
X141682068Y-131837228D01*
X141681827Y-131842129D01*
X141681107Y-131846983D01*
X141679915Y-131851742D01*
X141678262Y-131856362D01*
X141676164Y-131860798D01*
X141673641Y-131865007D01*
X141670719Y-131868948D01*
X141667423Y-131872583D01*
X141663788Y-131875879D01*
X141659847Y-131878801D01*
X141655638Y-131881324D01*
X141651202Y-131883422D01*
X141646582Y-131885075D01*
X141641823Y-131886267D01*
X141636969Y-131886987D01*
X141632068Y-131887228D01*
X141482068Y-131887228D01*
X141477167Y-131886987D01*
X141472313Y-131886267D01*
X141467554Y-131885075D01*
X141462934Y-131883422D01*
X141458498Y-131881324D01*
X141454289Y-131878801D01*
X141450348Y-131875879D01*
X141446713Y-131872583D01*
X141443417Y-131868948D01*
X141440495Y-131865007D01*
X141437972Y-131860798D01*
X141435874Y-131856362D01*
X141434221Y-131851742D01*
X141433029Y-131846983D01*
X141432309Y-131842129D01*
X141432068Y-131837228D01*
X141432068Y-131337228D01*
X141432309Y-131332327D01*
X141433029Y-131327473D01*
X141434221Y-131322714D01*
X141435874Y-131318094D01*
X141437972Y-131313658D01*
X141440495Y-131309449D01*
X141443417Y-131305508D01*
X141446713Y-131301873D01*
X141450348Y-131298577D01*
X141454289Y-131295655D01*
X141458498Y-131293132D01*
X141462934Y-131291034D01*
X141467554Y-131289381D01*
X141472313Y-131288189D01*
X141477167Y-131287469D01*
X141482068Y-131287228D01*
X141632068Y-131287228D01*
X141636969Y-131287469D01*
X141636969Y-131287469D01*
G37*
D13*
X141557068Y-131587228D03*
D12*
G36*
X141386969Y-130812469D02*
X141391823Y-130813189D01*
X141396582Y-130814381D01*
X141401202Y-130816034D01*
X141405638Y-130818132D01*
X141409847Y-130820655D01*
X141413788Y-130823577D01*
X141417423Y-130826873D01*
X141420719Y-130830508D01*
X141423641Y-130834449D01*
X141426164Y-130838658D01*
X141428262Y-130843094D01*
X141429915Y-130847714D01*
X141431107Y-130852473D01*
X141431827Y-130857327D01*
X141432068Y-130862228D01*
X141432068Y-131012228D01*
X141431827Y-131017129D01*
X141431107Y-131021983D01*
X141429915Y-131026742D01*
X141428262Y-131031362D01*
X141426164Y-131035798D01*
X141423641Y-131040007D01*
X141420719Y-131043948D01*
X141417423Y-131047583D01*
X141413788Y-131050879D01*
X141409847Y-131053801D01*
X141405638Y-131056324D01*
X141401202Y-131058422D01*
X141396582Y-131060075D01*
X141391823Y-131061267D01*
X141386969Y-131061987D01*
X141382068Y-131062228D01*
X140882068Y-131062228D01*
X140877167Y-131061987D01*
X140872313Y-131061267D01*
X140867554Y-131060075D01*
X140862934Y-131058422D01*
X140858498Y-131056324D01*
X140854289Y-131053801D01*
X140850348Y-131050879D01*
X140846713Y-131047583D01*
X140843417Y-131043948D01*
X140840495Y-131040007D01*
X140837972Y-131035798D01*
X140835874Y-131031362D01*
X140834221Y-131026742D01*
X140833029Y-131021983D01*
X140832309Y-131017129D01*
X140832068Y-131012228D01*
X140832068Y-130862228D01*
X140832309Y-130857327D01*
X140833029Y-130852473D01*
X140834221Y-130847714D01*
X140835874Y-130843094D01*
X140837972Y-130838658D01*
X140840495Y-130834449D01*
X140843417Y-130830508D01*
X140846713Y-130826873D01*
X140850348Y-130823577D01*
X140854289Y-130820655D01*
X140858498Y-130818132D01*
X140862934Y-130816034D01*
X140867554Y-130814381D01*
X140872313Y-130813189D01*
X140877167Y-130812469D01*
X140882068Y-130812228D01*
X141382068Y-130812228D01*
X141386969Y-130812469D01*
X141386969Y-130812469D01*
G37*
D13*
X141132068Y-130937228D03*
D12*
G36*
X141386969Y-130312469D02*
X141391823Y-130313189D01*
X141396582Y-130314381D01*
X141401202Y-130316034D01*
X141405638Y-130318132D01*
X141409847Y-130320655D01*
X141413788Y-130323577D01*
X141417423Y-130326873D01*
X141420719Y-130330508D01*
X141423641Y-130334449D01*
X141426164Y-130338658D01*
X141428262Y-130343094D01*
X141429915Y-130347714D01*
X141431107Y-130352473D01*
X141431827Y-130357327D01*
X141432068Y-130362228D01*
X141432068Y-130512228D01*
X141431827Y-130517129D01*
X141431107Y-130521983D01*
X141429915Y-130526742D01*
X141428262Y-130531362D01*
X141426164Y-130535798D01*
X141423641Y-130540007D01*
X141420719Y-130543948D01*
X141417423Y-130547583D01*
X141413788Y-130550879D01*
X141409847Y-130553801D01*
X141405638Y-130556324D01*
X141401202Y-130558422D01*
X141396582Y-130560075D01*
X141391823Y-130561267D01*
X141386969Y-130561987D01*
X141382068Y-130562228D01*
X140882068Y-130562228D01*
X140877167Y-130561987D01*
X140872313Y-130561267D01*
X140867554Y-130560075D01*
X140862934Y-130558422D01*
X140858498Y-130556324D01*
X140854289Y-130553801D01*
X140850348Y-130550879D01*
X140846713Y-130547583D01*
X140843417Y-130543948D01*
X140840495Y-130540007D01*
X140837972Y-130535798D01*
X140835874Y-130531362D01*
X140834221Y-130526742D01*
X140833029Y-130521983D01*
X140832309Y-130517129D01*
X140832068Y-130512228D01*
X140832068Y-130362228D01*
X140832309Y-130357327D01*
X140833029Y-130352473D01*
X140834221Y-130347714D01*
X140835874Y-130343094D01*
X140837972Y-130338658D01*
X140840495Y-130334449D01*
X140843417Y-130330508D01*
X140846713Y-130326873D01*
X140850348Y-130323577D01*
X140854289Y-130320655D01*
X140858498Y-130318132D01*
X140862934Y-130316034D01*
X140867554Y-130314381D01*
X140872313Y-130313189D01*
X140877167Y-130312469D01*
X140882068Y-130312228D01*
X141382068Y-130312228D01*
X141386969Y-130312469D01*
X141386969Y-130312469D01*
G37*
D13*
X141132068Y-130437228D03*
D12*
G36*
X141386969Y-129812469D02*
X141391823Y-129813189D01*
X141396582Y-129814381D01*
X141401202Y-129816034D01*
X141405638Y-129818132D01*
X141409847Y-129820655D01*
X141413788Y-129823577D01*
X141417423Y-129826873D01*
X141420719Y-129830508D01*
X141423641Y-129834449D01*
X141426164Y-129838658D01*
X141428262Y-129843094D01*
X141429915Y-129847714D01*
X141431107Y-129852473D01*
X141431827Y-129857327D01*
X141432068Y-129862228D01*
X141432068Y-130012228D01*
X141431827Y-130017129D01*
X141431107Y-130021983D01*
X141429915Y-130026742D01*
X141428262Y-130031362D01*
X141426164Y-130035798D01*
X141423641Y-130040007D01*
X141420719Y-130043948D01*
X141417423Y-130047583D01*
X141413788Y-130050879D01*
X141409847Y-130053801D01*
X141405638Y-130056324D01*
X141401202Y-130058422D01*
X141396582Y-130060075D01*
X141391823Y-130061267D01*
X141386969Y-130061987D01*
X141382068Y-130062228D01*
X140882068Y-130062228D01*
X140877167Y-130061987D01*
X140872313Y-130061267D01*
X140867554Y-130060075D01*
X140862934Y-130058422D01*
X140858498Y-130056324D01*
X140854289Y-130053801D01*
X140850348Y-130050879D01*
X140846713Y-130047583D01*
X140843417Y-130043948D01*
X140840495Y-130040007D01*
X140837972Y-130035798D01*
X140835874Y-130031362D01*
X140834221Y-130026742D01*
X140833029Y-130021983D01*
X140832309Y-130017129D01*
X140832068Y-130012228D01*
X140832068Y-129862228D01*
X140832309Y-129857327D01*
X140833029Y-129852473D01*
X140834221Y-129847714D01*
X140835874Y-129843094D01*
X140837972Y-129838658D01*
X140840495Y-129834449D01*
X140843417Y-129830508D01*
X140846713Y-129826873D01*
X140850348Y-129823577D01*
X140854289Y-129820655D01*
X140858498Y-129818132D01*
X140862934Y-129816034D01*
X140867554Y-129814381D01*
X140872313Y-129813189D01*
X140877167Y-129812469D01*
X140882068Y-129812228D01*
X141382068Y-129812228D01*
X141386969Y-129812469D01*
X141386969Y-129812469D01*
G37*
D13*
X141132068Y-129937228D03*
D12*
G36*
X141386969Y-129312469D02*
X141391823Y-129313189D01*
X141396582Y-129314381D01*
X141401202Y-129316034D01*
X141405638Y-129318132D01*
X141409847Y-129320655D01*
X141413788Y-129323577D01*
X141417423Y-129326873D01*
X141420719Y-129330508D01*
X141423641Y-129334449D01*
X141426164Y-129338658D01*
X141428262Y-129343094D01*
X141429915Y-129347714D01*
X141431107Y-129352473D01*
X141431827Y-129357327D01*
X141432068Y-129362228D01*
X141432068Y-129512228D01*
X141431827Y-129517129D01*
X141431107Y-129521983D01*
X141429915Y-129526742D01*
X141428262Y-129531362D01*
X141426164Y-129535798D01*
X141423641Y-129540007D01*
X141420719Y-129543948D01*
X141417423Y-129547583D01*
X141413788Y-129550879D01*
X141409847Y-129553801D01*
X141405638Y-129556324D01*
X141401202Y-129558422D01*
X141396582Y-129560075D01*
X141391823Y-129561267D01*
X141386969Y-129561987D01*
X141382068Y-129562228D01*
X140882068Y-129562228D01*
X140877167Y-129561987D01*
X140872313Y-129561267D01*
X140867554Y-129560075D01*
X140862934Y-129558422D01*
X140858498Y-129556324D01*
X140854289Y-129553801D01*
X140850348Y-129550879D01*
X140846713Y-129547583D01*
X140843417Y-129543948D01*
X140840495Y-129540007D01*
X140837972Y-129535798D01*
X140835874Y-129531362D01*
X140834221Y-129526742D01*
X140833029Y-129521983D01*
X140832309Y-129517129D01*
X140832068Y-129512228D01*
X140832068Y-129362228D01*
X140832309Y-129357327D01*
X140833029Y-129352473D01*
X140834221Y-129347714D01*
X140835874Y-129343094D01*
X140837972Y-129338658D01*
X140840495Y-129334449D01*
X140843417Y-129330508D01*
X140846713Y-129326873D01*
X140850348Y-129323577D01*
X140854289Y-129320655D01*
X140858498Y-129318132D01*
X140862934Y-129316034D01*
X140867554Y-129314381D01*
X140872313Y-129313189D01*
X140877167Y-129312469D01*
X140882068Y-129312228D01*
X141382068Y-129312228D01*
X141386969Y-129312469D01*
X141386969Y-129312469D01*
G37*
D13*
X141132068Y-129437228D03*
G04 #@! TD*
D14*
G04 #@! TO.C,BT2*
X130900000Y-163870000D03*
D15*
X130900000Y-148070000D03*
G04 #@! TD*
D16*
G04 #@! TO.C,Y2*
X121050000Y-157370000D03*
X121050000Y-163000000D03*
X116900000Y-163000000D03*
X116900000Y-157370000D03*
G04 #@! TD*
D17*
G04 #@! TO.C,R16*
X113950000Y-150849999D03*
X113950000Y-153049999D03*
G04 #@! TD*
D18*
G04 #@! TO.C,C1*
X122200000Y-143200000D03*
X122200000Y-140700000D03*
G04 #@! TD*
D19*
G04 #@! TO.C,C13*
X144477568Y-137103228D03*
X141977568Y-137103228D03*
G04 #@! TD*
G04 #@! TO.C,C14*
X144477569Y-135134728D03*
X141977569Y-135134728D03*
G04 #@! TD*
G04 #@! TO.C,C15*
X144477569Y-139071728D03*
X141977569Y-139071728D03*
G04 #@! TD*
D18*
G04 #@! TO.C,C16*
X138800000Y-134500000D03*
X138800000Y-132000000D03*
G04 #@! TD*
D20*
G04 #@! TO.C,C17*
X144644568Y-131197728D03*
X144644568Y-133097728D03*
G04 #@! TD*
G04 #@! TO.C,C18*
X144644569Y-129160728D03*
X144644569Y-127260728D03*
G04 #@! TD*
D19*
G04 #@! TO.C,C19*
X144414068Y-125228729D03*
X141914068Y-125228729D03*
G04 #@! TD*
G04 #@! TO.C,C20*
X144300000Y-123200000D03*
X141800000Y-123200000D03*
G04 #@! TD*
D21*
G04 #@! TO.C,D1*
X104300000Y-126500000D03*
X106500000Y-126500000D03*
G04 #@! TD*
D17*
G04 #@! TO.C,D2*
X136300000Y-141400000D03*
X136300000Y-143600000D03*
G04 #@! TD*
D22*
G04 #@! TO.C,D3*
X122100000Y-138300000D03*
X122100000Y-135800000D03*
G04 #@! TD*
G04 #@! TO.C,D4*
X140200000Y-152500000D03*
X142700000Y-152500000D03*
G04 #@! TD*
D17*
G04 #@! TO.C,R1*
X120000000Y-138100000D03*
X120000000Y-135900000D03*
G04 #@! TD*
D21*
G04 #@! TO.C,R2*
X104300000Y-122500000D03*
X106500000Y-122500000D03*
G04 #@! TD*
G04 #@! TO.C,R3*
X104300000Y-124400000D03*
X106500000Y-124400000D03*
G04 #@! TD*
D17*
G04 #@! TO.C,R4*
X120100000Y-143000000D03*
X120100000Y-140800000D03*
G04 #@! TD*
G04 #@! TO.C,R6*
X138400000Y-140800001D03*
X138400000Y-143000001D03*
G04 #@! TD*
D21*
G04 #@! TO.C,R7*
X147000000Y-108050000D03*
X149200000Y-108050000D03*
G04 #@! TD*
G04 #@! TO.C,R8*
X112942500Y-110150000D03*
X115142500Y-110150000D03*
G04 #@! TD*
D17*
G04 #@! TO.C,R9*
X152000000Y-146400000D03*
X152000000Y-148600000D03*
G04 #@! TD*
G04 #@! TO.C,R12*
X142800000Y-112350000D03*
X142800000Y-110150000D03*
G04 #@! TD*
D21*
G04 #@! TO.C,R15*
X146300000Y-166800000D03*
X148500000Y-166800000D03*
G04 #@! TD*
G04 #@! TO.C,R17*
X139500000Y-130000000D03*
X137300000Y-130000000D03*
G04 #@! TD*
D17*
G04 #@! TO.C,R18*
X138600000Y-127600000D03*
X138600000Y-125400000D03*
G04 #@! TD*
D23*
G04 #@! TO.C,U2*
X152350000Y-109450000D03*
X152350000Y-110350000D03*
X153250000Y-109450000D03*
X153250000Y-110350000D03*
D24*
X152050000Y-108425000D03*
X152550000Y-108425000D03*
X153050000Y-108425000D03*
X153550000Y-108425000D03*
D25*
X154275000Y-109150000D03*
X154275000Y-109650000D03*
X154275000Y-110150000D03*
X154275000Y-110650000D03*
D24*
X153550000Y-111375000D03*
X153050000Y-111375000D03*
X152550000Y-111375000D03*
X152050000Y-111375000D03*
D25*
X151325000Y-110650000D03*
X151325000Y-110150000D03*
X151325000Y-109650000D03*
X151325000Y-109150000D03*
G04 #@! TD*
D26*
G04 #@! TO.C,Q3*
X148650000Y-149800000D03*
X148650000Y-145200000D03*
X148650000Y-147500000D03*
D27*
X142350000Y-147500000D03*
G04 #@! TD*
D18*
G04 #@! TO.C,C12*
X116100000Y-153150000D03*
X116100000Y-150650000D03*
G04 #@! TD*
D28*
G04 #@! TO.C,U6*
X118290000Y-149100000D03*
X119560000Y-149100000D03*
X120830000Y-149100000D03*
X122100000Y-149100000D03*
X122100000Y-154500000D03*
X120830000Y-154500000D03*
X119560000Y-154500000D03*
X118290000Y-154500000D03*
G04 #@! TD*
D29*
G04 #@! TO.C,Q1*
X113950000Y-115800000D03*
X113000000Y-112500000D03*
X114900000Y-112500000D03*
G04 #@! TD*
G04 #@! TO.C,Q5*
X147282000Y-172458000D03*
X146332000Y-169158000D03*
X148232000Y-169158000D03*
G04 #@! TD*
D18*
G04 #@! TO.C,C2*
X136300000Y-136750000D03*
X136300000Y-139250000D03*
G04 #@! TD*
G04 #@! TO.C,C3*
X146700000Y-109899999D03*
X146700000Y-112399999D03*
G04 #@! TD*
G04 #@! TO.C,C4*
X144750000Y-112399999D03*
X144750000Y-109899999D03*
G04 #@! TD*
G04 #@! TO.C,C5*
X148750000Y-112400000D03*
X148750000Y-109900000D03*
G04 #@! TD*
M02*
