M48
;DRILL file {KiCad 5.0.2-bee76a0~70~ubuntu18.04.1} date Mon 01 Apr 2019 17:44:41 NZDT
;FORMAT={-:-/ absolute / inch / decimal}
FMAT,2
INCH,TZ
T1C0.0118
T2C0.0157
T3C0.0295
T4C0.0315
T5C0.0319
T6C0.0394
T7C0.0413
T8C0.0906
T9C0.1181
%
G90
G05
T1
X4.3701Y-6.1122
X4.3898Y-6.0531
X4.4587Y-6.0925
X4.4843Y-5.8661
X4.6417Y-6.0551
X4.6752Y-6.0039
X4.8524Y-4.3307
X4.8524Y-4.4291
X4.9276Y-4.75
X4.9508Y-4.9409
X4.9508Y-5.0591
X5.0157Y-4.315
X5.0157Y-4.4291
X5.0394Y-5.6398
X5.0394Y-5.7087
X5.4685Y-6.1083
X5.6594Y-6.7815
X5.7066Y-5.9564
X5.7066Y-6.0151
X5.7069Y-5.931
X5.7069Y-6.0404
X5.8666Y-5.9564
X5.8666Y-6.0151
X5.9041Y-5.9564
X5.9041Y-6.0151
X5.9416Y-5.9564
X5.9416Y-6.0151
T2
X4.2815Y-6.2303
X4.3228Y-4.7185
X4.4764Y-5.0197
X4.5157Y-4.9094
X4.5512Y-4.7795
X4.5945Y-5.2677
X4.6024Y-4.8307
X4.6024Y-4.9724
X4.6063Y-5.5787
X4.7756Y-3.9488
X4.8189Y-5.9409
X4.9134Y-5.2047
X4.9134Y-6.1339
X4.9213Y-4.4213
X4.9528Y-5.8465
X5.2402Y-4.5354
X5.2402Y-4.7087
X5.3189Y-5.626
X5.378Y-5.6181
X5.378Y-5.8622
X5.4252Y-5.9213
X5.6102Y-5.2165
X5.8307Y-4.374
X5.9355Y-4.2495
X5.9449Y-4.4646
X5.9862Y-4.2126
X6.0906Y-4.2323
X6.1339Y-4.2933
T3
X5.1535Y-5.2854
X5.1535Y-5.3642
X5.1535Y-5.4429
X5.1535Y-5.5217
T4
X4.4244Y-4.5543
X4.4244Y-4.6543
X4.4244Y-4.7543
X4.4244Y-4.8543
X4.7244Y-4.5543
X4.7244Y-4.6543
X4.7244Y-4.7543
X4.7244Y-4.8543
T5
X6.148Y-5.5276
X6.148Y-5.6276
X6.2268Y-5.5276
X6.2268Y-5.6276
T6
X5.8331Y-6.3303
X5.8331Y-6.4303
X5.8331Y-6.5102
X5.8331Y-6.6102
X4.2717Y-4.0339
X4.2717Y-4.1339
X4.3717Y-4.0339
X4.3717Y-4.1339
X4.4717Y-4.0339
X4.4717Y-4.1339
X4.5717Y-4.0339
X4.5717Y-4.1339
X4.6717Y-4.0339
X4.6717Y-4.1339
X4.7717Y-4.0339
X4.7717Y-4.1339
X4.8717Y-4.0339
X4.8717Y-4.1339
X4.9717Y-4.0339
X4.9717Y-4.1339
X5.0717Y-4.0339
X5.0717Y-4.1339
X5.1717Y-4.0339
X5.1717Y-4.1339
X5.2717Y-4.0339
X5.2717Y-4.1339
X5.3717Y-4.0339
X5.3717Y-4.1339
X5.4717Y-4.0339
X5.4717Y-4.1339
X5.5717Y-4.0339
X5.5717Y-4.1339
X5.6717Y-4.0339
X5.6717Y-4.1339
X5.7717Y-4.0339
X5.7717Y-4.1339
X5.8717Y-4.0339
X5.8717Y-4.1339
X5.9717Y-4.0339
X5.9717Y-4.1339
X6.0717Y-4.0339
X6.0717Y-4.1339
X6.1717Y-4.0339
X6.1717Y-4.1339
X5.6378Y-5.4606
X5.8346Y-5.4606
X5.1535Y-4.3346
X5.1535Y-4.4331
X5.1535Y-4.5315
X5.1535Y-4.6299
X5.1535Y-4.7283
X5.1535Y-4.8268
X5.1535Y-4.9252
X5.1535Y-5.0236
X5.1535Y-5.8071
X5.1535Y-5.9055
X5.1535Y-6.0039
X5.1535Y-6.1024
T7
X6.3189Y-4.5226
X6.3189Y-4.6211
T8
X6.3331Y-5.3413
X6.3331Y-5.8138
X5.9382Y-6.2102
X5.9382Y-6.7504
T9
X6.3646Y-6.0098
X4.0811Y-6.0098
T6
X6.1608Y-5.1227G85X6.1608Y-5.0439
G05
X6.3183Y-4.8983G85X6.2395Y-4.8983
G05
X6.397Y-5.1227G85X6.397Y-5.0439
G05
T0
M30
