G04 #@! TF.GenerationSoftware,KiCad,Pcbnew,5.0.2-bee76a0~70~ubuntu18.04.1*
G04 #@! TF.CreationDate,2019-04-01T17:44:37+13:00*
G04 #@! TF.ProjectId,pi-hat,70692d68-6174-42e6-9b69-6361645f7063,rev?*
G04 #@! TF.SameCoordinates,Original*
G04 #@! TF.FileFunction,Copper,L2,Bot*
G04 #@! TF.FilePolarity,Positive*
%FSLAX46Y46*%
G04 Gerber Fmt 4.6, Leading zero omitted, Abs format (unit mm)*
G04 Created by KiCad (PCBNEW 5.0.2-bee76a0~70~ubuntu18.04.1) date Mon 01 Apr 2019 17:44:37 NZDT*
%MOMM*%
%LPD*%
G01*
G04 APERTURE LIST*
G04 #@! TA.AperFunction,ComponentPad*
%ADD10C,1.500000*%
G04 #@! TD*
G04 #@! TA.AperFunction,ComponentPad*
%ADD11R,1.500000X1.500000*%
G04 #@! TD*
G04 #@! TA.AperFunction,ComponentPad*
%ADD12C,3.000000*%
G04 #@! TD*
G04 #@! TA.AperFunction,ComponentPad*
%ADD13C,2.000000*%
G04 #@! TD*
G04 #@! TA.AperFunction,ComponentPad*
%ADD14R,2.000000X2.000000*%
G04 #@! TD*
G04 #@! TA.AperFunction,ComponentPad*
%ADD15R,3.500000X3.500000*%
G04 #@! TD*
G04 #@! TA.AperFunction,ComponentPad*
%ADD16O,1.700000X1.700000*%
G04 #@! TD*
G04 #@! TA.AperFunction,ComponentPad*
%ADD17R,1.700000X1.700000*%
G04 #@! TD*
G04 #@! TA.AperFunction,ComponentPad*
%ADD18C,1.750000*%
G04 #@! TD*
G04 #@! TA.AperFunction,ComponentPad*
%ADD19R,1.750000X1.750000*%
G04 #@! TD*
G04 #@! TA.AperFunction,ComponentPad*
%ADD20C,1.520000*%
G04 #@! TD*
G04 #@! TA.AperFunction,ComponentPad*
%ADD21C,2.700000*%
G04 #@! TD*
G04 #@! TA.AperFunction,ComponentPad*
%ADD22R,1.600000X1.600000*%
G04 #@! TD*
G04 #@! TA.AperFunction,ComponentPad*
%ADD23O,1.600000X1.600000*%
G04 #@! TD*
G04 #@! TA.AperFunction,ComponentPad*
%ADD24C,6.000000*%
G04 #@! TD*
G04 #@! TA.AperFunction,ComponentPad*
%ADD25R,1.700000X1.200000*%
G04 #@! TD*
G04 #@! TA.AperFunction,ComponentPad*
%ADD26O,1.700000X1.200000*%
G04 #@! TD*
G04 #@! TA.AperFunction,ViaPad*
%ADD27C,0.800000*%
G04 #@! TD*
G04 #@! TA.AperFunction,ViaPad*
%ADD28C,0.600000*%
G04 #@! TD*
G04 #@! TA.AperFunction,Conductor*
%ADD29C,1.000000*%
G04 #@! TD*
G04 #@! TA.AperFunction,Conductor*
%ADD30C,0.250000*%
G04 #@! TD*
G04 #@! TA.AperFunction,Conductor*
%ADD31C,0.254000*%
G04 #@! TD*
G04 APERTURE END LIST*
D10*
G04 #@! TO.P,J7,4*
G04 #@! TO.N,Net-(J7-Pad4)*
X148160000Y-160790000D03*
G04 #@! TO.P,J7,3*
G04 #@! TO.N,Net-(J5-Pad3)*
X148160000Y-163330000D03*
G04 #@! TO.P,J7,2*
G04 #@! TO.N,Net-(J5-Pad2)*
X148160000Y-165360000D03*
D11*
G04 #@! TO.P,J7,1*
G04 #@! TO.N,Net-(J5-Pad1)*
X148160000Y-167900000D03*
D12*
G04 #@! TO.P,J7,5*
G04 #@! TO.N,Net-(J7-Pad4)*
X150830000Y-157740000D03*
X150830000Y-171460000D03*
G04 #@! TD*
D13*
G04 #@! TO.P,C11,2*
G04 #@! TO.N,GND*
X148200000Y-138700000D03*
D14*
G04 #@! TO.P,C11,1*
G04 #@! TO.N,VCC*
X143200000Y-138700000D03*
G04 #@! TD*
D15*
G04 #@! TO.P,J3,3*
G04 #@! TO.N,GND*
X159484000Y-124416000D03*
G04 #@! TO.P,J3,2*
X162484000Y-129116000D03*
G04 #@! TO.P,J3,1*
G04 #@! TO.N,Net-(F1-Pad2)*
X156484000Y-129116000D03*
G04 #@! TD*
D16*
G04 #@! TO.P,J1,40*
G04 #@! TO.N,/I2S_DIN*
X156760000Y-102460000D03*
G04 #@! TO.P,J1,39*
G04 #@! TO.N,GND*
X156760000Y-105000000D03*
G04 #@! TO.P,J1,38*
G04 #@! TO.N,Net-(J1-Pad38)*
X154220000Y-102460000D03*
G04 #@! TO.P,J1,37*
G04 #@! TO.N,Net-(J1-Pad37)*
X154220000Y-105000000D03*
G04 #@! TO.P,J1,36*
G04 #@! TO.N,Net-(J1-Pad36)*
X151680000Y-102460000D03*
G04 #@! TO.P,J1,35*
G04 #@! TO.N,/I2S_LRCLK*
X151680000Y-105000000D03*
G04 #@! TO.P,J1,34*
G04 #@! TO.N,GND*
X149140000Y-102460000D03*
G04 #@! TO.P,J1,33*
G04 #@! TO.N,Net-(J1-Pad33)*
X149140000Y-105000000D03*
G04 #@! TO.P,J1,32*
G04 #@! TO.N,Net-(J1-Pad32)*
X146600000Y-102460000D03*
G04 #@! TO.P,J1,31*
G04 #@! TO.N,Net-(J1-Pad31)*
X146600000Y-105000000D03*
G04 #@! TO.P,J1,30*
G04 #@! TO.N,GND*
X144060000Y-102460000D03*
G04 #@! TO.P,J1,29*
G04 #@! TO.N,Net-(J1-Pad29)*
X144060000Y-105000000D03*
G04 #@! TO.P,J1,28*
G04 #@! TO.N,Net-(J1-Pad28)*
X141520000Y-102460000D03*
G04 #@! TO.P,J1,27*
G04 #@! TO.N,Net-(J1-Pad27)*
X141520000Y-105000000D03*
G04 #@! TO.P,J1,26*
G04 #@! TO.N,Net-(J1-Pad26)*
X138980000Y-102460000D03*
G04 #@! TO.P,J1,25*
G04 #@! TO.N,GND*
X138980000Y-105000000D03*
G04 #@! TO.P,J1,24*
G04 #@! TO.N,/SPI_CEO*
X136440000Y-102460000D03*
G04 #@! TO.P,J1,23*
G04 #@! TO.N,/SPI_SCLK*
X136440000Y-105000000D03*
G04 #@! TO.P,J1,22*
G04 #@! TO.N,Net-(J1-Pad22)*
X133900000Y-102460000D03*
G04 #@! TO.P,J1,21*
G04 #@! TO.N,/SPI_MISO*
X133900000Y-105000000D03*
G04 #@! TO.P,J1,20*
G04 #@! TO.N,GND*
X131360000Y-102460000D03*
G04 #@! TO.P,J1,19*
G04 #@! TO.N,/SPI_MOSI*
X131360000Y-105000000D03*
G04 #@! TO.P,J1,18*
G04 #@! TO.N,Net-(J1-Pad18)*
X128820000Y-102460000D03*
G04 #@! TO.P,J1,17*
G04 #@! TO.N,/RPi_3V3*
X128820000Y-105000000D03*
G04 #@! TO.P,J1,16*
G04 #@! TO.N,/THERMAL_POWER*
X126280000Y-102460000D03*
G04 #@! TO.P,J1,15*
G04 #@! TO.N,/USB_POWER*
X126280000Y-105000000D03*
G04 #@! TO.P,J1,14*
G04 #@! TO.N,GND*
X123740000Y-102460000D03*
G04 #@! TO.P,J1,13*
G04 #@! TO.N,/Enable_trap*
X123740000Y-105000000D03*
G04 #@! TO.P,J1,12*
G04 #@! TO.N,/I2S_BCLK*
X121200000Y-102460000D03*
G04 #@! TO.P,J1,11*
G04 #@! TO.N,/Tx_enable*
X121200000Y-105000000D03*
G04 #@! TO.P,J1,10*
G04 #@! TO.N,/Rx*
X118660000Y-102460000D03*
G04 #@! TO.P,J1,9*
G04 #@! TO.N,GND*
X118660000Y-105000000D03*
G04 #@! TO.P,J1,8*
G04 #@! TO.N,/Tx*
X116120000Y-102460000D03*
G04 #@! TO.P,J1,7*
G04 #@! TO.N,Net-(J1-Pad7)*
X116120000Y-105000000D03*
G04 #@! TO.P,J1,6*
G04 #@! TO.N,GND*
X113580000Y-102460000D03*
G04 #@! TO.P,J1,5*
G04 #@! TO.N,/SCL*
X113580000Y-105000000D03*
G04 #@! TO.P,J1,4*
G04 #@! TO.N,+5V*
X111040000Y-102460000D03*
G04 #@! TO.P,J1,3*
G04 #@! TO.N,/SDA*
X111040000Y-105000000D03*
G04 #@! TO.P,J1,2*
G04 #@! TO.N,+5V*
X108500000Y-102460000D03*
D17*
G04 #@! TO.P,J1,1*
G04 #@! TO.N,/RPi_3V3*
X108500000Y-105000000D03*
G04 #@! TD*
D18*
G04 #@! TO.P,J4,8*
G04 #@! TO.N,/SCL*
X130900000Y-110100000D03*
G04 #@! TO.P,J4,7*
G04 #@! TO.N,/SDA*
X130900000Y-112600000D03*
G04 #@! TO.P,J4,6*
G04 #@! TO.N,/RPi_3V3*
X130900000Y-115100000D03*
G04 #@! TO.P,J4,5*
G04 #@! TO.N,Net-(J4-Pad5)*
X130900000Y-117600000D03*
G04 #@! TO.P,J4,4*
G04 #@! TO.N,/SPI_SCLK*
X130900000Y-120100000D03*
G04 #@! TO.P,J4,3*
G04 #@! TO.N,/SPI_MISO*
X130900000Y-122600000D03*
G04 #@! TO.P,J4,2*
G04 #@! TO.N,/SPI_MOSI*
X130900000Y-125100000D03*
D19*
G04 #@! TO.P,J4,1*
G04 #@! TO.N,/SPI_CEO*
X130900000Y-127600000D03*
G04 #@! TD*
D18*
G04 #@! TO.P,J2,4*
G04 #@! TO.N,Net-(J2-Pad4)*
X130900000Y-147500000D03*
G04 #@! TO.P,J2,3*
G04 #@! TO.N,VCC*
X130900000Y-150000000D03*
G04 #@! TO.P,J2,2*
G04 #@! TO.N,Net-(J2-Pad2)*
X130900000Y-152500000D03*
D19*
G04 #@! TO.P,J2,1*
G04 #@! TO.N,Net-(J2-Pad1)*
X130900000Y-155000000D03*
G04 #@! TD*
D20*
G04 #@! TO.P,J5,2*
G04 #@! TO.N,Net-(J5-Pad2)*
X156160000Y-142940000D03*
G04 #@! TO.P,J5,1*
G04 #@! TO.N,Net-(J5-Pad1)*
X156160000Y-140400000D03*
G04 #@! TO.P,J5,4*
G04 #@! TO.N,GND*
X158160000Y-140400000D03*
G04 #@! TO.P,J5,3*
G04 #@! TO.N,Net-(J5-Pad3)*
X158160000Y-142940000D03*
D21*
G04 #@! TO.P,J5,5*
G04 #@! TO.N,GND*
X160860000Y-147670000D03*
X160860000Y-135670000D03*
G04 #@! TD*
D22*
G04 #@! TO.P,U4,1*
G04 #@! TO.N,/Reset*
X120000000Y-123300000D03*
D23*
G04 #@! TO.P,U4,5*
G04 #@! TO.N,/SDA*
X112380000Y-115680000D03*
G04 #@! TO.P,U4,2*
G04 #@! TO.N,/5V_Enable*
X120000000Y-120760000D03*
G04 #@! TO.P,U4,6*
G04 #@! TO.N,/LED_Indicator*
X112380000Y-118220000D03*
G04 #@! TO.P,U4,3*
G04 #@! TO.N,/Battery_Sense*
X120000000Y-118220000D03*
G04 #@! TO.P,U4,7*
G04 #@! TO.N,/SCL*
X112380000Y-120760000D03*
G04 #@! TO.P,U4,4*
G04 #@! TO.N,GND*
X120000000Y-115680000D03*
G04 #@! TO.P,U4,8*
G04 #@! TO.N,+3V3*
X112380000Y-123300000D03*
G04 #@! TD*
D24*
G04 #@! TO.P,MK1,1*
G04 #@! TO.N,N/C*
X103660000Y-152650000D03*
G04 #@! TD*
G04 #@! TO.P,MK2,1*
G04 #@! TO.N,N/C*
X161660000Y-152650000D03*
G04 #@! TD*
D25*
G04 #@! TO.P,J8,1*
G04 #@! TO.N,GND*
X130900000Y-140250000D03*
D26*
G04 #@! TO.P,J8,2*
X130900000Y-138250000D03*
G04 #@! TO.P,J8,3*
G04 #@! TO.N,Net-(J8-Pad3)*
X130900000Y-136250000D03*
G04 #@! TO.P,J8,4*
G04 #@! TO.N,/Reset*
X130900000Y-134250000D03*
G04 #@! TD*
D19*
G04 #@! TO.P,J6,1*
G04 #@! TO.N,Net-(J6-Pad1)*
X160500000Y-117375000D03*
D18*
G04 #@! TO.P,J6,2*
G04 #@! TO.N,Net-(J6-Pad2)*
X160500000Y-114875000D03*
G04 #@! TD*
D27*
G04 #@! TO.N,+5V*
X136600000Y-148900000D03*
X136600000Y-142700000D03*
G04 #@! TO.N,GND*
X155800000Y-109050000D03*
X152050000Y-107000000D03*
X142500000Y-132500000D03*
X116700000Y-133800000D03*
X124800000Y-132200000D03*
X113700000Y-127500000D03*
X116900000Y-126300000D03*
X125000000Y-112300000D03*
X125800000Y-148500000D03*
X122400000Y-150900000D03*
X124800000Y-155800000D03*
X117000000Y-141700000D03*
X148100000Y-111100000D03*
X151000000Y-113400000D03*
D28*
X138900000Y-155150000D03*
X143750000Y-172250000D03*
X125160000Y-120650000D03*
D27*
X108750000Y-158250000D03*
G04 #@! TO.N,/SCL*
X109800000Y-119849998D03*
G04 #@! TO.N,/USB_POWER*
X121300000Y-100300000D03*
D28*
G04 #@! TO.N,/THERMAL_POWER*
X127400000Y-109600000D03*
X127400000Y-112500000D03*
D27*
G04 #@! TO.N,/SPI_MOSI*
X133100000Y-119600000D03*
X133100000Y-115200000D03*
G04 #@! TO.N,/I2S_DIN*
X150762347Y-107937653D03*
X154700000Y-107500000D03*
D28*
G04 #@! TO.N,Net-(L2-Pad1)*
X144955568Y-150648229D03*
X144947279Y-151291518D03*
X150916278Y-151291518D03*
X149963779Y-151291518D03*
X149011279Y-151291518D03*
G04 #@! TO.N,Net-(L2-Pad2)*
X144947279Y-152782938D03*
X144955569Y-153426228D03*
X149011279Y-152782938D03*
X149963779Y-152782938D03*
X150916278Y-152782938D03*
G04 #@! TO.N,Net-(BT1-Pad1)*
X113900000Y-149000000D03*
X111000000Y-155250000D03*
D27*
G04 #@! TO.N,+3V3*
X114700000Y-124700000D03*
D28*
G04 #@! TO.N,/Rx*
X113250000Y-154750000D03*
X118750000Y-152500000D03*
G04 #@! TO.N,/Enable_trap*
X128000000Y-145000000D03*
X123250000Y-112500000D03*
X123250000Y-110000000D03*
X128000000Y-143250000D03*
X125750000Y-125500000D03*
X125750000Y-128499996D03*
G04 #@! TO.N,/Tx_enable*
X117900000Y-153800000D03*
X111500000Y-153750000D03*
D27*
G04 #@! TO.N,/5V_Enable*
X137800000Y-150400000D03*
X135100000Y-142900000D03*
G04 #@! TO.N,/LED_Indicator*
X115600000Y-121400000D03*
X116900000Y-122700000D03*
G04 #@! TD*
D29*
G04 #@! TO.N,+5V*
X136600000Y-148900000D02*
X136600000Y-142700000D01*
D30*
G04 #@! TO.N,/SDA*
X111040000Y-114340000D02*
X112380000Y-115680000D01*
X111040000Y-105000000D02*
X111040000Y-114340000D01*
G04 #@! TO.N,/SCL*
X111469998Y-119849998D02*
X112380000Y-120760000D01*
X109800000Y-119849998D02*
X111469998Y-119849998D01*
G04 #@! TO.N,/USB_POWER*
X125430001Y-104150001D02*
X126280000Y-105000000D01*
X124980000Y-103700000D02*
X125430001Y-104150001D01*
X122500000Y-103000000D02*
X123200000Y-103700000D01*
X121300000Y-100300000D02*
X122500000Y-101500000D01*
X123200000Y-103700000D02*
X124980000Y-103700000D01*
X122500000Y-101500000D02*
X122500000Y-103000000D01*
G04 #@! TO.N,/THERMAL_POWER*
X127400000Y-109600000D02*
X127400000Y-112500000D01*
G04 #@! TO.N,/SPI_MOSI*
X133100000Y-119600000D02*
X133100000Y-115200000D01*
G04 #@! TO.N,/I2S_DIN*
X154262347Y-107937653D02*
X154700000Y-107500000D01*
X150762347Y-107937653D02*
X154262347Y-107937653D01*
D29*
G04 #@! TO.N,Net-(L2-Pad1)*
X144947279Y-151291518D02*
X149011279Y-151291518D01*
X144947279Y-150656518D02*
X144955568Y-150648229D01*
X144947279Y-151291518D02*
X144947279Y-150656518D01*
X149963779Y-151291518D02*
X150916278Y-151291518D01*
X149011279Y-151291518D02*
X149963779Y-151291518D01*
G04 #@! TO.N,Net-(L2-Pad2)*
X144947279Y-152782938D02*
X149011279Y-152782938D01*
X144947279Y-153417938D02*
X144955569Y-153426228D01*
X144947279Y-152782938D02*
X144947279Y-153417938D01*
X149011279Y-152782938D02*
X149963779Y-152782938D01*
X149963779Y-152782938D02*
X150916278Y-152782938D01*
D30*
G04 #@! TO.N,Net-(BT1-Pad1)*
X113600001Y-149299999D02*
X113900000Y-149000000D01*
X110700001Y-152199999D02*
X113600001Y-149299999D01*
X110700001Y-154950001D02*
X110700001Y-152199999D01*
X111000000Y-155250000D02*
X110700001Y-154950001D01*
G04 #@! TO.N,+3V3*
X113300000Y-123300000D02*
X112380000Y-123300000D01*
X114700000Y-124700000D02*
X113300000Y-123300000D01*
G04 #@! TO.N,/Rx*
X113350000Y-154650000D02*
X113250000Y-154750000D01*
X118500000Y-154650000D02*
X113350000Y-154650000D01*
X118500000Y-154650000D02*
X118600000Y-154650000D01*
X118600000Y-154650000D02*
X118750000Y-154500000D01*
X118750000Y-154500000D02*
X118750000Y-152500000D01*
G04 #@! TO.N,/Enable_trap*
X123250000Y-112500000D02*
X123250000Y-110000000D01*
X128000000Y-145000000D02*
X128000000Y-143250000D01*
X125750000Y-125500000D02*
X125750000Y-128499996D01*
G04 #@! TO.N,/Tx_enable*
X111550000Y-153800000D02*
X111500000Y-153750000D01*
X117900000Y-153800000D02*
X111550000Y-153800000D01*
G04 #@! TO.N,/5V_Enable*
X137700000Y-150500000D02*
X137800000Y-150400000D01*
X136750000Y-150500000D02*
X137700000Y-150500000D01*
X135100000Y-142900000D02*
X135100000Y-148850000D01*
X135100000Y-148850000D02*
X136750000Y-150500000D01*
G04 #@! TO.N,/LED_Indicator*
X115600000Y-121400000D02*
X116900000Y-122700000D01*
G04 #@! TD*
D31*
G04 #@! TO.N,GND*
G36*
X120422569Y-99713720D02*
X120265000Y-100094126D01*
X120265000Y-100505874D01*
X120422569Y-100886280D01*
X120606715Y-101070426D01*
X120129375Y-101389375D01*
X119930000Y-101687761D01*
X119730625Y-101389375D01*
X119239418Y-101061161D01*
X118806256Y-100975000D01*
X118513744Y-100975000D01*
X118080582Y-101061161D01*
X117589375Y-101389375D01*
X117390000Y-101687761D01*
X117190625Y-101389375D01*
X116699418Y-101061161D01*
X116266256Y-100975000D01*
X115973744Y-100975000D01*
X115540582Y-101061161D01*
X115049375Y-101389375D01*
X114836157Y-101708478D01*
X114775183Y-101578642D01*
X114346924Y-101188355D01*
X113936890Y-101018524D01*
X113707000Y-101139845D01*
X113707000Y-102333000D01*
X113727000Y-102333000D01*
X113727000Y-102587000D01*
X113707000Y-102587000D01*
X113707000Y-102607000D01*
X113453000Y-102607000D01*
X113453000Y-102587000D01*
X113433000Y-102587000D01*
X113433000Y-102333000D01*
X113453000Y-102333000D01*
X113453000Y-101139845D01*
X113223110Y-101018524D01*
X112813076Y-101188355D01*
X112384817Y-101578642D01*
X112323843Y-101708478D01*
X112110625Y-101389375D01*
X111619418Y-101061161D01*
X111186256Y-100975000D01*
X110893744Y-100975000D01*
X110460582Y-101061161D01*
X109969375Y-101389375D01*
X109770000Y-101687761D01*
X109570625Y-101389375D01*
X109079418Y-101061161D01*
X108646256Y-100975000D01*
X108353744Y-100975000D01*
X107920582Y-101061161D01*
X107429375Y-101389375D01*
X107101161Y-101880582D01*
X106985908Y-102460000D01*
X107101161Y-103039418D01*
X107429375Y-103530625D01*
X107447619Y-103542816D01*
X107402235Y-103551843D01*
X107192191Y-103692191D01*
X107051843Y-103902235D01*
X107002560Y-104150000D01*
X107002560Y-105850000D01*
X107051843Y-106097765D01*
X107192191Y-106307809D01*
X107402235Y-106448157D01*
X107650000Y-106497440D01*
X109350000Y-106497440D01*
X109597765Y-106448157D01*
X109807809Y-106307809D01*
X109948157Y-106097765D01*
X109957184Y-106052381D01*
X109969375Y-106070625D01*
X110280000Y-106278178D01*
X110280001Y-114265148D01*
X110265112Y-114340000D01*
X110324097Y-114636537D01*
X110334477Y-114652071D01*
X110492072Y-114887929D01*
X110555528Y-114930329D01*
X110981312Y-115356113D01*
X110916887Y-115680000D01*
X111028260Y-116239909D01*
X111345423Y-116714577D01*
X111697758Y-116950000D01*
X111345423Y-117185423D01*
X111028260Y-117660091D01*
X110916887Y-118220000D01*
X111028260Y-118779909D01*
X111235455Y-119089998D01*
X110503711Y-119089998D01*
X110386280Y-118972567D01*
X110005874Y-118814998D01*
X109594126Y-118814998D01*
X109213720Y-118972567D01*
X108922569Y-119263718D01*
X108765000Y-119644124D01*
X108765000Y-120055872D01*
X108922569Y-120436278D01*
X109213720Y-120727429D01*
X109594126Y-120884998D01*
X110005874Y-120884998D01*
X110386280Y-120727429D01*
X110503711Y-120609998D01*
X110946724Y-120609998D01*
X110916887Y-120760000D01*
X111028260Y-121319909D01*
X111345423Y-121794577D01*
X111697758Y-122030000D01*
X111345423Y-122265423D01*
X111028260Y-122740091D01*
X110916887Y-123300000D01*
X111028260Y-123859909D01*
X111345423Y-124334577D01*
X111820091Y-124651740D01*
X112238667Y-124735000D01*
X112521333Y-124735000D01*
X112939909Y-124651740D01*
X113321780Y-124396582D01*
X113665000Y-124739802D01*
X113665000Y-124905874D01*
X113822569Y-125286280D01*
X114113720Y-125577431D01*
X114494126Y-125735000D01*
X114905874Y-125735000D01*
X115286280Y-125577431D01*
X115549694Y-125314017D01*
X124815000Y-125314017D01*
X124815000Y-125685983D01*
X124957345Y-126029635D01*
X124990000Y-126062290D01*
X124990001Y-127937705D01*
X124957345Y-127970361D01*
X124815000Y-128314013D01*
X124815000Y-128685979D01*
X124957345Y-129029631D01*
X125220365Y-129292651D01*
X125564017Y-129434996D01*
X125935983Y-129434996D01*
X126279635Y-129292651D01*
X126542655Y-129029631D01*
X126685000Y-128685979D01*
X126685000Y-128314013D01*
X126542655Y-127970361D01*
X126510000Y-127937706D01*
X126510000Y-126725000D01*
X129377560Y-126725000D01*
X129377560Y-128475000D01*
X129426843Y-128722765D01*
X129567191Y-128932809D01*
X129777235Y-129073157D01*
X130025000Y-129122440D01*
X131775000Y-129122440D01*
X132022765Y-129073157D01*
X132232809Y-128932809D01*
X132373157Y-128722765D01*
X132422440Y-128475000D01*
X132422440Y-127366000D01*
X154086560Y-127366000D01*
X154086560Y-130866000D01*
X154135843Y-131113765D01*
X154276191Y-131323809D01*
X154486235Y-131464157D01*
X154734000Y-131513440D01*
X158234000Y-131513440D01*
X158481765Y-131464157D01*
X158691809Y-131323809D01*
X158832157Y-131113765D01*
X158881440Y-130866000D01*
X158881440Y-129401750D01*
X160099000Y-129401750D01*
X160099000Y-130992310D01*
X160195673Y-131225699D01*
X160374302Y-131404327D01*
X160607691Y-131501000D01*
X162198250Y-131501000D01*
X162357000Y-131342250D01*
X162357000Y-129243000D01*
X160257750Y-129243000D01*
X160099000Y-129401750D01*
X158881440Y-129401750D01*
X158881440Y-127366000D01*
X158832157Y-127118235D01*
X158691809Y-126908191D01*
X158531388Y-126801000D01*
X159198250Y-126801000D01*
X159357000Y-126642250D01*
X159357000Y-124543000D01*
X159611000Y-124543000D01*
X159611000Y-126642250D01*
X159769750Y-126801000D01*
X160438696Y-126801000D01*
X160374302Y-126827673D01*
X160195673Y-127006301D01*
X160099000Y-127239690D01*
X160099000Y-128830250D01*
X160257750Y-128989000D01*
X162357000Y-128989000D01*
X162357000Y-126889750D01*
X162198250Y-126731000D01*
X161529304Y-126731000D01*
X161593698Y-126704327D01*
X161772327Y-126525699D01*
X161869000Y-126292310D01*
X161869000Y-124701750D01*
X161710250Y-124543000D01*
X159611000Y-124543000D01*
X159357000Y-124543000D01*
X157257750Y-124543000D01*
X157099000Y-124701750D01*
X157099000Y-126292310D01*
X157195673Y-126525699D01*
X157374302Y-126704327D01*
X157408663Y-126718560D01*
X154734000Y-126718560D01*
X154486235Y-126767843D01*
X154276191Y-126908191D01*
X154135843Y-127118235D01*
X154086560Y-127366000D01*
X132422440Y-127366000D01*
X132422440Y-126725000D01*
X132373157Y-126477235D01*
X132232809Y-126267191D01*
X132022765Y-126126843D01*
X132010966Y-126124496D01*
X132180116Y-125955346D01*
X132410000Y-125400358D01*
X132410000Y-124799642D01*
X132180116Y-124244654D01*
X131785462Y-123850000D01*
X132180116Y-123455346D01*
X132410000Y-122900358D01*
X132410000Y-122539690D01*
X157099000Y-122539690D01*
X157099000Y-124130250D01*
X157257750Y-124289000D01*
X159357000Y-124289000D01*
X159357000Y-122189750D01*
X159611000Y-122189750D01*
X159611000Y-124289000D01*
X161710250Y-124289000D01*
X161869000Y-124130250D01*
X161869000Y-122539690D01*
X161772327Y-122306301D01*
X161593698Y-122127673D01*
X161360309Y-122031000D01*
X159769750Y-122031000D01*
X159611000Y-122189750D01*
X159357000Y-122189750D01*
X159198250Y-122031000D01*
X157607691Y-122031000D01*
X157374302Y-122127673D01*
X157195673Y-122306301D01*
X157099000Y-122539690D01*
X132410000Y-122539690D01*
X132410000Y-122299642D01*
X132180116Y-121744654D01*
X131785462Y-121350000D01*
X132180116Y-120955346D01*
X132410000Y-120400358D01*
X132410000Y-120373711D01*
X132513720Y-120477431D01*
X132894126Y-120635000D01*
X133305874Y-120635000D01*
X133686280Y-120477431D01*
X133977431Y-120186280D01*
X134135000Y-119805874D01*
X134135000Y-119394126D01*
X133977431Y-119013720D01*
X133860000Y-118896289D01*
X133860000Y-116500000D01*
X158977560Y-116500000D01*
X158977560Y-118250000D01*
X159026843Y-118497765D01*
X159167191Y-118707809D01*
X159377235Y-118848157D01*
X159625000Y-118897440D01*
X161375000Y-118897440D01*
X161622765Y-118848157D01*
X161832809Y-118707809D01*
X161973157Y-118497765D01*
X162022440Y-118250000D01*
X162022440Y-116500000D01*
X161973157Y-116252235D01*
X161832809Y-116042191D01*
X161622765Y-115901843D01*
X161610966Y-115899496D01*
X161780116Y-115730346D01*
X162010000Y-115175358D01*
X162010000Y-114574642D01*
X161780116Y-114019654D01*
X161355346Y-113594884D01*
X160800358Y-113365000D01*
X160199642Y-113365000D01*
X159644654Y-113594884D01*
X159219884Y-114019654D01*
X158990000Y-114574642D01*
X158990000Y-115175358D01*
X159219884Y-115730346D01*
X159389034Y-115899496D01*
X159377235Y-115901843D01*
X159167191Y-116042191D01*
X159026843Y-116252235D01*
X158977560Y-116500000D01*
X133860000Y-116500000D01*
X133860000Y-115903711D01*
X133977431Y-115786280D01*
X134135000Y-115405874D01*
X134135000Y-114994126D01*
X133977431Y-114613720D01*
X133686280Y-114322569D01*
X133305874Y-114165000D01*
X132894126Y-114165000D01*
X132513720Y-114322569D01*
X132300647Y-114535642D01*
X132180116Y-114244654D01*
X131785462Y-113850000D01*
X132180116Y-113455346D01*
X132410000Y-112900358D01*
X132410000Y-112299642D01*
X132180116Y-111744654D01*
X131785462Y-111350000D01*
X132180116Y-110955346D01*
X132410000Y-110400358D01*
X132410000Y-109799642D01*
X132180116Y-109244654D01*
X131755346Y-108819884D01*
X131200358Y-108590000D01*
X130599642Y-108590000D01*
X130044654Y-108819884D01*
X129619884Y-109244654D01*
X129390000Y-109799642D01*
X129390000Y-110400358D01*
X129619884Y-110955346D01*
X130014538Y-111350000D01*
X129619884Y-111744654D01*
X129390000Y-112299642D01*
X129390000Y-112900358D01*
X129619884Y-113455346D01*
X130014538Y-113850000D01*
X129619884Y-114244654D01*
X129390000Y-114799642D01*
X129390000Y-115400358D01*
X129619884Y-115955346D01*
X130014538Y-116350000D01*
X129619884Y-116744654D01*
X129390000Y-117299642D01*
X129390000Y-117900358D01*
X129619884Y-118455346D01*
X130014538Y-118850000D01*
X129619884Y-119244654D01*
X129390000Y-119799642D01*
X129390000Y-120400358D01*
X129619884Y-120955346D01*
X130014538Y-121350000D01*
X129619884Y-121744654D01*
X129390000Y-122299642D01*
X129390000Y-122900358D01*
X129619884Y-123455346D01*
X130014538Y-123850000D01*
X129619884Y-124244654D01*
X129390000Y-124799642D01*
X129390000Y-125400358D01*
X129619884Y-125955346D01*
X129789034Y-126124496D01*
X129777235Y-126126843D01*
X129567191Y-126267191D01*
X129426843Y-126477235D01*
X129377560Y-126725000D01*
X126510000Y-126725000D01*
X126510000Y-126062290D01*
X126542655Y-126029635D01*
X126685000Y-125685983D01*
X126685000Y-125314017D01*
X126542655Y-124970365D01*
X126279635Y-124707345D01*
X125935983Y-124565000D01*
X125564017Y-124565000D01*
X125220365Y-124707345D01*
X124957345Y-124970365D01*
X124815000Y-125314017D01*
X115549694Y-125314017D01*
X115577431Y-125286280D01*
X115735000Y-124905874D01*
X115735000Y-124494126D01*
X115577431Y-124113720D01*
X115286280Y-123822569D01*
X114905874Y-123665000D01*
X114739802Y-123665000D01*
X113890331Y-122815530D01*
X113847929Y-122752071D01*
X113652487Y-122621481D01*
X113414577Y-122265423D01*
X113062242Y-122030000D01*
X113414577Y-121794577D01*
X113731740Y-121319909D01*
X113756759Y-121194126D01*
X114565000Y-121194126D01*
X114565000Y-121605874D01*
X114722569Y-121986280D01*
X115013720Y-122277431D01*
X115394126Y-122435000D01*
X115560199Y-122435000D01*
X115865000Y-122739802D01*
X115865000Y-122905874D01*
X116022569Y-123286280D01*
X116313720Y-123577431D01*
X116694126Y-123735000D01*
X117105874Y-123735000D01*
X117486280Y-123577431D01*
X117777431Y-123286280D01*
X117935000Y-122905874D01*
X117935000Y-122494126D01*
X117777431Y-122113720D01*
X117486280Y-121822569D01*
X117105874Y-121665000D01*
X116939802Y-121665000D01*
X116635000Y-121360199D01*
X116635000Y-121194126D01*
X116477431Y-120813720D01*
X116186280Y-120522569D01*
X115805874Y-120365000D01*
X115394126Y-120365000D01*
X115013720Y-120522569D01*
X114722569Y-120813720D01*
X114565000Y-121194126D01*
X113756759Y-121194126D01*
X113843113Y-120760000D01*
X113731740Y-120200091D01*
X113414577Y-119725423D01*
X113062242Y-119490000D01*
X113414577Y-119254577D01*
X113731740Y-118779909D01*
X113843113Y-118220000D01*
X118536887Y-118220000D01*
X118648260Y-118779909D01*
X118965423Y-119254577D01*
X119317758Y-119490000D01*
X118965423Y-119725423D01*
X118648260Y-120200091D01*
X118536887Y-120760000D01*
X118648260Y-121319909D01*
X118965423Y-121794577D01*
X119086106Y-121875215D01*
X118952235Y-121901843D01*
X118742191Y-122042191D01*
X118601843Y-122252235D01*
X118552560Y-122500000D01*
X118552560Y-124100000D01*
X118601843Y-124347765D01*
X118742191Y-124557809D01*
X118952235Y-124698157D01*
X119200000Y-124747440D01*
X120800000Y-124747440D01*
X121047765Y-124698157D01*
X121257809Y-124557809D01*
X121398157Y-124347765D01*
X121447440Y-124100000D01*
X121447440Y-122500000D01*
X121398157Y-122252235D01*
X121257809Y-122042191D01*
X121047765Y-121901843D01*
X120913894Y-121875215D01*
X121034577Y-121794577D01*
X121351740Y-121319909D01*
X121463113Y-120760000D01*
X121351740Y-120200091D01*
X121034577Y-119725423D01*
X120682242Y-119490000D01*
X121034577Y-119254577D01*
X121351740Y-118779909D01*
X121463113Y-118220000D01*
X121351740Y-117660091D01*
X121034577Y-117185423D01*
X120650892Y-116929053D01*
X120855134Y-116832389D01*
X121231041Y-116417423D01*
X121391904Y-116029039D01*
X121269915Y-115807000D01*
X120127000Y-115807000D01*
X120127000Y-115827000D01*
X119873000Y-115827000D01*
X119873000Y-115807000D01*
X118730085Y-115807000D01*
X118608096Y-116029039D01*
X118768959Y-116417423D01*
X119144866Y-116832389D01*
X119349108Y-116929053D01*
X118965423Y-117185423D01*
X118648260Y-117660091D01*
X118536887Y-118220000D01*
X113843113Y-118220000D01*
X113731740Y-117660091D01*
X113414577Y-117185423D01*
X113062242Y-116950000D01*
X113414577Y-116714577D01*
X113731740Y-116239909D01*
X113843113Y-115680000D01*
X113773685Y-115330961D01*
X118608096Y-115330961D01*
X118730085Y-115553000D01*
X119873000Y-115553000D01*
X119873000Y-114409371D01*
X120127000Y-114409371D01*
X120127000Y-115553000D01*
X121269915Y-115553000D01*
X121391904Y-115330961D01*
X121231041Y-114942577D01*
X120855134Y-114527611D01*
X120349041Y-114288086D01*
X120127000Y-114409371D01*
X119873000Y-114409371D01*
X119650959Y-114288086D01*
X119144866Y-114527611D01*
X118768959Y-114942577D01*
X118608096Y-115330961D01*
X113773685Y-115330961D01*
X113731740Y-115120091D01*
X113414577Y-114645423D01*
X112939909Y-114328260D01*
X112521333Y-114245000D01*
X112238667Y-114245000D01*
X112056114Y-114281312D01*
X111800000Y-114025199D01*
X111800000Y-109814017D01*
X122315000Y-109814017D01*
X122315000Y-110185983D01*
X122457345Y-110529635D01*
X122490001Y-110562291D01*
X122490000Y-111937710D01*
X122457345Y-111970365D01*
X122315000Y-112314017D01*
X122315000Y-112685983D01*
X122457345Y-113029635D01*
X122720365Y-113292655D01*
X123064017Y-113435000D01*
X123435983Y-113435000D01*
X123779635Y-113292655D01*
X124042655Y-113029635D01*
X124185000Y-112685983D01*
X124185000Y-112314017D01*
X124042655Y-111970365D01*
X124010000Y-111937710D01*
X124010000Y-110562290D01*
X124042655Y-110529635D01*
X124185000Y-110185983D01*
X124185000Y-109814017D01*
X124042655Y-109470365D01*
X123986307Y-109414017D01*
X126465000Y-109414017D01*
X126465000Y-109785983D01*
X126607345Y-110129635D01*
X126640000Y-110162290D01*
X126640001Y-111937709D01*
X126607345Y-111970365D01*
X126465000Y-112314017D01*
X126465000Y-112685983D01*
X126607345Y-113029635D01*
X126870365Y-113292655D01*
X127214017Y-113435000D01*
X127585983Y-113435000D01*
X127929635Y-113292655D01*
X128192655Y-113029635D01*
X128335000Y-112685983D01*
X128335000Y-112314017D01*
X128192655Y-111970365D01*
X128160000Y-111937710D01*
X128160000Y-110162290D01*
X128192655Y-110129635D01*
X128335000Y-109785983D01*
X128335000Y-109414017D01*
X128192655Y-109070365D01*
X127929635Y-108807345D01*
X127585983Y-108665000D01*
X127214017Y-108665000D01*
X126870365Y-108807345D01*
X126607345Y-109070365D01*
X126465000Y-109414017D01*
X123986307Y-109414017D01*
X123779635Y-109207345D01*
X123435983Y-109065000D01*
X123064017Y-109065000D01*
X122720365Y-109207345D01*
X122457345Y-109470365D01*
X122315000Y-109814017D01*
X111800000Y-109814017D01*
X111800000Y-107731779D01*
X149727347Y-107731779D01*
X149727347Y-108143527D01*
X149884916Y-108523933D01*
X150176067Y-108815084D01*
X150556473Y-108972653D01*
X150968221Y-108972653D01*
X151348627Y-108815084D01*
X151466058Y-108697653D01*
X154187500Y-108697653D01*
X154262347Y-108712541D01*
X154337194Y-108697653D01*
X154337199Y-108697653D01*
X154558884Y-108653557D01*
X154736317Y-108535000D01*
X154905874Y-108535000D01*
X155286280Y-108377431D01*
X155577431Y-108086280D01*
X155735000Y-107705874D01*
X155735000Y-107294126D01*
X155577431Y-106913720D01*
X155286280Y-106622569D01*
X154905874Y-106465000D01*
X154494126Y-106465000D01*
X154113720Y-106622569D01*
X153822569Y-106913720D01*
X153713245Y-107177653D01*
X151466058Y-107177653D01*
X151348627Y-107060222D01*
X150968221Y-106902653D01*
X150556473Y-106902653D01*
X150176067Y-107060222D01*
X149884916Y-107351373D01*
X149727347Y-107731779D01*
X111800000Y-107731779D01*
X111800000Y-106278178D01*
X112110625Y-106070625D01*
X112310000Y-105772239D01*
X112509375Y-106070625D01*
X113000582Y-106398839D01*
X113433744Y-106485000D01*
X113726256Y-106485000D01*
X114159418Y-106398839D01*
X114650625Y-106070625D01*
X114850000Y-105772239D01*
X115049375Y-106070625D01*
X115540582Y-106398839D01*
X115973744Y-106485000D01*
X116266256Y-106485000D01*
X116699418Y-106398839D01*
X117190625Y-106070625D01*
X117403843Y-105751522D01*
X117464817Y-105881358D01*
X117893076Y-106271645D01*
X118303110Y-106441476D01*
X118533000Y-106320155D01*
X118533000Y-105127000D01*
X118513000Y-105127000D01*
X118513000Y-104873000D01*
X118533000Y-104873000D01*
X118533000Y-104853000D01*
X118787000Y-104853000D01*
X118787000Y-104873000D01*
X118807000Y-104873000D01*
X118807000Y-105127000D01*
X118787000Y-105127000D01*
X118787000Y-106320155D01*
X119016890Y-106441476D01*
X119426924Y-106271645D01*
X119855183Y-105881358D01*
X119916157Y-105751522D01*
X120129375Y-106070625D01*
X120620582Y-106398839D01*
X121053744Y-106485000D01*
X121346256Y-106485000D01*
X121779418Y-106398839D01*
X122270625Y-106070625D01*
X122470000Y-105772239D01*
X122669375Y-106070625D01*
X123160582Y-106398839D01*
X123593744Y-106485000D01*
X123886256Y-106485000D01*
X124319418Y-106398839D01*
X124810625Y-106070625D01*
X125010000Y-105772239D01*
X125209375Y-106070625D01*
X125700582Y-106398839D01*
X126133744Y-106485000D01*
X126426256Y-106485000D01*
X126859418Y-106398839D01*
X127350625Y-106070625D01*
X127550000Y-105772239D01*
X127749375Y-106070625D01*
X128240582Y-106398839D01*
X128673744Y-106485000D01*
X128966256Y-106485000D01*
X129399418Y-106398839D01*
X129890625Y-106070625D01*
X130090000Y-105772239D01*
X130289375Y-106070625D01*
X130780582Y-106398839D01*
X131213744Y-106485000D01*
X131506256Y-106485000D01*
X131939418Y-106398839D01*
X132430625Y-106070625D01*
X132630000Y-105772239D01*
X132829375Y-106070625D01*
X133320582Y-106398839D01*
X133753744Y-106485000D01*
X134046256Y-106485000D01*
X134479418Y-106398839D01*
X134970625Y-106070625D01*
X135170000Y-105772239D01*
X135369375Y-106070625D01*
X135860582Y-106398839D01*
X136293744Y-106485000D01*
X136586256Y-106485000D01*
X137019418Y-106398839D01*
X137510625Y-106070625D01*
X137723843Y-105751522D01*
X137784817Y-105881358D01*
X138213076Y-106271645D01*
X138623110Y-106441476D01*
X138853000Y-106320155D01*
X138853000Y-105127000D01*
X138833000Y-105127000D01*
X138833000Y-104873000D01*
X138853000Y-104873000D01*
X138853000Y-104853000D01*
X139107000Y-104853000D01*
X139107000Y-104873000D01*
X139127000Y-104873000D01*
X139127000Y-105127000D01*
X139107000Y-105127000D01*
X139107000Y-106320155D01*
X139336890Y-106441476D01*
X139746924Y-106271645D01*
X140175183Y-105881358D01*
X140236157Y-105751522D01*
X140449375Y-106070625D01*
X140940582Y-106398839D01*
X141373744Y-106485000D01*
X141666256Y-106485000D01*
X142099418Y-106398839D01*
X142590625Y-106070625D01*
X142790000Y-105772239D01*
X142989375Y-106070625D01*
X143480582Y-106398839D01*
X143913744Y-106485000D01*
X144206256Y-106485000D01*
X144639418Y-106398839D01*
X145130625Y-106070625D01*
X145330000Y-105772239D01*
X145529375Y-106070625D01*
X146020582Y-106398839D01*
X146453744Y-106485000D01*
X146746256Y-106485000D01*
X147179418Y-106398839D01*
X147670625Y-106070625D01*
X147870000Y-105772239D01*
X148069375Y-106070625D01*
X148560582Y-106398839D01*
X148993744Y-106485000D01*
X149286256Y-106485000D01*
X149719418Y-106398839D01*
X150210625Y-106070625D01*
X150410000Y-105772239D01*
X150609375Y-106070625D01*
X151100582Y-106398839D01*
X151533744Y-106485000D01*
X151826256Y-106485000D01*
X152259418Y-106398839D01*
X152750625Y-106070625D01*
X152950000Y-105772239D01*
X153149375Y-106070625D01*
X153640582Y-106398839D01*
X154073744Y-106485000D01*
X154366256Y-106485000D01*
X154799418Y-106398839D01*
X155290625Y-106070625D01*
X155503843Y-105751522D01*
X155564817Y-105881358D01*
X155993076Y-106271645D01*
X156403110Y-106441476D01*
X156633000Y-106320155D01*
X156633000Y-105127000D01*
X156887000Y-105127000D01*
X156887000Y-106320155D01*
X157116890Y-106441476D01*
X157526924Y-106271645D01*
X157955183Y-105881358D01*
X158201486Y-105356892D01*
X158080819Y-105127000D01*
X156887000Y-105127000D01*
X156633000Y-105127000D01*
X156613000Y-105127000D01*
X156613000Y-104873000D01*
X156633000Y-104873000D01*
X156633000Y-104853000D01*
X156887000Y-104853000D01*
X156887000Y-104873000D01*
X158080819Y-104873000D01*
X158201486Y-104643108D01*
X157955183Y-104118642D01*
X157530214Y-103731353D01*
X157830625Y-103530625D01*
X158158839Y-103039418D01*
X158274092Y-102460000D01*
X158158839Y-101880582D01*
X157830625Y-101389375D01*
X157339418Y-101061161D01*
X156906256Y-100975000D01*
X156613744Y-100975000D01*
X156180582Y-101061161D01*
X155689375Y-101389375D01*
X155490000Y-101687761D01*
X155290625Y-101389375D01*
X154799418Y-101061161D01*
X154366256Y-100975000D01*
X154073744Y-100975000D01*
X153640582Y-101061161D01*
X153149375Y-101389375D01*
X152950000Y-101687761D01*
X152750625Y-101389375D01*
X152259418Y-101061161D01*
X151826256Y-100975000D01*
X151533744Y-100975000D01*
X151100582Y-101061161D01*
X150609375Y-101389375D01*
X150396157Y-101708478D01*
X150335183Y-101578642D01*
X149906924Y-101188355D01*
X149496890Y-101018524D01*
X149267000Y-101139845D01*
X149267000Y-102333000D01*
X149287000Y-102333000D01*
X149287000Y-102587000D01*
X149267000Y-102587000D01*
X149267000Y-102607000D01*
X149013000Y-102607000D01*
X149013000Y-102587000D01*
X148993000Y-102587000D01*
X148993000Y-102333000D01*
X149013000Y-102333000D01*
X149013000Y-101139845D01*
X148783110Y-101018524D01*
X148373076Y-101188355D01*
X147944817Y-101578642D01*
X147883843Y-101708478D01*
X147670625Y-101389375D01*
X147179418Y-101061161D01*
X146746256Y-100975000D01*
X146453744Y-100975000D01*
X146020582Y-101061161D01*
X145529375Y-101389375D01*
X145316157Y-101708478D01*
X145255183Y-101578642D01*
X144826924Y-101188355D01*
X144416890Y-101018524D01*
X144187000Y-101139845D01*
X144187000Y-102333000D01*
X144207000Y-102333000D01*
X144207000Y-102587000D01*
X144187000Y-102587000D01*
X144187000Y-102607000D01*
X143933000Y-102607000D01*
X143933000Y-102587000D01*
X143913000Y-102587000D01*
X143913000Y-102333000D01*
X143933000Y-102333000D01*
X143933000Y-101139845D01*
X143703110Y-101018524D01*
X143293076Y-101188355D01*
X142864817Y-101578642D01*
X142803843Y-101708478D01*
X142590625Y-101389375D01*
X142099418Y-101061161D01*
X141666256Y-100975000D01*
X141373744Y-100975000D01*
X140940582Y-101061161D01*
X140449375Y-101389375D01*
X140250000Y-101687761D01*
X140050625Y-101389375D01*
X139559418Y-101061161D01*
X139126256Y-100975000D01*
X138833744Y-100975000D01*
X138400582Y-101061161D01*
X137909375Y-101389375D01*
X137710000Y-101687761D01*
X137510625Y-101389375D01*
X137019418Y-101061161D01*
X136586256Y-100975000D01*
X136293744Y-100975000D01*
X135860582Y-101061161D01*
X135369375Y-101389375D01*
X135170000Y-101687761D01*
X134970625Y-101389375D01*
X134479418Y-101061161D01*
X134046256Y-100975000D01*
X133753744Y-100975000D01*
X133320582Y-101061161D01*
X132829375Y-101389375D01*
X132616157Y-101708478D01*
X132555183Y-101578642D01*
X132126924Y-101188355D01*
X131716890Y-101018524D01*
X131487000Y-101139845D01*
X131487000Y-102333000D01*
X131507000Y-102333000D01*
X131507000Y-102587000D01*
X131487000Y-102587000D01*
X131487000Y-102607000D01*
X131233000Y-102607000D01*
X131233000Y-102587000D01*
X131213000Y-102587000D01*
X131213000Y-102333000D01*
X131233000Y-102333000D01*
X131233000Y-101139845D01*
X131003110Y-101018524D01*
X130593076Y-101188355D01*
X130164817Y-101578642D01*
X130103843Y-101708478D01*
X129890625Y-101389375D01*
X129399418Y-101061161D01*
X128966256Y-100975000D01*
X128673744Y-100975000D01*
X128240582Y-101061161D01*
X127749375Y-101389375D01*
X127550000Y-101687761D01*
X127350625Y-101389375D01*
X126859418Y-101061161D01*
X126426256Y-100975000D01*
X126133744Y-100975000D01*
X125700582Y-101061161D01*
X125209375Y-101389375D01*
X124996157Y-101708478D01*
X124935183Y-101578642D01*
X124506924Y-101188355D01*
X124096890Y-101018524D01*
X123867000Y-101139845D01*
X123867000Y-102333000D01*
X123887000Y-102333000D01*
X123887000Y-102587000D01*
X123867000Y-102587000D01*
X123867000Y-102607000D01*
X123613000Y-102607000D01*
X123613000Y-102587000D01*
X123593000Y-102587000D01*
X123593000Y-102333000D01*
X123613000Y-102333000D01*
X123613000Y-101139845D01*
X123383110Y-101018524D01*
X123155361Y-101112855D01*
X123047929Y-100952071D01*
X122984473Y-100909671D01*
X122335000Y-100260199D01*
X122335000Y-100094126D01*
X122177431Y-99713720D01*
X122173711Y-99710000D01*
X161958753Y-99710000D01*
X162525708Y-99776100D01*
X163023212Y-99956685D01*
X163465835Y-100246881D01*
X163829823Y-100631116D01*
X164095658Y-101088784D01*
X164251892Y-101604629D01*
X164290000Y-102031618D01*
X164290000Y-126731000D01*
X162769750Y-126731000D01*
X162611000Y-126889750D01*
X162611000Y-128989000D01*
X162631000Y-128989000D01*
X162631000Y-129243000D01*
X162611000Y-129243000D01*
X162611000Y-131342250D01*
X162769750Y-131501000D01*
X164290000Y-131501000D01*
X164290001Y-150139335D01*
X163719062Y-149568396D01*
X162383046Y-149015000D01*
X162373692Y-149015000D01*
X162379150Y-149009542D01*
X162265595Y-148895987D01*
X162568782Y-148754522D01*
X162853737Y-148018045D01*
X162835164Y-147228582D01*
X162568782Y-146585478D01*
X162265593Y-146444012D01*
X161039605Y-147670000D01*
X161053748Y-147684143D01*
X160874143Y-147863748D01*
X160860000Y-147849605D01*
X159634012Y-149075593D01*
X159775478Y-149378782D01*
X159921918Y-149435442D01*
X159600938Y-149568396D01*
X158578396Y-150590938D01*
X158025000Y-151926954D01*
X158025000Y-153373046D01*
X158578396Y-154709062D01*
X159600938Y-155731604D01*
X160936954Y-156285000D01*
X162383046Y-156285000D01*
X163719062Y-155731604D01*
X164290001Y-155160665D01*
X164290001Y-170458744D01*
X164223900Y-171025708D01*
X164043315Y-171523212D01*
X163753118Y-171965834D01*
X163368884Y-172329823D01*
X162911216Y-172595658D01*
X162395371Y-172751892D01*
X161968382Y-172790000D01*
X152519346Y-172790000D01*
X152639966Y-172669380D01*
X152965000Y-171884678D01*
X152965000Y-171035322D01*
X152639966Y-170250620D01*
X152039380Y-169650034D01*
X151254678Y-169325000D01*
X150405322Y-169325000D01*
X149620620Y-169650034D01*
X149020034Y-170250620D01*
X148695000Y-171035322D01*
X148695000Y-171884678D01*
X149020034Y-172669380D01*
X149140654Y-172790000D01*
X103041248Y-172790000D01*
X102474292Y-172723900D01*
X101976788Y-172543315D01*
X101534166Y-172253118D01*
X101170177Y-171868884D01*
X100904342Y-171411216D01*
X100748108Y-170895371D01*
X100710000Y-170468382D01*
X100710000Y-166814398D01*
X107215000Y-166814398D01*
X107215000Y-167325602D01*
X107410629Y-167797894D01*
X107772106Y-168159371D01*
X108244398Y-168355000D01*
X108755602Y-168355000D01*
X109227894Y-168159371D01*
X109589371Y-167797894D01*
X109785000Y-167325602D01*
X109785000Y-167150000D01*
X146762560Y-167150000D01*
X146762560Y-168650000D01*
X146811843Y-168897765D01*
X146952191Y-169107809D01*
X147162235Y-169248157D01*
X147410000Y-169297440D01*
X148910000Y-169297440D01*
X149157765Y-169248157D01*
X149367809Y-169107809D01*
X149508157Y-168897765D01*
X149557440Y-168650000D01*
X149557440Y-167150000D01*
X149508157Y-166902235D01*
X149367809Y-166692191D01*
X149157765Y-166551843D01*
X148965156Y-166513531D01*
X149334147Y-166144540D01*
X149545000Y-165635494D01*
X149545000Y-165084506D01*
X149334147Y-164575460D01*
X149103687Y-164345000D01*
X149334147Y-164114540D01*
X149545000Y-163605494D01*
X149545000Y-163054506D01*
X149334147Y-162545460D01*
X148944540Y-162155853D01*
X148713130Y-162060000D01*
X148944540Y-161964147D01*
X149334147Y-161574540D01*
X149545000Y-161065494D01*
X149545000Y-160514506D01*
X149334147Y-160005460D01*
X148944540Y-159615853D01*
X148435494Y-159405000D01*
X147884506Y-159405000D01*
X147375460Y-159615853D01*
X146985853Y-160005460D01*
X146775000Y-160514506D01*
X146775000Y-161065494D01*
X146985853Y-161574540D01*
X147375460Y-161964147D01*
X147606870Y-162060000D01*
X147375460Y-162155853D01*
X146985853Y-162545460D01*
X146775000Y-163054506D01*
X146775000Y-163605494D01*
X146985853Y-164114540D01*
X147216313Y-164345000D01*
X146985853Y-164575460D01*
X146775000Y-165084506D01*
X146775000Y-165635494D01*
X146985853Y-166144540D01*
X147354844Y-166513531D01*
X147162235Y-166551843D01*
X146952191Y-166692191D01*
X146811843Y-166902235D01*
X146762560Y-167150000D01*
X109785000Y-167150000D01*
X109785000Y-166814398D01*
X109589371Y-166342106D01*
X109227894Y-165980629D01*
X108755602Y-165785000D01*
X108244398Y-165785000D01*
X107772106Y-165980629D01*
X107410629Y-166342106D01*
X107215000Y-166814398D01*
X100710000Y-166814398D01*
X100710000Y-159344234D01*
X107365000Y-159344234D01*
X107365000Y-159795766D01*
X107537793Y-160212926D01*
X107857074Y-160532207D01*
X108274234Y-160705000D01*
X108725766Y-160705000D01*
X109142926Y-160532207D01*
X109462207Y-160212926D01*
X109635000Y-159795766D01*
X109635000Y-159344234D01*
X109462207Y-158927074D01*
X109142926Y-158607793D01*
X108725766Y-158435000D01*
X108274234Y-158435000D01*
X107857074Y-158607793D01*
X107537793Y-158927074D01*
X107365000Y-159344234D01*
X100710000Y-159344234D01*
X100710000Y-157315322D01*
X148695000Y-157315322D01*
X148695000Y-158164678D01*
X149020034Y-158949380D01*
X149620620Y-159549966D01*
X150405322Y-159875000D01*
X151254678Y-159875000D01*
X152039380Y-159549966D01*
X152639966Y-158949380D01*
X152965000Y-158164678D01*
X152965000Y-157315322D01*
X152639966Y-156530620D01*
X152039380Y-155930034D01*
X151254678Y-155605000D01*
X150405322Y-155605000D01*
X149620620Y-155930034D01*
X149020034Y-156530620D01*
X148695000Y-157315322D01*
X100710000Y-157315322D01*
X100710000Y-154840666D01*
X101600938Y-155731604D01*
X102936954Y-156285000D01*
X104383046Y-156285000D01*
X105719062Y-155731604D01*
X106741604Y-154709062D01*
X107295000Y-153373046D01*
X107295000Y-152199999D01*
X109925113Y-152199999D01*
X109940002Y-152274851D01*
X109940001Y-154875154D01*
X109925113Y-154950001D01*
X109940001Y-155024848D01*
X109940001Y-155024852D01*
X109984097Y-155246537D01*
X110065000Y-155367617D01*
X110065000Y-155435983D01*
X110207345Y-155779635D01*
X110470365Y-156042655D01*
X110814017Y-156185000D01*
X111185983Y-156185000D01*
X111529635Y-156042655D01*
X111792655Y-155779635D01*
X111935000Y-155435983D01*
X111935000Y-155064017D01*
X111792655Y-154720365D01*
X111736405Y-154664115D01*
X111987760Y-154560000D01*
X112316664Y-154560000D01*
X112315000Y-154564017D01*
X112315000Y-154935983D01*
X112457345Y-155279635D01*
X112720365Y-155542655D01*
X113064017Y-155685000D01*
X113435983Y-155685000D01*
X113779635Y-155542655D01*
X113912290Y-155410000D01*
X118525153Y-155410000D01*
X118600000Y-155424888D01*
X118674847Y-155410000D01*
X118674852Y-155410000D01*
X118896537Y-155365904D01*
X119147929Y-155197929D01*
X119190331Y-155134470D01*
X119234470Y-155090331D01*
X119297929Y-155047929D01*
X119465904Y-154796537D01*
X119510000Y-154574852D01*
X119510000Y-154574848D01*
X119524888Y-154500001D01*
X119510000Y-154425154D01*
X119510000Y-154125000D01*
X129377560Y-154125000D01*
X129377560Y-155875000D01*
X129426843Y-156122765D01*
X129567191Y-156332809D01*
X129777235Y-156473157D01*
X130025000Y-156522440D01*
X131775000Y-156522440D01*
X132022765Y-156473157D01*
X132232809Y-156332809D01*
X132373157Y-156122765D01*
X132422440Y-155875000D01*
X132422440Y-154125000D01*
X132373157Y-153877235D01*
X132232809Y-153667191D01*
X132022765Y-153526843D01*
X132010966Y-153524496D01*
X132180116Y-153355346D01*
X132410000Y-152800358D01*
X132410000Y-152199642D01*
X132180116Y-151644654D01*
X131785462Y-151250000D01*
X132180116Y-150855346D01*
X132410000Y-150300358D01*
X132410000Y-149699642D01*
X132180116Y-149144654D01*
X131785462Y-148750000D01*
X132180116Y-148355346D01*
X132410000Y-147800358D01*
X132410000Y-147199642D01*
X132180116Y-146644654D01*
X131755346Y-146219884D01*
X131200358Y-145990000D01*
X130599642Y-145990000D01*
X130044654Y-146219884D01*
X129619884Y-146644654D01*
X129390000Y-147199642D01*
X129390000Y-147800358D01*
X129619884Y-148355346D01*
X130014538Y-148750000D01*
X129619884Y-149144654D01*
X129390000Y-149699642D01*
X129390000Y-150300358D01*
X129619884Y-150855346D01*
X130014538Y-151250000D01*
X129619884Y-151644654D01*
X129390000Y-152199642D01*
X129390000Y-152800358D01*
X129619884Y-153355346D01*
X129789034Y-153524496D01*
X129777235Y-153526843D01*
X129567191Y-153667191D01*
X129426843Y-153877235D01*
X129377560Y-154125000D01*
X119510000Y-154125000D01*
X119510000Y-153062290D01*
X119542655Y-153029635D01*
X119685000Y-152685983D01*
X119685000Y-152314017D01*
X119542655Y-151970365D01*
X119279635Y-151707345D01*
X118935983Y-151565000D01*
X118564017Y-151565000D01*
X118220365Y-151707345D01*
X117957345Y-151970365D01*
X117815000Y-152314017D01*
X117815000Y-152685983D01*
X117889151Y-152865000D01*
X117714017Y-152865000D01*
X117370365Y-153007345D01*
X117337710Y-153040000D01*
X112112290Y-153040000D01*
X112029635Y-152957345D01*
X111685983Y-152815000D01*
X111460001Y-152815000D01*
X111460001Y-152514800D01*
X114039803Y-149935000D01*
X114085983Y-149935000D01*
X114429635Y-149792655D01*
X114692655Y-149529635D01*
X114835000Y-149185983D01*
X114835000Y-148814017D01*
X114692655Y-148470365D01*
X114429635Y-148207345D01*
X114085983Y-148065000D01*
X113714017Y-148065000D01*
X113370365Y-148207345D01*
X113107345Y-148470365D01*
X112965000Y-148814017D01*
X112965000Y-148860197D01*
X110215529Y-151609670D01*
X110152073Y-151652070D01*
X110109673Y-151715526D01*
X110109672Y-151715527D01*
X109984098Y-151903462D01*
X109925113Y-152199999D01*
X107295000Y-152199999D01*
X107295000Y-151926954D01*
X106741604Y-150590938D01*
X105719062Y-149568396D01*
X104383046Y-149015000D01*
X102936954Y-149015000D01*
X101600938Y-149568396D01*
X100710000Y-150459334D01*
X100710000Y-143064017D01*
X127065000Y-143064017D01*
X127065000Y-143435983D01*
X127207345Y-143779635D01*
X127240001Y-143812291D01*
X127240000Y-144437710D01*
X127207345Y-144470365D01*
X127065000Y-144814017D01*
X127065000Y-145185983D01*
X127207345Y-145529635D01*
X127470365Y-145792655D01*
X127814017Y-145935000D01*
X128185983Y-145935000D01*
X128529635Y-145792655D01*
X128792655Y-145529635D01*
X128935000Y-145185983D01*
X128935000Y-144814017D01*
X128792655Y-144470365D01*
X128760000Y-144437710D01*
X128760000Y-143812290D01*
X128792655Y-143779635D01*
X128935000Y-143435983D01*
X128935000Y-143064017D01*
X128792655Y-142720365D01*
X128766416Y-142694126D01*
X134065000Y-142694126D01*
X134065000Y-143105874D01*
X134222569Y-143486280D01*
X134340000Y-143603711D01*
X134340001Y-148775148D01*
X134325112Y-148850000D01*
X134340001Y-148924852D01*
X134357293Y-149011783D01*
X134384097Y-149146537D01*
X134484325Y-149296538D01*
X134552072Y-149397929D01*
X134615528Y-149440329D01*
X136159673Y-150984476D01*
X136202071Y-151047929D01*
X136265524Y-151090327D01*
X136265526Y-151090329D01*
X136288284Y-151105535D01*
X136453463Y-151215904D01*
X136675148Y-151260000D01*
X136675152Y-151260000D01*
X136749999Y-151274888D01*
X136824846Y-151260000D01*
X137196289Y-151260000D01*
X137213720Y-151277431D01*
X137594126Y-151435000D01*
X138005874Y-151435000D01*
X138386280Y-151277431D01*
X138677431Y-150986280D01*
X138814022Y-150656518D01*
X143790044Y-150656518D01*
X143812279Y-150768301D01*
X143812279Y-151179735D01*
X143790044Y-151291518D01*
X143878133Y-151734373D01*
X143936118Y-151821153D01*
X144080494Y-152037228D01*
X143878133Y-152340083D01*
X143790044Y-152782938D01*
X143812279Y-152894721D01*
X143812279Y-153306155D01*
X143790044Y-153417938D01*
X143812279Y-153529720D01*
X143812279Y-153529721D01*
X143878133Y-153860793D01*
X144128991Y-154236227D01*
X144223759Y-154299549D01*
X144232046Y-154307836D01*
X144512715Y-154495374D01*
X144955569Y-154583463D01*
X145398423Y-154495374D01*
X145773857Y-154244516D01*
X145992070Y-153917938D01*
X151028061Y-153917938D01*
X151359133Y-153852084D01*
X151734567Y-153601227D01*
X151985424Y-153225793D01*
X152073513Y-152782938D01*
X151985424Y-152340083D01*
X151783063Y-152037228D01*
X151985424Y-151734373D01*
X152073513Y-151291518D01*
X151985424Y-150848663D01*
X151734567Y-150473229D01*
X151359133Y-150222372D01*
X151028061Y-150156518D01*
X145992068Y-150156518D01*
X145773856Y-149829941D01*
X145398422Y-149579084D01*
X144955567Y-149490994D01*
X144512714Y-149579084D01*
X144232045Y-149766621D01*
X144223759Y-149774907D01*
X144128991Y-149838229D01*
X143878133Y-150213663D01*
X143849718Y-150356518D01*
X143790044Y-150656518D01*
X138814022Y-150656518D01*
X138835000Y-150605874D01*
X138835000Y-150194126D01*
X138677431Y-149813720D01*
X138386280Y-149522569D01*
X138005874Y-149365000D01*
X137654349Y-149365000D01*
X137669146Y-149342855D01*
X137735000Y-149011783D01*
X137735000Y-147321955D01*
X158866263Y-147321955D01*
X158884836Y-148111418D01*
X159151218Y-148754522D01*
X159454407Y-148895988D01*
X160680395Y-147670000D01*
X159454407Y-146444012D01*
X159151218Y-146585478D01*
X158866263Y-147321955D01*
X137735000Y-147321955D01*
X137735000Y-146264407D01*
X159634012Y-146264407D01*
X160860000Y-147490395D01*
X162085988Y-146264407D01*
X161944522Y-145961218D01*
X161208045Y-145676263D01*
X160418582Y-145694836D01*
X159775478Y-145961218D01*
X159634012Y-146264407D01*
X137735000Y-146264407D01*
X137735000Y-142588217D01*
X137669146Y-142257145D01*
X137418289Y-141881711D01*
X137042855Y-141630854D01*
X136600000Y-141542765D01*
X136157146Y-141630854D01*
X135781712Y-141881711D01*
X135687067Y-142023356D01*
X135686280Y-142022569D01*
X135305874Y-141865000D01*
X134894126Y-141865000D01*
X134513720Y-142022569D01*
X134222569Y-142313720D01*
X134065000Y-142694126D01*
X128766416Y-142694126D01*
X128529635Y-142457345D01*
X128185983Y-142315000D01*
X127814017Y-142315000D01*
X127470365Y-142457345D01*
X127207345Y-142720365D01*
X127065000Y-143064017D01*
X100710000Y-143064017D01*
X100710000Y-140535750D01*
X129415000Y-140535750D01*
X129415000Y-140976309D01*
X129511673Y-141209698D01*
X129690301Y-141388327D01*
X129923690Y-141485000D01*
X130614250Y-141485000D01*
X130773000Y-141326250D01*
X130773000Y-140377000D01*
X131027000Y-140377000D01*
X131027000Y-141326250D01*
X131185750Y-141485000D01*
X131876310Y-141485000D01*
X132109699Y-141388327D01*
X132288327Y-141209698D01*
X132385000Y-140976309D01*
X132385000Y-140535750D01*
X132226250Y-140377000D01*
X131027000Y-140377000D01*
X130773000Y-140377000D01*
X129573750Y-140377000D01*
X129415000Y-140535750D01*
X100710000Y-140535750D01*
X100710000Y-139523691D01*
X129415000Y-139523691D01*
X129415000Y-139964250D01*
X129573750Y-140123000D01*
X130773000Y-140123000D01*
X130773000Y-138377000D01*
X131027000Y-138377000D01*
X131027000Y-140123000D01*
X132226250Y-140123000D01*
X132385000Y-139964250D01*
X132385000Y-139523691D01*
X132288327Y-139290302D01*
X132109699Y-139111673D01*
X132063948Y-139092722D01*
X132081933Y-139079125D01*
X132328286Y-138659376D01*
X132343462Y-138567609D01*
X132218731Y-138377000D01*
X131027000Y-138377000D01*
X130773000Y-138377000D01*
X129581269Y-138377000D01*
X129456538Y-138567609D01*
X129471714Y-138659376D01*
X129718067Y-139079125D01*
X129736052Y-139092722D01*
X129690301Y-139111673D01*
X129511673Y-139290302D01*
X129415000Y-139523691D01*
X100710000Y-139523691D01*
X100710000Y-134250000D01*
X129390805Y-134250000D01*
X129486656Y-134731873D01*
X129759615Y-135140385D01*
X129923665Y-135250000D01*
X129759615Y-135359615D01*
X129486656Y-135768127D01*
X129390805Y-136250000D01*
X129486656Y-136731873D01*
X129759615Y-137140385D01*
X129934501Y-137257240D01*
X129718067Y-137420875D01*
X129471714Y-137840624D01*
X129456538Y-137932391D01*
X129581269Y-138123000D01*
X130773000Y-138123000D01*
X130773000Y-138103000D01*
X131027000Y-138103000D01*
X131027000Y-138123000D01*
X132218731Y-138123000D01*
X132343462Y-137932391D01*
X132328286Y-137840624D01*
X132245753Y-137700000D01*
X141552560Y-137700000D01*
X141552560Y-139700000D01*
X141601843Y-139947765D01*
X141742191Y-140157809D01*
X141952235Y-140298157D01*
X142200000Y-140347440D01*
X144200000Y-140347440D01*
X144447765Y-140298157D01*
X144657809Y-140157809D01*
X144798157Y-139947765D01*
X144817099Y-139852532D01*
X147227073Y-139852532D01*
X147325736Y-140119387D01*
X147935461Y-140345908D01*
X148585460Y-140321856D01*
X149066707Y-140122517D01*
X154765000Y-140122517D01*
X154765000Y-140677483D01*
X154977376Y-141190204D01*
X155369796Y-141582624D01*
X155580740Y-141670000D01*
X155369796Y-141757376D01*
X154977376Y-142149796D01*
X154765000Y-142662517D01*
X154765000Y-143217483D01*
X154977376Y-143730204D01*
X155369796Y-144122624D01*
X155882517Y-144335000D01*
X156437483Y-144335000D01*
X156950204Y-144122624D01*
X157160000Y-143912828D01*
X157369796Y-144122624D01*
X157882517Y-144335000D01*
X158437483Y-144335000D01*
X158950204Y-144122624D01*
X159342624Y-143730204D01*
X159555000Y-143217483D01*
X159555000Y-142662517D01*
X159342624Y-142149796D01*
X158950204Y-141757376D01*
X158755141Y-141676578D01*
X158889941Y-141620742D01*
X158959159Y-141378764D01*
X158160000Y-140579605D01*
X157360841Y-141378764D01*
X157430059Y-141620742D01*
X157574931Y-141672406D01*
X157369796Y-141757376D01*
X157160000Y-141967172D01*
X156950204Y-141757376D01*
X156739260Y-141670000D01*
X156950204Y-141582624D01*
X157342624Y-141190204D01*
X157450410Y-140929985D01*
X157980395Y-140400000D01*
X158339605Y-140400000D01*
X159138764Y-141199159D01*
X159380742Y-141129941D01*
X159567155Y-140607220D01*
X159539341Y-140052951D01*
X159380742Y-139670059D01*
X159138764Y-139600841D01*
X158339605Y-140400000D01*
X157980395Y-140400000D01*
X157450410Y-139870015D01*
X157342624Y-139609796D01*
X157154064Y-139421236D01*
X157360841Y-139421236D01*
X158160000Y-140220395D01*
X158959159Y-139421236D01*
X158889941Y-139179258D01*
X158367220Y-138992845D01*
X157812951Y-139020659D01*
X157430059Y-139179258D01*
X157360841Y-139421236D01*
X157154064Y-139421236D01*
X156950204Y-139217376D01*
X156437483Y-139005000D01*
X155882517Y-139005000D01*
X155369796Y-139217376D01*
X154977376Y-139609796D01*
X154765000Y-140122517D01*
X149066707Y-140122517D01*
X149074264Y-140119387D01*
X149172927Y-139852532D01*
X148200000Y-138879605D01*
X147227073Y-139852532D01*
X144817099Y-139852532D01*
X144847440Y-139700000D01*
X144847440Y-138435461D01*
X146554092Y-138435461D01*
X146578144Y-139085460D01*
X146780613Y-139574264D01*
X147047468Y-139672927D01*
X148020395Y-138700000D01*
X148379605Y-138700000D01*
X149352532Y-139672927D01*
X149619387Y-139574264D01*
X149845908Y-138964539D01*
X149821856Y-138314540D01*
X149619387Y-137825736D01*
X149352532Y-137727073D01*
X148379605Y-138700000D01*
X148020395Y-138700000D01*
X147047468Y-137727073D01*
X146780613Y-137825736D01*
X146554092Y-138435461D01*
X144847440Y-138435461D01*
X144847440Y-137700000D01*
X144817100Y-137547468D01*
X147227073Y-137547468D01*
X148200000Y-138520395D01*
X149172927Y-137547468D01*
X149074264Y-137280613D01*
X148522414Y-137075593D01*
X159634012Y-137075593D01*
X159775478Y-137378782D01*
X160511955Y-137663737D01*
X161301418Y-137645164D01*
X161944522Y-137378782D01*
X162085988Y-137075593D01*
X160860000Y-135849605D01*
X159634012Y-137075593D01*
X148522414Y-137075593D01*
X148464539Y-137054092D01*
X147814540Y-137078144D01*
X147325736Y-137280613D01*
X147227073Y-137547468D01*
X144817100Y-137547468D01*
X144798157Y-137452235D01*
X144657809Y-137242191D01*
X144447765Y-137101843D01*
X144200000Y-137052560D01*
X142200000Y-137052560D01*
X141952235Y-137101843D01*
X141742191Y-137242191D01*
X141601843Y-137452235D01*
X141552560Y-137700000D01*
X132245753Y-137700000D01*
X132081933Y-137420875D01*
X131865499Y-137257240D01*
X132040385Y-137140385D01*
X132313344Y-136731873D01*
X132409195Y-136250000D01*
X132313344Y-135768127D01*
X132040385Y-135359615D01*
X131984023Y-135321955D01*
X158866263Y-135321955D01*
X158884836Y-136111418D01*
X159151218Y-136754522D01*
X159454407Y-136895988D01*
X160680395Y-135670000D01*
X161039605Y-135670000D01*
X162265593Y-136895988D01*
X162568782Y-136754522D01*
X162853737Y-136018045D01*
X162835164Y-135228582D01*
X162568782Y-134585478D01*
X162265593Y-134444012D01*
X161039605Y-135670000D01*
X160680395Y-135670000D01*
X159454407Y-134444012D01*
X159151218Y-134585478D01*
X158866263Y-135321955D01*
X131984023Y-135321955D01*
X131876335Y-135250000D01*
X132040385Y-135140385D01*
X132313344Y-134731873D01*
X132406329Y-134264407D01*
X159634012Y-134264407D01*
X160860000Y-135490395D01*
X162085988Y-134264407D01*
X161944522Y-133961218D01*
X161208045Y-133676263D01*
X160418582Y-133694836D01*
X159775478Y-133961218D01*
X159634012Y-134264407D01*
X132406329Y-134264407D01*
X132409195Y-134250000D01*
X132313344Y-133768127D01*
X132040385Y-133359615D01*
X131631873Y-133086656D01*
X131271636Y-133015000D01*
X130528364Y-133015000D01*
X130168127Y-133086656D01*
X129759615Y-133359615D01*
X129486656Y-133768127D01*
X129390805Y-134250000D01*
X100710000Y-134250000D01*
X100710000Y-102041247D01*
X100776100Y-101474292D01*
X100956685Y-100976788D01*
X101246881Y-100534165D01*
X101631116Y-100170177D01*
X102088784Y-99904342D01*
X102604629Y-99748108D01*
X103031618Y-99710000D01*
X120426289Y-99710000D01*
X120422569Y-99713720D01*
X120422569Y-99713720D01*
G37*
X120422569Y-99713720D02*
X120265000Y-100094126D01*
X120265000Y-100505874D01*
X120422569Y-100886280D01*
X120606715Y-101070426D01*
X120129375Y-101389375D01*
X119930000Y-101687761D01*
X119730625Y-101389375D01*
X119239418Y-101061161D01*
X118806256Y-100975000D01*
X118513744Y-100975000D01*
X118080582Y-101061161D01*
X117589375Y-101389375D01*
X117390000Y-101687761D01*
X117190625Y-101389375D01*
X116699418Y-101061161D01*
X116266256Y-100975000D01*
X115973744Y-100975000D01*
X115540582Y-101061161D01*
X115049375Y-101389375D01*
X114836157Y-101708478D01*
X114775183Y-101578642D01*
X114346924Y-101188355D01*
X113936890Y-101018524D01*
X113707000Y-101139845D01*
X113707000Y-102333000D01*
X113727000Y-102333000D01*
X113727000Y-102587000D01*
X113707000Y-102587000D01*
X113707000Y-102607000D01*
X113453000Y-102607000D01*
X113453000Y-102587000D01*
X113433000Y-102587000D01*
X113433000Y-102333000D01*
X113453000Y-102333000D01*
X113453000Y-101139845D01*
X113223110Y-101018524D01*
X112813076Y-101188355D01*
X112384817Y-101578642D01*
X112323843Y-101708478D01*
X112110625Y-101389375D01*
X111619418Y-101061161D01*
X111186256Y-100975000D01*
X110893744Y-100975000D01*
X110460582Y-101061161D01*
X109969375Y-101389375D01*
X109770000Y-101687761D01*
X109570625Y-101389375D01*
X109079418Y-101061161D01*
X108646256Y-100975000D01*
X108353744Y-100975000D01*
X107920582Y-101061161D01*
X107429375Y-101389375D01*
X107101161Y-101880582D01*
X106985908Y-102460000D01*
X107101161Y-103039418D01*
X107429375Y-103530625D01*
X107447619Y-103542816D01*
X107402235Y-103551843D01*
X107192191Y-103692191D01*
X107051843Y-103902235D01*
X107002560Y-104150000D01*
X107002560Y-105850000D01*
X107051843Y-106097765D01*
X107192191Y-106307809D01*
X107402235Y-106448157D01*
X107650000Y-106497440D01*
X109350000Y-106497440D01*
X109597765Y-106448157D01*
X109807809Y-106307809D01*
X109948157Y-106097765D01*
X109957184Y-106052381D01*
X109969375Y-106070625D01*
X110280000Y-106278178D01*
X110280001Y-114265148D01*
X110265112Y-114340000D01*
X110324097Y-114636537D01*
X110334477Y-114652071D01*
X110492072Y-114887929D01*
X110555528Y-114930329D01*
X110981312Y-115356113D01*
X110916887Y-115680000D01*
X111028260Y-116239909D01*
X111345423Y-116714577D01*
X111697758Y-116950000D01*
X111345423Y-117185423D01*
X111028260Y-117660091D01*
X110916887Y-118220000D01*
X111028260Y-118779909D01*
X111235455Y-119089998D01*
X110503711Y-119089998D01*
X110386280Y-118972567D01*
X110005874Y-118814998D01*
X109594126Y-118814998D01*
X109213720Y-118972567D01*
X108922569Y-119263718D01*
X108765000Y-119644124D01*
X108765000Y-120055872D01*
X108922569Y-120436278D01*
X109213720Y-120727429D01*
X109594126Y-120884998D01*
X110005874Y-120884998D01*
X110386280Y-120727429D01*
X110503711Y-120609998D01*
X110946724Y-120609998D01*
X110916887Y-120760000D01*
X111028260Y-121319909D01*
X111345423Y-121794577D01*
X111697758Y-122030000D01*
X111345423Y-122265423D01*
X111028260Y-122740091D01*
X110916887Y-123300000D01*
X111028260Y-123859909D01*
X111345423Y-124334577D01*
X111820091Y-124651740D01*
X112238667Y-124735000D01*
X112521333Y-124735000D01*
X112939909Y-124651740D01*
X113321780Y-124396582D01*
X113665000Y-124739802D01*
X113665000Y-124905874D01*
X113822569Y-125286280D01*
X114113720Y-125577431D01*
X114494126Y-125735000D01*
X114905874Y-125735000D01*
X115286280Y-125577431D01*
X115549694Y-125314017D01*
X124815000Y-125314017D01*
X124815000Y-125685983D01*
X124957345Y-126029635D01*
X124990000Y-126062290D01*
X124990001Y-127937705D01*
X124957345Y-127970361D01*
X124815000Y-128314013D01*
X124815000Y-128685979D01*
X124957345Y-129029631D01*
X125220365Y-129292651D01*
X125564017Y-129434996D01*
X125935983Y-129434996D01*
X126279635Y-129292651D01*
X126542655Y-129029631D01*
X126685000Y-128685979D01*
X126685000Y-128314013D01*
X126542655Y-127970361D01*
X126510000Y-127937706D01*
X126510000Y-126725000D01*
X129377560Y-126725000D01*
X129377560Y-128475000D01*
X129426843Y-128722765D01*
X129567191Y-128932809D01*
X129777235Y-129073157D01*
X130025000Y-129122440D01*
X131775000Y-129122440D01*
X132022765Y-129073157D01*
X132232809Y-128932809D01*
X132373157Y-128722765D01*
X132422440Y-128475000D01*
X132422440Y-127366000D01*
X154086560Y-127366000D01*
X154086560Y-130866000D01*
X154135843Y-131113765D01*
X154276191Y-131323809D01*
X154486235Y-131464157D01*
X154734000Y-131513440D01*
X158234000Y-131513440D01*
X158481765Y-131464157D01*
X158691809Y-131323809D01*
X158832157Y-131113765D01*
X158881440Y-130866000D01*
X158881440Y-129401750D01*
X160099000Y-129401750D01*
X160099000Y-130992310D01*
X160195673Y-131225699D01*
X160374302Y-131404327D01*
X160607691Y-131501000D01*
X162198250Y-131501000D01*
X162357000Y-131342250D01*
X162357000Y-129243000D01*
X160257750Y-129243000D01*
X160099000Y-129401750D01*
X158881440Y-129401750D01*
X158881440Y-127366000D01*
X158832157Y-127118235D01*
X158691809Y-126908191D01*
X158531388Y-126801000D01*
X159198250Y-126801000D01*
X159357000Y-126642250D01*
X159357000Y-124543000D01*
X159611000Y-124543000D01*
X159611000Y-126642250D01*
X159769750Y-126801000D01*
X160438696Y-126801000D01*
X160374302Y-126827673D01*
X160195673Y-127006301D01*
X160099000Y-127239690D01*
X160099000Y-128830250D01*
X160257750Y-128989000D01*
X162357000Y-128989000D01*
X162357000Y-126889750D01*
X162198250Y-126731000D01*
X161529304Y-126731000D01*
X161593698Y-126704327D01*
X161772327Y-126525699D01*
X161869000Y-126292310D01*
X161869000Y-124701750D01*
X161710250Y-124543000D01*
X159611000Y-124543000D01*
X159357000Y-124543000D01*
X157257750Y-124543000D01*
X157099000Y-124701750D01*
X157099000Y-126292310D01*
X157195673Y-126525699D01*
X157374302Y-126704327D01*
X157408663Y-126718560D01*
X154734000Y-126718560D01*
X154486235Y-126767843D01*
X154276191Y-126908191D01*
X154135843Y-127118235D01*
X154086560Y-127366000D01*
X132422440Y-127366000D01*
X132422440Y-126725000D01*
X132373157Y-126477235D01*
X132232809Y-126267191D01*
X132022765Y-126126843D01*
X132010966Y-126124496D01*
X132180116Y-125955346D01*
X132410000Y-125400358D01*
X132410000Y-124799642D01*
X132180116Y-124244654D01*
X131785462Y-123850000D01*
X132180116Y-123455346D01*
X132410000Y-122900358D01*
X132410000Y-122539690D01*
X157099000Y-122539690D01*
X157099000Y-124130250D01*
X157257750Y-124289000D01*
X159357000Y-124289000D01*
X159357000Y-122189750D01*
X159611000Y-122189750D01*
X159611000Y-124289000D01*
X161710250Y-124289000D01*
X161869000Y-124130250D01*
X161869000Y-122539690D01*
X161772327Y-122306301D01*
X161593698Y-122127673D01*
X161360309Y-122031000D01*
X159769750Y-122031000D01*
X159611000Y-122189750D01*
X159357000Y-122189750D01*
X159198250Y-122031000D01*
X157607691Y-122031000D01*
X157374302Y-122127673D01*
X157195673Y-122306301D01*
X157099000Y-122539690D01*
X132410000Y-122539690D01*
X132410000Y-122299642D01*
X132180116Y-121744654D01*
X131785462Y-121350000D01*
X132180116Y-120955346D01*
X132410000Y-120400358D01*
X132410000Y-120373711D01*
X132513720Y-120477431D01*
X132894126Y-120635000D01*
X133305874Y-120635000D01*
X133686280Y-120477431D01*
X133977431Y-120186280D01*
X134135000Y-119805874D01*
X134135000Y-119394126D01*
X133977431Y-119013720D01*
X133860000Y-118896289D01*
X133860000Y-116500000D01*
X158977560Y-116500000D01*
X158977560Y-118250000D01*
X159026843Y-118497765D01*
X159167191Y-118707809D01*
X159377235Y-118848157D01*
X159625000Y-118897440D01*
X161375000Y-118897440D01*
X161622765Y-118848157D01*
X161832809Y-118707809D01*
X161973157Y-118497765D01*
X162022440Y-118250000D01*
X162022440Y-116500000D01*
X161973157Y-116252235D01*
X161832809Y-116042191D01*
X161622765Y-115901843D01*
X161610966Y-115899496D01*
X161780116Y-115730346D01*
X162010000Y-115175358D01*
X162010000Y-114574642D01*
X161780116Y-114019654D01*
X161355346Y-113594884D01*
X160800358Y-113365000D01*
X160199642Y-113365000D01*
X159644654Y-113594884D01*
X159219884Y-114019654D01*
X158990000Y-114574642D01*
X158990000Y-115175358D01*
X159219884Y-115730346D01*
X159389034Y-115899496D01*
X159377235Y-115901843D01*
X159167191Y-116042191D01*
X159026843Y-116252235D01*
X158977560Y-116500000D01*
X133860000Y-116500000D01*
X133860000Y-115903711D01*
X133977431Y-115786280D01*
X134135000Y-115405874D01*
X134135000Y-114994126D01*
X133977431Y-114613720D01*
X133686280Y-114322569D01*
X133305874Y-114165000D01*
X132894126Y-114165000D01*
X132513720Y-114322569D01*
X132300647Y-114535642D01*
X132180116Y-114244654D01*
X131785462Y-113850000D01*
X132180116Y-113455346D01*
X132410000Y-112900358D01*
X132410000Y-112299642D01*
X132180116Y-111744654D01*
X131785462Y-111350000D01*
X132180116Y-110955346D01*
X132410000Y-110400358D01*
X132410000Y-109799642D01*
X132180116Y-109244654D01*
X131755346Y-108819884D01*
X131200358Y-108590000D01*
X130599642Y-108590000D01*
X130044654Y-108819884D01*
X129619884Y-109244654D01*
X129390000Y-109799642D01*
X129390000Y-110400358D01*
X129619884Y-110955346D01*
X130014538Y-111350000D01*
X129619884Y-111744654D01*
X129390000Y-112299642D01*
X129390000Y-112900358D01*
X129619884Y-113455346D01*
X130014538Y-113850000D01*
X129619884Y-114244654D01*
X129390000Y-114799642D01*
X129390000Y-115400358D01*
X129619884Y-115955346D01*
X130014538Y-116350000D01*
X129619884Y-116744654D01*
X129390000Y-117299642D01*
X129390000Y-117900358D01*
X129619884Y-118455346D01*
X130014538Y-118850000D01*
X129619884Y-119244654D01*
X129390000Y-119799642D01*
X129390000Y-120400358D01*
X129619884Y-120955346D01*
X130014538Y-121350000D01*
X129619884Y-121744654D01*
X129390000Y-122299642D01*
X129390000Y-122900358D01*
X129619884Y-123455346D01*
X130014538Y-123850000D01*
X129619884Y-124244654D01*
X129390000Y-124799642D01*
X129390000Y-125400358D01*
X129619884Y-125955346D01*
X129789034Y-126124496D01*
X129777235Y-126126843D01*
X129567191Y-126267191D01*
X129426843Y-126477235D01*
X129377560Y-126725000D01*
X126510000Y-126725000D01*
X126510000Y-126062290D01*
X126542655Y-126029635D01*
X126685000Y-125685983D01*
X126685000Y-125314017D01*
X126542655Y-124970365D01*
X126279635Y-124707345D01*
X125935983Y-124565000D01*
X125564017Y-124565000D01*
X125220365Y-124707345D01*
X124957345Y-124970365D01*
X124815000Y-125314017D01*
X115549694Y-125314017D01*
X115577431Y-125286280D01*
X115735000Y-124905874D01*
X115735000Y-124494126D01*
X115577431Y-124113720D01*
X115286280Y-123822569D01*
X114905874Y-123665000D01*
X114739802Y-123665000D01*
X113890331Y-122815530D01*
X113847929Y-122752071D01*
X113652487Y-122621481D01*
X113414577Y-122265423D01*
X113062242Y-122030000D01*
X113414577Y-121794577D01*
X113731740Y-121319909D01*
X113756759Y-121194126D01*
X114565000Y-121194126D01*
X114565000Y-121605874D01*
X114722569Y-121986280D01*
X115013720Y-122277431D01*
X115394126Y-122435000D01*
X115560199Y-122435000D01*
X115865000Y-122739802D01*
X115865000Y-122905874D01*
X116022569Y-123286280D01*
X116313720Y-123577431D01*
X116694126Y-123735000D01*
X117105874Y-123735000D01*
X117486280Y-123577431D01*
X117777431Y-123286280D01*
X117935000Y-122905874D01*
X117935000Y-122494126D01*
X117777431Y-122113720D01*
X117486280Y-121822569D01*
X117105874Y-121665000D01*
X116939802Y-121665000D01*
X116635000Y-121360199D01*
X116635000Y-121194126D01*
X116477431Y-120813720D01*
X116186280Y-120522569D01*
X115805874Y-120365000D01*
X115394126Y-120365000D01*
X115013720Y-120522569D01*
X114722569Y-120813720D01*
X114565000Y-121194126D01*
X113756759Y-121194126D01*
X113843113Y-120760000D01*
X113731740Y-120200091D01*
X113414577Y-119725423D01*
X113062242Y-119490000D01*
X113414577Y-119254577D01*
X113731740Y-118779909D01*
X113843113Y-118220000D01*
X118536887Y-118220000D01*
X118648260Y-118779909D01*
X118965423Y-119254577D01*
X119317758Y-119490000D01*
X118965423Y-119725423D01*
X118648260Y-120200091D01*
X118536887Y-120760000D01*
X118648260Y-121319909D01*
X118965423Y-121794577D01*
X119086106Y-121875215D01*
X118952235Y-121901843D01*
X118742191Y-122042191D01*
X118601843Y-122252235D01*
X118552560Y-122500000D01*
X118552560Y-124100000D01*
X118601843Y-124347765D01*
X118742191Y-124557809D01*
X118952235Y-124698157D01*
X119200000Y-124747440D01*
X120800000Y-124747440D01*
X121047765Y-124698157D01*
X121257809Y-124557809D01*
X121398157Y-124347765D01*
X121447440Y-124100000D01*
X121447440Y-122500000D01*
X121398157Y-122252235D01*
X121257809Y-122042191D01*
X121047765Y-121901843D01*
X120913894Y-121875215D01*
X121034577Y-121794577D01*
X121351740Y-121319909D01*
X121463113Y-120760000D01*
X121351740Y-120200091D01*
X121034577Y-119725423D01*
X120682242Y-119490000D01*
X121034577Y-119254577D01*
X121351740Y-118779909D01*
X121463113Y-118220000D01*
X121351740Y-117660091D01*
X121034577Y-117185423D01*
X120650892Y-116929053D01*
X120855134Y-116832389D01*
X121231041Y-116417423D01*
X121391904Y-116029039D01*
X121269915Y-115807000D01*
X120127000Y-115807000D01*
X120127000Y-115827000D01*
X119873000Y-115827000D01*
X119873000Y-115807000D01*
X118730085Y-115807000D01*
X118608096Y-116029039D01*
X118768959Y-116417423D01*
X119144866Y-116832389D01*
X119349108Y-116929053D01*
X118965423Y-117185423D01*
X118648260Y-117660091D01*
X118536887Y-118220000D01*
X113843113Y-118220000D01*
X113731740Y-117660091D01*
X113414577Y-117185423D01*
X113062242Y-116950000D01*
X113414577Y-116714577D01*
X113731740Y-116239909D01*
X113843113Y-115680000D01*
X113773685Y-115330961D01*
X118608096Y-115330961D01*
X118730085Y-115553000D01*
X119873000Y-115553000D01*
X119873000Y-114409371D01*
X120127000Y-114409371D01*
X120127000Y-115553000D01*
X121269915Y-115553000D01*
X121391904Y-115330961D01*
X121231041Y-114942577D01*
X120855134Y-114527611D01*
X120349041Y-114288086D01*
X120127000Y-114409371D01*
X119873000Y-114409371D01*
X119650959Y-114288086D01*
X119144866Y-114527611D01*
X118768959Y-114942577D01*
X118608096Y-115330961D01*
X113773685Y-115330961D01*
X113731740Y-115120091D01*
X113414577Y-114645423D01*
X112939909Y-114328260D01*
X112521333Y-114245000D01*
X112238667Y-114245000D01*
X112056114Y-114281312D01*
X111800000Y-114025199D01*
X111800000Y-109814017D01*
X122315000Y-109814017D01*
X122315000Y-110185983D01*
X122457345Y-110529635D01*
X122490001Y-110562291D01*
X122490000Y-111937710D01*
X122457345Y-111970365D01*
X122315000Y-112314017D01*
X122315000Y-112685983D01*
X122457345Y-113029635D01*
X122720365Y-113292655D01*
X123064017Y-113435000D01*
X123435983Y-113435000D01*
X123779635Y-113292655D01*
X124042655Y-113029635D01*
X124185000Y-112685983D01*
X124185000Y-112314017D01*
X124042655Y-111970365D01*
X124010000Y-111937710D01*
X124010000Y-110562290D01*
X124042655Y-110529635D01*
X124185000Y-110185983D01*
X124185000Y-109814017D01*
X124042655Y-109470365D01*
X123986307Y-109414017D01*
X126465000Y-109414017D01*
X126465000Y-109785983D01*
X126607345Y-110129635D01*
X126640000Y-110162290D01*
X126640001Y-111937709D01*
X126607345Y-111970365D01*
X126465000Y-112314017D01*
X126465000Y-112685983D01*
X126607345Y-113029635D01*
X126870365Y-113292655D01*
X127214017Y-113435000D01*
X127585983Y-113435000D01*
X127929635Y-113292655D01*
X128192655Y-113029635D01*
X128335000Y-112685983D01*
X128335000Y-112314017D01*
X128192655Y-111970365D01*
X128160000Y-111937710D01*
X128160000Y-110162290D01*
X128192655Y-110129635D01*
X128335000Y-109785983D01*
X128335000Y-109414017D01*
X128192655Y-109070365D01*
X127929635Y-108807345D01*
X127585983Y-108665000D01*
X127214017Y-108665000D01*
X126870365Y-108807345D01*
X126607345Y-109070365D01*
X126465000Y-109414017D01*
X123986307Y-109414017D01*
X123779635Y-109207345D01*
X123435983Y-109065000D01*
X123064017Y-109065000D01*
X122720365Y-109207345D01*
X122457345Y-109470365D01*
X122315000Y-109814017D01*
X111800000Y-109814017D01*
X111800000Y-107731779D01*
X149727347Y-107731779D01*
X149727347Y-108143527D01*
X149884916Y-108523933D01*
X150176067Y-108815084D01*
X150556473Y-108972653D01*
X150968221Y-108972653D01*
X151348627Y-108815084D01*
X151466058Y-108697653D01*
X154187500Y-108697653D01*
X154262347Y-108712541D01*
X154337194Y-108697653D01*
X154337199Y-108697653D01*
X154558884Y-108653557D01*
X154736317Y-108535000D01*
X154905874Y-108535000D01*
X155286280Y-108377431D01*
X155577431Y-108086280D01*
X155735000Y-107705874D01*
X155735000Y-107294126D01*
X155577431Y-106913720D01*
X155286280Y-106622569D01*
X154905874Y-106465000D01*
X154494126Y-106465000D01*
X154113720Y-106622569D01*
X153822569Y-106913720D01*
X153713245Y-107177653D01*
X151466058Y-107177653D01*
X151348627Y-107060222D01*
X150968221Y-106902653D01*
X150556473Y-106902653D01*
X150176067Y-107060222D01*
X149884916Y-107351373D01*
X149727347Y-107731779D01*
X111800000Y-107731779D01*
X111800000Y-106278178D01*
X112110625Y-106070625D01*
X112310000Y-105772239D01*
X112509375Y-106070625D01*
X113000582Y-106398839D01*
X113433744Y-106485000D01*
X113726256Y-106485000D01*
X114159418Y-106398839D01*
X114650625Y-106070625D01*
X114850000Y-105772239D01*
X115049375Y-106070625D01*
X115540582Y-106398839D01*
X115973744Y-106485000D01*
X116266256Y-106485000D01*
X116699418Y-106398839D01*
X117190625Y-106070625D01*
X117403843Y-105751522D01*
X117464817Y-105881358D01*
X117893076Y-106271645D01*
X118303110Y-106441476D01*
X118533000Y-106320155D01*
X118533000Y-105127000D01*
X118513000Y-105127000D01*
X118513000Y-104873000D01*
X118533000Y-104873000D01*
X118533000Y-104853000D01*
X118787000Y-104853000D01*
X118787000Y-104873000D01*
X118807000Y-104873000D01*
X118807000Y-105127000D01*
X118787000Y-105127000D01*
X118787000Y-106320155D01*
X119016890Y-106441476D01*
X119426924Y-106271645D01*
X119855183Y-105881358D01*
X119916157Y-105751522D01*
X120129375Y-106070625D01*
X120620582Y-106398839D01*
X121053744Y-106485000D01*
X121346256Y-106485000D01*
X121779418Y-106398839D01*
X122270625Y-106070625D01*
X122470000Y-105772239D01*
X122669375Y-106070625D01*
X123160582Y-106398839D01*
X123593744Y-106485000D01*
X123886256Y-106485000D01*
X124319418Y-106398839D01*
X124810625Y-106070625D01*
X125010000Y-105772239D01*
X125209375Y-106070625D01*
X125700582Y-106398839D01*
X126133744Y-106485000D01*
X126426256Y-106485000D01*
X126859418Y-106398839D01*
X127350625Y-106070625D01*
X127550000Y-105772239D01*
X127749375Y-106070625D01*
X128240582Y-106398839D01*
X128673744Y-106485000D01*
X128966256Y-106485000D01*
X129399418Y-106398839D01*
X129890625Y-106070625D01*
X130090000Y-105772239D01*
X130289375Y-106070625D01*
X130780582Y-106398839D01*
X131213744Y-106485000D01*
X131506256Y-106485000D01*
X131939418Y-106398839D01*
X132430625Y-106070625D01*
X132630000Y-105772239D01*
X132829375Y-106070625D01*
X133320582Y-106398839D01*
X133753744Y-106485000D01*
X134046256Y-106485000D01*
X134479418Y-106398839D01*
X134970625Y-106070625D01*
X135170000Y-105772239D01*
X135369375Y-106070625D01*
X135860582Y-106398839D01*
X136293744Y-106485000D01*
X136586256Y-106485000D01*
X137019418Y-106398839D01*
X137510625Y-106070625D01*
X137723843Y-105751522D01*
X137784817Y-105881358D01*
X138213076Y-106271645D01*
X138623110Y-106441476D01*
X138853000Y-106320155D01*
X138853000Y-105127000D01*
X138833000Y-105127000D01*
X138833000Y-104873000D01*
X138853000Y-104873000D01*
X138853000Y-104853000D01*
X139107000Y-104853000D01*
X139107000Y-104873000D01*
X139127000Y-104873000D01*
X139127000Y-105127000D01*
X139107000Y-105127000D01*
X139107000Y-106320155D01*
X139336890Y-106441476D01*
X139746924Y-106271645D01*
X140175183Y-105881358D01*
X140236157Y-105751522D01*
X140449375Y-106070625D01*
X140940582Y-106398839D01*
X141373744Y-106485000D01*
X141666256Y-106485000D01*
X142099418Y-106398839D01*
X142590625Y-106070625D01*
X142790000Y-105772239D01*
X142989375Y-106070625D01*
X143480582Y-106398839D01*
X143913744Y-106485000D01*
X144206256Y-106485000D01*
X144639418Y-106398839D01*
X145130625Y-106070625D01*
X145330000Y-105772239D01*
X145529375Y-106070625D01*
X146020582Y-106398839D01*
X146453744Y-106485000D01*
X146746256Y-106485000D01*
X147179418Y-106398839D01*
X147670625Y-106070625D01*
X147870000Y-105772239D01*
X148069375Y-106070625D01*
X148560582Y-106398839D01*
X148993744Y-106485000D01*
X149286256Y-106485000D01*
X149719418Y-106398839D01*
X150210625Y-106070625D01*
X150410000Y-105772239D01*
X150609375Y-106070625D01*
X151100582Y-106398839D01*
X151533744Y-106485000D01*
X151826256Y-106485000D01*
X152259418Y-106398839D01*
X152750625Y-106070625D01*
X152950000Y-105772239D01*
X153149375Y-106070625D01*
X153640582Y-106398839D01*
X154073744Y-106485000D01*
X154366256Y-106485000D01*
X154799418Y-106398839D01*
X155290625Y-106070625D01*
X155503843Y-105751522D01*
X155564817Y-105881358D01*
X155993076Y-106271645D01*
X156403110Y-106441476D01*
X156633000Y-106320155D01*
X156633000Y-105127000D01*
X156887000Y-105127000D01*
X156887000Y-106320155D01*
X157116890Y-106441476D01*
X157526924Y-106271645D01*
X157955183Y-105881358D01*
X158201486Y-105356892D01*
X158080819Y-105127000D01*
X156887000Y-105127000D01*
X156633000Y-105127000D01*
X156613000Y-105127000D01*
X156613000Y-104873000D01*
X156633000Y-104873000D01*
X156633000Y-104853000D01*
X156887000Y-104853000D01*
X156887000Y-104873000D01*
X158080819Y-104873000D01*
X158201486Y-104643108D01*
X157955183Y-104118642D01*
X157530214Y-103731353D01*
X157830625Y-103530625D01*
X158158839Y-103039418D01*
X158274092Y-102460000D01*
X158158839Y-101880582D01*
X157830625Y-101389375D01*
X157339418Y-101061161D01*
X156906256Y-100975000D01*
X156613744Y-100975000D01*
X156180582Y-101061161D01*
X155689375Y-101389375D01*
X155490000Y-101687761D01*
X155290625Y-101389375D01*
X154799418Y-101061161D01*
X154366256Y-100975000D01*
X154073744Y-100975000D01*
X153640582Y-101061161D01*
X153149375Y-101389375D01*
X152950000Y-101687761D01*
X152750625Y-101389375D01*
X152259418Y-101061161D01*
X151826256Y-100975000D01*
X151533744Y-100975000D01*
X151100582Y-101061161D01*
X150609375Y-101389375D01*
X150396157Y-101708478D01*
X150335183Y-101578642D01*
X149906924Y-101188355D01*
X149496890Y-101018524D01*
X149267000Y-101139845D01*
X149267000Y-102333000D01*
X149287000Y-102333000D01*
X149287000Y-102587000D01*
X149267000Y-102587000D01*
X149267000Y-102607000D01*
X149013000Y-102607000D01*
X149013000Y-102587000D01*
X148993000Y-102587000D01*
X148993000Y-102333000D01*
X149013000Y-102333000D01*
X149013000Y-101139845D01*
X148783110Y-101018524D01*
X148373076Y-101188355D01*
X147944817Y-101578642D01*
X147883843Y-101708478D01*
X147670625Y-101389375D01*
X147179418Y-101061161D01*
X146746256Y-100975000D01*
X146453744Y-100975000D01*
X146020582Y-101061161D01*
X145529375Y-101389375D01*
X145316157Y-101708478D01*
X145255183Y-101578642D01*
X144826924Y-101188355D01*
X144416890Y-101018524D01*
X144187000Y-101139845D01*
X144187000Y-102333000D01*
X144207000Y-102333000D01*
X144207000Y-102587000D01*
X144187000Y-102587000D01*
X144187000Y-102607000D01*
X143933000Y-102607000D01*
X143933000Y-102587000D01*
X143913000Y-102587000D01*
X143913000Y-102333000D01*
X143933000Y-102333000D01*
X143933000Y-101139845D01*
X143703110Y-101018524D01*
X143293076Y-101188355D01*
X142864817Y-101578642D01*
X142803843Y-101708478D01*
X142590625Y-101389375D01*
X142099418Y-101061161D01*
X141666256Y-100975000D01*
X141373744Y-100975000D01*
X140940582Y-101061161D01*
X140449375Y-101389375D01*
X140250000Y-101687761D01*
X140050625Y-101389375D01*
X139559418Y-101061161D01*
X139126256Y-100975000D01*
X138833744Y-100975000D01*
X138400582Y-101061161D01*
X137909375Y-101389375D01*
X137710000Y-101687761D01*
X137510625Y-101389375D01*
X137019418Y-101061161D01*
X136586256Y-100975000D01*
X136293744Y-100975000D01*
X135860582Y-101061161D01*
X135369375Y-101389375D01*
X135170000Y-101687761D01*
X134970625Y-101389375D01*
X134479418Y-101061161D01*
X134046256Y-100975000D01*
X133753744Y-100975000D01*
X133320582Y-101061161D01*
X132829375Y-101389375D01*
X132616157Y-101708478D01*
X132555183Y-101578642D01*
X132126924Y-101188355D01*
X131716890Y-101018524D01*
X131487000Y-101139845D01*
X131487000Y-102333000D01*
X131507000Y-102333000D01*
X131507000Y-102587000D01*
X131487000Y-102587000D01*
X131487000Y-102607000D01*
X131233000Y-102607000D01*
X131233000Y-102587000D01*
X131213000Y-102587000D01*
X131213000Y-102333000D01*
X131233000Y-102333000D01*
X131233000Y-101139845D01*
X131003110Y-101018524D01*
X130593076Y-101188355D01*
X130164817Y-101578642D01*
X130103843Y-101708478D01*
X129890625Y-101389375D01*
X129399418Y-101061161D01*
X128966256Y-100975000D01*
X128673744Y-100975000D01*
X128240582Y-101061161D01*
X127749375Y-101389375D01*
X127550000Y-101687761D01*
X127350625Y-101389375D01*
X126859418Y-101061161D01*
X126426256Y-100975000D01*
X126133744Y-100975000D01*
X125700582Y-101061161D01*
X125209375Y-101389375D01*
X124996157Y-101708478D01*
X124935183Y-101578642D01*
X124506924Y-101188355D01*
X124096890Y-101018524D01*
X123867000Y-101139845D01*
X123867000Y-102333000D01*
X123887000Y-102333000D01*
X123887000Y-102587000D01*
X123867000Y-102587000D01*
X123867000Y-102607000D01*
X123613000Y-102607000D01*
X123613000Y-102587000D01*
X123593000Y-102587000D01*
X123593000Y-102333000D01*
X123613000Y-102333000D01*
X123613000Y-101139845D01*
X123383110Y-101018524D01*
X123155361Y-101112855D01*
X123047929Y-100952071D01*
X122984473Y-100909671D01*
X122335000Y-100260199D01*
X122335000Y-100094126D01*
X122177431Y-99713720D01*
X122173711Y-99710000D01*
X161958753Y-99710000D01*
X162525708Y-99776100D01*
X163023212Y-99956685D01*
X163465835Y-100246881D01*
X163829823Y-100631116D01*
X164095658Y-101088784D01*
X164251892Y-101604629D01*
X164290000Y-102031618D01*
X164290000Y-126731000D01*
X162769750Y-126731000D01*
X162611000Y-126889750D01*
X162611000Y-128989000D01*
X162631000Y-128989000D01*
X162631000Y-129243000D01*
X162611000Y-129243000D01*
X162611000Y-131342250D01*
X162769750Y-131501000D01*
X164290000Y-131501000D01*
X164290001Y-150139335D01*
X163719062Y-149568396D01*
X162383046Y-149015000D01*
X162373692Y-149015000D01*
X162379150Y-149009542D01*
X162265595Y-148895987D01*
X162568782Y-148754522D01*
X162853737Y-148018045D01*
X162835164Y-147228582D01*
X162568782Y-146585478D01*
X162265593Y-146444012D01*
X161039605Y-147670000D01*
X161053748Y-147684143D01*
X160874143Y-147863748D01*
X160860000Y-147849605D01*
X159634012Y-149075593D01*
X159775478Y-149378782D01*
X159921918Y-149435442D01*
X159600938Y-149568396D01*
X158578396Y-150590938D01*
X158025000Y-151926954D01*
X158025000Y-153373046D01*
X158578396Y-154709062D01*
X159600938Y-155731604D01*
X160936954Y-156285000D01*
X162383046Y-156285000D01*
X163719062Y-155731604D01*
X164290001Y-155160665D01*
X164290001Y-170458744D01*
X164223900Y-171025708D01*
X164043315Y-171523212D01*
X163753118Y-171965834D01*
X163368884Y-172329823D01*
X162911216Y-172595658D01*
X162395371Y-172751892D01*
X161968382Y-172790000D01*
X152519346Y-172790000D01*
X152639966Y-172669380D01*
X152965000Y-171884678D01*
X152965000Y-171035322D01*
X152639966Y-170250620D01*
X152039380Y-169650034D01*
X151254678Y-169325000D01*
X150405322Y-169325000D01*
X149620620Y-169650034D01*
X149020034Y-170250620D01*
X148695000Y-171035322D01*
X148695000Y-171884678D01*
X149020034Y-172669380D01*
X149140654Y-172790000D01*
X103041248Y-172790000D01*
X102474292Y-172723900D01*
X101976788Y-172543315D01*
X101534166Y-172253118D01*
X101170177Y-171868884D01*
X100904342Y-171411216D01*
X100748108Y-170895371D01*
X100710000Y-170468382D01*
X100710000Y-166814398D01*
X107215000Y-166814398D01*
X107215000Y-167325602D01*
X107410629Y-167797894D01*
X107772106Y-168159371D01*
X108244398Y-168355000D01*
X108755602Y-168355000D01*
X109227894Y-168159371D01*
X109589371Y-167797894D01*
X109785000Y-167325602D01*
X109785000Y-167150000D01*
X146762560Y-167150000D01*
X146762560Y-168650000D01*
X146811843Y-168897765D01*
X146952191Y-169107809D01*
X147162235Y-169248157D01*
X147410000Y-169297440D01*
X148910000Y-169297440D01*
X149157765Y-169248157D01*
X149367809Y-169107809D01*
X149508157Y-168897765D01*
X149557440Y-168650000D01*
X149557440Y-167150000D01*
X149508157Y-166902235D01*
X149367809Y-166692191D01*
X149157765Y-166551843D01*
X148965156Y-166513531D01*
X149334147Y-166144540D01*
X149545000Y-165635494D01*
X149545000Y-165084506D01*
X149334147Y-164575460D01*
X149103687Y-164345000D01*
X149334147Y-164114540D01*
X149545000Y-163605494D01*
X149545000Y-163054506D01*
X149334147Y-162545460D01*
X148944540Y-162155853D01*
X148713130Y-162060000D01*
X148944540Y-161964147D01*
X149334147Y-161574540D01*
X149545000Y-161065494D01*
X149545000Y-160514506D01*
X149334147Y-160005460D01*
X148944540Y-159615853D01*
X148435494Y-159405000D01*
X147884506Y-159405000D01*
X147375460Y-159615853D01*
X146985853Y-160005460D01*
X146775000Y-160514506D01*
X146775000Y-161065494D01*
X146985853Y-161574540D01*
X147375460Y-161964147D01*
X147606870Y-162060000D01*
X147375460Y-162155853D01*
X146985853Y-162545460D01*
X146775000Y-163054506D01*
X146775000Y-163605494D01*
X146985853Y-164114540D01*
X147216313Y-164345000D01*
X146985853Y-164575460D01*
X146775000Y-165084506D01*
X146775000Y-165635494D01*
X146985853Y-166144540D01*
X147354844Y-166513531D01*
X147162235Y-166551843D01*
X146952191Y-166692191D01*
X146811843Y-166902235D01*
X146762560Y-167150000D01*
X109785000Y-167150000D01*
X109785000Y-166814398D01*
X109589371Y-166342106D01*
X109227894Y-165980629D01*
X108755602Y-165785000D01*
X108244398Y-165785000D01*
X107772106Y-165980629D01*
X107410629Y-166342106D01*
X107215000Y-166814398D01*
X100710000Y-166814398D01*
X100710000Y-159344234D01*
X107365000Y-159344234D01*
X107365000Y-159795766D01*
X107537793Y-160212926D01*
X107857074Y-160532207D01*
X108274234Y-160705000D01*
X108725766Y-160705000D01*
X109142926Y-160532207D01*
X109462207Y-160212926D01*
X109635000Y-159795766D01*
X109635000Y-159344234D01*
X109462207Y-158927074D01*
X109142926Y-158607793D01*
X108725766Y-158435000D01*
X108274234Y-158435000D01*
X107857074Y-158607793D01*
X107537793Y-158927074D01*
X107365000Y-159344234D01*
X100710000Y-159344234D01*
X100710000Y-157315322D01*
X148695000Y-157315322D01*
X148695000Y-158164678D01*
X149020034Y-158949380D01*
X149620620Y-159549966D01*
X150405322Y-159875000D01*
X151254678Y-159875000D01*
X152039380Y-159549966D01*
X152639966Y-158949380D01*
X152965000Y-158164678D01*
X152965000Y-157315322D01*
X152639966Y-156530620D01*
X152039380Y-155930034D01*
X151254678Y-155605000D01*
X150405322Y-155605000D01*
X149620620Y-155930034D01*
X149020034Y-156530620D01*
X148695000Y-157315322D01*
X100710000Y-157315322D01*
X100710000Y-154840666D01*
X101600938Y-155731604D01*
X102936954Y-156285000D01*
X104383046Y-156285000D01*
X105719062Y-155731604D01*
X106741604Y-154709062D01*
X107295000Y-153373046D01*
X107295000Y-152199999D01*
X109925113Y-152199999D01*
X109940002Y-152274851D01*
X109940001Y-154875154D01*
X109925113Y-154950001D01*
X109940001Y-155024848D01*
X109940001Y-155024852D01*
X109984097Y-155246537D01*
X110065000Y-155367617D01*
X110065000Y-155435983D01*
X110207345Y-155779635D01*
X110470365Y-156042655D01*
X110814017Y-156185000D01*
X111185983Y-156185000D01*
X111529635Y-156042655D01*
X111792655Y-155779635D01*
X111935000Y-155435983D01*
X111935000Y-155064017D01*
X111792655Y-154720365D01*
X111736405Y-154664115D01*
X111987760Y-154560000D01*
X112316664Y-154560000D01*
X112315000Y-154564017D01*
X112315000Y-154935983D01*
X112457345Y-155279635D01*
X112720365Y-155542655D01*
X113064017Y-155685000D01*
X113435983Y-155685000D01*
X113779635Y-155542655D01*
X113912290Y-155410000D01*
X118525153Y-155410000D01*
X118600000Y-155424888D01*
X118674847Y-155410000D01*
X118674852Y-155410000D01*
X118896537Y-155365904D01*
X119147929Y-155197929D01*
X119190331Y-155134470D01*
X119234470Y-155090331D01*
X119297929Y-155047929D01*
X119465904Y-154796537D01*
X119510000Y-154574852D01*
X119510000Y-154574848D01*
X119524888Y-154500001D01*
X119510000Y-154425154D01*
X119510000Y-154125000D01*
X129377560Y-154125000D01*
X129377560Y-155875000D01*
X129426843Y-156122765D01*
X129567191Y-156332809D01*
X129777235Y-156473157D01*
X130025000Y-156522440D01*
X131775000Y-156522440D01*
X132022765Y-156473157D01*
X132232809Y-156332809D01*
X132373157Y-156122765D01*
X132422440Y-155875000D01*
X132422440Y-154125000D01*
X132373157Y-153877235D01*
X132232809Y-153667191D01*
X132022765Y-153526843D01*
X132010966Y-153524496D01*
X132180116Y-153355346D01*
X132410000Y-152800358D01*
X132410000Y-152199642D01*
X132180116Y-151644654D01*
X131785462Y-151250000D01*
X132180116Y-150855346D01*
X132410000Y-150300358D01*
X132410000Y-149699642D01*
X132180116Y-149144654D01*
X131785462Y-148750000D01*
X132180116Y-148355346D01*
X132410000Y-147800358D01*
X132410000Y-147199642D01*
X132180116Y-146644654D01*
X131755346Y-146219884D01*
X131200358Y-145990000D01*
X130599642Y-145990000D01*
X130044654Y-146219884D01*
X129619884Y-146644654D01*
X129390000Y-147199642D01*
X129390000Y-147800358D01*
X129619884Y-148355346D01*
X130014538Y-148750000D01*
X129619884Y-149144654D01*
X129390000Y-149699642D01*
X129390000Y-150300358D01*
X129619884Y-150855346D01*
X130014538Y-151250000D01*
X129619884Y-151644654D01*
X129390000Y-152199642D01*
X129390000Y-152800358D01*
X129619884Y-153355346D01*
X129789034Y-153524496D01*
X129777235Y-153526843D01*
X129567191Y-153667191D01*
X129426843Y-153877235D01*
X129377560Y-154125000D01*
X119510000Y-154125000D01*
X119510000Y-153062290D01*
X119542655Y-153029635D01*
X119685000Y-152685983D01*
X119685000Y-152314017D01*
X119542655Y-151970365D01*
X119279635Y-151707345D01*
X118935983Y-151565000D01*
X118564017Y-151565000D01*
X118220365Y-151707345D01*
X117957345Y-151970365D01*
X117815000Y-152314017D01*
X117815000Y-152685983D01*
X117889151Y-152865000D01*
X117714017Y-152865000D01*
X117370365Y-153007345D01*
X117337710Y-153040000D01*
X112112290Y-153040000D01*
X112029635Y-152957345D01*
X111685983Y-152815000D01*
X111460001Y-152815000D01*
X111460001Y-152514800D01*
X114039803Y-149935000D01*
X114085983Y-149935000D01*
X114429635Y-149792655D01*
X114692655Y-149529635D01*
X114835000Y-149185983D01*
X114835000Y-148814017D01*
X114692655Y-148470365D01*
X114429635Y-148207345D01*
X114085983Y-148065000D01*
X113714017Y-148065000D01*
X113370365Y-148207345D01*
X113107345Y-148470365D01*
X112965000Y-148814017D01*
X112965000Y-148860197D01*
X110215529Y-151609670D01*
X110152073Y-151652070D01*
X110109673Y-151715526D01*
X110109672Y-151715527D01*
X109984098Y-151903462D01*
X109925113Y-152199999D01*
X107295000Y-152199999D01*
X107295000Y-151926954D01*
X106741604Y-150590938D01*
X105719062Y-149568396D01*
X104383046Y-149015000D01*
X102936954Y-149015000D01*
X101600938Y-149568396D01*
X100710000Y-150459334D01*
X100710000Y-143064017D01*
X127065000Y-143064017D01*
X127065000Y-143435983D01*
X127207345Y-143779635D01*
X127240001Y-143812291D01*
X127240000Y-144437710D01*
X127207345Y-144470365D01*
X127065000Y-144814017D01*
X127065000Y-145185983D01*
X127207345Y-145529635D01*
X127470365Y-145792655D01*
X127814017Y-145935000D01*
X128185983Y-145935000D01*
X128529635Y-145792655D01*
X128792655Y-145529635D01*
X128935000Y-145185983D01*
X128935000Y-144814017D01*
X128792655Y-144470365D01*
X128760000Y-144437710D01*
X128760000Y-143812290D01*
X128792655Y-143779635D01*
X128935000Y-143435983D01*
X128935000Y-143064017D01*
X128792655Y-142720365D01*
X128766416Y-142694126D01*
X134065000Y-142694126D01*
X134065000Y-143105874D01*
X134222569Y-143486280D01*
X134340000Y-143603711D01*
X134340001Y-148775148D01*
X134325112Y-148850000D01*
X134340001Y-148924852D01*
X134357293Y-149011783D01*
X134384097Y-149146537D01*
X134484325Y-149296538D01*
X134552072Y-149397929D01*
X134615528Y-149440329D01*
X136159673Y-150984476D01*
X136202071Y-151047929D01*
X136265524Y-151090327D01*
X136265526Y-151090329D01*
X136288284Y-151105535D01*
X136453463Y-151215904D01*
X136675148Y-151260000D01*
X136675152Y-151260000D01*
X136749999Y-151274888D01*
X136824846Y-151260000D01*
X137196289Y-151260000D01*
X137213720Y-151277431D01*
X137594126Y-151435000D01*
X138005874Y-151435000D01*
X138386280Y-151277431D01*
X138677431Y-150986280D01*
X138814022Y-150656518D01*
X143790044Y-150656518D01*
X143812279Y-150768301D01*
X143812279Y-151179735D01*
X143790044Y-151291518D01*
X143878133Y-151734373D01*
X143936118Y-151821153D01*
X144080494Y-152037228D01*
X143878133Y-152340083D01*
X143790044Y-152782938D01*
X143812279Y-152894721D01*
X143812279Y-153306155D01*
X143790044Y-153417938D01*
X143812279Y-153529720D01*
X143812279Y-153529721D01*
X143878133Y-153860793D01*
X144128991Y-154236227D01*
X144223759Y-154299549D01*
X144232046Y-154307836D01*
X144512715Y-154495374D01*
X144955569Y-154583463D01*
X145398423Y-154495374D01*
X145773857Y-154244516D01*
X145992070Y-153917938D01*
X151028061Y-153917938D01*
X151359133Y-153852084D01*
X151734567Y-153601227D01*
X151985424Y-153225793D01*
X152073513Y-152782938D01*
X151985424Y-152340083D01*
X151783063Y-152037228D01*
X151985424Y-151734373D01*
X152073513Y-151291518D01*
X151985424Y-150848663D01*
X151734567Y-150473229D01*
X151359133Y-150222372D01*
X151028061Y-150156518D01*
X145992068Y-150156518D01*
X145773856Y-149829941D01*
X145398422Y-149579084D01*
X144955567Y-149490994D01*
X144512714Y-149579084D01*
X144232045Y-149766621D01*
X144223759Y-149774907D01*
X144128991Y-149838229D01*
X143878133Y-150213663D01*
X143849718Y-150356518D01*
X143790044Y-150656518D01*
X138814022Y-150656518D01*
X138835000Y-150605874D01*
X138835000Y-150194126D01*
X138677431Y-149813720D01*
X138386280Y-149522569D01*
X138005874Y-149365000D01*
X137654349Y-149365000D01*
X137669146Y-149342855D01*
X137735000Y-149011783D01*
X137735000Y-147321955D01*
X158866263Y-147321955D01*
X158884836Y-148111418D01*
X159151218Y-148754522D01*
X159454407Y-148895988D01*
X160680395Y-147670000D01*
X159454407Y-146444012D01*
X159151218Y-146585478D01*
X158866263Y-147321955D01*
X137735000Y-147321955D01*
X137735000Y-146264407D01*
X159634012Y-146264407D01*
X160860000Y-147490395D01*
X162085988Y-146264407D01*
X161944522Y-145961218D01*
X161208045Y-145676263D01*
X160418582Y-145694836D01*
X159775478Y-145961218D01*
X159634012Y-146264407D01*
X137735000Y-146264407D01*
X137735000Y-142588217D01*
X137669146Y-142257145D01*
X137418289Y-141881711D01*
X137042855Y-141630854D01*
X136600000Y-141542765D01*
X136157146Y-141630854D01*
X135781712Y-141881711D01*
X135687067Y-142023356D01*
X135686280Y-142022569D01*
X135305874Y-141865000D01*
X134894126Y-141865000D01*
X134513720Y-142022569D01*
X134222569Y-142313720D01*
X134065000Y-142694126D01*
X128766416Y-142694126D01*
X128529635Y-142457345D01*
X128185983Y-142315000D01*
X127814017Y-142315000D01*
X127470365Y-142457345D01*
X127207345Y-142720365D01*
X127065000Y-143064017D01*
X100710000Y-143064017D01*
X100710000Y-140535750D01*
X129415000Y-140535750D01*
X129415000Y-140976309D01*
X129511673Y-141209698D01*
X129690301Y-141388327D01*
X129923690Y-141485000D01*
X130614250Y-141485000D01*
X130773000Y-141326250D01*
X130773000Y-140377000D01*
X131027000Y-140377000D01*
X131027000Y-141326250D01*
X131185750Y-141485000D01*
X131876310Y-141485000D01*
X132109699Y-141388327D01*
X132288327Y-141209698D01*
X132385000Y-140976309D01*
X132385000Y-140535750D01*
X132226250Y-140377000D01*
X131027000Y-140377000D01*
X130773000Y-140377000D01*
X129573750Y-140377000D01*
X129415000Y-140535750D01*
X100710000Y-140535750D01*
X100710000Y-139523691D01*
X129415000Y-139523691D01*
X129415000Y-139964250D01*
X129573750Y-140123000D01*
X130773000Y-140123000D01*
X130773000Y-138377000D01*
X131027000Y-138377000D01*
X131027000Y-140123000D01*
X132226250Y-140123000D01*
X132385000Y-139964250D01*
X132385000Y-139523691D01*
X132288327Y-139290302D01*
X132109699Y-139111673D01*
X132063948Y-139092722D01*
X132081933Y-139079125D01*
X132328286Y-138659376D01*
X132343462Y-138567609D01*
X132218731Y-138377000D01*
X131027000Y-138377000D01*
X130773000Y-138377000D01*
X129581269Y-138377000D01*
X129456538Y-138567609D01*
X129471714Y-138659376D01*
X129718067Y-139079125D01*
X129736052Y-139092722D01*
X129690301Y-139111673D01*
X129511673Y-139290302D01*
X129415000Y-139523691D01*
X100710000Y-139523691D01*
X100710000Y-134250000D01*
X129390805Y-134250000D01*
X129486656Y-134731873D01*
X129759615Y-135140385D01*
X129923665Y-135250000D01*
X129759615Y-135359615D01*
X129486656Y-135768127D01*
X129390805Y-136250000D01*
X129486656Y-136731873D01*
X129759615Y-137140385D01*
X129934501Y-137257240D01*
X129718067Y-137420875D01*
X129471714Y-137840624D01*
X129456538Y-137932391D01*
X129581269Y-138123000D01*
X130773000Y-138123000D01*
X130773000Y-138103000D01*
X131027000Y-138103000D01*
X131027000Y-138123000D01*
X132218731Y-138123000D01*
X132343462Y-137932391D01*
X132328286Y-137840624D01*
X132245753Y-137700000D01*
X141552560Y-137700000D01*
X141552560Y-139700000D01*
X141601843Y-139947765D01*
X141742191Y-140157809D01*
X141952235Y-140298157D01*
X142200000Y-140347440D01*
X144200000Y-140347440D01*
X144447765Y-140298157D01*
X144657809Y-140157809D01*
X144798157Y-139947765D01*
X144817099Y-139852532D01*
X147227073Y-139852532D01*
X147325736Y-140119387D01*
X147935461Y-140345908D01*
X148585460Y-140321856D01*
X149066707Y-140122517D01*
X154765000Y-140122517D01*
X154765000Y-140677483D01*
X154977376Y-141190204D01*
X155369796Y-141582624D01*
X155580740Y-141670000D01*
X155369796Y-141757376D01*
X154977376Y-142149796D01*
X154765000Y-142662517D01*
X154765000Y-143217483D01*
X154977376Y-143730204D01*
X155369796Y-144122624D01*
X155882517Y-144335000D01*
X156437483Y-144335000D01*
X156950204Y-144122624D01*
X157160000Y-143912828D01*
X157369796Y-144122624D01*
X157882517Y-144335000D01*
X158437483Y-144335000D01*
X158950204Y-144122624D01*
X159342624Y-143730204D01*
X159555000Y-143217483D01*
X159555000Y-142662517D01*
X159342624Y-142149796D01*
X158950204Y-141757376D01*
X158755141Y-141676578D01*
X158889941Y-141620742D01*
X158959159Y-141378764D01*
X158160000Y-140579605D01*
X157360841Y-141378764D01*
X157430059Y-141620742D01*
X157574931Y-141672406D01*
X157369796Y-141757376D01*
X157160000Y-141967172D01*
X156950204Y-141757376D01*
X156739260Y-141670000D01*
X156950204Y-141582624D01*
X157342624Y-141190204D01*
X157450410Y-140929985D01*
X157980395Y-140400000D01*
X158339605Y-140400000D01*
X159138764Y-141199159D01*
X159380742Y-141129941D01*
X159567155Y-140607220D01*
X159539341Y-140052951D01*
X159380742Y-139670059D01*
X159138764Y-139600841D01*
X158339605Y-140400000D01*
X157980395Y-140400000D01*
X157450410Y-139870015D01*
X157342624Y-139609796D01*
X157154064Y-139421236D01*
X157360841Y-139421236D01*
X158160000Y-140220395D01*
X158959159Y-139421236D01*
X158889941Y-139179258D01*
X158367220Y-138992845D01*
X157812951Y-139020659D01*
X157430059Y-139179258D01*
X157360841Y-139421236D01*
X157154064Y-139421236D01*
X156950204Y-139217376D01*
X156437483Y-139005000D01*
X155882517Y-139005000D01*
X155369796Y-139217376D01*
X154977376Y-139609796D01*
X154765000Y-140122517D01*
X149066707Y-140122517D01*
X149074264Y-140119387D01*
X149172927Y-139852532D01*
X148200000Y-138879605D01*
X147227073Y-139852532D01*
X144817099Y-139852532D01*
X144847440Y-139700000D01*
X144847440Y-138435461D01*
X146554092Y-138435461D01*
X146578144Y-139085460D01*
X146780613Y-139574264D01*
X147047468Y-139672927D01*
X148020395Y-138700000D01*
X148379605Y-138700000D01*
X149352532Y-139672927D01*
X149619387Y-139574264D01*
X149845908Y-138964539D01*
X149821856Y-138314540D01*
X149619387Y-137825736D01*
X149352532Y-137727073D01*
X148379605Y-138700000D01*
X148020395Y-138700000D01*
X147047468Y-137727073D01*
X146780613Y-137825736D01*
X146554092Y-138435461D01*
X144847440Y-138435461D01*
X144847440Y-137700000D01*
X144817100Y-137547468D01*
X147227073Y-137547468D01*
X148200000Y-138520395D01*
X149172927Y-137547468D01*
X149074264Y-137280613D01*
X148522414Y-137075593D01*
X159634012Y-137075593D01*
X159775478Y-137378782D01*
X160511955Y-137663737D01*
X161301418Y-137645164D01*
X161944522Y-137378782D01*
X162085988Y-137075593D01*
X160860000Y-135849605D01*
X159634012Y-137075593D01*
X148522414Y-137075593D01*
X148464539Y-137054092D01*
X147814540Y-137078144D01*
X147325736Y-137280613D01*
X147227073Y-137547468D01*
X144817100Y-137547468D01*
X144798157Y-137452235D01*
X144657809Y-137242191D01*
X144447765Y-137101843D01*
X144200000Y-137052560D01*
X142200000Y-137052560D01*
X141952235Y-137101843D01*
X141742191Y-137242191D01*
X141601843Y-137452235D01*
X141552560Y-137700000D01*
X132245753Y-137700000D01*
X132081933Y-137420875D01*
X131865499Y-137257240D01*
X132040385Y-137140385D01*
X132313344Y-136731873D01*
X132409195Y-136250000D01*
X132313344Y-135768127D01*
X132040385Y-135359615D01*
X131984023Y-135321955D01*
X158866263Y-135321955D01*
X158884836Y-136111418D01*
X159151218Y-136754522D01*
X159454407Y-136895988D01*
X160680395Y-135670000D01*
X161039605Y-135670000D01*
X162265593Y-136895988D01*
X162568782Y-136754522D01*
X162853737Y-136018045D01*
X162835164Y-135228582D01*
X162568782Y-134585478D01*
X162265593Y-134444012D01*
X161039605Y-135670000D01*
X160680395Y-135670000D01*
X159454407Y-134444012D01*
X159151218Y-134585478D01*
X158866263Y-135321955D01*
X131984023Y-135321955D01*
X131876335Y-135250000D01*
X132040385Y-135140385D01*
X132313344Y-134731873D01*
X132406329Y-134264407D01*
X159634012Y-134264407D01*
X160860000Y-135490395D01*
X162085988Y-134264407D01*
X161944522Y-133961218D01*
X161208045Y-133676263D01*
X160418582Y-133694836D01*
X159775478Y-133961218D01*
X159634012Y-134264407D01*
X132406329Y-134264407D01*
X132409195Y-134250000D01*
X132313344Y-133768127D01*
X132040385Y-133359615D01*
X131631873Y-133086656D01*
X131271636Y-133015000D01*
X130528364Y-133015000D01*
X130168127Y-133086656D01*
X129759615Y-133359615D01*
X129486656Y-133768127D01*
X129390805Y-134250000D01*
X100710000Y-134250000D01*
X100710000Y-102041247D01*
X100776100Y-101474292D01*
X100956685Y-100976788D01*
X101246881Y-100534165D01*
X101631116Y-100170177D01*
X102088784Y-99904342D01*
X102604629Y-99748108D01*
X103031618Y-99710000D01*
X120426289Y-99710000D01*
X120422569Y-99713720D01*
G04 #@! TD*
M02*
