G04 #@! TF.GenerationSoftware,KiCad,Pcbnew,5.0.2-bee76a0~70~ubuntu18.04.1*
G04 #@! TF.CreationDate,2019-04-01T17:44:37+13:00*
G04 #@! TF.ProjectId,pi-hat,70692d68-6174-42e6-9b69-6361645f7063,rev?*
G04 #@! TF.SameCoordinates,Original*
G04 #@! TF.FileFunction,Soldermask,Bot*
G04 #@! TF.FilePolarity,Negative*
%FSLAX46Y46*%
G04 Gerber Fmt 4.6, Leading zero omitted, Abs format (unit mm)*
G04 Created by KiCad (PCBNEW 5.0.2-bee76a0~70~ubuntu18.04.1) date Mon 01 Apr 2019 17:44:37 NZDT*
%MOMM*%
%LPD*%
G01*
G04 APERTURE LIST*
%ADD10C,0.100000*%
G04 APERTURE END LIST*
D10*
G36*
X151216393Y-169803553D02*
X151325872Y-169825330D01*
X151635252Y-169953479D01*
X151913687Y-170139523D01*
X152150477Y-170376313D01*
X152336521Y-170654748D01*
X152464670Y-170964128D01*
X152530000Y-171292565D01*
X152530000Y-171627435D01*
X152464670Y-171955872D01*
X152336521Y-172265252D01*
X152150477Y-172543687D01*
X151913687Y-172780477D01*
X151635252Y-172966521D01*
X151325872Y-173094670D01*
X151216393Y-173116447D01*
X150997437Y-173160000D01*
X150662563Y-173160000D01*
X150443607Y-173116447D01*
X150334128Y-173094670D01*
X150024748Y-172966521D01*
X149746313Y-172780477D01*
X149509523Y-172543687D01*
X149323479Y-172265252D01*
X149195330Y-171955872D01*
X149130000Y-171627435D01*
X149130000Y-171292565D01*
X149195330Y-170964128D01*
X149323479Y-170654748D01*
X149509523Y-170376313D01*
X149746313Y-170139523D01*
X150024748Y-169953479D01*
X150334128Y-169825330D01*
X150443607Y-169803553D01*
X150662563Y-169760000D01*
X150997437Y-169760000D01*
X151216393Y-169803553D01*
X151216393Y-169803553D01*
G37*
G36*
X149110000Y-168850000D02*
X147210000Y-168850000D01*
X147210000Y-166950000D01*
X149110000Y-166950000D01*
X149110000Y-168850000D01*
X149110000Y-168850000D01*
G37*
G36*
X108747934Y-166252664D02*
X108902627Y-166316740D01*
X109041847Y-166409764D01*
X109160236Y-166528153D01*
X109253260Y-166667373D01*
X109317336Y-166822066D01*
X109350000Y-166986281D01*
X109350000Y-167153719D01*
X109317336Y-167317934D01*
X109253260Y-167472627D01*
X109160236Y-167611847D01*
X109041847Y-167730236D01*
X108902627Y-167823260D01*
X108747934Y-167887336D01*
X108583719Y-167920000D01*
X108416281Y-167920000D01*
X108252066Y-167887336D01*
X108097373Y-167823260D01*
X107958153Y-167730236D01*
X107839764Y-167611847D01*
X107746740Y-167472627D01*
X107682664Y-167317934D01*
X107650000Y-167153719D01*
X107650000Y-166986281D01*
X107682664Y-166822066D01*
X107746740Y-166667373D01*
X107839764Y-166528153D01*
X107958153Y-166409764D01*
X108097373Y-166316740D01*
X108252066Y-166252664D01*
X108416281Y-166220000D01*
X108583719Y-166220000D01*
X108747934Y-166252664D01*
X108747934Y-166252664D01*
G37*
G36*
X148299451Y-162389127D02*
X148437105Y-162416508D01*
X148609994Y-162488121D01*
X148765590Y-162592087D01*
X148897913Y-162724410D01*
X149001879Y-162880006D01*
X149073492Y-163052895D01*
X149110000Y-163236433D01*
X149110000Y-163423567D01*
X149073492Y-163607105D01*
X149001879Y-163779994D01*
X148897913Y-163935590D01*
X148765590Y-164067913D01*
X148609994Y-164171879D01*
X148470842Y-164229518D01*
X148449236Y-164241067D01*
X148430294Y-164256612D01*
X148414749Y-164275554D01*
X148403198Y-164297165D01*
X148396085Y-164320614D01*
X148393683Y-164345000D01*
X148396085Y-164369387D01*
X148403198Y-164392836D01*
X148414750Y-164414447D01*
X148430295Y-164433389D01*
X148449237Y-164448934D01*
X148470842Y-164460482D01*
X148609994Y-164518121D01*
X148765590Y-164622087D01*
X148897913Y-164754410D01*
X149001879Y-164910006D01*
X149073492Y-165082895D01*
X149110000Y-165266433D01*
X149110000Y-165453567D01*
X149073492Y-165637105D01*
X149001879Y-165809994D01*
X148897913Y-165965590D01*
X148765590Y-166097913D01*
X148609994Y-166201879D01*
X148437105Y-166273492D01*
X148299451Y-166300873D01*
X148253568Y-166310000D01*
X148066432Y-166310000D01*
X148020549Y-166300873D01*
X147882895Y-166273492D01*
X147710006Y-166201879D01*
X147554410Y-166097913D01*
X147422087Y-165965590D01*
X147318121Y-165809994D01*
X147246508Y-165637105D01*
X147210000Y-165453567D01*
X147210000Y-165266433D01*
X147246508Y-165082895D01*
X147318121Y-164910006D01*
X147422087Y-164754410D01*
X147554410Y-164622087D01*
X147710006Y-164518121D01*
X147849158Y-164460482D01*
X147870764Y-164448933D01*
X147889706Y-164433388D01*
X147905251Y-164414446D01*
X147916802Y-164392835D01*
X147923915Y-164369386D01*
X147926317Y-164345000D01*
X147923915Y-164320613D01*
X147916802Y-164297164D01*
X147905250Y-164275553D01*
X147889705Y-164256611D01*
X147870763Y-164241066D01*
X147849158Y-164229518D01*
X147710006Y-164171879D01*
X147554410Y-164067913D01*
X147422087Y-163935590D01*
X147318121Y-163779994D01*
X147246508Y-163607105D01*
X147210000Y-163423567D01*
X147210000Y-163236433D01*
X147246508Y-163052895D01*
X147318121Y-162880006D01*
X147422087Y-162724410D01*
X147554410Y-162592087D01*
X147710006Y-162488121D01*
X147882895Y-162416508D01*
X148020549Y-162389127D01*
X148066432Y-162380000D01*
X148253568Y-162380000D01*
X148299451Y-162389127D01*
X148299451Y-162389127D01*
G37*
G36*
X148299452Y-159849127D02*
X148437105Y-159876508D01*
X148609994Y-159948121D01*
X148765590Y-160052087D01*
X148897913Y-160184410D01*
X149001879Y-160340006D01*
X149073492Y-160512895D01*
X149110000Y-160696433D01*
X149110000Y-160883567D01*
X149073492Y-161067105D01*
X149001879Y-161239994D01*
X148897913Y-161395590D01*
X148765590Y-161527913D01*
X148609994Y-161631879D01*
X148437105Y-161703492D01*
X148299452Y-161730873D01*
X148253568Y-161740000D01*
X148066432Y-161740000D01*
X148020548Y-161730873D01*
X147882895Y-161703492D01*
X147710006Y-161631879D01*
X147554410Y-161527913D01*
X147422087Y-161395590D01*
X147318121Y-161239994D01*
X147246508Y-161067105D01*
X147210000Y-160883567D01*
X147210000Y-160696433D01*
X147246508Y-160512895D01*
X147318121Y-160340006D01*
X147422087Y-160184410D01*
X147554410Y-160052087D01*
X147710006Y-159948121D01*
X147882895Y-159876508D01*
X148020548Y-159849127D01*
X148066432Y-159840000D01*
X148253568Y-159840000D01*
X148299452Y-159849127D01*
X148299452Y-159849127D01*
G37*
G36*
X108704183Y-158896900D02*
X108831574Y-158949668D01*
X108946225Y-159026275D01*
X109043725Y-159123775D01*
X109120332Y-159238426D01*
X109173100Y-159365817D01*
X109200000Y-159501055D01*
X109200000Y-159638945D01*
X109173100Y-159774183D01*
X109145837Y-159840000D01*
X109120332Y-159901574D01*
X109089231Y-159948121D01*
X109043725Y-160016225D01*
X108946225Y-160113725D01*
X108831574Y-160190332D01*
X108704183Y-160243100D01*
X108568945Y-160270000D01*
X108431055Y-160270000D01*
X108295817Y-160243100D01*
X108168426Y-160190332D01*
X108053775Y-160113725D01*
X107956275Y-160016225D01*
X107910770Y-159948121D01*
X107879668Y-159901574D01*
X107854163Y-159840000D01*
X107826900Y-159774183D01*
X107800000Y-159638945D01*
X107800000Y-159501055D01*
X107826900Y-159365817D01*
X107879668Y-159238426D01*
X107956275Y-159123775D01*
X108053775Y-159026275D01*
X108168426Y-158949668D01*
X108295817Y-158896900D01*
X108431055Y-158870000D01*
X108568945Y-158870000D01*
X108704183Y-158896900D01*
X108704183Y-158896900D01*
G37*
G36*
X151216393Y-156083553D02*
X151325872Y-156105330D01*
X151635252Y-156233479D01*
X151913687Y-156419523D01*
X152150477Y-156656313D01*
X152336521Y-156934748D01*
X152464670Y-157244128D01*
X152530000Y-157572565D01*
X152530000Y-157907435D01*
X152464670Y-158235872D01*
X152336521Y-158545252D01*
X152150477Y-158823687D01*
X151913687Y-159060477D01*
X151635252Y-159246521D01*
X151325872Y-159374670D01*
X151216393Y-159396447D01*
X150997437Y-159440000D01*
X150662563Y-159440000D01*
X150443607Y-159396447D01*
X150334128Y-159374670D01*
X150024748Y-159246521D01*
X149746313Y-159060477D01*
X149509523Y-158823687D01*
X149323479Y-158545252D01*
X149195330Y-158235872D01*
X149130000Y-157907435D01*
X149130000Y-157572565D01*
X149195330Y-157244128D01*
X149323479Y-156934748D01*
X149509523Y-156656313D01*
X149746313Y-156419523D01*
X150024748Y-156233479D01*
X150334128Y-156105330D01*
X150443607Y-156083553D01*
X150662563Y-156040000D01*
X150997437Y-156040000D01*
X151216393Y-156083553D01*
X151216393Y-156083553D01*
G37*
G36*
X131975000Y-156075000D02*
X129825000Y-156075000D01*
X129825000Y-153925000D01*
X131975000Y-153925000D01*
X131975000Y-156075000D01*
X131975000Y-156075000D01*
G37*
G36*
X162593405Y-149572974D02*
X163175767Y-149814196D01*
X163699884Y-150164400D01*
X164145600Y-150610116D01*
X164495804Y-151134233D01*
X164737026Y-151716595D01*
X164860000Y-152334826D01*
X164860000Y-152965174D01*
X164737026Y-153583405D01*
X164495804Y-154165767D01*
X164145600Y-154689884D01*
X163699884Y-155135600D01*
X163175767Y-155485804D01*
X162593405Y-155727026D01*
X161975174Y-155850000D01*
X161344826Y-155850000D01*
X160726595Y-155727026D01*
X160144233Y-155485804D01*
X159620116Y-155135600D01*
X159174400Y-154689884D01*
X158824196Y-154165767D01*
X158582974Y-153583405D01*
X158460000Y-152965174D01*
X158460000Y-152334826D01*
X158582974Y-151716595D01*
X158824196Y-151134233D01*
X159174400Y-150610116D01*
X159620116Y-150164400D01*
X160144233Y-149814196D01*
X160726595Y-149572974D01*
X161344826Y-149450000D01*
X161975174Y-149450000D01*
X162593405Y-149572974D01*
X162593405Y-149572974D01*
G37*
G36*
X104593405Y-149572974D02*
X105175767Y-149814196D01*
X105699884Y-150164400D01*
X106145600Y-150610116D01*
X106495804Y-151134233D01*
X106737026Y-151716595D01*
X106860000Y-152334826D01*
X106860000Y-152965174D01*
X106737026Y-153583405D01*
X106495804Y-154165767D01*
X106145600Y-154689884D01*
X105699884Y-155135600D01*
X105175767Y-155485804D01*
X104593405Y-155727026D01*
X103975174Y-155850000D01*
X103344826Y-155850000D01*
X102726595Y-155727026D01*
X102144233Y-155485804D01*
X101620116Y-155135600D01*
X101174400Y-154689884D01*
X100824196Y-154165767D01*
X100582974Y-153583405D01*
X100460000Y-152965174D01*
X100460000Y-152334826D01*
X100582974Y-151716595D01*
X100824196Y-151134233D01*
X101174400Y-150610116D01*
X101620116Y-150164400D01*
X102144233Y-149814196D01*
X102726595Y-149572974D01*
X103344826Y-149450000D01*
X103975174Y-149450000D01*
X104593405Y-149572974D01*
X104593405Y-149572974D01*
G37*
G36*
X131213566Y-151466312D02*
X131409203Y-151547347D01*
X131585275Y-151664995D01*
X131735005Y-151814725D01*
X131852653Y-151990797D01*
X131933688Y-152186434D01*
X131975000Y-152394122D01*
X131975000Y-152605878D01*
X131933688Y-152813566D01*
X131852653Y-153009203D01*
X131735005Y-153185275D01*
X131585275Y-153335005D01*
X131409203Y-153452653D01*
X131213566Y-153533688D01*
X131005878Y-153575000D01*
X130794122Y-153575000D01*
X130586434Y-153533688D01*
X130390797Y-153452653D01*
X130214725Y-153335005D01*
X130064995Y-153185275D01*
X129947347Y-153009203D01*
X129866312Y-152813566D01*
X129825000Y-152605878D01*
X129825000Y-152394122D01*
X129866312Y-152186434D01*
X129947347Y-151990797D01*
X130064995Y-151814725D01*
X130214725Y-151664995D01*
X130390797Y-151547347D01*
X130586434Y-151466312D01*
X130794122Y-151425000D01*
X131005878Y-151425000D01*
X131213566Y-151466312D01*
X131213566Y-151466312D01*
G37*
G36*
X131213566Y-148966312D02*
X131409203Y-149047347D01*
X131585275Y-149164995D01*
X131735005Y-149314725D01*
X131852653Y-149490797D01*
X131933688Y-149686434D01*
X131975000Y-149894122D01*
X131975000Y-150105878D01*
X131933688Y-150313566D01*
X131852653Y-150509203D01*
X131735005Y-150685275D01*
X131585275Y-150835005D01*
X131409203Y-150952653D01*
X131213566Y-151033688D01*
X131005878Y-151075000D01*
X130794122Y-151075000D01*
X130586434Y-151033688D01*
X130390797Y-150952653D01*
X130214725Y-150835005D01*
X130064995Y-150685275D01*
X129947347Y-150509203D01*
X129866312Y-150313566D01*
X129825000Y-150105878D01*
X129825000Y-149894122D01*
X129866312Y-149686434D01*
X129947347Y-149490797D01*
X130064995Y-149314725D01*
X130214725Y-149164995D01*
X130390797Y-149047347D01*
X130586434Y-148966312D01*
X130794122Y-148925000D01*
X131005878Y-148925000D01*
X131213566Y-148966312D01*
X131213566Y-148966312D01*
G37*
G36*
X161112481Y-146139855D02*
X161312118Y-146179565D01*
X161500173Y-146257460D01*
X161594201Y-146296408D01*
X161848071Y-146466038D01*
X162063962Y-146681929D01*
X162233592Y-146935799D01*
X162233592Y-146935800D01*
X162350435Y-147217882D01*
X162410000Y-147517338D01*
X162410000Y-147822662D01*
X162350435Y-148122118D01*
X162324274Y-148185275D01*
X162233592Y-148404201D01*
X162063962Y-148658071D01*
X161848071Y-148873962D01*
X161594201Y-149043592D01*
X161500173Y-149082540D01*
X161312118Y-149160435D01*
X161112481Y-149200145D01*
X161012663Y-149220000D01*
X160707337Y-149220000D01*
X160607519Y-149200145D01*
X160407882Y-149160435D01*
X160219827Y-149082540D01*
X160125799Y-149043592D01*
X159871929Y-148873962D01*
X159656038Y-148658071D01*
X159486408Y-148404201D01*
X159395726Y-148185275D01*
X159369565Y-148122118D01*
X159310000Y-147822662D01*
X159310000Y-147517338D01*
X159369565Y-147217882D01*
X159486408Y-146935800D01*
X159486408Y-146935799D01*
X159656038Y-146681929D01*
X159871929Y-146466038D01*
X160125799Y-146296408D01*
X160219827Y-146257460D01*
X160407882Y-146179565D01*
X160607519Y-146139855D01*
X160707337Y-146120000D01*
X161012663Y-146120000D01*
X161112481Y-146139855D01*
X161112481Y-146139855D01*
G37*
G36*
X131213566Y-146466312D02*
X131409203Y-146547347D01*
X131585275Y-146664995D01*
X131735005Y-146814725D01*
X131852653Y-146990797D01*
X131933688Y-147186434D01*
X131975000Y-147394122D01*
X131975000Y-147605878D01*
X131933688Y-147813566D01*
X131852653Y-148009203D01*
X131735005Y-148185275D01*
X131585275Y-148335005D01*
X131409203Y-148452653D01*
X131213566Y-148533688D01*
X131005878Y-148575000D01*
X130794122Y-148575000D01*
X130586434Y-148533688D01*
X130390797Y-148452653D01*
X130214725Y-148335005D01*
X130064995Y-148185275D01*
X129947347Y-148009203D01*
X129866312Y-147813566D01*
X129825000Y-147605878D01*
X129825000Y-147394122D01*
X129866312Y-147186434D01*
X129947347Y-146990797D01*
X130064995Y-146814725D01*
X130214725Y-146664995D01*
X130390797Y-146547347D01*
X130586434Y-146466312D01*
X130794122Y-146425000D01*
X131005878Y-146425000D01*
X131213566Y-146466312D01*
X131213566Y-146466312D01*
G37*
G36*
X156347287Y-141998446D02*
X156440022Y-142016892D01*
X156614731Y-142089259D01*
X156769872Y-142192921D01*
X156771967Y-142194321D01*
X156905679Y-142328033D01*
X157010742Y-142485271D01*
X157044515Y-142566806D01*
X157056066Y-142588417D01*
X157071612Y-142607359D01*
X157090554Y-142622905D01*
X157112165Y-142634456D01*
X157135614Y-142641569D01*
X157160000Y-142643971D01*
X157184386Y-142641569D01*
X157207835Y-142634456D01*
X157229446Y-142622905D01*
X157248388Y-142607359D01*
X157263934Y-142588417D01*
X157275485Y-142566806D01*
X157309258Y-142485271D01*
X157414321Y-142328033D01*
X157548033Y-142194321D01*
X157550128Y-142192921D01*
X157705269Y-142089259D01*
X157879978Y-142016892D01*
X157972713Y-141998446D01*
X158065447Y-141980000D01*
X158254553Y-141980000D01*
X158347287Y-141998446D01*
X158440022Y-142016892D01*
X158614731Y-142089259D01*
X158769872Y-142192921D01*
X158771967Y-142194321D01*
X158905679Y-142328033D01*
X158905681Y-142328036D01*
X159010741Y-142485269D01*
X159083108Y-142659978D01*
X159120000Y-142845448D01*
X159120000Y-143034552D01*
X159083108Y-143220022D01*
X159072536Y-143245544D01*
X159010742Y-143394729D01*
X158905679Y-143551967D01*
X158771967Y-143685679D01*
X158771964Y-143685681D01*
X158614731Y-143790741D01*
X158440022Y-143863108D01*
X158347287Y-143881554D01*
X158254553Y-143900000D01*
X158065447Y-143900000D01*
X157972713Y-143881554D01*
X157879978Y-143863108D01*
X157705269Y-143790741D01*
X157548036Y-143685681D01*
X157548033Y-143685679D01*
X157414321Y-143551967D01*
X157309258Y-143394729D01*
X157275485Y-143313194D01*
X157263934Y-143291583D01*
X157248388Y-143272641D01*
X157229446Y-143257095D01*
X157207835Y-143245544D01*
X157184386Y-143238431D01*
X157160000Y-143236029D01*
X157135614Y-143238431D01*
X157112165Y-143245544D01*
X157090554Y-143257095D01*
X157071612Y-143272641D01*
X157056066Y-143291583D01*
X157044515Y-143313194D01*
X157010742Y-143394729D01*
X156905679Y-143551967D01*
X156771967Y-143685679D01*
X156771964Y-143685681D01*
X156614731Y-143790741D01*
X156440022Y-143863108D01*
X156347287Y-143881554D01*
X156254553Y-143900000D01*
X156065447Y-143900000D01*
X155972713Y-143881554D01*
X155879978Y-143863108D01*
X155705269Y-143790741D01*
X155548036Y-143685681D01*
X155548033Y-143685679D01*
X155414321Y-143551967D01*
X155309258Y-143394729D01*
X155247464Y-143245544D01*
X155236892Y-143220022D01*
X155200000Y-143034552D01*
X155200000Y-142845448D01*
X155236892Y-142659978D01*
X155309259Y-142485269D01*
X155414319Y-142328036D01*
X155414321Y-142328033D01*
X155548033Y-142194321D01*
X155550128Y-142192921D01*
X155705269Y-142089259D01*
X155879978Y-142016892D01*
X155972713Y-141998446D01*
X156065447Y-141980000D01*
X156254553Y-141980000D01*
X156347287Y-141998446D01*
X156347287Y-141998446D01*
G37*
G36*
X156304826Y-139450000D02*
X156440022Y-139476892D01*
X156614731Y-139549259D01*
X156738712Y-139632101D01*
X156771967Y-139654321D01*
X156905679Y-139788033D01*
X157010742Y-139945271D01*
X157044515Y-140026806D01*
X157056066Y-140048417D01*
X157071612Y-140067359D01*
X157090554Y-140082905D01*
X157112165Y-140094456D01*
X157135614Y-140101569D01*
X157160000Y-140103971D01*
X157184386Y-140101569D01*
X157207835Y-140094456D01*
X157229446Y-140082905D01*
X157248388Y-140067359D01*
X157263934Y-140048417D01*
X157275485Y-140026806D01*
X157309258Y-139945271D01*
X157414321Y-139788033D01*
X157548033Y-139654321D01*
X157581288Y-139632101D01*
X157705269Y-139549259D01*
X157879978Y-139476892D01*
X158015174Y-139450000D01*
X158065447Y-139440000D01*
X158254553Y-139440000D01*
X158304826Y-139450000D01*
X158440022Y-139476892D01*
X158614731Y-139549259D01*
X158738712Y-139632101D01*
X158771967Y-139654321D01*
X158905679Y-139788033D01*
X158905681Y-139788036D01*
X159010741Y-139945269D01*
X159083108Y-140119978D01*
X159120000Y-140305448D01*
X159120000Y-140494552D01*
X159083108Y-140680022D01*
X159072536Y-140705544D01*
X159010742Y-140854729D01*
X158905679Y-141011967D01*
X158771967Y-141145679D01*
X158771964Y-141145681D01*
X158614731Y-141250741D01*
X158440022Y-141323108D01*
X158347287Y-141341554D01*
X158254553Y-141360000D01*
X158065447Y-141360000D01*
X157972713Y-141341554D01*
X157879978Y-141323108D01*
X157705269Y-141250741D01*
X157548036Y-141145681D01*
X157548033Y-141145679D01*
X157414321Y-141011967D01*
X157309258Y-140854729D01*
X157275485Y-140773194D01*
X157263934Y-140751583D01*
X157248388Y-140732641D01*
X157229446Y-140717095D01*
X157207835Y-140705544D01*
X157184386Y-140698431D01*
X157160000Y-140696029D01*
X157135614Y-140698431D01*
X157112165Y-140705544D01*
X157090554Y-140717095D01*
X157071612Y-140732641D01*
X157056066Y-140751583D01*
X157044515Y-140773194D01*
X157010742Y-140854729D01*
X156905679Y-141011967D01*
X156771967Y-141145679D01*
X156771964Y-141145681D01*
X156614731Y-141250741D01*
X156440022Y-141323108D01*
X156347287Y-141341554D01*
X156254553Y-141360000D01*
X156065447Y-141360000D01*
X155972713Y-141341554D01*
X155879978Y-141323108D01*
X155705269Y-141250741D01*
X155548036Y-141145681D01*
X155548033Y-141145679D01*
X155414321Y-141011967D01*
X155309258Y-140854729D01*
X155247464Y-140705544D01*
X155236892Y-140680022D01*
X155200000Y-140494552D01*
X155200000Y-140305448D01*
X155236892Y-140119978D01*
X155309259Y-139945269D01*
X155414319Y-139788036D01*
X155414321Y-139788033D01*
X155548033Y-139654321D01*
X155581288Y-139632101D01*
X155705269Y-139549259D01*
X155879978Y-139476892D01*
X156015174Y-139450000D01*
X156065447Y-139440000D01*
X156254553Y-139440000D01*
X156304826Y-139450000D01*
X156304826Y-139450000D01*
G37*
G36*
X131950000Y-141050000D02*
X129850000Y-141050000D01*
X129850000Y-139450000D01*
X131950000Y-139450000D01*
X131950000Y-141050000D01*
X131950000Y-141050000D01*
G37*
G36*
X144400000Y-139900000D02*
X142000000Y-139900000D01*
X142000000Y-137500000D01*
X144400000Y-137500000D01*
X144400000Y-139900000D01*
X144400000Y-139900000D01*
G37*
G36*
X148550026Y-137546115D02*
X148768412Y-137636573D01*
X148964958Y-137767901D01*
X149132099Y-137935042D01*
X149263427Y-138131588D01*
X149353885Y-138349974D01*
X149400000Y-138581809D01*
X149400000Y-138818191D01*
X149353885Y-139050026D01*
X149263427Y-139268412D01*
X149132099Y-139464958D01*
X148964958Y-139632099D01*
X148768412Y-139763427D01*
X148550026Y-139853885D01*
X148318191Y-139900000D01*
X148081809Y-139900000D01*
X147849974Y-139853885D01*
X147631588Y-139763427D01*
X147435042Y-139632099D01*
X147267901Y-139464958D01*
X147136573Y-139268412D01*
X147046115Y-139050026D01*
X147000000Y-138818191D01*
X147000000Y-138581809D01*
X147046115Y-138349974D01*
X147136573Y-138131588D01*
X147267901Y-137935042D01*
X147435042Y-137767901D01*
X147631588Y-137636573D01*
X147849974Y-137546115D01*
X148081809Y-137500000D01*
X148318191Y-137500000D01*
X148550026Y-137546115D01*
X148550026Y-137546115D01*
G37*
G36*
X131267649Y-137457717D02*
X131306827Y-137461576D01*
X131382228Y-137484449D01*
X131457629Y-137507321D01*
X131596608Y-137581608D01*
X131718422Y-137681578D01*
X131818392Y-137803392D01*
X131892679Y-137942371D01*
X131892679Y-137942372D01*
X131938424Y-138093173D01*
X131953870Y-138250000D01*
X131938424Y-138406826D01*
X131892679Y-138557629D01*
X131818392Y-138696608D01*
X131718422Y-138818422D01*
X131596608Y-138918392D01*
X131457629Y-138992679D01*
X131382227Y-139015552D01*
X131306827Y-139038424D01*
X131267649Y-139042283D01*
X131189295Y-139050000D01*
X130610705Y-139050000D01*
X130532351Y-139042283D01*
X130493173Y-139038424D01*
X130417772Y-139015551D01*
X130342371Y-138992679D01*
X130203392Y-138918392D01*
X130081578Y-138818422D01*
X129981608Y-138696608D01*
X129907321Y-138557629D01*
X129861576Y-138406826D01*
X129846130Y-138250000D01*
X129861576Y-138093173D01*
X129907321Y-137942372D01*
X129907321Y-137942371D01*
X129981608Y-137803392D01*
X130081578Y-137681578D01*
X130203392Y-137581608D01*
X130342371Y-137507321D01*
X130417772Y-137484449D01*
X130493173Y-137461576D01*
X130532351Y-137457717D01*
X130610705Y-137450000D01*
X131189295Y-137450000D01*
X131267649Y-137457717D01*
X131267649Y-137457717D01*
G37*
G36*
X161112481Y-134139855D02*
X161312118Y-134179565D01*
X161482162Y-134250000D01*
X161594201Y-134296408D01*
X161848071Y-134466038D01*
X162063962Y-134681929D01*
X162233592Y-134935799D01*
X162233592Y-134935800D01*
X162350435Y-135217882D01*
X162410000Y-135517338D01*
X162410000Y-135822662D01*
X162350435Y-136122118D01*
X162297464Y-136250000D01*
X162233592Y-136404201D01*
X162063962Y-136658071D01*
X161848071Y-136873962D01*
X161594201Y-137043592D01*
X161500173Y-137082540D01*
X161312118Y-137160435D01*
X161112481Y-137200145D01*
X161012663Y-137220000D01*
X160707337Y-137220000D01*
X160607519Y-137200145D01*
X160407882Y-137160435D01*
X160219827Y-137082540D01*
X160125799Y-137043592D01*
X159871929Y-136873962D01*
X159656038Y-136658071D01*
X159486408Y-136404201D01*
X159422536Y-136250000D01*
X159369565Y-136122118D01*
X159310000Y-135822662D01*
X159310000Y-135517338D01*
X159369565Y-135217882D01*
X159486408Y-134935800D01*
X159486408Y-134935799D01*
X159656038Y-134681929D01*
X159871929Y-134466038D01*
X160125799Y-134296408D01*
X160237838Y-134250000D01*
X160407882Y-134179565D01*
X160607519Y-134139855D01*
X160707337Y-134120000D01*
X161012663Y-134120000D01*
X161112481Y-134139855D01*
X161112481Y-134139855D01*
G37*
G36*
X131267649Y-135457717D02*
X131306827Y-135461576D01*
X131382227Y-135484448D01*
X131457629Y-135507321D01*
X131596608Y-135581608D01*
X131718422Y-135681578D01*
X131818392Y-135803392D01*
X131892679Y-135942371D01*
X131938424Y-136093174D01*
X131953870Y-136250000D01*
X131938424Y-136406826D01*
X131892679Y-136557629D01*
X131818392Y-136696608D01*
X131718422Y-136818422D01*
X131596608Y-136918392D01*
X131457629Y-136992679D01*
X131382228Y-137015551D01*
X131306827Y-137038424D01*
X131267649Y-137042283D01*
X131189295Y-137050000D01*
X130610705Y-137050000D01*
X130532351Y-137042283D01*
X130493173Y-137038424D01*
X130417772Y-137015551D01*
X130342371Y-136992679D01*
X130203392Y-136918392D01*
X130081578Y-136818422D01*
X129981608Y-136696608D01*
X129907321Y-136557629D01*
X129861576Y-136406826D01*
X129846130Y-136250000D01*
X129861576Y-136093174D01*
X129907321Y-135942371D01*
X129981608Y-135803392D01*
X130081578Y-135681578D01*
X130203392Y-135581608D01*
X130342371Y-135507321D01*
X130417773Y-135484448D01*
X130493173Y-135461576D01*
X130532351Y-135457717D01*
X130610705Y-135450000D01*
X131189295Y-135450000D01*
X131267649Y-135457717D01*
X131267649Y-135457717D01*
G37*
G36*
X131267649Y-133457717D02*
X131306827Y-133461576D01*
X131382228Y-133484449D01*
X131457629Y-133507321D01*
X131596608Y-133581608D01*
X131718422Y-133681578D01*
X131818392Y-133803392D01*
X131892679Y-133942371D01*
X131892679Y-133942372D01*
X131938424Y-134093173D01*
X131953870Y-134250000D01*
X131938424Y-134406827D01*
X131915552Y-134482227D01*
X131892679Y-134557629D01*
X131818392Y-134696608D01*
X131718422Y-134818422D01*
X131596608Y-134918392D01*
X131457629Y-134992679D01*
X131382227Y-135015552D01*
X131306827Y-135038424D01*
X131267649Y-135042283D01*
X131189295Y-135050000D01*
X130610705Y-135050000D01*
X130532351Y-135042283D01*
X130493173Y-135038424D01*
X130417773Y-135015552D01*
X130342371Y-134992679D01*
X130203392Y-134918392D01*
X130081578Y-134818422D01*
X129981608Y-134696608D01*
X129907321Y-134557629D01*
X129884448Y-134482227D01*
X129861576Y-134406827D01*
X129846130Y-134250000D01*
X129861576Y-134093173D01*
X129907321Y-133942372D01*
X129907321Y-133942371D01*
X129981608Y-133803392D01*
X130081578Y-133681578D01*
X130203392Y-133581608D01*
X130342371Y-133507321D01*
X130417773Y-133484448D01*
X130493173Y-133461576D01*
X130532351Y-133457717D01*
X130610705Y-133450000D01*
X131189295Y-133450000D01*
X131267649Y-133457717D01*
X131267649Y-133457717D01*
G37*
G36*
X164434000Y-131066000D02*
X160534000Y-131066000D01*
X160534000Y-127166000D01*
X164434000Y-127166000D01*
X164434000Y-131066000D01*
X164434000Y-131066000D01*
G37*
G36*
X158434000Y-131066000D02*
X154534000Y-131066000D01*
X154534000Y-127166000D01*
X158434000Y-127166000D01*
X158434000Y-131066000D01*
X158434000Y-131066000D01*
G37*
G36*
X131975000Y-128675000D02*
X129825000Y-128675000D01*
X129825000Y-126525000D01*
X131975000Y-126525000D01*
X131975000Y-128675000D01*
X131975000Y-128675000D01*
G37*
G36*
X161434000Y-126366000D02*
X157534000Y-126366000D01*
X157534000Y-122466000D01*
X161434000Y-122466000D01*
X161434000Y-126366000D01*
X161434000Y-126366000D01*
G37*
G36*
X131213566Y-124066312D02*
X131409203Y-124147347D01*
X131585275Y-124264995D01*
X131735005Y-124414725D01*
X131852653Y-124590797D01*
X131933688Y-124786434D01*
X131975000Y-124994122D01*
X131975000Y-125205878D01*
X131933688Y-125413566D01*
X131852653Y-125609203D01*
X131735005Y-125785275D01*
X131585275Y-125935005D01*
X131409203Y-126052653D01*
X131213566Y-126133688D01*
X131005878Y-126175000D01*
X130794122Y-126175000D01*
X130586434Y-126133688D01*
X130390797Y-126052653D01*
X130214725Y-125935005D01*
X130064995Y-125785275D01*
X129947347Y-125609203D01*
X129866312Y-125413566D01*
X129825000Y-125205878D01*
X129825000Y-124994122D01*
X129866312Y-124786434D01*
X129947347Y-124590797D01*
X130064995Y-124414725D01*
X130214725Y-124264995D01*
X130390797Y-124147347D01*
X130586434Y-124066312D01*
X130794122Y-124025000D01*
X131005878Y-124025000D01*
X131213566Y-124066312D01*
X131213566Y-124066312D01*
G37*
G36*
X121000000Y-124300000D02*
X119000000Y-124300000D01*
X119000000Y-122300000D01*
X121000000Y-122300000D01*
X121000000Y-124300000D01*
X121000000Y-124300000D01*
G37*
G36*
X112576030Y-122314469D02*
X112576033Y-122314470D01*
X112576034Y-122314470D01*
X112764535Y-122371651D01*
X112764537Y-122371652D01*
X112938260Y-122464509D01*
X113090528Y-122589472D01*
X113215491Y-122741740D01*
X113308348Y-122915463D01*
X113365531Y-123103970D01*
X113384838Y-123300000D01*
X113365531Y-123496030D01*
X113308348Y-123684537D01*
X113215491Y-123858260D01*
X113090528Y-124010528D01*
X112938260Y-124135491D01*
X112938258Y-124135492D01*
X112764535Y-124228349D01*
X112576034Y-124285530D01*
X112576033Y-124285530D01*
X112576030Y-124285531D01*
X112429124Y-124300000D01*
X112330876Y-124300000D01*
X112183970Y-124285531D01*
X112183967Y-124285530D01*
X112183966Y-124285530D01*
X111995465Y-124228349D01*
X111821742Y-124135492D01*
X111821740Y-124135491D01*
X111669472Y-124010528D01*
X111544509Y-123858260D01*
X111451652Y-123684537D01*
X111394469Y-123496030D01*
X111375162Y-123300000D01*
X111394469Y-123103970D01*
X111451652Y-122915463D01*
X111544509Y-122741740D01*
X111669472Y-122589472D01*
X111821740Y-122464509D01*
X111995463Y-122371652D01*
X111995465Y-122371651D01*
X112183966Y-122314470D01*
X112183967Y-122314470D01*
X112183970Y-122314469D01*
X112330876Y-122300000D01*
X112429124Y-122300000D01*
X112576030Y-122314469D01*
X112576030Y-122314469D01*
G37*
G36*
X131213566Y-121566312D02*
X131409203Y-121647347D01*
X131585275Y-121764995D01*
X131735005Y-121914725D01*
X131852653Y-122090797D01*
X131933688Y-122286434D01*
X131975000Y-122494122D01*
X131975000Y-122705878D01*
X131933688Y-122913566D01*
X131852653Y-123109203D01*
X131735005Y-123285275D01*
X131585275Y-123435005D01*
X131409203Y-123552653D01*
X131213566Y-123633688D01*
X131005878Y-123675000D01*
X130794122Y-123675000D01*
X130586434Y-123633688D01*
X130390797Y-123552653D01*
X130214725Y-123435005D01*
X130064995Y-123285275D01*
X129947347Y-123109203D01*
X129866312Y-122913566D01*
X129825000Y-122705878D01*
X129825000Y-122494122D01*
X129866312Y-122286434D01*
X129947347Y-122090797D01*
X130064995Y-121914725D01*
X130214725Y-121764995D01*
X130390797Y-121647347D01*
X130586434Y-121566312D01*
X130794122Y-121525000D01*
X131005878Y-121525000D01*
X131213566Y-121566312D01*
X131213566Y-121566312D01*
G37*
G36*
X120196030Y-119774469D02*
X120196033Y-119774470D01*
X120196034Y-119774470D01*
X120384535Y-119831651D01*
X120384537Y-119831652D01*
X120558260Y-119924509D01*
X120710528Y-120049472D01*
X120835491Y-120201740D01*
X120835492Y-120201742D01*
X120928349Y-120375465D01*
X120985530Y-120563966D01*
X120985531Y-120563970D01*
X121004838Y-120760000D01*
X120985531Y-120956030D01*
X120928348Y-121144537D01*
X120835491Y-121318260D01*
X120710528Y-121470528D01*
X120558260Y-121595491D01*
X120384537Y-121688348D01*
X120384535Y-121688349D01*
X120196034Y-121745530D01*
X120196033Y-121745530D01*
X120196030Y-121745531D01*
X120049124Y-121760000D01*
X119950876Y-121760000D01*
X119803970Y-121745531D01*
X119803967Y-121745530D01*
X119803966Y-121745530D01*
X119615465Y-121688349D01*
X119615463Y-121688348D01*
X119441740Y-121595491D01*
X119289472Y-121470528D01*
X119164509Y-121318260D01*
X119071652Y-121144537D01*
X119014469Y-120956030D01*
X118995162Y-120760000D01*
X119014469Y-120563970D01*
X119014470Y-120563966D01*
X119071651Y-120375465D01*
X119164508Y-120201742D01*
X119164509Y-120201740D01*
X119289472Y-120049472D01*
X119441740Y-119924509D01*
X119615463Y-119831652D01*
X119615465Y-119831651D01*
X119803966Y-119774470D01*
X119803967Y-119774470D01*
X119803970Y-119774469D01*
X119950876Y-119760000D01*
X120049124Y-119760000D01*
X120196030Y-119774469D01*
X120196030Y-119774469D01*
G37*
G36*
X112576030Y-119774469D02*
X112576033Y-119774470D01*
X112576034Y-119774470D01*
X112764535Y-119831651D01*
X112764537Y-119831652D01*
X112938260Y-119924509D01*
X113090528Y-120049472D01*
X113215491Y-120201740D01*
X113215492Y-120201742D01*
X113308349Y-120375465D01*
X113365530Y-120563966D01*
X113365531Y-120563970D01*
X113384838Y-120760000D01*
X113365531Y-120956030D01*
X113308348Y-121144537D01*
X113215491Y-121318260D01*
X113090528Y-121470528D01*
X112938260Y-121595491D01*
X112764537Y-121688348D01*
X112764535Y-121688349D01*
X112576034Y-121745530D01*
X112576033Y-121745530D01*
X112576030Y-121745531D01*
X112429124Y-121760000D01*
X112330876Y-121760000D01*
X112183970Y-121745531D01*
X112183967Y-121745530D01*
X112183966Y-121745530D01*
X111995465Y-121688349D01*
X111995463Y-121688348D01*
X111821740Y-121595491D01*
X111669472Y-121470528D01*
X111544509Y-121318260D01*
X111451652Y-121144537D01*
X111394469Y-120956030D01*
X111375162Y-120760000D01*
X111394469Y-120563970D01*
X111394470Y-120563966D01*
X111451651Y-120375465D01*
X111544508Y-120201742D01*
X111544509Y-120201740D01*
X111669472Y-120049472D01*
X111821740Y-119924509D01*
X111995463Y-119831652D01*
X111995465Y-119831651D01*
X112183966Y-119774470D01*
X112183967Y-119774470D01*
X112183970Y-119774469D01*
X112330876Y-119760000D01*
X112429124Y-119760000D01*
X112576030Y-119774469D01*
X112576030Y-119774469D01*
G37*
G36*
X131213566Y-119066312D02*
X131409203Y-119147347D01*
X131585275Y-119264995D01*
X131735005Y-119414725D01*
X131852653Y-119590797D01*
X131933688Y-119786434D01*
X131975000Y-119994122D01*
X131975000Y-120205878D01*
X131933688Y-120413566D01*
X131852653Y-120609203D01*
X131735005Y-120785275D01*
X131585275Y-120935005D01*
X131409203Y-121052653D01*
X131213566Y-121133688D01*
X131005878Y-121175000D01*
X130794122Y-121175000D01*
X130586434Y-121133688D01*
X130390797Y-121052653D01*
X130214725Y-120935005D01*
X130064995Y-120785275D01*
X129947347Y-120609203D01*
X129866312Y-120413566D01*
X129825000Y-120205878D01*
X129825000Y-119994122D01*
X129866312Y-119786434D01*
X129947347Y-119590797D01*
X130064995Y-119414725D01*
X130214725Y-119264995D01*
X130390797Y-119147347D01*
X130586434Y-119066312D01*
X130794122Y-119025000D01*
X131005878Y-119025000D01*
X131213566Y-119066312D01*
X131213566Y-119066312D01*
G37*
G36*
X120196030Y-117234469D02*
X120196033Y-117234470D01*
X120196034Y-117234470D01*
X120384535Y-117291651D01*
X120384537Y-117291652D01*
X120558260Y-117384509D01*
X120710528Y-117509472D01*
X120835491Y-117661740D01*
X120835492Y-117661742D01*
X120928349Y-117835465D01*
X120985530Y-118023966D01*
X120985531Y-118023970D01*
X121004838Y-118220000D01*
X120985531Y-118416030D01*
X120985530Y-118416033D01*
X120985530Y-118416034D01*
X120975227Y-118450000D01*
X120928348Y-118604537D01*
X120835491Y-118778260D01*
X120710528Y-118930528D01*
X120558260Y-119055491D01*
X120558258Y-119055492D01*
X120384535Y-119148349D01*
X120196034Y-119205530D01*
X120196033Y-119205530D01*
X120196030Y-119205531D01*
X120049124Y-119220000D01*
X119950876Y-119220000D01*
X119803970Y-119205531D01*
X119803967Y-119205530D01*
X119803966Y-119205530D01*
X119615465Y-119148349D01*
X119441742Y-119055492D01*
X119441740Y-119055491D01*
X119289472Y-118930528D01*
X119164509Y-118778260D01*
X119071652Y-118604537D01*
X119024774Y-118450000D01*
X119014470Y-118416034D01*
X119014470Y-118416033D01*
X119014469Y-118416030D01*
X118995162Y-118220000D01*
X119014469Y-118023970D01*
X119014470Y-118023966D01*
X119071651Y-117835465D01*
X119164508Y-117661742D01*
X119164509Y-117661740D01*
X119289472Y-117509472D01*
X119441740Y-117384509D01*
X119615463Y-117291652D01*
X119615465Y-117291651D01*
X119803966Y-117234470D01*
X119803967Y-117234470D01*
X119803970Y-117234469D01*
X119950876Y-117220000D01*
X120049124Y-117220000D01*
X120196030Y-117234469D01*
X120196030Y-117234469D01*
G37*
G36*
X112576030Y-117234469D02*
X112576033Y-117234470D01*
X112576034Y-117234470D01*
X112764535Y-117291651D01*
X112764537Y-117291652D01*
X112938260Y-117384509D01*
X113090528Y-117509472D01*
X113215491Y-117661740D01*
X113215492Y-117661742D01*
X113308349Y-117835465D01*
X113365530Y-118023966D01*
X113365531Y-118023970D01*
X113384838Y-118220000D01*
X113365531Y-118416030D01*
X113365530Y-118416033D01*
X113365530Y-118416034D01*
X113355227Y-118450000D01*
X113308348Y-118604537D01*
X113215491Y-118778260D01*
X113090528Y-118930528D01*
X112938260Y-119055491D01*
X112938258Y-119055492D01*
X112764535Y-119148349D01*
X112576034Y-119205530D01*
X112576033Y-119205530D01*
X112576030Y-119205531D01*
X112429124Y-119220000D01*
X112330876Y-119220000D01*
X112183970Y-119205531D01*
X112183967Y-119205530D01*
X112183966Y-119205530D01*
X111995465Y-119148349D01*
X111821742Y-119055492D01*
X111821740Y-119055491D01*
X111669472Y-118930528D01*
X111544509Y-118778260D01*
X111451652Y-118604537D01*
X111404774Y-118450000D01*
X111394470Y-118416034D01*
X111394470Y-118416033D01*
X111394469Y-118416030D01*
X111375162Y-118220000D01*
X111394469Y-118023970D01*
X111394470Y-118023966D01*
X111451651Y-117835465D01*
X111544508Y-117661742D01*
X111544509Y-117661740D01*
X111669472Y-117509472D01*
X111821740Y-117384509D01*
X111995463Y-117291652D01*
X111995465Y-117291651D01*
X112183966Y-117234470D01*
X112183967Y-117234470D01*
X112183970Y-117234469D01*
X112330876Y-117220000D01*
X112429124Y-117220000D01*
X112576030Y-117234469D01*
X112576030Y-117234469D01*
G37*
G36*
X131213566Y-116566312D02*
X131409203Y-116647347D01*
X131585275Y-116764995D01*
X131735005Y-116914725D01*
X131852653Y-117090797D01*
X131933688Y-117286434D01*
X131975000Y-117494122D01*
X131975000Y-117705878D01*
X131933688Y-117913566D01*
X131852653Y-118109203D01*
X131735005Y-118285275D01*
X131585275Y-118435005D01*
X131409203Y-118552653D01*
X131213566Y-118633688D01*
X131005878Y-118675000D01*
X130794122Y-118675000D01*
X130586434Y-118633688D01*
X130390797Y-118552653D01*
X130214725Y-118435005D01*
X130064995Y-118285275D01*
X129947347Y-118109203D01*
X129866312Y-117913566D01*
X129825000Y-117705878D01*
X129825000Y-117494122D01*
X129866312Y-117286434D01*
X129947347Y-117090797D01*
X130064995Y-116914725D01*
X130214725Y-116764995D01*
X130390797Y-116647347D01*
X130586434Y-116566312D01*
X130794122Y-116525000D01*
X131005878Y-116525000D01*
X131213566Y-116566312D01*
X131213566Y-116566312D01*
G37*
G36*
X161575000Y-118450000D02*
X159425000Y-118450000D01*
X159425000Y-116300000D01*
X161575000Y-116300000D01*
X161575000Y-118450000D01*
X161575000Y-118450000D01*
G37*
G36*
X112576030Y-114694469D02*
X112576033Y-114694470D01*
X112576034Y-114694470D01*
X112764535Y-114751651D01*
X112764537Y-114751652D01*
X112938260Y-114844509D01*
X113090528Y-114969472D01*
X113215491Y-115121740D01*
X113308348Y-115295463D01*
X113365531Y-115483970D01*
X113384838Y-115680000D01*
X113365531Y-115876030D01*
X113365530Y-115876033D01*
X113365530Y-115876034D01*
X113311954Y-116052652D01*
X113308348Y-116064537D01*
X113215491Y-116238260D01*
X113090528Y-116390528D01*
X112938260Y-116515491D01*
X112938258Y-116515492D01*
X112764535Y-116608349D01*
X112576034Y-116665530D01*
X112576033Y-116665530D01*
X112576030Y-116665531D01*
X112429124Y-116680000D01*
X112330876Y-116680000D01*
X112183970Y-116665531D01*
X112183967Y-116665530D01*
X112183966Y-116665530D01*
X111995465Y-116608349D01*
X111821742Y-116515492D01*
X111821740Y-116515491D01*
X111669472Y-116390528D01*
X111544509Y-116238260D01*
X111451652Y-116064537D01*
X111448047Y-116052652D01*
X111394470Y-115876034D01*
X111394470Y-115876033D01*
X111394469Y-115876030D01*
X111375162Y-115680000D01*
X111394469Y-115483970D01*
X111451652Y-115295463D01*
X111544509Y-115121740D01*
X111669472Y-114969472D01*
X111821740Y-114844509D01*
X111995463Y-114751652D01*
X111995465Y-114751651D01*
X112183966Y-114694470D01*
X112183967Y-114694470D01*
X112183970Y-114694469D01*
X112330876Y-114680000D01*
X112429124Y-114680000D01*
X112576030Y-114694469D01*
X112576030Y-114694469D01*
G37*
G36*
X120196030Y-114694469D02*
X120196033Y-114694470D01*
X120196034Y-114694470D01*
X120384535Y-114751651D01*
X120384537Y-114751652D01*
X120558260Y-114844509D01*
X120710528Y-114969472D01*
X120835491Y-115121740D01*
X120928348Y-115295463D01*
X120985531Y-115483970D01*
X121004838Y-115680000D01*
X120985531Y-115876030D01*
X120985530Y-115876033D01*
X120985530Y-115876034D01*
X120931954Y-116052652D01*
X120928348Y-116064537D01*
X120835491Y-116238260D01*
X120710528Y-116390528D01*
X120558260Y-116515491D01*
X120558258Y-116515492D01*
X120384535Y-116608349D01*
X120196034Y-116665530D01*
X120196033Y-116665530D01*
X120196030Y-116665531D01*
X120049124Y-116680000D01*
X119950876Y-116680000D01*
X119803970Y-116665531D01*
X119803967Y-116665530D01*
X119803966Y-116665530D01*
X119615465Y-116608349D01*
X119441742Y-116515492D01*
X119441740Y-116515491D01*
X119289472Y-116390528D01*
X119164509Y-116238260D01*
X119071652Y-116064537D01*
X119068047Y-116052652D01*
X119014470Y-115876034D01*
X119014470Y-115876033D01*
X119014469Y-115876030D01*
X118995162Y-115680000D01*
X119014469Y-115483970D01*
X119071652Y-115295463D01*
X119164509Y-115121740D01*
X119289472Y-114969472D01*
X119441740Y-114844509D01*
X119615463Y-114751652D01*
X119615465Y-114751651D01*
X119803966Y-114694470D01*
X119803967Y-114694470D01*
X119803970Y-114694469D01*
X119950876Y-114680000D01*
X120049124Y-114680000D01*
X120196030Y-114694469D01*
X120196030Y-114694469D01*
G37*
G36*
X131213566Y-114066312D02*
X131409203Y-114147347D01*
X131585275Y-114264995D01*
X131735005Y-114414725D01*
X131852653Y-114590797D01*
X131933688Y-114786434D01*
X131975000Y-114994122D01*
X131975000Y-115205878D01*
X131933688Y-115413566D01*
X131852653Y-115609203D01*
X131735005Y-115785275D01*
X131585275Y-115935005D01*
X131409203Y-116052653D01*
X131213566Y-116133688D01*
X131005878Y-116175000D01*
X130794122Y-116175000D01*
X130586434Y-116133688D01*
X130390797Y-116052653D01*
X130214725Y-115935005D01*
X130064995Y-115785275D01*
X129947347Y-115609203D01*
X129866312Y-115413566D01*
X129825000Y-115205878D01*
X129825000Y-114994122D01*
X129866312Y-114786434D01*
X129947347Y-114590797D01*
X130064995Y-114414725D01*
X130214725Y-114264995D01*
X130390797Y-114147347D01*
X130586434Y-114066312D01*
X130794122Y-114025000D01*
X131005878Y-114025000D01*
X131213566Y-114066312D01*
X131213566Y-114066312D01*
G37*
G36*
X160813566Y-113841312D02*
X161009203Y-113922347D01*
X161185275Y-114039995D01*
X161335005Y-114189725D01*
X161452653Y-114365797D01*
X161533688Y-114561434D01*
X161575000Y-114769122D01*
X161575000Y-114980878D01*
X161533688Y-115188566D01*
X161452653Y-115384203D01*
X161335005Y-115560275D01*
X161185275Y-115710005D01*
X161009203Y-115827653D01*
X160813566Y-115908688D01*
X160605878Y-115950000D01*
X160394122Y-115950000D01*
X160186434Y-115908688D01*
X159990797Y-115827653D01*
X159814725Y-115710005D01*
X159664995Y-115560275D01*
X159547347Y-115384203D01*
X159466312Y-115188566D01*
X159425000Y-114980878D01*
X159425000Y-114769122D01*
X159466312Y-114561434D01*
X159547347Y-114365797D01*
X159664995Y-114189725D01*
X159814725Y-114039995D01*
X159990797Y-113922347D01*
X160186434Y-113841312D01*
X160394122Y-113800000D01*
X160605878Y-113800000D01*
X160813566Y-113841312D01*
X160813566Y-113841312D01*
G37*
G36*
X131213566Y-111566312D02*
X131409203Y-111647347D01*
X131585275Y-111764995D01*
X131735005Y-111914725D01*
X131852653Y-112090797D01*
X131933688Y-112286434D01*
X131975000Y-112494122D01*
X131975000Y-112705878D01*
X131933688Y-112913566D01*
X131852653Y-113109203D01*
X131735005Y-113285275D01*
X131585275Y-113435005D01*
X131409203Y-113552653D01*
X131213566Y-113633688D01*
X131005878Y-113675000D01*
X130794122Y-113675000D01*
X130586434Y-113633688D01*
X130390797Y-113552653D01*
X130214725Y-113435005D01*
X130064995Y-113285275D01*
X129947347Y-113109203D01*
X129866312Y-112913566D01*
X129825000Y-112705878D01*
X129825000Y-112494122D01*
X129866312Y-112286434D01*
X129947347Y-112090797D01*
X130064995Y-111914725D01*
X130214725Y-111764995D01*
X130390797Y-111647347D01*
X130586434Y-111566312D01*
X130794122Y-111525000D01*
X131005878Y-111525000D01*
X131213566Y-111566312D01*
X131213566Y-111566312D01*
G37*
G36*
X131213566Y-109066312D02*
X131409203Y-109147347D01*
X131585275Y-109264995D01*
X131735005Y-109414725D01*
X131852653Y-109590797D01*
X131933688Y-109786434D01*
X131975000Y-109994122D01*
X131975000Y-110205878D01*
X131933688Y-110413566D01*
X131852653Y-110609203D01*
X131735005Y-110785275D01*
X131585275Y-110935005D01*
X131409203Y-111052653D01*
X131213566Y-111133688D01*
X131005878Y-111175000D01*
X130794122Y-111175000D01*
X130586434Y-111133688D01*
X130390797Y-111052653D01*
X130214725Y-110935005D01*
X130064995Y-110785275D01*
X129947347Y-110609203D01*
X129866312Y-110413566D01*
X129825000Y-110205878D01*
X129825000Y-109994122D01*
X129866312Y-109786434D01*
X129947347Y-109590797D01*
X130064995Y-109414725D01*
X130214725Y-109264995D01*
X130390797Y-109147347D01*
X130586434Y-109066312D01*
X130794122Y-109025000D01*
X131005878Y-109025000D01*
X131213566Y-109066312D01*
X131213566Y-109066312D01*
G37*
G36*
X154348707Y-103957597D02*
X154425836Y-103965193D01*
X154557787Y-104005220D01*
X154623763Y-104025233D01*
X154806172Y-104122733D01*
X154966054Y-104253946D01*
X155097267Y-104413828D01*
X155194767Y-104596237D01*
X155194767Y-104596238D01*
X155254807Y-104794164D01*
X155275080Y-105000000D01*
X155254807Y-105205836D01*
X155214780Y-105337787D01*
X155194767Y-105403763D01*
X155097267Y-105586172D01*
X154966054Y-105746054D01*
X154806172Y-105877267D01*
X154623763Y-105974767D01*
X154557787Y-105994780D01*
X154425836Y-106034807D01*
X154348707Y-106042404D01*
X154271580Y-106050000D01*
X154168420Y-106050000D01*
X154091293Y-106042404D01*
X154014164Y-106034807D01*
X153882213Y-105994780D01*
X153816237Y-105974767D01*
X153633828Y-105877267D01*
X153473946Y-105746054D01*
X153342733Y-105586172D01*
X153245233Y-105403763D01*
X153225220Y-105337787D01*
X153185193Y-105205836D01*
X153164920Y-105000000D01*
X153185193Y-104794164D01*
X153245233Y-104596238D01*
X153245233Y-104596237D01*
X153342733Y-104413828D01*
X153473946Y-104253946D01*
X153633828Y-104122733D01*
X153816237Y-104025233D01*
X153882213Y-104005220D01*
X154014164Y-103965193D01*
X154091293Y-103957597D01*
X154168420Y-103950000D01*
X154271580Y-103950000D01*
X154348707Y-103957597D01*
X154348707Y-103957597D01*
G37*
G36*
X156888707Y-103957597D02*
X156965836Y-103965193D01*
X157097787Y-104005220D01*
X157163763Y-104025233D01*
X157346172Y-104122733D01*
X157506054Y-104253946D01*
X157637267Y-104413828D01*
X157734767Y-104596237D01*
X157734767Y-104596238D01*
X157794807Y-104794164D01*
X157815080Y-105000000D01*
X157794807Y-105205836D01*
X157754780Y-105337787D01*
X157734767Y-105403763D01*
X157637267Y-105586172D01*
X157506054Y-105746054D01*
X157346172Y-105877267D01*
X157163763Y-105974767D01*
X157097787Y-105994780D01*
X156965836Y-106034807D01*
X156888707Y-106042404D01*
X156811580Y-106050000D01*
X156708420Y-106050000D01*
X156631293Y-106042404D01*
X156554164Y-106034807D01*
X156422213Y-105994780D01*
X156356237Y-105974767D01*
X156173828Y-105877267D01*
X156013946Y-105746054D01*
X155882733Y-105586172D01*
X155785233Y-105403763D01*
X155765220Y-105337787D01*
X155725193Y-105205836D01*
X155704920Y-105000000D01*
X155725193Y-104794164D01*
X155785233Y-104596238D01*
X155785233Y-104596237D01*
X155882733Y-104413828D01*
X156013946Y-104253946D01*
X156173828Y-104122733D01*
X156356237Y-104025233D01*
X156422213Y-104005220D01*
X156554164Y-103965193D01*
X156631293Y-103957597D01*
X156708420Y-103950000D01*
X156811580Y-103950000D01*
X156888707Y-103957597D01*
X156888707Y-103957597D01*
G37*
G36*
X151808707Y-103957597D02*
X151885836Y-103965193D01*
X152017787Y-104005220D01*
X152083763Y-104025233D01*
X152266172Y-104122733D01*
X152426054Y-104253946D01*
X152557267Y-104413828D01*
X152654767Y-104596237D01*
X152654767Y-104596238D01*
X152714807Y-104794164D01*
X152735080Y-105000000D01*
X152714807Y-105205836D01*
X152674780Y-105337787D01*
X152654767Y-105403763D01*
X152557267Y-105586172D01*
X152426054Y-105746054D01*
X152266172Y-105877267D01*
X152083763Y-105974767D01*
X152017787Y-105994780D01*
X151885836Y-106034807D01*
X151808707Y-106042404D01*
X151731580Y-106050000D01*
X151628420Y-106050000D01*
X151551293Y-106042404D01*
X151474164Y-106034807D01*
X151342213Y-105994780D01*
X151276237Y-105974767D01*
X151093828Y-105877267D01*
X150933946Y-105746054D01*
X150802733Y-105586172D01*
X150705233Y-105403763D01*
X150685220Y-105337787D01*
X150645193Y-105205836D01*
X150624920Y-105000000D01*
X150645193Y-104794164D01*
X150705233Y-104596238D01*
X150705233Y-104596237D01*
X150802733Y-104413828D01*
X150933946Y-104253946D01*
X151093828Y-104122733D01*
X151276237Y-104025233D01*
X151342213Y-104005220D01*
X151474164Y-103965193D01*
X151551293Y-103957597D01*
X151628420Y-103950000D01*
X151731580Y-103950000D01*
X151808707Y-103957597D01*
X151808707Y-103957597D01*
G37*
G36*
X149268707Y-103957597D02*
X149345836Y-103965193D01*
X149477787Y-104005220D01*
X149543763Y-104025233D01*
X149726172Y-104122733D01*
X149886054Y-104253946D01*
X150017267Y-104413828D01*
X150114767Y-104596237D01*
X150114767Y-104596238D01*
X150174807Y-104794164D01*
X150195080Y-105000000D01*
X150174807Y-105205836D01*
X150134780Y-105337787D01*
X150114767Y-105403763D01*
X150017267Y-105586172D01*
X149886054Y-105746054D01*
X149726172Y-105877267D01*
X149543763Y-105974767D01*
X149477787Y-105994780D01*
X149345836Y-106034807D01*
X149268707Y-106042404D01*
X149191580Y-106050000D01*
X149088420Y-106050000D01*
X149011293Y-106042404D01*
X148934164Y-106034807D01*
X148802213Y-105994780D01*
X148736237Y-105974767D01*
X148553828Y-105877267D01*
X148393946Y-105746054D01*
X148262733Y-105586172D01*
X148165233Y-105403763D01*
X148145220Y-105337787D01*
X148105193Y-105205836D01*
X148084920Y-105000000D01*
X148105193Y-104794164D01*
X148165233Y-104596238D01*
X148165233Y-104596237D01*
X148262733Y-104413828D01*
X148393946Y-104253946D01*
X148553828Y-104122733D01*
X148736237Y-104025233D01*
X148802213Y-104005220D01*
X148934164Y-103965193D01*
X149011293Y-103957597D01*
X149088420Y-103950000D01*
X149191580Y-103950000D01*
X149268707Y-103957597D01*
X149268707Y-103957597D01*
G37*
G36*
X146728707Y-103957597D02*
X146805836Y-103965193D01*
X146937787Y-104005220D01*
X147003763Y-104025233D01*
X147186172Y-104122733D01*
X147346054Y-104253946D01*
X147477267Y-104413828D01*
X147574767Y-104596237D01*
X147574767Y-104596238D01*
X147634807Y-104794164D01*
X147655080Y-105000000D01*
X147634807Y-105205836D01*
X147594780Y-105337787D01*
X147574767Y-105403763D01*
X147477267Y-105586172D01*
X147346054Y-105746054D01*
X147186172Y-105877267D01*
X147003763Y-105974767D01*
X146937787Y-105994780D01*
X146805836Y-106034807D01*
X146728707Y-106042404D01*
X146651580Y-106050000D01*
X146548420Y-106050000D01*
X146471293Y-106042404D01*
X146394164Y-106034807D01*
X146262213Y-105994780D01*
X146196237Y-105974767D01*
X146013828Y-105877267D01*
X145853946Y-105746054D01*
X145722733Y-105586172D01*
X145625233Y-105403763D01*
X145605220Y-105337787D01*
X145565193Y-105205836D01*
X145544920Y-105000000D01*
X145565193Y-104794164D01*
X145625233Y-104596238D01*
X145625233Y-104596237D01*
X145722733Y-104413828D01*
X145853946Y-104253946D01*
X146013828Y-104122733D01*
X146196237Y-104025233D01*
X146262213Y-104005220D01*
X146394164Y-103965193D01*
X146471293Y-103957597D01*
X146548420Y-103950000D01*
X146651580Y-103950000D01*
X146728707Y-103957597D01*
X146728707Y-103957597D01*
G37*
G36*
X144188707Y-103957597D02*
X144265836Y-103965193D01*
X144397787Y-104005220D01*
X144463763Y-104025233D01*
X144646172Y-104122733D01*
X144806054Y-104253946D01*
X144937267Y-104413828D01*
X145034767Y-104596237D01*
X145034767Y-104596238D01*
X145094807Y-104794164D01*
X145115080Y-105000000D01*
X145094807Y-105205836D01*
X145054780Y-105337787D01*
X145034767Y-105403763D01*
X144937267Y-105586172D01*
X144806054Y-105746054D01*
X144646172Y-105877267D01*
X144463763Y-105974767D01*
X144397787Y-105994780D01*
X144265836Y-106034807D01*
X144188707Y-106042404D01*
X144111580Y-106050000D01*
X144008420Y-106050000D01*
X143931293Y-106042404D01*
X143854164Y-106034807D01*
X143722213Y-105994780D01*
X143656237Y-105974767D01*
X143473828Y-105877267D01*
X143313946Y-105746054D01*
X143182733Y-105586172D01*
X143085233Y-105403763D01*
X143065220Y-105337787D01*
X143025193Y-105205836D01*
X143004920Y-105000000D01*
X143025193Y-104794164D01*
X143085233Y-104596238D01*
X143085233Y-104596237D01*
X143182733Y-104413828D01*
X143313946Y-104253946D01*
X143473828Y-104122733D01*
X143656237Y-104025233D01*
X143722213Y-104005220D01*
X143854164Y-103965193D01*
X143931293Y-103957597D01*
X144008420Y-103950000D01*
X144111580Y-103950000D01*
X144188707Y-103957597D01*
X144188707Y-103957597D01*
G37*
G36*
X141648707Y-103957597D02*
X141725836Y-103965193D01*
X141857787Y-104005220D01*
X141923763Y-104025233D01*
X142106172Y-104122733D01*
X142266054Y-104253946D01*
X142397267Y-104413828D01*
X142494767Y-104596237D01*
X142494767Y-104596238D01*
X142554807Y-104794164D01*
X142575080Y-105000000D01*
X142554807Y-105205836D01*
X142514780Y-105337787D01*
X142494767Y-105403763D01*
X142397267Y-105586172D01*
X142266054Y-105746054D01*
X142106172Y-105877267D01*
X141923763Y-105974767D01*
X141857787Y-105994780D01*
X141725836Y-106034807D01*
X141648707Y-106042404D01*
X141571580Y-106050000D01*
X141468420Y-106050000D01*
X141391293Y-106042404D01*
X141314164Y-106034807D01*
X141182213Y-105994780D01*
X141116237Y-105974767D01*
X140933828Y-105877267D01*
X140773946Y-105746054D01*
X140642733Y-105586172D01*
X140545233Y-105403763D01*
X140525220Y-105337787D01*
X140485193Y-105205836D01*
X140464920Y-105000000D01*
X140485193Y-104794164D01*
X140545233Y-104596238D01*
X140545233Y-104596237D01*
X140642733Y-104413828D01*
X140773946Y-104253946D01*
X140933828Y-104122733D01*
X141116237Y-104025233D01*
X141182213Y-104005220D01*
X141314164Y-103965193D01*
X141391293Y-103957597D01*
X141468420Y-103950000D01*
X141571580Y-103950000D01*
X141648707Y-103957597D01*
X141648707Y-103957597D01*
G37*
G36*
X139108707Y-103957597D02*
X139185836Y-103965193D01*
X139317787Y-104005220D01*
X139383763Y-104025233D01*
X139566172Y-104122733D01*
X139726054Y-104253946D01*
X139857267Y-104413828D01*
X139954767Y-104596237D01*
X139954767Y-104596238D01*
X140014807Y-104794164D01*
X140035080Y-105000000D01*
X140014807Y-105205836D01*
X139974780Y-105337787D01*
X139954767Y-105403763D01*
X139857267Y-105586172D01*
X139726054Y-105746054D01*
X139566172Y-105877267D01*
X139383763Y-105974767D01*
X139317787Y-105994780D01*
X139185836Y-106034807D01*
X139108707Y-106042404D01*
X139031580Y-106050000D01*
X138928420Y-106050000D01*
X138851293Y-106042404D01*
X138774164Y-106034807D01*
X138642213Y-105994780D01*
X138576237Y-105974767D01*
X138393828Y-105877267D01*
X138233946Y-105746054D01*
X138102733Y-105586172D01*
X138005233Y-105403763D01*
X137985220Y-105337787D01*
X137945193Y-105205836D01*
X137924920Y-105000000D01*
X137945193Y-104794164D01*
X138005233Y-104596238D01*
X138005233Y-104596237D01*
X138102733Y-104413828D01*
X138233946Y-104253946D01*
X138393828Y-104122733D01*
X138576237Y-104025233D01*
X138642213Y-104005220D01*
X138774164Y-103965193D01*
X138851293Y-103957597D01*
X138928420Y-103950000D01*
X139031580Y-103950000D01*
X139108707Y-103957597D01*
X139108707Y-103957597D01*
G37*
G36*
X136568707Y-103957597D02*
X136645836Y-103965193D01*
X136777787Y-104005220D01*
X136843763Y-104025233D01*
X137026172Y-104122733D01*
X137186054Y-104253946D01*
X137317267Y-104413828D01*
X137414767Y-104596237D01*
X137414767Y-104596238D01*
X137474807Y-104794164D01*
X137495080Y-105000000D01*
X137474807Y-105205836D01*
X137434780Y-105337787D01*
X137414767Y-105403763D01*
X137317267Y-105586172D01*
X137186054Y-105746054D01*
X137026172Y-105877267D01*
X136843763Y-105974767D01*
X136777787Y-105994780D01*
X136645836Y-106034807D01*
X136568707Y-106042404D01*
X136491580Y-106050000D01*
X136388420Y-106050000D01*
X136311293Y-106042404D01*
X136234164Y-106034807D01*
X136102213Y-105994780D01*
X136036237Y-105974767D01*
X135853828Y-105877267D01*
X135693946Y-105746054D01*
X135562733Y-105586172D01*
X135465233Y-105403763D01*
X135445220Y-105337787D01*
X135405193Y-105205836D01*
X135384920Y-105000000D01*
X135405193Y-104794164D01*
X135465233Y-104596238D01*
X135465233Y-104596237D01*
X135562733Y-104413828D01*
X135693946Y-104253946D01*
X135853828Y-104122733D01*
X136036237Y-104025233D01*
X136102213Y-104005220D01*
X136234164Y-103965193D01*
X136311293Y-103957597D01*
X136388420Y-103950000D01*
X136491580Y-103950000D01*
X136568707Y-103957597D01*
X136568707Y-103957597D01*
G37*
G36*
X134028707Y-103957597D02*
X134105836Y-103965193D01*
X134237787Y-104005220D01*
X134303763Y-104025233D01*
X134486172Y-104122733D01*
X134646054Y-104253946D01*
X134777267Y-104413828D01*
X134874767Y-104596237D01*
X134874767Y-104596238D01*
X134934807Y-104794164D01*
X134955080Y-105000000D01*
X134934807Y-105205836D01*
X134894780Y-105337787D01*
X134874767Y-105403763D01*
X134777267Y-105586172D01*
X134646054Y-105746054D01*
X134486172Y-105877267D01*
X134303763Y-105974767D01*
X134237787Y-105994780D01*
X134105836Y-106034807D01*
X134028707Y-106042404D01*
X133951580Y-106050000D01*
X133848420Y-106050000D01*
X133771293Y-106042404D01*
X133694164Y-106034807D01*
X133562213Y-105994780D01*
X133496237Y-105974767D01*
X133313828Y-105877267D01*
X133153946Y-105746054D01*
X133022733Y-105586172D01*
X132925233Y-105403763D01*
X132905220Y-105337787D01*
X132865193Y-105205836D01*
X132844920Y-105000000D01*
X132865193Y-104794164D01*
X132925233Y-104596238D01*
X132925233Y-104596237D01*
X133022733Y-104413828D01*
X133153946Y-104253946D01*
X133313828Y-104122733D01*
X133496237Y-104025233D01*
X133562213Y-104005220D01*
X133694164Y-103965193D01*
X133771293Y-103957597D01*
X133848420Y-103950000D01*
X133951580Y-103950000D01*
X134028707Y-103957597D01*
X134028707Y-103957597D01*
G37*
G36*
X128948707Y-103957597D02*
X129025836Y-103965193D01*
X129157787Y-104005220D01*
X129223763Y-104025233D01*
X129406172Y-104122733D01*
X129566054Y-104253946D01*
X129697267Y-104413828D01*
X129794767Y-104596237D01*
X129794767Y-104596238D01*
X129854807Y-104794164D01*
X129875080Y-105000000D01*
X129854807Y-105205836D01*
X129814780Y-105337787D01*
X129794767Y-105403763D01*
X129697267Y-105586172D01*
X129566054Y-105746054D01*
X129406172Y-105877267D01*
X129223763Y-105974767D01*
X129157787Y-105994780D01*
X129025836Y-106034807D01*
X128948707Y-106042404D01*
X128871580Y-106050000D01*
X128768420Y-106050000D01*
X128691293Y-106042404D01*
X128614164Y-106034807D01*
X128482213Y-105994780D01*
X128416237Y-105974767D01*
X128233828Y-105877267D01*
X128073946Y-105746054D01*
X127942733Y-105586172D01*
X127845233Y-105403763D01*
X127825220Y-105337787D01*
X127785193Y-105205836D01*
X127764920Y-105000000D01*
X127785193Y-104794164D01*
X127845233Y-104596238D01*
X127845233Y-104596237D01*
X127942733Y-104413828D01*
X128073946Y-104253946D01*
X128233828Y-104122733D01*
X128416237Y-104025233D01*
X128482213Y-104005220D01*
X128614164Y-103965193D01*
X128691293Y-103957597D01*
X128768420Y-103950000D01*
X128871580Y-103950000D01*
X128948707Y-103957597D01*
X128948707Y-103957597D01*
G37*
G36*
X131488707Y-103957597D02*
X131565836Y-103965193D01*
X131697787Y-104005220D01*
X131763763Y-104025233D01*
X131946172Y-104122733D01*
X132106054Y-104253946D01*
X132237267Y-104413828D01*
X132334767Y-104596237D01*
X132334767Y-104596238D01*
X132394807Y-104794164D01*
X132415080Y-105000000D01*
X132394807Y-105205836D01*
X132354780Y-105337787D01*
X132334767Y-105403763D01*
X132237267Y-105586172D01*
X132106054Y-105746054D01*
X131946172Y-105877267D01*
X131763763Y-105974767D01*
X131697787Y-105994780D01*
X131565836Y-106034807D01*
X131488707Y-106042404D01*
X131411580Y-106050000D01*
X131308420Y-106050000D01*
X131231293Y-106042404D01*
X131154164Y-106034807D01*
X131022213Y-105994780D01*
X130956237Y-105974767D01*
X130773828Y-105877267D01*
X130613946Y-105746054D01*
X130482733Y-105586172D01*
X130385233Y-105403763D01*
X130365220Y-105337787D01*
X130325193Y-105205836D01*
X130304920Y-105000000D01*
X130325193Y-104794164D01*
X130385233Y-104596238D01*
X130385233Y-104596237D01*
X130482733Y-104413828D01*
X130613946Y-104253946D01*
X130773828Y-104122733D01*
X130956237Y-104025233D01*
X131022213Y-104005220D01*
X131154164Y-103965193D01*
X131231293Y-103957597D01*
X131308420Y-103950000D01*
X131411580Y-103950000D01*
X131488707Y-103957597D01*
X131488707Y-103957597D01*
G37*
G36*
X118788707Y-103957597D02*
X118865836Y-103965193D01*
X118997787Y-104005220D01*
X119063763Y-104025233D01*
X119246172Y-104122733D01*
X119406054Y-104253946D01*
X119537267Y-104413828D01*
X119634767Y-104596237D01*
X119634767Y-104596238D01*
X119694807Y-104794164D01*
X119715080Y-105000000D01*
X119694807Y-105205836D01*
X119654780Y-105337787D01*
X119634767Y-105403763D01*
X119537267Y-105586172D01*
X119406054Y-105746054D01*
X119246172Y-105877267D01*
X119063763Y-105974767D01*
X118997787Y-105994780D01*
X118865836Y-106034807D01*
X118788707Y-106042404D01*
X118711580Y-106050000D01*
X118608420Y-106050000D01*
X118531293Y-106042404D01*
X118454164Y-106034807D01*
X118322213Y-105994780D01*
X118256237Y-105974767D01*
X118073828Y-105877267D01*
X117913946Y-105746054D01*
X117782733Y-105586172D01*
X117685233Y-105403763D01*
X117665220Y-105337787D01*
X117625193Y-105205836D01*
X117604920Y-105000000D01*
X117625193Y-104794164D01*
X117685233Y-104596238D01*
X117685233Y-104596237D01*
X117782733Y-104413828D01*
X117913946Y-104253946D01*
X118073828Y-104122733D01*
X118256237Y-104025233D01*
X118322213Y-104005220D01*
X118454164Y-103965193D01*
X118531293Y-103957597D01*
X118608420Y-103950000D01*
X118711580Y-103950000D01*
X118788707Y-103957597D01*
X118788707Y-103957597D01*
G37*
G36*
X126408707Y-103957597D02*
X126485836Y-103965193D01*
X126617787Y-104005220D01*
X126683763Y-104025233D01*
X126866172Y-104122733D01*
X127026054Y-104253946D01*
X127157267Y-104413828D01*
X127254767Y-104596237D01*
X127254767Y-104596238D01*
X127314807Y-104794164D01*
X127335080Y-105000000D01*
X127314807Y-105205836D01*
X127274780Y-105337787D01*
X127254767Y-105403763D01*
X127157267Y-105586172D01*
X127026054Y-105746054D01*
X126866172Y-105877267D01*
X126683763Y-105974767D01*
X126617787Y-105994780D01*
X126485836Y-106034807D01*
X126408707Y-106042404D01*
X126331580Y-106050000D01*
X126228420Y-106050000D01*
X126151293Y-106042404D01*
X126074164Y-106034807D01*
X125942213Y-105994780D01*
X125876237Y-105974767D01*
X125693828Y-105877267D01*
X125533946Y-105746054D01*
X125402733Y-105586172D01*
X125305233Y-105403763D01*
X125285220Y-105337787D01*
X125245193Y-105205836D01*
X125224920Y-105000000D01*
X125245193Y-104794164D01*
X125305233Y-104596238D01*
X125305233Y-104596237D01*
X125402733Y-104413828D01*
X125533946Y-104253946D01*
X125693828Y-104122733D01*
X125876237Y-104025233D01*
X125942213Y-104005220D01*
X126074164Y-103965193D01*
X126151293Y-103957597D01*
X126228420Y-103950000D01*
X126331580Y-103950000D01*
X126408707Y-103957597D01*
X126408707Y-103957597D01*
G37*
G36*
X116248707Y-103957597D02*
X116325836Y-103965193D01*
X116457787Y-104005220D01*
X116523763Y-104025233D01*
X116706172Y-104122733D01*
X116866054Y-104253946D01*
X116997267Y-104413828D01*
X117094767Y-104596237D01*
X117094767Y-104596238D01*
X117154807Y-104794164D01*
X117175080Y-105000000D01*
X117154807Y-105205836D01*
X117114780Y-105337787D01*
X117094767Y-105403763D01*
X116997267Y-105586172D01*
X116866054Y-105746054D01*
X116706172Y-105877267D01*
X116523763Y-105974767D01*
X116457787Y-105994780D01*
X116325836Y-106034807D01*
X116248707Y-106042404D01*
X116171580Y-106050000D01*
X116068420Y-106050000D01*
X115991293Y-106042404D01*
X115914164Y-106034807D01*
X115782213Y-105994780D01*
X115716237Y-105974767D01*
X115533828Y-105877267D01*
X115373946Y-105746054D01*
X115242733Y-105586172D01*
X115145233Y-105403763D01*
X115125220Y-105337787D01*
X115085193Y-105205836D01*
X115064920Y-105000000D01*
X115085193Y-104794164D01*
X115145233Y-104596238D01*
X115145233Y-104596237D01*
X115242733Y-104413828D01*
X115373946Y-104253946D01*
X115533828Y-104122733D01*
X115716237Y-104025233D01*
X115782213Y-104005220D01*
X115914164Y-103965193D01*
X115991293Y-103957597D01*
X116068420Y-103950000D01*
X116171580Y-103950000D01*
X116248707Y-103957597D01*
X116248707Y-103957597D01*
G37*
G36*
X113708707Y-103957597D02*
X113785836Y-103965193D01*
X113917787Y-104005220D01*
X113983763Y-104025233D01*
X114166172Y-104122733D01*
X114326054Y-104253946D01*
X114457267Y-104413828D01*
X114554767Y-104596237D01*
X114554767Y-104596238D01*
X114614807Y-104794164D01*
X114635080Y-105000000D01*
X114614807Y-105205836D01*
X114574780Y-105337787D01*
X114554767Y-105403763D01*
X114457267Y-105586172D01*
X114326054Y-105746054D01*
X114166172Y-105877267D01*
X113983763Y-105974767D01*
X113917787Y-105994780D01*
X113785836Y-106034807D01*
X113708707Y-106042404D01*
X113631580Y-106050000D01*
X113528420Y-106050000D01*
X113451293Y-106042404D01*
X113374164Y-106034807D01*
X113242213Y-105994780D01*
X113176237Y-105974767D01*
X112993828Y-105877267D01*
X112833946Y-105746054D01*
X112702733Y-105586172D01*
X112605233Y-105403763D01*
X112585220Y-105337787D01*
X112545193Y-105205836D01*
X112524920Y-105000000D01*
X112545193Y-104794164D01*
X112605233Y-104596238D01*
X112605233Y-104596237D01*
X112702733Y-104413828D01*
X112833946Y-104253946D01*
X112993828Y-104122733D01*
X113176237Y-104025233D01*
X113242213Y-104005220D01*
X113374164Y-103965193D01*
X113451293Y-103957597D01*
X113528420Y-103950000D01*
X113631580Y-103950000D01*
X113708707Y-103957597D01*
X113708707Y-103957597D01*
G37*
G36*
X111168707Y-103957597D02*
X111245836Y-103965193D01*
X111377787Y-104005220D01*
X111443763Y-104025233D01*
X111626172Y-104122733D01*
X111786054Y-104253946D01*
X111917267Y-104413828D01*
X112014767Y-104596237D01*
X112014767Y-104596238D01*
X112074807Y-104794164D01*
X112095080Y-105000000D01*
X112074807Y-105205836D01*
X112034780Y-105337787D01*
X112014767Y-105403763D01*
X111917267Y-105586172D01*
X111786054Y-105746054D01*
X111626172Y-105877267D01*
X111443763Y-105974767D01*
X111377787Y-105994780D01*
X111245836Y-106034807D01*
X111168707Y-106042404D01*
X111091580Y-106050000D01*
X110988420Y-106050000D01*
X110911293Y-106042404D01*
X110834164Y-106034807D01*
X110702213Y-105994780D01*
X110636237Y-105974767D01*
X110453828Y-105877267D01*
X110293946Y-105746054D01*
X110162733Y-105586172D01*
X110065233Y-105403763D01*
X110045220Y-105337787D01*
X110005193Y-105205836D01*
X109984920Y-105000000D01*
X110005193Y-104794164D01*
X110065233Y-104596238D01*
X110065233Y-104596237D01*
X110162733Y-104413828D01*
X110293946Y-104253946D01*
X110453828Y-104122733D01*
X110636237Y-104025233D01*
X110702213Y-104005220D01*
X110834164Y-103965193D01*
X110911293Y-103957597D01*
X110988420Y-103950000D01*
X111091580Y-103950000D01*
X111168707Y-103957597D01*
X111168707Y-103957597D01*
G37*
G36*
X109550000Y-106050000D02*
X107450000Y-106050000D01*
X107450000Y-103950000D01*
X109550000Y-103950000D01*
X109550000Y-106050000D01*
X109550000Y-106050000D01*
G37*
G36*
X121328707Y-103957597D02*
X121405836Y-103965193D01*
X121537787Y-104005220D01*
X121603763Y-104025233D01*
X121786172Y-104122733D01*
X121946054Y-104253946D01*
X122077267Y-104413828D01*
X122174767Y-104596237D01*
X122174767Y-104596238D01*
X122234807Y-104794164D01*
X122255080Y-105000000D01*
X122234807Y-105205836D01*
X122194780Y-105337787D01*
X122174767Y-105403763D01*
X122077267Y-105586172D01*
X121946054Y-105746054D01*
X121786172Y-105877267D01*
X121603763Y-105974767D01*
X121537787Y-105994780D01*
X121405836Y-106034807D01*
X121328707Y-106042404D01*
X121251580Y-106050000D01*
X121148420Y-106050000D01*
X121071293Y-106042404D01*
X120994164Y-106034807D01*
X120862213Y-105994780D01*
X120796237Y-105974767D01*
X120613828Y-105877267D01*
X120453946Y-105746054D01*
X120322733Y-105586172D01*
X120225233Y-105403763D01*
X120205220Y-105337787D01*
X120165193Y-105205836D01*
X120144920Y-105000000D01*
X120165193Y-104794164D01*
X120225233Y-104596238D01*
X120225233Y-104596237D01*
X120322733Y-104413828D01*
X120453946Y-104253946D01*
X120613828Y-104122733D01*
X120796237Y-104025233D01*
X120862213Y-104005220D01*
X120994164Y-103965193D01*
X121071293Y-103957597D01*
X121148420Y-103950000D01*
X121251580Y-103950000D01*
X121328707Y-103957597D01*
X121328707Y-103957597D01*
G37*
G36*
X123868707Y-103957597D02*
X123945836Y-103965193D01*
X124077787Y-104005220D01*
X124143763Y-104025233D01*
X124326172Y-104122733D01*
X124486054Y-104253946D01*
X124617267Y-104413828D01*
X124714767Y-104596237D01*
X124714767Y-104596238D01*
X124774807Y-104794164D01*
X124795080Y-105000000D01*
X124774807Y-105205836D01*
X124734780Y-105337787D01*
X124714767Y-105403763D01*
X124617267Y-105586172D01*
X124486054Y-105746054D01*
X124326172Y-105877267D01*
X124143763Y-105974767D01*
X124077787Y-105994780D01*
X123945836Y-106034807D01*
X123868707Y-106042404D01*
X123791580Y-106050000D01*
X123688420Y-106050000D01*
X123611293Y-106042404D01*
X123534164Y-106034807D01*
X123402213Y-105994780D01*
X123336237Y-105974767D01*
X123153828Y-105877267D01*
X122993946Y-105746054D01*
X122862733Y-105586172D01*
X122765233Y-105403763D01*
X122745220Y-105337787D01*
X122705193Y-105205836D01*
X122684920Y-105000000D01*
X122705193Y-104794164D01*
X122765233Y-104596238D01*
X122765233Y-104596237D01*
X122862733Y-104413828D01*
X122993946Y-104253946D01*
X123153828Y-104122733D01*
X123336237Y-104025233D01*
X123402213Y-104005220D01*
X123534164Y-103965193D01*
X123611293Y-103957597D01*
X123688420Y-103950000D01*
X123791580Y-103950000D01*
X123868707Y-103957597D01*
X123868707Y-103957597D01*
G37*
G36*
X134028707Y-101417597D02*
X134105836Y-101425193D01*
X134237787Y-101465220D01*
X134303763Y-101485233D01*
X134486172Y-101582733D01*
X134646054Y-101713946D01*
X134777267Y-101873828D01*
X134874767Y-102056237D01*
X134874767Y-102056238D01*
X134934807Y-102254164D01*
X134955080Y-102460000D01*
X134934807Y-102665836D01*
X134894780Y-102797787D01*
X134874767Y-102863763D01*
X134777267Y-103046172D01*
X134646054Y-103206054D01*
X134486172Y-103337267D01*
X134303763Y-103434767D01*
X134237787Y-103454780D01*
X134105836Y-103494807D01*
X134028707Y-103502404D01*
X133951580Y-103510000D01*
X133848420Y-103510000D01*
X133771293Y-103502404D01*
X133694164Y-103494807D01*
X133562213Y-103454780D01*
X133496237Y-103434767D01*
X133313828Y-103337267D01*
X133153946Y-103206054D01*
X133022733Y-103046172D01*
X132925233Y-102863763D01*
X132905220Y-102797787D01*
X132865193Y-102665836D01*
X132844920Y-102460000D01*
X132865193Y-102254164D01*
X132925233Y-102056238D01*
X132925233Y-102056237D01*
X133022733Y-101873828D01*
X133153946Y-101713946D01*
X133313828Y-101582733D01*
X133496237Y-101485233D01*
X133562213Y-101465220D01*
X133694164Y-101425193D01*
X133771293Y-101417597D01*
X133848420Y-101410000D01*
X133951580Y-101410000D01*
X134028707Y-101417597D01*
X134028707Y-101417597D01*
G37*
G36*
X108628707Y-101417597D02*
X108705836Y-101425193D01*
X108837787Y-101465220D01*
X108903763Y-101485233D01*
X109086172Y-101582733D01*
X109246054Y-101713946D01*
X109377267Y-101873828D01*
X109474767Y-102056237D01*
X109474767Y-102056238D01*
X109534807Y-102254164D01*
X109555080Y-102460000D01*
X109534807Y-102665836D01*
X109494780Y-102797787D01*
X109474767Y-102863763D01*
X109377267Y-103046172D01*
X109246054Y-103206054D01*
X109086172Y-103337267D01*
X108903763Y-103434767D01*
X108837787Y-103454780D01*
X108705836Y-103494807D01*
X108628707Y-103502404D01*
X108551580Y-103510000D01*
X108448420Y-103510000D01*
X108371293Y-103502404D01*
X108294164Y-103494807D01*
X108162213Y-103454780D01*
X108096237Y-103434767D01*
X107913828Y-103337267D01*
X107753946Y-103206054D01*
X107622733Y-103046172D01*
X107525233Y-102863763D01*
X107505220Y-102797787D01*
X107465193Y-102665836D01*
X107444920Y-102460000D01*
X107465193Y-102254164D01*
X107525233Y-102056238D01*
X107525233Y-102056237D01*
X107622733Y-101873828D01*
X107753946Y-101713946D01*
X107913828Y-101582733D01*
X108096237Y-101485233D01*
X108162213Y-101465220D01*
X108294164Y-101425193D01*
X108371293Y-101417597D01*
X108448420Y-101410000D01*
X108551580Y-101410000D01*
X108628707Y-101417597D01*
X108628707Y-101417597D01*
G37*
G36*
X131488707Y-101417597D02*
X131565836Y-101425193D01*
X131697787Y-101465220D01*
X131763763Y-101485233D01*
X131946172Y-101582733D01*
X132106054Y-101713946D01*
X132237267Y-101873828D01*
X132334767Y-102056237D01*
X132334767Y-102056238D01*
X132394807Y-102254164D01*
X132415080Y-102460000D01*
X132394807Y-102665836D01*
X132354780Y-102797787D01*
X132334767Y-102863763D01*
X132237267Y-103046172D01*
X132106054Y-103206054D01*
X131946172Y-103337267D01*
X131763763Y-103434767D01*
X131697787Y-103454780D01*
X131565836Y-103494807D01*
X131488707Y-103502404D01*
X131411580Y-103510000D01*
X131308420Y-103510000D01*
X131231293Y-103502404D01*
X131154164Y-103494807D01*
X131022213Y-103454780D01*
X130956237Y-103434767D01*
X130773828Y-103337267D01*
X130613946Y-103206054D01*
X130482733Y-103046172D01*
X130385233Y-102863763D01*
X130365220Y-102797787D01*
X130325193Y-102665836D01*
X130304920Y-102460000D01*
X130325193Y-102254164D01*
X130385233Y-102056238D01*
X130385233Y-102056237D01*
X130482733Y-101873828D01*
X130613946Y-101713946D01*
X130773828Y-101582733D01*
X130956237Y-101485233D01*
X131022213Y-101465220D01*
X131154164Y-101425193D01*
X131231293Y-101417597D01*
X131308420Y-101410000D01*
X131411580Y-101410000D01*
X131488707Y-101417597D01*
X131488707Y-101417597D01*
G37*
G36*
X136568707Y-101417597D02*
X136645836Y-101425193D01*
X136777787Y-101465220D01*
X136843763Y-101485233D01*
X137026172Y-101582733D01*
X137186054Y-101713946D01*
X137317267Y-101873828D01*
X137414767Y-102056237D01*
X137414767Y-102056238D01*
X137474807Y-102254164D01*
X137495080Y-102460000D01*
X137474807Y-102665836D01*
X137434780Y-102797787D01*
X137414767Y-102863763D01*
X137317267Y-103046172D01*
X137186054Y-103206054D01*
X137026172Y-103337267D01*
X136843763Y-103434767D01*
X136777787Y-103454780D01*
X136645836Y-103494807D01*
X136568707Y-103502404D01*
X136491580Y-103510000D01*
X136388420Y-103510000D01*
X136311293Y-103502404D01*
X136234164Y-103494807D01*
X136102213Y-103454780D01*
X136036237Y-103434767D01*
X135853828Y-103337267D01*
X135693946Y-103206054D01*
X135562733Y-103046172D01*
X135465233Y-102863763D01*
X135445220Y-102797787D01*
X135405193Y-102665836D01*
X135384920Y-102460000D01*
X135405193Y-102254164D01*
X135465233Y-102056238D01*
X135465233Y-102056237D01*
X135562733Y-101873828D01*
X135693946Y-101713946D01*
X135853828Y-101582733D01*
X136036237Y-101485233D01*
X136102213Y-101465220D01*
X136234164Y-101425193D01*
X136311293Y-101417597D01*
X136388420Y-101410000D01*
X136491580Y-101410000D01*
X136568707Y-101417597D01*
X136568707Y-101417597D01*
G37*
G36*
X113708707Y-101417597D02*
X113785836Y-101425193D01*
X113917787Y-101465220D01*
X113983763Y-101485233D01*
X114166172Y-101582733D01*
X114326054Y-101713946D01*
X114457267Y-101873828D01*
X114554767Y-102056237D01*
X114554767Y-102056238D01*
X114614807Y-102254164D01*
X114635080Y-102460000D01*
X114614807Y-102665836D01*
X114574780Y-102797787D01*
X114554767Y-102863763D01*
X114457267Y-103046172D01*
X114326054Y-103206054D01*
X114166172Y-103337267D01*
X113983763Y-103434767D01*
X113917787Y-103454780D01*
X113785836Y-103494807D01*
X113708707Y-103502404D01*
X113631580Y-103510000D01*
X113528420Y-103510000D01*
X113451293Y-103502404D01*
X113374164Y-103494807D01*
X113242213Y-103454780D01*
X113176237Y-103434767D01*
X112993828Y-103337267D01*
X112833946Y-103206054D01*
X112702733Y-103046172D01*
X112605233Y-102863763D01*
X112585220Y-102797787D01*
X112545193Y-102665836D01*
X112524920Y-102460000D01*
X112545193Y-102254164D01*
X112605233Y-102056238D01*
X112605233Y-102056237D01*
X112702733Y-101873828D01*
X112833946Y-101713946D01*
X112993828Y-101582733D01*
X113176237Y-101485233D01*
X113242213Y-101465220D01*
X113374164Y-101425193D01*
X113451293Y-101417597D01*
X113528420Y-101410000D01*
X113631580Y-101410000D01*
X113708707Y-101417597D01*
X113708707Y-101417597D01*
G37*
G36*
X116248707Y-101417597D02*
X116325836Y-101425193D01*
X116457787Y-101465220D01*
X116523763Y-101485233D01*
X116706172Y-101582733D01*
X116866054Y-101713946D01*
X116997267Y-101873828D01*
X117094767Y-102056237D01*
X117094767Y-102056238D01*
X117154807Y-102254164D01*
X117175080Y-102460000D01*
X117154807Y-102665836D01*
X117114780Y-102797787D01*
X117094767Y-102863763D01*
X116997267Y-103046172D01*
X116866054Y-103206054D01*
X116706172Y-103337267D01*
X116523763Y-103434767D01*
X116457787Y-103454780D01*
X116325836Y-103494807D01*
X116248707Y-103502404D01*
X116171580Y-103510000D01*
X116068420Y-103510000D01*
X115991293Y-103502404D01*
X115914164Y-103494807D01*
X115782213Y-103454780D01*
X115716237Y-103434767D01*
X115533828Y-103337267D01*
X115373946Y-103206054D01*
X115242733Y-103046172D01*
X115145233Y-102863763D01*
X115125220Y-102797787D01*
X115085193Y-102665836D01*
X115064920Y-102460000D01*
X115085193Y-102254164D01*
X115145233Y-102056238D01*
X115145233Y-102056237D01*
X115242733Y-101873828D01*
X115373946Y-101713946D01*
X115533828Y-101582733D01*
X115716237Y-101485233D01*
X115782213Y-101465220D01*
X115914164Y-101425193D01*
X115991293Y-101417597D01*
X116068420Y-101410000D01*
X116171580Y-101410000D01*
X116248707Y-101417597D01*
X116248707Y-101417597D01*
G37*
G36*
X118788707Y-101417597D02*
X118865836Y-101425193D01*
X118997787Y-101465220D01*
X119063763Y-101485233D01*
X119246172Y-101582733D01*
X119406054Y-101713946D01*
X119537267Y-101873828D01*
X119634767Y-102056237D01*
X119634767Y-102056238D01*
X119694807Y-102254164D01*
X119715080Y-102460000D01*
X119694807Y-102665836D01*
X119654780Y-102797787D01*
X119634767Y-102863763D01*
X119537267Y-103046172D01*
X119406054Y-103206054D01*
X119246172Y-103337267D01*
X119063763Y-103434767D01*
X118997787Y-103454780D01*
X118865836Y-103494807D01*
X118788707Y-103502404D01*
X118711580Y-103510000D01*
X118608420Y-103510000D01*
X118531293Y-103502404D01*
X118454164Y-103494807D01*
X118322213Y-103454780D01*
X118256237Y-103434767D01*
X118073828Y-103337267D01*
X117913946Y-103206054D01*
X117782733Y-103046172D01*
X117685233Y-102863763D01*
X117665220Y-102797787D01*
X117625193Y-102665836D01*
X117604920Y-102460000D01*
X117625193Y-102254164D01*
X117685233Y-102056238D01*
X117685233Y-102056237D01*
X117782733Y-101873828D01*
X117913946Y-101713946D01*
X118073828Y-101582733D01*
X118256237Y-101485233D01*
X118322213Y-101465220D01*
X118454164Y-101425193D01*
X118531293Y-101417597D01*
X118608420Y-101410000D01*
X118711580Y-101410000D01*
X118788707Y-101417597D01*
X118788707Y-101417597D01*
G37*
G36*
X121328707Y-101417597D02*
X121405836Y-101425193D01*
X121537787Y-101465220D01*
X121603763Y-101485233D01*
X121786172Y-101582733D01*
X121946054Y-101713946D01*
X122077267Y-101873828D01*
X122174767Y-102056237D01*
X122174767Y-102056238D01*
X122234807Y-102254164D01*
X122255080Y-102460000D01*
X122234807Y-102665836D01*
X122194780Y-102797787D01*
X122174767Y-102863763D01*
X122077267Y-103046172D01*
X121946054Y-103206054D01*
X121786172Y-103337267D01*
X121603763Y-103434767D01*
X121537787Y-103454780D01*
X121405836Y-103494807D01*
X121328707Y-103502404D01*
X121251580Y-103510000D01*
X121148420Y-103510000D01*
X121071293Y-103502404D01*
X120994164Y-103494807D01*
X120862213Y-103454780D01*
X120796237Y-103434767D01*
X120613828Y-103337267D01*
X120453946Y-103206054D01*
X120322733Y-103046172D01*
X120225233Y-102863763D01*
X120205220Y-102797787D01*
X120165193Y-102665836D01*
X120144920Y-102460000D01*
X120165193Y-102254164D01*
X120225233Y-102056238D01*
X120225233Y-102056237D01*
X120322733Y-101873828D01*
X120453946Y-101713946D01*
X120613828Y-101582733D01*
X120796237Y-101485233D01*
X120862213Y-101465220D01*
X120994164Y-101425193D01*
X121071293Y-101417597D01*
X121148420Y-101410000D01*
X121251580Y-101410000D01*
X121328707Y-101417597D01*
X121328707Y-101417597D01*
G37*
G36*
X123868707Y-101417597D02*
X123945836Y-101425193D01*
X124077787Y-101465220D01*
X124143763Y-101485233D01*
X124326172Y-101582733D01*
X124486054Y-101713946D01*
X124617267Y-101873828D01*
X124714767Y-102056237D01*
X124714767Y-102056238D01*
X124774807Y-102254164D01*
X124795080Y-102460000D01*
X124774807Y-102665836D01*
X124734780Y-102797787D01*
X124714767Y-102863763D01*
X124617267Y-103046172D01*
X124486054Y-103206054D01*
X124326172Y-103337267D01*
X124143763Y-103434767D01*
X124077787Y-103454780D01*
X123945836Y-103494807D01*
X123868707Y-103502404D01*
X123791580Y-103510000D01*
X123688420Y-103510000D01*
X123611293Y-103502404D01*
X123534164Y-103494807D01*
X123402213Y-103454780D01*
X123336237Y-103434767D01*
X123153828Y-103337267D01*
X122993946Y-103206054D01*
X122862733Y-103046172D01*
X122765233Y-102863763D01*
X122745220Y-102797787D01*
X122705193Y-102665836D01*
X122684920Y-102460000D01*
X122705193Y-102254164D01*
X122765233Y-102056238D01*
X122765233Y-102056237D01*
X122862733Y-101873828D01*
X122993946Y-101713946D01*
X123153828Y-101582733D01*
X123336237Y-101485233D01*
X123402213Y-101465220D01*
X123534164Y-101425193D01*
X123611293Y-101417597D01*
X123688420Y-101410000D01*
X123791580Y-101410000D01*
X123868707Y-101417597D01*
X123868707Y-101417597D01*
G37*
G36*
X126408707Y-101417597D02*
X126485836Y-101425193D01*
X126617787Y-101465220D01*
X126683763Y-101485233D01*
X126866172Y-101582733D01*
X127026054Y-101713946D01*
X127157267Y-101873828D01*
X127254767Y-102056237D01*
X127254767Y-102056238D01*
X127314807Y-102254164D01*
X127335080Y-102460000D01*
X127314807Y-102665836D01*
X127274780Y-102797787D01*
X127254767Y-102863763D01*
X127157267Y-103046172D01*
X127026054Y-103206054D01*
X126866172Y-103337267D01*
X126683763Y-103434767D01*
X126617787Y-103454780D01*
X126485836Y-103494807D01*
X126408707Y-103502404D01*
X126331580Y-103510000D01*
X126228420Y-103510000D01*
X126151293Y-103502404D01*
X126074164Y-103494807D01*
X125942213Y-103454780D01*
X125876237Y-103434767D01*
X125693828Y-103337267D01*
X125533946Y-103206054D01*
X125402733Y-103046172D01*
X125305233Y-102863763D01*
X125285220Y-102797787D01*
X125245193Y-102665836D01*
X125224920Y-102460000D01*
X125245193Y-102254164D01*
X125305233Y-102056238D01*
X125305233Y-102056237D01*
X125402733Y-101873828D01*
X125533946Y-101713946D01*
X125693828Y-101582733D01*
X125876237Y-101485233D01*
X125942213Y-101465220D01*
X126074164Y-101425193D01*
X126151293Y-101417597D01*
X126228420Y-101410000D01*
X126331580Y-101410000D01*
X126408707Y-101417597D01*
X126408707Y-101417597D01*
G37*
G36*
X128948707Y-101417597D02*
X129025836Y-101425193D01*
X129157787Y-101465220D01*
X129223763Y-101485233D01*
X129406172Y-101582733D01*
X129566054Y-101713946D01*
X129697267Y-101873828D01*
X129794767Y-102056237D01*
X129794767Y-102056238D01*
X129854807Y-102254164D01*
X129875080Y-102460000D01*
X129854807Y-102665836D01*
X129814780Y-102797787D01*
X129794767Y-102863763D01*
X129697267Y-103046172D01*
X129566054Y-103206054D01*
X129406172Y-103337267D01*
X129223763Y-103434767D01*
X129157787Y-103454780D01*
X129025836Y-103494807D01*
X128948707Y-103502404D01*
X128871580Y-103510000D01*
X128768420Y-103510000D01*
X128691293Y-103502404D01*
X128614164Y-103494807D01*
X128482213Y-103454780D01*
X128416237Y-103434767D01*
X128233828Y-103337267D01*
X128073946Y-103206054D01*
X127942733Y-103046172D01*
X127845233Y-102863763D01*
X127825220Y-102797787D01*
X127785193Y-102665836D01*
X127764920Y-102460000D01*
X127785193Y-102254164D01*
X127845233Y-102056238D01*
X127845233Y-102056237D01*
X127942733Y-101873828D01*
X128073946Y-101713946D01*
X128233828Y-101582733D01*
X128416237Y-101485233D01*
X128482213Y-101465220D01*
X128614164Y-101425193D01*
X128691293Y-101417597D01*
X128768420Y-101410000D01*
X128871580Y-101410000D01*
X128948707Y-101417597D01*
X128948707Y-101417597D01*
G37*
G36*
X156888707Y-101417597D02*
X156965836Y-101425193D01*
X157097787Y-101465220D01*
X157163763Y-101485233D01*
X157346172Y-101582733D01*
X157506054Y-101713946D01*
X157637267Y-101873828D01*
X157734767Y-102056237D01*
X157734767Y-102056238D01*
X157794807Y-102254164D01*
X157815080Y-102460000D01*
X157794807Y-102665836D01*
X157754780Y-102797787D01*
X157734767Y-102863763D01*
X157637267Y-103046172D01*
X157506054Y-103206054D01*
X157346172Y-103337267D01*
X157163763Y-103434767D01*
X157097787Y-103454780D01*
X156965836Y-103494807D01*
X156888707Y-103502404D01*
X156811580Y-103510000D01*
X156708420Y-103510000D01*
X156631293Y-103502404D01*
X156554164Y-103494807D01*
X156422213Y-103454780D01*
X156356237Y-103434767D01*
X156173828Y-103337267D01*
X156013946Y-103206054D01*
X155882733Y-103046172D01*
X155785233Y-102863763D01*
X155765220Y-102797787D01*
X155725193Y-102665836D01*
X155704920Y-102460000D01*
X155725193Y-102254164D01*
X155785233Y-102056238D01*
X155785233Y-102056237D01*
X155882733Y-101873828D01*
X156013946Y-101713946D01*
X156173828Y-101582733D01*
X156356237Y-101485233D01*
X156422213Y-101465220D01*
X156554164Y-101425193D01*
X156631293Y-101417597D01*
X156708420Y-101410000D01*
X156811580Y-101410000D01*
X156888707Y-101417597D01*
X156888707Y-101417597D01*
G37*
G36*
X154348707Y-101417597D02*
X154425836Y-101425193D01*
X154557787Y-101465220D01*
X154623763Y-101485233D01*
X154806172Y-101582733D01*
X154966054Y-101713946D01*
X155097267Y-101873828D01*
X155194767Y-102056237D01*
X155194767Y-102056238D01*
X155254807Y-102254164D01*
X155275080Y-102460000D01*
X155254807Y-102665836D01*
X155214780Y-102797787D01*
X155194767Y-102863763D01*
X155097267Y-103046172D01*
X154966054Y-103206054D01*
X154806172Y-103337267D01*
X154623763Y-103434767D01*
X154557787Y-103454780D01*
X154425836Y-103494807D01*
X154348707Y-103502404D01*
X154271580Y-103510000D01*
X154168420Y-103510000D01*
X154091293Y-103502404D01*
X154014164Y-103494807D01*
X153882213Y-103454780D01*
X153816237Y-103434767D01*
X153633828Y-103337267D01*
X153473946Y-103206054D01*
X153342733Y-103046172D01*
X153245233Y-102863763D01*
X153225220Y-102797787D01*
X153185193Y-102665836D01*
X153164920Y-102460000D01*
X153185193Y-102254164D01*
X153245233Y-102056238D01*
X153245233Y-102056237D01*
X153342733Y-101873828D01*
X153473946Y-101713946D01*
X153633828Y-101582733D01*
X153816237Y-101485233D01*
X153882213Y-101465220D01*
X154014164Y-101425193D01*
X154091293Y-101417597D01*
X154168420Y-101410000D01*
X154271580Y-101410000D01*
X154348707Y-101417597D01*
X154348707Y-101417597D01*
G37*
G36*
X151808707Y-101417597D02*
X151885836Y-101425193D01*
X152017787Y-101465220D01*
X152083763Y-101485233D01*
X152266172Y-101582733D01*
X152426054Y-101713946D01*
X152557267Y-101873828D01*
X152654767Y-102056237D01*
X152654767Y-102056238D01*
X152714807Y-102254164D01*
X152735080Y-102460000D01*
X152714807Y-102665836D01*
X152674780Y-102797787D01*
X152654767Y-102863763D01*
X152557267Y-103046172D01*
X152426054Y-103206054D01*
X152266172Y-103337267D01*
X152083763Y-103434767D01*
X152017787Y-103454780D01*
X151885836Y-103494807D01*
X151808707Y-103502404D01*
X151731580Y-103510000D01*
X151628420Y-103510000D01*
X151551293Y-103502404D01*
X151474164Y-103494807D01*
X151342213Y-103454780D01*
X151276237Y-103434767D01*
X151093828Y-103337267D01*
X150933946Y-103206054D01*
X150802733Y-103046172D01*
X150705233Y-102863763D01*
X150685220Y-102797787D01*
X150645193Y-102665836D01*
X150624920Y-102460000D01*
X150645193Y-102254164D01*
X150705233Y-102056238D01*
X150705233Y-102056237D01*
X150802733Y-101873828D01*
X150933946Y-101713946D01*
X151093828Y-101582733D01*
X151276237Y-101485233D01*
X151342213Y-101465220D01*
X151474164Y-101425193D01*
X151551293Y-101417597D01*
X151628420Y-101410000D01*
X151731580Y-101410000D01*
X151808707Y-101417597D01*
X151808707Y-101417597D01*
G37*
G36*
X139108707Y-101417597D02*
X139185836Y-101425193D01*
X139317787Y-101465220D01*
X139383763Y-101485233D01*
X139566172Y-101582733D01*
X139726054Y-101713946D01*
X139857267Y-101873828D01*
X139954767Y-102056237D01*
X139954767Y-102056238D01*
X140014807Y-102254164D01*
X140035080Y-102460000D01*
X140014807Y-102665836D01*
X139974780Y-102797787D01*
X139954767Y-102863763D01*
X139857267Y-103046172D01*
X139726054Y-103206054D01*
X139566172Y-103337267D01*
X139383763Y-103434767D01*
X139317787Y-103454780D01*
X139185836Y-103494807D01*
X139108707Y-103502404D01*
X139031580Y-103510000D01*
X138928420Y-103510000D01*
X138851293Y-103502404D01*
X138774164Y-103494807D01*
X138642213Y-103454780D01*
X138576237Y-103434767D01*
X138393828Y-103337267D01*
X138233946Y-103206054D01*
X138102733Y-103046172D01*
X138005233Y-102863763D01*
X137985220Y-102797787D01*
X137945193Y-102665836D01*
X137924920Y-102460000D01*
X137945193Y-102254164D01*
X138005233Y-102056238D01*
X138005233Y-102056237D01*
X138102733Y-101873828D01*
X138233946Y-101713946D01*
X138393828Y-101582733D01*
X138576237Y-101485233D01*
X138642213Y-101465220D01*
X138774164Y-101425193D01*
X138851293Y-101417597D01*
X138928420Y-101410000D01*
X139031580Y-101410000D01*
X139108707Y-101417597D01*
X139108707Y-101417597D01*
G37*
G36*
X111168707Y-101417597D02*
X111245836Y-101425193D01*
X111377787Y-101465220D01*
X111443763Y-101485233D01*
X111626172Y-101582733D01*
X111786054Y-101713946D01*
X111917267Y-101873828D01*
X112014767Y-102056237D01*
X112014767Y-102056238D01*
X112074807Y-102254164D01*
X112095080Y-102460000D01*
X112074807Y-102665836D01*
X112034780Y-102797787D01*
X112014767Y-102863763D01*
X111917267Y-103046172D01*
X111786054Y-103206054D01*
X111626172Y-103337267D01*
X111443763Y-103434767D01*
X111377787Y-103454780D01*
X111245836Y-103494807D01*
X111168707Y-103502404D01*
X111091580Y-103510000D01*
X110988420Y-103510000D01*
X110911293Y-103502404D01*
X110834164Y-103494807D01*
X110702213Y-103454780D01*
X110636237Y-103434767D01*
X110453828Y-103337267D01*
X110293946Y-103206054D01*
X110162733Y-103046172D01*
X110065233Y-102863763D01*
X110045220Y-102797787D01*
X110005193Y-102665836D01*
X109984920Y-102460000D01*
X110005193Y-102254164D01*
X110065233Y-102056238D01*
X110065233Y-102056237D01*
X110162733Y-101873828D01*
X110293946Y-101713946D01*
X110453828Y-101582733D01*
X110636237Y-101485233D01*
X110702213Y-101465220D01*
X110834164Y-101425193D01*
X110911293Y-101417597D01*
X110988420Y-101410000D01*
X111091580Y-101410000D01*
X111168707Y-101417597D01*
X111168707Y-101417597D01*
G37*
G36*
X141648707Y-101417597D02*
X141725836Y-101425193D01*
X141857787Y-101465220D01*
X141923763Y-101485233D01*
X142106172Y-101582733D01*
X142266054Y-101713946D01*
X142397267Y-101873828D01*
X142494767Y-102056237D01*
X142494767Y-102056238D01*
X142554807Y-102254164D01*
X142575080Y-102460000D01*
X142554807Y-102665836D01*
X142514780Y-102797787D01*
X142494767Y-102863763D01*
X142397267Y-103046172D01*
X142266054Y-103206054D01*
X142106172Y-103337267D01*
X141923763Y-103434767D01*
X141857787Y-103454780D01*
X141725836Y-103494807D01*
X141648707Y-103502404D01*
X141571580Y-103510000D01*
X141468420Y-103510000D01*
X141391293Y-103502404D01*
X141314164Y-103494807D01*
X141182213Y-103454780D01*
X141116237Y-103434767D01*
X140933828Y-103337267D01*
X140773946Y-103206054D01*
X140642733Y-103046172D01*
X140545233Y-102863763D01*
X140525220Y-102797787D01*
X140485193Y-102665836D01*
X140464920Y-102460000D01*
X140485193Y-102254164D01*
X140545233Y-102056238D01*
X140545233Y-102056237D01*
X140642733Y-101873828D01*
X140773946Y-101713946D01*
X140933828Y-101582733D01*
X141116237Y-101485233D01*
X141182213Y-101465220D01*
X141314164Y-101425193D01*
X141391293Y-101417597D01*
X141468420Y-101410000D01*
X141571580Y-101410000D01*
X141648707Y-101417597D01*
X141648707Y-101417597D01*
G37*
G36*
X149268707Y-101417597D02*
X149345836Y-101425193D01*
X149477787Y-101465220D01*
X149543763Y-101485233D01*
X149726172Y-101582733D01*
X149886054Y-101713946D01*
X150017267Y-101873828D01*
X150114767Y-102056237D01*
X150114767Y-102056238D01*
X150174807Y-102254164D01*
X150195080Y-102460000D01*
X150174807Y-102665836D01*
X150134780Y-102797787D01*
X150114767Y-102863763D01*
X150017267Y-103046172D01*
X149886054Y-103206054D01*
X149726172Y-103337267D01*
X149543763Y-103434767D01*
X149477787Y-103454780D01*
X149345836Y-103494807D01*
X149268707Y-103502404D01*
X149191580Y-103510000D01*
X149088420Y-103510000D01*
X149011293Y-103502404D01*
X148934164Y-103494807D01*
X148802213Y-103454780D01*
X148736237Y-103434767D01*
X148553828Y-103337267D01*
X148393946Y-103206054D01*
X148262733Y-103046172D01*
X148165233Y-102863763D01*
X148145220Y-102797787D01*
X148105193Y-102665836D01*
X148084920Y-102460000D01*
X148105193Y-102254164D01*
X148165233Y-102056238D01*
X148165233Y-102056237D01*
X148262733Y-101873828D01*
X148393946Y-101713946D01*
X148553828Y-101582733D01*
X148736237Y-101485233D01*
X148802213Y-101465220D01*
X148934164Y-101425193D01*
X149011293Y-101417597D01*
X149088420Y-101410000D01*
X149191580Y-101410000D01*
X149268707Y-101417597D01*
X149268707Y-101417597D01*
G37*
G36*
X144188707Y-101417597D02*
X144265836Y-101425193D01*
X144397787Y-101465220D01*
X144463763Y-101485233D01*
X144646172Y-101582733D01*
X144806054Y-101713946D01*
X144937267Y-101873828D01*
X145034767Y-102056237D01*
X145034767Y-102056238D01*
X145094807Y-102254164D01*
X145115080Y-102460000D01*
X145094807Y-102665836D01*
X145054780Y-102797787D01*
X145034767Y-102863763D01*
X144937267Y-103046172D01*
X144806054Y-103206054D01*
X144646172Y-103337267D01*
X144463763Y-103434767D01*
X144397787Y-103454780D01*
X144265836Y-103494807D01*
X144188707Y-103502404D01*
X144111580Y-103510000D01*
X144008420Y-103510000D01*
X143931293Y-103502404D01*
X143854164Y-103494807D01*
X143722213Y-103454780D01*
X143656237Y-103434767D01*
X143473828Y-103337267D01*
X143313946Y-103206054D01*
X143182733Y-103046172D01*
X143085233Y-102863763D01*
X143065220Y-102797787D01*
X143025193Y-102665836D01*
X143004920Y-102460000D01*
X143025193Y-102254164D01*
X143085233Y-102056238D01*
X143085233Y-102056237D01*
X143182733Y-101873828D01*
X143313946Y-101713946D01*
X143473828Y-101582733D01*
X143656237Y-101485233D01*
X143722213Y-101465220D01*
X143854164Y-101425193D01*
X143931293Y-101417597D01*
X144008420Y-101410000D01*
X144111580Y-101410000D01*
X144188707Y-101417597D01*
X144188707Y-101417597D01*
G37*
G36*
X146728707Y-101417597D02*
X146805836Y-101425193D01*
X146937787Y-101465220D01*
X147003763Y-101485233D01*
X147186172Y-101582733D01*
X147346054Y-101713946D01*
X147477267Y-101873828D01*
X147574767Y-102056237D01*
X147574767Y-102056238D01*
X147634807Y-102254164D01*
X147655080Y-102460000D01*
X147634807Y-102665836D01*
X147594780Y-102797787D01*
X147574767Y-102863763D01*
X147477267Y-103046172D01*
X147346054Y-103206054D01*
X147186172Y-103337267D01*
X147003763Y-103434767D01*
X146937787Y-103454780D01*
X146805836Y-103494807D01*
X146728707Y-103502404D01*
X146651580Y-103510000D01*
X146548420Y-103510000D01*
X146471293Y-103502404D01*
X146394164Y-103494807D01*
X146262213Y-103454780D01*
X146196237Y-103434767D01*
X146013828Y-103337267D01*
X145853946Y-103206054D01*
X145722733Y-103046172D01*
X145625233Y-102863763D01*
X145605220Y-102797787D01*
X145565193Y-102665836D01*
X145544920Y-102460000D01*
X145565193Y-102254164D01*
X145625233Y-102056238D01*
X145625233Y-102056237D01*
X145722733Y-101873828D01*
X145853946Y-101713946D01*
X146013828Y-101582733D01*
X146196237Y-101485233D01*
X146262213Y-101465220D01*
X146394164Y-101425193D01*
X146471293Y-101417597D01*
X146548420Y-101410000D01*
X146651580Y-101410000D01*
X146728707Y-101417597D01*
X146728707Y-101417597D01*
G37*
M02*
