M48
;DRILL file {KiCad 5.0.0-rc2-dev-unknown-2230abd~62~ubuntu16.04.1} date Mon Mar 12 21:04:30 2018
;FORMAT={-:-/ absolute / inch / decimal}
FMAT,2
INCH,TZ
T1C0.0157
T2C0.0315
T3C0.0319
T4C0.0374
T5C0.0394
T6C0.0906
%
G90
G05
M72
T1
X4.109Y-5.3589
X4.147Y-6.6733
X4.2344Y-5.3589
X4.3217Y-4.4839
X4.327Y-6.1333
X4.3717Y-4.4839
X4.3717Y-5.3589
X4.4217Y-4.4839
X4.4717Y-4.4839
X4.5062Y-6.6755
X4.5217Y-4.4839
X4.5217Y-5.2339
X4.5698Y-4.3801
X4.5983Y-4.4533
X4.637Y-5.4133
X4.637Y-5.6733
X4.637Y-6.2233
X4.757Y-6.1633
X4.807Y-6.1948
X4.837Y-6.2633
X4.867Y-6.3033
X4.887Y-6.6733
X5.167Y-4.4233
X5.267Y-4.4233
X5.317Y-4.4233
X5.387Y-4.5033
X5.487Y-4.5733
X5.497Y-5.7133
X5.517Y-3.9133
X5.537Y-5.3233
X5.5372Y-5.3635
X5.547Y-5.4033
X5.5584Y-6.7847
X5.637Y-5.9033
X5.687Y-4.7633
X5.717Y-4.5533
X5.787Y-5.7533
X5.797Y-5.3633
X5.8364Y-5.3233
X5.8364Y-5.4033
X5.837Y-5.3633
X5.877Y-5.3633
X6.327Y-4.1833
X6.357Y-4.0833
X6.387Y-4.0333
T2
X5.9055Y-4.8622
X5.9055Y-5.
X5.307Y-6.2133
X5.307Y-6.3133
X5.307Y-6.4133
X5.307Y-6.5133
X5.607Y-6.2133
X5.607Y-6.3133
X5.607Y-6.4133
X5.607Y-6.5133
T3
X6.1467Y-5.5339
X6.1467Y-5.6339
X6.2254Y-5.5339
X6.2254Y-5.6339
T4
X4.1217Y-4.337
X4.1217Y-4.4354
X4.1217Y-4.5339
X4.1217Y-4.6323
X5.4331Y-4.3701
X5.5315Y-4.3701
X5.6299Y-4.3701
X5.7283Y-4.3701
X5.8268Y-4.3701
X5.9252Y-4.3701
X6.0236Y-4.3701
X6.122Y-4.3701
T5
X4.9024Y-6.4005
X5.0009Y-6.4005
X4.5328Y-6.4005
X4.6312Y-6.4005
X4.757Y-5.3833
X4.757Y-5.4833
X4.757Y-5.5833
X4.757Y-5.6833
X4.2717Y-4.0339
X4.2717Y-4.1339
X4.3717Y-4.0339
X4.3717Y-4.1339
X4.4717Y-4.0339
X4.4717Y-4.1339
X4.5717Y-4.0339
X4.5717Y-4.1339
X4.6717Y-4.0339
X4.6717Y-4.1339
X4.7717Y-4.0339
X4.7717Y-4.1339
X4.8717Y-4.0339
X4.8717Y-4.1339
X4.9717Y-4.0339
X4.9717Y-4.1339
X5.0717Y-4.0339
X5.0717Y-4.1339
X5.1717Y-4.0339
X5.1717Y-4.1339
X5.2717Y-4.0339
X5.2717Y-4.1339
X5.3717Y-4.0339
X5.3717Y-4.1339
X5.4717Y-4.0339
X5.4717Y-4.1339
X5.5717Y-4.0339
X5.5717Y-4.1339
X5.6717Y-4.0339
X5.6717Y-4.1339
X5.7717Y-4.0339
X5.7717Y-4.1339
X5.8717Y-4.0339
X5.8717Y-4.1339
X5.9717Y-4.0339
X5.9717Y-4.1339
X6.0717Y-4.0339
X6.0717Y-4.1339
X6.1717Y-4.0339
X6.1717Y-4.1339
X4.4217Y-5.5354
X4.4217Y-5.6339
X5.9717Y-6.3789
X5.9717Y-6.4789
X5.9717Y-6.5589
X5.9717Y-6.6589
X4.1217Y-5.5339
X4.1217Y-5.6323
X4.1217Y-5.0839
X4.2217Y-5.0839
X4.3217Y-5.0839
X4.1217Y-4.9339
X4.2217Y-4.9339
X4.3217Y-4.9339
X4.1631Y-6.4005
X4.2615Y-6.4005
X4.1217Y-5.2339
X4.2217Y-5.2339
X4.3217Y-5.2339
T6
X6.3317Y-5.3476
X6.3317Y-5.8201
X6.0768Y-6.2589
X6.0768Y-6.799
T5
X6.1604Y-5.1232G85X6.1604Y-5.0445
G05
X6.3179Y-4.8988G85X6.2392Y-4.8988
G05
X6.3967Y-5.1232G85X6.3967Y-5.0445
G05
T0
M30
