G04 #@! TF.GenerationSoftware,KiCad,Pcbnew,5.0.0-rc2-dev-unknown-50608c1~62~ubuntu16.04.1*
G04 #@! TF.CreationDate,2018-03-02T13:49:05+13:00*
G04 #@! TF.ProjectId,pi-hat,70692D6861742E6B696361645F706362,rev?*
G04 #@! TF.SameCoordinates,Original*
G04 #@! TF.FileFunction,Paste,Top*
G04 #@! TF.FilePolarity,Positive*
%FSLAX46Y46*%
G04 Gerber Fmt 4.6, Leading zero omitted, Abs format (unit mm)*
G04 Created by KiCad (PCBNEW 5.0.0-rc2-dev-unknown-50608c1~62~ubuntu16.04.1) date Fri Mar  2 13:49:05 2018*
%MOMM*%
%LPD*%
G01*
G04 APERTURE LIST*
%ADD10R,1.070000X1.800000*%
%ADD11R,1.245000X1.800000*%
%ADD12R,1.800000X1.245000*%
%ADD13R,1.500000X2.000000*%
%ADD14R,3.800000X2.000000*%
%ADD15R,0.900000X0.800000*%
%ADD16R,0.800000X0.900000*%
%ADD17R,1.000000X1.600000*%
G04 APERTURE END LIST*
D10*
X162310000Y-118970000D03*
X159300000Y-118970000D03*
X150410000Y-118970000D03*
X153420000Y-118970000D03*
X144060000Y-118970000D03*
X141050000Y-118970000D03*
X145490000Y-153000000D03*
X148500000Y-153000000D03*
D11*
X104367500Y-136115000D03*
X107552500Y-136115000D03*
X114225000Y-136115000D03*
X111040000Y-136115000D03*
X162485000Y-124050000D03*
X159300000Y-124050000D03*
X159300000Y-121510000D03*
X162485000Y-121510000D03*
X153575000Y-124050000D03*
X150390000Y-124050000D03*
X150410000Y-121510000D03*
X153595000Y-121510000D03*
D12*
X112000000Y-98185000D03*
X112000000Y-95000000D03*
D11*
X144060000Y-121510000D03*
X140875000Y-121510000D03*
D12*
X131360000Y-112620000D03*
X131360000Y-109435000D03*
D11*
X144060000Y-124050000D03*
X140875000Y-124050000D03*
X145315000Y-149500000D03*
X148500000Y-149500000D03*
X143000000Y-140500000D03*
X139815000Y-140500000D03*
X146600000Y-97380000D03*
X143415000Y-97380000D03*
D13*
X139200000Y-137150000D03*
X143800000Y-137150000D03*
X141500000Y-137150000D03*
D14*
X141500000Y-130850000D03*
D15*
X106030000Y-97000000D03*
X108430000Y-96050000D03*
X108430000Y-97950000D03*
X133970000Y-110400000D03*
X133970000Y-112300000D03*
X136370000Y-111350000D03*
D16*
X144060000Y-94840000D03*
X145960000Y-94840000D03*
X145010000Y-92440000D03*
D17*
X147390000Y-141075000D03*
X149140000Y-138775000D03*
X150890000Y-141075000D03*
M02*
