M48
;DRILL file {KiCad 5.0.0-rc2-dev-unknown-50608c1~62~ubuntu16.04.1} date Fri Mar  2 13:49:12 2018
;FORMAT={-:-/ absolute / inch / decimal}
FMAT,2
INCH,TZ
T1C0.0157
T2C0.0315
T3C0.0319
T4C0.0374
T5C0.0394
T6C0.0551
T7C0.0906
%
G90
G05
M72
T1
X4.109Y-5.3589
X4.1217Y-3.8339
X4.2344Y-5.3589
X4.3217Y-4.4839
X4.3717Y-4.4839
X4.3717Y-5.3589
X4.4217Y-4.4839
X4.4717Y-4.4839
X4.5217Y-3.7339
X4.5217Y-4.4839
X4.5217Y-5.2339
X4.5276Y-3.8976
X4.5717Y-3.9339
X4.5717Y-4.4839
X4.5717Y-5.4339
X4.6217Y-4.5339
X4.6217Y-5.5339
X4.6457Y-3.7795
X4.6717Y-3.8339
X4.7717Y-3.9339
X5.0717Y-4.2339
X5.1717Y-4.3839
X5.2217Y-3.6839
X5.2717Y-4.2839
X5.3641Y-3.6763
X5.3717Y-4.3339
X5.3717Y-4.4339
X5.4717Y-4.8339
X5.5837Y-3.646
X5.6217Y-4.5339
X5.6217Y-4.7839
X5.6717Y-3.7339
X5.6717Y-5.5339
X5.7217Y-3.8339
X5.7217Y-4.5839
X5.8217Y-3.6839
X5.8467Y-5.5589
X5.9055Y-5.8858
X5.9252Y-6.0236
X5.9717Y-4.7839
X5.9717Y-5.7839
X6.3217Y-4.7839
T2
X5.8217Y-5.1339
X5.9594Y-5.1339
X5.2953Y-5.7087
X5.2953Y-5.8087
X5.2953Y-5.9087
X5.2953Y-6.0087
X5.5953Y-5.7087
X5.5953Y-5.8087
X5.5953Y-5.9087
X5.5953Y-6.0087
T3
X6.1024Y-3.8189
X6.1024Y-3.8976
X6.2024Y-3.8189
X6.2024Y-3.8976
T4
X4.0551Y-3.5039
X4.1535Y-3.5039
X4.252Y-3.5039
X4.3504Y-3.5039
X4.4488Y-3.5039
X4.5472Y-3.5039
X4.6457Y-3.5039
X4.7441Y-3.5039
X4.1217Y-4.337
X4.1217Y-4.4354
X4.1217Y-4.5339
X4.1217Y-4.6323
T5
X4.1217Y-5.2339
X4.2217Y-5.2339
X4.3217Y-5.2339
X4.1217Y-5.5339
X4.1217Y-5.6323
X4.1217Y-5.0839
X4.2217Y-5.0839
X4.3217Y-5.0839
X5.0917Y-3.889
X5.1917Y-3.889
X5.2717Y-3.889
X5.3717Y-3.889
X4.1217Y-4.9339
X4.2217Y-4.9339
X4.3217Y-4.9339
X5.5732Y-4.4339
X5.6717Y-4.4339
X6.1217Y-5.6339
X6.1217Y-5.7339
X6.1217Y-5.8339
X6.1217Y-5.9339
X6.2732Y-4.4339
X6.3717Y-4.4339
X5.9232Y-4.4339
X6.0217Y-4.4339
X4.4217Y-5.5354
X4.4217Y-5.6339
X4.2717Y-4.0339
X4.2717Y-4.1339
X4.3717Y-4.0339
X4.3717Y-4.1339
X4.4717Y-4.0339
X4.4717Y-4.1339
X4.5717Y-4.0339
X4.5717Y-4.1339
X4.6717Y-4.0339
X4.6717Y-4.1339
X4.7717Y-4.0339
X4.7717Y-4.1339
X4.8717Y-4.0339
X4.8717Y-4.1339
X4.9717Y-4.0339
X4.9717Y-4.1339
X5.0717Y-4.0339
X5.0717Y-4.1339
X5.1717Y-4.0339
X5.1717Y-4.1339
X5.2717Y-4.0339
X5.2717Y-4.1339
X5.3717Y-4.0339
X5.3717Y-4.1339
X5.4717Y-4.0339
X5.4717Y-4.1339
X5.5717Y-4.0339
X5.5717Y-4.1339
X5.6717Y-4.0339
X5.6717Y-4.1339
X5.7717Y-4.0339
X5.7717Y-4.1339
X5.8717Y-4.0339
X5.8717Y-4.1339
X5.9717Y-4.0339
X5.9717Y-4.1339
X6.0717Y-4.0339
X6.0717Y-4.1339
X6.1717Y-4.0339
X6.1717Y-4.1339
T6
X5.5717Y-5.2839
T7
X5.9161Y-3.7126
X6.3886Y-3.7126
X4.9717Y-3.7839
X5.5118Y-3.7839
T5
X6.1467Y-5.2482G85X6.1467Y-5.1695
G05
X6.3041Y-5.0238G85X6.2254Y-5.0238
G05
X6.3829Y-5.2482G85X6.3829Y-5.1695
G05
T0
M30
