G04 #@! TF.GenerationSoftware,KiCad,Pcbnew,5.0.0-rc2-dev-unknown-2230abd~62~ubuntu16.04.1*
G04 #@! TF.CreationDate,2018-03-12T21:04:26+13:00*
G04 #@! TF.ProjectId,pi-hat,70692D6861742E6B696361645F706362,rev?*
G04 #@! TF.SameCoordinates,Original*
G04 #@! TF.FileFunction,Paste,Top*
G04 #@! TF.FilePolarity,Positive*
%FSLAX46Y46*%
G04 Gerber Fmt 4.6, Leading zero omitted, Abs format (unit mm)*
G04 Created by KiCad (PCBNEW 5.0.0-rc2-dev-unknown-2230abd~62~ubuntu16.04.1) date Mon Mar 12 21:04:26 2018*
%MOMM*%
%LPD*%
G01*
G04 APERTURE LIST*
%ADD10R,1.245000X1.800000*%
%ADD11R,1.070000X1.800000*%
%ADD12R,1.800000X1.245000*%
%ADD13R,1.500000X2.000000*%
%ADD14R,3.800000X2.000000*%
%ADD15R,0.800000X0.900000*%
%ADD16R,0.900000X0.800000*%
%ADD17R,1.000000X1.600000*%
G04 APERTURE END LIST*
D10*
X113187000Y-169557000D03*
X116372000Y-169557000D03*
D11*
X113187000Y-167017000D03*
X116197000Y-167017000D03*
D10*
X116352000Y-172097000D03*
X113167000Y-172097000D03*
D11*
X125587000Y-167017000D03*
X122577000Y-167017000D03*
D10*
X125762000Y-172097000D03*
X122577000Y-172097000D03*
X122577000Y-169557000D03*
X125762000Y-169557000D03*
D11*
X103962000Y-167017000D03*
X106972000Y-167017000D03*
X146061000Y-158316000D03*
X149071000Y-158316000D03*
D10*
X104367500Y-136115000D03*
X107552500Y-136115000D03*
X114225000Y-136115000D03*
X111040000Y-136115000D03*
X139315000Y-121000000D03*
X142500000Y-121000000D03*
X103787000Y-169557000D03*
X106972000Y-169557000D03*
X106972000Y-172097000D03*
X103787000Y-172097000D03*
X145886000Y-154816000D03*
X149071000Y-154816000D03*
X150172000Y-143704000D03*
X146987000Y-143704000D03*
D12*
X143402000Y-172332000D03*
X143402000Y-169147000D03*
D13*
X145944000Y-139400000D03*
X150544000Y-139400000D03*
X148244000Y-139400000D03*
D14*
X148244000Y-133100000D03*
D15*
X141000000Y-115800000D03*
X141950000Y-118200000D03*
X140050000Y-118200000D03*
D16*
X146082000Y-169858000D03*
X146082000Y-171758000D03*
X148482000Y-170808000D03*
D17*
X148000000Y-150500000D03*
X149750000Y-148200000D03*
X151500000Y-150500000D03*
D16*
X112840000Y-151534000D03*
X112840000Y-153434000D03*
X115240000Y-152484000D03*
D12*
X109652000Y-150823000D03*
X109652000Y-154008000D03*
M02*
