G04 #@! TF.GenerationSoftware,KiCad,Pcbnew,5.0.0-rc2-dev-unknown-2230abd~62~ubuntu16.04.1*
G04 #@! TF.CreationDate,2018-03-12T21:04:26+13:00*
G04 #@! TF.ProjectId,pi-hat,70692D6861742E6B696361645F706362,rev?*
G04 #@! TF.SameCoordinates,Original*
G04 #@! TF.FileFunction,Soldermask,Top*
G04 #@! TF.FilePolarity,Negative*
%FSLAX46Y46*%
G04 Gerber Fmt 4.6, Leading zero omitted, Abs format (unit mm)*
G04 Created by KiCad (PCBNEW 5.0.0-rc2-dev-unknown-2230abd~62~ubuntu16.04.1) date Mon Mar 12 21:04:26 2018*
%MOMM*%
%LPD*%
G01*
G04 APERTURE LIST*
%ADD10C,1.900000*%
%ADD11R,1.900000X1.900000*%
%ADD12C,3.400000*%
%ADD13R,1.645000X2.200000*%
%ADD14R,1.470000X2.200000*%
%ADD15R,2.100000X2.400000*%
%ADD16O,2.100000X2.400000*%
%ADD17O,2.350000X2.100000*%
%ADD18R,2.350000X2.100000*%
%ADD19R,2.100000X2.100000*%
%ADD20O,2.100000X2.100000*%
%ADD21R,2.100000X2.350000*%
%ADD22O,2.100000X2.350000*%
%ADD23C,1.920000*%
%ADD24C,3.100000*%
%ADD25R,3.900000X3.900000*%
%ADD26C,0.100000*%
%ADD27C,3.900000*%
%ADD28R,2.200000X1.645000*%
%ADD29O,2.400000X2.100000*%
%ADD30R,2.400000X2.100000*%
%ADD31R,2.000000X2.000000*%
%ADD32O,2.000000X2.000000*%
%ADD33C,2.000000*%
%ADD34R,1.900000X2.400000*%
%ADD35R,4.200000X2.400000*%
%ADD36R,1.200000X1.300000*%
%ADD37R,1.300000X1.200000*%
%ADD38R,1.400000X2.000000*%
G04 APERTURE END LIST*
D10*
X151680000Y-162025000D03*
X151680000Y-164565000D03*
X151680000Y-166595000D03*
D11*
X151680000Y-169135000D03*
D12*
X154350000Y-158975000D03*
X154350000Y-172695000D03*
D13*
X113187000Y-169557000D03*
X116372000Y-169557000D03*
D14*
X113187000Y-167017000D03*
X116197000Y-167017000D03*
D13*
X116352000Y-172097000D03*
X113167000Y-172097000D03*
D14*
X125587000Y-167017000D03*
X122577000Y-167017000D03*
D15*
X127022000Y-162572000D03*
D16*
X124522000Y-162572000D03*
D13*
X125762000Y-172097000D03*
X122577000Y-172097000D03*
X122577000Y-169557000D03*
X125762000Y-169557000D03*
D17*
X104690000Y-110160000D03*
X104690000Y-112660000D03*
X104690000Y-115160000D03*
D18*
X104690000Y-117660000D03*
D15*
X117632000Y-162572000D03*
D16*
X115132000Y-162572000D03*
D14*
X103962000Y-167017000D03*
X106972000Y-167017000D03*
D16*
X105742000Y-162572000D03*
D15*
X108242000Y-162572000D03*
D14*
X146061000Y-158316000D03*
X149071000Y-158316000D03*
D19*
X108500000Y-105000000D03*
D20*
X108500000Y-102460000D03*
X111040000Y-105000000D03*
X111040000Y-102460000D03*
X113580000Y-105000000D03*
X113580000Y-102460000D03*
X116120000Y-105000000D03*
X116120000Y-102460000D03*
X118660000Y-105000000D03*
X118660000Y-102460000D03*
X121200000Y-105000000D03*
X121200000Y-102460000D03*
X123740000Y-105000000D03*
X123740000Y-102460000D03*
X126280000Y-105000000D03*
X126280000Y-102460000D03*
X128820000Y-105000000D03*
X128820000Y-102460000D03*
X131360000Y-105000000D03*
X131360000Y-102460000D03*
X133900000Y-105000000D03*
X133900000Y-102460000D03*
X136440000Y-105000000D03*
X136440000Y-102460000D03*
X138980000Y-105000000D03*
X138980000Y-102460000D03*
X141520000Y-105000000D03*
X141520000Y-102460000D03*
X144060000Y-105000000D03*
X144060000Y-102460000D03*
X146600000Y-105000000D03*
X146600000Y-102460000D03*
X149140000Y-105000000D03*
X149140000Y-102460000D03*
X151680000Y-105000000D03*
X151680000Y-102460000D03*
X154220000Y-105000000D03*
X154220000Y-102460000D03*
X156760000Y-105000000D03*
X156760000Y-102460000D03*
D21*
X155500000Y-111000000D03*
D22*
X153000000Y-111000000D03*
X150500000Y-111000000D03*
X148000000Y-111000000D03*
X145500000Y-111000000D03*
X143000000Y-111000000D03*
X140500000Y-111000000D03*
X138000000Y-111000000D03*
D23*
X156125000Y-143100000D03*
X156125000Y-140560000D03*
X158125000Y-140560000D03*
X158125000Y-143100000D03*
D24*
X160825000Y-147830000D03*
X160825000Y-135830000D03*
D25*
X156475000Y-129130000D03*
D26*
G36*
X163408315Y-127184093D02*
X163490827Y-127196333D01*
X163571742Y-127216601D01*
X163650281Y-127244702D01*
X163725687Y-127280367D01*
X163797235Y-127323251D01*
X163864234Y-127372941D01*
X163926041Y-127428959D01*
X163982059Y-127490766D01*
X164031749Y-127557765D01*
X164074633Y-127629313D01*
X164110298Y-127704719D01*
X164138399Y-127783258D01*
X164158667Y-127864173D01*
X164170907Y-127946685D01*
X164175000Y-128030000D01*
X164175000Y-130230000D01*
X164170907Y-130313315D01*
X164158667Y-130395827D01*
X164138399Y-130476742D01*
X164110298Y-130555281D01*
X164074633Y-130630687D01*
X164031749Y-130702235D01*
X163982059Y-130769234D01*
X163926041Y-130831041D01*
X163864234Y-130887059D01*
X163797235Y-130936749D01*
X163725687Y-130979633D01*
X163650281Y-131015298D01*
X163571742Y-131043399D01*
X163490827Y-131063667D01*
X163408315Y-131075907D01*
X163325000Y-131080000D01*
X161625000Y-131080000D01*
X161541685Y-131075907D01*
X161459173Y-131063667D01*
X161378258Y-131043399D01*
X161299719Y-131015298D01*
X161224313Y-130979633D01*
X161152765Y-130936749D01*
X161085766Y-130887059D01*
X161023959Y-130831041D01*
X160967941Y-130769234D01*
X160918251Y-130702235D01*
X160875367Y-130630687D01*
X160839702Y-130555281D01*
X160811601Y-130476742D01*
X160791333Y-130395827D01*
X160779093Y-130313315D01*
X160775000Y-130230000D01*
X160775000Y-128030000D01*
X160779093Y-127946685D01*
X160791333Y-127864173D01*
X160811601Y-127783258D01*
X160839702Y-127704719D01*
X160875367Y-127629313D01*
X160918251Y-127557765D01*
X160967941Y-127490766D01*
X161023959Y-127428959D01*
X161085766Y-127372941D01*
X161152765Y-127323251D01*
X161224313Y-127280367D01*
X161299719Y-127244702D01*
X161378258Y-127216601D01*
X161459173Y-127196333D01*
X161541685Y-127184093D01*
X161625000Y-127180000D01*
X163325000Y-127180000D01*
X163408315Y-127184093D01*
X163408315Y-127184093D01*
G37*
D12*
X162475000Y-129130000D03*
D26*
G36*
X160545567Y-122484695D02*
X160640213Y-122498734D01*
X160733028Y-122521983D01*
X160823116Y-122554217D01*
X160909612Y-122595127D01*
X160991681Y-122644317D01*
X161068533Y-122701315D01*
X161139429Y-122765571D01*
X161203685Y-122836467D01*
X161260683Y-122913319D01*
X161309873Y-122995388D01*
X161350783Y-123081884D01*
X161383017Y-123171972D01*
X161406266Y-123264787D01*
X161420305Y-123359433D01*
X161425000Y-123455000D01*
X161425000Y-125405000D01*
X161420305Y-125500567D01*
X161406266Y-125595213D01*
X161383017Y-125688028D01*
X161350783Y-125778116D01*
X161309873Y-125864612D01*
X161260683Y-125946681D01*
X161203685Y-126023533D01*
X161139429Y-126094429D01*
X161068533Y-126158685D01*
X160991681Y-126215683D01*
X160909612Y-126264873D01*
X160823116Y-126305783D01*
X160733028Y-126338017D01*
X160640213Y-126361266D01*
X160545567Y-126375305D01*
X160450000Y-126380000D01*
X158500000Y-126380000D01*
X158404433Y-126375305D01*
X158309787Y-126361266D01*
X158216972Y-126338017D01*
X158126884Y-126305783D01*
X158040388Y-126264873D01*
X157958319Y-126215683D01*
X157881467Y-126158685D01*
X157810571Y-126094429D01*
X157746315Y-126023533D01*
X157689317Y-125946681D01*
X157640127Y-125864612D01*
X157599217Y-125778116D01*
X157566983Y-125688028D01*
X157543734Y-125595213D01*
X157529695Y-125500567D01*
X157525000Y-125405000D01*
X157525000Y-123455000D01*
X157529695Y-123359433D01*
X157543734Y-123264787D01*
X157566983Y-123171972D01*
X157599217Y-123081884D01*
X157640127Y-122995388D01*
X157689317Y-122913319D01*
X157746315Y-122836467D01*
X157810571Y-122765571D01*
X157881467Y-122701315D01*
X157958319Y-122644317D01*
X158040388Y-122595127D01*
X158126884Y-122554217D01*
X158216972Y-122521983D01*
X158309787Y-122498734D01*
X158404433Y-122484695D01*
X158500000Y-122480000D01*
X160450000Y-122480000D01*
X160545567Y-122484695D01*
X160545567Y-122484695D01*
G37*
D27*
X159475000Y-124430000D03*
D19*
X109770000Y-132940000D03*
D20*
X107230000Y-132940000D03*
X104690000Y-132940000D03*
X104690000Y-129130000D03*
X107230000Y-129130000D03*
D19*
X109770000Y-129130000D03*
X109770000Y-125320000D03*
D20*
X107230000Y-125320000D03*
X104690000Y-125320000D03*
D13*
X104367500Y-136115000D03*
X107552500Y-136115000D03*
X114225000Y-136115000D03*
X111040000Y-136115000D03*
X139315000Y-121000000D03*
X142500000Y-121000000D03*
X103787000Y-169557000D03*
X106972000Y-169557000D03*
X106972000Y-172097000D03*
X103787000Y-172097000D03*
X145886000Y-154816000D03*
X149071000Y-154816000D03*
X150172000Y-143704000D03*
X146987000Y-143704000D03*
D28*
X143402000Y-172332000D03*
X143402000Y-169147000D03*
D29*
X104690000Y-140560000D03*
D30*
X104690000Y-143060000D03*
X112310000Y-143100000D03*
D29*
X112310000Y-140600000D03*
D31*
X134798000Y-157818000D03*
D32*
X142418000Y-165438000D03*
X134798000Y-160358000D03*
X142418000Y-162898000D03*
X134798000Y-162898000D03*
X142418000Y-160358000D03*
X134798000Y-165438000D03*
X142418000Y-157818000D03*
D31*
X150000000Y-127000000D03*
D33*
X150000000Y-123500000D03*
D34*
X145944000Y-139400000D03*
X150544000Y-139400000D03*
X148244000Y-139400000D03*
D35*
X148244000Y-133100000D03*
D19*
X120828000Y-136736000D03*
D20*
X120828000Y-139276000D03*
X120828000Y-141816000D03*
X120828000Y-144356000D03*
D24*
X103500000Y-153000000D03*
X161500000Y-153000000D03*
D36*
X141000000Y-115800000D03*
X141950000Y-118200000D03*
X140050000Y-118200000D03*
D37*
X146082000Y-169858000D03*
X146082000Y-171758000D03*
X148482000Y-170808000D03*
D38*
X148000000Y-150500000D03*
X149750000Y-148200000D03*
X151500000Y-150500000D03*
D37*
X112840000Y-151534000D03*
X112840000Y-153434000D03*
X115240000Y-152484000D03*
D28*
X109652000Y-150823000D03*
X109652000Y-154008000D03*
M02*
