G04 #@! TF.GenerationSoftware,KiCad,Pcbnew,5.0.0-rc2-dev-unknown-50608c1~62~ubuntu16.04.1*
G04 #@! TF.CreationDate,2018-03-02T13:49:05+13:00*
G04 #@! TF.ProjectId,pi-hat,70692D6861742E6B696361645F706362,rev?*
G04 #@! TF.SameCoordinates,Original*
G04 #@! TF.FileFunction,Copper,L2,Bot,Signal*
G04 #@! TF.FilePolarity,Positive*
%FSLAX46Y46*%
G04 Gerber Fmt 4.6, Leading zero omitted, Abs format (unit mm)*
G04 Created by KiCad (PCBNEW 5.0.0-rc2-dev-unknown-50608c1~62~ubuntu16.04.1) date Fri Mar  2 13:49:05 2018*
%MOMM*%
%LPD*%
G01*
G04 APERTURE LIST*
%ADD10O,1.950000X1.700000*%
%ADD11R,1.950000X1.700000*%
%ADD12C,1.500000*%
%ADD13R,1.500000X1.500000*%
%ADD14C,3.000000*%
%ADD15R,1.700000X2.000000*%
%ADD16O,1.700000X2.000000*%
%ADD17R,1.700000X1.700000*%
%ADD18O,1.700000X1.700000*%
%ADD19R,1.700000X1.950000*%
%ADD20O,1.700000X1.950000*%
%ADD21C,1.520000*%
%ADD22C,2.700000*%
%ADD23R,3.500000X3.500000*%
%ADD24C,0.100000*%
%ADD25C,3.500000*%
%ADD26O,2.000000X1.700000*%
%ADD27R,2.000000X1.700000*%
%ADD28R,1.600000X1.600000*%
%ADD29O,1.600000X1.600000*%
%ADD30C,1.600000*%
%ADD31C,0.800000*%
%ADD32C,1.800000*%
%ADD33C,0.250000*%
G04 APERTURE END LIST*
D10*
X104690000Y-110160000D03*
X104690000Y-112660000D03*
X104690000Y-115160000D03*
D11*
X104690000Y-117660000D03*
D12*
X129330000Y-98780000D03*
X131870000Y-98780000D03*
X133900000Y-98780000D03*
D13*
X136440000Y-98780000D03*
D14*
X126280000Y-96110000D03*
X140000000Y-96110000D03*
D15*
X161840000Y-112620000D03*
D16*
X159340000Y-112620000D03*
D15*
X152950000Y-112620000D03*
D16*
X150450000Y-112620000D03*
X141560000Y-112620000D03*
D15*
X144060000Y-112620000D03*
D17*
X108500000Y-105000000D03*
D18*
X108500000Y-102460000D03*
X111040000Y-105000000D03*
X111040000Y-102460000D03*
X113580000Y-105000000D03*
X113580000Y-102460000D03*
X116120000Y-105000000D03*
X116120000Y-102460000D03*
X118660000Y-105000000D03*
X118660000Y-102460000D03*
X121200000Y-105000000D03*
X121200000Y-102460000D03*
X123740000Y-105000000D03*
X123740000Y-102460000D03*
X126280000Y-105000000D03*
X126280000Y-102460000D03*
X128820000Y-105000000D03*
X128820000Y-102460000D03*
X131360000Y-105000000D03*
X131360000Y-102460000D03*
X133900000Y-105000000D03*
X133900000Y-102460000D03*
X136440000Y-105000000D03*
X136440000Y-102460000D03*
X138980000Y-105000000D03*
X138980000Y-102460000D03*
X141520000Y-105000000D03*
X141520000Y-102460000D03*
X144060000Y-105000000D03*
X144060000Y-102460000D03*
X146600000Y-105000000D03*
X146600000Y-102460000D03*
X149140000Y-105000000D03*
X149140000Y-102460000D03*
X151680000Y-105000000D03*
X151680000Y-102460000D03*
X154220000Y-105000000D03*
X154220000Y-102460000D03*
X156760000Y-105000000D03*
X156760000Y-102460000D03*
D19*
X103000000Y-89000000D03*
D20*
X105500000Y-89000000D03*
X108000000Y-89000000D03*
X110500000Y-89000000D03*
X113000000Y-89000000D03*
X115500000Y-89000000D03*
X118000000Y-89000000D03*
X120500000Y-89000000D03*
D21*
X157540000Y-99000000D03*
X155000000Y-99000000D03*
X155000000Y-97000000D03*
X157540000Y-97000000D03*
D22*
X162270000Y-94300000D03*
X150270000Y-94300000D03*
D23*
X156125000Y-132305000D03*
D24*
G36*
X162948513Y-130558611D02*
X163021318Y-130569411D01*
X163092714Y-130587295D01*
X163162013Y-130612090D01*
X163228548Y-130643559D01*
X163291678Y-130681398D01*
X163350795Y-130725242D01*
X163405330Y-130774670D01*
X163454758Y-130829205D01*
X163498602Y-130888322D01*
X163536441Y-130951452D01*
X163567910Y-131017987D01*
X163592705Y-131087286D01*
X163610589Y-131158682D01*
X163621389Y-131231487D01*
X163625000Y-131305000D01*
X163625000Y-133305000D01*
X163621389Y-133378513D01*
X163610589Y-133451318D01*
X163592705Y-133522714D01*
X163567910Y-133592013D01*
X163536441Y-133658548D01*
X163498602Y-133721678D01*
X163454758Y-133780795D01*
X163405330Y-133835330D01*
X163350795Y-133884758D01*
X163291678Y-133928602D01*
X163228548Y-133966441D01*
X163162013Y-133997910D01*
X163092714Y-134022705D01*
X163021318Y-134040589D01*
X162948513Y-134051389D01*
X162875000Y-134055000D01*
X161375000Y-134055000D01*
X161301487Y-134051389D01*
X161228682Y-134040589D01*
X161157286Y-134022705D01*
X161087987Y-133997910D01*
X161021452Y-133966441D01*
X160958322Y-133928602D01*
X160899205Y-133884758D01*
X160844670Y-133835330D01*
X160795242Y-133780795D01*
X160751398Y-133721678D01*
X160713559Y-133658548D01*
X160682090Y-133592013D01*
X160657295Y-133522714D01*
X160639411Y-133451318D01*
X160628611Y-133378513D01*
X160625000Y-133305000D01*
X160625000Y-131305000D01*
X160628611Y-131231487D01*
X160639411Y-131158682D01*
X160657295Y-131087286D01*
X160682090Y-131017987D01*
X160713559Y-130951452D01*
X160751398Y-130888322D01*
X160795242Y-130829205D01*
X160844670Y-130774670D01*
X160899205Y-130725242D01*
X160958322Y-130681398D01*
X161021452Y-130643559D01*
X161087987Y-130612090D01*
X161157286Y-130587295D01*
X161228682Y-130569411D01*
X161301487Y-130558611D01*
X161375000Y-130555000D01*
X162875000Y-130555000D01*
X162948513Y-130558611D01*
X162948513Y-130558611D01*
G37*
D14*
X162125000Y-132305000D03*
D24*
G36*
X160085765Y-125859213D02*
X160170704Y-125871813D01*
X160253999Y-125892677D01*
X160334848Y-125921605D01*
X160412472Y-125958319D01*
X160486124Y-126002464D01*
X160555094Y-126053616D01*
X160618718Y-126111282D01*
X160676384Y-126174906D01*
X160727536Y-126243876D01*
X160771681Y-126317528D01*
X160808395Y-126395152D01*
X160837323Y-126476001D01*
X160858187Y-126559296D01*
X160870787Y-126644235D01*
X160875000Y-126730000D01*
X160875000Y-128480000D01*
X160870787Y-128565765D01*
X160858187Y-128650704D01*
X160837323Y-128733999D01*
X160808395Y-128814848D01*
X160771681Y-128892472D01*
X160727536Y-128966124D01*
X160676384Y-129035094D01*
X160618718Y-129098718D01*
X160555094Y-129156384D01*
X160486124Y-129207536D01*
X160412472Y-129251681D01*
X160334848Y-129288395D01*
X160253999Y-129317323D01*
X160170704Y-129338187D01*
X160085765Y-129350787D01*
X160000000Y-129355000D01*
X158250000Y-129355000D01*
X158164235Y-129350787D01*
X158079296Y-129338187D01*
X157996001Y-129317323D01*
X157915152Y-129288395D01*
X157837528Y-129251681D01*
X157763876Y-129207536D01*
X157694906Y-129156384D01*
X157631282Y-129098718D01*
X157573616Y-129035094D01*
X157522464Y-128966124D01*
X157478319Y-128892472D01*
X157441605Y-128814848D01*
X157412677Y-128733999D01*
X157391813Y-128650704D01*
X157379213Y-128565765D01*
X157375000Y-128480000D01*
X157375000Y-126730000D01*
X157379213Y-126644235D01*
X157391813Y-126559296D01*
X157412677Y-126476001D01*
X157441605Y-126395152D01*
X157478319Y-126317528D01*
X157522464Y-126243876D01*
X157573616Y-126174906D01*
X157631282Y-126111282D01*
X157694906Y-126053616D01*
X157763876Y-126002464D01*
X157837528Y-125958319D01*
X157915152Y-125921605D01*
X157996001Y-125892677D01*
X158079296Y-125871813D01*
X158164235Y-125859213D01*
X158250000Y-125855000D01*
X160000000Y-125855000D01*
X160085765Y-125859213D01*
X160085765Y-125859213D01*
G37*
D25*
X159125000Y-127605000D03*
D17*
X109770000Y-132940000D03*
D18*
X107230000Y-132940000D03*
X104690000Y-132940000D03*
X104690000Y-129130000D03*
X107230000Y-129130000D03*
D17*
X109770000Y-129130000D03*
X109770000Y-125320000D03*
D18*
X107230000Y-125320000D03*
X104690000Y-125320000D03*
D26*
X104690000Y-140560000D03*
D27*
X104690000Y-143060000D03*
X112310000Y-143100000D03*
D26*
X112310000Y-140600000D03*
D28*
X134500000Y-145000000D03*
D29*
X142120000Y-152620000D03*
X134500000Y-147540000D03*
X142120000Y-150080000D03*
X134500000Y-150080000D03*
X142120000Y-147540000D03*
X134500000Y-152620000D03*
X142120000Y-145000000D03*
D28*
X147870000Y-130400000D03*
D30*
X151370000Y-130400000D03*
D17*
X155490000Y-143100000D03*
D18*
X155490000Y-145640000D03*
X155490000Y-148180000D03*
X155490000Y-150720000D03*
D31*
X145330000Y-116430000D03*
X150500000Y-153000000D03*
X117390000Y-140560000D03*
X117390000Y-115160000D03*
X118000000Y-96000000D03*
X115000000Y-99000000D03*
X151680000Y-146910000D03*
X118660000Y-97380000D03*
X116120000Y-99920000D03*
X116120000Y-138020000D03*
X116120000Y-113890000D03*
X148505000Y-141195000D03*
X104367500Y-136115000D03*
X111040000Y-136115000D03*
X128820000Y-107540000D03*
X104690000Y-97380000D03*
X114850000Y-94840000D03*
X147870000Y-93570000D03*
X145330000Y-97380000D03*
X136440000Y-110080000D03*
X131360000Y-111350000D03*
X160570000Y-121510000D03*
X151680000Y-121510000D03*
X142790000Y-121510000D03*
D32*
X141520000Y-134210000D03*
D31*
X109770000Y-113890000D03*
X144060000Y-94840000D03*
X132630000Y-93570000D03*
X121200000Y-99920000D03*
X111040000Y-113890000D03*
X112310000Y-113890000D03*
X107552500Y-136115000D03*
X113580000Y-113890000D03*
X114850000Y-132940000D03*
X114850000Y-113890000D03*
X133900000Y-108810000D03*
X142790000Y-115160000D03*
X136247347Y-93377347D03*
X141827152Y-92607152D03*
X138980000Y-122780000D03*
X136440000Y-112620000D03*
X144060000Y-140560000D03*
X150000000Y-149500000D03*
D33*
X156760000Y-102460000D02*
X159340000Y-105040000D01*
X159340000Y-105040000D02*
X159340000Y-112620000D01*
X152950000Y-109970000D02*
X152950000Y-103730000D01*
X152950000Y-103730000D02*
X154220000Y-102460000D01*
X150450000Y-112620000D02*
X150450000Y-112470000D01*
X150450000Y-112470000D02*
X152950000Y-109970000D01*
X145330000Y-116430000D02*
X145330000Y-112790000D01*
X145160000Y-112620000D02*
X144060000Y-112620000D01*
X145330000Y-112790000D02*
X145160000Y-112620000D01*
X142120000Y-150080000D02*
X147580000Y-150080000D01*
X147580000Y-150080000D02*
X150500000Y-153000000D01*
X111040000Y-105000000D02*
X107055010Y-108984990D01*
X104078295Y-108984990D02*
X103389990Y-109673295D01*
X103389990Y-111484990D02*
X104565000Y-112660000D01*
X107055010Y-108984990D02*
X104078295Y-108984990D01*
X103389990Y-109673295D02*
X103389990Y-111484990D01*
X104565000Y-112660000D02*
X104690000Y-112660000D01*
X117390000Y-115160000D02*
X117390000Y-140560000D01*
X115000000Y-99000000D02*
X118000000Y-96000000D01*
X113580000Y-105000000D02*
X108420000Y-110160000D01*
X108420000Y-110160000D02*
X104690000Y-110160000D01*
X151680000Y-146910000D02*
X155490000Y-150720000D01*
X116120000Y-99920000D02*
X118660000Y-97380000D01*
X116120000Y-113890000D02*
X116120000Y-138020000D01*
X109770000Y-125320000D02*
X109770000Y-113890000D01*
X132630000Y-93570000D02*
X133162348Y-94102348D01*
X133162348Y-94102348D02*
X143322348Y-94102348D01*
X143322348Y-94102348D02*
X144060000Y-94840000D01*
X121200000Y-102460000D02*
X121200000Y-99920000D01*
X111040000Y-126760000D02*
X111040000Y-113890000D01*
X109770000Y-129130000D02*
X109770000Y-128030000D01*
X109770000Y-128030000D02*
X111040000Y-126760000D01*
X112310000Y-113890000D02*
X112310000Y-131500000D01*
X112310000Y-131500000D02*
X110870000Y-132940000D01*
X110870000Y-132940000D02*
X109770000Y-132940000D01*
X107552500Y-142142500D02*
X106635000Y-143060000D01*
X106635000Y-143060000D02*
X104690000Y-143060000D01*
X107552500Y-136115000D02*
X107552500Y-142142500D01*
X113580000Y-113890000D02*
X113580000Y-131415002D01*
X113580000Y-131415002D02*
X108880002Y-136115000D01*
X108880002Y-136115000D02*
X107552500Y-136115000D01*
X116567190Y-91480010D02*
X107855010Y-91480010D01*
X105500000Y-89125000D02*
X105500000Y-89000000D01*
X107855010Y-91480010D02*
X105500000Y-89125000D01*
X127455001Y-102834003D02*
X127455001Y-101895999D01*
X128255999Y-103635001D02*
X127455001Y-102834003D01*
X129995001Y-103635001D02*
X128255999Y-103635001D01*
X131360000Y-105000000D02*
X129995001Y-103635001D01*
X126829031Y-101270029D02*
X126357209Y-101270029D01*
X127455001Y-101895999D02*
X126829031Y-101270029D01*
X126357209Y-101270029D02*
X116567190Y-91480010D01*
X116753590Y-91030000D02*
X109905000Y-91030000D01*
X109905000Y-91030000D02*
X108000000Y-89125000D01*
X108000000Y-89125000D02*
X108000000Y-89000000D01*
X126543609Y-100820019D02*
X116753590Y-91030000D01*
X133900000Y-105000000D02*
X132535001Y-103635001D01*
X132535001Y-103635001D02*
X132535001Y-101895999D01*
X132535001Y-101895999D02*
X131459022Y-100820020D01*
X131459022Y-100820020D02*
X126543609Y-100820019D01*
X114850000Y-113890000D02*
X114850000Y-132940000D01*
X126730010Y-100370010D02*
X116660010Y-90300010D01*
X116660010Y-90300010D02*
X111675010Y-90300010D01*
X111675010Y-90300010D02*
X110500000Y-89125000D01*
X110500000Y-89125000D02*
X110500000Y-89000000D01*
X136440000Y-105000000D02*
X135075001Y-103635001D01*
X135075001Y-103635001D02*
X135075001Y-101895999D01*
X135075001Y-101895999D02*
X133549012Y-100370010D01*
X133549012Y-100370010D02*
X126730010Y-100370010D01*
X135170000Y-99920000D02*
X127388998Y-99920000D01*
X127388998Y-99920000D02*
X121675010Y-94206012D01*
X120986705Y-87699990D02*
X104175010Y-87699990D01*
X121675010Y-94206012D02*
X121675010Y-88388295D01*
X121675010Y-88388295D02*
X120986705Y-87699990D01*
X104175010Y-87699990D02*
X103000000Y-88875000D01*
X103000000Y-88875000D02*
X103000000Y-89000000D01*
X136440000Y-101190000D02*
X135170000Y-99920000D01*
X136440000Y-102460000D02*
X136440000Y-101190000D01*
X142790000Y-115160000D02*
X140250000Y-115160000D01*
X140250000Y-115160000D02*
X133900000Y-108810000D01*
X141827152Y-92607152D02*
X137017542Y-92607152D01*
X137017542Y-92607152D02*
X136247347Y-93377347D01*
X136440000Y-112620000D02*
X138980000Y-115160000D01*
X138980000Y-115160000D02*
X138980000Y-122780000D01*
X162125000Y-132305000D02*
X162125000Y-137565000D01*
X162125000Y-137565000D02*
X156590000Y-143100000D01*
X156590000Y-143100000D02*
X155490000Y-143100000D01*
X150000000Y-149500000D02*
X150000000Y-146500000D01*
X150000000Y-146500000D02*
X144060000Y-140560000D01*
X151225001Y-153348001D02*
X151225001Y-150725001D01*
X134500000Y-152620000D02*
X135625001Y-153745001D01*
X150828001Y-153745001D02*
X151225001Y-153348001D01*
X151225001Y-150725001D02*
X150000000Y-149500000D01*
X135625001Y-153745001D02*
X150828001Y-153745001D01*
M02*
