G04 #@! TF.GenerationSoftware,KiCad,Pcbnew,5.0.0-rc2-dev-unknown-50608c1~62~ubuntu16.04.1*
G04 #@! TF.CreationDate,2018-03-02T13:49:05+13:00*
G04 #@! TF.ProjectId,pi-hat,70692D6861742E6B696361645F706362,rev?*
G04 #@! TF.SameCoordinates,Original*
G04 #@! TF.FileFunction,Soldermask,Bot*
G04 #@! TF.FilePolarity,Negative*
%FSLAX46Y46*%
G04 Gerber Fmt 4.6, Leading zero omitted, Abs format (unit mm)*
G04 Created by KiCad (PCBNEW 5.0.0-rc2-dev-unknown-50608c1~62~ubuntu16.04.1) date Fri Mar  2 13:49:05 2018*
%MOMM*%
%LPD*%
G01*
G04 APERTURE LIST*
%ADD10O,2.350000X2.100000*%
%ADD11R,2.350000X2.100000*%
%ADD12C,1.900000*%
%ADD13R,1.900000X1.900000*%
%ADD14C,3.400000*%
%ADD15R,2.100000X2.400000*%
%ADD16O,2.100000X2.400000*%
%ADD17R,2.100000X2.100000*%
%ADD18O,2.100000X2.100000*%
%ADD19R,2.100000X2.350000*%
%ADD20O,2.100000X2.350000*%
%ADD21C,1.920000*%
%ADD22C,3.100000*%
%ADD23R,3.900000X3.900000*%
%ADD24C,0.100000*%
%ADD25C,3.900000*%
%ADD26O,2.400000X2.100000*%
%ADD27R,2.400000X2.100000*%
%ADD28R,2.000000X2.000000*%
%ADD29O,2.000000X2.000000*%
%ADD30C,2.000000*%
G04 APERTURE END LIST*
D10*
X104690000Y-110160000D03*
X104690000Y-112660000D03*
X104690000Y-115160000D03*
D11*
X104690000Y-117660000D03*
D12*
X129330000Y-98780000D03*
X131870000Y-98780000D03*
X133900000Y-98780000D03*
D13*
X136440000Y-98780000D03*
D14*
X126280000Y-96110000D03*
X140000000Y-96110000D03*
D15*
X161840000Y-112620000D03*
D16*
X159340000Y-112620000D03*
D15*
X152950000Y-112620000D03*
D16*
X150450000Y-112620000D03*
X141560000Y-112620000D03*
D15*
X144060000Y-112620000D03*
D17*
X108500000Y-105000000D03*
D18*
X108500000Y-102460000D03*
X111040000Y-105000000D03*
X111040000Y-102460000D03*
X113580000Y-105000000D03*
X113580000Y-102460000D03*
X116120000Y-105000000D03*
X116120000Y-102460000D03*
X118660000Y-105000000D03*
X118660000Y-102460000D03*
X121200000Y-105000000D03*
X121200000Y-102460000D03*
X123740000Y-105000000D03*
X123740000Y-102460000D03*
X126280000Y-105000000D03*
X126280000Y-102460000D03*
X128820000Y-105000000D03*
X128820000Y-102460000D03*
X131360000Y-105000000D03*
X131360000Y-102460000D03*
X133900000Y-105000000D03*
X133900000Y-102460000D03*
X136440000Y-105000000D03*
X136440000Y-102460000D03*
X138980000Y-105000000D03*
X138980000Y-102460000D03*
X141520000Y-105000000D03*
X141520000Y-102460000D03*
X144060000Y-105000000D03*
X144060000Y-102460000D03*
X146600000Y-105000000D03*
X146600000Y-102460000D03*
X149140000Y-105000000D03*
X149140000Y-102460000D03*
X151680000Y-105000000D03*
X151680000Y-102460000D03*
X154220000Y-105000000D03*
X154220000Y-102460000D03*
X156760000Y-105000000D03*
X156760000Y-102460000D03*
D19*
X103000000Y-89000000D03*
D20*
X105500000Y-89000000D03*
X108000000Y-89000000D03*
X110500000Y-89000000D03*
X113000000Y-89000000D03*
X115500000Y-89000000D03*
X118000000Y-89000000D03*
X120500000Y-89000000D03*
D21*
X157540000Y-99000000D03*
X155000000Y-99000000D03*
X155000000Y-97000000D03*
X157540000Y-97000000D03*
D22*
X162270000Y-94300000D03*
X150270000Y-94300000D03*
D23*
X156125000Y-132305000D03*
D24*
G36*
X163058315Y-130359093D02*
X163140827Y-130371333D01*
X163221742Y-130391601D01*
X163300281Y-130419702D01*
X163375687Y-130455367D01*
X163447235Y-130498251D01*
X163514234Y-130547941D01*
X163576041Y-130603959D01*
X163632059Y-130665766D01*
X163681749Y-130732765D01*
X163724633Y-130804313D01*
X163760298Y-130879719D01*
X163788399Y-130958258D01*
X163808667Y-131039173D01*
X163820907Y-131121685D01*
X163825000Y-131205000D01*
X163825000Y-133405000D01*
X163820907Y-133488315D01*
X163808667Y-133570827D01*
X163788399Y-133651742D01*
X163760298Y-133730281D01*
X163724633Y-133805687D01*
X163681749Y-133877235D01*
X163632059Y-133944234D01*
X163576041Y-134006041D01*
X163514234Y-134062059D01*
X163447235Y-134111749D01*
X163375687Y-134154633D01*
X163300281Y-134190298D01*
X163221742Y-134218399D01*
X163140827Y-134238667D01*
X163058315Y-134250907D01*
X162975000Y-134255000D01*
X161275000Y-134255000D01*
X161191685Y-134250907D01*
X161109173Y-134238667D01*
X161028258Y-134218399D01*
X160949719Y-134190298D01*
X160874313Y-134154633D01*
X160802765Y-134111749D01*
X160735766Y-134062059D01*
X160673959Y-134006041D01*
X160617941Y-133944234D01*
X160568251Y-133877235D01*
X160525367Y-133805687D01*
X160489702Y-133730281D01*
X160461601Y-133651742D01*
X160441333Y-133570827D01*
X160429093Y-133488315D01*
X160425000Y-133405000D01*
X160425000Y-131205000D01*
X160429093Y-131121685D01*
X160441333Y-131039173D01*
X160461601Y-130958258D01*
X160489702Y-130879719D01*
X160525367Y-130804313D01*
X160568251Y-130732765D01*
X160617941Y-130665766D01*
X160673959Y-130603959D01*
X160735766Y-130547941D01*
X160802765Y-130498251D01*
X160874313Y-130455367D01*
X160949719Y-130419702D01*
X161028258Y-130391601D01*
X161109173Y-130371333D01*
X161191685Y-130359093D01*
X161275000Y-130355000D01*
X162975000Y-130355000D01*
X163058315Y-130359093D01*
X163058315Y-130359093D01*
G37*
D14*
X162125000Y-132305000D03*
D24*
G36*
X160195567Y-125659695D02*
X160290213Y-125673734D01*
X160383028Y-125696983D01*
X160473116Y-125729217D01*
X160559612Y-125770127D01*
X160641681Y-125819317D01*
X160718533Y-125876315D01*
X160789429Y-125940571D01*
X160853685Y-126011467D01*
X160910683Y-126088319D01*
X160959873Y-126170388D01*
X161000783Y-126256884D01*
X161033017Y-126346972D01*
X161056266Y-126439787D01*
X161070305Y-126534433D01*
X161075000Y-126630000D01*
X161075000Y-128580000D01*
X161070305Y-128675567D01*
X161056266Y-128770213D01*
X161033017Y-128863028D01*
X161000783Y-128953116D01*
X160959873Y-129039612D01*
X160910683Y-129121681D01*
X160853685Y-129198533D01*
X160789429Y-129269429D01*
X160718533Y-129333685D01*
X160641681Y-129390683D01*
X160559612Y-129439873D01*
X160473116Y-129480783D01*
X160383028Y-129513017D01*
X160290213Y-129536266D01*
X160195567Y-129550305D01*
X160100000Y-129555000D01*
X158150000Y-129555000D01*
X158054433Y-129550305D01*
X157959787Y-129536266D01*
X157866972Y-129513017D01*
X157776884Y-129480783D01*
X157690388Y-129439873D01*
X157608319Y-129390683D01*
X157531467Y-129333685D01*
X157460571Y-129269429D01*
X157396315Y-129198533D01*
X157339317Y-129121681D01*
X157290127Y-129039612D01*
X157249217Y-128953116D01*
X157216983Y-128863028D01*
X157193734Y-128770213D01*
X157179695Y-128675567D01*
X157175000Y-128580000D01*
X157175000Y-126630000D01*
X157179695Y-126534433D01*
X157193734Y-126439787D01*
X157216983Y-126346972D01*
X157249217Y-126256884D01*
X157290127Y-126170388D01*
X157339317Y-126088319D01*
X157396315Y-126011467D01*
X157460571Y-125940571D01*
X157531467Y-125876315D01*
X157608319Y-125819317D01*
X157690388Y-125770127D01*
X157776884Y-125729217D01*
X157866972Y-125696983D01*
X157959787Y-125673734D01*
X158054433Y-125659695D01*
X158150000Y-125655000D01*
X160100000Y-125655000D01*
X160195567Y-125659695D01*
X160195567Y-125659695D01*
G37*
D25*
X159125000Y-127605000D03*
D17*
X109770000Y-132940000D03*
D18*
X107230000Y-132940000D03*
X104690000Y-132940000D03*
X104690000Y-129130000D03*
X107230000Y-129130000D03*
D17*
X109770000Y-129130000D03*
X109770000Y-125320000D03*
D18*
X107230000Y-125320000D03*
X104690000Y-125320000D03*
D26*
X104690000Y-140560000D03*
D27*
X104690000Y-143060000D03*
X112310000Y-143100000D03*
D26*
X112310000Y-140600000D03*
D28*
X134500000Y-145000000D03*
D29*
X142120000Y-152620000D03*
X134500000Y-147540000D03*
X142120000Y-150080000D03*
X134500000Y-150080000D03*
X142120000Y-147540000D03*
X134500000Y-152620000D03*
X142120000Y-145000000D03*
D28*
X147870000Y-130400000D03*
D30*
X151370000Y-130400000D03*
D17*
X155490000Y-143100000D03*
D18*
X155490000Y-145640000D03*
X155490000Y-148180000D03*
X155490000Y-150720000D03*
D22*
X103500000Y-153000000D03*
X161500000Y-153000000D03*
M02*
