G04 #@! TF.GenerationSoftware,KiCad,Pcbnew,5.1.2-f72e74a~84~ubuntu18.04.1*
G04 #@! TF.CreationDate,2019-05-05T15:24:06+12:00*
G04 #@! TF.ProjectId,pi-hat,70692d68-6174-42e6-9b69-6361645f7063,rev?*
G04 #@! TF.SameCoordinates,Original*
G04 #@! TF.FileFunction,Paste,Top*
G04 #@! TF.FilePolarity,Positive*
%FSLAX46Y46*%
G04 Gerber Fmt 4.6, Leading zero omitted, Abs format (unit mm)*
G04 Created by KiCad (PCBNEW 5.1.2-f72e74a~84~ubuntu18.04.1) date 2019-05-05 15:24:06*
%MOMM*%
%LPD*%
G04 APERTURE LIST*
%ADD10R,0.900000X1.200000*%
%ADD11R,0.720000X1.780000*%
%ADD12R,2.800000X1.900000*%
%ADD13C,0.100000*%
%ADD14C,0.250000*%
%ADD15R,0.540000X0.540000*%
%ADD16O,0.300000X0.750000*%
%ADD17O,0.750000X0.300000*%
%ADD18R,2.600000X3.540000*%
%ADD19R,2.600000X3.660000*%
%ADD20R,0.750000X0.800000*%
%ADD21R,1.000000X1.250000*%
%ADD22R,0.800000X0.750000*%
%ADD23R,1.250000X1.000000*%
%ADD24R,0.600000X0.450000*%
%ADD25R,0.800000X0.800000*%
%ADD26R,0.900000X0.500000*%
%ADD27R,0.500000X0.900000*%
%ADD28R,1.450000X0.450000*%
%ADD29R,0.900000X0.800000*%
%ADD30R,1.550000X0.600000*%
%ADD31R,1.900000X1.300000*%
%ADD32R,0.800000X0.900000*%
G04 APERTURE END LIST*
D10*
X142750000Y-140500000D03*
X142750000Y-138300000D03*
D11*
X152500000Y-126250000D03*
X151230000Y-126250000D03*
X149960000Y-126250000D03*
X148690000Y-126250000D03*
X148690000Y-131330000D03*
X149960000Y-131330000D03*
X151230000Y-131330000D03*
X152500000Y-131330000D03*
D12*
X150035568Y-149579229D03*
X150035568Y-154479229D03*
D13*
G36*
X144885469Y-152412469D02*
G01*
X144890323Y-152413189D01*
X144895082Y-152414381D01*
X144899702Y-152416034D01*
X144904138Y-152418132D01*
X144908347Y-152420655D01*
X144912288Y-152423577D01*
X144915923Y-152426873D01*
X144919219Y-152430508D01*
X144922141Y-152434449D01*
X144924664Y-152438658D01*
X144926762Y-152443094D01*
X144928415Y-152447714D01*
X144929607Y-152452473D01*
X144930327Y-152457327D01*
X144930568Y-152462228D01*
X144930568Y-152612228D01*
X144930327Y-152617129D01*
X144929607Y-152621983D01*
X144928415Y-152626742D01*
X144926762Y-152631362D01*
X144924664Y-152635798D01*
X144922141Y-152640007D01*
X144919219Y-152643948D01*
X144915923Y-152647583D01*
X144912288Y-152650879D01*
X144908347Y-152653801D01*
X144904138Y-152656324D01*
X144899702Y-152658422D01*
X144895082Y-152660075D01*
X144890323Y-152661267D01*
X144885469Y-152661987D01*
X144880568Y-152662228D01*
X144405568Y-152662228D01*
X144400667Y-152661987D01*
X144395813Y-152661267D01*
X144391054Y-152660075D01*
X144386434Y-152658422D01*
X144381998Y-152656324D01*
X144377789Y-152653801D01*
X144373848Y-152650879D01*
X144370213Y-152647583D01*
X144366917Y-152643948D01*
X144363995Y-152640007D01*
X144361472Y-152635798D01*
X144359374Y-152631362D01*
X144357721Y-152626742D01*
X144356529Y-152621983D01*
X144355809Y-152617129D01*
X144355568Y-152612228D01*
X144355568Y-152462228D01*
X144355809Y-152457327D01*
X144356529Y-152452473D01*
X144357721Y-152447714D01*
X144359374Y-152443094D01*
X144361472Y-152438658D01*
X144363995Y-152434449D01*
X144366917Y-152430508D01*
X144370213Y-152426873D01*
X144373848Y-152423577D01*
X144377789Y-152420655D01*
X144381998Y-152418132D01*
X144386434Y-152416034D01*
X144391054Y-152414381D01*
X144395813Y-152413189D01*
X144400667Y-152412469D01*
X144405568Y-152412228D01*
X144880568Y-152412228D01*
X144885469Y-152412469D01*
X144885469Y-152412469D01*
G37*
D14*
X144643068Y-152537228D03*
D13*
G36*
X144112469Y-152412469D02*
G01*
X144117323Y-152413189D01*
X144122082Y-152414381D01*
X144126702Y-152416034D01*
X144131138Y-152418132D01*
X144135347Y-152420655D01*
X144139288Y-152423577D01*
X144142923Y-152426873D01*
X144146219Y-152430508D01*
X144149141Y-152434449D01*
X144151664Y-152438658D01*
X144153762Y-152443094D01*
X144155415Y-152447714D01*
X144156607Y-152452473D01*
X144157327Y-152457327D01*
X144157568Y-152462228D01*
X144157568Y-152612228D01*
X144157327Y-152617129D01*
X144156607Y-152621983D01*
X144155415Y-152626742D01*
X144153762Y-152631362D01*
X144151664Y-152635798D01*
X144149141Y-152640007D01*
X144146219Y-152643948D01*
X144142923Y-152647583D01*
X144139288Y-152650879D01*
X144135347Y-152653801D01*
X144131138Y-152656324D01*
X144126702Y-152658422D01*
X144122082Y-152660075D01*
X144117323Y-152661267D01*
X144112469Y-152661987D01*
X144107568Y-152662228D01*
X143632568Y-152662228D01*
X143627667Y-152661987D01*
X143622813Y-152661267D01*
X143618054Y-152660075D01*
X143613434Y-152658422D01*
X143608998Y-152656324D01*
X143604789Y-152653801D01*
X143600848Y-152650879D01*
X143597213Y-152647583D01*
X143593917Y-152643948D01*
X143590995Y-152640007D01*
X143588472Y-152635798D01*
X143586374Y-152631362D01*
X143584721Y-152626742D01*
X143583529Y-152621983D01*
X143582809Y-152617129D01*
X143582568Y-152612228D01*
X143582568Y-152462228D01*
X143582809Y-152457327D01*
X143583529Y-152452473D01*
X143584721Y-152447714D01*
X143586374Y-152443094D01*
X143588472Y-152438658D01*
X143590995Y-152434449D01*
X143593917Y-152430508D01*
X143597213Y-152426873D01*
X143600848Y-152423577D01*
X143604789Y-152420655D01*
X143608998Y-152418132D01*
X143613434Y-152416034D01*
X143618054Y-152414381D01*
X143622813Y-152413189D01*
X143627667Y-152412469D01*
X143632568Y-152412228D01*
X144107568Y-152412228D01*
X144112469Y-152412469D01*
X144112469Y-152412469D01*
G37*
D14*
X143870068Y-152537228D03*
D13*
G36*
X144112469Y-151412469D02*
G01*
X144117323Y-151413189D01*
X144122082Y-151414381D01*
X144126702Y-151416034D01*
X144131138Y-151418132D01*
X144135347Y-151420655D01*
X144139288Y-151423577D01*
X144142923Y-151426873D01*
X144146219Y-151430508D01*
X144149141Y-151434449D01*
X144151664Y-151438658D01*
X144153762Y-151443094D01*
X144155415Y-151447714D01*
X144156607Y-151452473D01*
X144157327Y-151457327D01*
X144157568Y-151462228D01*
X144157568Y-151612228D01*
X144157327Y-151617129D01*
X144156607Y-151621983D01*
X144155415Y-151626742D01*
X144153762Y-151631362D01*
X144151664Y-151635798D01*
X144149141Y-151640007D01*
X144146219Y-151643948D01*
X144142923Y-151647583D01*
X144139288Y-151650879D01*
X144135347Y-151653801D01*
X144131138Y-151656324D01*
X144126702Y-151658422D01*
X144122082Y-151660075D01*
X144117323Y-151661267D01*
X144112469Y-151661987D01*
X144107568Y-151662228D01*
X143632568Y-151662228D01*
X143627667Y-151661987D01*
X143622813Y-151661267D01*
X143618054Y-151660075D01*
X143613434Y-151658422D01*
X143608998Y-151656324D01*
X143604789Y-151653801D01*
X143600848Y-151650879D01*
X143597213Y-151647583D01*
X143593917Y-151643948D01*
X143590995Y-151640007D01*
X143588472Y-151635798D01*
X143586374Y-151631362D01*
X143584721Y-151626742D01*
X143583529Y-151621983D01*
X143582809Y-151617129D01*
X143582568Y-151612228D01*
X143582568Y-151462228D01*
X143582809Y-151457327D01*
X143583529Y-151452473D01*
X143584721Y-151447714D01*
X143586374Y-151443094D01*
X143588472Y-151438658D01*
X143590995Y-151434449D01*
X143593917Y-151430508D01*
X143597213Y-151426873D01*
X143600848Y-151423577D01*
X143604789Y-151420655D01*
X143608998Y-151418132D01*
X143613434Y-151416034D01*
X143618054Y-151414381D01*
X143622813Y-151413189D01*
X143627667Y-151412469D01*
X143632568Y-151412228D01*
X144107568Y-151412228D01*
X144112469Y-151412469D01*
X144112469Y-151412469D01*
G37*
D14*
X143870068Y-151537228D03*
D13*
G36*
X144885469Y-151412469D02*
G01*
X144890323Y-151413189D01*
X144895082Y-151414381D01*
X144899702Y-151416034D01*
X144904138Y-151418132D01*
X144908347Y-151420655D01*
X144912288Y-151423577D01*
X144915923Y-151426873D01*
X144919219Y-151430508D01*
X144922141Y-151434449D01*
X144924664Y-151438658D01*
X144926762Y-151443094D01*
X144928415Y-151447714D01*
X144929607Y-151452473D01*
X144930327Y-151457327D01*
X144930568Y-151462228D01*
X144930568Y-151612228D01*
X144930327Y-151617129D01*
X144929607Y-151621983D01*
X144928415Y-151626742D01*
X144926762Y-151631362D01*
X144924664Y-151635798D01*
X144922141Y-151640007D01*
X144919219Y-151643948D01*
X144915923Y-151647583D01*
X144912288Y-151650879D01*
X144908347Y-151653801D01*
X144904138Y-151656324D01*
X144899702Y-151658422D01*
X144895082Y-151660075D01*
X144890323Y-151661267D01*
X144885469Y-151661987D01*
X144880568Y-151662228D01*
X144405568Y-151662228D01*
X144400667Y-151661987D01*
X144395813Y-151661267D01*
X144391054Y-151660075D01*
X144386434Y-151658422D01*
X144381998Y-151656324D01*
X144377789Y-151653801D01*
X144373848Y-151650879D01*
X144370213Y-151647583D01*
X144366917Y-151643948D01*
X144363995Y-151640007D01*
X144361472Y-151635798D01*
X144359374Y-151631362D01*
X144357721Y-151626742D01*
X144356529Y-151621983D01*
X144355809Y-151617129D01*
X144355568Y-151612228D01*
X144355568Y-151462228D01*
X144355809Y-151457327D01*
X144356529Y-151452473D01*
X144357721Y-151447714D01*
X144359374Y-151443094D01*
X144361472Y-151438658D01*
X144363995Y-151434449D01*
X144366917Y-151430508D01*
X144370213Y-151426873D01*
X144373848Y-151423577D01*
X144377789Y-151420655D01*
X144381998Y-151418132D01*
X144386434Y-151416034D01*
X144391054Y-151414381D01*
X144395813Y-151413189D01*
X144400667Y-151412469D01*
X144405568Y-151412228D01*
X144880568Y-151412228D01*
X144885469Y-151412469D01*
X144885469Y-151412469D01*
G37*
D14*
X144643068Y-151537228D03*
D13*
G36*
X144856969Y-151912469D02*
G01*
X144861823Y-151913189D01*
X144866582Y-151914381D01*
X144871202Y-151916034D01*
X144875638Y-151918132D01*
X144879847Y-151920655D01*
X144883788Y-151923577D01*
X144887423Y-151926873D01*
X144890719Y-151930508D01*
X144893641Y-151934449D01*
X144896164Y-151938658D01*
X144898262Y-151943094D01*
X144899915Y-151947714D01*
X144901107Y-151952473D01*
X144901827Y-151957327D01*
X144902068Y-151962228D01*
X144902068Y-152112228D01*
X144901827Y-152117129D01*
X144901107Y-152121983D01*
X144899915Y-152126742D01*
X144898262Y-152131362D01*
X144896164Y-152135798D01*
X144893641Y-152140007D01*
X144890719Y-152143948D01*
X144887423Y-152147583D01*
X144883788Y-152150879D01*
X144879847Y-152153801D01*
X144875638Y-152156324D01*
X144871202Y-152158422D01*
X144866582Y-152160075D01*
X144861823Y-152161267D01*
X144856969Y-152161987D01*
X144852068Y-152162228D01*
X144232068Y-152162228D01*
X144227167Y-152161987D01*
X144222313Y-152161267D01*
X144217554Y-152160075D01*
X144212934Y-152158422D01*
X144208498Y-152156324D01*
X144204289Y-152153801D01*
X144200348Y-152150879D01*
X144196713Y-152147583D01*
X144193417Y-152143948D01*
X144190495Y-152140007D01*
X144187972Y-152135798D01*
X144185874Y-152131362D01*
X144184221Y-152126742D01*
X144183029Y-152121983D01*
X144182309Y-152117129D01*
X144182068Y-152112228D01*
X144182068Y-151962228D01*
X144182309Y-151957327D01*
X144183029Y-151952473D01*
X144184221Y-151947714D01*
X144185874Y-151943094D01*
X144187972Y-151938658D01*
X144190495Y-151934449D01*
X144193417Y-151930508D01*
X144196713Y-151926873D01*
X144200348Y-151923577D01*
X144204289Y-151920655D01*
X144208498Y-151918132D01*
X144212934Y-151916034D01*
X144217554Y-151914381D01*
X144222313Y-151913189D01*
X144227167Y-151912469D01*
X144232068Y-151912228D01*
X144852068Y-151912228D01*
X144856969Y-151912469D01*
X144856969Y-151912469D01*
G37*
D14*
X144542068Y-152037228D03*
D13*
G36*
X143936969Y-151912469D02*
G01*
X143941823Y-151913189D01*
X143946582Y-151914381D01*
X143951202Y-151916034D01*
X143955638Y-151918132D01*
X143959847Y-151920655D01*
X143963788Y-151923577D01*
X143967423Y-151926873D01*
X143970719Y-151930508D01*
X143973641Y-151934449D01*
X143976164Y-151938658D01*
X143978262Y-151943094D01*
X143979915Y-151947714D01*
X143981107Y-151952473D01*
X143981827Y-151957327D01*
X143982068Y-151962228D01*
X143982068Y-152112228D01*
X143981827Y-152117129D01*
X143981107Y-152121983D01*
X143979915Y-152126742D01*
X143978262Y-152131362D01*
X143976164Y-152135798D01*
X143973641Y-152140007D01*
X143970719Y-152143948D01*
X143967423Y-152147583D01*
X143963788Y-152150879D01*
X143959847Y-152153801D01*
X143955638Y-152156324D01*
X143951202Y-152158422D01*
X143946582Y-152160075D01*
X143941823Y-152161267D01*
X143936969Y-152161987D01*
X143932068Y-152162228D01*
X143312068Y-152162228D01*
X143307167Y-152161987D01*
X143302313Y-152161267D01*
X143297554Y-152160075D01*
X143292934Y-152158422D01*
X143288498Y-152156324D01*
X143284289Y-152153801D01*
X143280348Y-152150879D01*
X143276713Y-152147583D01*
X143273417Y-152143948D01*
X143270495Y-152140007D01*
X143267972Y-152135798D01*
X143265874Y-152131362D01*
X143264221Y-152126742D01*
X143263029Y-152121983D01*
X143262309Y-152117129D01*
X143262068Y-152112228D01*
X143262068Y-151962228D01*
X143262309Y-151957327D01*
X143263029Y-151952473D01*
X143264221Y-151947714D01*
X143265874Y-151943094D01*
X143267972Y-151938658D01*
X143270495Y-151934449D01*
X143273417Y-151930508D01*
X143276713Y-151926873D01*
X143280348Y-151923577D01*
X143284289Y-151920655D01*
X143288498Y-151918132D01*
X143292934Y-151916034D01*
X143297554Y-151914381D01*
X143302313Y-151913189D01*
X143307167Y-151912469D01*
X143312068Y-151912228D01*
X143932068Y-151912228D01*
X143936969Y-151912469D01*
X143936969Y-151912469D01*
G37*
D14*
X143622068Y-152037228D03*
D13*
G36*
X143836969Y-150337469D02*
G01*
X143841823Y-150338189D01*
X143846582Y-150339381D01*
X143851202Y-150341034D01*
X143855638Y-150343132D01*
X143859847Y-150345655D01*
X143863788Y-150348577D01*
X143867423Y-150351873D01*
X143870719Y-150355508D01*
X143873641Y-150359449D01*
X143876164Y-150363658D01*
X143878262Y-150368094D01*
X143879915Y-150372714D01*
X143881107Y-150377473D01*
X143881827Y-150382327D01*
X143882068Y-150387228D01*
X143882068Y-150887228D01*
X143881827Y-150892129D01*
X143881107Y-150896983D01*
X143879915Y-150901742D01*
X143878262Y-150906362D01*
X143876164Y-150910798D01*
X143873641Y-150915007D01*
X143870719Y-150918948D01*
X143867423Y-150922583D01*
X143863788Y-150925879D01*
X143859847Y-150928801D01*
X143855638Y-150931324D01*
X143851202Y-150933422D01*
X143846582Y-150935075D01*
X143841823Y-150936267D01*
X143836969Y-150936987D01*
X143832068Y-150937228D01*
X143682068Y-150937228D01*
X143677167Y-150936987D01*
X143672313Y-150936267D01*
X143667554Y-150935075D01*
X143662934Y-150933422D01*
X143658498Y-150931324D01*
X143654289Y-150928801D01*
X143650348Y-150925879D01*
X143646713Y-150922583D01*
X143643417Y-150918948D01*
X143640495Y-150915007D01*
X143637972Y-150910798D01*
X143635874Y-150906362D01*
X143634221Y-150901742D01*
X143633029Y-150896983D01*
X143632309Y-150892129D01*
X143632068Y-150887228D01*
X143632068Y-150387228D01*
X143632309Y-150382327D01*
X143633029Y-150377473D01*
X143634221Y-150372714D01*
X143635874Y-150368094D01*
X143637972Y-150363658D01*
X143640495Y-150359449D01*
X143643417Y-150355508D01*
X143646713Y-150351873D01*
X143650348Y-150348577D01*
X143654289Y-150345655D01*
X143658498Y-150343132D01*
X143662934Y-150341034D01*
X143667554Y-150339381D01*
X143672313Y-150338189D01*
X143677167Y-150337469D01*
X143682068Y-150337228D01*
X143832068Y-150337228D01*
X143836969Y-150337469D01*
X143836969Y-150337469D01*
G37*
D14*
X143757068Y-150637228D03*
D13*
G36*
X144336969Y-150337469D02*
G01*
X144341823Y-150338189D01*
X144346582Y-150339381D01*
X144351202Y-150341034D01*
X144355638Y-150343132D01*
X144359847Y-150345655D01*
X144363788Y-150348577D01*
X144367423Y-150351873D01*
X144370719Y-150355508D01*
X144373641Y-150359449D01*
X144376164Y-150363658D01*
X144378262Y-150368094D01*
X144379915Y-150372714D01*
X144381107Y-150377473D01*
X144381827Y-150382327D01*
X144382068Y-150387228D01*
X144382068Y-150887228D01*
X144381827Y-150892129D01*
X144381107Y-150896983D01*
X144379915Y-150901742D01*
X144378262Y-150906362D01*
X144376164Y-150910798D01*
X144373641Y-150915007D01*
X144370719Y-150918948D01*
X144367423Y-150922583D01*
X144363788Y-150925879D01*
X144359847Y-150928801D01*
X144355638Y-150931324D01*
X144351202Y-150933422D01*
X144346582Y-150935075D01*
X144341823Y-150936267D01*
X144336969Y-150936987D01*
X144332068Y-150937228D01*
X144182068Y-150937228D01*
X144177167Y-150936987D01*
X144172313Y-150936267D01*
X144167554Y-150935075D01*
X144162934Y-150933422D01*
X144158498Y-150931324D01*
X144154289Y-150928801D01*
X144150348Y-150925879D01*
X144146713Y-150922583D01*
X144143417Y-150918948D01*
X144140495Y-150915007D01*
X144137972Y-150910798D01*
X144135874Y-150906362D01*
X144134221Y-150901742D01*
X144133029Y-150896983D01*
X144132309Y-150892129D01*
X144132068Y-150887228D01*
X144132068Y-150387228D01*
X144132309Y-150382327D01*
X144133029Y-150377473D01*
X144134221Y-150372714D01*
X144135874Y-150368094D01*
X144137972Y-150363658D01*
X144140495Y-150359449D01*
X144143417Y-150355508D01*
X144146713Y-150351873D01*
X144150348Y-150348577D01*
X144154289Y-150345655D01*
X144158498Y-150343132D01*
X144162934Y-150341034D01*
X144167554Y-150339381D01*
X144172313Y-150338189D01*
X144177167Y-150337469D01*
X144182068Y-150337228D01*
X144332068Y-150337228D01*
X144336969Y-150337469D01*
X144336969Y-150337469D01*
G37*
D14*
X144257068Y-150637228D03*
D13*
G36*
X144261969Y-150687469D02*
G01*
X144266823Y-150688189D01*
X144271582Y-150689381D01*
X144276202Y-150691034D01*
X144280638Y-150693132D01*
X144284847Y-150695655D01*
X144288788Y-150698577D01*
X144292423Y-150701873D01*
X144295719Y-150705508D01*
X144298641Y-150709449D01*
X144301164Y-150713658D01*
X144303262Y-150718094D01*
X144304915Y-150722714D01*
X144306107Y-150727473D01*
X144306827Y-150732327D01*
X144307068Y-150737228D01*
X144307068Y-150887228D01*
X144306827Y-150892129D01*
X144306107Y-150896983D01*
X144304915Y-150901742D01*
X144303262Y-150906362D01*
X144301164Y-150910798D01*
X144298641Y-150915007D01*
X144295719Y-150918948D01*
X144292423Y-150922583D01*
X144288788Y-150925879D01*
X144284847Y-150928801D01*
X144280638Y-150931324D01*
X144276202Y-150933422D01*
X144271582Y-150935075D01*
X144266823Y-150936267D01*
X144261969Y-150936987D01*
X144257068Y-150937228D01*
X143757068Y-150937228D01*
X143752167Y-150936987D01*
X143747313Y-150936267D01*
X143742554Y-150935075D01*
X143737934Y-150933422D01*
X143733498Y-150931324D01*
X143729289Y-150928801D01*
X143725348Y-150925879D01*
X143721713Y-150922583D01*
X143718417Y-150918948D01*
X143715495Y-150915007D01*
X143712972Y-150910798D01*
X143710874Y-150906362D01*
X143709221Y-150901742D01*
X143708029Y-150896983D01*
X143707309Y-150892129D01*
X143707068Y-150887228D01*
X143707068Y-150737228D01*
X143707309Y-150732327D01*
X143708029Y-150727473D01*
X143709221Y-150722714D01*
X143710874Y-150718094D01*
X143712972Y-150713658D01*
X143715495Y-150709449D01*
X143718417Y-150705508D01*
X143721713Y-150701873D01*
X143725348Y-150698577D01*
X143729289Y-150695655D01*
X143733498Y-150693132D01*
X143737934Y-150691034D01*
X143742554Y-150689381D01*
X143747313Y-150688189D01*
X143752167Y-150687469D01*
X143757068Y-150687228D01*
X144257068Y-150687228D01*
X144261969Y-150687469D01*
X144261969Y-150687469D01*
G37*
D14*
X144007068Y-150812228D03*
D13*
G36*
X144261969Y-153137469D02*
G01*
X144266823Y-153138189D01*
X144271582Y-153139381D01*
X144276202Y-153141034D01*
X144280638Y-153143132D01*
X144284847Y-153145655D01*
X144288788Y-153148577D01*
X144292423Y-153151873D01*
X144295719Y-153155508D01*
X144298641Y-153159449D01*
X144301164Y-153163658D01*
X144303262Y-153168094D01*
X144304915Y-153172714D01*
X144306107Y-153177473D01*
X144306827Y-153182327D01*
X144307068Y-153187228D01*
X144307068Y-153337228D01*
X144306827Y-153342129D01*
X144306107Y-153346983D01*
X144304915Y-153351742D01*
X144303262Y-153356362D01*
X144301164Y-153360798D01*
X144298641Y-153365007D01*
X144295719Y-153368948D01*
X144292423Y-153372583D01*
X144288788Y-153375879D01*
X144284847Y-153378801D01*
X144280638Y-153381324D01*
X144276202Y-153383422D01*
X144271582Y-153385075D01*
X144266823Y-153386267D01*
X144261969Y-153386987D01*
X144257068Y-153387228D01*
X143757068Y-153387228D01*
X143752167Y-153386987D01*
X143747313Y-153386267D01*
X143742554Y-153385075D01*
X143737934Y-153383422D01*
X143733498Y-153381324D01*
X143729289Y-153378801D01*
X143725348Y-153375879D01*
X143721713Y-153372583D01*
X143718417Y-153368948D01*
X143715495Y-153365007D01*
X143712972Y-153360798D01*
X143710874Y-153356362D01*
X143709221Y-153351742D01*
X143708029Y-153346983D01*
X143707309Y-153342129D01*
X143707068Y-153337228D01*
X143707068Y-153187228D01*
X143707309Y-153182327D01*
X143708029Y-153177473D01*
X143709221Y-153172714D01*
X143710874Y-153168094D01*
X143712972Y-153163658D01*
X143715495Y-153159449D01*
X143718417Y-153155508D01*
X143721713Y-153151873D01*
X143725348Y-153148577D01*
X143729289Y-153145655D01*
X143733498Y-153143132D01*
X143737934Y-153141034D01*
X143742554Y-153139381D01*
X143747313Y-153138189D01*
X143752167Y-153137469D01*
X143757068Y-153137228D01*
X144257068Y-153137228D01*
X144261969Y-153137469D01*
X144261969Y-153137469D01*
G37*
D14*
X144007068Y-153262228D03*
D13*
G36*
X142836969Y-150337469D02*
G01*
X142841823Y-150338189D01*
X142846582Y-150339381D01*
X142851202Y-150341034D01*
X142855638Y-150343132D01*
X142859847Y-150345655D01*
X142863788Y-150348577D01*
X142867423Y-150351873D01*
X142870719Y-150355508D01*
X142873641Y-150359449D01*
X142876164Y-150363658D01*
X142878262Y-150368094D01*
X142879915Y-150372714D01*
X142881107Y-150377473D01*
X142881827Y-150382327D01*
X142882068Y-150387228D01*
X142882068Y-150887228D01*
X142881827Y-150892129D01*
X142881107Y-150896983D01*
X142879915Y-150901742D01*
X142878262Y-150906362D01*
X142876164Y-150910798D01*
X142873641Y-150915007D01*
X142870719Y-150918948D01*
X142867423Y-150922583D01*
X142863788Y-150925879D01*
X142859847Y-150928801D01*
X142855638Y-150931324D01*
X142851202Y-150933422D01*
X142846582Y-150935075D01*
X142841823Y-150936267D01*
X142836969Y-150936987D01*
X142832068Y-150937228D01*
X142682068Y-150937228D01*
X142677167Y-150936987D01*
X142672313Y-150936267D01*
X142667554Y-150935075D01*
X142662934Y-150933422D01*
X142658498Y-150931324D01*
X142654289Y-150928801D01*
X142650348Y-150925879D01*
X142646713Y-150922583D01*
X142643417Y-150918948D01*
X142640495Y-150915007D01*
X142637972Y-150910798D01*
X142635874Y-150906362D01*
X142634221Y-150901742D01*
X142633029Y-150896983D01*
X142632309Y-150892129D01*
X142632068Y-150887228D01*
X142632068Y-150387228D01*
X142632309Y-150382327D01*
X142633029Y-150377473D01*
X142634221Y-150372714D01*
X142635874Y-150368094D01*
X142637972Y-150363658D01*
X142640495Y-150359449D01*
X142643417Y-150355508D01*
X142646713Y-150351873D01*
X142650348Y-150348577D01*
X142654289Y-150345655D01*
X142658498Y-150343132D01*
X142662934Y-150341034D01*
X142667554Y-150339381D01*
X142672313Y-150338189D01*
X142677167Y-150337469D01*
X142682068Y-150337228D01*
X142832068Y-150337228D01*
X142836969Y-150337469D01*
X142836969Y-150337469D01*
G37*
D14*
X142757068Y-150637228D03*
D13*
G36*
X143336969Y-150337469D02*
G01*
X143341823Y-150338189D01*
X143346582Y-150339381D01*
X143351202Y-150341034D01*
X143355638Y-150343132D01*
X143359847Y-150345655D01*
X143363788Y-150348577D01*
X143367423Y-150351873D01*
X143370719Y-150355508D01*
X143373641Y-150359449D01*
X143376164Y-150363658D01*
X143378262Y-150368094D01*
X143379915Y-150372714D01*
X143381107Y-150377473D01*
X143381827Y-150382327D01*
X143382068Y-150387228D01*
X143382068Y-150887228D01*
X143381827Y-150892129D01*
X143381107Y-150896983D01*
X143379915Y-150901742D01*
X143378262Y-150906362D01*
X143376164Y-150910798D01*
X143373641Y-150915007D01*
X143370719Y-150918948D01*
X143367423Y-150922583D01*
X143363788Y-150925879D01*
X143359847Y-150928801D01*
X143355638Y-150931324D01*
X143351202Y-150933422D01*
X143346582Y-150935075D01*
X143341823Y-150936267D01*
X143336969Y-150936987D01*
X143332068Y-150937228D01*
X143182068Y-150937228D01*
X143177167Y-150936987D01*
X143172313Y-150936267D01*
X143167554Y-150935075D01*
X143162934Y-150933422D01*
X143158498Y-150931324D01*
X143154289Y-150928801D01*
X143150348Y-150925879D01*
X143146713Y-150922583D01*
X143143417Y-150918948D01*
X143140495Y-150915007D01*
X143137972Y-150910798D01*
X143135874Y-150906362D01*
X143134221Y-150901742D01*
X143133029Y-150896983D01*
X143132309Y-150892129D01*
X143132068Y-150887228D01*
X143132068Y-150387228D01*
X143132309Y-150382327D01*
X143133029Y-150377473D01*
X143134221Y-150372714D01*
X143135874Y-150368094D01*
X143137972Y-150363658D01*
X143140495Y-150359449D01*
X143143417Y-150355508D01*
X143146713Y-150351873D01*
X143150348Y-150348577D01*
X143154289Y-150345655D01*
X143158498Y-150343132D01*
X143162934Y-150341034D01*
X143167554Y-150339381D01*
X143172313Y-150338189D01*
X143177167Y-150337469D01*
X143182068Y-150337228D01*
X143332068Y-150337228D01*
X143336969Y-150337469D01*
X143336969Y-150337469D01*
G37*
D14*
X143257068Y-150637228D03*
D13*
G36*
X144336969Y-153137469D02*
G01*
X144341823Y-153138189D01*
X144346582Y-153139381D01*
X144351202Y-153141034D01*
X144355638Y-153143132D01*
X144359847Y-153145655D01*
X144363788Y-153148577D01*
X144367423Y-153151873D01*
X144370719Y-153155508D01*
X144373641Y-153159449D01*
X144376164Y-153163658D01*
X144378262Y-153168094D01*
X144379915Y-153172714D01*
X144381107Y-153177473D01*
X144381827Y-153182327D01*
X144382068Y-153187228D01*
X144382068Y-153687228D01*
X144381827Y-153692129D01*
X144381107Y-153696983D01*
X144379915Y-153701742D01*
X144378262Y-153706362D01*
X144376164Y-153710798D01*
X144373641Y-153715007D01*
X144370719Y-153718948D01*
X144367423Y-153722583D01*
X144363788Y-153725879D01*
X144359847Y-153728801D01*
X144355638Y-153731324D01*
X144351202Y-153733422D01*
X144346582Y-153735075D01*
X144341823Y-153736267D01*
X144336969Y-153736987D01*
X144332068Y-153737228D01*
X144182068Y-153737228D01*
X144177167Y-153736987D01*
X144172313Y-153736267D01*
X144167554Y-153735075D01*
X144162934Y-153733422D01*
X144158498Y-153731324D01*
X144154289Y-153728801D01*
X144150348Y-153725879D01*
X144146713Y-153722583D01*
X144143417Y-153718948D01*
X144140495Y-153715007D01*
X144137972Y-153710798D01*
X144135874Y-153706362D01*
X144134221Y-153701742D01*
X144133029Y-153696983D01*
X144132309Y-153692129D01*
X144132068Y-153687228D01*
X144132068Y-153187228D01*
X144132309Y-153182327D01*
X144133029Y-153177473D01*
X144134221Y-153172714D01*
X144135874Y-153168094D01*
X144137972Y-153163658D01*
X144140495Y-153159449D01*
X144143417Y-153155508D01*
X144146713Y-153151873D01*
X144150348Y-153148577D01*
X144154289Y-153145655D01*
X144158498Y-153143132D01*
X144162934Y-153141034D01*
X144167554Y-153139381D01*
X144172313Y-153138189D01*
X144177167Y-153137469D01*
X144182068Y-153137228D01*
X144332068Y-153137228D01*
X144336969Y-153137469D01*
X144336969Y-153137469D01*
G37*
D14*
X144257068Y-153437228D03*
D13*
G36*
X143836969Y-153137469D02*
G01*
X143841823Y-153138189D01*
X143846582Y-153139381D01*
X143851202Y-153141034D01*
X143855638Y-153143132D01*
X143859847Y-153145655D01*
X143863788Y-153148577D01*
X143867423Y-153151873D01*
X143870719Y-153155508D01*
X143873641Y-153159449D01*
X143876164Y-153163658D01*
X143878262Y-153168094D01*
X143879915Y-153172714D01*
X143881107Y-153177473D01*
X143881827Y-153182327D01*
X143882068Y-153187228D01*
X143882068Y-153687228D01*
X143881827Y-153692129D01*
X143881107Y-153696983D01*
X143879915Y-153701742D01*
X143878262Y-153706362D01*
X143876164Y-153710798D01*
X143873641Y-153715007D01*
X143870719Y-153718948D01*
X143867423Y-153722583D01*
X143863788Y-153725879D01*
X143859847Y-153728801D01*
X143855638Y-153731324D01*
X143851202Y-153733422D01*
X143846582Y-153735075D01*
X143841823Y-153736267D01*
X143836969Y-153736987D01*
X143832068Y-153737228D01*
X143682068Y-153737228D01*
X143677167Y-153736987D01*
X143672313Y-153736267D01*
X143667554Y-153735075D01*
X143662934Y-153733422D01*
X143658498Y-153731324D01*
X143654289Y-153728801D01*
X143650348Y-153725879D01*
X143646713Y-153722583D01*
X143643417Y-153718948D01*
X143640495Y-153715007D01*
X143637972Y-153710798D01*
X143635874Y-153706362D01*
X143634221Y-153701742D01*
X143633029Y-153696983D01*
X143632309Y-153692129D01*
X143632068Y-153687228D01*
X143632068Y-153187228D01*
X143632309Y-153182327D01*
X143633029Y-153177473D01*
X143634221Y-153172714D01*
X143635874Y-153168094D01*
X143637972Y-153163658D01*
X143640495Y-153159449D01*
X143643417Y-153155508D01*
X143646713Y-153151873D01*
X143650348Y-153148577D01*
X143654289Y-153145655D01*
X143658498Y-153143132D01*
X143662934Y-153141034D01*
X143667554Y-153139381D01*
X143672313Y-153138189D01*
X143677167Y-153137469D01*
X143682068Y-153137228D01*
X143832068Y-153137228D01*
X143836969Y-153137469D01*
X143836969Y-153137469D01*
G37*
D14*
X143757068Y-153437228D03*
D13*
G36*
X143336969Y-153137469D02*
G01*
X143341823Y-153138189D01*
X143346582Y-153139381D01*
X143351202Y-153141034D01*
X143355638Y-153143132D01*
X143359847Y-153145655D01*
X143363788Y-153148577D01*
X143367423Y-153151873D01*
X143370719Y-153155508D01*
X143373641Y-153159449D01*
X143376164Y-153163658D01*
X143378262Y-153168094D01*
X143379915Y-153172714D01*
X143381107Y-153177473D01*
X143381827Y-153182327D01*
X143382068Y-153187228D01*
X143382068Y-153687228D01*
X143381827Y-153692129D01*
X143381107Y-153696983D01*
X143379915Y-153701742D01*
X143378262Y-153706362D01*
X143376164Y-153710798D01*
X143373641Y-153715007D01*
X143370719Y-153718948D01*
X143367423Y-153722583D01*
X143363788Y-153725879D01*
X143359847Y-153728801D01*
X143355638Y-153731324D01*
X143351202Y-153733422D01*
X143346582Y-153735075D01*
X143341823Y-153736267D01*
X143336969Y-153736987D01*
X143332068Y-153737228D01*
X143182068Y-153737228D01*
X143177167Y-153736987D01*
X143172313Y-153736267D01*
X143167554Y-153735075D01*
X143162934Y-153733422D01*
X143158498Y-153731324D01*
X143154289Y-153728801D01*
X143150348Y-153725879D01*
X143146713Y-153722583D01*
X143143417Y-153718948D01*
X143140495Y-153715007D01*
X143137972Y-153710798D01*
X143135874Y-153706362D01*
X143134221Y-153701742D01*
X143133029Y-153696983D01*
X143132309Y-153692129D01*
X143132068Y-153687228D01*
X143132068Y-153187228D01*
X143132309Y-153182327D01*
X143133029Y-153177473D01*
X143134221Y-153172714D01*
X143135874Y-153168094D01*
X143137972Y-153163658D01*
X143140495Y-153159449D01*
X143143417Y-153155508D01*
X143146713Y-153151873D01*
X143150348Y-153148577D01*
X143154289Y-153145655D01*
X143158498Y-153143132D01*
X143162934Y-153141034D01*
X143167554Y-153139381D01*
X143172313Y-153138189D01*
X143177167Y-153137469D01*
X143182068Y-153137228D01*
X143332068Y-153137228D01*
X143336969Y-153137469D01*
X143336969Y-153137469D01*
G37*
D14*
X143257068Y-153437228D03*
D13*
G36*
X142836969Y-153137469D02*
G01*
X142841823Y-153138189D01*
X142846582Y-153139381D01*
X142851202Y-153141034D01*
X142855638Y-153143132D01*
X142859847Y-153145655D01*
X142863788Y-153148577D01*
X142867423Y-153151873D01*
X142870719Y-153155508D01*
X142873641Y-153159449D01*
X142876164Y-153163658D01*
X142878262Y-153168094D01*
X142879915Y-153172714D01*
X142881107Y-153177473D01*
X142881827Y-153182327D01*
X142882068Y-153187228D01*
X142882068Y-153687228D01*
X142881827Y-153692129D01*
X142881107Y-153696983D01*
X142879915Y-153701742D01*
X142878262Y-153706362D01*
X142876164Y-153710798D01*
X142873641Y-153715007D01*
X142870719Y-153718948D01*
X142867423Y-153722583D01*
X142863788Y-153725879D01*
X142859847Y-153728801D01*
X142855638Y-153731324D01*
X142851202Y-153733422D01*
X142846582Y-153735075D01*
X142841823Y-153736267D01*
X142836969Y-153736987D01*
X142832068Y-153737228D01*
X142682068Y-153737228D01*
X142677167Y-153736987D01*
X142672313Y-153736267D01*
X142667554Y-153735075D01*
X142662934Y-153733422D01*
X142658498Y-153731324D01*
X142654289Y-153728801D01*
X142650348Y-153725879D01*
X142646713Y-153722583D01*
X142643417Y-153718948D01*
X142640495Y-153715007D01*
X142637972Y-153710798D01*
X142635874Y-153706362D01*
X142634221Y-153701742D01*
X142633029Y-153696983D01*
X142632309Y-153692129D01*
X142632068Y-153687228D01*
X142632068Y-153187228D01*
X142632309Y-153182327D01*
X142633029Y-153177473D01*
X142634221Y-153172714D01*
X142635874Y-153168094D01*
X142637972Y-153163658D01*
X142640495Y-153159449D01*
X142643417Y-153155508D01*
X142646713Y-153151873D01*
X142650348Y-153148577D01*
X142654289Y-153145655D01*
X142658498Y-153143132D01*
X142662934Y-153141034D01*
X142667554Y-153139381D01*
X142672313Y-153138189D01*
X142677167Y-153137469D01*
X142682068Y-153137228D01*
X142832068Y-153137228D01*
X142836969Y-153137469D01*
X142836969Y-153137469D01*
G37*
D14*
X142757068Y-153437228D03*
D13*
G36*
X142586969Y-152662469D02*
G01*
X142591823Y-152663189D01*
X142596582Y-152664381D01*
X142601202Y-152666034D01*
X142605638Y-152668132D01*
X142609847Y-152670655D01*
X142613788Y-152673577D01*
X142617423Y-152676873D01*
X142620719Y-152680508D01*
X142623641Y-152684449D01*
X142626164Y-152688658D01*
X142628262Y-152693094D01*
X142629915Y-152697714D01*
X142631107Y-152702473D01*
X142631827Y-152707327D01*
X142632068Y-152712228D01*
X142632068Y-152862228D01*
X142631827Y-152867129D01*
X142631107Y-152871983D01*
X142629915Y-152876742D01*
X142628262Y-152881362D01*
X142626164Y-152885798D01*
X142623641Y-152890007D01*
X142620719Y-152893948D01*
X142617423Y-152897583D01*
X142613788Y-152900879D01*
X142609847Y-152903801D01*
X142605638Y-152906324D01*
X142601202Y-152908422D01*
X142596582Y-152910075D01*
X142591823Y-152911267D01*
X142586969Y-152911987D01*
X142582068Y-152912228D01*
X142082068Y-152912228D01*
X142077167Y-152911987D01*
X142072313Y-152911267D01*
X142067554Y-152910075D01*
X142062934Y-152908422D01*
X142058498Y-152906324D01*
X142054289Y-152903801D01*
X142050348Y-152900879D01*
X142046713Y-152897583D01*
X142043417Y-152893948D01*
X142040495Y-152890007D01*
X142037972Y-152885798D01*
X142035874Y-152881362D01*
X142034221Y-152876742D01*
X142033029Y-152871983D01*
X142032309Y-152867129D01*
X142032068Y-152862228D01*
X142032068Y-152712228D01*
X142032309Y-152707327D01*
X142033029Y-152702473D01*
X142034221Y-152697714D01*
X142035874Y-152693094D01*
X142037972Y-152688658D01*
X142040495Y-152684449D01*
X142043417Y-152680508D01*
X142046713Y-152676873D01*
X142050348Y-152673577D01*
X142054289Y-152670655D01*
X142058498Y-152668132D01*
X142062934Y-152666034D01*
X142067554Y-152664381D01*
X142072313Y-152663189D01*
X142077167Y-152662469D01*
X142082068Y-152662228D01*
X142582068Y-152662228D01*
X142586969Y-152662469D01*
X142586969Y-152662469D01*
G37*
D14*
X142332068Y-152787228D03*
D13*
G36*
X142586969Y-152162469D02*
G01*
X142591823Y-152163189D01*
X142596582Y-152164381D01*
X142601202Y-152166034D01*
X142605638Y-152168132D01*
X142609847Y-152170655D01*
X142613788Y-152173577D01*
X142617423Y-152176873D01*
X142620719Y-152180508D01*
X142623641Y-152184449D01*
X142626164Y-152188658D01*
X142628262Y-152193094D01*
X142629915Y-152197714D01*
X142631107Y-152202473D01*
X142631827Y-152207327D01*
X142632068Y-152212228D01*
X142632068Y-152362228D01*
X142631827Y-152367129D01*
X142631107Y-152371983D01*
X142629915Y-152376742D01*
X142628262Y-152381362D01*
X142626164Y-152385798D01*
X142623641Y-152390007D01*
X142620719Y-152393948D01*
X142617423Y-152397583D01*
X142613788Y-152400879D01*
X142609847Y-152403801D01*
X142605638Y-152406324D01*
X142601202Y-152408422D01*
X142596582Y-152410075D01*
X142591823Y-152411267D01*
X142586969Y-152411987D01*
X142582068Y-152412228D01*
X142082068Y-152412228D01*
X142077167Y-152411987D01*
X142072313Y-152411267D01*
X142067554Y-152410075D01*
X142062934Y-152408422D01*
X142058498Y-152406324D01*
X142054289Y-152403801D01*
X142050348Y-152400879D01*
X142046713Y-152397583D01*
X142043417Y-152393948D01*
X142040495Y-152390007D01*
X142037972Y-152385798D01*
X142035874Y-152381362D01*
X142034221Y-152376742D01*
X142033029Y-152371983D01*
X142032309Y-152367129D01*
X142032068Y-152362228D01*
X142032068Y-152212228D01*
X142032309Y-152207327D01*
X142033029Y-152202473D01*
X142034221Y-152197714D01*
X142035874Y-152193094D01*
X142037972Y-152188658D01*
X142040495Y-152184449D01*
X142043417Y-152180508D01*
X142046713Y-152176873D01*
X142050348Y-152173577D01*
X142054289Y-152170655D01*
X142058498Y-152168132D01*
X142062934Y-152166034D01*
X142067554Y-152164381D01*
X142072313Y-152163189D01*
X142077167Y-152162469D01*
X142082068Y-152162228D01*
X142582068Y-152162228D01*
X142586969Y-152162469D01*
X142586969Y-152162469D01*
G37*
D14*
X142332068Y-152287228D03*
D13*
G36*
X142586969Y-151662469D02*
G01*
X142591823Y-151663189D01*
X142596582Y-151664381D01*
X142601202Y-151666034D01*
X142605638Y-151668132D01*
X142609847Y-151670655D01*
X142613788Y-151673577D01*
X142617423Y-151676873D01*
X142620719Y-151680508D01*
X142623641Y-151684449D01*
X142626164Y-151688658D01*
X142628262Y-151693094D01*
X142629915Y-151697714D01*
X142631107Y-151702473D01*
X142631827Y-151707327D01*
X142632068Y-151712228D01*
X142632068Y-151862228D01*
X142631827Y-151867129D01*
X142631107Y-151871983D01*
X142629915Y-151876742D01*
X142628262Y-151881362D01*
X142626164Y-151885798D01*
X142623641Y-151890007D01*
X142620719Y-151893948D01*
X142617423Y-151897583D01*
X142613788Y-151900879D01*
X142609847Y-151903801D01*
X142605638Y-151906324D01*
X142601202Y-151908422D01*
X142596582Y-151910075D01*
X142591823Y-151911267D01*
X142586969Y-151911987D01*
X142582068Y-151912228D01*
X142082068Y-151912228D01*
X142077167Y-151911987D01*
X142072313Y-151911267D01*
X142067554Y-151910075D01*
X142062934Y-151908422D01*
X142058498Y-151906324D01*
X142054289Y-151903801D01*
X142050348Y-151900879D01*
X142046713Y-151897583D01*
X142043417Y-151893948D01*
X142040495Y-151890007D01*
X142037972Y-151885798D01*
X142035874Y-151881362D01*
X142034221Y-151876742D01*
X142033029Y-151871983D01*
X142032309Y-151867129D01*
X142032068Y-151862228D01*
X142032068Y-151712228D01*
X142032309Y-151707327D01*
X142033029Y-151702473D01*
X142034221Y-151697714D01*
X142035874Y-151693094D01*
X142037972Y-151688658D01*
X142040495Y-151684449D01*
X142043417Y-151680508D01*
X142046713Y-151676873D01*
X142050348Y-151673577D01*
X142054289Y-151670655D01*
X142058498Y-151668132D01*
X142062934Y-151666034D01*
X142067554Y-151664381D01*
X142072313Y-151663189D01*
X142077167Y-151662469D01*
X142082068Y-151662228D01*
X142582068Y-151662228D01*
X142586969Y-151662469D01*
X142586969Y-151662469D01*
G37*
D14*
X142332068Y-151787228D03*
D13*
G36*
X142586969Y-151162469D02*
G01*
X142591823Y-151163189D01*
X142596582Y-151164381D01*
X142601202Y-151166034D01*
X142605638Y-151168132D01*
X142609847Y-151170655D01*
X142613788Y-151173577D01*
X142617423Y-151176873D01*
X142620719Y-151180508D01*
X142623641Y-151184449D01*
X142626164Y-151188658D01*
X142628262Y-151193094D01*
X142629915Y-151197714D01*
X142631107Y-151202473D01*
X142631827Y-151207327D01*
X142632068Y-151212228D01*
X142632068Y-151362228D01*
X142631827Y-151367129D01*
X142631107Y-151371983D01*
X142629915Y-151376742D01*
X142628262Y-151381362D01*
X142626164Y-151385798D01*
X142623641Y-151390007D01*
X142620719Y-151393948D01*
X142617423Y-151397583D01*
X142613788Y-151400879D01*
X142609847Y-151403801D01*
X142605638Y-151406324D01*
X142601202Y-151408422D01*
X142596582Y-151410075D01*
X142591823Y-151411267D01*
X142586969Y-151411987D01*
X142582068Y-151412228D01*
X142082068Y-151412228D01*
X142077167Y-151411987D01*
X142072313Y-151411267D01*
X142067554Y-151410075D01*
X142062934Y-151408422D01*
X142058498Y-151406324D01*
X142054289Y-151403801D01*
X142050348Y-151400879D01*
X142046713Y-151397583D01*
X142043417Y-151393948D01*
X142040495Y-151390007D01*
X142037972Y-151385798D01*
X142035874Y-151381362D01*
X142034221Y-151376742D01*
X142033029Y-151371983D01*
X142032309Y-151367129D01*
X142032068Y-151362228D01*
X142032068Y-151212228D01*
X142032309Y-151207327D01*
X142033029Y-151202473D01*
X142034221Y-151197714D01*
X142035874Y-151193094D01*
X142037972Y-151188658D01*
X142040495Y-151184449D01*
X142043417Y-151180508D01*
X142046713Y-151176873D01*
X142050348Y-151173577D01*
X142054289Y-151170655D01*
X142058498Y-151168132D01*
X142062934Y-151166034D01*
X142067554Y-151164381D01*
X142072313Y-151163189D01*
X142077167Y-151162469D01*
X142082068Y-151162228D01*
X142582068Y-151162228D01*
X142586969Y-151162469D01*
X142586969Y-151162469D01*
G37*
D14*
X142332068Y-151287228D03*
D15*
X152350000Y-109450000D03*
X152350000Y-110350000D03*
X153250000Y-109450000D03*
X153250000Y-110350000D03*
D16*
X152050000Y-108425000D03*
X152550000Y-108425000D03*
X153050000Y-108425000D03*
X153550000Y-108425000D03*
D17*
X154275000Y-109150000D03*
X154275000Y-109650000D03*
X154275000Y-110150000D03*
X154275000Y-110650000D03*
D16*
X153550000Y-111375000D03*
X153050000Y-111375000D03*
X152550000Y-111375000D03*
X152050000Y-111375000D03*
D17*
X151325000Y-110650000D03*
X151325000Y-110150000D03*
X151325000Y-109650000D03*
X151325000Y-109150000D03*
D18*
X108500000Y-171300000D03*
D19*
X108500000Y-155500000D03*
D20*
X113500000Y-132400000D03*
X113500000Y-130900000D03*
D21*
X119800000Y-135000000D03*
X117800000Y-135000000D03*
X154220456Y-115400423D03*
X152220456Y-115400423D03*
X152220456Y-117350423D03*
X154220456Y-117350423D03*
X154220457Y-113350423D03*
X152220457Y-113350423D03*
D22*
X125100000Y-150900000D03*
X123600000Y-150900000D03*
X118800000Y-126200000D03*
X120300000Y-126200000D03*
D20*
X116900000Y-129000000D03*
X116900000Y-127500000D03*
D22*
X113650000Y-126200000D03*
X112150000Y-126200000D03*
D21*
X145427568Y-158703228D03*
X143427568Y-158703228D03*
X143427569Y-156734728D03*
X145427569Y-156734728D03*
X145427569Y-160671728D03*
X143427569Y-160671728D03*
D23*
X140000000Y-156100000D03*
X140000000Y-154100000D03*
D20*
X145844568Y-154747728D03*
X145844568Y-153247728D03*
X145844569Y-150810728D03*
X145844569Y-149310728D03*
D21*
X143364068Y-147078729D03*
X145364068Y-147078729D03*
X145250000Y-145050000D03*
X143250000Y-145050000D03*
D24*
X120600000Y-132100000D03*
X118500000Y-132100000D03*
D25*
X124800000Y-135000000D03*
X124800000Y-133400000D03*
D26*
X116800000Y-131000000D03*
X116800000Y-132500000D03*
X127100000Y-152950000D03*
X127100000Y-154450000D03*
X122500000Y-148250000D03*
X122500000Y-146750000D03*
X115100000Y-131000000D03*
X115100000Y-132500000D03*
X126700000Y-137800000D03*
X126700000Y-136300000D03*
X124800000Y-137850000D03*
X124800000Y-136350000D03*
X149300000Y-111200000D03*
X149300000Y-109700000D03*
D27*
X124981826Y-113724386D03*
X126481826Y-113724386D03*
D26*
X121700000Y-136050000D03*
X121700000Y-134550000D03*
D27*
X152570457Y-119300423D03*
X154070457Y-119300423D03*
D26*
X141660000Y-169400000D03*
X141660000Y-170900000D03*
D27*
X139600000Y-152450000D03*
X138100000Y-152450000D03*
D26*
X139500000Y-148950000D03*
X139500000Y-150450000D03*
D28*
X120400000Y-152700000D03*
X120400000Y-153350000D03*
X120400000Y-154000000D03*
X120400000Y-154650000D03*
X124800000Y-154650000D03*
X124800000Y-154000000D03*
X124800000Y-153350000D03*
X124800000Y-152700000D03*
D29*
X118555001Y-128025001D03*
X118555001Y-129925001D03*
X120555001Y-128975001D03*
D30*
X115400000Y-137930000D03*
X115400000Y-139200000D03*
X115400000Y-140470000D03*
X115400000Y-141740000D03*
X120800000Y-141740000D03*
X120800000Y-140470000D03*
X120800000Y-139200000D03*
X120800000Y-137930000D03*
D31*
X109600000Y-138800000D03*
X109600000Y-144300000D03*
X112800000Y-144300000D03*
X112800000Y-138800000D03*
D27*
X122660000Y-120650000D03*
X124160000Y-120650000D03*
D32*
X126781826Y-115424386D03*
X124881826Y-115424386D03*
X125831826Y-117424386D03*
D29*
X124600000Y-146550000D03*
X124600000Y-148450000D03*
X126600000Y-147500000D03*
X145460000Y-169900000D03*
X143460000Y-170850000D03*
X143460000Y-168950000D03*
M02*
