G04 #@! TF.GenerationSoftware,KiCad,Pcbnew,5.1.2-f72e74a~84~ubuntu18.04.1*
G04 #@! TF.CreationDate,2019-05-05T15:24:06+12:00*
G04 #@! TF.ProjectId,pi-hat,70692d68-6174-42e6-9b69-6361645f7063,rev?*
G04 #@! TF.SameCoordinates,Original*
G04 #@! TF.FileFunction,Soldermask,Bot*
G04 #@! TF.FilePolarity,Negative*
%FSLAX46Y46*%
G04 Gerber Fmt 4.6, Leading zero omitted, Abs format (unit mm)*
G04 Created by KiCad (PCBNEW 5.1.2-f72e74a~84~ubuntu18.04.1) date 2019-05-05 15:24:06*
%MOMM*%
%LPD*%
G04 APERTURE LIST*
%ADD10C,0.100000*%
G04 APERTURE END LIST*
D10*
G36*
X151161654Y-169792665D02*
G01*
X151325872Y-169825330D01*
X151635252Y-169953479D01*
X151913687Y-170139523D01*
X152150477Y-170376313D01*
X152336521Y-170654748D01*
X152464670Y-170964128D01*
X152530000Y-171292565D01*
X152530000Y-171627435D01*
X152464670Y-171955872D01*
X152336521Y-172265252D01*
X152150477Y-172543687D01*
X151913687Y-172780477D01*
X151635252Y-172966521D01*
X151325872Y-173094670D01*
X151161654Y-173127335D01*
X150997437Y-173160000D01*
X150662563Y-173160000D01*
X150498346Y-173127335D01*
X150334128Y-173094670D01*
X150024748Y-172966521D01*
X149746313Y-172780477D01*
X149509523Y-172543687D01*
X149323479Y-172265252D01*
X149195330Y-171955872D01*
X149130000Y-171627435D01*
X149130000Y-171292565D01*
X149195330Y-170964128D01*
X149323479Y-170654748D01*
X149509523Y-170376313D01*
X149746313Y-170139523D01*
X150024748Y-169953479D01*
X150334128Y-169825330D01*
X150498346Y-169792665D01*
X150662563Y-169760000D01*
X150997437Y-169760000D01*
X151161654Y-169792665D01*
X151161654Y-169792665D01*
G37*
G36*
X149110000Y-168850000D02*
G01*
X147210000Y-168850000D01*
X147210000Y-166950000D01*
X149110000Y-166950000D01*
X149110000Y-168850000D01*
X149110000Y-168850000D01*
G37*
G36*
X108747935Y-166252664D02*
G01*
X108902624Y-166316739D01*
X108902626Y-166316740D01*
X109041844Y-166409762D01*
X109160238Y-166528156D01*
X109253260Y-166667374D01*
X109253261Y-166667376D01*
X109317336Y-166822065D01*
X109350000Y-166986281D01*
X109350000Y-167153719D01*
X109317336Y-167317935D01*
X109253261Y-167472624D01*
X109253260Y-167472626D01*
X109160238Y-167611844D01*
X109041844Y-167730238D01*
X108902626Y-167823260D01*
X108902625Y-167823261D01*
X108902624Y-167823261D01*
X108747935Y-167887336D01*
X108583719Y-167920000D01*
X108416281Y-167920000D01*
X108252065Y-167887336D01*
X108097376Y-167823261D01*
X108097375Y-167823261D01*
X108097374Y-167823260D01*
X107958156Y-167730238D01*
X107839762Y-167611844D01*
X107746740Y-167472626D01*
X107746739Y-167472624D01*
X107682664Y-167317935D01*
X107650000Y-167153719D01*
X107650000Y-166986281D01*
X107682664Y-166822065D01*
X107746739Y-166667376D01*
X107746740Y-166667374D01*
X107839762Y-166528156D01*
X107958156Y-166409762D01*
X108097374Y-166316740D01*
X108097376Y-166316739D01*
X108252065Y-166252664D01*
X108416281Y-166220000D01*
X108583719Y-166220000D01*
X108747935Y-166252664D01*
X108747935Y-166252664D01*
G37*
G36*
X148345336Y-162398254D02*
G01*
X148437105Y-162416508D01*
X148609994Y-162488121D01*
X148765590Y-162592087D01*
X148897913Y-162724410D01*
X149001879Y-162880006D01*
X149073492Y-163052895D01*
X149110000Y-163236433D01*
X149110000Y-163423567D01*
X149073492Y-163607105D01*
X149001879Y-163779994D01*
X148897913Y-163935590D01*
X148765590Y-164067913D01*
X148609994Y-164171879D01*
X148470841Y-164229518D01*
X148449234Y-164241067D01*
X148430292Y-164256613D01*
X148414747Y-164275554D01*
X148403196Y-164297165D01*
X148396083Y-164320614D01*
X148393681Y-164345000D01*
X148396083Y-164369386D01*
X148403196Y-164392835D01*
X148414747Y-164414446D01*
X148430293Y-164433388D01*
X148449234Y-164448933D01*
X148470841Y-164460482D01*
X148609994Y-164518121D01*
X148765590Y-164622087D01*
X148897913Y-164754410D01*
X149001879Y-164910006D01*
X149073492Y-165082895D01*
X149110000Y-165266433D01*
X149110000Y-165453567D01*
X149073492Y-165637105D01*
X149001879Y-165809994D01*
X148897913Y-165965590D01*
X148765590Y-166097913D01*
X148609994Y-166201879D01*
X148437105Y-166273492D01*
X148345336Y-166291746D01*
X148253568Y-166310000D01*
X148066432Y-166310000D01*
X147974664Y-166291746D01*
X147882895Y-166273492D01*
X147710006Y-166201879D01*
X147554410Y-166097913D01*
X147422087Y-165965590D01*
X147318121Y-165809994D01*
X147246508Y-165637105D01*
X147210000Y-165453567D01*
X147210000Y-165266433D01*
X147246508Y-165082895D01*
X147318121Y-164910006D01*
X147422087Y-164754410D01*
X147554410Y-164622087D01*
X147710006Y-164518121D01*
X147849159Y-164460482D01*
X147870766Y-164448933D01*
X147889708Y-164433387D01*
X147905253Y-164414446D01*
X147916804Y-164392835D01*
X147923917Y-164369386D01*
X147926319Y-164345000D01*
X147923917Y-164320614D01*
X147916804Y-164297165D01*
X147905253Y-164275554D01*
X147889707Y-164256612D01*
X147870766Y-164241067D01*
X147849159Y-164229518D01*
X147710006Y-164171879D01*
X147554410Y-164067913D01*
X147422087Y-163935590D01*
X147318121Y-163779994D01*
X147246508Y-163607105D01*
X147210000Y-163423567D01*
X147210000Y-163236433D01*
X147246508Y-163052895D01*
X147318121Y-162880006D01*
X147422087Y-162724410D01*
X147554410Y-162592087D01*
X147710006Y-162488121D01*
X147882895Y-162416508D01*
X147974664Y-162398254D01*
X148066432Y-162380000D01*
X148253568Y-162380000D01*
X148345336Y-162398254D01*
X148345336Y-162398254D01*
G37*
G36*
X148345336Y-159858254D02*
G01*
X148437105Y-159876508D01*
X148609994Y-159948121D01*
X148765590Y-160052087D01*
X148897913Y-160184410D01*
X149001879Y-160340006D01*
X149073492Y-160512895D01*
X149110000Y-160696433D01*
X149110000Y-160883567D01*
X149073492Y-161067105D01*
X149001879Y-161239994D01*
X148897913Y-161395590D01*
X148765590Y-161527913D01*
X148609994Y-161631879D01*
X148437105Y-161703492D01*
X148345336Y-161721746D01*
X148253568Y-161740000D01*
X148066432Y-161740000D01*
X147974664Y-161721746D01*
X147882895Y-161703492D01*
X147710006Y-161631879D01*
X147554410Y-161527913D01*
X147422087Y-161395590D01*
X147318121Y-161239994D01*
X147246508Y-161067105D01*
X147210000Y-160883567D01*
X147210000Y-160696433D01*
X147246508Y-160512895D01*
X147318121Y-160340006D01*
X147422087Y-160184410D01*
X147554410Y-160052087D01*
X147710006Y-159948121D01*
X147882895Y-159876508D01*
X147974664Y-159858254D01*
X148066432Y-159840000D01*
X148253568Y-159840000D01*
X148345336Y-159858254D01*
X148345336Y-159858254D01*
G37*
G36*
X108704182Y-158896900D02*
G01*
X108831573Y-158949667D01*
X108831574Y-158949668D01*
X108946224Y-159026274D01*
X109043726Y-159123776D01*
X109043727Y-159123778D01*
X109120333Y-159238427D01*
X109173100Y-159365818D01*
X109200000Y-159501055D01*
X109200000Y-159638945D01*
X109173100Y-159774182D01*
X109120333Y-159901573D01*
X109120332Y-159901574D01*
X109043726Y-160016224D01*
X108946224Y-160113726D01*
X108888510Y-160152289D01*
X108831573Y-160190333D01*
X108704182Y-160243100D01*
X108568945Y-160270000D01*
X108431055Y-160270000D01*
X108295818Y-160243100D01*
X108168427Y-160190333D01*
X108111490Y-160152289D01*
X108053776Y-160113726D01*
X107956274Y-160016224D01*
X107879668Y-159901574D01*
X107879667Y-159901573D01*
X107826900Y-159774182D01*
X107800000Y-159638945D01*
X107800000Y-159501055D01*
X107826900Y-159365818D01*
X107879667Y-159238427D01*
X107956273Y-159123778D01*
X107956274Y-159123776D01*
X108053776Y-159026274D01*
X108168426Y-158949668D01*
X108168427Y-158949667D01*
X108295818Y-158896900D01*
X108431055Y-158870000D01*
X108568945Y-158870000D01*
X108704182Y-158896900D01*
X108704182Y-158896900D01*
G37*
G36*
X151161654Y-156072665D02*
G01*
X151325872Y-156105330D01*
X151635252Y-156233479D01*
X151913687Y-156419523D01*
X152150477Y-156656313D01*
X152336521Y-156934748D01*
X152464670Y-157244128D01*
X152530000Y-157572565D01*
X152530000Y-157907435D01*
X152464670Y-158235872D01*
X152336521Y-158545252D01*
X152150477Y-158823687D01*
X151913687Y-159060477D01*
X151635252Y-159246521D01*
X151325872Y-159374670D01*
X151161653Y-159407335D01*
X150997437Y-159440000D01*
X150662563Y-159440000D01*
X150498347Y-159407335D01*
X150334128Y-159374670D01*
X150024748Y-159246521D01*
X149746313Y-159060477D01*
X149509523Y-158823687D01*
X149323479Y-158545252D01*
X149195330Y-158235872D01*
X149130000Y-157907435D01*
X149130000Y-157572565D01*
X149195330Y-157244128D01*
X149323479Y-156934748D01*
X149509523Y-156656313D01*
X149746313Y-156419523D01*
X150024748Y-156233479D01*
X150334128Y-156105330D01*
X150498346Y-156072665D01*
X150662563Y-156040000D01*
X150997437Y-156040000D01*
X151161654Y-156072665D01*
X151161654Y-156072665D01*
G37*
G36*
X131975000Y-156075000D02*
G01*
X129825000Y-156075000D01*
X129825000Y-153925000D01*
X131975000Y-153925000D01*
X131975000Y-156075000D01*
X131975000Y-156075000D01*
G37*
G36*
X104593404Y-149572974D02*
G01*
X105175767Y-149814196D01*
X105175768Y-149814197D01*
X105699881Y-150164398D01*
X106145602Y-150610119D01*
X106295867Y-150835007D01*
X106495804Y-151134233D01*
X106737026Y-151716596D01*
X106860000Y-152334826D01*
X106860000Y-152965174D01*
X106737026Y-153583404D01*
X106495804Y-154165767D01*
X106495803Y-154165768D01*
X106145602Y-154689881D01*
X105699881Y-155135602D01*
X105349679Y-155369599D01*
X105175767Y-155485804D01*
X104593404Y-155727026D01*
X103975174Y-155850000D01*
X103344826Y-155850000D01*
X102726596Y-155727026D01*
X102144233Y-155485804D01*
X101970321Y-155369599D01*
X101620119Y-155135602D01*
X101174398Y-154689881D01*
X100824197Y-154165768D01*
X100824196Y-154165767D01*
X100582974Y-153583404D01*
X100460000Y-152965174D01*
X100460000Y-152334826D01*
X100582974Y-151716596D01*
X100824196Y-151134233D01*
X101024133Y-150835007D01*
X101174398Y-150610119D01*
X101620119Y-150164398D01*
X102144232Y-149814197D01*
X102144233Y-149814196D01*
X102726596Y-149572974D01*
X103344826Y-149450000D01*
X103975174Y-149450000D01*
X104593404Y-149572974D01*
X104593404Y-149572974D01*
G37*
G36*
X162593404Y-149572974D02*
G01*
X163175767Y-149814196D01*
X163175768Y-149814197D01*
X163699881Y-150164398D01*
X164145602Y-150610119D01*
X164295867Y-150835007D01*
X164495804Y-151134233D01*
X164737026Y-151716596D01*
X164860000Y-152334826D01*
X164860000Y-152965174D01*
X164737026Y-153583404D01*
X164495804Y-154165767D01*
X164495803Y-154165768D01*
X164145602Y-154689881D01*
X163699881Y-155135602D01*
X163349679Y-155369599D01*
X163175767Y-155485804D01*
X162593404Y-155727026D01*
X161975174Y-155850000D01*
X161344826Y-155850000D01*
X160726596Y-155727026D01*
X160144233Y-155485804D01*
X159970321Y-155369599D01*
X159620119Y-155135602D01*
X159174398Y-154689881D01*
X158824197Y-154165768D01*
X158824196Y-154165767D01*
X158582974Y-153583404D01*
X158460000Y-152965174D01*
X158460000Y-152334826D01*
X158582974Y-151716596D01*
X158824196Y-151134233D01*
X159024133Y-150835007D01*
X159174398Y-150610119D01*
X159620119Y-150164398D01*
X160144232Y-149814197D01*
X160144233Y-149814196D01*
X160726596Y-149572974D01*
X161344826Y-149450000D01*
X161975174Y-149450000D01*
X162593404Y-149572974D01*
X162593404Y-149572974D01*
G37*
G36*
X131109722Y-151445656D02*
G01*
X131213566Y-151466312D01*
X131270866Y-151490047D01*
X131409203Y-151547347D01*
X131585272Y-151664993D01*
X131735007Y-151814728D01*
X131852653Y-151990797D01*
X131933688Y-152186435D01*
X131975000Y-152394121D01*
X131975000Y-152605879D01*
X131933688Y-152813565D01*
X131852653Y-153009203D01*
X131735007Y-153185272D01*
X131585272Y-153335007D01*
X131409203Y-153452653D01*
X131270866Y-153509953D01*
X131213566Y-153533688D01*
X131109722Y-153554344D01*
X131005879Y-153575000D01*
X130794121Y-153575000D01*
X130690278Y-153554344D01*
X130586434Y-153533688D01*
X130529134Y-153509953D01*
X130390797Y-153452653D01*
X130214728Y-153335007D01*
X130064993Y-153185272D01*
X129947347Y-153009203D01*
X129866312Y-152813565D01*
X129825000Y-152605879D01*
X129825000Y-152394121D01*
X129866312Y-152186435D01*
X129947347Y-151990797D01*
X130064993Y-151814728D01*
X130214728Y-151664993D01*
X130390797Y-151547347D01*
X130529134Y-151490047D01*
X130586434Y-151466312D01*
X130690278Y-151445656D01*
X130794121Y-151425000D01*
X131005879Y-151425000D01*
X131109722Y-151445656D01*
X131109722Y-151445656D01*
G37*
G36*
X131109722Y-148945656D02*
G01*
X131213566Y-148966312D01*
X131270866Y-148990047D01*
X131409203Y-149047347D01*
X131585272Y-149164993D01*
X131735007Y-149314728D01*
X131852653Y-149490797D01*
X131933688Y-149686435D01*
X131975000Y-149894121D01*
X131975000Y-150105879D01*
X131933688Y-150313565D01*
X131852653Y-150509203D01*
X131735007Y-150685272D01*
X131585272Y-150835007D01*
X131409203Y-150952653D01*
X131270866Y-151009953D01*
X131213566Y-151033688D01*
X131109722Y-151054344D01*
X131005879Y-151075000D01*
X130794121Y-151075000D01*
X130690278Y-151054344D01*
X130586434Y-151033688D01*
X130529134Y-151009953D01*
X130390797Y-150952653D01*
X130214728Y-150835007D01*
X130064993Y-150685272D01*
X129947347Y-150509203D01*
X129866312Y-150313565D01*
X129825000Y-150105879D01*
X129825000Y-149894121D01*
X129866312Y-149686435D01*
X129947347Y-149490797D01*
X130064993Y-149314728D01*
X130214728Y-149164993D01*
X130390797Y-149047347D01*
X130529134Y-148990047D01*
X130586434Y-148966312D01*
X130690278Y-148945656D01*
X130794121Y-148925000D01*
X131005879Y-148925000D01*
X131109722Y-148945656D01*
X131109722Y-148945656D01*
G37*
G36*
X161162390Y-146149783D02*
G01*
X161312118Y-146179565D01*
X161428960Y-146227963D01*
X161594199Y-146296407D01*
X161594200Y-146296408D01*
X161848068Y-146466036D01*
X162063964Y-146681932D01*
X162152695Y-146814728D01*
X162233593Y-146935801D01*
X162256373Y-146990797D01*
X162350435Y-147217882D01*
X162410000Y-147517338D01*
X162410000Y-147822662D01*
X162350435Y-148122118D01*
X162302037Y-148238960D01*
X162233593Y-148404199D01*
X162233592Y-148404200D01*
X162063964Y-148658068D01*
X161848068Y-148873964D01*
X161709858Y-148966312D01*
X161594199Y-149043593D01*
X161428960Y-149112037D01*
X161312118Y-149160435D01*
X161162390Y-149190218D01*
X161012663Y-149220000D01*
X160707337Y-149220000D01*
X160557610Y-149190218D01*
X160407882Y-149160435D01*
X160291040Y-149112037D01*
X160125801Y-149043593D01*
X160010142Y-148966312D01*
X159871932Y-148873964D01*
X159656036Y-148658068D01*
X159486408Y-148404200D01*
X159486407Y-148404199D01*
X159417963Y-148238960D01*
X159369565Y-148122118D01*
X159310000Y-147822662D01*
X159310000Y-147517338D01*
X159369565Y-147217882D01*
X159463627Y-146990797D01*
X159486407Y-146935801D01*
X159567305Y-146814728D01*
X159656036Y-146681932D01*
X159871932Y-146466036D01*
X160125800Y-146296408D01*
X160125801Y-146296407D01*
X160291040Y-146227963D01*
X160407882Y-146179565D01*
X160557610Y-146149783D01*
X160707337Y-146120000D01*
X161012663Y-146120000D01*
X161162390Y-146149783D01*
X161162390Y-146149783D01*
G37*
G36*
X131109722Y-146445656D02*
G01*
X131213566Y-146466312D01*
X131270866Y-146490047D01*
X131409203Y-146547347D01*
X131585272Y-146664993D01*
X131735007Y-146814728D01*
X131852653Y-146990797D01*
X131933688Y-147186435D01*
X131975000Y-147394121D01*
X131975000Y-147605879D01*
X131933688Y-147813565D01*
X131852653Y-148009203D01*
X131735007Y-148185272D01*
X131585272Y-148335007D01*
X131409203Y-148452653D01*
X131270866Y-148509953D01*
X131213566Y-148533688D01*
X131109722Y-148554344D01*
X131005879Y-148575000D01*
X130794121Y-148575000D01*
X130690278Y-148554344D01*
X130586434Y-148533688D01*
X130529134Y-148509953D01*
X130390797Y-148452653D01*
X130214728Y-148335007D01*
X130064993Y-148185272D01*
X129947347Y-148009203D01*
X129866312Y-147813565D01*
X129825000Y-147605879D01*
X129825000Y-147394121D01*
X129866312Y-147186435D01*
X129947347Y-146990797D01*
X130064993Y-146814728D01*
X130214728Y-146664993D01*
X130390797Y-146547347D01*
X130529134Y-146490047D01*
X130586434Y-146466312D01*
X130690278Y-146445656D01*
X130794121Y-146425000D01*
X131005879Y-146425000D01*
X131109722Y-146445656D01*
X131109722Y-146445656D01*
G37*
G36*
X156347287Y-141998446D02*
G01*
X156440022Y-142016892D01*
X156614731Y-142089259D01*
X156771964Y-142194319D01*
X156905681Y-142328036D01*
X157010742Y-142485270D01*
X157044516Y-142566809D01*
X157056067Y-142588419D01*
X157071612Y-142607361D01*
X157090554Y-142622907D01*
X157112165Y-142634458D01*
X157135614Y-142641571D01*
X157160000Y-142643973D01*
X157184386Y-142641571D01*
X157207835Y-142634458D01*
X157229445Y-142622907D01*
X157248387Y-142607362D01*
X157263933Y-142588420D01*
X157275484Y-142566809D01*
X157309258Y-142485270D01*
X157414319Y-142328036D01*
X157548036Y-142194319D01*
X157705269Y-142089259D01*
X157879978Y-142016892D01*
X157972713Y-141998446D01*
X158065447Y-141980000D01*
X158254553Y-141980000D01*
X158347287Y-141998446D01*
X158440022Y-142016892D01*
X158614731Y-142089259D01*
X158771964Y-142194319D01*
X158905681Y-142328036D01*
X159010741Y-142485269D01*
X159083108Y-142659978D01*
X159120000Y-142845448D01*
X159120000Y-143034552D01*
X159083108Y-143220022D01*
X159010741Y-143394731D01*
X158905681Y-143551964D01*
X158771964Y-143685681D01*
X158614731Y-143790741D01*
X158440022Y-143863108D01*
X158347287Y-143881554D01*
X158254553Y-143900000D01*
X158065447Y-143900000D01*
X157972713Y-143881554D01*
X157879978Y-143863108D01*
X157705269Y-143790741D01*
X157548036Y-143685681D01*
X157414319Y-143551964D01*
X157309259Y-143394731D01*
X157309258Y-143394730D01*
X157275484Y-143313191D01*
X157263933Y-143291581D01*
X157248388Y-143272639D01*
X157229446Y-143257093D01*
X157207835Y-143245542D01*
X157184386Y-143238429D01*
X157160000Y-143236027D01*
X157135614Y-143238429D01*
X157112165Y-143245542D01*
X157090555Y-143257093D01*
X157071613Y-143272638D01*
X157056067Y-143291580D01*
X157044516Y-143313191D01*
X157010742Y-143394730D01*
X157010741Y-143394731D01*
X156905681Y-143551964D01*
X156771964Y-143685681D01*
X156614731Y-143790741D01*
X156440022Y-143863108D01*
X156347287Y-143881554D01*
X156254553Y-143900000D01*
X156065447Y-143900000D01*
X155972713Y-143881554D01*
X155879978Y-143863108D01*
X155705269Y-143790741D01*
X155548036Y-143685681D01*
X155414319Y-143551964D01*
X155309259Y-143394731D01*
X155236892Y-143220022D01*
X155200000Y-143034552D01*
X155200000Y-142845448D01*
X155236892Y-142659978D01*
X155309259Y-142485269D01*
X155414319Y-142328036D01*
X155548036Y-142194319D01*
X155705269Y-142089259D01*
X155879978Y-142016892D01*
X155972713Y-141998446D01*
X156065447Y-141980000D01*
X156254553Y-141980000D01*
X156347287Y-141998446D01*
X156347287Y-141998446D01*
G37*
G36*
X156304826Y-139450000D02*
G01*
X156440022Y-139476892D01*
X156614731Y-139549259D01*
X156771964Y-139654319D01*
X156905681Y-139788036D01*
X157010742Y-139945270D01*
X157044516Y-140026809D01*
X157056067Y-140048419D01*
X157071612Y-140067361D01*
X157090554Y-140082907D01*
X157112165Y-140094458D01*
X157135614Y-140101571D01*
X157160000Y-140103973D01*
X157184386Y-140101571D01*
X157207835Y-140094458D01*
X157229445Y-140082907D01*
X157248387Y-140067362D01*
X157263933Y-140048420D01*
X157275484Y-140026809D01*
X157309258Y-139945270D01*
X157414319Y-139788036D01*
X157548036Y-139654319D01*
X157705269Y-139549259D01*
X157879978Y-139476892D01*
X158015174Y-139450000D01*
X158065447Y-139440000D01*
X158254553Y-139440000D01*
X158304826Y-139450000D01*
X158440022Y-139476892D01*
X158614731Y-139549259D01*
X158771964Y-139654319D01*
X158905681Y-139788036D01*
X159010741Y-139945269D01*
X159083108Y-140119978D01*
X159120000Y-140305448D01*
X159120000Y-140494552D01*
X159083108Y-140680022D01*
X159010741Y-140854731D01*
X158905681Y-141011964D01*
X158771964Y-141145681D01*
X158614731Y-141250741D01*
X158440022Y-141323108D01*
X158347287Y-141341554D01*
X158254553Y-141360000D01*
X158065447Y-141360000D01*
X157972713Y-141341554D01*
X157879978Y-141323108D01*
X157705269Y-141250741D01*
X157548036Y-141145681D01*
X157414319Y-141011964D01*
X157309259Y-140854731D01*
X157309258Y-140854730D01*
X157275484Y-140773191D01*
X157263933Y-140751581D01*
X157248388Y-140732639D01*
X157229446Y-140717093D01*
X157207835Y-140705542D01*
X157184386Y-140698429D01*
X157160000Y-140696027D01*
X157135614Y-140698429D01*
X157112165Y-140705542D01*
X157090555Y-140717093D01*
X157071613Y-140732638D01*
X157056067Y-140751580D01*
X157044516Y-140773191D01*
X157010742Y-140854730D01*
X157010741Y-140854731D01*
X156905681Y-141011964D01*
X156771964Y-141145681D01*
X156614731Y-141250741D01*
X156440022Y-141323108D01*
X156347287Y-141341554D01*
X156254553Y-141360000D01*
X156065447Y-141360000D01*
X155972713Y-141341554D01*
X155879978Y-141323108D01*
X155705269Y-141250741D01*
X155548036Y-141145681D01*
X155414319Y-141011964D01*
X155309259Y-140854731D01*
X155236892Y-140680022D01*
X155200000Y-140494552D01*
X155200000Y-140305448D01*
X155236892Y-140119978D01*
X155309259Y-139945269D01*
X155414319Y-139788036D01*
X155548036Y-139654319D01*
X155705269Y-139549259D01*
X155879978Y-139476892D01*
X156015174Y-139450000D01*
X156065447Y-139440000D01*
X156254553Y-139440000D01*
X156304826Y-139450000D01*
X156304826Y-139450000D01*
G37*
G36*
X131950000Y-141050000D02*
G01*
X129850000Y-141050000D01*
X129850000Y-139450000D01*
X131950000Y-139450000D01*
X131950000Y-141050000D01*
X131950000Y-141050000D01*
G37*
G36*
X131228471Y-137453859D02*
G01*
X131306827Y-137461576D01*
X131457628Y-137507321D01*
X131457630Y-137507322D01*
X131596605Y-137581606D01*
X131596607Y-137581607D01*
X131596606Y-137581607D01*
X131718422Y-137681578D01*
X131818393Y-137803394D01*
X131892679Y-137942372D01*
X131938424Y-138093173D01*
X131953870Y-138250000D01*
X131938424Y-138406827D01*
X131892679Y-138557628D01*
X131892678Y-138557630D01*
X131818394Y-138696605D01*
X131718422Y-138818422D01*
X131596605Y-138918394D01*
X131457630Y-138992678D01*
X131457628Y-138992679D01*
X131306827Y-139038424D01*
X131228471Y-139046141D01*
X131189294Y-139050000D01*
X130610706Y-139050000D01*
X130571529Y-139046141D01*
X130493173Y-139038424D01*
X130342372Y-138992679D01*
X130342370Y-138992678D01*
X130203395Y-138918394D01*
X130081578Y-138818422D01*
X129981606Y-138696605D01*
X129907322Y-138557630D01*
X129907321Y-138557628D01*
X129861576Y-138406827D01*
X129846130Y-138250000D01*
X129861576Y-138093173D01*
X129907321Y-137942372D01*
X129981607Y-137803394D01*
X130081578Y-137681578D01*
X130203394Y-137581607D01*
X130203393Y-137581607D01*
X130203395Y-137581606D01*
X130342370Y-137507322D01*
X130342372Y-137507321D01*
X130493173Y-137461576D01*
X130571529Y-137453859D01*
X130610706Y-137450000D01*
X131189294Y-137450000D01*
X131228471Y-137453859D01*
X131228471Y-137453859D01*
G37*
G36*
X161162390Y-134149783D02*
G01*
X161312118Y-134179565D01*
X161428960Y-134227963D01*
X161594199Y-134296407D01*
X161594200Y-134296408D01*
X161848068Y-134466036D01*
X162063964Y-134681932D01*
X162155163Y-134818422D01*
X162233593Y-134935801D01*
X162350435Y-135217883D01*
X162410000Y-135517337D01*
X162410000Y-135822663D01*
X162350435Y-136122117D01*
X162233593Y-136404199D01*
X162233592Y-136404200D01*
X162063964Y-136658068D01*
X161848068Y-136873964D01*
X161781573Y-136918394D01*
X161594199Y-137043593D01*
X161428960Y-137112037D01*
X161312118Y-137160435D01*
X161162390Y-137190217D01*
X161012663Y-137220000D01*
X160707337Y-137220000D01*
X160557610Y-137190217D01*
X160407882Y-137160435D01*
X160291040Y-137112037D01*
X160125801Y-137043593D01*
X159938427Y-136918394D01*
X159871932Y-136873964D01*
X159656036Y-136658068D01*
X159486408Y-136404200D01*
X159486407Y-136404199D01*
X159369565Y-136122117D01*
X159310000Y-135822663D01*
X159310000Y-135517337D01*
X159369565Y-135217883D01*
X159486407Y-134935801D01*
X159564837Y-134818422D01*
X159656036Y-134681932D01*
X159871932Y-134466036D01*
X160125800Y-134296408D01*
X160125801Y-134296407D01*
X160291040Y-134227963D01*
X160407882Y-134179565D01*
X160557610Y-134149783D01*
X160707337Y-134120000D01*
X161012663Y-134120000D01*
X161162390Y-134149783D01*
X161162390Y-134149783D01*
G37*
G36*
X131228471Y-135453859D02*
G01*
X131306827Y-135461576D01*
X131457628Y-135507321D01*
X131457630Y-135507322D01*
X131596605Y-135581606D01*
X131596607Y-135581607D01*
X131596606Y-135581607D01*
X131718422Y-135681578D01*
X131818393Y-135803394D01*
X131892679Y-135942372D01*
X131938424Y-136093173D01*
X131953870Y-136250000D01*
X131938424Y-136406827D01*
X131892679Y-136557628D01*
X131892678Y-136557630D01*
X131818394Y-136696605D01*
X131718422Y-136818422D01*
X131596605Y-136918394D01*
X131457630Y-136992678D01*
X131457628Y-136992679D01*
X131306827Y-137038424D01*
X131228471Y-137046141D01*
X131189294Y-137050000D01*
X130610706Y-137050000D01*
X130571529Y-137046141D01*
X130493173Y-137038424D01*
X130342372Y-136992679D01*
X130342370Y-136992678D01*
X130203395Y-136918394D01*
X130081578Y-136818422D01*
X129981606Y-136696605D01*
X129907322Y-136557630D01*
X129907321Y-136557628D01*
X129861576Y-136406827D01*
X129846130Y-136250000D01*
X129861576Y-136093173D01*
X129907321Y-135942372D01*
X129981607Y-135803394D01*
X130081578Y-135681578D01*
X130203394Y-135581607D01*
X130203393Y-135581607D01*
X130203395Y-135581606D01*
X130342370Y-135507322D01*
X130342372Y-135507321D01*
X130493173Y-135461576D01*
X130571529Y-135453859D01*
X130610706Y-135450000D01*
X131189294Y-135450000D01*
X131228471Y-135453859D01*
X131228471Y-135453859D01*
G37*
G36*
X131228471Y-133453859D02*
G01*
X131306827Y-133461576D01*
X131457628Y-133507321D01*
X131457630Y-133507322D01*
X131596605Y-133581606D01*
X131596607Y-133581607D01*
X131596606Y-133581607D01*
X131718422Y-133681578D01*
X131818393Y-133803394D01*
X131892679Y-133942372D01*
X131938424Y-134093173D01*
X131953870Y-134250000D01*
X131938424Y-134406827D01*
X131920463Y-134466036D01*
X131892678Y-134557630D01*
X131818394Y-134696605D01*
X131718422Y-134818422D01*
X131596605Y-134918394D01*
X131457630Y-134992678D01*
X131457628Y-134992679D01*
X131306827Y-135038424D01*
X131228471Y-135046141D01*
X131189294Y-135050000D01*
X130610706Y-135050000D01*
X130571529Y-135046141D01*
X130493173Y-135038424D01*
X130342372Y-134992679D01*
X130342370Y-134992678D01*
X130203395Y-134918394D01*
X130081578Y-134818422D01*
X129981606Y-134696605D01*
X129907322Y-134557630D01*
X129879537Y-134466036D01*
X129861576Y-134406827D01*
X129846130Y-134250000D01*
X129861576Y-134093173D01*
X129907321Y-133942372D01*
X129981607Y-133803394D01*
X130081578Y-133681578D01*
X130203394Y-133581607D01*
X130203393Y-133581607D01*
X130203395Y-133581606D01*
X130342370Y-133507322D01*
X130342372Y-133507321D01*
X130493173Y-133461576D01*
X130571529Y-133453859D01*
X130610706Y-133450000D01*
X131189294Y-133450000D01*
X131228471Y-133453859D01*
X131228471Y-133453859D01*
G37*
G36*
X143227290Y-129525619D02*
G01*
X143291689Y-129538429D01*
X143473678Y-129613811D01*
X143637463Y-129723249D01*
X143776751Y-129862537D01*
X143886189Y-130026322D01*
X143961571Y-130208311D01*
X144000000Y-130401509D01*
X144000000Y-130598491D01*
X143961571Y-130791689D01*
X143886189Y-130973678D01*
X143776751Y-131137463D01*
X143637463Y-131276751D01*
X143473678Y-131386189D01*
X143291689Y-131461571D01*
X143227290Y-131474381D01*
X143098493Y-131500000D01*
X142901507Y-131500000D01*
X142772710Y-131474381D01*
X142708311Y-131461571D01*
X142526322Y-131386189D01*
X142362537Y-131276751D01*
X142223249Y-131137463D01*
X142113811Y-130973678D01*
X142038429Y-130791689D01*
X142000000Y-130598491D01*
X142000000Y-130401509D01*
X142038429Y-130208311D01*
X142113811Y-130026322D01*
X142223249Y-129862537D01*
X142362537Y-129723249D01*
X142526322Y-129613811D01*
X142708311Y-129538429D01*
X142772710Y-129525619D01*
X142901507Y-129500000D01*
X143098493Y-129500000D01*
X143227290Y-129525619D01*
X143227290Y-129525619D01*
G37*
G36*
X158434000Y-131066000D02*
G01*
X154534000Y-131066000D01*
X154534000Y-127166000D01*
X158434000Y-127166000D01*
X158434000Y-131066000D01*
X158434000Y-131066000D01*
G37*
G36*
X164434000Y-131066000D02*
G01*
X160534000Y-131066000D01*
X160534000Y-127166000D01*
X164434000Y-127166000D01*
X164434000Y-131066000D01*
X164434000Y-131066000D01*
G37*
G36*
X131975000Y-128675000D02*
G01*
X129825000Y-128675000D01*
X129825000Y-126525000D01*
X131975000Y-126525000D01*
X131975000Y-128675000D01*
X131975000Y-128675000D01*
G37*
G36*
X144000000Y-128000000D02*
G01*
X142000000Y-128000000D01*
X142000000Y-126000000D01*
X144000000Y-126000000D01*
X144000000Y-128000000D01*
X144000000Y-128000000D01*
G37*
G36*
X161434000Y-126366000D02*
G01*
X157534000Y-126366000D01*
X157534000Y-122466000D01*
X161434000Y-122466000D01*
X161434000Y-126366000D01*
X161434000Y-126366000D01*
G37*
G36*
X131109722Y-124045656D02*
G01*
X131213566Y-124066312D01*
X131270866Y-124090047D01*
X131409203Y-124147347D01*
X131585272Y-124264993D01*
X131735007Y-124414728D01*
X131852653Y-124590797D01*
X131933688Y-124786435D01*
X131975000Y-124994121D01*
X131975000Y-125205879D01*
X131933688Y-125413565D01*
X131852653Y-125609203D01*
X131735007Y-125785272D01*
X131585272Y-125935007D01*
X131409203Y-126052653D01*
X131270866Y-126109953D01*
X131213566Y-126133688D01*
X131109722Y-126154344D01*
X131005879Y-126175000D01*
X130794121Y-126175000D01*
X130690278Y-126154344D01*
X130586434Y-126133688D01*
X130529134Y-126109953D01*
X130390797Y-126052653D01*
X130214728Y-125935007D01*
X130064993Y-125785272D01*
X129947347Y-125609203D01*
X129866312Y-125413565D01*
X129825000Y-125205879D01*
X129825000Y-124994121D01*
X129866312Y-124786435D01*
X129947347Y-124590797D01*
X130064993Y-124414728D01*
X130214728Y-124264993D01*
X130390797Y-124147347D01*
X130529134Y-124090047D01*
X130586434Y-124066312D01*
X130690278Y-124045656D01*
X130794121Y-124025000D01*
X131005879Y-124025000D01*
X131109722Y-124045656D01*
X131109722Y-124045656D01*
G37*
G36*
X112576032Y-122314469D02*
G01*
X112670284Y-122343060D01*
X112764535Y-122371651D01*
X112764537Y-122371652D01*
X112938258Y-122464507D01*
X113090528Y-122589472D01*
X113215493Y-122741742D01*
X113308348Y-122915463D01*
X113365531Y-123103968D01*
X113384838Y-123300000D01*
X113365531Y-123496032D01*
X113308348Y-123684537D01*
X113215493Y-123858258D01*
X113090528Y-124010528D01*
X112938258Y-124135493D01*
X112764537Y-124228348D01*
X112764535Y-124228349D01*
X112670285Y-124256939D01*
X112576032Y-124285531D01*
X112429124Y-124300000D01*
X112330876Y-124300000D01*
X112183968Y-124285531D01*
X112089715Y-124256939D01*
X111995465Y-124228349D01*
X111995463Y-124228348D01*
X111821742Y-124135493D01*
X111669472Y-124010528D01*
X111544507Y-123858258D01*
X111451652Y-123684537D01*
X111394469Y-123496032D01*
X111375162Y-123300000D01*
X111394469Y-123103968D01*
X111451652Y-122915463D01*
X111544507Y-122741742D01*
X111669472Y-122589472D01*
X111821742Y-122464507D01*
X111995463Y-122371652D01*
X111995465Y-122371651D01*
X112089716Y-122343060D01*
X112183968Y-122314469D01*
X112330876Y-122300000D01*
X112429124Y-122300000D01*
X112576032Y-122314469D01*
X112576032Y-122314469D01*
G37*
G36*
X121000000Y-124300000D02*
G01*
X119000000Y-124300000D01*
X119000000Y-122300000D01*
X121000000Y-122300000D01*
X121000000Y-124300000D01*
X121000000Y-124300000D01*
G37*
G36*
X131109722Y-121545656D02*
G01*
X131213566Y-121566312D01*
X131270866Y-121590047D01*
X131409203Y-121647347D01*
X131585272Y-121764993D01*
X131735007Y-121914728D01*
X131852653Y-122090797D01*
X131909953Y-122229134D01*
X131933688Y-122286434D01*
X131939265Y-122314470D01*
X131975000Y-122494121D01*
X131975000Y-122705879D01*
X131933688Y-122913565D01*
X131852653Y-123109203D01*
X131735007Y-123285272D01*
X131585272Y-123435007D01*
X131409203Y-123552653D01*
X131270866Y-123609953D01*
X131213566Y-123633688D01*
X131109722Y-123654344D01*
X131005879Y-123675000D01*
X130794121Y-123675000D01*
X130690278Y-123654344D01*
X130586434Y-123633688D01*
X130529134Y-123609953D01*
X130390797Y-123552653D01*
X130214728Y-123435007D01*
X130064993Y-123285272D01*
X129947347Y-123109203D01*
X129866312Y-122913565D01*
X129825000Y-122705879D01*
X129825000Y-122494121D01*
X129860735Y-122314470D01*
X129866312Y-122286434D01*
X129890047Y-122229134D01*
X129947347Y-122090797D01*
X130064993Y-121914728D01*
X130214728Y-121764993D01*
X130390797Y-121647347D01*
X130529134Y-121590047D01*
X130586434Y-121566312D01*
X130690278Y-121545656D01*
X130794121Y-121525000D01*
X131005879Y-121525000D01*
X131109722Y-121545656D01*
X131109722Y-121545656D01*
G37*
G36*
X120196032Y-119774469D02*
G01*
X120290285Y-119803061D01*
X120384535Y-119831651D01*
X120384537Y-119831652D01*
X120558258Y-119924507D01*
X120710528Y-120049472D01*
X120835493Y-120201742D01*
X120928348Y-120375463D01*
X120985531Y-120563968D01*
X121004838Y-120760000D01*
X120985531Y-120956032D01*
X120928348Y-121144537D01*
X120835493Y-121318258D01*
X120710528Y-121470528D01*
X120558258Y-121595493D01*
X120384537Y-121688348D01*
X120384535Y-121688349D01*
X120290284Y-121716940D01*
X120196032Y-121745531D01*
X120049124Y-121760000D01*
X119950876Y-121760000D01*
X119803968Y-121745531D01*
X119709716Y-121716940D01*
X119615465Y-121688349D01*
X119615463Y-121688348D01*
X119441742Y-121595493D01*
X119289472Y-121470528D01*
X119164507Y-121318258D01*
X119071652Y-121144537D01*
X119014469Y-120956032D01*
X118995162Y-120760000D01*
X119014469Y-120563968D01*
X119071652Y-120375463D01*
X119164507Y-120201742D01*
X119289472Y-120049472D01*
X119441742Y-119924507D01*
X119615463Y-119831652D01*
X119615465Y-119831651D01*
X119709715Y-119803061D01*
X119803968Y-119774469D01*
X119950876Y-119760000D01*
X120049124Y-119760000D01*
X120196032Y-119774469D01*
X120196032Y-119774469D01*
G37*
G36*
X112576032Y-119774469D02*
G01*
X112670285Y-119803061D01*
X112764535Y-119831651D01*
X112764537Y-119831652D01*
X112938258Y-119924507D01*
X113090528Y-120049472D01*
X113215493Y-120201742D01*
X113308348Y-120375463D01*
X113365531Y-120563968D01*
X113384838Y-120760000D01*
X113365531Y-120956032D01*
X113308348Y-121144537D01*
X113215493Y-121318258D01*
X113090528Y-121470528D01*
X112938258Y-121595493D01*
X112764537Y-121688348D01*
X112764535Y-121688349D01*
X112670284Y-121716940D01*
X112576032Y-121745531D01*
X112429124Y-121760000D01*
X112330876Y-121760000D01*
X112183968Y-121745531D01*
X112089716Y-121716940D01*
X111995465Y-121688349D01*
X111995463Y-121688348D01*
X111821742Y-121595493D01*
X111669472Y-121470528D01*
X111544507Y-121318258D01*
X111451652Y-121144537D01*
X111394469Y-120956032D01*
X111375162Y-120760000D01*
X111394469Y-120563968D01*
X111451652Y-120375463D01*
X111544507Y-120201742D01*
X111669472Y-120049472D01*
X111821742Y-119924507D01*
X111995463Y-119831652D01*
X111995465Y-119831651D01*
X112089715Y-119803061D01*
X112183968Y-119774469D01*
X112330876Y-119760000D01*
X112429124Y-119760000D01*
X112576032Y-119774469D01*
X112576032Y-119774469D01*
G37*
G36*
X131109722Y-119045656D02*
G01*
X131213566Y-119066312D01*
X131270866Y-119090047D01*
X131409203Y-119147347D01*
X131585272Y-119264993D01*
X131735007Y-119414728D01*
X131852653Y-119590797D01*
X131909953Y-119729134D01*
X131922739Y-119760000D01*
X131933688Y-119786435D01*
X131975000Y-119994121D01*
X131975000Y-120205879D01*
X131933688Y-120413565D01*
X131852653Y-120609203D01*
X131735007Y-120785272D01*
X131585272Y-120935007D01*
X131409203Y-121052653D01*
X131270866Y-121109953D01*
X131213566Y-121133688D01*
X131109722Y-121154344D01*
X131005879Y-121175000D01*
X130794121Y-121175000D01*
X130690278Y-121154344D01*
X130586434Y-121133688D01*
X130529134Y-121109953D01*
X130390797Y-121052653D01*
X130214728Y-120935007D01*
X130064993Y-120785272D01*
X129947347Y-120609203D01*
X129866312Y-120413565D01*
X129825000Y-120205879D01*
X129825000Y-119994121D01*
X129866312Y-119786435D01*
X129877262Y-119760000D01*
X129890047Y-119729134D01*
X129947347Y-119590797D01*
X130064993Y-119414728D01*
X130214728Y-119264993D01*
X130390797Y-119147347D01*
X130529134Y-119090047D01*
X130586434Y-119066312D01*
X130690278Y-119045656D01*
X130794121Y-119025000D01*
X131005879Y-119025000D01*
X131109722Y-119045656D01*
X131109722Y-119045656D01*
G37*
G36*
X112576032Y-117234469D02*
G01*
X112670285Y-117263061D01*
X112764535Y-117291651D01*
X112764537Y-117291652D01*
X112938258Y-117384507D01*
X113090528Y-117509472D01*
X113215493Y-117661742D01*
X113308348Y-117835463D01*
X113365531Y-118023968D01*
X113384838Y-118220000D01*
X113365531Y-118416032D01*
X113308348Y-118604537D01*
X113215493Y-118778258D01*
X113090528Y-118930528D01*
X112938258Y-119055493D01*
X112766410Y-119147347D01*
X112764535Y-119148349D01*
X112670284Y-119176940D01*
X112576032Y-119205531D01*
X112429124Y-119220000D01*
X112330876Y-119220000D01*
X112183968Y-119205531D01*
X112089716Y-119176940D01*
X111995465Y-119148349D01*
X111993590Y-119147347D01*
X111821742Y-119055493D01*
X111669472Y-118930528D01*
X111544507Y-118778258D01*
X111451652Y-118604537D01*
X111394469Y-118416032D01*
X111375162Y-118220000D01*
X111394469Y-118023968D01*
X111451652Y-117835463D01*
X111544507Y-117661742D01*
X111669472Y-117509472D01*
X111821742Y-117384507D01*
X111995463Y-117291652D01*
X111995465Y-117291651D01*
X112089715Y-117263061D01*
X112183968Y-117234469D01*
X112330876Y-117220000D01*
X112429124Y-117220000D01*
X112576032Y-117234469D01*
X112576032Y-117234469D01*
G37*
G36*
X120196032Y-117234469D02*
G01*
X120290285Y-117263061D01*
X120384535Y-117291651D01*
X120384537Y-117291652D01*
X120558258Y-117384507D01*
X120710528Y-117509472D01*
X120835493Y-117661742D01*
X120928348Y-117835463D01*
X120985531Y-118023968D01*
X121004838Y-118220000D01*
X120985531Y-118416032D01*
X120928348Y-118604537D01*
X120835493Y-118778258D01*
X120710528Y-118930528D01*
X120558258Y-119055493D01*
X120386410Y-119147347D01*
X120384535Y-119148349D01*
X120290284Y-119176940D01*
X120196032Y-119205531D01*
X120049124Y-119220000D01*
X119950876Y-119220000D01*
X119803968Y-119205531D01*
X119709716Y-119176940D01*
X119615465Y-119148349D01*
X119613590Y-119147347D01*
X119441742Y-119055493D01*
X119289472Y-118930528D01*
X119164507Y-118778258D01*
X119071652Y-118604537D01*
X119014469Y-118416032D01*
X118995162Y-118220000D01*
X119014469Y-118023968D01*
X119071652Y-117835463D01*
X119164507Y-117661742D01*
X119289472Y-117509472D01*
X119441742Y-117384507D01*
X119615463Y-117291652D01*
X119615465Y-117291651D01*
X119709715Y-117263061D01*
X119803968Y-117234469D01*
X119950876Y-117220000D01*
X120049124Y-117220000D01*
X120196032Y-117234469D01*
X120196032Y-117234469D01*
G37*
G36*
X131109722Y-116545656D02*
G01*
X131213566Y-116566312D01*
X131270866Y-116590047D01*
X131409203Y-116647347D01*
X131585272Y-116764993D01*
X131735007Y-116914728D01*
X131852653Y-117090797D01*
X131906170Y-117220000D01*
X131933688Y-117286434D01*
X131953196Y-117384507D01*
X131975000Y-117494121D01*
X131975000Y-117705879D01*
X131933688Y-117913565D01*
X131852653Y-118109203D01*
X131735007Y-118285272D01*
X131585272Y-118435007D01*
X131409203Y-118552653D01*
X131270866Y-118609953D01*
X131213566Y-118633688D01*
X131109722Y-118654344D01*
X131005879Y-118675000D01*
X130794121Y-118675000D01*
X130690278Y-118654344D01*
X130586434Y-118633688D01*
X130529134Y-118609953D01*
X130390797Y-118552653D01*
X130214728Y-118435007D01*
X130064993Y-118285272D01*
X129947347Y-118109203D01*
X129866312Y-117913565D01*
X129825000Y-117705879D01*
X129825000Y-117494121D01*
X129846804Y-117384507D01*
X129866312Y-117286434D01*
X129893830Y-117220000D01*
X129947347Y-117090797D01*
X130064993Y-116914728D01*
X130214728Y-116764993D01*
X130390797Y-116647347D01*
X130529134Y-116590047D01*
X130586434Y-116566312D01*
X130690278Y-116545656D01*
X130794121Y-116525000D01*
X131005879Y-116525000D01*
X131109722Y-116545656D01*
X131109722Y-116545656D01*
G37*
G36*
X160709722Y-116195656D02*
G01*
X160813566Y-116216312D01*
X160866548Y-116238258D01*
X161009203Y-116297347D01*
X161185272Y-116414993D01*
X161335007Y-116564728D01*
X161452653Y-116740797D01*
X161509953Y-116879134D01*
X161533688Y-116936434D01*
X161575000Y-117144122D01*
X161575000Y-117355878D01*
X161547502Y-117494121D01*
X161533688Y-117563565D01*
X161452653Y-117759203D01*
X161335007Y-117935272D01*
X161185272Y-118085007D01*
X161009203Y-118202653D01*
X160870866Y-118259953D01*
X160813566Y-118283688D01*
X160709722Y-118304344D01*
X160605879Y-118325000D01*
X160394121Y-118325000D01*
X160290278Y-118304344D01*
X160186434Y-118283688D01*
X160129134Y-118259953D01*
X159990797Y-118202653D01*
X159814728Y-118085007D01*
X159664993Y-117935272D01*
X159547347Y-117759203D01*
X159466312Y-117563565D01*
X159452499Y-117494121D01*
X159425000Y-117355878D01*
X159425000Y-117144122D01*
X159466312Y-116936434D01*
X159490047Y-116879134D01*
X159547347Y-116740797D01*
X159664993Y-116564728D01*
X159814728Y-116414993D01*
X159990797Y-116297347D01*
X160133452Y-116238258D01*
X160186434Y-116216312D01*
X160290278Y-116195656D01*
X160394121Y-116175000D01*
X160605879Y-116175000D01*
X160709722Y-116195656D01*
X160709722Y-116195656D01*
G37*
G36*
X112576032Y-114694469D02*
G01*
X112670284Y-114723060D01*
X112764535Y-114751651D01*
X112764537Y-114751652D01*
X112938258Y-114844507D01*
X113090528Y-114969472D01*
X113215493Y-115121742D01*
X113308348Y-115295463D01*
X113365531Y-115483968D01*
X113384838Y-115680000D01*
X113365531Y-115876032D01*
X113365530Y-115876034D01*
X113311954Y-116052652D01*
X113308348Y-116064537D01*
X113215493Y-116238258D01*
X113090528Y-116390528D01*
X112938258Y-116515493D01*
X112764537Y-116608348D01*
X112764535Y-116608349D01*
X112670285Y-116636939D01*
X112576032Y-116665531D01*
X112429124Y-116680000D01*
X112330876Y-116680000D01*
X112183968Y-116665531D01*
X112089715Y-116636939D01*
X111995465Y-116608349D01*
X111995463Y-116608348D01*
X111821742Y-116515493D01*
X111669472Y-116390528D01*
X111544507Y-116238258D01*
X111451652Y-116064537D01*
X111448047Y-116052652D01*
X111394470Y-115876034D01*
X111394469Y-115876032D01*
X111375162Y-115680000D01*
X111394469Y-115483968D01*
X111451652Y-115295463D01*
X111544507Y-115121742D01*
X111669472Y-114969472D01*
X111821742Y-114844507D01*
X111995463Y-114751652D01*
X111995465Y-114751651D01*
X112089716Y-114723060D01*
X112183968Y-114694469D01*
X112330876Y-114680000D01*
X112429124Y-114680000D01*
X112576032Y-114694469D01*
X112576032Y-114694469D01*
G37*
G36*
X120196032Y-114694469D02*
G01*
X120290284Y-114723060D01*
X120384535Y-114751651D01*
X120384537Y-114751652D01*
X120558258Y-114844507D01*
X120710528Y-114969472D01*
X120835493Y-115121742D01*
X120928348Y-115295463D01*
X120985531Y-115483968D01*
X121004838Y-115680000D01*
X120985531Y-115876032D01*
X120985530Y-115876034D01*
X120931954Y-116052652D01*
X120928348Y-116064537D01*
X120835493Y-116238258D01*
X120710528Y-116390528D01*
X120558258Y-116515493D01*
X120384537Y-116608348D01*
X120384535Y-116608349D01*
X120290285Y-116636939D01*
X120196032Y-116665531D01*
X120049124Y-116680000D01*
X119950876Y-116680000D01*
X119803968Y-116665531D01*
X119709715Y-116636939D01*
X119615465Y-116608349D01*
X119615463Y-116608348D01*
X119441742Y-116515493D01*
X119289472Y-116390528D01*
X119164507Y-116238258D01*
X119071652Y-116064537D01*
X119068047Y-116052652D01*
X119014470Y-115876034D01*
X119014469Y-115876032D01*
X118995162Y-115680000D01*
X119014469Y-115483968D01*
X119071652Y-115295463D01*
X119164507Y-115121742D01*
X119289472Y-114969472D01*
X119441742Y-114844507D01*
X119615463Y-114751652D01*
X119615465Y-114751651D01*
X119709716Y-114723060D01*
X119803968Y-114694469D01*
X119950876Y-114680000D01*
X120049124Y-114680000D01*
X120196032Y-114694469D01*
X120196032Y-114694469D01*
G37*
G36*
X131109722Y-114045656D02*
G01*
X131213566Y-114066312D01*
X131270866Y-114090047D01*
X131409203Y-114147347D01*
X131585272Y-114264993D01*
X131735007Y-114414728D01*
X131852653Y-114590797D01*
X131895595Y-114694469D01*
X131933688Y-114786434D01*
X131945240Y-114844508D01*
X131975000Y-114994121D01*
X131975000Y-115205879D01*
X131933688Y-115413565D01*
X131852653Y-115609203D01*
X131735007Y-115785272D01*
X131585272Y-115935007D01*
X131409203Y-116052653D01*
X131270866Y-116109953D01*
X131213566Y-116133688D01*
X131109722Y-116154344D01*
X131005879Y-116175000D01*
X130794121Y-116175000D01*
X130690278Y-116154344D01*
X130586434Y-116133688D01*
X130529134Y-116109953D01*
X130390797Y-116052653D01*
X130214728Y-115935007D01*
X130064993Y-115785272D01*
X129947347Y-115609203D01*
X129866312Y-115413565D01*
X129825000Y-115205879D01*
X129825000Y-114994121D01*
X129854760Y-114844508D01*
X129866312Y-114786434D01*
X129904405Y-114694469D01*
X129947347Y-114590797D01*
X130064993Y-114414728D01*
X130214728Y-114264993D01*
X130390797Y-114147347D01*
X130529134Y-114090047D01*
X130586434Y-114066312D01*
X130690278Y-114045656D01*
X130794121Y-114025000D01*
X131005879Y-114025000D01*
X131109722Y-114045656D01*
X131109722Y-114045656D01*
G37*
G36*
X161575000Y-115825000D02*
G01*
X159425000Y-115825000D01*
X159425000Y-113675000D01*
X161575000Y-113675000D01*
X161575000Y-115825000D01*
X161575000Y-115825000D01*
G37*
G36*
X131109722Y-111545656D02*
G01*
X131213566Y-111566312D01*
X131270866Y-111590047D01*
X131409203Y-111647347D01*
X131585272Y-111764993D01*
X131735007Y-111914728D01*
X131852653Y-112090797D01*
X131933688Y-112286435D01*
X131975000Y-112494121D01*
X131975000Y-112705879D01*
X131933688Y-112913565D01*
X131852653Y-113109203D01*
X131735007Y-113285272D01*
X131585272Y-113435007D01*
X131409203Y-113552653D01*
X131270866Y-113609953D01*
X131213566Y-113633688D01*
X131109722Y-113654344D01*
X131005879Y-113675000D01*
X130794121Y-113675000D01*
X130690278Y-113654344D01*
X130586434Y-113633688D01*
X130529134Y-113609953D01*
X130390797Y-113552653D01*
X130214728Y-113435007D01*
X130064993Y-113285272D01*
X129947347Y-113109203D01*
X129866312Y-112913565D01*
X129825000Y-112705879D01*
X129825000Y-112494121D01*
X129866312Y-112286435D01*
X129947347Y-112090797D01*
X130064993Y-111914728D01*
X130214728Y-111764993D01*
X130390797Y-111647347D01*
X130529134Y-111590047D01*
X130586434Y-111566312D01*
X130690278Y-111545656D01*
X130794121Y-111525000D01*
X131005879Y-111525000D01*
X131109722Y-111545656D01*
X131109722Y-111545656D01*
G37*
G36*
X131109722Y-109045656D02*
G01*
X131213566Y-109066312D01*
X131270866Y-109090047D01*
X131409203Y-109147347D01*
X131585272Y-109264993D01*
X131735007Y-109414728D01*
X131852653Y-109590797D01*
X131933688Y-109786435D01*
X131975000Y-109994121D01*
X131975000Y-110205879D01*
X131933688Y-110413565D01*
X131852653Y-110609203D01*
X131735007Y-110785272D01*
X131585272Y-110935007D01*
X131409203Y-111052653D01*
X131270866Y-111109953D01*
X131213566Y-111133688D01*
X131109722Y-111154344D01*
X131005879Y-111175000D01*
X130794121Y-111175000D01*
X130690278Y-111154344D01*
X130586434Y-111133688D01*
X130529134Y-111109953D01*
X130390797Y-111052653D01*
X130214728Y-110935007D01*
X130064993Y-110785272D01*
X129947347Y-110609203D01*
X129866312Y-110413565D01*
X129825000Y-110205879D01*
X129825000Y-109994121D01*
X129866312Y-109786435D01*
X129947347Y-109590797D01*
X130064993Y-109414728D01*
X130214728Y-109264993D01*
X130390797Y-109147347D01*
X130529134Y-109090047D01*
X130586434Y-109066312D01*
X130690278Y-109045656D01*
X130794121Y-109025000D01*
X131005879Y-109025000D01*
X131109722Y-109045656D01*
X131109722Y-109045656D01*
G37*
G36*
X144188707Y-103957597D02*
G01*
X144265836Y-103965193D01*
X144463762Y-104025233D01*
X144463765Y-104025234D01*
X144646170Y-104122732D01*
X144806055Y-104253945D01*
X144937268Y-104413830D01*
X145034766Y-104596235D01*
X145034767Y-104596238D01*
X145094807Y-104794164D01*
X145115080Y-105000000D01*
X145094807Y-105205836D01*
X145034767Y-105403762D01*
X145034766Y-105403765D01*
X144937268Y-105586170D01*
X144806055Y-105746055D01*
X144646170Y-105877268D01*
X144463765Y-105974766D01*
X144463762Y-105974767D01*
X144265836Y-106034807D01*
X144188707Y-106042404D01*
X144111580Y-106050000D01*
X144008420Y-106050000D01*
X143931293Y-106042404D01*
X143854164Y-106034807D01*
X143656238Y-105974767D01*
X143656235Y-105974766D01*
X143473830Y-105877268D01*
X143313945Y-105746055D01*
X143182732Y-105586170D01*
X143085234Y-105403765D01*
X143085233Y-105403762D01*
X143025193Y-105205836D01*
X143004920Y-105000000D01*
X143025193Y-104794164D01*
X143085233Y-104596238D01*
X143085234Y-104596235D01*
X143182732Y-104413830D01*
X143313945Y-104253945D01*
X143473830Y-104122732D01*
X143656235Y-104025234D01*
X143656238Y-104025233D01*
X143854164Y-103965193D01*
X143931293Y-103957597D01*
X144008420Y-103950000D01*
X144111580Y-103950000D01*
X144188707Y-103957597D01*
X144188707Y-103957597D01*
G37*
G36*
X146728707Y-103957597D02*
G01*
X146805836Y-103965193D01*
X147003762Y-104025233D01*
X147003765Y-104025234D01*
X147186170Y-104122732D01*
X147346055Y-104253945D01*
X147477268Y-104413830D01*
X147574766Y-104596235D01*
X147574767Y-104596238D01*
X147634807Y-104794164D01*
X147655080Y-105000000D01*
X147634807Y-105205836D01*
X147574767Y-105403762D01*
X147574766Y-105403765D01*
X147477268Y-105586170D01*
X147346055Y-105746055D01*
X147186170Y-105877268D01*
X147003765Y-105974766D01*
X147003762Y-105974767D01*
X146805836Y-106034807D01*
X146728707Y-106042404D01*
X146651580Y-106050000D01*
X146548420Y-106050000D01*
X146471293Y-106042404D01*
X146394164Y-106034807D01*
X146196238Y-105974767D01*
X146196235Y-105974766D01*
X146013830Y-105877268D01*
X145853945Y-105746055D01*
X145722732Y-105586170D01*
X145625234Y-105403765D01*
X145625233Y-105403762D01*
X145565193Y-105205836D01*
X145544920Y-105000000D01*
X145565193Y-104794164D01*
X145625233Y-104596238D01*
X145625234Y-104596235D01*
X145722732Y-104413830D01*
X145853945Y-104253945D01*
X146013830Y-104122732D01*
X146196235Y-104025234D01*
X146196238Y-104025233D01*
X146394164Y-103965193D01*
X146471293Y-103957597D01*
X146548420Y-103950000D01*
X146651580Y-103950000D01*
X146728707Y-103957597D01*
X146728707Y-103957597D01*
G37*
G36*
X156888707Y-103957597D02*
G01*
X156965836Y-103965193D01*
X157163762Y-104025233D01*
X157163765Y-104025234D01*
X157346170Y-104122732D01*
X157506055Y-104253945D01*
X157637268Y-104413830D01*
X157734766Y-104596235D01*
X157734767Y-104596238D01*
X157794807Y-104794164D01*
X157815080Y-105000000D01*
X157794807Y-105205836D01*
X157734767Y-105403762D01*
X157734766Y-105403765D01*
X157637268Y-105586170D01*
X157506055Y-105746055D01*
X157346170Y-105877268D01*
X157163765Y-105974766D01*
X157163762Y-105974767D01*
X156965836Y-106034807D01*
X156888707Y-106042404D01*
X156811580Y-106050000D01*
X156708420Y-106050000D01*
X156631293Y-106042404D01*
X156554164Y-106034807D01*
X156356238Y-105974767D01*
X156356235Y-105974766D01*
X156173830Y-105877268D01*
X156013945Y-105746055D01*
X155882732Y-105586170D01*
X155785234Y-105403765D01*
X155785233Y-105403762D01*
X155725193Y-105205836D01*
X155704920Y-105000000D01*
X155725193Y-104794164D01*
X155785233Y-104596238D01*
X155785234Y-104596235D01*
X155882732Y-104413830D01*
X156013945Y-104253945D01*
X156173830Y-104122732D01*
X156356235Y-104025234D01*
X156356238Y-104025233D01*
X156554164Y-103965193D01*
X156631293Y-103957597D01*
X156708420Y-103950000D01*
X156811580Y-103950000D01*
X156888707Y-103957597D01*
X156888707Y-103957597D01*
G37*
G36*
X154348707Y-103957597D02*
G01*
X154425836Y-103965193D01*
X154623762Y-104025233D01*
X154623765Y-104025234D01*
X154806170Y-104122732D01*
X154966055Y-104253945D01*
X155097268Y-104413830D01*
X155194766Y-104596235D01*
X155194767Y-104596238D01*
X155254807Y-104794164D01*
X155275080Y-105000000D01*
X155254807Y-105205836D01*
X155194767Y-105403762D01*
X155194766Y-105403765D01*
X155097268Y-105586170D01*
X154966055Y-105746055D01*
X154806170Y-105877268D01*
X154623765Y-105974766D01*
X154623762Y-105974767D01*
X154425836Y-106034807D01*
X154348707Y-106042404D01*
X154271580Y-106050000D01*
X154168420Y-106050000D01*
X154091293Y-106042404D01*
X154014164Y-106034807D01*
X153816238Y-105974767D01*
X153816235Y-105974766D01*
X153633830Y-105877268D01*
X153473945Y-105746055D01*
X153342732Y-105586170D01*
X153245234Y-105403765D01*
X153245233Y-105403762D01*
X153185193Y-105205836D01*
X153164920Y-105000000D01*
X153185193Y-104794164D01*
X153245233Y-104596238D01*
X153245234Y-104596235D01*
X153342732Y-104413830D01*
X153473945Y-104253945D01*
X153633830Y-104122732D01*
X153816235Y-104025234D01*
X153816238Y-104025233D01*
X154014164Y-103965193D01*
X154091293Y-103957597D01*
X154168420Y-103950000D01*
X154271580Y-103950000D01*
X154348707Y-103957597D01*
X154348707Y-103957597D01*
G37*
G36*
X149268707Y-103957597D02*
G01*
X149345836Y-103965193D01*
X149543762Y-104025233D01*
X149543765Y-104025234D01*
X149726170Y-104122732D01*
X149886055Y-104253945D01*
X150017268Y-104413830D01*
X150114766Y-104596235D01*
X150114767Y-104596238D01*
X150174807Y-104794164D01*
X150195080Y-105000000D01*
X150174807Y-105205836D01*
X150114767Y-105403762D01*
X150114766Y-105403765D01*
X150017268Y-105586170D01*
X149886055Y-105746055D01*
X149726170Y-105877268D01*
X149543765Y-105974766D01*
X149543762Y-105974767D01*
X149345836Y-106034807D01*
X149268707Y-106042404D01*
X149191580Y-106050000D01*
X149088420Y-106050000D01*
X149011293Y-106042404D01*
X148934164Y-106034807D01*
X148736238Y-105974767D01*
X148736235Y-105974766D01*
X148553830Y-105877268D01*
X148393945Y-105746055D01*
X148262732Y-105586170D01*
X148165234Y-105403765D01*
X148165233Y-105403762D01*
X148105193Y-105205836D01*
X148084920Y-105000000D01*
X148105193Y-104794164D01*
X148165233Y-104596238D01*
X148165234Y-104596235D01*
X148262732Y-104413830D01*
X148393945Y-104253945D01*
X148553830Y-104122732D01*
X148736235Y-104025234D01*
X148736238Y-104025233D01*
X148934164Y-103965193D01*
X149011293Y-103957597D01*
X149088420Y-103950000D01*
X149191580Y-103950000D01*
X149268707Y-103957597D01*
X149268707Y-103957597D01*
G37*
G36*
X109550000Y-106050000D02*
G01*
X107450000Y-106050000D01*
X107450000Y-103950000D01*
X109550000Y-103950000D01*
X109550000Y-106050000D01*
X109550000Y-106050000D01*
G37*
G36*
X111168707Y-103957597D02*
G01*
X111245836Y-103965193D01*
X111443762Y-104025233D01*
X111443765Y-104025234D01*
X111626170Y-104122732D01*
X111786055Y-104253945D01*
X111917268Y-104413830D01*
X112014766Y-104596235D01*
X112014767Y-104596238D01*
X112074807Y-104794164D01*
X112095080Y-105000000D01*
X112074807Y-105205836D01*
X112014767Y-105403762D01*
X112014766Y-105403765D01*
X111917268Y-105586170D01*
X111786055Y-105746055D01*
X111626170Y-105877268D01*
X111443765Y-105974766D01*
X111443762Y-105974767D01*
X111245836Y-106034807D01*
X111168707Y-106042404D01*
X111091580Y-106050000D01*
X110988420Y-106050000D01*
X110911293Y-106042404D01*
X110834164Y-106034807D01*
X110636238Y-105974767D01*
X110636235Y-105974766D01*
X110453830Y-105877268D01*
X110293945Y-105746055D01*
X110162732Y-105586170D01*
X110065234Y-105403765D01*
X110065233Y-105403762D01*
X110005193Y-105205836D01*
X109984920Y-105000000D01*
X110005193Y-104794164D01*
X110065233Y-104596238D01*
X110065234Y-104596235D01*
X110162732Y-104413830D01*
X110293945Y-104253945D01*
X110453830Y-104122732D01*
X110636235Y-104025234D01*
X110636238Y-104025233D01*
X110834164Y-103965193D01*
X110911293Y-103957597D01*
X110988420Y-103950000D01*
X111091580Y-103950000D01*
X111168707Y-103957597D01*
X111168707Y-103957597D01*
G37*
G36*
X113708707Y-103957597D02*
G01*
X113785836Y-103965193D01*
X113983762Y-104025233D01*
X113983765Y-104025234D01*
X114166170Y-104122732D01*
X114326055Y-104253945D01*
X114457268Y-104413830D01*
X114554766Y-104596235D01*
X114554767Y-104596238D01*
X114614807Y-104794164D01*
X114635080Y-105000000D01*
X114614807Y-105205836D01*
X114554767Y-105403762D01*
X114554766Y-105403765D01*
X114457268Y-105586170D01*
X114326055Y-105746055D01*
X114166170Y-105877268D01*
X113983765Y-105974766D01*
X113983762Y-105974767D01*
X113785836Y-106034807D01*
X113708707Y-106042404D01*
X113631580Y-106050000D01*
X113528420Y-106050000D01*
X113451293Y-106042404D01*
X113374164Y-106034807D01*
X113176238Y-105974767D01*
X113176235Y-105974766D01*
X112993830Y-105877268D01*
X112833945Y-105746055D01*
X112702732Y-105586170D01*
X112605234Y-105403765D01*
X112605233Y-105403762D01*
X112545193Y-105205836D01*
X112524920Y-105000000D01*
X112545193Y-104794164D01*
X112605233Y-104596238D01*
X112605234Y-104596235D01*
X112702732Y-104413830D01*
X112833945Y-104253945D01*
X112993830Y-104122732D01*
X113176235Y-104025234D01*
X113176238Y-104025233D01*
X113374164Y-103965193D01*
X113451293Y-103957597D01*
X113528420Y-103950000D01*
X113631580Y-103950000D01*
X113708707Y-103957597D01*
X113708707Y-103957597D01*
G37*
G36*
X116248707Y-103957597D02*
G01*
X116325836Y-103965193D01*
X116523762Y-104025233D01*
X116523765Y-104025234D01*
X116706170Y-104122732D01*
X116866055Y-104253945D01*
X116997268Y-104413830D01*
X117094766Y-104596235D01*
X117094767Y-104596238D01*
X117154807Y-104794164D01*
X117175080Y-105000000D01*
X117154807Y-105205836D01*
X117094767Y-105403762D01*
X117094766Y-105403765D01*
X116997268Y-105586170D01*
X116866055Y-105746055D01*
X116706170Y-105877268D01*
X116523765Y-105974766D01*
X116523762Y-105974767D01*
X116325836Y-106034807D01*
X116248707Y-106042404D01*
X116171580Y-106050000D01*
X116068420Y-106050000D01*
X115991293Y-106042404D01*
X115914164Y-106034807D01*
X115716238Y-105974767D01*
X115716235Y-105974766D01*
X115533830Y-105877268D01*
X115373945Y-105746055D01*
X115242732Y-105586170D01*
X115145234Y-105403765D01*
X115145233Y-105403762D01*
X115085193Y-105205836D01*
X115064920Y-105000000D01*
X115085193Y-104794164D01*
X115145233Y-104596238D01*
X115145234Y-104596235D01*
X115242732Y-104413830D01*
X115373945Y-104253945D01*
X115533830Y-104122732D01*
X115716235Y-104025234D01*
X115716238Y-104025233D01*
X115914164Y-103965193D01*
X115991293Y-103957597D01*
X116068420Y-103950000D01*
X116171580Y-103950000D01*
X116248707Y-103957597D01*
X116248707Y-103957597D01*
G37*
G36*
X118788707Y-103957597D02*
G01*
X118865836Y-103965193D01*
X119063762Y-104025233D01*
X119063765Y-104025234D01*
X119246170Y-104122732D01*
X119406055Y-104253945D01*
X119537268Y-104413830D01*
X119634766Y-104596235D01*
X119634767Y-104596238D01*
X119694807Y-104794164D01*
X119715080Y-105000000D01*
X119694807Y-105205836D01*
X119634767Y-105403762D01*
X119634766Y-105403765D01*
X119537268Y-105586170D01*
X119406055Y-105746055D01*
X119246170Y-105877268D01*
X119063765Y-105974766D01*
X119063762Y-105974767D01*
X118865836Y-106034807D01*
X118788707Y-106042404D01*
X118711580Y-106050000D01*
X118608420Y-106050000D01*
X118531293Y-106042404D01*
X118454164Y-106034807D01*
X118256238Y-105974767D01*
X118256235Y-105974766D01*
X118073830Y-105877268D01*
X117913945Y-105746055D01*
X117782732Y-105586170D01*
X117685234Y-105403765D01*
X117685233Y-105403762D01*
X117625193Y-105205836D01*
X117604920Y-105000000D01*
X117625193Y-104794164D01*
X117685233Y-104596238D01*
X117685234Y-104596235D01*
X117782732Y-104413830D01*
X117913945Y-104253945D01*
X118073830Y-104122732D01*
X118256235Y-104025234D01*
X118256238Y-104025233D01*
X118454164Y-103965193D01*
X118531293Y-103957597D01*
X118608420Y-103950000D01*
X118711580Y-103950000D01*
X118788707Y-103957597D01*
X118788707Y-103957597D01*
G37*
G36*
X123868707Y-103957597D02*
G01*
X123945836Y-103965193D01*
X124143762Y-104025233D01*
X124143765Y-104025234D01*
X124326170Y-104122732D01*
X124486055Y-104253945D01*
X124617268Y-104413830D01*
X124714766Y-104596235D01*
X124714767Y-104596238D01*
X124774807Y-104794164D01*
X124795080Y-105000000D01*
X124774807Y-105205836D01*
X124714767Y-105403762D01*
X124714766Y-105403765D01*
X124617268Y-105586170D01*
X124486055Y-105746055D01*
X124326170Y-105877268D01*
X124143765Y-105974766D01*
X124143762Y-105974767D01*
X123945836Y-106034807D01*
X123868707Y-106042404D01*
X123791580Y-106050000D01*
X123688420Y-106050000D01*
X123611293Y-106042404D01*
X123534164Y-106034807D01*
X123336238Y-105974767D01*
X123336235Y-105974766D01*
X123153830Y-105877268D01*
X122993945Y-105746055D01*
X122862732Y-105586170D01*
X122765234Y-105403765D01*
X122765233Y-105403762D01*
X122705193Y-105205836D01*
X122684920Y-105000000D01*
X122705193Y-104794164D01*
X122765233Y-104596238D01*
X122765234Y-104596235D01*
X122862732Y-104413830D01*
X122993945Y-104253945D01*
X123153830Y-104122732D01*
X123336235Y-104025234D01*
X123336238Y-104025233D01*
X123534164Y-103965193D01*
X123611293Y-103957597D01*
X123688420Y-103950000D01*
X123791580Y-103950000D01*
X123868707Y-103957597D01*
X123868707Y-103957597D01*
G37*
G36*
X121328707Y-103957597D02*
G01*
X121405836Y-103965193D01*
X121603762Y-104025233D01*
X121603765Y-104025234D01*
X121786170Y-104122732D01*
X121946055Y-104253945D01*
X122077268Y-104413830D01*
X122174766Y-104596235D01*
X122174767Y-104596238D01*
X122234807Y-104794164D01*
X122255080Y-105000000D01*
X122234807Y-105205836D01*
X122174767Y-105403762D01*
X122174766Y-105403765D01*
X122077268Y-105586170D01*
X121946055Y-105746055D01*
X121786170Y-105877268D01*
X121603765Y-105974766D01*
X121603762Y-105974767D01*
X121405836Y-106034807D01*
X121328707Y-106042404D01*
X121251580Y-106050000D01*
X121148420Y-106050000D01*
X121071293Y-106042404D01*
X120994164Y-106034807D01*
X120796238Y-105974767D01*
X120796235Y-105974766D01*
X120613830Y-105877268D01*
X120453945Y-105746055D01*
X120322732Y-105586170D01*
X120225234Y-105403765D01*
X120225233Y-105403762D01*
X120165193Y-105205836D01*
X120144920Y-105000000D01*
X120165193Y-104794164D01*
X120225233Y-104596238D01*
X120225234Y-104596235D01*
X120322732Y-104413830D01*
X120453945Y-104253945D01*
X120613830Y-104122732D01*
X120796235Y-104025234D01*
X120796238Y-104025233D01*
X120994164Y-103965193D01*
X121071293Y-103957597D01*
X121148420Y-103950000D01*
X121251580Y-103950000D01*
X121328707Y-103957597D01*
X121328707Y-103957597D01*
G37*
G36*
X139108707Y-103957597D02*
G01*
X139185836Y-103965193D01*
X139383762Y-104025233D01*
X139383765Y-104025234D01*
X139566170Y-104122732D01*
X139726055Y-104253945D01*
X139857268Y-104413830D01*
X139954766Y-104596235D01*
X139954767Y-104596238D01*
X140014807Y-104794164D01*
X140035080Y-105000000D01*
X140014807Y-105205836D01*
X139954767Y-105403762D01*
X139954766Y-105403765D01*
X139857268Y-105586170D01*
X139726055Y-105746055D01*
X139566170Y-105877268D01*
X139383765Y-105974766D01*
X139383762Y-105974767D01*
X139185836Y-106034807D01*
X139108707Y-106042404D01*
X139031580Y-106050000D01*
X138928420Y-106050000D01*
X138851293Y-106042404D01*
X138774164Y-106034807D01*
X138576238Y-105974767D01*
X138576235Y-105974766D01*
X138393830Y-105877268D01*
X138233945Y-105746055D01*
X138102732Y-105586170D01*
X138005234Y-105403765D01*
X138005233Y-105403762D01*
X137945193Y-105205836D01*
X137924920Y-105000000D01*
X137945193Y-104794164D01*
X138005233Y-104596238D01*
X138005234Y-104596235D01*
X138102732Y-104413830D01*
X138233945Y-104253945D01*
X138393830Y-104122732D01*
X138576235Y-104025234D01*
X138576238Y-104025233D01*
X138774164Y-103965193D01*
X138851293Y-103957597D01*
X138928420Y-103950000D01*
X139031580Y-103950000D01*
X139108707Y-103957597D01*
X139108707Y-103957597D01*
G37*
G36*
X141648707Y-103957597D02*
G01*
X141725836Y-103965193D01*
X141923762Y-104025233D01*
X141923765Y-104025234D01*
X142106170Y-104122732D01*
X142266055Y-104253945D01*
X142397268Y-104413830D01*
X142494766Y-104596235D01*
X142494767Y-104596238D01*
X142554807Y-104794164D01*
X142575080Y-105000000D01*
X142554807Y-105205836D01*
X142494767Y-105403762D01*
X142494766Y-105403765D01*
X142397268Y-105586170D01*
X142266055Y-105746055D01*
X142106170Y-105877268D01*
X141923765Y-105974766D01*
X141923762Y-105974767D01*
X141725836Y-106034807D01*
X141648707Y-106042404D01*
X141571580Y-106050000D01*
X141468420Y-106050000D01*
X141391293Y-106042404D01*
X141314164Y-106034807D01*
X141116238Y-105974767D01*
X141116235Y-105974766D01*
X140933830Y-105877268D01*
X140773945Y-105746055D01*
X140642732Y-105586170D01*
X140545234Y-105403765D01*
X140545233Y-105403762D01*
X140485193Y-105205836D01*
X140464920Y-105000000D01*
X140485193Y-104794164D01*
X140545233Y-104596238D01*
X140545234Y-104596235D01*
X140642732Y-104413830D01*
X140773945Y-104253945D01*
X140933830Y-104122732D01*
X141116235Y-104025234D01*
X141116238Y-104025233D01*
X141314164Y-103965193D01*
X141391293Y-103957597D01*
X141468420Y-103950000D01*
X141571580Y-103950000D01*
X141648707Y-103957597D01*
X141648707Y-103957597D01*
G37*
G36*
X151808707Y-103957597D02*
G01*
X151885836Y-103965193D01*
X152083762Y-104025233D01*
X152083765Y-104025234D01*
X152266170Y-104122732D01*
X152426055Y-104253945D01*
X152557268Y-104413830D01*
X152654766Y-104596235D01*
X152654767Y-104596238D01*
X152714807Y-104794164D01*
X152735080Y-105000000D01*
X152714807Y-105205836D01*
X152654767Y-105403762D01*
X152654766Y-105403765D01*
X152557268Y-105586170D01*
X152426055Y-105746055D01*
X152266170Y-105877268D01*
X152083765Y-105974766D01*
X152083762Y-105974767D01*
X151885836Y-106034807D01*
X151808707Y-106042404D01*
X151731580Y-106050000D01*
X151628420Y-106050000D01*
X151551293Y-106042404D01*
X151474164Y-106034807D01*
X151276238Y-105974767D01*
X151276235Y-105974766D01*
X151093830Y-105877268D01*
X150933945Y-105746055D01*
X150802732Y-105586170D01*
X150705234Y-105403765D01*
X150705233Y-105403762D01*
X150645193Y-105205836D01*
X150624920Y-105000000D01*
X150645193Y-104794164D01*
X150705233Y-104596238D01*
X150705234Y-104596235D01*
X150802732Y-104413830D01*
X150933945Y-104253945D01*
X151093830Y-104122732D01*
X151276235Y-104025234D01*
X151276238Y-104025233D01*
X151474164Y-103965193D01*
X151551293Y-103957597D01*
X151628420Y-103950000D01*
X151731580Y-103950000D01*
X151808707Y-103957597D01*
X151808707Y-103957597D01*
G37*
G36*
X136568707Y-103957597D02*
G01*
X136645836Y-103965193D01*
X136843762Y-104025233D01*
X136843765Y-104025234D01*
X137026170Y-104122732D01*
X137186055Y-104253945D01*
X137317268Y-104413830D01*
X137414766Y-104596235D01*
X137414767Y-104596238D01*
X137474807Y-104794164D01*
X137495080Y-105000000D01*
X137474807Y-105205836D01*
X137414767Y-105403762D01*
X137414766Y-105403765D01*
X137317268Y-105586170D01*
X137186055Y-105746055D01*
X137026170Y-105877268D01*
X136843765Y-105974766D01*
X136843762Y-105974767D01*
X136645836Y-106034807D01*
X136568707Y-106042404D01*
X136491580Y-106050000D01*
X136388420Y-106050000D01*
X136311293Y-106042404D01*
X136234164Y-106034807D01*
X136036238Y-105974767D01*
X136036235Y-105974766D01*
X135853830Y-105877268D01*
X135693945Y-105746055D01*
X135562732Y-105586170D01*
X135465234Y-105403765D01*
X135465233Y-105403762D01*
X135405193Y-105205836D01*
X135384920Y-105000000D01*
X135405193Y-104794164D01*
X135465233Y-104596238D01*
X135465234Y-104596235D01*
X135562732Y-104413830D01*
X135693945Y-104253945D01*
X135853830Y-104122732D01*
X136036235Y-104025234D01*
X136036238Y-104025233D01*
X136234164Y-103965193D01*
X136311293Y-103957597D01*
X136388420Y-103950000D01*
X136491580Y-103950000D01*
X136568707Y-103957597D01*
X136568707Y-103957597D01*
G37*
G36*
X134028707Y-103957597D02*
G01*
X134105836Y-103965193D01*
X134303762Y-104025233D01*
X134303765Y-104025234D01*
X134486170Y-104122732D01*
X134646055Y-104253945D01*
X134777268Y-104413830D01*
X134874766Y-104596235D01*
X134874767Y-104596238D01*
X134934807Y-104794164D01*
X134955080Y-105000000D01*
X134934807Y-105205836D01*
X134874767Y-105403762D01*
X134874766Y-105403765D01*
X134777268Y-105586170D01*
X134646055Y-105746055D01*
X134486170Y-105877268D01*
X134303765Y-105974766D01*
X134303762Y-105974767D01*
X134105836Y-106034807D01*
X134028707Y-106042404D01*
X133951580Y-106050000D01*
X133848420Y-106050000D01*
X133771293Y-106042404D01*
X133694164Y-106034807D01*
X133496238Y-105974767D01*
X133496235Y-105974766D01*
X133313830Y-105877268D01*
X133153945Y-105746055D01*
X133022732Y-105586170D01*
X132925234Y-105403765D01*
X132925233Y-105403762D01*
X132865193Y-105205836D01*
X132844920Y-105000000D01*
X132865193Y-104794164D01*
X132925233Y-104596238D01*
X132925234Y-104596235D01*
X133022732Y-104413830D01*
X133153945Y-104253945D01*
X133313830Y-104122732D01*
X133496235Y-104025234D01*
X133496238Y-104025233D01*
X133694164Y-103965193D01*
X133771293Y-103957597D01*
X133848420Y-103950000D01*
X133951580Y-103950000D01*
X134028707Y-103957597D01*
X134028707Y-103957597D01*
G37*
G36*
X131488707Y-103957597D02*
G01*
X131565836Y-103965193D01*
X131763762Y-104025233D01*
X131763765Y-104025234D01*
X131946170Y-104122732D01*
X132106055Y-104253945D01*
X132237268Y-104413830D01*
X132334766Y-104596235D01*
X132334767Y-104596238D01*
X132394807Y-104794164D01*
X132415080Y-105000000D01*
X132394807Y-105205836D01*
X132334767Y-105403762D01*
X132334766Y-105403765D01*
X132237268Y-105586170D01*
X132106055Y-105746055D01*
X131946170Y-105877268D01*
X131763765Y-105974766D01*
X131763762Y-105974767D01*
X131565836Y-106034807D01*
X131488707Y-106042404D01*
X131411580Y-106050000D01*
X131308420Y-106050000D01*
X131231293Y-106042404D01*
X131154164Y-106034807D01*
X130956238Y-105974767D01*
X130956235Y-105974766D01*
X130773830Y-105877268D01*
X130613945Y-105746055D01*
X130482732Y-105586170D01*
X130385234Y-105403765D01*
X130385233Y-105403762D01*
X130325193Y-105205836D01*
X130304920Y-105000000D01*
X130325193Y-104794164D01*
X130385233Y-104596238D01*
X130385234Y-104596235D01*
X130482732Y-104413830D01*
X130613945Y-104253945D01*
X130773830Y-104122732D01*
X130956235Y-104025234D01*
X130956238Y-104025233D01*
X131154164Y-103965193D01*
X131231293Y-103957597D01*
X131308420Y-103950000D01*
X131411580Y-103950000D01*
X131488707Y-103957597D01*
X131488707Y-103957597D01*
G37*
G36*
X128948707Y-103957597D02*
G01*
X129025836Y-103965193D01*
X129223762Y-104025233D01*
X129223765Y-104025234D01*
X129406170Y-104122732D01*
X129566055Y-104253945D01*
X129697268Y-104413830D01*
X129794766Y-104596235D01*
X129794767Y-104596238D01*
X129854807Y-104794164D01*
X129875080Y-105000000D01*
X129854807Y-105205836D01*
X129794767Y-105403762D01*
X129794766Y-105403765D01*
X129697268Y-105586170D01*
X129566055Y-105746055D01*
X129406170Y-105877268D01*
X129223765Y-105974766D01*
X129223762Y-105974767D01*
X129025836Y-106034807D01*
X128948707Y-106042404D01*
X128871580Y-106050000D01*
X128768420Y-106050000D01*
X128691293Y-106042404D01*
X128614164Y-106034807D01*
X128416238Y-105974767D01*
X128416235Y-105974766D01*
X128233830Y-105877268D01*
X128073945Y-105746055D01*
X127942732Y-105586170D01*
X127845234Y-105403765D01*
X127845233Y-105403762D01*
X127785193Y-105205836D01*
X127764920Y-105000000D01*
X127785193Y-104794164D01*
X127845233Y-104596238D01*
X127845234Y-104596235D01*
X127942732Y-104413830D01*
X128073945Y-104253945D01*
X128233830Y-104122732D01*
X128416235Y-104025234D01*
X128416238Y-104025233D01*
X128614164Y-103965193D01*
X128691293Y-103957597D01*
X128768420Y-103950000D01*
X128871580Y-103950000D01*
X128948707Y-103957597D01*
X128948707Y-103957597D01*
G37*
G36*
X126408707Y-103957597D02*
G01*
X126485836Y-103965193D01*
X126683762Y-104025233D01*
X126683765Y-104025234D01*
X126866170Y-104122732D01*
X127026055Y-104253945D01*
X127157268Y-104413830D01*
X127254766Y-104596235D01*
X127254767Y-104596238D01*
X127314807Y-104794164D01*
X127335080Y-105000000D01*
X127314807Y-105205836D01*
X127254767Y-105403762D01*
X127254766Y-105403765D01*
X127157268Y-105586170D01*
X127026055Y-105746055D01*
X126866170Y-105877268D01*
X126683765Y-105974766D01*
X126683762Y-105974767D01*
X126485836Y-106034807D01*
X126408707Y-106042404D01*
X126331580Y-106050000D01*
X126228420Y-106050000D01*
X126151293Y-106042404D01*
X126074164Y-106034807D01*
X125876238Y-105974767D01*
X125876235Y-105974766D01*
X125693830Y-105877268D01*
X125533945Y-105746055D01*
X125402732Y-105586170D01*
X125305234Y-105403765D01*
X125305233Y-105403762D01*
X125245193Y-105205836D01*
X125224920Y-105000000D01*
X125245193Y-104794164D01*
X125305233Y-104596238D01*
X125305234Y-104596235D01*
X125402732Y-104413830D01*
X125533945Y-104253945D01*
X125693830Y-104122732D01*
X125876235Y-104025234D01*
X125876238Y-104025233D01*
X126074164Y-103965193D01*
X126151293Y-103957597D01*
X126228420Y-103950000D01*
X126331580Y-103950000D01*
X126408707Y-103957597D01*
X126408707Y-103957597D01*
G37*
G36*
X108628707Y-101417597D02*
G01*
X108705836Y-101425193D01*
X108903762Y-101485233D01*
X108903765Y-101485234D01*
X109086170Y-101582732D01*
X109246055Y-101713945D01*
X109377268Y-101873830D01*
X109474766Y-102056235D01*
X109474767Y-102056238D01*
X109534807Y-102254164D01*
X109555080Y-102460000D01*
X109534807Y-102665836D01*
X109474767Y-102863762D01*
X109474766Y-102863765D01*
X109377268Y-103046170D01*
X109246055Y-103206055D01*
X109086170Y-103337268D01*
X108903765Y-103434766D01*
X108903762Y-103434767D01*
X108705836Y-103494807D01*
X108628707Y-103502404D01*
X108551580Y-103510000D01*
X108448420Y-103510000D01*
X108371293Y-103502404D01*
X108294164Y-103494807D01*
X108096238Y-103434767D01*
X108096235Y-103434766D01*
X107913830Y-103337268D01*
X107753945Y-103206055D01*
X107622732Y-103046170D01*
X107525234Y-102863765D01*
X107525233Y-102863762D01*
X107465193Y-102665836D01*
X107444920Y-102460000D01*
X107465193Y-102254164D01*
X107525233Y-102056238D01*
X107525234Y-102056235D01*
X107622732Y-101873830D01*
X107753945Y-101713945D01*
X107913830Y-101582732D01*
X108096235Y-101485234D01*
X108096238Y-101485233D01*
X108294164Y-101425193D01*
X108371293Y-101417597D01*
X108448420Y-101410000D01*
X108551580Y-101410000D01*
X108628707Y-101417597D01*
X108628707Y-101417597D01*
G37*
G36*
X111168707Y-101417597D02*
G01*
X111245836Y-101425193D01*
X111443762Y-101485233D01*
X111443765Y-101485234D01*
X111626170Y-101582732D01*
X111786055Y-101713945D01*
X111917268Y-101873830D01*
X112014766Y-102056235D01*
X112014767Y-102056238D01*
X112074807Y-102254164D01*
X112095080Y-102460000D01*
X112074807Y-102665836D01*
X112014767Y-102863762D01*
X112014766Y-102863765D01*
X111917268Y-103046170D01*
X111786055Y-103206055D01*
X111626170Y-103337268D01*
X111443765Y-103434766D01*
X111443762Y-103434767D01*
X111245836Y-103494807D01*
X111168707Y-103502404D01*
X111091580Y-103510000D01*
X110988420Y-103510000D01*
X110911293Y-103502404D01*
X110834164Y-103494807D01*
X110636238Y-103434767D01*
X110636235Y-103434766D01*
X110453830Y-103337268D01*
X110293945Y-103206055D01*
X110162732Y-103046170D01*
X110065234Y-102863765D01*
X110065233Y-102863762D01*
X110005193Y-102665836D01*
X109984920Y-102460000D01*
X110005193Y-102254164D01*
X110065233Y-102056238D01*
X110065234Y-102056235D01*
X110162732Y-101873830D01*
X110293945Y-101713945D01*
X110453830Y-101582732D01*
X110636235Y-101485234D01*
X110636238Y-101485233D01*
X110834164Y-101425193D01*
X110911293Y-101417597D01*
X110988420Y-101410000D01*
X111091580Y-101410000D01*
X111168707Y-101417597D01*
X111168707Y-101417597D01*
G37*
G36*
X113708707Y-101417597D02*
G01*
X113785836Y-101425193D01*
X113983762Y-101485233D01*
X113983765Y-101485234D01*
X114166170Y-101582732D01*
X114326055Y-101713945D01*
X114457268Y-101873830D01*
X114554766Y-102056235D01*
X114554767Y-102056238D01*
X114614807Y-102254164D01*
X114635080Y-102460000D01*
X114614807Y-102665836D01*
X114554767Y-102863762D01*
X114554766Y-102863765D01*
X114457268Y-103046170D01*
X114326055Y-103206055D01*
X114166170Y-103337268D01*
X113983765Y-103434766D01*
X113983762Y-103434767D01*
X113785836Y-103494807D01*
X113708707Y-103502404D01*
X113631580Y-103510000D01*
X113528420Y-103510000D01*
X113451293Y-103502404D01*
X113374164Y-103494807D01*
X113176238Y-103434767D01*
X113176235Y-103434766D01*
X112993830Y-103337268D01*
X112833945Y-103206055D01*
X112702732Y-103046170D01*
X112605234Y-102863765D01*
X112605233Y-102863762D01*
X112545193Y-102665836D01*
X112524920Y-102460000D01*
X112545193Y-102254164D01*
X112605233Y-102056238D01*
X112605234Y-102056235D01*
X112702732Y-101873830D01*
X112833945Y-101713945D01*
X112993830Y-101582732D01*
X113176235Y-101485234D01*
X113176238Y-101485233D01*
X113374164Y-101425193D01*
X113451293Y-101417597D01*
X113528420Y-101410000D01*
X113631580Y-101410000D01*
X113708707Y-101417597D01*
X113708707Y-101417597D01*
G37*
G36*
X121328707Y-101417597D02*
G01*
X121405836Y-101425193D01*
X121603762Y-101485233D01*
X121603765Y-101485234D01*
X121786170Y-101582732D01*
X121946055Y-101713945D01*
X122077268Y-101873830D01*
X122174766Y-102056235D01*
X122174767Y-102056238D01*
X122234807Y-102254164D01*
X122255080Y-102460000D01*
X122234807Y-102665836D01*
X122174767Y-102863762D01*
X122174766Y-102863765D01*
X122077268Y-103046170D01*
X121946055Y-103206055D01*
X121786170Y-103337268D01*
X121603765Y-103434766D01*
X121603762Y-103434767D01*
X121405836Y-103494807D01*
X121328707Y-103502404D01*
X121251580Y-103510000D01*
X121148420Y-103510000D01*
X121071293Y-103502404D01*
X120994164Y-103494807D01*
X120796238Y-103434767D01*
X120796235Y-103434766D01*
X120613830Y-103337268D01*
X120453945Y-103206055D01*
X120322732Y-103046170D01*
X120225234Y-102863765D01*
X120225233Y-102863762D01*
X120165193Y-102665836D01*
X120144920Y-102460000D01*
X120165193Y-102254164D01*
X120225233Y-102056238D01*
X120225234Y-102056235D01*
X120322732Y-101873830D01*
X120453945Y-101713945D01*
X120613830Y-101582732D01*
X120796235Y-101485234D01*
X120796238Y-101485233D01*
X120994164Y-101425193D01*
X121071293Y-101417597D01*
X121148420Y-101410000D01*
X121251580Y-101410000D01*
X121328707Y-101417597D01*
X121328707Y-101417597D01*
G37*
G36*
X123868707Y-101417597D02*
G01*
X123945836Y-101425193D01*
X124143762Y-101485233D01*
X124143765Y-101485234D01*
X124326170Y-101582732D01*
X124486055Y-101713945D01*
X124617268Y-101873830D01*
X124714766Y-102056235D01*
X124714767Y-102056238D01*
X124774807Y-102254164D01*
X124795080Y-102460000D01*
X124774807Y-102665836D01*
X124714767Y-102863762D01*
X124714766Y-102863765D01*
X124617268Y-103046170D01*
X124486055Y-103206055D01*
X124326170Y-103337268D01*
X124143765Y-103434766D01*
X124143762Y-103434767D01*
X123945836Y-103494807D01*
X123868707Y-103502404D01*
X123791580Y-103510000D01*
X123688420Y-103510000D01*
X123611293Y-103502404D01*
X123534164Y-103494807D01*
X123336238Y-103434767D01*
X123336235Y-103434766D01*
X123153830Y-103337268D01*
X122993945Y-103206055D01*
X122862732Y-103046170D01*
X122765234Y-102863765D01*
X122765233Y-102863762D01*
X122705193Y-102665836D01*
X122684920Y-102460000D01*
X122705193Y-102254164D01*
X122765233Y-102056238D01*
X122765234Y-102056235D01*
X122862732Y-101873830D01*
X122993945Y-101713945D01*
X123153830Y-101582732D01*
X123336235Y-101485234D01*
X123336238Y-101485233D01*
X123534164Y-101425193D01*
X123611293Y-101417597D01*
X123688420Y-101410000D01*
X123791580Y-101410000D01*
X123868707Y-101417597D01*
X123868707Y-101417597D01*
G37*
G36*
X126408707Y-101417597D02*
G01*
X126485836Y-101425193D01*
X126683762Y-101485233D01*
X126683765Y-101485234D01*
X126866170Y-101582732D01*
X127026055Y-101713945D01*
X127157268Y-101873830D01*
X127254766Y-102056235D01*
X127254767Y-102056238D01*
X127314807Y-102254164D01*
X127335080Y-102460000D01*
X127314807Y-102665836D01*
X127254767Y-102863762D01*
X127254766Y-102863765D01*
X127157268Y-103046170D01*
X127026055Y-103206055D01*
X126866170Y-103337268D01*
X126683765Y-103434766D01*
X126683762Y-103434767D01*
X126485836Y-103494807D01*
X126408707Y-103502404D01*
X126331580Y-103510000D01*
X126228420Y-103510000D01*
X126151293Y-103502404D01*
X126074164Y-103494807D01*
X125876238Y-103434767D01*
X125876235Y-103434766D01*
X125693830Y-103337268D01*
X125533945Y-103206055D01*
X125402732Y-103046170D01*
X125305234Y-102863765D01*
X125305233Y-102863762D01*
X125245193Y-102665836D01*
X125224920Y-102460000D01*
X125245193Y-102254164D01*
X125305233Y-102056238D01*
X125305234Y-102056235D01*
X125402732Y-101873830D01*
X125533945Y-101713945D01*
X125693830Y-101582732D01*
X125876235Y-101485234D01*
X125876238Y-101485233D01*
X126074164Y-101425193D01*
X126151293Y-101417597D01*
X126228420Y-101410000D01*
X126331580Y-101410000D01*
X126408707Y-101417597D01*
X126408707Y-101417597D01*
G37*
G36*
X128948707Y-101417597D02*
G01*
X129025836Y-101425193D01*
X129223762Y-101485233D01*
X129223765Y-101485234D01*
X129406170Y-101582732D01*
X129566055Y-101713945D01*
X129697268Y-101873830D01*
X129794766Y-102056235D01*
X129794767Y-102056238D01*
X129854807Y-102254164D01*
X129875080Y-102460000D01*
X129854807Y-102665836D01*
X129794767Y-102863762D01*
X129794766Y-102863765D01*
X129697268Y-103046170D01*
X129566055Y-103206055D01*
X129406170Y-103337268D01*
X129223765Y-103434766D01*
X129223762Y-103434767D01*
X129025836Y-103494807D01*
X128948707Y-103502404D01*
X128871580Y-103510000D01*
X128768420Y-103510000D01*
X128691293Y-103502404D01*
X128614164Y-103494807D01*
X128416238Y-103434767D01*
X128416235Y-103434766D01*
X128233830Y-103337268D01*
X128073945Y-103206055D01*
X127942732Y-103046170D01*
X127845234Y-102863765D01*
X127845233Y-102863762D01*
X127785193Y-102665836D01*
X127764920Y-102460000D01*
X127785193Y-102254164D01*
X127845233Y-102056238D01*
X127845234Y-102056235D01*
X127942732Y-101873830D01*
X128073945Y-101713945D01*
X128233830Y-101582732D01*
X128416235Y-101485234D01*
X128416238Y-101485233D01*
X128614164Y-101425193D01*
X128691293Y-101417597D01*
X128768420Y-101410000D01*
X128871580Y-101410000D01*
X128948707Y-101417597D01*
X128948707Y-101417597D01*
G37*
G36*
X116248707Y-101417597D02*
G01*
X116325836Y-101425193D01*
X116523762Y-101485233D01*
X116523765Y-101485234D01*
X116706170Y-101582732D01*
X116866055Y-101713945D01*
X116997268Y-101873830D01*
X117094766Y-102056235D01*
X117094767Y-102056238D01*
X117154807Y-102254164D01*
X117175080Y-102460000D01*
X117154807Y-102665836D01*
X117094767Y-102863762D01*
X117094766Y-102863765D01*
X116997268Y-103046170D01*
X116866055Y-103206055D01*
X116706170Y-103337268D01*
X116523765Y-103434766D01*
X116523762Y-103434767D01*
X116325836Y-103494807D01*
X116248707Y-103502404D01*
X116171580Y-103510000D01*
X116068420Y-103510000D01*
X115991293Y-103502404D01*
X115914164Y-103494807D01*
X115716238Y-103434767D01*
X115716235Y-103434766D01*
X115533830Y-103337268D01*
X115373945Y-103206055D01*
X115242732Y-103046170D01*
X115145234Y-102863765D01*
X115145233Y-102863762D01*
X115085193Y-102665836D01*
X115064920Y-102460000D01*
X115085193Y-102254164D01*
X115145233Y-102056238D01*
X115145234Y-102056235D01*
X115242732Y-101873830D01*
X115373945Y-101713945D01*
X115533830Y-101582732D01*
X115716235Y-101485234D01*
X115716238Y-101485233D01*
X115914164Y-101425193D01*
X115991293Y-101417597D01*
X116068420Y-101410000D01*
X116171580Y-101410000D01*
X116248707Y-101417597D01*
X116248707Y-101417597D01*
G37*
G36*
X156888707Y-101417597D02*
G01*
X156965836Y-101425193D01*
X157163762Y-101485233D01*
X157163765Y-101485234D01*
X157346170Y-101582732D01*
X157506055Y-101713945D01*
X157637268Y-101873830D01*
X157734766Y-102056235D01*
X157734767Y-102056238D01*
X157794807Y-102254164D01*
X157815080Y-102460000D01*
X157794807Y-102665836D01*
X157734767Y-102863762D01*
X157734766Y-102863765D01*
X157637268Y-103046170D01*
X157506055Y-103206055D01*
X157346170Y-103337268D01*
X157163765Y-103434766D01*
X157163762Y-103434767D01*
X156965836Y-103494807D01*
X156888707Y-103502404D01*
X156811580Y-103510000D01*
X156708420Y-103510000D01*
X156631293Y-103502404D01*
X156554164Y-103494807D01*
X156356238Y-103434767D01*
X156356235Y-103434766D01*
X156173830Y-103337268D01*
X156013945Y-103206055D01*
X155882732Y-103046170D01*
X155785234Y-102863765D01*
X155785233Y-102863762D01*
X155725193Y-102665836D01*
X155704920Y-102460000D01*
X155725193Y-102254164D01*
X155785233Y-102056238D01*
X155785234Y-102056235D01*
X155882732Y-101873830D01*
X156013945Y-101713945D01*
X156173830Y-101582732D01*
X156356235Y-101485234D01*
X156356238Y-101485233D01*
X156554164Y-101425193D01*
X156631293Y-101417597D01*
X156708420Y-101410000D01*
X156811580Y-101410000D01*
X156888707Y-101417597D01*
X156888707Y-101417597D01*
G37*
G36*
X154348707Y-101417597D02*
G01*
X154425836Y-101425193D01*
X154623762Y-101485233D01*
X154623765Y-101485234D01*
X154806170Y-101582732D01*
X154966055Y-101713945D01*
X155097268Y-101873830D01*
X155194766Y-102056235D01*
X155194767Y-102056238D01*
X155254807Y-102254164D01*
X155275080Y-102460000D01*
X155254807Y-102665836D01*
X155194767Y-102863762D01*
X155194766Y-102863765D01*
X155097268Y-103046170D01*
X154966055Y-103206055D01*
X154806170Y-103337268D01*
X154623765Y-103434766D01*
X154623762Y-103434767D01*
X154425836Y-103494807D01*
X154348707Y-103502404D01*
X154271580Y-103510000D01*
X154168420Y-103510000D01*
X154091293Y-103502404D01*
X154014164Y-103494807D01*
X153816238Y-103434767D01*
X153816235Y-103434766D01*
X153633830Y-103337268D01*
X153473945Y-103206055D01*
X153342732Y-103046170D01*
X153245234Y-102863765D01*
X153245233Y-102863762D01*
X153185193Y-102665836D01*
X153164920Y-102460000D01*
X153185193Y-102254164D01*
X153245233Y-102056238D01*
X153245234Y-102056235D01*
X153342732Y-101873830D01*
X153473945Y-101713945D01*
X153633830Y-101582732D01*
X153816235Y-101485234D01*
X153816238Y-101485233D01*
X154014164Y-101425193D01*
X154091293Y-101417597D01*
X154168420Y-101410000D01*
X154271580Y-101410000D01*
X154348707Y-101417597D01*
X154348707Y-101417597D01*
G37*
G36*
X118788707Y-101417597D02*
G01*
X118865836Y-101425193D01*
X119063762Y-101485233D01*
X119063765Y-101485234D01*
X119246170Y-101582732D01*
X119406055Y-101713945D01*
X119537268Y-101873830D01*
X119634766Y-102056235D01*
X119634767Y-102056238D01*
X119694807Y-102254164D01*
X119715080Y-102460000D01*
X119694807Y-102665836D01*
X119634767Y-102863762D01*
X119634766Y-102863765D01*
X119537268Y-103046170D01*
X119406055Y-103206055D01*
X119246170Y-103337268D01*
X119063765Y-103434766D01*
X119063762Y-103434767D01*
X118865836Y-103494807D01*
X118788707Y-103502404D01*
X118711580Y-103510000D01*
X118608420Y-103510000D01*
X118531293Y-103502404D01*
X118454164Y-103494807D01*
X118256238Y-103434767D01*
X118256235Y-103434766D01*
X118073830Y-103337268D01*
X117913945Y-103206055D01*
X117782732Y-103046170D01*
X117685234Y-102863765D01*
X117685233Y-102863762D01*
X117625193Y-102665836D01*
X117604920Y-102460000D01*
X117625193Y-102254164D01*
X117685233Y-102056238D01*
X117685234Y-102056235D01*
X117782732Y-101873830D01*
X117913945Y-101713945D01*
X118073830Y-101582732D01*
X118256235Y-101485234D01*
X118256238Y-101485233D01*
X118454164Y-101425193D01*
X118531293Y-101417597D01*
X118608420Y-101410000D01*
X118711580Y-101410000D01*
X118788707Y-101417597D01*
X118788707Y-101417597D01*
G37*
G36*
X151808707Y-101417597D02*
G01*
X151885836Y-101425193D01*
X152083762Y-101485233D01*
X152083765Y-101485234D01*
X152266170Y-101582732D01*
X152426055Y-101713945D01*
X152557268Y-101873830D01*
X152654766Y-102056235D01*
X152654767Y-102056238D01*
X152714807Y-102254164D01*
X152735080Y-102460000D01*
X152714807Y-102665836D01*
X152654767Y-102863762D01*
X152654766Y-102863765D01*
X152557268Y-103046170D01*
X152426055Y-103206055D01*
X152266170Y-103337268D01*
X152083765Y-103434766D01*
X152083762Y-103434767D01*
X151885836Y-103494807D01*
X151808707Y-103502404D01*
X151731580Y-103510000D01*
X151628420Y-103510000D01*
X151551293Y-103502404D01*
X151474164Y-103494807D01*
X151276238Y-103434767D01*
X151276235Y-103434766D01*
X151093830Y-103337268D01*
X150933945Y-103206055D01*
X150802732Y-103046170D01*
X150705234Y-102863765D01*
X150705233Y-102863762D01*
X150645193Y-102665836D01*
X150624920Y-102460000D01*
X150645193Y-102254164D01*
X150705233Y-102056238D01*
X150705234Y-102056235D01*
X150802732Y-101873830D01*
X150933945Y-101713945D01*
X151093830Y-101582732D01*
X151276235Y-101485234D01*
X151276238Y-101485233D01*
X151474164Y-101425193D01*
X151551293Y-101417597D01*
X151628420Y-101410000D01*
X151731580Y-101410000D01*
X151808707Y-101417597D01*
X151808707Y-101417597D01*
G37*
G36*
X149268707Y-101417597D02*
G01*
X149345836Y-101425193D01*
X149543762Y-101485233D01*
X149543765Y-101485234D01*
X149726170Y-101582732D01*
X149886055Y-101713945D01*
X150017268Y-101873830D01*
X150114766Y-102056235D01*
X150114767Y-102056238D01*
X150174807Y-102254164D01*
X150195080Y-102460000D01*
X150174807Y-102665836D01*
X150114767Y-102863762D01*
X150114766Y-102863765D01*
X150017268Y-103046170D01*
X149886055Y-103206055D01*
X149726170Y-103337268D01*
X149543765Y-103434766D01*
X149543762Y-103434767D01*
X149345836Y-103494807D01*
X149268707Y-103502404D01*
X149191580Y-103510000D01*
X149088420Y-103510000D01*
X149011293Y-103502404D01*
X148934164Y-103494807D01*
X148736238Y-103434767D01*
X148736235Y-103434766D01*
X148553830Y-103337268D01*
X148393945Y-103206055D01*
X148262732Y-103046170D01*
X148165234Y-102863765D01*
X148165233Y-102863762D01*
X148105193Y-102665836D01*
X148084920Y-102460000D01*
X148105193Y-102254164D01*
X148165233Y-102056238D01*
X148165234Y-102056235D01*
X148262732Y-101873830D01*
X148393945Y-101713945D01*
X148553830Y-101582732D01*
X148736235Y-101485234D01*
X148736238Y-101485233D01*
X148934164Y-101425193D01*
X149011293Y-101417597D01*
X149088420Y-101410000D01*
X149191580Y-101410000D01*
X149268707Y-101417597D01*
X149268707Y-101417597D01*
G37*
G36*
X146728707Y-101417597D02*
G01*
X146805836Y-101425193D01*
X147003762Y-101485233D01*
X147003765Y-101485234D01*
X147186170Y-101582732D01*
X147346055Y-101713945D01*
X147477268Y-101873830D01*
X147574766Y-102056235D01*
X147574767Y-102056238D01*
X147634807Y-102254164D01*
X147655080Y-102460000D01*
X147634807Y-102665836D01*
X147574767Y-102863762D01*
X147574766Y-102863765D01*
X147477268Y-103046170D01*
X147346055Y-103206055D01*
X147186170Y-103337268D01*
X147003765Y-103434766D01*
X147003762Y-103434767D01*
X146805836Y-103494807D01*
X146728707Y-103502404D01*
X146651580Y-103510000D01*
X146548420Y-103510000D01*
X146471293Y-103502404D01*
X146394164Y-103494807D01*
X146196238Y-103434767D01*
X146196235Y-103434766D01*
X146013830Y-103337268D01*
X145853945Y-103206055D01*
X145722732Y-103046170D01*
X145625234Y-102863765D01*
X145625233Y-102863762D01*
X145565193Y-102665836D01*
X145544920Y-102460000D01*
X145565193Y-102254164D01*
X145625233Y-102056238D01*
X145625234Y-102056235D01*
X145722732Y-101873830D01*
X145853945Y-101713945D01*
X146013830Y-101582732D01*
X146196235Y-101485234D01*
X146196238Y-101485233D01*
X146394164Y-101425193D01*
X146471293Y-101417597D01*
X146548420Y-101410000D01*
X146651580Y-101410000D01*
X146728707Y-101417597D01*
X146728707Y-101417597D01*
G37*
G36*
X144188707Y-101417597D02*
G01*
X144265836Y-101425193D01*
X144463762Y-101485233D01*
X144463765Y-101485234D01*
X144646170Y-101582732D01*
X144806055Y-101713945D01*
X144937268Y-101873830D01*
X145034766Y-102056235D01*
X145034767Y-102056238D01*
X145094807Y-102254164D01*
X145115080Y-102460000D01*
X145094807Y-102665836D01*
X145034767Y-102863762D01*
X145034766Y-102863765D01*
X144937268Y-103046170D01*
X144806055Y-103206055D01*
X144646170Y-103337268D01*
X144463765Y-103434766D01*
X144463762Y-103434767D01*
X144265836Y-103494807D01*
X144188707Y-103502404D01*
X144111580Y-103510000D01*
X144008420Y-103510000D01*
X143931293Y-103502404D01*
X143854164Y-103494807D01*
X143656238Y-103434767D01*
X143656235Y-103434766D01*
X143473830Y-103337268D01*
X143313945Y-103206055D01*
X143182732Y-103046170D01*
X143085234Y-102863765D01*
X143085233Y-102863762D01*
X143025193Y-102665836D01*
X143004920Y-102460000D01*
X143025193Y-102254164D01*
X143085233Y-102056238D01*
X143085234Y-102056235D01*
X143182732Y-101873830D01*
X143313945Y-101713945D01*
X143473830Y-101582732D01*
X143656235Y-101485234D01*
X143656238Y-101485233D01*
X143854164Y-101425193D01*
X143931293Y-101417597D01*
X144008420Y-101410000D01*
X144111580Y-101410000D01*
X144188707Y-101417597D01*
X144188707Y-101417597D01*
G37*
G36*
X141648707Y-101417597D02*
G01*
X141725836Y-101425193D01*
X141923762Y-101485233D01*
X141923765Y-101485234D01*
X142106170Y-101582732D01*
X142266055Y-101713945D01*
X142397268Y-101873830D01*
X142494766Y-102056235D01*
X142494767Y-102056238D01*
X142554807Y-102254164D01*
X142575080Y-102460000D01*
X142554807Y-102665836D01*
X142494767Y-102863762D01*
X142494766Y-102863765D01*
X142397268Y-103046170D01*
X142266055Y-103206055D01*
X142106170Y-103337268D01*
X141923765Y-103434766D01*
X141923762Y-103434767D01*
X141725836Y-103494807D01*
X141648707Y-103502404D01*
X141571580Y-103510000D01*
X141468420Y-103510000D01*
X141391293Y-103502404D01*
X141314164Y-103494807D01*
X141116238Y-103434767D01*
X141116235Y-103434766D01*
X140933830Y-103337268D01*
X140773945Y-103206055D01*
X140642732Y-103046170D01*
X140545234Y-102863765D01*
X140545233Y-102863762D01*
X140485193Y-102665836D01*
X140464920Y-102460000D01*
X140485193Y-102254164D01*
X140545233Y-102056238D01*
X140545234Y-102056235D01*
X140642732Y-101873830D01*
X140773945Y-101713945D01*
X140933830Y-101582732D01*
X141116235Y-101485234D01*
X141116238Y-101485233D01*
X141314164Y-101425193D01*
X141391293Y-101417597D01*
X141468420Y-101410000D01*
X141571580Y-101410000D01*
X141648707Y-101417597D01*
X141648707Y-101417597D01*
G37*
G36*
X139108707Y-101417597D02*
G01*
X139185836Y-101425193D01*
X139383762Y-101485233D01*
X139383765Y-101485234D01*
X139566170Y-101582732D01*
X139726055Y-101713945D01*
X139857268Y-101873830D01*
X139954766Y-102056235D01*
X139954767Y-102056238D01*
X140014807Y-102254164D01*
X140035080Y-102460000D01*
X140014807Y-102665836D01*
X139954767Y-102863762D01*
X139954766Y-102863765D01*
X139857268Y-103046170D01*
X139726055Y-103206055D01*
X139566170Y-103337268D01*
X139383765Y-103434766D01*
X139383762Y-103434767D01*
X139185836Y-103494807D01*
X139108707Y-103502404D01*
X139031580Y-103510000D01*
X138928420Y-103510000D01*
X138851293Y-103502404D01*
X138774164Y-103494807D01*
X138576238Y-103434767D01*
X138576235Y-103434766D01*
X138393830Y-103337268D01*
X138233945Y-103206055D01*
X138102732Y-103046170D01*
X138005234Y-102863765D01*
X138005233Y-102863762D01*
X137945193Y-102665836D01*
X137924920Y-102460000D01*
X137945193Y-102254164D01*
X138005233Y-102056238D01*
X138005234Y-102056235D01*
X138102732Y-101873830D01*
X138233945Y-101713945D01*
X138393830Y-101582732D01*
X138576235Y-101485234D01*
X138576238Y-101485233D01*
X138774164Y-101425193D01*
X138851293Y-101417597D01*
X138928420Y-101410000D01*
X139031580Y-101410000D01*
X139108707Y-101417597D01*
X139108707Y-101417597D01*
G37*
G36*
X136568707Y-101417597D02*
G01*
X136645836Y-101425193D01*
X136843762Y-101485233D01*
X136843765Y-101485234D01*
X137026170Y-101582732D01*
X137186055Y-101713945D01*
X137317268Y-101873830D01*
X137414766Y-102056235D01*
X137414767Y-102056238D01*
X137474807Y-102254164D01*
X137495080Y-102460000D01*
X137474807Y-102665836D01*
X137414767Y-102863762D01*
X137414766Y-102863765D01*
X137317268Y-103046170D01*
X137186055Y-103206055D01*
X137026170Y-103337268D01*
X136843765Y-103434766D01*
X136843762Y-103434767D01*
X136645836Y-103494807D01*
X136568707Y-103502404D01*
X136491580Y-103510000D01*
X136388420Y-103510000D01*
X136311293Y-103502404D01*
X136234164Y-103494807D01*
X136036238Y-103434767D01*
X136036235Y-103434766D01*
X135853830Y-103337268D01*
X135693945Y-103206055D01*
X135562732Y-103046170D01*
X135465234Y-102863765D01*
X135465233Y-102863762D01*
X135405193Y-102665836D01*
X135384920Y-102460000D01*
X135405193Y-102254164D01*
X135465233Y-102056238D01*
X135465234Y-102056235D01*
X135562732Y-101873830D01*
X135693945Y-101713945D01*
X135853830Y-101582732D01*
X136036235Y-101485234D01*
X136036238Y-101485233D01*
X136234164Y-101425193D01*
X136311293Y-101417597D01*
X136388420Y-101410000D01*
X136491580Y-101410000D01*
X136568707Y-101417597D01*
X136568707Y-101417597D01*
G37*
G36*
X131488707Y-101417597D02*
G01*
X131565836Y-101425193D01*
X131763762Y-101485233D01*
X131763765Y-101485234D01*
X131946170Y-101582732D01*
X132106055Y-101713945D01*
X132237268Y-101873830D01*
X132334766Y-102056235D01*
X132334767Y-102056238D01*
X132394807Y-102254164D01*
X132415080Y-102460000D01*
X132394807Y-102665836D01*
X132334767Y-102863762D01*
X132334766Y-102863765D01*
X132237268Y-103046170D01*
X132106055Y-103206055D01*
X131946170Y-103337268D01*
X131763765Y-103434766D01*
X131763762Y-103434767D01*
X131565836Y-103494807D01*
X131488707Y-103502404D01*
X131411580Y-103510000D01*
X131308420Y-103510000D01*
X131231293Y-103502404D01*
X131154164Y-103494807D01*
X130956238Y-103434767D01*
X130956235Y-103434766D01*
X130773830Y-103337268D01*
X130613945Y-103206055D01*
X130482732Y-103046170D01*
X130385234Y-102863765D01*
X130385233Y-102863762D01*
X130325193Y-102665836D01*
X130304920Y-102460000D01*
X130325193Y-102254164D01*
X130385233Y-102056238D01*
X130385234Y-102056235D01*
X130482732Y-101873830D01*
X130613945Y-101713945D01*
X130773830Y-101582732D01*
X130956235Y-101485234D01*
X130956238Y-101485233D01*
X131154164Y-101425193D01*
X131231293Y-101417597D01*
X131308420Y-101410000D01*
X131411580Y-101410000D01*
X131488707Y-101417597D01*
X131488707Y-101417597D01*
G37*
G36*
X134028707Y-101417597D02*
G01*
X134105836Y-101425193D01*
X134303762Y-101485233D01*
X134303765Y-101485234D01*
X134486170Y-101582732D01*
X134646055Y-101713945D01*
X134777268Y-101873830D01*
X134874766Y-102056235D01*
X134874767Y-102056238D01*
X134934807Y-102254164D01*
X134955080Y-102460000D01*
X134934807Y-102665836D01*
X134874767Y-102863762D01*
X134874766Y-102863765D01*
X134777268Y-103046170D01*
X134646055Y-103206055D01*
X134486170Y-103337268D01*
X134303765Y-103434766D01*
X134303762Y-103434767D01*
X134105836Y-103494807D01*
X134028707Y-103502404D01*
X133951580Y-103510000D01*
X133848420Y-103510000D01*
X133771293Y-103502404D01*
X133694164Y-103494807D01*
X133496238Y-103434767D01*
X133496235Y-103434766D01*
X133313830Y-103337268D01*
X133153945Y-103206055D01*
X133022732Y-103046170D01*
X132925234Y-102863765D01*
X132925233Y-102863762D01*
X132865193Y-102665836D01*
X132844920Y-102460000D01*
X132865193Y-102254164D01*
X132925233Y-102056238D01*
X132925234Y-102056235D01*
X133022732Y-101873830D01*
X133153945Y-101713945D01*
X133313830Y-101582732D01*
X133496235Y-101485234D01*
X133496238Y-101485233D01*
X133694164Y-101425193D01*
X133771293Y-101417597D01*
X133848420Y-101410000D01*
X133951580Y-101410000D01*
X134028707Y-101417597D01*
X134028707Y-101417597D01*
G37*
M02*
