G04 #@! TF.GenerationSoftware,KiCad,Pcbnew,5.1.2-f72e74a~84~ubuntu18.04.1*
G04 #@! TF.CreationDate,2019-05-05T12:37:34+12:00*
G04 #@! TF.ProjectId,pi-hat,70692d68-6174-42e6-9b69-6361645f7063,rev?*
G04 #@! TF.SameCoordinates,Original*
G04 #@! TF.FileFunction,Copper,L2,Bot*
G04 #@! TF.FilePolarity,Positive*
%FSLAX46Y46*%
G04 Gerber Fmt 4.6, Leading zero omitted, Abs format (unit mm)*
G04 Created by KiCad (PCBNEW 5.1.2-f72e74a~84~ubuntu18.04.1) date 2019-05-05 12:37:34*
%MOMM*%
%LPD*%
G04 APERTURE LIST*
%ADD10C,1.500000*%
%ADD11R,1.500000X1.500000*%
%ADD12C,3.000000*%
%ADD13R,3.500000X3.500000*%
%ADD14O,1.700000X1.700000*%
%ADD15R,1.700000X1.700000*%
%ADD16C,1.750000*%
%ADD17R,1.750000X1.750000*%
%ADD18C,1.520000*%
%ADD19C,2.700000*%
%ADD20R,1.600000X1.600000*%
%ADD21O,1.600000X1.600000*%
%ADD22C,6.000000*%
%ADD23R,1.700000X1.200000*%
%ADD24O,1.700000X1.200000*%
%ADD25C,1.600000*%
%ADD26C,0.800000*%
%ADD27C,0.600000*%
%ADD28C,1.000000*%
%ADD29C,0.250000*%
%ADD30C,0.254000*%
G04 APERTURE END LIST*
D10*
X148160000Y-160790000D03*
X148160000Y-163330000D03*
X148160000Y-165360000D03*
D11*
X148160000Y-167900000D03*
D12*
X150830000Y-157740000D03*
X150830000Y-171460000D03*
D13*
X159484000Y-124416000D03*
X162484000Y-129116000D03*
X156484000Y-129116000D03*
D14*
X156760000Y-102460000D03*
X156760000Y-105000000D03*
X154220000Y-102460000D03*
X154220000Y-105000000D03*
X151680000Y-102460000D03*
X151680000Y-105000000D03*
X149140000Y-102460000D03*
X149140000Y-105000000D03*
X146600000Y-102460000D03*
X146600000Y-105000000D03*
X144060000Y-102460000D03*
X144060000Y-105000000D03*
X141520000Y-102460000D03*
X141520000Y-105000000D03*
X138980000Y-102460000D03*
X138980000Y-105000000D03*
X136440000Y-102460000D03*
X136440000Y-105000000D03*
X133900000Y-102460000D03*
X133900000Y-105000000D03*
X131360000Y-102460000D03*
X131360000Y-105000000D03*
X128820000Y-102460000D03*
X128820000Y-105000000D03*
X126280000Y-102460000D03*
X126280000Y-105000000D03*
X123740000Y-102460000D03*
X123740000Y-105000000D03*
X121200000Y-102460000D03*
X121200000Y-105000000D03*
X118660000Y-102460000D03*
X118660000Y-105000000D03*
X116120000Y-102460000D03*
X116120000Y-105000000D03*
X113580000Y-102460000D03*
X113580000Y-105000000D03*
X111040000Y-102460000D03*
X111040000Y-105000000D03*
X108500000Y-102460000D03*
D15*
X108500000Y-105000000D03*
D16*
X130900000Y-110100000D03*
X130900000Y-112600000D03*
X130900000Y-115100000D03*
X130900000Y-117600000D03*
X130900000Y-120100000D03*
X130900000Y-122600000D03*
X130900000Y-125100000D03*
D17*
X130900000Y-127600000D03*
D16*
X130900000Y-147500000D03*
X130900000Y-150000000D03*
X130900000Y-152500000D03*
D17*
X130900000Y-155000000D03*
D18*
X156160000Y-142940000D03*
X156160000Y-140400000D03*
X158160000Y-140400000D03*
X158160000Y-142940000D03*
D19*
X160860000Y-147670000D03*
X160860000Y-135670000D03*
D20*
X120000000Y-123300000D03*
D21*
X112380000Y-115680000D03*
X120000000Y-120760000D03*
X112380000Y-118220000D03*
X120000000Y-118220000D03*
X112380000Y-120760000D03*
X120000000Y-115680000D03*
X112380000Y-123300000D03*
D22*
X103660000Y-152650000D03*
X161660000Y-152650000D03*
D23*
X130900000Y-140250000D03*
D24*
X130900000Y-138250000D03*
X130900000Y-136250000D03*
X130900000Y-134250000D03*
D17*
X160500000Y-114750000D03*
D16*
X160500000Y-117250000D03*
D20*
X143000000Y-127000000D03*
D25*
X143000000Y-130500000D03*
D26*
X136600000Y-148900000D03*
X136600000Y-142700000D03*
X155800000Y-109050000D03*
X152050000Y-107000000D03*
X116700000Y-133800000D03*
X124800000Y-132200000D03*
X113700000Y-127500000D03*
X116900000Y-126300000D03*
X125000000Y-112300000D03*
X125800000Y-148500000D03*
X122400000Y-150900000D03*
X124800000Y-155800000D03*
X117000000Y-141700000D03*
X148100000Y-111100000D03*
X151000000Y-113400000D03*
D27*
X138900000Y-155150000D03*
X143750000Y-172250000D03*
X125160000Y-120650000D03*
D26*
X108750000Y-158250000D03*
D27*
X147500000Y-126250000D03*
D26*
X109800000Y-119849998D03*
X121300000Y-100300000D03*
D27*
X127400000Y-109600000D03*
X127400000Y-112500000D03*
D26*
X133100000Y-119600000D03*
X133100000Y-115200000D03*
X150762347Y-107937653D03*
X154700000Y-107500000D03*
D27*
X144955568Y-150648229D03*
X144947279Y-151291518D03*
X150916278Y-151291518D03*
X149963779Y-151291518D03*
X149011279Y-151291518D03*
X144947279Y-152782938D03*
X144955569Y-153426228D03*
X149011279Y-152782938D03*
X149963779Y-152782938D03*
X150916278Y-152782938D03*
X113900000Y-149000000D03*
X111000000Y-155250000D03*
D26*
X114700000Y-124700000D03*
D27*
X113250000Y-154750000D03*
X118750000Y-152500000D03*
X128000000Y-145000000D03*
X123250000Y-112500000D03*
X123250000Y-110000000D03*
X128000000Y-143250000D03*
X125750000Y-125500000D03*
X125750000Y-128499996D03*
X117900000Y-153800000D03*
X111500000Y-153750000D03*
D26*
X137800000Y-150400000D03*
X135100000Y-142900000D03*
X115600000Y-121400000D03*
X116900000Y-122700000D03*
D28*
X136600000Y-148900000D02*
X136600000Y-142700000D01*
D29*
X111040000Y-114340000D02*
X112380000Y-115680000D01*
X111040000Y-105000000D02*
X111040000Y-114340000D01*
X111469998Y-119849998D02*
X112380000Y-120760000D01*
X109800000Y-119849998D02*
X111469998Y-119849998D01*
X125430001Y-104150001D02*
X126280000Y-105000000D01*
X124980000Y-103700000D02*
X125430001Y-104150001D01*
X122500000Y-103000000D02*
X123200000Y-103700000D01*
X121300000Y-100300000D02*
X122500000Y-101500000D01*
X123200000Y-103700000D02*
X124980000Y-103700000D01*
X122500000Y-101500000D02*
X122500000Y-103000000D01*
X127400000Y-109600000D02*
X127400000Y-112500000D01*
X133100000Y-119600000D02*
X133100000Y-115200000D01*
X154262347Y-107937653D02*
X154700000Y-107500000D01*
X150762347Y-107937653D02*
X154262347Y-107937653D01*
D28*
X144947279Y-151291518D02*
X149011279Y-151291518D01*
X144947279Y-150656518D02*
X144955568Y-150648229D01*
X144947279Y-151291518D02*
X144947279Y-150656518D01*
X149963779Y-151291518D02*
X150916278Y-151291518D01*
X149011279Y-151291518D02*
X149963779Y-151291518D01*
X144947279Y-152782938D02*
X149011279Y-152782938D01*
X144947279Y-153417938D02*
X144955569Y-153426228D01*
X144947279Y-152782938D02*
X144947279Y-153417938D01*
X149011279Y-152782938D02*
X149963779Y-152782938D01*
X149963779Y-152782938D02*
X150916278Y-152782938D01*
D29*
X113600001Y-149299999D02*
X113900000Y-149000000D01*
X110700001Y-152199999D02*
X113600001Y-149299999D01*
X110700001Y-154950001D02*
X110700001Y-152199999D01*
X111000000Y-155250000D02*
X110700001Y-154950001D01*
X113300000Y-123300000D02*
X112380000Y-123300000D01*
X114700000Y-124700000D02*
X113300000Y-123300000D01*
X113350000Y-154650000D02*
X113250000Y-154750000D01*
X118500000Y-154650000D02*
X113350000Y-154650000D01*
X118500000Y-154650000D02*
X118600000Y-154650000D01*
X118600000Y-154650000D02*
X118750000Y-154500000D01*
X118750000Y-154500000D02*
X118750000Y-152500000D01*
X123250000Y-112500000D02*
X123250000Y-110000000D01*
X128000000Y-145000000D02*
X128000000Y-143250000D01*
X125750000Y-125500000D02*
X125750000Y-128499996D01*
X111550000Y-153800000D02*
X111500000Y-153750000D01*
X117900000Y-153800000D02*
X111550000Y-153800000D01*
X137700000Y-150500000D02*
X137800000Y-150400000D01*
X136750000Y-150500000D02*
X137700000Y-150500000D01*
X135100000Y-142900000D02*
X135100000Y-148850000D01*
X135100000Y-148850000D02*
X136750000Y-150500000D01*
X115600000Y-121400000D02*
X116900000Y-122700000D01*
D30*
G36*
X120382795Y-99809744D02*
G01*
X120304774Y-99998102D01*
X120265000Y-100198061D01*
X120265000Y-100401939D01*
X120304774Y-100601898D01*
X120382795Y-100790256D01*
X120496063Y-100959774D01*
X120621618Y-101085329D01*
X120370986Y-101219294D01*
X120144866Y-101404866D01*
X119959294Y-101630986D01*
X119930000Y-101685791D01*
X119900706Y-101630986D01*
X119715134Y-101404866D01*
X119489014Y-101219294D01*
X119231034Y-101081401D01*
X118951111Y-100996487D01*
X118732950Y-100975000D01*
X118587050Y-100975000D01*
X118368889Y-100996487D01*
X118088966Y-101081401D01*
X117830986Y-101219294D01*
X117604866Y-101404866D01*
X117419294Y-101630986D01*
X117390000Y-101685791D01*
X117360706Y-101630986D01*
X117175134Y-101404866D01*
X116949014Y-101219294D01*
X116691034Y-101081401D01*
X116411111Y-100996487D01*
X116192950Y-100975000D01*
X116047050Y-100975000D01*
X115828889Y-100996487D01*
X115548966Y-101081401D01*
X115290986Y-101219294D01*
X115064866Y-101404866D01*
X114879294Y-101630986D01*
X114844799Y-101695523D01*
X114775178Y-101578645D01*
X114580269Y-101362412D01*
X114346920Y-101188359D01*
X114084099Y-101063175D01*
X113936890Y-101018524D01*
X113707000Y-101139845D01*
X113707000Y-102333000D01*
X113727000Y-102333000D01*
X113727000Y-102587000D01*
X113707000Y-102587000D01*
X113707000Y-102607000D01*
X113453000Y-102607000D01*
X113453000Y-102587000D01*
X113433000Y-102587000D01*
X113433000Y-102333000D01*
X113453000Y-102333000D01*
X113453000Y-101139845D01*
X113223110Y-101018524D01*
X113075901Y-101063175D01*
X112813080Y-101188359D01*
X112579731Y-101362412D01*
X112384822Y-101578645D01*
X112315201Y-101695523D01*
X112280706Y-101630986D01*
X112095134Y-101404866D01*
X111869014Y-101219294D01*
X111611034Y-101081401D01*
X111331111Y-100996487D01*
X111112950Y-100975000D01*
X110967050Y-100975000D01*
X110748889Y-100996487D01*
X110468966Y-101081401D01*
X110210986Y-101219294D01*
X109984866Y-101404866D01*
X109799294Y-101630986D01*
X109770000Y-101685791D01*
X109740706Y-101630986D01*
X109555134Y-101404866D01*
X109329014Y-101219294D01*
X109071034Y-101081401D01*
X108791111Y-100996487D01*
X108572950Y-100975000D01*
X108427050Y-100975000D01*
X108208889Y-100996487D01*
X107928966Y-101081401D01*
X107670986Y-101219294D01*
X107444866Y-101404866D01*
X107259294Y-101630986D01*
X107121401Y-101888966D01*
X107036487Y-102168889D01*
X107007815Y-102460000D01*
X107036487Y-102751111D01*
X107121401Y-103031034D01*
X107259294Y-103289014D01*
X107444866Y-103515134D01*
X107474687Y-103539607D01*
X107405820Y-103560498D01*
X107295506Y-103619463D01*
X107198815Y-103698815D01*
X107119463Y-103795506D01*
X107060498Y-103905820D01*
X107024188Y-104025518D01*
X107011928Y-104150000D01*
X107011928Y-105850000D01*
X107024188Y-105974482D01*
X107060498Y-106094180D01*
X107119463Y-106204494D01*
X107198815Y-106301185D01*
X107295506Y-106380537D01*
X107405820Y-106439502D01*
X107525518Y-106475812D01*
X107650000Y-106488072D01*
X109350000Y-106488072D01*
X109474482Y-106475812D01*
X109594180Y-106439502D01*
X109704494Y-106380537D01*
X109801185Y-106301185D01*
X109880537Y-106204494D01*
X109939502Y-106094180D01*
X109960393Y-106025313D01*
X109984866Y-106055134D01*
X110210986Y-106240706D01*
X110280000Y-106277595D01*
X110280001Y-114302668D01*
X110276324Y-114340000D01*
X110290998Y-114488985D01*
X110334454Y-114632246D01*
X110405026Y-114764276D01*
X110476201Y-114851002D01*
X110500000Y-114880001D01*
X110528998Y-114903799D01*
X110979292Y-115354094D01*
X110965764Y-115398691D01*
X110938057Y-115680000D01*
X110965764Y-115961309D01*
X111047818Y-116231808D01*
X111181068Y-116481101D01*
X111360392Y-116699608D01*
X111578899Y-116878932D01*
X111711858Y-116950000D01*
X111578899Y-117021068D01*
X111360392Y-117200392D01*
X111181068Y-117418899D01*
X111047818Y-117668192D01*
X110965764Y-117938691D01*
X110938057Y-118220000D01*
X110965764Y-118501309D01*
X111047818Y-118771808D01*
X111181068Y-119021101D01*
X111237610Y-119089998D01*
X110503711Y-119089998D01*
X110459774Y-119046061D01*
X110290256Y-118932793D01*
X110101898Y-118854772D01*
X109901939Y-118814998D01*
X109698061Y-118814998D01*
X109498102Y-118854772D01*
X109309744Y-118932793D01*
X109140226Y-119046061D01*
X108996063Y-119190224D01*
X108882795Y-119359742D01*
X108804774Y-119548100D01*
X108765000Y-119748059D01*
X108765000Y-119951937D01*
X108804774Y-120151896D01*
X108882795Y-120340254D01*
X108996063Y-120509772D01*
X109140226Y-120653935D01*
X109309744Y-120767203D01*
X109498102Y-120845224D01*
X109698061Y-120884998D01*
X109901939Y-120884998D01*
X110101898Y-120845224D01*
X110290256Y-120767203D01*
X110459774Y-120653935D01*
X110503711Y-120609998D01*
X110952831Y-120609998D01*
X110938057Y-120760000D01*
X110965764Y-121041309D01*
X111047818Y-121311808D01*
X111181068Y-121561101D01*
X111360392Y-121779608D01*
X111578899Y-121958932D01*
X111711858Y-122030000D01*
X111578899Y-122101068D01*
X111360392Y-122280392D01*
X111181068Y-122498899D01*
X111047818Y-122748192D01*
X110965764Y-123018691D01*
X110938057Y-123300000D01*
X110965764Y-123581309D01*
X111047818Y-123851808D01*
X111181068Y-124101101D01*
X111360392Y-124319608D01*
X111578899Y-124498932D01*
X111828192Y-124632182D01*
X112098691Y-124714236D01*
X112309508Y-124735000D01*
X112450492Y-124735000D01*
X112661309Y-124714236D01*
X112931808Y-124632182D01*
X113181101Y-124498932D01*
X113314584Y-124389385D01*
X113665000Y-124739802D01*
X113665000Y-124801939D01*
X113704774Y-125001898D01*
X113782795Y-125190256D01*
X113896063Y-125359774D01*
X114040226Y-125503937D01*
X114209744Y-125617205D01*
X114398102Y-125695226D01*
X114598061Y-125735000D01*
X114801939Y-125735000D01*
X115001898Y-125695226D01*
X115190256Y-125617205D01*
X115359774Y-125503937D01*
X115455800Y-125407911D01*
X124815000Y-125407911D01*
X124815000Y-125592089D01*
X124850932Y-125772729D01*
X124921414Y-125942889D01*
X124990000Y-126045536D01*
X124990001Y-127954459D01*
X124921414Y-128057107D01*
X124850932Y-128227267D01*
X124815000Y-128407907D01*
X124815000Y-128592085D01*
X124850932Y-128772725D01*
X124921414Y-128942885D01*
X125023738Y-129096024D01*
X125153972Y-129226258D01*
X125307111Y-129328582D01*
X125477271Y-129399064D01*
X125657911Y-129434996D01*
X125842089Y-129434996D01*
X126022729Y-129399064D01*
X126192889Y-129328582D01*
X126346028Y-129226258D01*
X126476262Y-129096024D01*
X126578586Y-128942885D01*
X126649068Y-128772725D01*
X126685000Y-128592085D01*
X126685000Y-128407907D01*
X126649068Y-128227267D01*
X126578586Y-128057107D01*
X126510000Y-127954461D01*
X126510000Y-126725000D01*
X129386928Y-126725000D01*
X129386928Y-128475000D01*
X129399188Y-128599482D01*
X129435498Y-128719180D01*
X129494463Y-128829494D01*
X129573815Y-128926185D01*
X129670506Y-129005537D01*
X129780820Y-129064502D01*
X129900518Y-129100812D01*
X130025000Y-129113072D01*
X131775000Y-129113072D01*
X131899482Y-129100812D01*
X132019180Y-129064502D01*
X132129494Y-129005537D01*
X132226185Y-128926185D01*
X132305537Y-128829494D01*
X132364502Y-128719180D01*
X132400812Y-128599482D01*
X132413072Y-128475000D01*
X132413072Y-126725000D01*
X132400812Y-126600518D01*
X132364502Y-126480820D01*
X132305537Y-126370506D01*
X132226185Y-126273815D01*
X132136241Y-126200000D01*
X141561928Y-126200000D01*
X141561928Y-127800000D01*
X141574188Y-127924482D01*
X141610498Y-128044180D01*
X141669463Y-128154494D01*
X141748815Y-128251185D01*
X141845506Y-128330537D01*
X141955820Y-128389502D01*
X142075518Y-128425812D01*
X142200000Y-128438072D01*
X143800000Y-128438072D01*
X143924482Y-128425812D01*
X144044180Y-128389502D01*
X144154494Y-128330537D01*
X144251185Y-128251185D01*
X144330537Y-128154494D01*
X144389502Y-128044180D01*
X144425812Y-127924482D01*
X144438072Y-127800000D01*
X144438072Y-127366000D01*
X154095928Y-127366000D01*
X154095928Y-130866000D01*
X154108188Y-130990482D01*
X154144498Y-131110180D01*
X154203463Y-131220494D01*
X154282815Y-131317185D01*
X154379506Y-131396537D01*
X154489820Y-131455502D01*
X154609518Y-131491812D01*
X154734000Y-131504072D01*
X158234000Y-131504072D01*
X158358482Y-131491812D01*
X158478180Y-131455502D01*
X158588494Y-131396537D01*
X158685185Y-131317185D01*
X158764537Y-131220494D01*
X158823502Y-131110180D01*
X158859812Y-130990482D01*
X158872072Y-130866000D01*
X160095928Y-130866000D01*
X160108188Y-130990482D01*
X160144498Y-131110180D01*
X160203463Y-131220494D01*
X160282815Y-131317185D01*
X160379506Y-131396537D01*
X160489820Y-131455502D01*
X160609518Y-131491812D01*
X160734000Y-131504072D01*
X162198250Y-131501000D01*
X162357000Y-131342250D01*
X162357000Y-129243000D01*
X160257750Y-129243000D01*
X160099000Y-129401750D01*
X160095928Y-130866000D01*
X158872072Y-130866000D01*
X158872072Y-127366000D01*
X158859812Y-127241518D01*
X158823502Y-127121820D01*
X158764537Y-127011506D01*
X158685185Y-126914815D01*
X158588494Y-126835463D01*
X158526655Y-126802409D01*
X159198250Y-126801000D01*
X159357000Y-126642250D01*
X159357000Y-124543000D01*
X159611000Y-124543000D01*
X159611000Y-126642250D01*
X159769750Y-126801000D01*
X160441345Y-126802409D01*
X160379506Y-126835463D01*
X160282815Y-126914815D01*
X160203463Y-127011506D01*
X160144498Y-127121820D01*
X160108188Y-127241518D01*
X160095928Y-127366000D01*
X160099000Y-128830250D01*
X160257750Y-128989000D01*
X162357000Y-128989000D01*
X162357000Y-126889750D01*
X162198250Y-126731000D01*
X161526655Y-126729591D01*
X161588494Y-126696537D01*
X161685185Y-126617185D01*
X161764537Y-126520494D01*
X161823502Y-126410180D01*
X161859812Y-126290482D01*
X161872072Y-126166000D01*
X161869000Y-124701750D01*
X161710250Y-124543000D01*
X159611000Y-124543000D01*
X159357000Y-124543000D01*
X157257750Y-124543000D01*
X157099000Y-124701750D01*
X157095928Y-126166000D01*
X157108188Y-126290482D01*
X157144498Y-126410180D01*
X157203463Y-126520494D01*
X157282815Y-126617185D01*
X157379506Y-126696537D01*
X157438233Y-126727928D01*
X154734000Y-126727928D01*
X154609518Y-126740188D01*
X154489820Y-126776498D01*
X154379506Y-126835463D01*
X154282815Y-126914815D01*
X154203463Y-127011506D01*
X154144498Y-127121820D01*
X154108188Y-127241518D01*
X154095928Y-127366000D01*
X144438072Y-127366000D01*
X144438072Y-126200000D01*
X144425812Y-126075518D01*
X144389502Y-125955820D01*
X144330537Y-125845506D01*
X144251185Y-125748815D01*
X144154494Y-125669463D01*
X144044180Y-125610498D01*
X143924482Y-125574188D01*
X143800000Y-125561928D01*
X142200000Y-125561928D01*
X142075518Y-125574188D01*
X141955820Y-125610498D01*
X141845506Y-125669463D01*
X141748815Y-125748815D01*
X141669463Y-125845506D01*
X141610498Y-125955820D01*
X141574188Y-126075518D01*
X141561928Y-126200000D01*
X132136241Y-126200000D01*
X132129494Y-126194463D01*
X132019180Y-126135498D01*
X132004436Y-126131026D01*
X132072893Y-126062569D01*
X132238144Y-125815253D01*
X132351971Y-125540451D01*
X132410000Y-125248722D01*
X132410000Y-124951278D01*
X132351971Y-124659549D01*
X132238144Y-124384747D01*
X132072893Y-124137431D01*
X131862569Y-123927107D01*
X131747170Y-123850000D01*
X131862569Y-123772893D01*
X132072893Y-123562569D01*
X132238144Y-123315253D01*
X132351971Y-123040451D01*
X132410000Y-122748722D01*
X132410000Y-122666000D01*
X157095928Y-122666000D01*
X157099000Y-124130250D01*
X157257750Y-124289000D01*
X159357000Y-124289000D01*
X159357000Y-122189750D01*
X159611000Y-122189750D01*
X159611000Y-124289000D01*
X161710250Y-124289000D01*
X161869000Y-124130250D01*
X161872072Y-122666000D01*
X161859812Y-122541518D01*
X161823502Y-122421820D01*
X161764537Y-122311506D01*
X161685185Y-122214815D01*
X161588494Y-122135463D01*
X161478180Y-122076498D01*
X161358482Y-122040188D01*
X161234000Y-122027928D01*
X159769750Y-122031000D01*
X159611000Y-122189750D01*
X159357000Y-122189750D01*
X159198250Y-122031000D01*
X157734000Y-122027928D01*
X157609518Y-122040188D01*
X157489820Y-122076498D01*
X157379506Y-122135463D01*
X157282815Y-122214815D01*
X157203463Y-122311506D01*
X157144498Y-122421820D01*
X157108188Y-122541518D01*
X157095928Y-122666000D01*
X132410000Y-122666000D01*
X132410000Y-122451278D01*
X132351971Y-122159549D01*
X132238144Y-121884747D01*
X132072893Y-121637431D01*
X131862569Y-121427107D01*
X131747170Y-121350000D01*
X131862569Y-121272893D01*
X132072893Y-121062569D01*
X132238144Y-120815253D01*
X132351971Y-120540451D01*
X132389263Y-120352974D01*
X132440226Y-120403937D01*
X132609744Y-120517205D01*
X132798102Y-120595226D01*
X132998061Y-120635000D01*
X133201939Y-120635000D01*
X133401898Y-120595226D01*
X133590256Y-120517205D01*
X133759774Y-120403937D01*
X133903937Y-120259774D01*
X134017205Y-120090256D01*
X134095226Y-119901898D01*
X134135000Y-119701939D01*
X134135000Y-119498061D01*
X134095226Y-119298102D01*
X134017205Y-119109744D01*
X133903937Y-118940226D01*
X133860000Y-118896289D01*
X133860000Y-115903711D01*
X133903937Y-115859774D01*
X134017205Y-115690256D01*
X134095226Y-115501898D01*
X134135000Y-115301939D01*
X134135000Y-115098061D01*
X134095226Y-114898102D01*
X134017205Y-114709744D01*
X133903937Y-114540226D01*
X133759774Y-114396063D01*
X133590256Y-114282795D01*
X133401898Y-114204774D01*
X133201939Y-114165000D01*
X132998061Y-114165000D01*
X132798102Y-114204774D01*
X132609744Y-114282795D01*
X132440226Y-114396063D01*
X132300647Y-114535642D01*
X132238144Y-114384747D01*
X132072893Y-114137431D01*
X131862569Y-113927107D01*
X131784586Y-113875000D01*
X158986928Y-113875000D01*
X158986928Y-115625000D01*
X158999188Y-115749482D01*
X159035498Y-115869180D01*
X159094463Y-115979494D01*
X159173815Y-116076185D01*
X159270506Y-116155537D01*
X159380820Y-116214502D01*
X159395564Y-116218974D01*
X159327107Y-116287431D01*
X159161856Y-116534747D01*
X159048029Y-116809549D01*
X158990000Y-117101278D01*
X158990000Y-117398722D01*
X159048029Y-117690451D01*
X159161856Y-117965253D01*
X159327107Y-118212569D01*
X159537431Y-118422893D01*
X159784747Y-118588144D01*
X160059549Y-118701971D01*
X160351278Y-118760000D01*
X160648722Y-118760000D01*
X160940451Y-118701971D01*
X161215253Y-118588144D01*
X161462569Y-118422893D01*
X161672893Y-118212569D01*
X161838144Y-117965253D01*
X161951971Y-117690451D01*
X162010000Y-117398722D01*
X162010000Y-117101278D01*
X161951971Y-116809549D01*
X161838144Y-116534747D01*
X161672893Y-116287431D01*
X161604436Y-116218974D01*
X161619180Y-116214502D01*
X161729494Y-116155537D01*
X161826185Y-116076185D01*
X161905537Y-115979494D01*
X161964502Y-115869180D01*
X162000812Y-115749482D01*
X162013072Y-115625000D01*
X162013072Y-113875000D01*
X162000812Y-113750518D01*
X161964502Y-113630820D01*
X161905537Y-113520506D01*
X161826185Y-113423815D01*
X161729494Y-113344463D01*
X161619180Y-113285498D01*
X161499482Y-113249188D01*
X161375000Y-113236928D01*
X159625000Y-113236928D01*
X159500518Y-113249188D01*
X159380820Y-113285498D01*
X159270506Y-113344463D01*
X159173815Y-113423815D01*
X159094463Y-113520506D01*
X159035498Y-113630820D01*
X158999188Y-113750518D01*
X158986928Y-113875000D01*
X131784586Y-113875000D01*
X131747170Y-113850000D01*
X131862569Y-113772893D01*
X132072893Y-113562569D01*
X132238144Y-113315253D01*
X132351971Y-113040451D01*
X132410000Y-112748722D01*
X132410000Y-112451278D01*
X132351971Y-112159549D01*
X132238144Y-111884747D01*
X132072893Y-111637431D01*
X131862569Y-111427107D01*
X131747170Y-111350000D01*
X131862569Y-111272893D01*
X132072893Y-111062569D01*
X132238144Y-110815253D01*
X132351971Y-110540451D01*
X132410000Y-110248722D01*
X132410000Y-109951278D01*
X132351971Y-109659549D01*
X132238144Y-109384747D01*
X132072893Y-109137431D01*
X131862569Y-108927107D01*
X131615253Y-108761856D01*
X131340451Y-108648029D01*
X131048722Y-108590000D01*
X130751278Y-108590000D01*
X130459549Y-108648029D01*
X130184747Y-108761856D01*
X129937431Y-108927107D01*
X129727107Y-109137431D01*
X129561856Y-109384747D01*
X129448029Y-109659549D01*
X129390000Y-109951278D01*
X129390000Y-110248722D01*
X129448029Y-110540451D01*
X129561856Y-110815253D01*
X129727107Y-111062569D01*
X129937431Y-111272893D01*
X130052830Y-111350000D01*
X129937431Y-111427107D01*
X129727107Y-111637431D01*
X129561856Y-111884747D01*
X129448029Y-112159549D01*
X129390000Y-112451278D01*
X129390000Y-112748722D01*
X129448029Y-113040451D01*
X129561856Y-113315253D01*
X129727107Y-113562569D01*
X129937431Y-113772893D01*
X130052830Y-113850000D01*
X129937431Y-113927107D01*
X129727107Y-114137431D01*
X129561856Y-114384747D01*
X129448029Y-114659549D01*
X129390000Y-114951278D01*
X129390000Y-115248722D01*
X129448029Y-115540451D01*
X129561856Y-115815253D01*
X129727107Y-116062569D01*
X129937431Y-116272893D01*
X130052830Y-116350000D01*
X129937431Y-116427107D01*
X129727107Y-116637431D01*
X129561856Y-116884747D01*
X129448029Y-117159549D01*
X129390000Y-117451278D01*
X129390000Y-117748722D01*
X129448029Y-118040451D01*
X129561856Y-118315253D01*
X129727107Y-118562569D01*
X129937431Y-118772893D01*
X130052830Y-118850000D01*
X129937431Y-118927107D01*
X129727107Y-119137431D01*
X129561856Y-119384747D01*
X129448029Y-119659549D01*
X129390000Y-119951278D01*
X129390000Y-120248722D01*
X129448029Y-120540451D01*
X129561856Y-120815253D01*
X129727107Y-121062569D01*
X129937431Y-121272893D01*
X130052830Y-121350000D01*
X129937431Y-121427107D01*
X129727107Y-121637431D01*
X129561856Y-121884747D01*
X129448029Y-122159549D01*
X129390000Y-122451278D01*
X129390000Y-122748722D01*
X129448029Y-123040451D01*
X129561856Y-123315253D01*
X129727107Y-123562569D01*
X129937431Y-123772893D01*
X130052830Y-123850000D01*
X129937431Y-123927107D01*
X129727107Y-124137431D01*
X129561856Y-124384747D01*
X129448029Y-124659549D01*
X129390000Y-124951278D01*
X129390000Y-125248722D01*
X129448029Y-125540451D01*
X129561856Y-125815253D01*
X129727107Y-126062569D01*
X129795564Y-126131026D01*
X129780820Y-126135498D01*
X129670506Y-126194463D01*
X129573815Y-126273815D01*
X129494463Y-126370506D01*
X129435498Y-126480820D01*
X129399188Y-126600518D01*
X129386928Y-126725000D01*
X126510000Y-126725000D01*
X126510000Y-126045535D01*
X126578586Y-125942889D01*
X126649068Y-125772729D01*
X126685000Y-125592089D01*
X126685000Y-125407911D01*
X126649068Y-125227271D01*
X126578586Y-125057111D01*
X126476262Y-124903972D01*
X126346028Y-124773738D01*
X126192889Y-124671414D01*
X126022729Y-124600932D01*
X125842089Y-124565000D01*
X125657911Y-124565000D01*
X125477271Y-124600932D01*
X125307111Y-124671414D01*
X125153972Y-124773738D01*
X125023738Y-124903972D01*
X124921414Y-125057111D01*
X124850932Y-125227271D01*
X124815000Y-125407911D01*
X115455800Y-125407911D01*
X115503937Y-125359774D01*
X115617205Y-125190256D01*
X115695226Y-125001898D01*
X115735000Y-124801939D01*
X115735000Y-124598061D01*
X115695226Y-124398102D01*
X115617205Y-124209744D01*
X115503937Y-124040226D01*
X115359774Y-123896063D01*
X115190256Y-123782795D01*
X115001898Y-123704774D01*
X114801939Y-123665000D01*
X114739802Y-123665000D01*
X113863804Y-122789003D01*
X113840001Y-122759999D01*
X113724276Y-122665026D01*
X113645111Y-122622711D01*
X113578932Y-122498899D01*
X113399608Y-122280392D01*
X113181101Y-122101068D01*
X113048142Y-122030000D01*
X113181101Y-121958932D01*
X113399608Y-121779608D01*
X113578932Y-121561101D01*
X113712182Y-121311808D01*
X113716352Y-121298061D01*
X114565000Y-121298061D01*
X114565000Y-121501939D01*
X114604774Y-121701898D01*
X114682795Y-121890256D01*
X114796063Y-122059774D01*
X114940226Y-122203937D01*
X115109744Y-122317205D01*
X115298102Y-122395226D01*
X115498061Y-122435000D01*
X115560199Y-122435000D01*
X115865000Y-122739802D01*
X115865000Y-122801939D01*
X115904774Y-123001898D01*
X115982795Y-123190256D01*
X116096063Y-123359774D01*
X116240226Y-123503937D01*
X116409744Y-123617205D01*
X116598102Y-123695226D01*
X116798061Y-123735000D01*
X117001939Y-123735000D01*
X117201898Y-123695226D01*
X117390256Y-123617205D01*
X117559774Y-123503937D01*
X117703937Y-123359774D01*
X117817205Y-123190256D01*
X117895226Y-123001898D01*
X117935000Y-122801939D01*
X117935000Y-122598061D01*
X117895226Y-122398102D01*
X117817205Y-122209744D01*
X117703937Y-122040226D01*
X117559774Y-121896063D01*
X117390256Y-121782795D01*
X117201898Y-121704774D01*
X117001939Y-121665000D01*
X116939802Y-121665000D01*
X116635000Y-121360199D01*
X116635000Y-121298061D01*
X116595226Y-121098102D01*
X116517205Y-120909744D01*
X116403937Y-120740226D01*
X116259774Y-120596063D01*
X116090256Y-120482795D01*
X115901898Y-120404774D01*
X115701939Y-120365000D01*
X115498061Y-120365000D01*
X115298102Y-120404774D01*
X115109744Y-120482795D01*
X114940226Y-120596063D01*
X114796063Y-120740226D01*
X114682795Y-120909744D01*
X114604774Y-121098102D01*
X114565000Y-121298061D01*
X113716352Y-121298061D01*
X113794236Y-121041309D01*
X113821943Y-120760000D01*
X113794236Y-120478691D01*
X113712182Y-120208192D01*
X113578932Y-119958899D01*
X113399608Y-119740392D01*
X113181101Y-119561068D01*
X113048142Y-119490000D01*
X113181101Y-119418932D01*
X113399608Y-119239608D01*
X113578932Y-119021101D01*
X113712182Y-118771808D01*
X113794236Y-118501309D01*
X113821943Y-118220000D01*
X118558057Y-118220000D01*
X118585764Y-118501309D01*
X118667818Y-118771808D01*
X118801068Y-119021101D01*
X118980392Y-119239608D01*
X119198899Y-119418932D01*
X119331858Y-119490000D01*
X119198899Y-119561068D01*
X118980392Y-119740392D01*
X118801068Y-119958899D01*
X118667818Y-120208192D01*
X118585764Y-120478691D01*
X118558057Y-120760000D01*
X118585764Y-121041309D01*
X118667818Y-121311808D01*
X118801068Y-121561101D01*
X118980392Y-121779608D01*
X119093482Y-121872419D01*
X119075518Y-121874188D01*
X118955820Y-121910498D01*
X118845506Y-121969463D01*
X118748815Y-122048815D01*
X118669463Y-122145506D01*
X118610498Y-122255820D01*
X118574188Y-122375518D01*
X118561928Y-122500000D01*
X118561928Y-124100000D01*
X118574188Y-124224482D01*
X118610498Y-124344180D01*
X118669463Y-124454494D01*
X118748815Y-124551185D01*
X118845506Y-124630537D01*
X118955820Y-124689502D01*
X119075518Y-124725812D01*
X119200000Y-124738072D01*
X120800000Y-124738072D01*
X120924482Y-124725812D01*
X121044180Y-124689502D01*
X121154494Y-124630537D01*
X121251185Y-124551185D01*
X121330537Y-124454494D01*
X121389502Y-124344180D01*
X121425812Y-124224482D01*
X121438072Y-124100000D01*
X121438072Y-122500000D01*
X121425812Y-122375518D01*
X121389502Y-122255820D01*
X121330537Y-122145506D01*
X121251185Y-122048815D01*
X121154494Y-121969463D01*
X121044180Y-121910498D01*
X120924482Y-121874188D01*
X120906518Y-121872419D01*
X121019608Y-121779608D01*
X121198932Y-121561101D01*
X121332182Y-121311808D01*
X121414236Y-121041309D01*
X121441943Y-120760000D01*
X121414236Y-120478691D01*
X121332182Y-120208192D01*
X121198932Y-119958899D01*
X121019608Y-119740392D01*
X120801101Y-119561068D01*
X120668142Y-119490000D01*
X120801101Y-119418932D01*
X121019608Y-119239608D01*
X121198932Y-119021101D01*
X121332182Y-118771808D01*
X121414236Y-118501309D01*
X121441943Y-118220000D01*
X121414236Y-117938691D01*
X121332182Y-117668192D01*
X121198932Y-117418899D01*
X121019608Y-117200392D01*
X120801101Y-117021068D01*
X120663318Y-116947421D01*
X120855131Y-116832385D01*
X121063519Y-116643414D01*
X121231037Y-116417420D01*
X121351246Y-116163087D01*
X121391904Y-116029039D01*
X121269915Y-115807000D01*
X120127000Y-115807000D01*
X120127000Y-115827000D01*
X119873000Y-115827000D01*
X119873000Y-115807000D01*
X118730085Y-115807000D01*
X118608096Y-116029039D01*
X118648754Y-116163087D01*
X118768963Y-116417420D01*
X118936481Y-116643414D01*
X119144869Y-116832385D01*
X119336682Y-116947421D01*
X119198899Y-117021068D01*
X118980392Y-117200392D01*
X118801068Y-117418899D01*
X118667818Y-117668192D01*
X118585764Y-117938691D01*
X118558057Y-118220000D01*
X113821943Y-118220000D01*
X113794236Y-117938691D01*
X113712182Y-117668192D01*
X113578932Y-117418899D01*
X113399608Y-117200392D01*
X113181101Y-117021068D01*
X113048142Y-116950000D01*
X113181101Y-116878932D01*
X113399608Y-116699608D01*
X113578932Y-116481101D01*
X113712182Y-116231808D01*
X113794236Y-115961309D01*
X113821943Y-115680000D01*
X113794236Y-115398691D01*
X113773691Y-115330961D01*
X118608096Y-115330961D01*
X118730085Y-115553000D01*
X119873000Y-115553000D01*
X119873000Y-114409376D01*
X120127000Y-114409376D01*
X120127000Y-115553000D01*
X121269915Y-115553000D01*
X121391904Y-115330961D01*
X121351246Y-115196913D01*
X121231037Y-114942580D01*
X121063519Y-114716586D01*
X120855131Y-114527615D01*
X120613881Y-114382930D01*
X120349040Y-114288091D01*
X120127000Y-114409376D01*
X119873000Y-114409376D01*
X119650960Y-114288091D01*
X119386119Y-114382930D01*
X119144869Y-114527615D01*
X118936481Y-114716586D01*
X118768963Y-114942580D01*
X118648754Y-115196913D01*
X118608096Y-115330961D01*
X113773691Y-115330961D01*
X113712182Y-115128192D01*
X113578932Y-114878899D01*
X113399608Y-114660392D01*
X113181101Y-114481068D01*
X112931808Y-114347818D01*
X112661309Y-114265764D01*
X112450492Y-114245000D01*
X112309508Y-114245000D01*
X112098691Y-114265764D01*
X112054094Y-114279292D01*
X111800000Y-114025199D01*
X111800000Y-109907911D01*
X122315000Y-109907911D01*
X122315000Y-110092089D01*
X122350932Y-110272729D01*
X122421414Y-110442889D01*
X122490001Y-110545537D01*
X122490000Y-111954464D01*
X122421414Y-112057111D01*
X122350932Y-112227271D01*
X122315000Y-112407911D01*
X122315000Y-112592089D01*
X122350932Y-112772729D01*
X122421414Y-112942889D01*
X122523738Y-113096028D01*
X122653972Y-113226262D01*
X122807111Y-113328586D01*
X122977271Y-113399068D01*
X123157911Y-113435000D01*
X123342089Y-113435000D01*
X123522729Y-113399068D01*
X123692889Y-113328586D01*
X123846028Y-113226262D01*
X123976262Y-113096028D01*
X124078586Y-112942889D01*
X124149068Y-112772729D01*
X124185000Y-112592089D01*
X124185000Y-112407911D01*
X124149068Y-112227271D01*
X124078586Y-112057111D01*
X124010000Y-111954465D01*
X124010000Y-110545535D01*
X124078586Y-110442889D01*
X124149068Y-110272729D01*
X124185000Y-110092089D01*
X124185000Y-109907911D01*
X124149068Y-109727271D01*
X124078586Y-109557111D01*
X124045712Y-109507911D01*
X126465000Y-109507911D01*
X126465000Y-109692089D01*
X126500932Y-109872729D01*
X126571414Y-110042889D01*
X126640000Y-110145536D01*
X126640001Y-111954463D01*
X126571414Y-112057111D01*
X126500932Y-112227271D01*
X126465000Y-112407911D01*
X126465000Y-112592089D01*
X126500932Y-112772729D01*
X126571414Y-112942889D01*
X126673738Y-113096028D01*
X126803972Y-113226262D01*
X126957111Y-113328586D01*
X127127271Y-113399068D01*
X127307911Y-113435000D01*
X127492089Y-113435000D01*
X127672729Y-113399068D01*
X127842889Y-113328586D01*
X127996028Y-113226262D01*
X128126262Y-113096028D01*
X128228586Y-112942889D01*
X128299068Y-112772729D01*
X128335000Y-112592089D01*
X128335000Y-112407911D01*
X128299068Y-112227271D01*
X128228586Y-112057111D01*
X128160000Y-111954465D01*
X128160000Y-110145535D01*
X128228586Y-110042889D01*
X128299068Y-109872729D01*
X128335000Y-109692089D01*
X128335000Y-109507911D01*
X128299068Y-109327271D01*
X128228586Y-109157111D01*
X128126262Y-109003972D01*
X127996028Y-108873738D01*
X127842889Y-108771414D01*
X127672729Y-108700932D01*
X127492089Y-108665000D01*
X127307911Y-108665000D01*
X127127271Y-108700932D01*
X126957111Y-108771414D01*
X126803972Y-108873738D01*
X126673738Y-109003972D01*
X126571414Y-109157111D01*
X126500932Y-109327271D01*
X126465000Y-109507911D01*
X124045712Y-109507911D01*
X123976262Y-109403972D01*
X123846028Y-109273738D01*
X123692889Y-109171414D01*
X123522729Y-109100932D01*
X123342089Y-109065000D01*
X123157911Y-109065000D01*
X122977271Y-109100932D01*
X122807111Y-109171414D01*
X122653972Y-109273738D01*
X122523738Y-109403972D01*
X122421414Y-109557111D01*
X122350932Y-109727271D01*
X122315000Y-109907911D01*
X111800000Y-109907911D01*
X111800000Y-107835714D01*
X149727347Y-107835714D01*
X149727347Y-108039592D01*
X149767121Y-108239551D01*
X149845142Y-108427909D01*
X149958410Y-108597427D01*
X150102573Y-108741590D01*
X150272091Y-108854858D01*
X150460449Y-108932879D01*
X150660408Y-108972653D01*
X150864286Y-108972653D01*
X151064245Y-108932879D01*
X151252603Y-108854858D01*
X151422121Y-108741590D01*
X151466058Y-108697653D01*
X154225025Y-108697653D01*
X154262347Y-108701329D01*
X154299669Y-108697653D01*
X154299680Y-108697653D01*
X154411333Y-108686656D01*
X154554594Y-108643199D01*
X154686623Y-108572627D01*
X154732472Y-108535000D01*
X154801939Y-108535000D01*
X155001898Y-108495226D01*
X155190256Y-108417205D01*
X155359774Y-108303937D01*
X155503937Y-108159774D01*
X155617205Y-107990256D01*
X155695226Y-107801898D01*
X155735000Y-107601939D01*
X155735000Y-107398061D01*
X155695226Y-107198102D01*
X155617205Y-107009744D01*
X155503937Y-106840226D01*
X155359774Y-106696063D01*
X155190256Y-106582795D01*
X155001898Y-106504774D01*
X154801939Y-106465000D01*
X154598061Y-106465000D01*
X154398102Y-106504774D01*
X154209744Y-106582795D01*
X154040226Y-106696063D01*
X153896063Y-106840226D01*
X153782795Y-107009744D01*
X153713244Y-107177653D01*
X151466058Y-107177653D01*
X151422121Y-107133716D01*
X151252603Y-107020448D01*
X151064245Y-106942427D01*
X150864286Y-106902653D01*
X150660408Y-106902653D01*
X150460449Y-106942427D01*
X150272091Y-107020448D01*
X150102573Y-107133716D01*
X149958410Y-107277879D01*
X149845142Y-107447397D01*
X149767121Y-107635755D01*
X149727347Y-107835714D01*
X111800000Y-107835714D01*
X111800000Y-106277595D01*
X111869014Y-106240706D01*
X112095134Y-106055134D01*
X112280706Y-105829014D01*
X112310000Y-105774209D01*
X112339294Y-105829014D01*
X112524866Y-106055134D01*
X112750986Y-106240706D01*
X113008966Y-106378599D01*
X113288889Y-106463513D01*
X113507050Y-106485000D01*
X113652950Y-106485000D01*
X113871111Y-106463513D01*
X114151034Y-106378599D01*
X114409014Y-106240706D01*
X114635134Y-106055134D01*
X114820706Y-105829014D01*
X114850000Y-105774209D01*
X114879294Y-105829014D01*
X115064866Y-106055134D01*
X115290986Y-106240706D01*
X115548966Y-106378599D01*
X115828889Y-106463513D01*
X116047050Y-106485000D01*
X116192950Y-106485000D01*
X116411111Y-106463513D01*
X116691034Y-106378599D01*
X116949014Y-106240706D01*
X117175134Y-106055134D01*
X117360706Y-105829014D01*
X117395201Y-105764477D01*
X117464822Y-105881355D01*
X117659731Y-106097588D01*
X117893080Y-106271641D01*
X118155901Y-106396825D01*
X118303110Y-106441476D01*
X118533000Y-106320155D01*
X118533000Y-105127000D01*
X118513000Y-105127000D01*
X118513000Y-104873000D01*
X118533000Y-104873000D01*
X118533000Y-104853000D01*
X118787000Y-104853000D01*
X118787000Y-104873000D01*
X118807000Y-104873000D01*
X118807000Y-105127000D01*
X118787000Y-105127000D01*
X118787000Y-106320155D01*
X119016890Y-106441476D01*
X119164099Y-106396825D01*
X119426920Y-106271641D01*
X119660269Y-106097588D01*
X119855178Y-105881355D01*
X119924799Y-105764477D01*
X119959294Y-105829014D01*
X120144866Y-106055134D01*
X120370986Y-106240706D01*
X120628966Y-106378599D01*
X120908889Y-106463513D01*
X121127050Y-106485000D01*
X121272950Y-106485000D01*
X121491111Y-106463513D01*
X121771034Y-106378599D01*
X122029014Y-106240706D01*
X122255134Y-106055134D01*
X122440706Y-105829014D01*
X122470000Y-105774209D01*
X122499294Y-105829014D01*
X122684866Y-106055134D01*
X122910986Y-106240706D01*
X123168966Y-106378599D01*
X123448889Y-106463513D01*
X123667050Y-106485000D01*
X123812950Y-106485000D01*
X124031111Y-106463513D01*
X124311034Y-106378599D01*
X124569014Y-106240706D01*
X124795134Y-106055134D01*
X124980706Y-105829014D01*
X125010000Y-105774209D01*
X125039294Y-105829014D01*
X125224866Y-106055134D01*
X125450986Y-106240706D01*
X125708966Y-106378599D01*
X125988889Y-106463513D01*
X126207050Y-106485000D01*
X126352950Y-106485000D01*
X126571111Y-106463513D01*
X126851034Y-106378599D01*
X127109014Y-106240706D01*
X127335134Y-106055134D01*
X127520706Y-105829014D01*
X127550000Y-105774209D01*
X127579294Y-105829014D01*
X127764866Y-106055134D01*
X127990986Y-106240706D01*
X128248966Y-106378599D01*
X128528889Y-106463513D01*
X128747050Y-106485000D01*
X128892950Y-106485000D01*
X129111111Y-106463513D01*
X129391034Y-106378599D01*
X129649014Y-106240706D01*
X129875134Y-106055134D01*
X130060706Y-105829014D01*
X130090000Y-105774209D01*
X130119294Y-105829014D01*
X130304866Y-106055134D01*
X130530986Y-106240706D01*
X130788966Y-106378599D01*
X131068889Y-106463513D01*
X131287050Y-106485000D01*
X131432950Y-106485000D01*
X131651111Y-106463513D01*
X131931034Y-106378599D01*
X132189014Y-106240706D01*
X132415134Y-106055134D01*
X132600706Y-105829014D01*
X132630000Y-105774209D01*
X132659294Y-105829014D01*
X132844866Y-106055134D01*
X133070986Y-106240706D01*
X133328966Y-106378599D01*
X133608889Y-106463513D01*
X133827050Y-106485000D01*
X133972950Y-106485000D01*
X134191111Y-106463513D01*
X134471034Y-106378599D01*
X134729014Y-106240706D01*
X134955134Y-106055134D01*
X135140706Y-105829014D01*
X135170000Y-105774209D01*
X135199294Y-105829014D01*
X135384866Y-106055134D01*
X135610986Y-106240706D01*
X135868966Y-106378599D01*
X136148889Y-106463513D01*
X136367050Y-106485000D01*
X136512950Y-106485000D01*
X136731111Y-106463513D01*
X137011034Y-106378599D01*
X137269014Y-106240706D01*
X137495134Y-106055134D01*
X137680706Y-105829014D01*
X137715201Y-105764477D01*
X137784822Y-105881355D01*
X137979731Y-106097588D01*
X138213080Y-106271641D01*
X138475901Y-106396825D01*
X138623110Y-106441476D01*
X138853000Y-106320155D01*
X138853000Y-105127000D01*
X138833000Y-105127000D01*
X138833000Y-104873000D01*
X138853000Y-104873000D01*
X138853000Y-104853000D01*
X139107000Y-104853000D01*
X139107000Y-104873000D01*
X139127000Y-104873000D01*
X139127000Y-105127000D01*
X139107000Y-105127000D01*
X139107000Y-106320155D01*
X139336890Y-106441476D01*
X139484099Y-106396825D01*
X139746920Y-106271641D01*
X139980269Y-106097588D01*
X140175178Y-105881355D01*
X140244799Y-105764477D01*
X140279294Y-105829014D01*
X140464866Y-106055134D01*
X140690986Y-106240706D01*
X140948966Y-106378599D01*
X141228889Y-106463513D01*
X141447050Y-106485000D01*
X141592950Y-106485000D01*
X141811111Y-106463513D01*
X142091034Y-106378599D01*
X142349014Y-106240706D01*
X142575134Y-106055134D01*
X142760706Y-105829014D01*
X142790000Y-105774209D01*
X142819294Y-105829014D01*
X143004866Y-106055134D01*
X143230986Y-106240706D01*
X143488966Y-106378599D01*
X143768889Y-106463513D01*
X143987050Y-106485000D01*
X144132950Y-106485000D01*
X144351111Y-106463513D01*
X144631034Y-106378599D01*
X144889014Y-106240706D01*
X145115134Y-106055134D01*
X145300706Y-105829014D01*
X145330000Y-105774209D01*
X145359294Y-105829014D01*
X145544866Y-106055134D01*
X145770986Y-106240706D01*
X146028966Y-106378599D01*
X146308889Y-106463513D01*
X146527050Y-106485000D01*
X146672950Y-106485000D01*
X146891111Y-106463513D01*
X147171034Y-106378599D01*
X147429014Y-106240706D01*
X147655134Y-106055134D01*
X147840706Y-105829014D01*
X147870000Y-105774209D01*
X147899294Y-105829014D01*
X148084866Y-106055134D01*
X148310986Y-106240706D01*
X148568966Y-106378599D01*
X148848889Y-106463513D01*
X149067050Y-106485000D01*
X149212950Y-106485000D01*
X149431111Y-106463513D01*
X149711034Y-106378599D01*
X149969014Y-106240706D01*
X150195134Y-106055134D01*
X150380706Y-105829014D01*
X150410000Y-105774209D01*
X150439294Y-105829014D01*
X150624866Y-106055134D01*
X150850986Y-106240706D01*
X151108966Y-106378599D01*
X151388889Y-106463513D01*
X151607050Y-106485000D01*
X151752950Y-106485000D01*
X151971111Y-106463513D01*
X152251034Y-106378599D01*
X152509014Y-106240706D01*
X152735134Y-106055134D01*
X152920706Y-105829014D01*
X152950000Y-105774209D01*
X152979294Y-105829014D01*
X153164866Y-106055134D01*
X153390986Y-106240706D01*
X153648966Y-106378599D01*
X153928889Y-106463513D01*
X154147050Y-106485000D01*
X154292950Y-106485000D01*
X154511111Y-106463513D01*
X154791034Y-106378599D01*
X155049014Y-106240706D01*
X155275134Y-106055134D01*
X155460706Y-105829014D01*
X155495201Y-105764477D01*
X155564822Y-105881355D01*
X155759731Y-106097588D01*
X155993080Y-106271641D01*
X156255901Y-106396825D01*
X156403110Y-106441476D01*
X156633000Y-106320155D01*
X156633000Y-105127000D01*
X156887000Y-105127000D01*
X156887000Y-106320155D01*
X157116890Y-106441476D01*
X157264099Y-106396825D01*
X157526920Y-106271641D01*
X157760269Y-106097588D01*
X157955178Y-105881355D01*
X158104157Y-105631252D01*
X158201481Y-105356891D01*
X158080814Y-105127000D01*
X156887000Y-105127000D01*
X156633000Y-105127000D01*
X156613000Y-105127000D01*
X156613000Y-104873000D01*
X156633000Y-104873000D01*
X156633000Y-104853000D01*
X156887000Y-104853000D01*
X156887000Y-104873000D01*
X158080814Y-104873000D01*
X158201481Y-104643109D01*
X158104157Y-104368748D01*
X157955178Y-104118645D01*
X157760269Y-103902412D01*
X157531244Y-103731584D01*
X157589014Y-103700706D01*
X157815134Y-103515134D01*
X158000706Y-103289014D01*
X158138599Y-103031034D01*
X158223513Y-102751111D01*
X158252185Y-102460000D01*
X158223513Y-102168889D01*
X158138599Y-101888966D01*
X158000706Y-101630986D01*
X157815134Y-101404866D01*
X157589014Y-101219294D01*
X157331034Y-101081401D01*
X157051111Y-100996487D01*
X156832950Y-100975000D01*
X156687050Y-100975000D01*
X156468889Y-100996487D01*
X156188966Y-101081401D01*
X155930986Y-101219294D01*
X155704866Y-101404866D01*
X155519294Y-101630986D01*
X155490000Y-101685791D01*
X155460706Y-101630986D01*
X155275134Y-101404866D01*
X155049014Y-101219294D01*
X154791034Y-101081401D01*
X154511111Y-100996487D01*
X154292950Y-100975000D01*
X154147050Y-100975000D01*
X153928889Y-100996487D01*
X153648966Y-101081401D01*
X153390986Y-101219294D01*
X153164866Y-101404866D01*
X152979294Y-101630986D01*
X152950000Y-101685791D01*
X152920706Y-101630986D01*
X152735134Y-101404866D01*
X152509014Y-101219294D01*
X152251034Y-101081401D01*
X151971111Y-100996487D01*
X151752950Y-100975000D01*
X151607050Y-100975000D01*
X151388889Y-100996487D01*
X151108966Y-101081401D01*
X150850986Y-101219294D01*
X150624866Y-101404866D01*
X150439294Y-101630986D01*
X150404799Y-101695523D01*
X150335178Y-101578645D01*
X150140269Y-101362412D01*
X149906920Y-101188359D01*
X149644099Y-101063175D01*
X149496890Y-101018524D01*
X149267000Y-101139845D01*
X149267000Y-102333000D01*
X149287000Y-102333000D01*
X149287000Y-102587000D01*
X149267000Y-102587000D01*
X149267000Y-102607000D01*
X149013000Y-102607000D01*
X149013000Y-102587000D01*
X148993000Y-102587000D01*
X148993000Y-102333000D01*
X149013000Y-102333000D01*
X149013000Y-101139845D01*
X148783110Y-101018524D01*
X148635901Y-101063175D01*
X148373080Y-101188359D01*
X148139731Y-101362412D01*
X147944822Y-101578645D01*
X147875201Y-101695523D01*
X147840706Y-101630986D01*
X147655134Y-101404866D01*
X147429014Y-101219294D01*
X147171034Y-101081401D01*
X146891111Y-100996487D01*
X146672950Y-100975000D01*
X146527050Y-100975000D01*
X146308889Y-100996487D01*
X146028966Y-101081401D01*
X145770986Y-101219294D01*
X145544866Y-101404866D01*
X145359294Y-101630986D01*
X145324799Y-101695523D01*
X145255178Y-101578645D01*
X145060269Y-101362412D01*
X144826920Y-101188359D01*
X144564099Y-101063175D01*
X144416890Y-101018524D01*
X144187000Y-101139845D01*
X144187000Y-102333000D01*
X144207000Y-102333000D01*
X144207000Y-102587000D01*
X144187000Y-102587000D01*
X144187000Y-102607000D01*
X143933000Y-102607000D01*
X143933000Y-102587000D01*
X143913000Y-102587000D01*
X143913000Y-102333000D01*
X143933000Y-102333000D01*
X143933000Y-101139845D01*
X143703110Y-101018524D01*
X143555901Y-101063175D01*
X143293080Y-101188359D01*
X143059731Y-101362412D01*
X142864822Y-101578645D01*
X142795201Y-101695523D01*
X142760706Y-101630986D01*
X142575134Y-101404866D01*
X142349014Y-101219294D01*
X142091034Y-101081401D01*
X141811111Y-100996487D01*
X141592950Y-100975000D01*
X141447050Y-100975000D01*
X141228889Y-100996487D01*
X140948966Y-101081401D01*
X140690986Y-101219294D01*
X140464866Y-101404866D01*
X140279294Y-101630986D01*
X140250000Y-101685791D01*
X140220706Y-101630986D01*
X140035134Y-101404866D01*
X139809014Y-101219294D01*
X139551034Y-101081401D01*
X139271111Y-100996487D01*
X139052950Y-100975000D01*
X138907050Y-100975000D01*
X138688889Y-100996487D01*
X138408966Y-101081401D01*
X138150986Y-101219294D01*
X137924866Y-101404866D01*
X137739294Y-101630986D01*
X137710000Y-101685791D01*
X137680706Y-101630986D01*
X137495134Y-101404866D01*
X137269014Y-101219294D01*
X137011034Y-101081401D01*
X136731111Y-100996487D01*
X136512950Y-100975000D01*
X136367050Y-100975000D01*
X136148889Y-100996487D01*
X135868966Y-101081401D01*
X135610986Y-101219294D01*
X135384866Y-101404866D01*
X135199294Y-101630986D01*
X135170000Y-101685791D01*
X135140706Y-101630986D01*
X134955134Y-101404866D01*
X134729014Y-101219294D01*
X134471034Y-101081401D01*
X134191111Y-100996487D01*
X133972950Y-100975000D01*
X133827050Y-100975000D01*
X133608889Y-100996487D01*
X133328966Y-101081401D01*
X133070986Y-101219294D01*
X132844866Y-101404866D01*
X132659294Y-101630986D01*
X132624799Y-101695523D01*
X132555178Y-101578645D01*
X132360269Y-101362412D01*
X132126920Y-101188359D01*
X131864099Y-101063175D01*
X131716890Y-101018524D01*
X131487000Y-101139845D01*
X131487000Y-102333000D01*
X131507000Y-102333000D01*
X131507000Y-102587000D01*
X131487000Y-102587000D01*
X131487000Y-102607000D01*
X131233000Y-102607000D01*
X131233000Y-102587000D01*
X131213000Y-102587000D01*
X131213000Y-102333000D01*
X131233000Y-102333000D01*
X131233000Y-101139845D01*
X131003110Y-101018524D01*
X130855901Y-101063175D01*
X130593080Y-101188359D01*
X130359731Y-101362412D01*
X130164822Y-101578645D01*
X130095201Y-101695523D01*
X130060706Y-101630986D01*
X129875134Y-101404866D01*
X129649014Y-101219294D01*
X129391034Y-101081401D01*
X129111111Y-100996487D01*
X128892950Y-100975000D01*
X128747050Y-100975000D01*
X128528889Y-100996487D01*
X128248966Y-101081401D01*
X127990986Y-101219294D01*
X127764866Y-101404866D01*
X127579294Y-101630986D01*
X127550000Y-101685791D01*
X127520706Y-101630986D01*
X127335134Y-101404866D01*
X127109014Y-101219294D01*
X126851034Y-101081401D01*
X126571111Y-100996487D01*
X126352950Y-100975000D01*
X126207050Y-100975000D01*
X125988889Y-100996487D01*
X125708966Y-101081401D01*
X125450986Y-101219294D01*
X125224866Y-101404866D01*
X125039294Y-101630986D01*
X125004799Y-101695523D01*
X124935178Y-101578645D01*
X124740269Y-101362412D01*
X124506920Y-101188359D01*
X124244099Y-101063175D01*
X124096890Y-101018524D01*
X123867000Y-101139845D01*
X123867000Y-102333000D01*
X123887000Y-102333000D01*
X123887000Y-102587000D01*
X123867000Y-102587000D01*
X123867000Y-102607000D01*
X123613000Y-102607000D01*
X123613000Y-102587000D01*
X123593000Y-102587000D01*
X123593000Y-102333000D01*
X123613000Y-102333000D01*
X123613000Y-101139845D01*
X123383110Y-101018524D01*
X123235901Y-101063175D01*
X123150109Y-101104039D01*
X123134974Y-101075724D01*
X123040001Y-100959999D01*
X123011004Y-100936202D01*
X122335000Y-100260199D01*
X122335000Y-100198061D01*
X122295226Y-99998102D01*
X122217205Y-99809744D01*
X122150558Y-99710000D01*
X161965279Y-99710000D01*
X162444134Y-99756953D01*
X162871355Y-99885938D01*
X163265384Y-100095446D01*
X163611214Y-100377499D01*
X163895673Y-100721351D01*
X164107929Y-101113910D01*
X164239892Y-101540213D01*
X164290000Y-102016964D01*
X164290000Y-126733443D01*
X164234000Y-126727928D01*
X162769750Y-126731000D01*
X162611000Y-126889750D01*
X162611000Y-128989000D01*
X162631000Y-128989000D01*
X162631000Y-129243000D01*
X162611000Y-129243000D01*
X162611000Y-131342250D01*
X162769750Y-131501000D01*
X164234000Y-131504072D01*
X164290000Y-131498557D01*
X164290001Y-150139335D01*
X163977177Y-149826511D01*
X163381818Y-149428705D01*
X162720290Y-149154691D01*
X162282349Y-149067579D01*
X162359768Y-148990160D01*
X162244840Y-148875232D01*
X162545044Y-148737276D01*
X162720882Y-148388033D01*
X162825207Y-148011196D01*
X162854009Y-147621247D01*
X162806184Y-147233172D01*
X162683568Y-146861884D01*
X162545044Y-146602724D01*
X162244838Y-146464767D01*
X161039605Y-147670000D01*
X161053748Y-147684143D01*
X160874143Y-147863748D01*
X160860000Y-147849605D01*
X159654767Y-149054838D01*
X159792724Y-149355044D01*
X159938645Y-149428513D01*
X159938182Y-149428705D01*
X159342823Y-149826511D01*
X158836511Y-150332823D01*
X158438705Y-150928182D01*
X158164691Y-151589710D01*
X158025000Y-152291984D01*
X158025000Y-153008016D01*
X158164691Y-153710290D01*
X158438705Y-154371818D01*
X158836511Y-154967177D01*
X159342823Y-155473489D01*
X159938182Y-155871295D01*
X160599710Y-156145309D01*
X161301984Y-156285000D01*
X162018016Y-156285000D01*
X162720290Y-156145309D01*
X163381818Y-155871295D01*
X163977177Y-155473489D01*
X164290001Y-155160665D01*
X164290001Y-170465269D01*
X164243048Y-170944133D01*
X164114063Y-171371353D01*
X163904554Y-171765384D01*
X163622501Y-172111214D01*
X163278651Y-172395672D01*
X162886093Y-172607927D01*
X162459788Y-172739891D01*
X161983036Y-172790000D01*
X152509065Y-172790000D01*
X152722012Y-172471302D01*
X152882953Y-172082756D01*
X152965000Y-171670279D01*
X152965000Y-171249721D01*
X152882953Y-170837244D01*
X152722012Y-170448698D01*
X152488363Y-170099017D01*
X152190983Y-169801637D01*
X151841302Y-169567988D01*
X151452756Y-169407047D01*
X151040279Y-169325000D01*
X150619721Y-169325000D01*
X150207244Y-169407047D01*
X149818698Y-169567988D01*
X149469017Y-169801637D01*
X149171637Y-170099017D01*
X148937988Y-170448698D01*
X148777047Y-170837244D01*
X148695000Y-171249721D01*
X148695000Y-171670279D01*
X148777047Y-172082756D01*
X148937988Y-172471302D01*
X149150935Y-172790000D01*
X103034721Y-172790000D01*
X102555867Y-172743048D01*
X102128647Y-172614063D01*
X101734616Y-172404554D01*
X101388786Y-172122501D01*
X101104328Y-171778651D01*
X100892073Y-171386093D01*
X100760109Y-170959788D01*
X100710000Y-170483036D01*
X100710000Y-166943439D01*
X107215000Y-166943439D01*
X107215000Y-167196561D01*
X107264381Y-167444821D01*
X107361247Y-167678676D01*
X107501875Y-167889140D01*
X107680860Y-168068125D01*
X107891324Y-168208753D01*
X108125179Y-168305619D01*
X108373439Y-168355000D01*
X108626561Y-168355000D01*
X108874821Y-168305619D01*
X109108676Y-168208753D01*
X109319140Y-168068125D01*
X109498125Y-167889140D01*
X109638753Y-167678676D01*
X109735619Y-167444821D01*
X109785000Y-167196561D01*
X109785000Y-167150000D01*
X146771928Y-167150000D01*
X146771928Y-168650000D01*
X146784188Y-168774482D01*
X146820498Y-168894180D01*
X146879463Y-169004494D01*
X146958815Y-169101185D01*
X147055506Y-169180537D01*
X147165820Y-169239502D01*
X147285518Y-169275812D01*
X147410000Y-169288072D01*
X148910000Y-169288072D01*
X149034482Y-169275812D01*
X149154180Y-169239502D01*
X149264494Y-169180537D01*
X149361185Y-169101185D01*
X149440537Y-169004494D01*
X149499502Y-168894180D01*
X149535812Y-168774482D01*
X149548072Y-168650000D01*
X149548072Y-167150000D01*
X149535812Y-167025518D01*
X149499502Y-166905820D01*
X149440537Y-166795506D01*
X149361185Y-166698815D01*
X149264494Y-166619463D01*
X149154180Y-166560498D01*
X149034482Y-166524188D01*
X148926517Y-166513555D01*
X149042886Y-166435799D01*
X149235799Y-166242886D01*
X149387371Y-166016043D01*
X149491775Y-165763989D01*
X149545000Y-165496411D01*
X149545000Y-165223589D01*
X149491775Y-164956011D01*
X149387371Y-164703957D01*
X149235799Y-164477114D01*
X149103685Y-164345000D01*
X149235799Y-164212886D01*
X149387371Y-163986043D01*
X149491775Y-163733989D01*
X149545000Y-163466411D01*
X149545000Y-163193589D01*
X149491775Y-162926011D01*
X149387371Y-162673957D01*
X149235799Y-162447114D01*
X149042886Y-162254201D01*
X148816043Y-162102629D01*
X148713127Y-162060000D01*
X148816043Y-162017371D01*
X149042886Y-161865799D01*
X149235799Y-161672886D01*
X149387371Y-161446043D01*
X149491775Y-161193989D01*
X149545000Y-160926411D01*
X149545000Y-160653589D01*
X149491775Y-160386011D01*
X149387371Y-160133957D01*
X149235799Y-159907114D01*
X149042886Y-159714201D01*
X148816043Y-159562629D01*
X148563989Y-159458225D01*
X148296411Y-159405000D01*
X148023589Y-159405000D01*
X147756011Y-159458225D01*
X147503957Y-159562629D01*
X147277114Y-159714201D01*
X147084201Y-159907114D01*
X146932629Y-160133957D01*
X146828225Y-160386011D01*
X146775000Y-160653589D01*
X146775000Y-160926411D01*
X146828225Y-161193989D01*
X146932629Y-161446043D01*
X147084201Y-161672886D01*
X147277114Y-161865799D01*
X147503957Y-162017371D01*
X147606873Y-162060000D01*
X147503957Y-162102629D01*
X147277114Y-162254201D01*
X147084201Y-162447114D01*
X146932629Y-162673957D01*
X146828225Y-162926011D01*
X146775000Y-163193589D01*
X146775000Y-163466411D01*
X146828225Y-163733989D01*
X146932629Y-163986043D01*
X147084201Y-164212886D01*
X147216315Y-164345000D01*
X147084201Y-164477114D01*
X146932629Y-164703957D01*
X146828225Y-164956011D01*
X146775000Y-165223589D01*
X146775000Y-165496411D01*
X146828225Y-165763989D01*
X146932629Y-166016043D01*
X147084201Y-166242886D01*
X147277114Y-166435799D01*
X147393483Y-166513555D01*
X147285518Y-166524188D01*
X147165820Y-166560498D01*
X147055506Y-166619463D01*
X146958815Y-166698815D01*
X146879463Y-166795506D01*
X146820498Y-166905820D01*
X146784188Y-167025518D01*
X146771928Y-167150000D01*
X109785000Y-167150000D01*
X109785000Y-166943439D01*
X109735619Y-166695179D01*
X109638753Y-166461324D01*
X109498125Y-166250860D01*
X109319140Y-166071875D01*
X109108676Y-165931247D01*
X108874821Y-165834381D01*
X108626561Y-165785000D01*
X108373439Y-165785000D01*
X108125179Y-165834381D01*
X107891324Y-165931247D01*
X107680860Y-166071875D01*
X107501875Y-166250860D01*
X107361247Y-166461324D01*
X107264381Y-166695179D01*
X107215000Y-166943439D01*
X100710000Y-166943439D01*
X100710000Y-159458212D01*
X107365000Y-159458212D01*
X107365000Y-159681788D01*
X107408617Y-159901067D01*
X107494176Y-160107624D01*
X107618388Y-160293520D01*
X107776480Y-160451612D01*
X107962376Y-160575824D01*
X108168933Y-160661383D01*
X108388212Y-160705000D01*
X108611788Y-160705000D01*
X108831067Y-160661383D01*
X109037624Y-160575824D01*
X109223520Y-160451612D01*
X109381612Y-160293520D01*
X109505824Y-160107624D01*
X109591383Y-159901067D01*
X109635000Y-159681788D01*
X109635000Y-159458212D01*
X109591383Y-159238933D01*
X109505824Y-159032376D01*
X109381612Y-158846480D01*
X109223520Y-158688388D01*
X109037624Y-158564176D01*
X108831067Y-158478617D01*
X108611788Y-158435000D01*
X108388212Y-158435000D01*
X108168933Y-158478617D01*
X107962376Y-158564176D01*
X107776480Y-158688388D01*
X107618388Y-158846480D01*
X107494176Y-159032376D01*
X107408617Y-159238933D01*
X107365000Y-159458212D01*
X100710000Y-159458212D01*
X100710000Y-157529721D01*
X148695000Y-157529721D01*
X148695000Y-157950279D01*
X148777047Y-158362756D01*
X148937988Y-158751302D01*
X149171637Y-159100983D01*
X149469017Y-159398363D01*
X149818698Y-159632012D01*
X150207244Y-159792953D01*
X150619721Y-159875000D01*
X151040279Y-159875000D01*
X151452756Y-159792953D01*
X151841302Y-159632012D01*
X152190983Y-159398363D01*
X152488363Y-159100983D01*
X152722012Y-158751302D01*
X152882953Y-158362756D01*
X152965000Y-157950279D01*
X152965000Y-157529721D01*
X152882953Y-157117244D01*
X152722012Y-156728698D01*
X152488363Y-156379017D01*
X152190983Y-156081637D01*
X151841302Y-155847988D01*
X151452756Y-155687047D01*
X151040279Y-155605000D01*
X150619721Y-155605000D01*
X150207244Y-155687047D01*
X149818698Y-155847988D01*
X149469017Y-156081637D01*
X149171637Y-156379017D01*
X148937988Y-156728698D01*
X148777047Y-157117244D01*
X148695000Y-157529721D01*
X100710000Y-157529721D01*
X100710000Y-154777840D01*
X100836511Y-154967177D01*
X101342823Y-155473489D01*
X101938182Y-155871295D01*
X102599710Y-156145309D01*
X103301984Y-156285000D01*
X104018016Y-156285000D01*
X104720290Y-156145309D01*
X105381818Y-155871295D01*
X105977177Y-155473489D01*
X106483489Y-154967177D01*
X106881295Y-154371818D01*
X107155309Y-153710290D01*
X107295000Y-153008016D01*
X107295000Y-152291984D01*
X107276704Y-152199999D01*
X109936325Y-152199999D01*
X109940002Y-152237331D01*
X109940001Y-154912678D01*
X109936325Y-154950001D01*
X109940001Y-154987323D01*
X109940001Y-154987333D01*
X109950998Y-155098986D01*
X109973837Y-155174276D01*
X109994455Y-155242247D01*
X110065027Y-155374277D01*
X110073442Y-155384531D01*
X110100932Y-155522729D01*
X110171414Y-155692889D01*
X110273738Y-155846028D01*
X110403972Y-155976262D01*
X110557111Y-156078586D01*
X110727271Y-156149068D01*
X110907911Y-156185000D01*
X111092089Y-156185000D01*
X111272729Y-156149068D01*
X111442889Y-156078586D01*
X111596028Y-155976262D01*
X111726262Y-155846028D01*
X111828586Y-155692889D01*
X111899068Y-155522729D01*
X111935000Y-155342089D01*
X111935000Y-155157911D01*
X111899068Y-154977271D01*
X111828586Y-154807111D01*
X111728821Y-154657802D01*
X111772729Y-154649068D01*
X111942889Y-154578586D01*
X111970705Y-154560000D01*
X112334476Y-154560000D01*
X112315000Y-154657911D01*
X112315000Y-154842089D01*
X112350932Y-155022729D01*
X112421414Y-155192889D01*
X112523738Y-155346028D01*
X112653972Y-155476262D01*
X112807111Y-155578586D01*
X112977271Y-155649068D01*
X113157911Y-155685000D01*
X113342089Y-155685000D01*
X113522729Y-155649068D01*
X113692889Y-155578586D01*
X113846028Y-155476262D01*
X113912290Y-155410000D01*
X118562678Y-155410000D01*
X118600000Y-155413676D01*
X118637322Y-155410000D01*
X118637333Y-155410000D01*
X118748986Y-155399003D01*
X118892247Y-155355546D01*
X119024276Y-155284974D01*
X119140001Y-155190001D01*
X119163804Y-155160997D01*
X119260998Y-155063803D01*
X119290001Y-155040001D01*
X119384974Y-154924276D01*
X119455546Y-154792247D01*
X119499003Y-154648986D01*
X119510000Y-154537333D01*
X119510000Y-154537324D01*
X119513676Y-154500001D01*
X119510000Y-154462678D01*
X119510000Y-154125000D01*
X129386928Y-154125000D01*
X129386928Y-155875000D01*
X129399188Y-155999482D01*
X129435498Y-156119180D01*
X129494463Y-156229494D01*
X129573815Y-156326185D01*
X129670506Y-156405537D01*
X129780820Y-156464502D01*
X129900518Y-156500812D01*
X130025000Y-156513072D01*
X131775000Y-156513072D01*
X131899482Y-156500812D01*
X132019180Y-156464502D01*
X132129494Y-156405537D01*
X132226185Y-156326185D01*
X132305537Y-156229494D01*
X132364502Y-156119180D01*
X132400812Y-155999482D01*
X132413072Y-155875000D01*
X132413072Y-154125000D01*
X132400812Y-154000518D01*
X132364502Y-153880820D01*
X132305537Y-153770506D01*
X132226185Y-153673815D01*
X132129494Y-153594463D01*
X132019180Y-153535498D01*
X132004436Y-153531026D01*
X132072893Y-153462569D01*
X132238144Y-153215253D01*
X132351971Y-152940451D01*
X132410000Y-152648722D01*
X132410000Y-152351278D01*
X132351971Y-152059549D01*
X132238144Y-151784747D01*
X132072893Y-151537431D01*
X131862569Y-151327107D01*
X131747170Y-151250000D01*
X131862569Y-151172893D01*
X132072893Y-150962569D01*
X132238144Y-150715253D01*
X132351971Y-150440451D01*
X132410000Y-150148722D01*
X132410000Y-149851278D01*
X132351971Y-149559549D01*
X132238144Y-149284747D01*
X132072893Y-149037431D01*
X131862569Y-148827107D01*
X131747170Y-148750000D01*
X131862569Y-148672893D01*
X132072893Y-148462569D01*
X132238144Y-148215253D01*
X132351971Y-147940451D01*
X132410000Y-147648722D01*
X132410000Y-147351278D01*
X132351971Y-147059549D01*
X132238144Y-146784747D01*
X132072893Y-146537431D01*
X131862569Y-146327107D01*
X131615253Y-146161856D01*
X131340451Y-146048029D01*
X131048722Y-145990000D01*
X130751278Y-145990000D01*
X130459549Y-146048029D01*
X130184747Y-146161856D01*
X129937431Y-146327107D01*
X129727107Y-146537431D01*
X129561856Y-146784747D01*
X129448029Y-147059549D01*
X129390000Y-147351278D01*
X129390000Y-147648722D01*
X129448029Y-147940451D01*
X129561856Y-148215253D01*
X129727107Y-148462569D01*
X129937431Y-148672893D01*
X130052830Y-148750000D01*
X129937431Y-148827107D01*
X129727107Y-149037431D01*
X129561856Y-149284747D01*
X129448029Y-149559549D01*
X129390000Y-149851278D01*
X129390000Y-150148722D01*
X129448029Y-150440451D01*
X129561856Y-150715253D01*
X129727107Y-150962569D01*
X129937431Y-151172893D01*
X130052830Y-151250000D01*
X129937431Y-151327107D01*
X129727107Y-151537431D01*
X129561856Y-151784747D01*
X129448029Y-152059549D01*
X129390000Y-152351278D01*
X129390000Y-152648722D01*
X129448029Y-152940451D01*
X129561856Y-153215253D01*
X129727107Y-153462569D01*
X129795564Y-153531026D01*
X129780820Y-153535498D01*
X129670506Y-153594463D01*
X129573815Y-153673815D01*
X129494463Y-153770506D01*
X129435498Y-153880820D01*
X129399188Y-154000518D01*
X129386928Y-154125000D01*
X119510000Y-154125000D01*
X119510000Y-153045535D01*
X119578586Y-152942889D01*
X119649068Y-152772729D01*
X119685000Y-152592089D01*
X119685000Y-152407911D01*
X119649068Y-152227271D01*
X119578586Y-152057111D01*
X119476262Y-151903972D01*
X119346028Y-151773738D01*
X119192889Y-151671414D01*
X119022729Y-151600932D01*
X118842089Y-151565000D01*
X118657911Y-151565000D01*
X118477271Y-151600932D01*
X118307111Y-151671414D01*
X118153972Y-151773738D01*
X118023738Y-151903972D01*
X117921414Y-152057111D01*
X117850932Y-152227271D01*
X117815000Y-152407911D01*
X117815000Y-152592089D01*
X117850932Y-152772729D01*
X117889152Y-152865000D01*
X117807911Y-152865000D01*
X117627271Y-152900932D01*
X117457111Y-152971414D01*
X117354465Y-153040000D01*
X112112290Y-153040000D01*
X112096028Y-153023738D01*
X111942889Y-152921414D01*
X111772729Y-152850932D01*
X111592089Y-152815000D01*
X111460001Y-152815000D01*
X111460001Y-152514800D01*
X114051649Y-149923153D01*
X114172729Y-149899068D01*
X114342889Y-149828586D01*
X114496028Y-149726262D01*
X114626262Y-149596028D01*
X114728586Y-149442889D01*
X114799068Y-149272729D01*
X114835000Y-149092089D01*
X114835000Y-148907911D01*
X114799068Y-148727271D01*
X114728586Y-148557111D01*
X114626262Y-148403972D01*
X114496028Y-148273738D01*
X114342889Y-148171414D01*
X114172729Y-148100932D01*
X113992089Y-148065000D01*
X113807911Y-148065000D01*
X113627271Y-148100932D01*
X113457111Y-148171414D01*
X113303972Y-148273738D01*
X113173738Y-148403972D01*
X113071414Y-148557111D01*
X113000932Y-148727271D01*
X112976847Y-148848351D01*
X110188999Y-151636200D01*
X110160001Y-151659998D01*
X110136203Y-151688996D01*
X110136202Y-151688997D01*
X110065027Y-151775723D01*
X109994455Y-151907753D01*
X109950999Y-152051014D01*
X109936325Y-152199999D01*
X107276704Y-152199999D01*
X107155309Y-151589710D01*
X106881295Y-150928182D01*
X106483489Y-150332823D01*
X105977177Y-149826511D01*
X105381818Y-149428705D01*
X104720290Y-149154691D01*
X104018016Y-149015000D01*
X103301984Y-149015000D01*
X102599710Y-149154691D01*
X101938182Y-149428705D01*
X101342823Y-149826511D01*
X100836511Y-150332823D01*
X100710000Y-150522160D01*
X100710000Y-143157911D01*
X127065000Y-143157911D01*
X127065000Y-143342089D01*
X127100932Y-143522729D01*
X127171414Y-143692889D01*
X127240001Y-143795536D01*
X127240000Y-144454464D01*
X127171414Y-144557111D01*
X127100932Y-144727271D01*
X127065000Y-144907911D01*
X127065000Y-145092089D01*
X127100932Y-145272729D01*
X127171414Y-145442889D01*
X127273738Y-145596028D01*
X127403972Y-145726262D01*
X127557111Y-145828586D01*
X127727271Y-145899068D01*
X127907911Y-145935000D01*
X128092089Y-145935000D01*
X128272729Y-145899068D01*
X128442889Y-145828586D01*
X128596028Y-145726262D01*
X128726262Y-145596028D01*
X128828586Y-145442889D01*
X128899068Y-145272729D01*
X128935000Y-145092089D01*
X128935000Y-144907911D01*
X128899068Y-144727271D01*
X128828586Y-144557111D01*
X128760000Y-144454465D01*
X128760000Y-143795535D01*
X128828586Y-143692889D01*
X128899068Y-143522729D01*
X128935000Y-143342089D01*
X128935000Y-143157911D01*
X128899068Y-142977271D01*
X128828586Y-142807111D01*
X128822539Y-142798061D01*
X134065000Y-142798061D01*
X134065000Y-143001939D01*
X134104774Y-143201898D01*
X134182795Y-143390256D01*
X134296063Y-143559774D01*
X134340000Y-143603711D01*
X134340001Y-148812668D01*
X134336324Y-148850000D01*
X134340001Y-148887333D01*
X134350998Y-148998986D01*
X134354339Y-149010000D01*
X134394454Y-149142246D01*
X134465026Y-149274276D01*
X134536201Y-149361002D01*
X134560000Y-149390001D01*
X134588998Y-149413799D01*
X136186205Y-151011008D01*
X136209999Y-151040001D01*
X136238992Y-151063795D01*
X136238996Y-151063799D01*
X136309685Y-151121811D01*
X136325724Y-151134974D01*
X136457753Y-151205546D01*
X136601014Y-151249003D01*
X136712667Y-151260000D01*
X136712676Y-151260000D01*
X136749999Y-151263676D01*
X136787322Y-151260000D01*
X137224130Y-151260000D01*
X137309744Y-151317205D01*
X137498102Y-151395226D01*
X137698061Y-151435000D01*
X137901939Y-151435000D01*
X138101898Y-151395226D01*
X138290256Y-151317205D01*
X138459774Y-151203937D01*
X138603937Y-151059774D01*
X138717205Y-150890256D01*
X138795226Y-150701898D01*
X138804252Y-150656518D01*
X143806788Y-150656518D01*
X143812279Y-150712269D01*
X143812279Y-151235766D01*
X143806788Y-151291518D01*
X143828702Y-151514017D01*
X143893603Y-151727965D01*
X143989701Y-151907753D01*
X143998995Y-151925141D01*
X144090983Y-152037228D01*
X143998995Y-152149315D01*
X143893603Y-152346491D01*
X143828702Y-152560439D01*
X143806788Y-152782938D01*
X143812279Y-152838690D01*
X143812279Y-153362187D01*
X143806788Y-153417938D01*
X143812279Y-153473689D01*
X143812279Y-153473690D01*
X143828702Y-153640437D01*
X143893603Y-153854385D01*
X143998996Y-154051561D01*
X144140831Y-154224387D01*
X144184139Y-154259929D01*
X144192426Y-154268216D01*
X144321947Y-154374512D01*
X144519123Y-154479904D01*
X144733071Y-154544805D01*
X144955569Y-154566719D01*
X145178068Y-154544805D01*
X145392015Y-154479904D01*
X145589191Y-154374512D01*
X145762018Y-154232677D01*
X145903853Y-154059850D01*
X145979706Y-153917938D01*
X150972030Y-153917938D01*
X151138777Y-153901515D01*
X151352725Y-153836614D01*
X151549901Y-153731222D01*
X151722727Y-153589387D01*
X151864562Y-153416561D01*
X151969954Y-153219385D01*
X152034855Y-153005437D01*
X152056769Y-152782938D01*
X152034855Y-152560439D01*
X151969954Y-152346491D01*
X151864562Y-152149315D01*
X151772574Y-152037228D01*
X151864562Y-151925141D01*
X151969954Y-151727965D01*
X152034855Y-151514017D01*
X152056769Y-151291518D01*
X152034855Y-151069019D01*
X151969954Y-150855071D01*
X151864562Y-150657895D01*
X151722727Y-150485069D01*
X151549901Y-150343234D01*
X151352725Y-150237842D01*
X151138777Y-150172941D01*
X150972030Y-150156518D01*
X145979703Y-150156518D01*
X145903851Y-150014607D01*
X145762016Y-149841781D01*
X145589190Y-149699946D01*
X145392014Y-149594554D01*
X145178066Y-149529653D01*
X144955567Y-149507739D01*
X144733069Y-149529653D01*
X144519121Y-149594554D01*
X144321945Y-149699946D01*
X144192425Y-149806241D01*
X144184139Y-149814527D01*
X144140831Y-149850069D01*
X143998996Y-150022895D01*
X143893603Y-150220071D01*
X143828702Y-150434019D01*
X143822013Y-150501939D01*
X143806788Y-150656518D01*
X138804252Y-150656518D01*
X138835000Y-150501939D01*
X138835000Y-150298061D01*
X138795226Y-150098102D01*
X138717205Y-149909744D01*
X138603937Y-149740226D01*
X138459774Y-149596063D01*
X138290256Y-149482795D01*
X138101898Y-149404774D01*
X137901939Y-149365000D01*
X137698061Y-149365000D01*
X137631318Y-149378276D01*
X137653676Y-149336447D01*
X137718577Y-149122499D01*
X137735000Y-148955752D01*
X137735000Y-147718753D01*
X158865991Y-147718753D01*
X158913816Y-148106828D01*
X159036432Y-148478116D01*
X159174956Y-148737276D01*
X159475162Y-148875233D01*
X160680395Y-147670000D01*
X159475162Y-146464767D01*
X159174956Y-146602724D01*
X158999118Y-146951967D01*
X158894793Y-147328804D01*
X158865991Y-147718753D01*
X137735000Y-147718753D01*
X137735000Y-146285162D01*
X159654767Y-146285162D01*
X160860000Y-147490395D01*
X162065233Y-146285162D01*
X161927276Y-145984956D01*
X161578033Y-145809118D01*
X161201196Y-145704793D01*
X160811247Y-145675991D01*
X160423172Y-145723816D01*
X160051884Y-145846432D01*
X159792724Y-145984956D01*
X159654767Y-146285162D01*
X137735000Y-146285162D01*
X137735000Y-142644248D01*
X137718577Y-142477501D01*
X137653676Y-142263553D01*
X137548284Y-142066377D01*
X137406449Y-141893551D01*
X137233623Y-141751716D01*
X137036447Y-141646324D01*
X136822499Y-141581423D01*
X136600000Y-141559509D01*
X136377502Y-141581423D01*
X136163554Y-141646324D01*
X135966378Y-141751716D01*
X135793552Y-141893551D01*
X135674251Y-142038919D01*
X135590256Y-141982795D01*
X135401898Y-141904774D01*
X135201939Y-141865000D01*
X134998061Y-141865000D01*
X134798102Y-141904774D01*
X134609744Y-141982795D01*
X134440226Y-142096063D01*
X134296063Y-142240226D01*
X134182795Y-142409744D01*
X134104774Y-142598102D01*
X134065000Y-142798061D01*
X128822539Y-142798061D01*
X128726262Y-142653972D01*
X128596028Y-142523738D01*
X128442889Y-142421414D01*
X128272729Y-142350932D01*
X128092089Y-142315000D01*
X127907911Y-142315000D01*
X127727271Y-142350932D01*
X127557111Y-142421414D01*
X127403972Y-142523738D01*
X127273738Y-142653972D01*
X127171414Y-142807111D01*
X127100932Y-142977271D01*
X127065000Y-143157911D01*
X100710000Y-143157911D01*
X100710000Y-140850000D01*
X129411928Y-140850000D01*
X129424188Y-140974482D01*
X129460498Y-141094180D01*
X129519463Y-141204494D01*
X129598815Y-141301185D01*
X129695506Y-141380537D01*
X129805820Y-141439502D01*
X129925518Y-141475812D01*
X130050000Y-141488072D01*
X130614250Y-141485000D01*
X130773000Y-141326250D01*
X130773000Y-140377000D01*
X131027000Y-140377000D01*
X131027000Y-141326250D01*
X131185750Y-141485000D01*
X131750000Y-141488072D01*
X131874482Y-141475812D01*
X131994180Y-141439502D01*
X132104494Y-141380537D01*
X132201185Y-141301185D01*
X132280537Y-141204494D01*
X132339502Y-141094180D01*
X132375812Y-140974482D01*
X132388072Y-140850000D01*
X132385000Y-140535750D01*
X132226250Y-140377000D01*
X131027000Y-140377000D01*
X130773000Y-140377000D01*
X129573750Y-140377000D01*
X129415000Y-140535750D01*
X129411928Y-140850000D01*
X100710000Y-140850000D01*
X100710000Y-140262604D01*
X154765000Y-140262604D01*
X154765000Y-140537396D01*
X154818609Y-140806907D01*
X154923767Y-141060780D01*
X155076433Y-141289261D01*
X155270739Y-141483567D01*
X155499220Y-141636233D01*
X155580740Y-141670000D01*
X155499220Y-141703767D01*
X155270739Y-141856433D01*
X155076433Y-142050739D01*
X154923767Y-142279220D01*
X154818609Y-142533093D01*
X154765000Y-142802604D01*
X154765000Y-143077396D01*
X154818609Y-143346907D01*
X154923767Y-143600780D01*
X155076433Y-143829261D01*
X155270739Y-144023567D01*
X155499220Y-144176233D01*
X155753093Y-144281391D01*
X156022604Y-144335000D01*
X156297396Y-144335000D01*
X156566907Y-144281391D01*
X156820780Y-144176233D01*
X157049261Y-144023567D01*
X157160000Y-143912828D01*
X157270739Y-144023567D01*
X157499220Y-144176233D01*
X157753093Y-144281391D01*
X158022604Y-144335000D01*
X158297396Y-144335000D01*
X158566907Y-144281391D01*
X158820780Y-144176233D01*
X159049261Y-144023567D01*
X159243567Y-143829261D01*
X159396233Y-143600780D01*
X159501391Y-143346907D01*
X159555000Y-143077396D01*
X159555000Y-142802604D01*
X159501391Y-142533093D01*
X159396233Y-142279220D01*
X159243567Y-142050739D01*
X159049261Y-141856433D01*
X158820780Y-141703767D01*
X158744499Y-141672170D01*
X158762326Y-141665744D01*
X158877794Y-141604025D01*
X158944531Y-141364137D01*
X158160000Y-140579605D01*
X157375469Y-141364137D01*
X157442206Y-141604025D01*
X157581707Y-141669600D01*
X157499220Y-141703767D01*
X157270739Y-141856433D01*
X157160000Y-141967172D01*
X157049261Y-141856433D01*
X156820780Y-141703767D01*
X156739260Y-141670000D01*
X156820780Y-141636233D01*
X157049261Y-141483567D01*
X157243567Y-141289261D01*
X157396233Y-141060780D01*
X157450411Y-140929983D01*
X157980395Y-140400000D01*
X158339605Y-140400000D01*
X159124137Y-141184531D01*
X159364025Y-141117794D01*
X159480924Y-140869108D01*
X159547061Y-140602394D01*
X159559895Y-140327903D01*
X159518931Y-140056183D01*
X159425744Y-139797674D01*
X159364025Y-139682206D01*
X159124137Y-139615469D01*
X158339605Y-140400000D01*
X157980395Y-140400000D01*
X157450411Y-139870017D01*
X157396233Y-139739220D01*
X157243567Y-139510739D01*
X157168691Y-139435863D01*
X157375469Y-139435863D01*
X158160000Y-140220395D01*
X158944531Y-139435863D01*
X158877794Y-139195975D01*
X158629108Y-139079076D01*
X158362394Y-139012939D01*
X158087903Y-139000105D01*
X157816183Y-139041069D01*
X157557674Y-139134256D01*
X157442206Y-139195975D01*
X157375469Y-139435863D01*
X157168691Y-139435863D01*
X157049261Y-139316433D01*
X156820780Y-139163767D01*
X156566907Y-139058609D01*
X156297396Y-139005000D01*
X156022604Y-139005000D01*
X155753093Y-139058609D01*
X155499220Y-139163767D01*
X155270739Y-139316433D01*
X155076433Y-139510739D01*
X154923767Y-139739220D01*
X154818609Y-139993093D01*
X154765000Y-140262604D01*
X100710000Y-140262604D01*
X100710000Y-139650000D01*
X129411928Y-139650000D01*
X129415000Y-139964250D01*
X129573750Y-140123000D01*
X130773000Y-140123000D01*
X130773000Y-138377000D01*
X131027000Y-138377000D01*
X131027000Y-140123000D01*
X132226250Y-140123000D01*
X132385000Y-139964250D01*
X132388072Y-139650000D01*
X132375812Y-139525518D01*
X132339502Y-139405820D01*
X132280537Y-139295506D01*
X132201185Y-139198815D01*
X132104494Y-139119463D01*
X132062540Y-139097038D01*
X132081938Y-139079128D01*
X132225786Y-138881384D01*
X132328292Y-138659377D01*
X132343462Y-138567609D01*
X132218731Y-138377000D01*
X131027000Y-138377000D01*
X130773000Y-138377000D01*
X129581269Y-138377000D01*
X129456538Y-138567609D01*
X129471708Y-138659377D01*
X129574214Y-138881384D01*
X129718062Y-139079128D01*
X129737460Y-139097038D01*
X129695506Y-139119463D01*
X129598815Y-139198815D01*
X129519463Y-139295506D01*
X129460498Y-139405820D01*
X129424188Y-139525518D01*
X129411928Y-139650000D01*
X100710000Y-139650000D01*
X100710000Y-134250000D01*
X129409025Y-134250000D01*
X129432870Y-134492102D01*
X129503489Y-134724901D01*
X129618167Y-134939449D01*
X129772498Y-135127502D01*
X129921762Y-135250000D01*
X129772498Y-135372498D01*
X129618167Y-135560551D01*
X129503489Y-135775099D01*
X129432870Y-136007898D01*
X129409025Y-136250000D01*
X129432870Y-136492102D01*
X129503489Y-136724901D01*
X129618167Y-136939449D01*
X129772498Y-137127502D01*
X129914978Y-137244432D01*
X129897724Y-137254991D01*
X129718062Y-137420872D01*
X129574214Y-137618616D01*
X129471708Y-137840623D01*
X129456538Y-137932391D01*
X129581269Y-138123000D01*
X130773000Y-138123000D01*
X130773000Y-138103000D01*
X131027000Y-138103000D01*
X131027000Y-138123000D01*
X132218731Y-138123000D01*
X132343462Y-137932391D01*
X132328292Y-137840623D01*
X132225786Y-137618616D01*
X132081938Y-137420872D01*
X131902276Y-137254991D01*
X131885022Y-137244432D01*
X132027502Y-137127502D01*
X132087135Y-137054838D01*
X159654767Y-137054838D01*
X159792724Y-137355044D01*
X160141967Y-137530882D01*
X160518804Y-137635207D01*
X160908753Y-137664009D01*
X161296828Y-137616184D01*
X161668116Y-137493568D01*
X161927276Y-137355044D01*
X162065233Y-137054838D01*
X160860000Y-135849605D01*
X159654767Y-137054838D01*
X132087135Y-137054838D01*
X132181833Y-136939449D01*
X132296511Y-136724901D01*
X132367130Y-136492102D01*
X132390975Y-136250000D01*
X132367130Y-136007898D01*
X132296511Y-135775099D01*
X132266394Y-135718753D01*
X158865991Y-135718753D01*
X158913816Y-136106828D01*
X159036432Y-136478116D01*
X159174956Y-136737276D01*
X159475162Y-136875233D01*
X160680395Y-135670000D01*
X161039605Y-135670000D01*
X162244838Y-136875233D01*
X162545044Y-136737276D01*
X162720882Y-136388033D01*
X162825207Y-136011196D01*
X162854009Y-135621247D01*
X162806184Y-135233172D01*
X162683568Y-134861884D01*
X162545044Y-134602724D01*
X162244838Y-134464767D01*
X161039605Y-135670000D01*
X160680395Y-135670000D01*
X159475162Y-134464767D01*
X159174956Y-134602724D01*
X158999118Y-134951967D01*
X158894793Y-135328804D01*
X158865991Y-135718753D01*
X132266394Y-135718753D01*
X132181833Y-135560551D01*
X132027502Y-135372498D01*
X131878238Y-135250000D01*
X132027502Y-135127502D01*
X132181833Y-134939449D01*
X132296511Y-134724901D01*
X132367130Y-134492102D01*
X132387511Y-134285162D01*
X159654767Y-134285162D01*
X160860000Y-135490395D01*
X162065233Y-134285162D01*
X161927276Y-133984956D01*
X161578033Y-133809118D01*
X161201196Y-133704793D01*
X160811247Y-133675991D01*
X160423172Y-133723816D01*
X160051884Y-133846432D01*
X159792724Y-133984956D01*
X159654767Y-134285162D01*
X132387511Y-134285162D01*
X132390975Y-134250000D01*
X132367130Y-134007898D01*
X132296511Y-133775099D01*
X132181833Y-133560551D01*
X132027502Y-133372498D01*
X131839449Y-133218167D01*
X131624901Y-133103489D01*
X131392102Y-133032870D01*
X131210665Y-133015000D01*
X130589335Y-133015000D01*
X130407898Y-133032870D01*
X130175099Y-133103489D01*
X129960551Y-133218167D01*
X129772498Y-133372498D01*
X129618167Y-133560551D01*
X129503489Y-133775099D01*
X129432870Y-134007898D01*
X129409025Y-134250000D01*
X100710000Y-134250000D01*
X100710000Y-131492702D01*
X142186903Y-131492702D01*
X142258486Y-131736671D01*
X142513996Y-131857571D01*
X142788184Y-131926300D01*
X143070512Y-131940217D01*
X143350130Y-131898787D01*
X143616292Y-131803603D01*
X143741514Y-131736671D01*
X143813097Y-131492702D01*
X143000000Y-130679605D01*
X142186903Y-131492702D01*
X100710000Y-131492702D01*
X100710000Y-130570512D01*
X141559783Y-130570512D01*
X141601213Y-130850130D01*
X141696397Y-131116292D01*
X141763329Y-131241514D01*
X142007298Y-131313097D01*
X142820395Y-130500000D01*
X143179605Y-130500000D01*
X143992702Y-131313097D01*
X144236671Y-131241514D01*
X144357571Y-130986004D01*
X144426300Y-130711816D01*
X144440217Y-130429488D01*
X144398787Y-130149870D01*
X144303603Y-129883708D01*
X144236671Y-129758486D01*
X143992702Y-129686903D01*
X143179605Y-130500000D01*
X142820395Y-130500000D01*
X142007298Y-129686903D01*
X141763329Y-129758486D01*
X141642429Y-130013996D01*
X141573700Y-130288184D01*
X141559783Y-130570512D01*
X100710000Y-130570512D01*
X100710000Y-129507298D01*
X142186903Y-129507298D01*
X143000000Y-130320395D01*
X143813097Y-129507298D01*
X143741514Y-129263329D01*
X143486004Y-129142429D01*
X143211816Y-129073700D01*
X142929488Y-129059783D01*
X142649870Y-129101213D01*
X142383708Y-129196397D01*
X142258486Y-129263329D01*
X142186903Y-129507298D01*
X100710000Y-129507298D01*
X100710000Y-102034721D01*
X100756953Y-101555866D01*
X100885938Y-101128645D01*
X101095446Y-100734616D01*
X101377499Y-100388786D01*
X101721351Y-100104327D01*
X102113910Y-99892071D01*
X102540213Y-99760108D01*
X103016964Y-99710000D01*
X120449442Y-99710000D01*
X120382795Y-99809744D01*
X120382795Y-99809744D01*
G37*
X120382795Y-99809744D02*
X120304774Y-99998102D01*
X120265000Y-100198061D01*
X120265000Y-100401939D01*
X120304774Y-100601898D01*
X120382795Y-100790256D01*
X120496063Y-100959774D01*
X120621618Y-101085329D01*
X120370986Y-101219294D01*
X120144866Y-101404866D01*
X119959294Y-101630986D01*
X119930000Y-101685791D01*
X119900706Y-101630986D01*
X119715134Y-101404866D01*
X119489014Y-101219294D01*
X119231034Y-101081401D01*
X118951111Y-100996487D01*
X118732950Y-100975000D01*
X118587050Y-100975000D01*
X118368889Y-100996487D01*
X118088966Y-101081401D01*
X117830986Y-101219294D01*
X117604866Y-101404866D01*
X117419294Y-101630986D01*
X117390000Y-101685791D01*
X117360706Y-101630986D01*
X117175134Y-101404866D01*
X116949014Y-101219294D01*
X116691034Y-101081401D01*
X116411111Y-100996487D01*
X116192950Y-100975000D01*
X116047050Y-100975000D01*
X115828889Y-100996487D01*
X115548966Y-101081401D01*
X115290986Y-101219294D01*
X115064866Y-101404866D01*
X114879294Y-101630986D01*
X114844799Y-101695523D01*
X114775178Y-101578645D01*
X114580269Y-101362412D01*
X114346920Y-101188359D01*
X114084099Y-101063175D01*
X113936890Y-101018524D01*
X113707000Y-101139845D01*
X113707000Y-102333000D01*
X113727000Y-102333000D01*
X113727000Y-102587000D01*
X113707000Y-102587000D01*
X113707000Y-102607000D01*
X113453000Y-102607000D01*
X113453000Y-102587000D01*
X113433000Y-102587000D01*
X113433000Y-102333000D01*
X113453000Y-102333000D01*
X113453000Y-101139845D01*
X113223110Y-101018524D01*
X113075901Y-101063175D01*
X112813080Y-101188359D01*
X112579731Y-101362412D01*
X112384822Y-101578645D01*
X112315201Y-101695523D01*
X112280706Y-101630986D01*
X112095134Y-101404866D01*
X111869014Y-101219294D01*
X111611034Y-101081401D01*
X111331111Y-100996487D01*
X111112950Y-100975000D01*
X110967050Y-100975000D01*
X110748889Y-100996487D01*
X110468966Y-101081401D01*
X110210986Y-101219294D01*
X109984866Y-101404866D01*
X109799294Y-101630986D01*
X109770000Y-101685791D01*
X109740706Y-101630986D01*
X109555134Y-101404866D01*
X109329014Y-101219294D01*
X109071034Y-101081401D01*
X108791111Y-100996487D01*
X108572950Y-100975000D01*
X108427050Y-100975000D01*
X108208889Y-100996487D01*
X107928966Y-101081401D01*
X107670986Y-101219294D01*
X107444866Y-101404866D01*
X107259294Y-101630986D01*
X107121401Y-101888966D01*
X107036487Y-102168889D01*
X107007815Y-102460000D01*
X107036487Y-102751111D01*
X107121401Y-103031034D01*
X107259294Y-103289014D01*
X107444866Y-103515134D01*
X107474687Y-103539607D01*
X107405820Y-103560498D01*
X107295506Y-103619463D01*
X107198815Y-103698815D01*
X107119463Y-103795506D01*
X107060498Y-103905820D01*
X107024188Y-104025518D01*
X107011928Y-104150000D01*
X107011928Y-105850000D01*
X107024188Y-105974482D01*
X107060498Y-106094180D01*
X107119463Y-106204494D01*
X107198815Y-106301185D01*
X107295506Y-106380537D01*
X107405820Y-106439502D01*
X107525518Y-106475812D01*
X107650000Y-106488072D01*
X109350000Y-106488072D01*
X109474482Y-106475812D01*
X109594180Y-106439502D01*
X109704494Y-106380537D01*
X109801185Y-106301185D01*
X109880537Y-106204494D01*
X109939502Y-106094180D01*
X109960393Y-106025313D01*
X109984866Y-106055134D01*
X110210986Y-106240706D01*
X110280000Y-106277595D01*
X110280001Y-114302668D01*
X110276324Y-114340000D01*
X110290998Y-114488985D01*
X110334454Y-114632246D01*
X110405026Y-114764276D01*
X110476201Y-114851002D01*
X110500000Y-114880001D01*
X110528998Y-114903799D01*
X110979292Y-115354094D01*
X110965764Y-115398691D01*
X110938057Y-115680000D01*
X110965764Y-115961309D01*
X111047818Y-116231808D01*
X111181068Y-116481101D01*
X111360392Y-116699608D01*
X111578899Y-116878932D01*
X111711858Y-116950000D01*
X111578899Y-117021068D01*
X111360392Y-117200392D01*
X111181068Y-117418899D01*
X111047818Y-117668192D01*
X110965764Y-117938691D01*
X110938057Y-118220000D01*
X110965764Y-118501309D01*
X111047818Y-118771808D01*
X111181068Y-119021101D01*
X111237610Y-119089998D01*
X110503711Y-119089998D01*
X110459774Y-119046061D01*
X110290256Y-118932793D01*
X110101898Y-118854772D01*
X109901939Y-118814998D01*
X109698061Y-118814998D01*
X109498102Y-118854772D01*
X109309744Y-118932793D01*
X109140226Y-119046061D01*
X108996063Y-119190224D01*
X108882795Y-119359742D01*
X108804774Y-119548100D01*
X108765000Y-119748059D01*
X108765000Y-119951937D01*
X108804774Y-120151896D01*
X108882795Y-120340254D01*
X108996063Y-120509772D01*
X109140226Y-120653935D01*
X109309744Y-120767203D01*
X109498102Y-120845224D01*
X109698061Y-120884998D01*
X109901939Y-120884998D01*
X110101898Y-120845224D01*
X110290256Y-120767203D01*
X110459774Y-120653935D01*
X110503711Y-120609998D01*
X110952831Y-120609998D01*
X110938057Y-120760000D01*
X110965764Y-121041309D01*
X111047818Y-121311808D01*
X111181068Y-121561101D01*
X111360392Y-121779608D01*
X111578899Y-121958932D01*
X111711858Y-122030000D01*
X111578899Y-122101068D01*
X111360392Y-122280392D01*
X111181068Y-122498899D01*
X111047818Y-122748192D01*
X110965764Y-123018691D01*
X110938057Y-123300000D01*
X110965764Y-123581309D01*
X111047818Y-123851808D01*
X111181068Y-124101101D01*
X111360392Y-124319608D01*
X111578899Y-124498932D01*
X111828192Y-124632182D01*
X112098691Y-124714236D01*
X112309508Y-124735000D01*
X112450492Y-124735000D01*
X112661309Y-124714236D01*
X112931808Y-124632182D01*
X113181101Y-124498932D01*
X113314584Y-124389385D01*
X113665000Y-124739802D01*
X113665000Y-124801939D01*
X113704774Y-125001898D01*
X113782795Y-125190256D01*
X113896063Y-125359774D01*
X114040226Y-125503937D01*
X114209744Y-125617205D01*
X114398102Y-125695226D01*
X114598061Y-125735000D01*
X114801939Y-125735000D01*
X115001898Y-125695226D01*
X115190256Y-125617205D01*
X115359774Y-125503937D01*
X115455800Y-125407911D01*
X124815000Y-125407911D01*
X124815000Y-125592089D01*
X124850932Y-125772729D01*
X124921414Y-125942889D01*
X124990000Y-126045536D01*
X124990001Y-127954459D01*
X124921414Y-128057107D01*
X124850932Y-128227267D01*
X124815000Y-128407907D01*
X124815000Y-128592085D01*
X124850932Y-128772725D01*
X124921414Y-128942885D01*
X125023738Y-129096024D01*
X125153972Y-129226258D01*
X125307111Y-129328582D01*
X125477271Y-129399064D01*
X125657911Y-129434996D01*
X125842089Y-129434996D01*
X126022729Y-129399064D01*
X126192889Y-129328582D01*
X126346028Y-129226258D01*
X126476262Y-129096024D01*
X126578586Y-128942885D01*
X126649068Y-128772725D01*
X126685000Y-128592085D01*
X126685000Y-128407907D01*
X126649068Y-128227267D01*
X126578586Y-128057107D01*
X126510000Y-127954461D01*
X126510000Y-126725000D01*
X129386928Y-126725000D01*
X129386928Y-128475000D01*
X129399188Y-128599482D01*
X129435498Y-128719180D01*
X129494463Y-128829494D01*
X129573815Y-128926185D01*
X129670506Y-129005537D01*
X129780820Y-129064502D01*
X129900518Y-129100812D01*
X130025000Y-129113072D01*
X131775000Y-129113072D01*
X131899482Y-129100812D01*
X132019180Y-129064502D01*
X132129494Y-129005537D01*
X132226185Y-128926185D01*
X132305537Y-128829494D01*
X132364502Y-128719180D01*
X132400812Y-128599482D01*
X132413072Y-128475000D01*
X132413072Y-126725000D01*
X132400812Y-126600518D01*
X132364502Y-126480820D01*
X132305537Y-126370506D01*
X132226185Y-126273815D01*
X132136241Y-126200000D01*
X141561928Y-126200000D01*
X141561928Y-127800000D01*
X141574188Y-127924482D01*
X141610498Y-128044180D01*
X141669463Y-128154494D01*
X141748815Y-128251185D01*
X141845506Y-128330537D01*
X141955820Y-128389502D01*
X142075518Y-128425812D01*
X142200000Y-128438072D01*
X143800000Y-128438072D01*
X143924482Y-128425812D01*
X144044180Y-128389502D01*
X144154494Y-128330537D01*
X144251185Y-128251185D01*
X144330537Y-128154494D01*
X144389502Y-128044180D01*
X144425812Y-127924482D01*
X144438072Y-127800000D01*
X144438072Y-127366000D01*
X154095928Y-127366000D01*
X154095928Y-130866000D01*
X154108188Y-130990482D01*
X154144498Y-131110180D01*
X154203463Y-131220494D01*
X154282815Y-131317185D01*
X154379506Y-131396537D01*
X154489820Y-131455502D01*
X154609518Y-131491812D01*
X154734000Y-131504072D01*
X158234000Y-131504072D01*
X158358482Y-131491812D01*
X158478180Y-131455502D01*
X158588494Y-131396537D01*
X158685185Y-131317185D01*
X158764537Y-131220494D01*
X158823502Y-131110180D01*
X158859812Y-130990482D01*
X158872072Y-130866000D01*
X160095928Y-130866000D01*
X160108188Y-130990482D01*
X160144498Y-131110180D01*
X160203463Y-131220494D01*
X160282815Y-131317185D01*
X160379506Y-131396537D01*
X160489820Y-131455502D01*
X160609518Y-131491812D01*
X160734000Y-131504072D01*
X162198250Y-131501000D01*
X162357000Y-131342250D01*
X162357000Y-129243000D01*
X160257750Y-129243000D01*
X160099000Y-129401750D01*
X160095928Y-130866000D01*
X158872072Y-130866000D01*
X158872072Y-127366000D01*
X158859812Y-127241518D01*
X158823502Y-127121820D01*
X158764537Y-127011506D01*
X158685185Y-126914815D01*
X158588494Y-126835463D01*
X158526655Y-126802409D01*
X159198250Y-126801000D01*
X159357000Y-126642250D01*
X159357000Y-124543000D01*
X159611000Y-124543000D01*
X159611000Y-126642250D01*
X159769750Y-126801000D01*
X160441345Y-126802409D01*
X160379506Y-126835463D01*
X160282815Y-126914815D01*
X160203463Y-127011506D01*
X160144498Y-127121820D01*
X160108188Y-127241518D01*
X160095928Y-127366000D01*
X160099000Y-128830250D01*
X160257750Y-128989000D01*
X162357000Y-128989000D01*
X162357000Y-126889750D01*
X162198250Y-126731000D01*
X161526655Y-126729591D01*
X161588494Y-126696537D01*
X161685185Y-126617185D01*
X161764537Y-126520494D01*
X161823502Y-126410180D01*
X161859812Y-126290482D01*
X161872072Y-126166000D01*
X161869000Y-124701750D01*
X161710250Y-124543000D01*
X159611000Y-124543000D01*
X159357000Y-124543000D01*
X157257750Y-124543000D01*
X157099000Y-124701750D01*
X157095928Y-126166000D01*
X157108188Y-126290482D01*
X157144498Y-126410180D01*
X157203463Y-126520494D01*
X157282815Y-126617185D01*
X157379506Y-126696537D01*
X157438233Y-126727928D01*
X154734000Y-126727928D01*
X154609518Y-126740188D01*
X154489820Y-126776498D01*
X154379506Y-126835463D01*
X154282815Y-126914815D01*
X154203463Y-127011506D01*
X154144498Y-127121820D01*
X154108188Y-127241518D01*
X154095928Y-127366000D01*
X144438072Y-127366000D01*
X144438072Y-126200000D01*
X144425812Y-126075518D01*
X144389502Y-125955820D01*
X144330537Y-125845506D01*
X144251185Y-125748815D01*
X144154494Y-125669463D01*
X144044180Y-125610498D01*
X143924482Y-125574188D01*
X143800000Y-125561928D01*
X142200000Y-125561928D01*
X142075518Y-125574188D01*
X141955820Y-125610498D01*
X141845506Y-125669463D01*
X141748815Y-125748815D01*
X141669463Y-125845506D01*
X141610498Y-125955820D01*
X141574188Y-126075518D01*
X141561928Y-126200000D01*
X132136241Y-126200000D01*
X132129494Y-126194463D01*
X132019180Y-126135498D01*
X132004436Y-126131026D01*
X132072893Y-126062569D01*
X132238144Y-125815253D01*
X132351971Y-125540451D01*
X132410000Y-125248722D01*
X132410000Y-124951278D01*
X132351971Y-124659549D01*
X132238144Y-124384747D01*
X132072893Y-124137431D01*
X131862569Y-123927107D01*
X131747170Y-123850000D01*
X131862569Y-123772893D01*
X132072893Y-123562569D01*
X132238144Y-123315253D01*
X132351971Y-123040451D01*
X132410000Y-122748722D01*
X132410000Y-122666000D01*
X157095928Y-122666000D01*
X157099000Y-124130250D01*
X157257750Y-124289000D01*
X159357000Y-124289000D01*
X159357000Y-122189750D01*
X159611000Y-122189750D01*
X159611000Y-124289000D01*
X161710250Y-124289000D01*
X161869000Y-124130250D01*
X161872072Y-122666000D01*
X161859812Y-122541518D01*
X161823502Y-122421820D01*
X161764537Y-122311506D01*
X161685185Y-122214815D01*
X161588494Y-122135463D01*
X161478180Y-122076498D01*
X161358482Y-122040188D01*
X161234000Y-122027928D01*
X159769750Y-122031000D01*
X159611000Y-122189750D01*
X159357000Y-122189750D01*
X159198250Y-122031000D01*
X157734000Y-122027928D01*
X157609518Y-122040188D01*
X157489820Y-122076498D01*
X157379506Y-122135463D01*
X157282815Y-122214815D01*
X157203463Y-122311506D01*
X157144498Y-122421820D01*
X157108188Y-122541518D01*
X157095928Y-122666000D01*
X132410000Y-122666000D01*
X132410000Y-122451278D01*
X132351971Y-122159549D01*
X132238144Y-121884747D01*
X132072893Y-121637431D01*
X131862569Y-121427107D01*
X131747170Y-121350000D01*
X131862569Y-121272893D01*
X132072893Y-121062569D01*
X132238144Y-120815253D01*
X132351971Y-120540451D01*
X132389263Y-120352974D01*
X132440226Y-120403937D01*
X132609744Y-120517205D01*
X132798102Y-120595226D01*
X132998061Y-120635000D01*
X133201939Y-120635000D01*
X133401898Y-120595226D01*
X133590256Y-120517205D01*
X133759774Y-120403937D01*
X133903937Y-120259774D01*
X134017205Y-120090256D01*
X134095226Y-119901898D01*
X134135000Y-119701939D01*
X134135000Y-119498061D01*
X134095226Y-119298102D01*
X134017205Y-119109744D01*
X133903937Y-118940226D01*
X133860000Y-118896289D01*
X133860000Y-115903711D01*
X133903937Y-115859774D01*
X134017205Y-115690256D01*
X134095226Y-115501898D01*
X134135000Y-115301939D01*
X134135000Y-115098061D01*
X134095226Y-114898102D01*
X134017205Y-114709744D01*
X133903937Y-114540226D01*
X133759774Y-114396063D01*
X133590256Y-114282795D01*
X133401898Y-114204774D01*
X133201939Y-114165000D01*
X132998061Y-114165000D01*
X132798102Y-114204774D01*
X132609744Y-114282795D01*
X132440226Y-114396063D01*
X132300647Y-114535642D01*
X132238144Y-114384747D01*
X132072893Y-114137431D01*
X131862569Y-113927107D01*
X131784586Y-113875000D01*
X158986928Y-113875000D01*
X158986928Y-115625000D01*
X158999188Y-115749482D01*
X159035498Y-115869180D01*
X159094463Y-115979494D01*
X159173815Y-116076185D01*
X159270506Y-116155537D01*
X159380820Y-116214502D01*
X159395564Y-116218974D01*
X159327107Y-116287431D01*
X159161856Y-116534747D01*
X159048029Y-116809549D01*
X158990000Y-117101278D01*
X158990000Y-117398722D01*
X159048029Y-117690451D01*
X159161856Y-117965253D01*
X159327107Y-118212569D01*
X159537431Y-118422893D01*
X159784747Y-118588144D01*
X160059549Y-118701971D01*
X160351278Y-118760000D01*
X160648722Y-118760000D01*
X160940451Y-118701971D01*
X161215253Y-118588144D01*
X161462569Y-118422893D01*
X161672893Y-118212569D01*
X161838144Y-117965253D01*
X161951971Y-117690451D01*
X162010000Y-117398722D01*
X162010000Y-117101278D01*
X161951971Y-116809549D01*
X161838144Y-116534747D01*
X161672893Y-116287431D01*
X161604436Y-116218974D01*
X161619180Y-116214502D01*
X161729494Y-116155537D01*
X161826185Y-116076185D01*
X161905537Y-115979494D01*
X161964502Y-115869180D01*
X162000812Y-115749482D01*
X162013072Y-115625000D01*
X162013072Y-113875000D01*
X162000812Y-113750518D01*
X161964502Y-113630820D01*
X161905537Y-113520506D01*
X161826185Y-113423815D01*
X161729494Y-113344463D01*
X161619180Y-113285498D01*
X161499482Y-113249188D01*
X161375000Y-113236928D01*
X159625000Y-113236928D01*
X159500518Y-113249188D01*
X159380820Y-113285498D01*
X159270506Y-113344463D01*
X159173815Y-113423815D01*
X159094463Y-113520506D01*
X159035498Y-113630820D01*
X158999188Y-113750518D01*
X158986928Y-113875000D01*
X131784586Y-113875000D01*
X131747170Y-113850000D01*
X131862569Y-113772893D01*
X132072893Y-113562569D01*
X132238144Y-113315253D01*
X132351971Y-113040451D01*
X132410000Y-112748722D01*
X132410000Y-112451278D01*
X132351971Y-112159549D01*
X132238144Y-111884747D01*
X132072893Y-111637431D01*
X131862569Y-111427107D01*
X131747170Y-111350000D01*
X131862569Y-111272893D01*
X132072893Y-111062569D01*
X132238144Y-110815253D01*
X132351971Y-110540451D01*
X132410000Y-110248722D01*
X132410000Y-109951278D01*
X132351971Y-109659549D01*
X132238144Y-109384747D01*
X132072893Y-109137431D01*
X131862569Y-108927107D01*
X131615253Y-108761856D01*
X131340451Y-108648029D01*
X131048722Y-108590000D01*
X130751278Y-108590000D01*
X130459549Y-108648029D01*
X130184747Y-108761856D01*
X129937431Y-108927107D01*
X129727107Y-109137431D01*
X129561856Y-109384747D01*
X129448029Y-109659549D01*
X129390000Y-109951278D01*
X129390000Y-110248722D01*
X129448029Y-110540451D01*
X129561856Y-110815253D01*
X129727107Y-111062569D01*
X129937431Y-111272893D01*
X130052830Y-111350000D01*
X129937431Y-111427107D01*
X129727107Y-111637431D01*
X129561856Y-111884747D01*
X129448029Y-112159549D01*
X129390000Y-112451278D01*
X129390000Y-112748722D01*
X129448029Y-113040451D01*
X129561856Y-113315253D01*
X129727107Y-113562569D01*
X129937431Y-113772893D01*
X130052830Y-113850000D01*
X129937431Y-113927107D01*
X129727107Y-114137431D01*
X129561856Y-114384747D01*
X129448029Y-114659549D01*
X129390000Y-114951278D01*
X129390000Y-115248722D01*
X129448029Y-115540451D01*
X129561856Y-115815253D01*
X129727107Y-116062569D01*
X129937431Y-116272893D01*
X130052830Y-116350000D01*
X129937431Y-116427107D01*
X129727107Y-116637431D01*
X129561856Y-116884747D01*
X129448029Y-117159549D01*
X129390000Y-117451278D01*
X129390000Y-117748722D01*
X129448029Y-118040451D01*
X129561856Y-118315253D01*
X129727107Y-118562569D01*
X129937431Y-118772893D01*
X130052830Y-118850000D01*
X129937431Y-118927107D01*
X129727107Y-119137431D01*
X129561856Y-119384747D01*
X129448029Y-119659549D01*
X129390000Y-119951278D01*
X129390000Y-120248722D01*
X129448029Y-120540451D01*
X129561856Y-120815253D01*
X129727107Y-121062569D01*
X129937431Y-121272893D01*
X130052830Y-121350000D01*
X129937431Y-121427107D01*
X129727107Y-121637431D01*
X129561856Y-121884747D01*
X129448029Y-122159549D01*
X129390000Y-122451278D01*
X129390000Y-122748722D01*
X129448029Y-123040451D01*
X129561856Y-123315253D01*
X129727107Y-123562569D01*
X129937431Y-123772893D01*
X130052830Y-123850000D01*
X129937431Y-123927107D01*
X129727107Y-124137431D01*
X129561856Y-124384747D01*
X129448029Y-124659549D01*
X129390000Y-124951278D01*
X129390000Y-125248722D01*
X129448029Y-125540451D01*
X129561856Y-125815253D01*
X129727107Y-126062569D01*
X129795564Y-126131026D01*
X129780820Y-126135498D01*
X129670506Y-126194463D01*
X129573815Y-126273815D01*
X129494463Y-126370506D01*
X129435498Y-126480820D01*
X129399188Y-126600518D01*
X129386928Y-126725000D01*
X126510000Y-126725000D01*
X126510000Y-126045535D01*
X126578586Y-125942889D01*
X126649068Y-125772729D01*
X126685000Y-125592089D01*
X126685000Y-125407911D01*
X126649068Y-125227271D01*
X126578586Y-125057111D01*
X126476262Y-124903972D01*
X126346028Y-124773738D01*
X126192889Y-124671414D01*
X126022729Y-124600932D01*
X125842089Y-124565000D01*
X125657911Y-124565000D01*
X125477271Y-124600932D01*
X125307111Y-124671414D01*
X125153972Y-124773738D01*
X125023738Y-124903972D01*
X124921414Y-125057111D01*
X124850932Y-125227271D01*
X124815000Y-125407911D01*
X115455800Y-125407911D01*
X115503937Y-125359774D01*
X115617205Y-125190256D01*
X115695226Y-125001898D01*
X115735000Y-124801939D01*
X115735000Y-124598061D01*
X115695226Y-124398102D01*
X115617205Y-124209744D01*
X115503937Y-124040226D01*
X115359774Y-123896063D01*
X115190256Y-123782795D01*
X115001898Y-123704774D01*
X114801939Y-123665000D01*
X114739802Y-123665000D01*
X113863804Y-122789003D01*
X113840001Y-122759999D01*
X113724276Y-122665026D01*
X113645111Y-122622711D01*
X113578932Y-122498899D01*
X113399608Y-122280392D01*
X113181101Y-122101068D01*
X113048142Y-122030000D01*
X113181101Y-121958932D01*
X113399608Y-121779608D01*
X113578932Y-121561101D01*
X113712182Y-121311808D01*
X113716352Y-121298061D01*
X114565000Y-121298061D01*
X114565000Y-121501939D01*
X114604774Y-121701898D01*
X114682795Y-121890256D01*
X114796063Y-122059774D01*
X114940226Y-122203937D01*
X115109744Y-122317205D01*
X115298102Y-122395226D01*
X115498061Y-122435000D01*
X115560199Y-122435000D01*
X115865000Y-122739802D01*
X115865000Y-122801939D01*
X115904774Y-123001898D01*
X115982795Y-123190256D01*
X116096063Y-123359774D01*
X116240226Y-123503937D01*
X116409744Y-123617205D01*
X116598102Y-123695226D01*
X116798061Y-123735000D01*
X117001939Y-123735000D01*
X117201898Y-123695226D01*
X117390256Y-123617205D01*
X117559774Y-123503937D01*
X117703937Y-123359774D01*
X117817205Y-123190256D01*
X117895226Y-123001898D01*
X117935000Y-122801939D01*
X117935000Y-122598061D01*
X117895226Y-122398102D01*
X117817205Y-122209744D01*
X117703937Y-122040226D01*
X117559774Y-121896063D01*
X117390256Y-121782795D01*
X117201898Y-121704774D01*
X117001939Y-121665000D01*
X116939802Y-121665000D01*
X116635000Y-121360199D01*
X116635000Y-121298061D01*
X116595226Y-121098102D01*
X116517205Y-120909744D01*
X116403937Y-120740226D01*
X116259774Y-120596063D01*
X116090256Y-120482795D01*
X115901898Y-120404774D01*
X115701939Y-120365000D01*
X115498061Y-120365000D01*
X115298102Y-120404774D01*
X115109744Y-120482795D01*
X114940226Y-120596063D01*
X114796063Y-120740226D01*
X114682795Y-120909744D01*
X114604774Y-121098102D01*
X114565000Y-121298061D01*
X113716352Y-121298061D01*
X113794236Y-121041309D01*
X113821943Y-120760000D01*
X113794236Y-120478691D01*
X113712182Y-120208192D01*
X113578932Y-119958899D01*
X113399608Y-119740392D01*
X113181101Y-119561068D01*
X113048142Y-119490000D01*
X113181101Y-119418932D01*
X113399608Y-119239608D01*
X113578932Y-119021101D01*
X113712182Y-118771808D01*
X113794236Y-118501309D01*
X113821943Y-118220000D01*
X118558057Y-118220000D01*
X118585764Y-118501309D01*
X118667818Y-118771808D01*
X118801068Y-119021101D01*
X118980392Y-119239608D01*
X119198899Y-119418932D01*
X119331858Y-119490000D01*
X119198899Y-119561068D01*
X118980392Y-119740392D01*
X118801068Y-119958899D01*
X118667818Y-120208192D01*
X118585764Y-120478691D01*
X118558057Y-120760000D01*
X118585764Y-121041309D01*
X118667818Y-121311808D01*
X118801068Y-121561101D01*
X118980392Y-121779608D01*
X119093482Y-121872419D01*
X119075518Y-121874188D01*
X118955820Y-121910498D01*
X118845506Y-121969463D01*
X118748815Y-122048815D01*
X118669463Y-122145506D01*
X118610498Y-122255820D01*
X118574188Y-122375518D01*
X118561928Y-122500000D01*
X118561928Y-124100000D01*
X118574188Y-124224482D01*
X118610498Y-124344180D01*
X118669463Y-124454494D01*
X118748815Y-124551185D01*
X118845506Y-124630537D01*
X118955820Y-124689502D01*
X119075518Y-124725812D01*
X119200000Y-124738072D01*
X120800000Y-124738072D01*
X120924482Y-124725812D01*
X121044180Y-124689502D01*
X121154494Y-124630537D01*
X121251185Y-124551185D01*
X121330537Y-124454494D01*
X121389502Y-124344180D01*
X121425812Y-124224482D01*
X121438072Y-124100000D01*
X121438072Y-122500000D01*
X121425812Y-122375518D01*
X121389502Y-122255820D01*
X121330537Y-122145506D01*
X121251185Y-122048815D01*
X121154494Y-121969463D01*
X121044180Y-121910498D01*
X120924482Y-121874188D01*
X120906518Y-121872419D01*
X121019608Y-121779608D01*
X121198932Y-121561101D01*
X121332182Y-121311808D01*
X121414236Y-121041309D01*
X121441943Y-120760000D01*
X121414236Y-120478691D01*
X121332182Y-120208192D01*
X121198932Y-119958899D01*
X121019608Y-119740392D01*
X120801101Y-119561068D01*
X120668142Y-119490000D01*
X120801101Y-119418932D01*
X121019608Y-119239608D01*
X121198932Y-119021101D01*
X121332182Y-118771808D01*
X121414236Y-118501309D01*
X121441943Y-118220000D01*
X121414236Y-117938691D01*
X121332182Y-117668192D01*
X121198932Y-117418899D01*
X121019608Y-117200392D01*
X120801101Y-117021068D01*
X120663318Y-116947421D01*
X120855131Y-116832385D01*
X121063519Y-116643414D01*
X121231037Y-116417420D01*
X121351246Y-116163087D01*
X121391904Y-116029039D01*
X121269915Y-115807000D01*
X120127000Y-115807000D01*
X120127000Y-115827000D01*
X119873000Y-115827000D01*
X119873000Y-115807000D01*
X118730085Y-115807000D01*
X118608096Y-116029039D01*
X118648754Y-116163087D01*
X118768963Y-116417420D01*
X118936481Y-116643414D01*
X119144869Y-116832385D01*
X119336682Y-116947421D01*
X119198899Y-117021068D01*
X118980392Y-117200392D01*
X118801068Y-117418899D01*
X118667818Y-117668192D01*
X118585764Y-117938691D01*
X118558057Y-118220000D01*
X113821943Y-118220000D01*
X113794236Y-117938691D01*
X113712182Y-117668192D01*
X113578932Y-117418899D01*
X113399608Y-117200392D01*
X113181101Y-117021068D01*
X113048142Y-116950000D01*
X113181101Y-116878932D01*
X113399608Y-116699608D01*
X113578932Y-116481101D01*
X113712182Y-116231808D01*
X113794236Y-115961309D01*
X113821943Y-115680000D01*
X113794236Y-115398691D01*
X113773691Y-115330961D01*
X118608096Y-115330961D01*
X118730085Y-115553000D01*
X119873000Y-115553000D01*
X119873000Y-114409376D01*
X120127000Y-114409376D01*
X120127000Y-115553000D01*
X121269915Y-115553000D01*
X121391904Y-115330961D01*
X121351246Y-115196913D01*
X121231037Y-114942580D01*
X121063519Y-114716586D01*
X120855131Y-114527615D01*
X120613881Y-114382930D01*
X120349040Y-114288091D01*
X120127000Y-114409376D01*
X119873000Y-114409376D01*
X119650960Y-114288091D01*
X119386119Y-114382930D01*
X119144869Y-114527615D01*
X118936481Y-114716586D01*
X118768963Y-114942580D01*
X118648754Y-115196913D01*
X118608096Y-115330961D01*
X113773691Y-115330961D01*
X113712182Y-115128192D01*
X113578932Y-114878899D01*
X113399608Y-114660392D01*
X113181101Y-114481068D01*
X112931808Y-114347818D01*
X112661309Y-114265764D01*
X112450492Y-114245000D01*
X112309508Y-114245000D01*
X112098691Y-114265764D01*
X112054094Y-114279292D01*
X111800000Y-114025199D01*
X111800000Y-109907911D01*
X122315000Y-109907911D01*
X122315000Y-110092089D01*
X122350932Y-110272729D01*
X122421414Y-110442889D01*
X122490001Y-110545537D01*
X122490000Y-111954464D01*
X122421414Y-112057111D01*
X122350932Y-112227271D01*
X122315000Y-112407911D01*
X122315000Y-112592089D01*
X122350932Y-112772729D01*
X122421414Y-112942889D01*
X122523738Y-113096028D01*
X122653972Y-113226262D01*
X122807111Y-113328586D01*
X122977271Y-113399068D01*
X123157911Y-113435000D01*
X123342089Y-113435000D01*
X123522729Y-113399068D01*
X123692889Y-113328586D01*
X123846028Y-113226262D01*
X123976262Y-113096028D01*
X124078586Y-112942889D01*
X124149068Y-112772729D01*
X124185000Y-112592089D01*
X124185000Y-112407911D01*
X124149068Y-112227271D01*
X124078586Y-112057111D01*
X124010000Y-111954465D01*
X124010000Y-110545535D01*
X124078586Y-110442889D01*
X124149068Y-110272729D01*
X124185000Y-110092089D01*
X124185000Y-109907911D01*
X124149068Y-109727271D01*
X124078586Y-109557111D01*
X124045712Y-109507911D01*
X126465000Y-109507911D01*
X126465000Y-109692089D01*
X126500932Y-109872729D01*
X126571414Y-110042889D01*
X126640000Y-110145536D01*
X126640001Y-111954463D01*
X126571414Y-112057111D01*
X126500932Y-112227271D01*
X126465000Y-112407911D01*
X126465000Y-112592089D01*
X126500932Y-112772729D01*
X126571414Y-112942889D01*
X126673738Y-113096028D01*
X126803972Y-113226262D01*
X126957111Y-113328586D01*
X127127271Y-113399068D01*
X127307911Y-113435000D01*
X127492089Y-113435000D01*
X127672729Y-113399068D01*
X127842889Y-113328586D01*
X127996028Y-113226262D01*
X128126262Y-113096028D01*
X128228586Y-112942889D01*
X128299068Y-112772729D01*
X128335000Y-112592089D01*
X128335000Y-112407911D01*
X128299068Y-112227271D01*
X128228586Y-112057111D01*
X128160000Y-111954465D01*
X128160000Y-110145535D01*
X128228586Y-110042889D01*
X128299068Y-109872729D01*
X128335000Y-109692089D01*
X128335000Y-109507911D01*
X128299068Y-109327271D01*
X128228586Y-109157111D01*
X128126262Y-109003972D01*
X127996028Y-108873738D01*
X127842889Y-108771414D01*
X127672729Y-108700932D01*
X127492089Y-108665000D01*
X127307911Y-108665000D01*
X127127271Y-108700932D01*
X126957111Y-108771414D01*
X126803972Y-108873738D01*
X126673738Y-109003972D01*
X126571414Y-109157111D01*
X126500932Y-109327271D01*
X126465000Y-109507911D01*
X124045712Y-109507911D01*
X123976262Y-109403972D01*
X123846028Y-109273738D01*
X123692889Y-109171414D01*
X123522729Y-109100932D01*
X123342089Y-109065000D01*
X123157911Y-109065000D01*
X122977271Y-109100932D01*
X122807111Y-109171414D01*
X122653972Y-109273738D01*
X122523738Y-109403972D01*
X122421414Y-109557111D01*
X122350932Y-109727271D01*
X122315000Y-109907911D01*
X111800000Y-109907911D01*
X111800000Y-107835714D01*
X149727347Y-107835714D01*
X149727347Y-108039592D01*
X149767121Y-108239551D01*
X149845142Y-108427909D01*
X149958410Y-108597427D01*
X150102573Y-108741590D01*
X150272091Y-108854858D01*
X150460449Y-108932879D01*
X150660408Y-108972653D01*
X150864286Y-108972653D01*
X151064245Y-108932879D01*
X151252603Y-108854858D01*
X151422121Y-108741590D01*
X151466058Y-108697653D01*
X154225025Y-108697653D01*
X154262347Y-108701329D01*
X154299669Y-108697653D01*
X154299680Y-108697653D01*
X154411333Y-108686656D01*
X154554594Y-108643199D01*
X154686623Y-108572627D01*
X154732472Y-108535000D01*
X154801939Y-108535000D01*
X155001898Y-108495226D01*
X155190256Y-108417205D01*
X155359774Y-108303937D01*
X155503937Y-108159774D01*
X155617205Y-107990256D01*
X155695226Y-107801898D01*
X155735000Y-107601939D01*
X155735000Y-107398061D01*
X155695226Y-107198102D01*
X155617205Y-107009744D01*
X155503937Y-106840226D01*
X155359774Y-106696063D01*
X155190256Y-106582795D01*
X155001898Y-106504774D01*
X154801939Y-106465000D01*
X154598061Y-106465000D01*
X154398102Y-106504774D01*
X154209744Y-106582795D01*
X154040226Y-106696063D01*
X153896063Y-106840226D01*
X153782795Y-107009744D01*
X153713244Y-107177653D01*
X151466058Y-107177653D01*
X151422121Y-107133716D01*
X151252603Y-107020448D01*
X151064245Y-106942427D01*
X150864286Y-106902653D01*
X150660408Y-106902653D01*
X150460449Y-106942427D01*
X150272091Y-107020448D01*
X150102573Y-107133716D01*
X149958410Y-107277879D01*
X149845142Y-107447397D01*
X149767121Y-107635755D01*
X149727347Y-107835714D01*
X111800000Y-107835714D01*
X111800000Y-106277595D01*
X111869014Y-106240706D01*
X112095134Y-106055134D01*
X112280706Y-105829014D01*
X112310000Y-105774209D01*
X112339294Y-105829014D01*
X112524866Y-106055134D01*
X112750986Y-106240706D01*
X113008966Y-106378599D01*
X113288889Y-106463513D01*
X113507050Y-106485000D01*
X113652950Y-106485000D01*
X113871111Y-106463513D01*
X114151034Y-106378599D01*
X114409014Y-106240706D01*
X114635134Y-106055134D01*
X114820706Y-105829014D01*
X114850000Y-105774209D01*
X114879294Y-105829014D01*
X115064866Y-106055134D01*
X115290986Y-106240706D01*
X115548966Y-106378599D01*
X115828889Y-106463513D01*
X116047050Y-106485000D01*
X116192950Y-106485000D01*
X116411111Y-106463513D01*
X116691034Y-106378599D01*
X116949014Y-106240706D01*
X117175134Y-106055134D01*
X117360706Y-105829014D01*
X117395201Y-105764477D01*
X117464822Y-105881355D01*
X117659731Y-106097588D01*
X117893080Y-106271641D01*
X118155901Y-106396825D01*
X118303110Y-106441476D01*
X118533000Y-106320155D01*
X118533000Y-105127000D01*
X118513000Y-105127000D01*
X118513000Y-104873000D01*
X118533000Y-104873000D01*
X118533000Y-104853000D01*
X118787000Y-104853000D01*
X118787000Y-104873000D01*
X118807000Y-104873000D01*
X118807000Y-105127000D01*
X118787000Y-105127000D01*
X118787000Y-106320155D01*
X119016890Y-106441476D01*
X119164099Y-106396825D01*
X119426920Y-106271641D01*
X119660269Y-106097588D01*
X119855178Y-105881355D01*
X119924799Y-105764477D01*
X119959294Y-105829014D01*
X120144866Y-106055134D01*
X120370986Y-106240706D01*
X120628966Y-106378599D01*
X120908889Y-106463513D01*
X121127050Y-106485000D01*
X121272950Y-106485000D01*
X121491111Y-106463513D01*
X121771034Y-106378599D01*
X122029014Y-106240706D01*
X122255134Y-106055134D01*
X122440706Y-105829014D01*
X122470000Y-105774209D01*
X122499294Y-105829014D01*
X122684866Y-106055134D01*
X122910986Y-106240706D01*
X123168966Y-106378599D01*
X123448889Y-106463513D01*
X123667050Y-106485000D01*
X123812950Y-106485000D01*
X124031111Y-106463513D01*
X124311034Y-106378599D01*
X124569014Y-106240706D01*
X124795134Y-106055134D01*
X124980706Y-105829014D01*
X125010000Y-105774209D01*
X125039294Y-105829014D01*
X125224866Y-106055134D01*
X125450986Y-106240706D01*
X125708966Y-106378599D01*
X125988889Y-106463513D01*
X126207050Y-106485000D01*
X126352950Y-106485000D01*
X126571111Y-106463513D01*
X126851034Y-106378599D01*
X127109014Y-106240706D01*
X127335134Y-106055134D01*
X127520706Y-105829014D01*
X127550000Y-105774209D01*
X127579294Y-105829014D01*
X127764866Y-106055134D01*
X127990986Y-106240706D01*
X128248966Y-106378599D01*
X128528889Y-106463513D01*
X128747050Y-106485000D01*
X128892950Y-106485000D01*
X129111111Y-106463513D01*
X129391034Y-106378599D01*
X129649014Y-106240706D01*
X129875134Y-106055134D01*
X130060706Y-105829014D01*
X130090000Y-105774209D01*
X130119294Y-105829014D01*
X130304866Y-106055134D01*
X130530986Y-106240706D01*
X130788966Y-106378599D01*
X131068889Y-106463513D01*
X131287050Y-106485000D01*
X131432950Y-106485000D01*
X131651111Y-106463513D01*
X131931034Y-106378599D01*
X132189014Y-106240706D01*
X132415134Y-106055134D01*
X132600706Y-105829014D01*
X132630000Y-105774209D01*
X132659294Y-105829014D01*
X132844866Y-106055134D01*
X133070986Y-106240706D01*
X133328966Y-106378599D01*
X133608889Y-106463513D01*
X133827050Y-106485000D01*
X133972950Y-106485000D01*
X134191111Y-106463513D01*
X134471034Y-106378599D01*
X134729014Y-106240706D01*
X134955134Y-106055134D01*
X135140706Y-105829014D01*
X135170000Y-105774209D01*
X135199294Y-105829014D01*
X135384866Y-106055134D01*
X135610986Y-106240706D01*
X135868966Y-106378599D01*
X136148889Y-106463513D01*
X136367050Y-106485000D01*
X136512950Y-106485000D01*
X136731111Y-106463513D01*
X137011034Y-106378599D01*
X137269014Y-106240706D01*
X137495134Y-106055134D01*
X137680706Y-105829014D01*
X137715201Y-105764477D01*
X137784822Y-105881355D01*
X137979731Y-106097588D01*
X138213080Y-106271641D01*
X138475901Y-106396825D01*
X138623110Y-106441476D01*
X138853000Y-106320155D01*
X138853000Y-105127000D01*
X138833000Y-105127000D01*
X138833000Y-104873000D01*
X138853000Y-104873000D01*
X138853000Y-104853000D01*
X139107000Y-104853000D01*
X139107000Y-104873000D01*
X139127000Y-104873000D01*
X139127000Y-105127000D01*
X139107000Y-105127000D01*
X139107000Y-106320155D01*
X139336890Y-106441476D01*
X139484099Y-106396825D01*
X139746920Y-106271641D01*
X139980269Y-106097588D01*
X140175178Y-105881355D01*
X140244799Y-105764477D01*
X140279294Y-105829014D01*
X140464866Y-106055134D01*
X140690986Y-106240706D01*
X140948966Y-106378599D01*
X141228889Y-106463513D01*
X141447050Y-106485000D01*
X141592950Y-106485000D01*
X141811111Y-106463513D01*
X142091034Y-106378599D01*
X142349014Y-106240706D01*
X142575134Y-106055134D01*
X142760706Y-105829014D01*
X142790000Y-105774209D01*
X142819294Y-105829014D01*
X143004866Y-106055134D01*
X143230986Y-106240706D01*
X143488966Y-106378599D01*
X143768889Y-106463513D01*
X143987050Y-106485000D01*
X144132950Y-106485000D01*
X144351111Y-106463513D01*
X144631034Y-106378599D01*
X144889014Y-106240706D01*
X145115134Y-106055134D01*
X145300706Y-105829014D01*
X145330000Y-105774209D01*
X145359294Y-105829014D01*
X145544866Y-106055134D01*
X145770986Y-106240706D01*
X146028966Y-106378599D01*
X146308889Y-106463513D01*
X146527050Y-106485000D01*
X146672950Y-106485000D01*
X146891111Y-106463513D01*
X147171034Y-106378599D01*
X147429014Y-106240706D01*
X147655134Y-106055134D01*
X147840706Y-105829014D01*
X147870000Y-105774209D01*
X147899294Y-105829014D01*
X148084866Y-106055134D01*
X148310986Y-106240706D01*
X148568966Y-106378599D01*
X148848889Y-106463513D01*
X149067050Y-106485000D01*
X149212950Y-106485000D01*
X149431111Y-106463513D01*
X149711034Y-106378599D01*
X149969014Y-106240706D01*
X150195134Y-106055134D01*
X150380706Y-105829014D01*
X150410000Y-105774209D01*
X150439294Y-105829014D01*
X150624866Y-106055134D01*
X150850986Y-106240706D01*
X151108966Y-106378599D01*
X151388889Y-106463513D01*
X151607050Y-106485000D01*
X151752950Y-106485000D01*
X151971111Y-106463513D01*
X152251034Y-106378599D01*
X152509014Y-106240706D01*
X152735134Y-106055134D01*
X152920706Y-105829014D01*
X152950000Y-105774209D01*
X152979294Y-105829014D01*
X153164866Y-106055134D01*
X153390986Y-106240706D01*
X153648966Y-106378599D01*
X153928889Y-106463513D01*
X154147050Y-106485000D01*
X154292950Y-106485000D01*
X154511111Y-106463513D01*
X154791034Y-106378599D01*
X155049014Y-106240706D01*
X155275134Y-106055134D01*
X155460706Y-105829014D01*
X155495201Y-105764477D01*
X155564822Y-105881355D01*
X155759731Y-106097588D01*
X155993080Y-106271641D01*
X156255901Y-106396825D01*
X156403110Y-106441476D01*
X156633000Y-106320155D01*
X156633000Y-105127000D01*
X156887000Y-105127000D01*
X156887000Y-106320155D01*
X157116890Y-106441476D01*
X157264099Y-106396825D01*
X157526920Y-106271641D01*
X157760269Y-106097588D01*
X157955178Y-105881355D01*
X158104157Y-105631252D01*
X158201481Y-105356891D01*
X158080814Y-105127000D01*
X156887000Y-105127000D01*
X156633000Y-105127000D01*
X156613000Y-105127000D01*
X156613000Y-104873000D01*
X156633000Y-104873000D01*
X156633000Y-104853000D01*
X156887000Y-104853000D01*
X156887000Y-104873000D01*
X158080814Y-104873000D01*
X158201481Y-104643109D01*
X158104157Y-104368748D01*
X157955178Y-104118645D01*
X157760269Y-103902412D01*
X157531244Y-103731584D01*
X157589014Y-103700706D01*
X157815134Y-103515134D01*
X158000706Y-103289014D01*
X158138599Y-103031034D01*
X158223513Y-102751111D01*
X158252185Y-102460000D01*
X158223513Y-102168889D01*
X158138599Y-101888966D01*
X158000706Y-101630986D01*
X157815134Y-101404866D01*
X157589014Y-101219294D01*
X157331034Y-101081401D01*
X157051111Y-100996487D01*
X156832950Y-100975000D01*
X156687050Y-100975000D01*
X156468889Y-100996487D01*
X156188966Y-101081401D01*
X155930986Y-101219294D01*
X155704866Y-101404866D01*
X155519294Y-101630986D01*
X155490000Y-101685791D01*
X155460706Y-101630986D01*
X155275134Y-101404866D01*
X155049014Y-101219294D01*
X154791034Y-101081401D01*
X154511111Y-100996487D01*
X154292950Y-100975000D01*
X154147050Y-100975000D01*
X153928889Y-100996487D01*
X153648966Y-101081401D01*
X153390986Y-101219294D01*
X153164866Y-101404866D01*
X152979294Y-101630986D01*
X152950000Y-101685791D01*
X152920706Y-101630986D01*
X152735134Y-101404866D01*
X152509014Y-101219294D01*
X152251034Y-101081401D01*
X151971111Y-100996487D01*
X151752950Y-100975000D01*
X151607050Y-100975000D01*
X151388889Y-100996487D01*
X151108966Y-101081401D01*
X150850986Y-101219294D01*
X150624866Y-101404866D01*
X150439294Y-101630986D01*
X150404799Y-101695523D01*
X150335178Y-101578645D01*
X150140269Y-101362412D01*
X149906920Y-101188359D01*
X149644099Y-101063175D01*
X149496890Y-101018524D01*
X149267000Y-101139845D01*
X149267000Y-102333000D01*
X149287000Y-102333000D01*
X149287000Y-102587000D01*
X149267000Y-102587000D01*
X149267000Y-102607000D01*
X149013000Y-102607000D01*
X149013000Y-102587000D01*
X148993000Y-102587000D01*
X148993000Y-102333000D01*
X149013000Y-102333000D01*
X149013000Y-101139845D01*
X148783110Y-101018524D01*
X148635901Y-101063175D01*
X148373080Y-101188359D01*
X148139731Y-101362412D01*
X147944822Y-101578645D01*
X147875201Y-101695523D01*
X147840706Y-101630986D01*
X147655134Y-101404866D01*
X147429014Y-101219294D01*
X147171034Y-101081401D01*
X146891111Y-100996487D01*
X146672950Y-100975000D01*
X146527050Y-100975000D01*
X146308889Y-100996487D01*
X146028966Y-101081401D01*
X145770986Y-101219294D01*
X145544866Y-101404866D01*
X145359294Y-101630986D01*
X145324799Y-101695523D01*
X145255178Y-101578645D01*
X145060269Y-101362412D01*
X144826920Y-101188359D01*
X144564099Y-101063175D01*
X144416890Y-101018524D01*
X144187000Y-101139845D01*
X144187000Y-102333000D01*
X144207000Y-102333000D01*
X144207000Y-102587000D01*
X144187000Y-102587000D01*
X144187000Y-102607000D01*
X143933000Y-102607000D01*
X143933000Y-102587000D01*
X143913000Y-102587000D01*
X143913000Y-102333000D01*
X143933000Y-102333000D01*
X143933000Y-101139845D01*
X143703110Y-101018524D01*
X143555901Y-101063175D01*
X143293080Y-101188359D01*
X143059731Y-101362412D01*
X142864822Y-101578645D01*
X142795201Y-101695523D01*
X142760706Y-101630986D01*
X142575134Y-101404866D01*
X142349014Y-101219294D01*
X142091034Y-101081401D01*
X141811111Y-100996487D01*
X141592950Y-100975000D01*
X141447050Y-100975000D01*
X141228889Y-100996487D01*
X140948966Y-101081401D01*
X140690986Y-101219294D01*
X140464866Y-101404866D01*
X140279294Y-101630986D01*
X140250000Y-101685791D01*
X140220706Y-101630986D01*
X140035134Y-101404866D01*
X139809014Y-101219294D01*
X139551034Y-101081401D01*
X139271111Y-100996487D01*
X139052950Y-100975000D01*
X138907050Y-100975000D01*
X138688889Y-100996487D01*
X138408966Y-101081401D01*
X138150986Y-101219294D01*
X137924866Y-101404866D01*
X137739294Y-101630986D01*
X137710000Y-101685791D01*
X137680706Y-101630986D01*
X137495134Y-101404866D01*
X137269014Y-101219294D01*
X137011034Y-101081401D01*
X136731111Y-100996487D01*
X136512950Y-100975000D01*
X136367050Y-100975000D01*
X136148889Y-100996487D01*
X135868966Y-101081401D01*
X135610986Y-101219294D01*
X135384866Y-101404866D01*
X135199294Y-101630986D01*
X135170000Y-101685791D01*
X135140706Y-101630986D01*
X134955134Y-101404866D01*
X134729014Y-101219294D01*
X134471034Y-101081401D01*
X134191111Y-100996487D01*
X133972950Y-100975000D01*
X133827050Y-100975000D01*
X133608889Y-100996487D01*
X133328966Y-101081401D01*
X133070986Y-101219294D01*
X132844866Y-101404866D01*
X132659294Y-101630986D01*
X132624799Y-101695523D01*
X132555178Y-101578645D01*
X132360269Y-101362412D01*
X132126920Y-101188359D01*
X131864099Y-101063175D01*
X131716890Y-101018524D01*
X131487000Y-101139845D01*
X131487000Y-102333000D01*
X131507000Y-102333000D01*
X131507000Y-102587000D01*
X131487000Y-102587000D01*
X131487000Y-102607000D01*
X131233000Y-102607000D01*
X131233000Y-102587000D01*
X131213000Y-102587000D01*
X131213000Y-102333000D01*
X131233000Y-102333000D01*
X131233000Y-101139845D01*
X131003110Y-101018524D01*
X130855901Y-101063175D01*
X130593080Y-101188359D01*
X130359731Y-101362412D01*
X130164822Y-101578645D01*
X130095201Y-101695523D01*
X130060706Y-101630986D01*
X129875134Y-101404866D01*
X129649014Y-101219294D01*
X129391034Y-101081401D01*
X129111111Y-100996487D01*
X128892950Y-100975000D01*
X128747050Y-100975000D01*
X128528889Y-100996487D01*
X128248966Y-101081401D01*
X127990986Y-101219294D01*
X127764866Y-101404866D01*
X127579294Y-101630986D01*
X127550000Y-101685791D01*
X127520706Y-101630986D01*
X127335134Y-101404866D01*
X127109014Y-101219294D01*
X126851034Y-101081401D01*
X126571111Y-100996487D01*
X126352950Y-100975000D01*
X126207050Y-100975000D01*
X125988889Y-100996487D01*
X125708966Y-101081401D01*
X125450986Y-101219294D01*
X125224866Y-101404866D01*
X125039294Y-101630986D01*
X125004799Y-101695523D01*
X124935178Y-101578645D01*
X124740269Y-101362412D01*
X124506920Y-101188359D01*
X124244099Y-101063175D01*
X124096890Y-101018524D01*
X123867000Y-101139845D01*
X123867000Y-102333000D01*
X123887000Y-102333000D01*
X123887000Y-102587000D01*
X123867000Y-102587000D01*
X123867000Y-102607000D01*
X123613000Y-102607000D01*
X123613000Y-102587000D01*
X123593000Y-102587000D01*
X123593000Y-102333000D01*
X123613000Y-102333000D01*
X123613000Y-101139845D01*
X123383110Y-101018524D01*
X123235901Y-101063175D01*
X123150109Y-101104039D01*
X123134974Y-101075724D01*
X123040001Y-100959999D01*
X123011004Y-100936202D01*
X122335000Y-100260199D01*
X122335000Y-100198061D01*
X122295226Y-99998102D01*
X122217205Y-99809744D01*
X122150558Y-99710000D01*
X161965279Y-99710000D01*
X162444134Y-99756953D01*
X162871355Y-99885938D01*
X163265384Y-100095446D01*
X163611214Y-100377499D01*
X163895673Y-100721351D01*
X164107929Y-101113910D01*
X164239892Y-101540213D01*
X164290000Y-102016964D01*
X164290000Y-126733443D01*
X164234000Y-126727928D01*
X162769750Y-126731000D01*
X162611000Y-126889750D01*
X162611000Y-128989000D01*
X162631000Y-128989000D01*
X162631000Y-129243000D01*
X162611000Y-129243000D01*
X162611000Y-131342250D01*
X162769750Y-131501000D01*
X164234000Y-131504072D01*
X164290000Y-131498557D01*
X164290001Y-150139335D01*
X163977177Y-149826511D01*
X163381818Y-149428705D01*
X162720290Y-149154691D01*
X162282349Y-149067579D01*
X162359768Y-148990160D01*
X162244840Y-148875232D01*
X162545044Y-148737276D01*
X162720882Y-148388033D01*
X162825207Y-148011196D01*
X162854009Y-147621247D01*
X162806184Y-147233172D01*
X162683568Y-146861884D01*
X162545044Y-146602724D01*
X162244838Y-146464767D01*
X161039605Y-147670000D01*
X161053748Y-147684143D01*
X160874143Y-147863748D01*
X160860000Y-147849605D01*
X159654767Y-149054838D01*
X159792724Y-149355044D01*
X159938645Y-149428513D01*
X159938182Y-149428705D01*
X159342823Y-149826511D01*
X158836511Y-150332823D01*
X158438705Y-150928182D01*
X158164691Y-151589710D01*
X158025000Y-152291984D01*
X158025000Y-153008016D01*
X158164691Y-153710290D01*
X158438705Y-154371818D01*
X158836511Y-154967177D01*
X159342823Y-155473489D01*
X159938182Y-155871295D01*
X160599710Y-156145309D01*
X161301984Y-156285000D01*
X162018016Y-156285000D01*
X162720290Y-156145309D01*
X163381818Y-155871295D01*
X163977177Y-155473489D01*
X164290001Y-155160665D01*
X164290001Y-170465269D01*
X164243048Y-170944133D01*
X164114063Y-171371353D01*
X163904554Y-171765384D01*
X163622501Y-172111214D01*
X163278651Y-172395672D01*
X162886093Y-172607927D01*
X162459788Y-172739891D01*
X161983036Y-172790000D01*
X152509065Y-172790000D01*
X152722012Y-172471302D01*
X152882953Y-172082756D01*
X152965000Y-171670279D01*
X152965000Y-171249721D01*
X152882953Y-170837244D01*
X152722012Y-170448698D01*
X152488363Y-170099017D01*
X152190983Y-169801637D01*
X151841302Y-169567988D01*
X151452756Y-169407047D01*
X151040279Y-169325000D01*
X150619721Y-169325000D01*
X150207244Y-169407047D01*
X149818698Y-169567988D01*
X149469017Y-169801637D01*
X149171637Y-170099017D01*
X148937988Y-170448698D01*
X148777047Y-170837244D01*
X148695000Y-171249721D01*
X148695000Y-171670279D01*
X148777047Y-172082756D01*
X148937988Y-172471302D01*
X149150935Y-172790000D01*
X103034721Y-172790000D01*
X102555867Y-172743048D01*
X102128647Y-172614063D01*
X101734616Y-172404554D01*
X101388786Y-172122501D01*
X101104328Y-171778651D01*
X100892073Y-171386093D01*
X100760109Y-170959788D01*
X100710000Y-170483036D01*
X100710000Y-166943439D01*
X107215000Y-166943439D01*
X107215000Y-167196561D01*
X107264381Y-167444821D01*
X107361247Y-167678676D01*
X107501875Y-167889140D01*
X107680860Y-168068125D01*
X107891324Y-168208753D01*
X108125179Y-168305619D01*
X108373439Y-168355000D01*
X108626561Y-168355000D01*
X108874821Y-168305619D01*
X109108676Y-168208753D01*
X109319140Y-168068125D01*
X109498125Y-167889140D01*
X109638753Y-167678676D01*
X109735619Y-167444821D01*
X109785000Y-167196561D01*
X109785000Y-167150000D01*
X146771928Y-167150000D01*
X146771928Y-168650000D01*
X146784188Y-168774482D01*
X146820498Y-168894180D01*
X146879463Y-169004494D01*
X146958815Y-169101185D01*
X147055506Y-169180537D01*
X147165820Y-169239502D01*
X147285518Y-169275812D01*
X147410000Y-169288072D01*
X148910000Y-169288072D01*
X149034482Y-169275812D01*
X149154180Y-169239502D01*
X149264494Y-169180537D01*
X149361185Y-169101185D01*
X149440537Y-169004494D01*
X149499502Y-168894180D01*
X149535812Y-168774482D01*
X149548072Y-168650000D01*
X149548072Y-167150000D01*
X149535812Y-167025518D01*
X149499502Y-166905820D01*
X149440537Y-166795506D01*
X149361185Y-166698815D01*
X149264494Y-166619463D01*
X149154180Y-166560498D01*
X149034482Y-166524188D01*
X148926517Y-166513555D01*
X149042886Y-166435799D01*
X149235799Y-166242886D01*
X149387371Y-166016043D01*
X149491775Y-165763989D01*
X149545000Y-165496411D01*
X149545000Y-165223589D01*
X149491775Y-164956011D01*
X149387371Y-164703957D01*
X149235799Y-164477114D01*
X149103685Y-164345000D01*
X149235799Y-164212886D01*
X149387371Y-163986043D01*
X149491775Y-163733989D01*
X149545000Y-163466411D01*
X149545000Y-163193589D01*
X149491775Y-162926011D01*
X149387371Y-162673957D01*
X149235799Y-162447114D01*
X149042886Y-162254201D01*
X148816043Y-162102629D01*
X148713127Y-162060000D01*
X148816043Y-162017371D01*
X149042886Y-161865799D01*
X149235799Y-161672886D01*
X149387371Y-161446043D01*
X149491775Y-161193989D01*
X149545000Y-160926411D01*
X149545000Y-160653589D01*
X149491775Y-160386011D01*
X149387371Y-160133957D01*
X149235799Y-159907114D01*
X149042886Y-159714201D01*
X148816043Y-159562629D01*
X148563989Y-159458225D01*
X148296411Y-159405000D01*
X148023589Y-159405000D01*
X147756011Y-159458225D01*
X147503957Y-159562629D01*
X147277114Y-159714201D01*
X147084201Y-159907114D01*
X146932629Y-160133957D01*
X146828225Y-160386011D01*
X146775000Y-160653589D01*
X146775000Y-160926411D01*
X146828225Y-161193989D01*
X146932629Y-161446043D01*
X147084201Y-161672886D01*
X147277114Y-161865799D01*
X147503957Y-162017371D01*
X147606873Y-162060000D01*
X147503957Y-162102629D01*
X147277114Y-162254201D01*
X147084201Y-162447114D01*
X146932629Y-162673957D01*
X146828225Y-162926011D01*
X146775000Y-163193589D01*
X146775000Y-163466411D01*
X146828225Y-163733989D01*
X146932629Y-163986043D01*
X147084201Y-164212886D01*
X147216315Y-164345000D01*
X147084201Y-164477114D01*
X146932629Y-164703957D01*
X146828225Y-164956011D01*
X146775000Y-165223589D01*
X146775000Y-165496411D01*
X146828225Y-165763989D01*
X146932629Y-166016043D01*
X147084201Y-166242886D01*
X147277114Y-166435799D01*
X147393483Y-166513555D01*
X147285518Y-166524188D01*
X147165820Y-166560498D01*
X147055506Y-166619463D01*
X146958815Y-166698815D01*
X146879463Y-166795506D01*
X146820498Y-166905820D01*
X146784188Y-167025518D01*
X146771928Y-167150000D01*
X109785000Y-167150000D01*
X109785000Y-166943439D01*
X109735619Y-166695179D01*
X109638753Y-166461324D01*
X109498125Y-166250860D01*
X109319140Y-166071875D01*
X109108676Y-165931247D01*
X108874821Y-165834381D01*
X108626561Y-165785000D01*
X108373439Y-165785000D01*
X108125179Y-165834381D01*
X107891324Y-165931247D01*
X107680860Y-166071875D01*
X107501875Y-166250860D01*
X107361247Y-166461324D01*
X107264381Y-166695179D01*
X107215000Y-166943439D01*
X100710000Y-166943439D01*
X100710000Y-159458212D01*
X107365000Y-159458212D01*
X107365000Y-159681788D01*
X107408617Y-159901067D01*
X107494176Y-160107624D01*
X107618388Y-160293520D01*
X107776480Y-160451612D01*
X107962376Y-160575824D01*
X108168933Y-160661383D01*
X108388212Y-160705000D01*
X108611788Y-160705000D01*
X108831067Y-160661383D01*
X109037624Y-160575824D01*
X109223520Y-160451612D01*
X109381612Y-160293520D01*
X109505824Y-160107624D01*
X109591383Y-159901067D01*
X109635000Y-159681788D01*
X109635000Y-159458212D01*
X109591383Y-159238933D01*
X109505824Y-159032376D01*
X109381612Y-158846480D01*
X109223520Y-158688388D01*
X109037624Y-158564176D01*
X108831067Y-158478617D01*
X108611788Y-158435000D01*
X108388212Y-158435000D01*
X108168933Y-158478617D01*
X107962376Y-158564176D01*
X107776480Y-158688388D01*
X107618388Y-158846480D01*
X107494176Y-159032376D01*
X107408617Y-159238933D01*
X107365000Y-159458212D01*
X100710000Y-159458212D01*
X100710000Y-157529721D01*
X148695000Y-157529721D01*
X148695000Y-157950279D01*
X148777047Y-158362756D01*
X148937988Y-158751302D01*
X149171637Y-159100983D01*
X149469017Y-159398363D01*
X149818698Y-159632012D01*
X150207244Y-159792953D01*
X150619721Y-159875000D01*
X151040279Y-159875000D01*
X151452756Y-159792953D01*
X151841302Y-159632012D01*
X152190983Y-159398363D01*
X152488363Y-159100983D01*
X152722012Y-158751302D01*
X152882953Y-158362756D01*
X152965000Y-157950279D01*
X152965000Y-157529721D01*
X152882953Y-157117244D01*
X152722012Y-156728698D01*
X152488363Y-156379017D01*
X152190983Y-156081637D01*
X151841302Y-155847988D01*
X151452756Y-155687047D01*
X151040279Y-155605000D01*
X150619721Y-155605000D01*
X150207244Y-155687047D01*
X149818698Y-155847988D01*
X149469017Y-156081637D01*
X149171637Y-156379017D01*
X148937988Y-156728698D01*
X148777047Y-157117244D01*
X148695000Y-157529721D01*
X100710000Y-157529721D01*
X100710000Y-154777840D01*
X100836511Y-154967177D01*
X101342823Y-155473489D01*
X101938182Y-155871295D01*
X102599710Y-156145309D01*
X103301984Y-156285000D01*
X104018016Y-156285000D01*
X104720290Y-156145309D01*
X105381818Y-155871295D01*
X105977177Y-155473489D01*
X106483489Y-154967177D01*
X106881295Y-154371818D01*
X107155309Y-153710290D01*
X107295000Y-153008016D01*
X107295000Y-152291984D01*
X107276704Y-152199999D01*
X109936325Y-152199999D01*
X109940002Y-152237331D01*
X109940001Y-154912678D01*
X109936325Y-154950001D01*
X109940001Y-154987323D01*
X109940001Y-154987333D01*
X109950998Y-155098986D01*
X109973837Y-155174276D01*
X109994455Y-155242247D01*
X110065027Y-155374277D01*
X110073442Y-155384531D01*
X110100932Y-155522729D01*
X110171414Y-155692889D01*
X110273738Y-155846028D01*
X110403972Y-155976262D01*
X110557111Y-156078586D01*
X110727271Y-156149068D01*
X110907911Y-156185000D01*
X111092089Y-156185000D01*
X111272729Y-156149068D01*
X111442889Y-156078586D01*
X111596028Y-155976262D01*
X111726262Y-155846028D01*
X111828586Y-155692889D01*
X111899068Y-155522729D01*
X111935000Y-155342089D01*
X111935000Y-155157911D01*
X111899068Y-154977271D01*
X111828586Y-154807111D01*
X111728821Y-154657802D01*
X111772729Y-154649068D01*
X111942889Y-154578586D01*
X111970705Y-154560000D01*
X112334476Y-154560000D01*
X112315000Y-154657911D01*
X112315000Y-154842089D01*
X112350932Y-155022729D01*
X112421414Y-155192889D01*
X112523738Y-155346028D01*
X112653972Y-155476262D01*
X112807111Y-155578586D01*
X112977271Y-155649068D01*
X113157911Y-155685000D01*
X113342089Y-155685000D01*
X113522729Y-155649068D01*
X113692889Y-155578586D01*
X113846028Y-155476262D01*
X113912290Y-155410000D01*
X118562678Y-155410000D01*
X118600000Y-155413676D01*
X118637322Y-155410000D01*
X118637333Y-155410000D01*
X118748986Y-155399003D01*
X118892247Y-155355546D01*
X119024276Y-155284974D01*
X119140001Y-155190001D01*
X119163804Y-155160997D01*
X119260998Y-155063803D01*
X119290001Y-155040001D01*
X119384974Y-154924276D01*
X119455546Y-154792247D01*
X119499003Y-154648986D01*
X119510000Y-154537333D01*
X119510000Y-154537324D01*
X119513676Y-154500001D01*
X119510000Y-154462678D01*
X119510000Y-154125000D01*
X129386928Y-154125000D01*
X129386928Y-155875000D01*
X129399188Y-155999482D01*
X129435498Y-156119180D01*
X129494463Y-156229494D01*
X129573815Y-156326185D01*
X129670506Y-156405537D01*
X129780820Y-156464502D01*
X129900518Y-156500812D01*
X130025000Y-156513072D01*
X131775000Y-156513072D01*
X131899482Y-156500812D01*
X132019180Y-156464502D01*
X132129494Y-156405537D01*
X132226185Y-156326185D01*
X132305537Y-156229494D01*
X132364502Y-156119180D01*
X132400812Y-155999482D01*
X132413072Y-155875000D01*
X132413072Y-154125000D01*
X132400812Y-154000518D01*
X132364502Y-153880820D01*
X132305537Y-153770506D01*
X132226185Y-153673815D01*
X132129494Y-153594463D01*
X132019180Y-153535498D01*
X132004436Y-153531026D01*
X132072893Y-153462569D01*
X132238144Y-153215253D01*
X132351971Y-152940451D01*
X132410000Y-152648722D01*
X132410000Y-152351278D01*
X132351971Y-152059549D01*
X132238144Y-151784747D01*
X132072893Y-151537431D01*
X131862569Y-151327107D01*
X131747170Y-151250000D01*
X131862569Y-151172893D01*
X132072893Y-150962569D01*
X132238144Y-150715253D01*
X132351971Y-150440451D01*
X132410000Y-150148722D01*
X132410000Y-149851278D01*
X132351971Y-149559549D01*
X132238144Y-149284747D01*
X132072893Y-149037431D01*
X131862569Y-148827107D01*
X131747170Y-148750000D01*
X131862569Y-148672893D01*
X132072893Y-148462569D01*
X132238144Y-148215253D01*
X132351971Y-147940451D01*
X132410000Y-147648722D01*
X132410000Y-147351278D01*
X132351971Y-147059549D01*
X132238144Y-146784747D01*
X132072893Y-146537431D01*
X131862569Y-146327107D01*
X131615253Y-146161856D01*
X131340451Y-146048029D01*
X131048722Y-145990000D01*
X130751278Y-145990000D01*
X130459549Y-146048029D01*
X130184747Y-146161856D01*
X129937431Y-146327107D01*
X129727107Y-146537431D01*
X129561856Y-146784747D01*
X129448029Y-147059549D01*
X129390000Y-147351278D01*
X129390000Y-147648722D01*
X129448029Y-147940451D01*
X129561856Y-148215253D01*
X129727107Y-148462569D01*
X129937431Y-148672893D01*
X130052830Y-148750000D01*
X129937431Y-148827107D01*
X129727107Y-149037431D01*
X129561856Y-149284747D01*
X129448029Y-149559549D01*
X129390000Y-149851278D01*
X129390000Y-150148722D01*
X129448029Y-150440451D01*
X129561856Y-150715253D01*
X129727107Y-150962569D01*
X129937431Y-151172893D01*
X130052830Y-151250000D01*
X129937431Y-151327107D01*
X129727107Y-151537431D01*
X129561856Y-151784747D01*
X129448029Y-152059549D01*
X129390000Y-152351278D01*
X129390000Y-152648722D01*
X129448029Y-152940451D01*
X129561856Y-153215253D01*
X129727107Y-153462569D01*
X129795564Y-153531026D01*
X129780820Y-153535498D01*
X129670506Y-153594463D01*
X129573815Y-153673815D01*
X129494463Y-153770506D01*
X129435498Y-153880820D01*
X129399188Y-154000518D01*
X129386928Y-154125000D01*
X119510000Y-154125000D01*
X119510000Y-153045535D01*
X119578586Y-152942889D01*
X119649068Y-152772729D01*
X119685000Y-152592089D01*
X119685000Y-152407911D01*
X119649068Y-152227271D01*
X119578586Y-152057111D01*
X119476262Y-151903972D01*
X119346028Y-151773738D01*
X119192889Y-151671414D01*
X119022729Y-151600932D01*
X118842089Y-151565000D01*
X118657911Y-151565000D01*
X118477271Y-151600932D01*
X118307111Y-151671414D01*
X118153972Y-151773738D01*
X118023738Y-151903972D01*
X117921414Y-152057111D01*
X117850932Y-152227271D01*
X117815000Y-152407911D01*
X117815000Y-152592089D01*
X117850932Y-152772729D01*
X117889152Y-152865000D01*
X117807911Y-152865000D01*
X117627271Y-152900932D01*
X117457111Y-152971414D01*
X117354465Y-153040000D01*
X112112290Y-153040000D01*
X112096028Y-153023738D01*
X111942889Y-152921414D01*
X111772729Y-152850932D01*
X111592089Y-152815000D01*
X111460001Y-152815000D01*
X111460001Y-152514800D01*
X114051649Y-149923153D01*
X114172729Y-149899068D01*
X114342889Y-149828586D01*
X114496028Y-149726262D01*
X114626262Y-149596028D01*
X114728586Y-149442889D01*
X114799068Y-149272729D01*
X114835000Y-149092089D01*
X114835000Y-148907911D01*
X114799068Y-148727271D01*
X114728586Y-148557111D01*
X114626262Y-148403972D01*
X114496028Y-148273738D01*
X114342889Y-148171414D01*
X114172729Y-148100932D01*
X113992089Y-148065000D01*
X113807911Y-148065000D01*
X113627271Y-148100932D01*
X113457111Y-148171414D01*
X113303972Y-148273738D01*
X113173738Y-148403972D01*
X113071414Y-148557111D01*
X113000932Y-148727271D01*
X112976847Y-148848351D01*
X110188999Y-151636200D01*
X110160001Y-151659998D01*
X110136203Y-151688996D01*
X110136202Y-151688997D01*
X110065027Y-151775723D01*
X109994455Y-151907753D01*
X109950999Y-152051014D01*
X109936325Y-152199999D01*
X107276704Y-152199999D01*
X107155309Y-151589710D01*
X106881295Y-150928182D01*
X106483489Y-150332823D01*
X105977177Y-149826511D01*
X105381818Y-149428705D01*
X104720290Y-149154691D01*
X104018016Y-149015000D01*
X103301984Y-149015000D01*
X102599710Y-149154691D01*
X101938182Y-149428705D01*
X101342823Y-149826511D01*
X100836511Y-150332823D01*
X100710000Y-150522160D01*
X100710000Y-143157911D01*
X127065000Y-143157911D01*
X127065000Y-143342089D01*
X127100932Y-143522729D01*
X127171414Y-143692889D01*
X127240001Y-143795536D01*
X127240000Y-144454464D01*
X127171414Y-144557111D01*
X127100932Y-144727271D01*
X127065000Y-144907911D01*
X127065000Y-145092089D01*
X127100932Y-145272729D01*
X127171414Y-145442889D01*
X127273738Y-145596028D01*
X127403972Y-145726262D01*
X127557111Y-145828586D01*
X127727271Y-145899068D01*
X127907911Y-145935000D01*
X128092089Y-145935000D01*
X128272729Y-145899068D01*
X128442889Y-145828586D01*
X128596028Y-145726262D01*
X128726262Y-145596028D01*
X128828586Y-145442889D01*
X128899068Y-145272729D01*
X128935000Y-145092089D01*
X128935000Y-144907911D01*
X128899068Y-144727271D01*
X128828586Y-144557111D01*
X128760000Y-144454465D01*
X128760000Y-143795535D01*
X128828586Y-143692889D01*
X128899068Y-143522729D01*
X128935000Y-143342089D01*
X128935000Y-143157911D01*
X128899068Y-142977271D01*
X128828586Y-142807111D01*
X128822539Y-142798061D01*
X134065000Y-142798061D01*
X134065000Y-143001939D01*
X134104774Y-143201898D01*
X134182795Y-143390256D01*
X134296063Y-143559774D01*
X134340000Y-143603711D01*
X134340001Y-148812668D01*
X134336324Y-148850000D01*
X134340001Y-148887333D01*
X134350998Y-148998986D01*
X134354339Y-149010000D01*
X134394454Y-149142246D01*
X134465026Y-149274276D01*
X134536201Y-149361002D01*
X134560000Y-149390001D01*
X134588998Y-149413799D01*
X136186205Y-151011008D01*
X136209999Y-151040001D01*
X136238992Y-151063795D01*
X136238996Y-151063799D01*
X136309685Y-151121811D01*
X136325724Y-151134974D01*
X136457753Y-151205546D01*
X136601014Y-151249003D01*
X136712667Y-151260000D01*
X136712676Y-151260000D01*
X136749999Y-151263676D01*
X136787322Y-151260000D01*
X137224130Y-151260000D01*
X137309744Y-151317205D01*
X137498102Y-151395226D01*
X137698061Y-151435000D01*
X137901939Y-151435000D01*
X138101898Y-151395226D01*
X138290256Y-151317205D01*
X138459774Y-151203937D01*
X138603937Y-151059774D01*
X138717205Y-150890256D01*
X138795226Y-150701898D01*
X138804252Y-150656518D01*
X143806788Y-150656518D01*
X143812279Y-150712269D01*
X143812279Y-151235766D01*
X143806788Y-151291518D01*
X143828702Y-151514017D01*
X143893603Y-151727965D01*
X143989701Y-151907753D01*
X143998995Y-151925141D01*
X144090983Y-152037228D01*
X143998995Y-152149315D01*
X143893603Y-152346491D01*
X143828702Y-152560439D01*
X143806788Y-152782938D01*
X143812279Y-152838690D01*
X143812279Y-153362187D01*
X143806788Y-153417938D01*
X143812279Y-153473689D01*
X143812279Y-153473690D01*
X143828702Y-153640437D01*
X143893603Y-153854385D01*
X143998996Y-154051561D01*
X144140831Y-154224387D01*
X144184139Y-154259929D01*
X144192426Y-154268216D01*
X144321947Y-154374512D01*
X144519123Y-154479904D01*
X144733071Y-154544805D01*
X144955569Y-154566719D01*
X145178068Y-154544805D01*
X145392015Y-154479904D01*
X145589191Y-154374512D01*
X145762018Y-154232677D01*
X145903853Y-154059850D01*
X145979706Y-153917938D01*
X150972030Y-153917938D01*
X151138777Y-153901515D01*
X151352725Y-153836614D01*
X151549901Y-153731222D01*
X151722727Y-153589387D01*
X151864562Y-153416561D01*
X151969954Y-153219385D01*
X152034855Y-153005437D01*
X152056769Y-152782938D01*
X152034855Y-152560439D01*
X151969954Y-152346491D01*
X151864562Y-152149315D01*
X151772574Y-152037228D01*
X151864562Y-151925141D01*
X151969954Y-151727965D01*
X152034855Y-151514017D01*
X152056769Y-151291518D01*
X152034855Y-151069019D01*
X151969954Y-150855071D01*
X151864562Y-150657895D01*
X151722727Y-150485069D01*
X151549901Y-150343234D01*
X151352725Y-150237842D01*
X151138777Y-150172941D01*
X150972030Y-150156518D01*
X145979703Y-150156518D01*
X145903851Y-150014607D01*
X145762016Y-149841781D01*
X145589190Y-149699946D01*
X145392014Y-149594554D01*
X145178066Y-149529653D01*
X144955567Y-149507739D01*
X144733069Y-149529653D01*
X144519121Y-149594554D01*
X144321945Y-149699946D01*
X144192425Y-149806241D01*
X144184139Y-149814527D01*
X144140831Y-149850069D01*
X143998996Y-150022895D01*
X143893603Y-150220071D01*
X143828702Y-150434019D01*
X143822013Y-150501939D01*
X143806788Y-150656518D01*
X138804252Y-150656518D01*
X138835000Y-150501939D01*
X138835000Y-150298061D01*
X138795226Y-150098102D01*
X138717205Y-149909744D01*
X138603937Y-149740226D01*
X138459774Y-149596063D01*
X138290256Y-149482795D01*
X138101898Y-149404774D01*
X137901939Y-149365000D01*
X137698061Y-149365000D01*
X137631318Y-149378276D01*
X137653676Y-149336447D01*
X137718577Y-149122499D01*
X137735000Y-148955752D01*
X137735000Y-147718753D01*
X158865991Y-147718753D01*
X158913816Y-148106828D01*
X159036432Y-148478116D01*
X159174956Y-148737276D01*
X159475162Y-148875233D01*
X160680395Y-147670000D01*
X159475162Y-146464767D01*
X159174956Y-146602724D01*
X158999118Y-146951967D01*
X158894793Y-147328804D01*
X158865991Y-147718753D01*
X137735000Y-147718753D01*
X137735000Y-146285162D01*
X159654767Y-146285162D01*
X160860000Y-147490395D01*
X162065233Y-146285162D01*
X161927276Y-145984956D01*
X161578033Y-145809118D01*
X161201196Y-145704793D01*
X160811247Y-145675991D01*
X160423172Y-145723816D01*
X160051884Y-145846432D01*
X159792724Y-145984956D01*
X159654767Y-146285162D01*
X137735000Y-146285162D01*
X137735000Y-142644248D01*
X137718577Y-142477501D01*
X137653676Y-142263553D01*
X137548284Y-142066377D01*
X137406449Y-141893551D01*
X137233623Y-141751716D01*
X137036447Y-141646324D01*
X136822499Y-141581423D01*
X136600000Y-141559509D01*
X136377502Y-141581423D01*
X136163554Y-141646324D01*
X135966378Y-141751716D01*
X135793552Y-141893551D01*
X135674251Y-142038919D01*
X135590256Y-141982795D01*
X135401898Y-141904774D01*
X135201939Y-141865000D01*
X134998061Y-141865000D01*
X134798102Y-141904774D01*
X134609744Y-141982795D01*
X134440226Y-142096063D01*
X134296063Y-142240226D01*
X134182795Y-142409744D01*
X134104774Y-142598102D01*
X134065000Y-142798061D01*
X128822539Y-142798061D01*
X128726262Y-142653972D01*
X128596028Y-142523738D01*
X128442889Y-142421414D01*
X128272729Y-142350932D01*
X128092089Y-142315000D01*
X127907911Y-142315000D01*
X127727271Y-142350932D01*
X127557111Y-142421414D01*
X127403972Y-142523738D01*
X127273738Y-142653972D01*
X127171414Y-142807111D01*
X127100932Y-142977271D01*
X127065000Y-143157911D01*
X100710000Y-143157911D01*
X100710000Y-140850000D01*
X129411928Y-140850000D01*
X129424188Y-140974482D01*
X129460498Y-141094180D01*
X129519463Y-141204494D01*
X129598815Y-141301185D01*
X129695506Y-141380537D01*
X129805820Y-141439502D01*
X129925518Y-141475812D01*
X130050000Y-141488072D01*
X130614250Y-141485000D01*
X130773000Y-141326250D01*
X130773000Y-140377000D01*
X131027000Y-140377000D01*
X131027000Y-141326250D01*
X131185750Y-141485000D01*
X131750000Y-141488072D01*
X131874482Y-141475812D01*
X131994180Y-141439502D01*
X132104494Y-141380537D01*
X132201185Y-141301185D01*
X132280537Y-141204494D01*
X132339502Y-141094180D01*
X132375812Y-140974482D01*
X132388072Y-140850000D01*
X132385000Y-140535750D01*
X132226250Y-140377000D01*
X131027000Y-140377000D01*
X130773000Y-140377000D01*
X129573750Y-140377000D01*
X129415000Y-140535750D01*
X129411928Y-140850000D01*
X100710000Y-140850000D01*
X100710000Y-140262604D01*
X154765000Y-140262604D01*
X154765000Y-140537396D01*
X154818609Y-140806907D01*
X154923767Y-141060780D01*
X155076433Y-141289261D01*
X155270739Y-141483567D01*
X155499220Y-141636233D01*
X155580740Y-141670000D01*
X155499220Y-141703767D01*
X155270739Y-141856433D01*
X155076433Y-142050739D01*
X154923767Y-142279220D01*
X154818609Y-142533093D01*
X154765000Y-142802604D01*
X154765000Y-143077396D01*
X154818609Y-143346907D01*
X154923767Y-143600780D01*
X155076433Y-143829261D01*
X155270739Y-144023567D01*
X155499220Y-144176233D01*
X155753093Y-144281391D01*
X156022604Y-144335000D01*
X156297396Y-144335000D01*
X156566907Y-144281391D01*
X156820780Y-144176233D01*
X157049261Y-144023567D01*
X157160000Y-143912828D01*
X157270739Y-144023567D01*
X157499220Y-144176233D01*
X157753093Y-144281391D01*
X158022604Y-144335000D01*
X158297396Y-144335000D01*
X158566907Y-144281391D01*
X158820780Y-144176233D01*
X159049261Y-144023567D01*
X159243567Y-143829261D01*
X159396233Y-143600780D01*
X159501391Y-143346907D01*
X159555000Y-143077396D01*
X159555000Y-142802604D01*
X159501391Y-142533093D01*
X159396233Y-142279220D01*
X159243567Y-142050739D01*
X159049261Y-141856433D01*
X158820780Y-141703767D01*
X158744499Y-141672170D01*
X158762326Y-141665744D01*
X158877794Y-141604025D01*
X158944531Y-141364137D01*
X158160000Y-140579605D01*
X157375469Y-141364137D01*
X157442206Y-141604025D01*
X157581707Y-141669600D01*
X157499220Y-141703767D01*
X157270739Y-141856433D01*
X157160000Y-141967172D01*
X157049261Y-141856433D01*
X156820780Y-141703767D01*
X156739260Y-141670000D01*
X156820780Y-141636233D01*
X157049261Y-141483567D01*
X157243567Y-141289261D01*
X157396233Y-141060780D01*
X157450411Y-140929983D01*
X157980395Y-140400000D01*
X158339605Y-140400000D01*
X159124137Y-141184531D01*
X159364025Y-141117794D01*
X159480924Y-140869108D01*
X159547061Y-140602394D01*
X159559895Y-140327903D01*
X159518931Y-140056183D01*
X159425744Y-139797674D01*
X159364025Y-139682206D01*
X159124137Y-139615469D01*
X158339605Y-140400000D01*
X157980395Y-140400000D01*
X157450411Y-139870017D01*
X157396233Y-139739220D01*
X157243567Y-139510739D01*
X157168691Y-139435863D01*
X157375469Y-139435863D01*
X158160000Y-140220395D01*
X158944531Y-139435863D01*
X158877794Y-139195975D01*
X158629108Y-139079076D01*
X158362394Y-139012939D01*
X158087903Y-139000105D01*
X157816183Y-139041069D01*
X157557674Y-139134256D01*
X157442206Y-139195975D01*
X157375469Y-139435863D01*
X157168691Y-139435863D01*
X157049261Y-139316433D01*
X156820780Y-139163767D01*
X156566907Y-139058609D01*
X156297396Y-139005000D01*
X156022604Y-139005000D01*
X155753093Y-139058609D01*
X155499220Y-139163767D01*
X155270739Y-139316433D01*
X155076433Y-139510739D01*
X154923767Y-139739220D01*
X154818609Y-139993093D01*
X154765000Y-140262604D01*
X100710000Y-140262604D01*
X100710000Y-139650000D01*
X129411928Y-139650000D01*
X129415000Y-139964250D01*
X129573750Y-140123000D01*
X130773000Y-140123000D01*
X130773000Y-138377000D01*
X131027000Y-138377000D01*
X131027000Y-140123000D01*
X132226250Y-140123000D01*
X132385000Y-139964250D01*
X132388072Y-139650000D01*
X132375812Y-139525518D01*
X132339502Y-139405820D01*
X132280537Y-139295506D01*
X132201185Y-139198815D01*
X132104494Y-139119463D01*
X132062540Y-139097038D01*
X132081938Y-139079128D01*
X132225786Y-138881384D01*
X132328292Y-138659377D01*
X132343462Y-138567609D01*
X132218731Y-138377000D01*
X131027000Y-138377000D01*
X130773000Y-138377000D01*
X129581269Y-138377000D01*
X129456538Y-138567609D01*
X129471708Y-138659377D01*
X129574214Y-138881384D01*
X129718062Y-139079128D01*
X129737460Y-139097038D01*
X129695506Y-139119463D01*
X129598815Y-139198815D01*
X129519463Y-139295506D01*
X129460498Y-139405820D01*
X129424188Y-139525518D01*
X129411928Y-139650000D01*
X100710000Y-139650000D01*
X100710000Y-134250000D01*
X129409025Y-134250000D01*
X129432870Y-134492102D01*
X129503489Y-134724901D01*
X129618167Y-134939449D01*
X129772498Y-135127502D01*
X129921762Y-135250000D01*
X129772498Y-135372498D01*
X129618167Y-135560551D01*
X129503489Y-135775099D01*
X129432870Y-136007898D01*
X129409025Y-136250000D01*
X129432870Y-136492102D01*
X129503489Y-136724901D01*
X129618167Y-136939449D01*
X129772498Y-137127502D01*
X129914978Y-137244432D01*
X129897724Y-137254991D01*
X129718062Y-137420872D01*
X129574214Y-137618616D01*
X129471708Y-137840623D01*
X129456538Y-137932391D01*
X129581269Y-138123000D01*
X130773000Y-138123000D01*
X130773000Y-138103000D01*
X131027000Y-138103000D01*
X131027000Y-138123000D01*
X132218731Y-138123000D01*
X132343462Y-137932391D01*
X132328292Y-137840623D01*
X132225786Y-137618616D01*
X132081938Y-137420872D01*
X131902276Y-137254991D01*
X131885022Y-137244432D01*
X132027502Y-137127502D01*
X132087135Y-137054838D01*
X159654767Y-137054838D01*
X159792724Y-137355044D01*
X160141967Y-137530882D01*
X160518804Y-137635207D01*
X160908753Y-137664009D01*
X161296828Y-137616184D01*
X161668116Y-137493568D01*
X161927276Y-137355044D01*
X162065233Y-137054838D01*
X160860000Y-135849605D01*
X159654767Y-137054838D01*
X132087135Y-137054838D01*
X132181833Y-136939449D01*
X132296511Y-136724901D01*
X132367130Y-136492102D01*
X132390975Y-136250000D01*
X132367130Y-136007898D01*
X132296511Y-135775099D01*
X132266394Y-135718753D01*
X158865991Y-135718753D01*
X158913816Y-136106828D01*
X159036432Y-136478116D01*
X159174956Y-136737276D01*
X159475162Y-136875233D01*
X160680395Y-135670000D01*
X161039605Y-135670000D01*
X162244838Y-136875233D01*
X162545044Y-136737276D01*
X162720882Y-136388033D01*
X162825207Y-136011196D01*
X162854009Y-135621247D01*
X162806184Y-135233172D01*
X162683568Y-134861884D01*
X162545044Y-134602724D01*
X162244838Y-134464767D01*
X161039605Y-135670000D01*
X160680395Y-135670000D01*
X159475162Y-134464767D01*
X159174956Y-134602724D01*
X158999118Y-134951967D01*
X158894793Y-135328804D01*
X158865991Y-135718753D01*
X132266394Y-135718753D01*
X132181833Y-135560551D01*
X132027502Y-135372498D01*
X131878238Y-135250000D01*
X132027502Y-135127502D01*
X132181833Y-134939449D01*
X132296511Y-134724901D01*
X132367130Y-134492102D01*
X132387511Y-134285162D01*
X159654767Y-134285162D01*
X160860000Y-135490395D01*
X162065233Y-134285162D01*
X161927276Y-133984956D01*
X161578033Y-133809118D01*
X161201196Y-133704793D01*
X160811247Y-133675991D01*
X160423172Y-133723816D01*
X160051884Y-133846432D01*
X159792724Y-133984956D01*
X159654767Y-134285162D01*
X132387511Y-134285162D01*
X132390975Y-134250000D01*
X132367130Y-134007898D01*
X132296511Y-133775099D01*
X132181833Y-133560551D01*
X132027502Y-133372498D01*
X131839449Y-133218167D01*
X131624901Y-133103489D01*
X131392102Y-133032870D01*
X131210665Y-133015000D01*
X130589335Y-133015000D01*
X130407898Y-133032870D01*
X130175099Y-133103489D01*
X129960551Y-133218167D01*
X129772498Y-133372498D01*
X129618167Y-133560551D01*
X129503489Y-133775099D01*
X129432870Y-134007898D01*
X129409025Y-134250000D01*
X100710000Y-134250000D01*
X100710000Y-131492702D01*
X142186903Y-131492702D01*
X142258486Y-131736671D01*
X142513996Y-131857571D01*
X142788184Y-131926300D01*
X143070512Y-131940217D01*
X143350130Y-131898787D01*
X143616292Y-131803603D01*
X143741514Y-131736671D01*
X143813097Y-131492702D01*
X143000000Y-130679605D01*
X142186903Y-131492702D01*
X100710000Y-131492702D01*
X100710000Y-130570512D01*
X141559783Y-130570512D01*
X141601213Y-130850130D01*
X141696397Y-131116292D01*
X141763329Y-131241514D01*
X142007298Y-131313097D01*
X142820395Y-130500000D01*
X143179605Y-130500000D01*
X143992702Y-131313097D01*
X144236671Y-131241514D01*
X144357571Y-130986004D01*
X144426300Y-130711816D01*
X144440217Y-130429488D01*
X144398787Y-130149870D01*
X144303603Y-129883708D01*
X144236671Y-129758486D01*
X143992702Y-129686903D01*
X143179605Y-130500000D01*
X142820395Y-130500000D01*
X142007298Y-129686903D01*
X141763329Y-129758486D01*
X141642429Y-130013996D01*
X141573700Y-130288184D01*
X141559783Y-130570512D01*
X100710000Y-130570512D01*
X100710000Y-129507298D01*
X142186903Y-129507298D01*
X143000000Y-130320395D01*
X143813097Y-129507298D01*
X143741514Y-129263329D01*
X143486004Y-129142429D01*
X143211816Y-129073700D01*
X142929488Y-129059783D01*
X142649870Y-129101213D01*
X142383708Y-129196397D01*
X142258486Y-129263329D01*
X142186903Y-129507298D01*
X100710000Y-129507298D01*
X100710000Y-102034721D01*
X100756953Y-101555866D01*
X100885938Y-101128645D01*
X101095446Y-100734616D01*
X101377499Y-100388786D01*
X101721351Y-100104327D01*
X102113910Y-99892071D01*
X102540213Y-99760108D01*
X103016964Y-99710000D01*
X120449442Y-99710000D01*
X120382795Y-99809744D01*
M02*
